<svg width="30" height="30" viewBox="0 0 30 30" fill="none" xmlns="http://www.w3.org/2000/svg">
<path d="M17.2992 30V19.5234H20.8104L21.5628 15.1056H17.2992V12.0131C17.2992 11.6862 17.407 11.0184 18.0466 10.4934C18.2999 10.2851 19.0736 9.9304 19.3683 9.9304H21.6882L21.6707 6.28758C18.6146 5.56558 14.4739 5.64131 13.1371 9.08596C13.0142 9.40278 12.6594 10.7294 12.6594 11.0033V15.1056H8.89735V19.5234H12.6594V30C6.22255 29.1392 0.963255 23.6383 0.134357 17.1719C-1.63379 3.37685 14.4488 -5.38435 24.8884 3.74164C34.4828 12.128 29.7916 28.2531 17.2979 30H17.2992Z" fill="#3D007C"/>
</svg>
