<svg width="30" height="30" viewBox="0 0 30 30" fill="none" xmlns="http://www.w3.org/2000/svg">
<path d="M9.91723 0.118632C13.1797 -0.0142586 16.9461 -0.0494355 20.2037 0.0854093C26.8445 0.361939 29.5593 3.06568 29.8502 9.7102C30.0068 13.2885 30.1157 18.5054 29.7801 22.0251C28.7257 33.0667 16.1815 29.1748 8.71787 29.8959C3.44865 29.5871 0.601508 26.5629 0.211449 21.3411C-0.0745305 17.5087 -0.0648033 12.4706 0.206585 8.63535C0.643335 2.45496 4.14998 0.353145 9.91723 0.118632ZM13.1019 2.78035C9.02719 2.82335 3.87957 2.29765 3.04108 7.57516C2.52263 10.8359 2.70355 16.3752 2.83195 19.7835C2.92339 22.2088 3.09556 24.7571 5.31433 26.1818C6.79869 27.1345 7.92705 27.0661 9.59526 27.1579C13.2896 27.3612 18.0871 27.499 21.7426 27.1443C28.3181 26.5072 27.1752 19.9408 27.1509 15.0952C27.1217 9.41608 28.4407 3.25231 20.8846 2.82237C18.4305 2.68264 15.5629 2.75495 13.1029 2.78133L13.1019 2.78035Z" fill="#3D007C"/>
<path d="M22.6817 15.0192C22.6817 19.2629 19.2568 22.7034 15.0323 22.7034C10.8078 22.7034 7.38281 19.2629 7.38281 15.0192C7.38281 10.7755 10.8078 7.33496 15.0323 7.33496C19.2568 7.33496 22.6817 10.7755 22.6817 15.0192ZM19.9785 15.0201C19.9785 12.2763 17.7646 10.0524 15.0332 10.0524C12.3018 10.0524 10.0879 12.2763 10.0879 15.0201C10.0879 17.7639 12.3018 19.9879 15.0332 19.9879C17.7646 19.9879 19.9785 17.7639 19.9785 15.0201Z" fill="#3D007C"/>
<path d="M22.9685 8.85661C23.9607 8.85661 24.7651 8.04859 24.7651 7.05184C24.7651 6.05509 23.9607 5.24707 22.9685 5.24707C21.9762 5.24707 21.1719 6.05509 21.1719 7.05184C21.1719 8.04859 21.9762 8.85661 22.9685 8.85661Z" fill="#3D007C"/>
</svg>
