<svg width="39" height="17" viewBox="0 0 39 17" fill="none" xmlns="http://www.w3.org/2000/svg">
<path d="M27.3355 0.727173C28.6516 1.29764 29.8979 2.31923 30.7503 3.50756C31.6315 4.73627 32.1878 6.19931 32.3275 7.71501C32.7371 7.63602 33.1284 7.47541 33.5441 7.41749C35.7537 7.11119 37.8838 8.39958 38.6759 10.477C39.7955 13.4136 37.8934 16.538 34.8314 16.9479C30.2289 17.0488 25.615 16.961 21.0081 16.9926C20.6989 16.9882 20.4343 16.7996 20.4142 16.4739L20.4343 0.940442C20.4824 0.751747 20.6867 0.66486 20.8492 0.587627C22.7627 -0.321617 25.4333 -0.0978168 27.3355 0.727173Z" fill="#3D007C"/>
<path d="M19.2932 1.14186C19.4653 1.10587 19.6076 1.13835 19.7378 1.25419C20.005 1.49116 19.8976 1.87645 19.9142 2.1924C20.0696 5.13867 20.0653 8.16305 20.1054 11.1225C20.129 12.826 20.1107 14.6103 19.9491 16.312C19.9264 16.5499 19.8644 16.8017 19.6364 16.9211C19.3264 17.0835 18.9334 16.8851 18.8854 16.5446C18.7159 15.3343 18.8076 13.9661 18.6897 12.7382C18.7037 10.057 18.7605 7.3442 18.8452 4.65684C18.9063 3.69757 18.7762 2.55487 18.8819 1.61491C18.9055 1.40339 19.0862 1.18574 19.2924 1.14273L19.2932 1.14186Z" fill="#3D007C"/>
<path d="M17.7512 2.07629C18.2263 2.08594 18.2437 2.51423 18.2673 2.88372C18.2979 3.35941 18.2533 3.86669 18.2664 4.34764C18.3616 7.86701 18.5459 11.4066 18.3442 14.9303C18.3171 15.4069 18.318 16.0081 18.2638 16.4662C18.1826 17.149 17.3538 17.1122 17.2743 16.5838C17.2167 16.1994 17.2158 15.679 17.194 15.2788C16.9608 11.0292 17.2586 6.76205 17.2717 2.49756C17.2996 2.24743 17.5066 2.07102 17.752 2.07629H17.7512Z" fill="#3D007C"/>
<path d="M15.7592 3.87989C15.9059 3.64117 16.3644 3.63854 16.5059 3.89043C16.6474 4.14231 16.5749 4.79616 16.5863 5.11826C16.6815 7.86881 16.8666 10.737 16.7417 13.4691C16.6963 14.4538 16.712 15.6237 16.5845 16.583C16.5094 17.1508 15.7514 17.1315 15.6719 16.5444C15.588 15.9283 15.6256 15.1454 15.5915 14.5082C15.4308 11.504 15.5802 8.57795 15.6701 5.5799C15.6859 5.05419 15.6378 4.52409 15.7094 4.00189C15.7173 3.94396 15.7313 3.92466 15.7592 3.87902V3.87989Z" fill="#3D007C"/>
<path d="M14.3505 3.41179C14.6388 3.34509 14.8641 3.51711 14.899 3.80673C14.9654 4.36316 14.9139 5.08195 14.9348 5.65681C15.0117 7.78423 15.1008 9.91429 15.1261 12.0461C15.1444 13.5671 14.9776 15.0977 14.8955 16.623C14.8134 17.0987 14.1296 17.1207 14.0589 16.5835C13.9567 15.8165 13.9785 14.8748 13.9401 14.0858C13.9095 13.4495 13.865 12.8298 13.8658 12.2006C13.8676 9.8432 13.989 7.4753 14.0571 5.11794C14.0676 4.75547 13.9837 3.85412 14.1375 3.58205C14.1768 3.51184 14.2711 3.43022 14.3505 3.41179Z" fill="#3D007C"/>
<path d="M12.7446 3.21959C13.0241 3.15552 13.2206 3.29331 13.2546 3.57591C13.3306 4.20782 13.3105 5.03895 13.3324 5.69193C13.4546 9.34997 13.6407 13.0045 13.2511 16.6608C13.1271 17.0899 12.6153 17.0891 12.4896 16.6608C12.1184 12.9632 12.3324 9.27185 12.4512 5.57959C12.4712 4.94241 12.4171 4.20256 12.4878 3.57679C12.5053 3.42057 12.5769 3.25821 12.7446 3.21959Z" fill="#3D007C"/>
<path d="M11.1752 3.52656C11.4145 3.47829 11.5796 3.6547 11.6075 3.88464C11.6651 4.36471 11.6232 4.9387 11.6433 5.42667C11.7315 7.54005 11.8232 9.66045 11.8747 11.7756C11.9097 13.2044 11.804 14.9237 11.6442 16.356C11.6162 16.6053 11.597 16.9423 11.2817 16.9572C11.0031 16.9695 10.9123 16.7992 10.8826 16.5447C10.7542 15.4327 10.7324 14.1382 10.6861 13.0087C10.6145 11.256 10.7473 9.48755 10.8032 7.73664C10.8398 6.58516 10.8128 5.42052 10.8783 4.27168C10.8852 4.15496 10.9071 3.83812 10.9333 3.74948C10.9595 3.66084 11.087 3.54499 11.1743 3.52744L11.1752 3.52656Z" fill="#3D007C"/>
<path d="M9.38955 4.33895C9.55374 4.15903 9.91967 4.24328 9.94936 4.50219C10.035 6.82884 10.159 9.14758 10.2184 11.4681C10.2594 13.0654 10.1389 14.5337 9.99041 16.124C9.96945 16.3461 10.035 16.8542 9.78867 16.9604C9.54239 17.0666 9.34763 16.9499 9.30309 16.6989C9.23759 15.0313 8.9913 13.3673 9.03061 11.6963C9.0865 9.32487 9.28038 6.95434 9.29959 4.57591C9.30746 4.50482 9.34239 4.38985 9.38955 4.33895Z" fill="#3D007C"/>
<path d="M7.99445 5.75931C8.51409 5.64433 8.36562 6.52462 8.38833 6.84847C8.61714 10.1712 8.80579 13.2202 8.38745 16.5482C8.36213 16.7519 8.34903 16.9546 8.101 16.9572C7.81367 16.9599 7.80493 16.7404 7.77961 16.5052C7.60232 14.8596 7.48267 12.9613 7.54293 11.3122C7.60319 9.66309 7.6783 8.04734 7.77436 6.42632C7.78135 6.31486 7.80406 5.98311 7.82939 5.90412C7.85297 5.82952 7.91847 5.77686 7.99357 5.76018L7.99445 5.75931Z" fill="#3D007C"/>
<path d="M6.32773 16.867C6.29192 16.831 6.25 16.6134 6.24301 16.5484C6.09018 15.21 6.1059 13.8119 5.93472 12.4709C6.10852 11.1983 6.10415 9.89759 6.24651 8.62412C6.29891 8.15721 6.71462 8.15546 6.77663 8.54514C6.87357 9.15598 6.87444 9.87916 6.93208 10.5058C6.97488 10.9657 7.0526 11.4317 7.08492 11.8916C7.19409 13.4626 6.82117 15.1152 6.76964 16.6932C6.76964 16.9197 6.46397 17.0065 6.32773 16.867Z" fill="#3D007C"/>
<path d="M4.92782 7.99039C5.16013 7.95528 5.18022 8.22823 5.20118 8.39323C5.37934 9.75271 5.40379 11.1447 5.56798 12.5068C5.38196 13.8031 5.40903 15.2222 5.20205 16.5053C5.17847 16.6519 5.15838 16.8801 4.95751 16.8801C4.73918 16.8801 4.73132 16.601 4.70861 16.4334C4.56276 15.317 4.43875 13.8267 4.40032 12.7016C4.39508 12.5419 4.39508 12.3593 4.40294 12.1996C4.45883 11.0411 4.57324 9.65704 4.70948 8.50469C4.7287 8.34057 4.73219 8.0211 4.92869 7.99126L4.92782 7.99039Z" fill="#3D007C"/>
<path d="M3.32027 8.14385C3.46001 8.09734 3.55782 8.19212 3.59276 8.32026L4.00847 12.4751L3.59974 16.5465L3.4277 16.7237C3.3325 16.7325 3.23818 16.6386 3.22159 16.5465C3.1884 15.1326 2.805 13.5607 2.87487 12.1609C2.92989 11.0568 3.06264 9.80349 3.18141 8.69677C3.19539 8.57039 3.21198 8.17984 3.32202 8.14385H3.32027Z" fill="#3D007C"/>
<path d="M1.76238 16.0579C1.72308 16.0158 1.69251 15.7753 1.68115 15.6963C1.52832 14.6405 1.49775 13.5619 1.32832 12.507C1.52832 11.3713 1.51347 10.1329 1.71871 9.00691C1.77198 8.71377 1.97984 8.79627 2.04883 9.09204C2.2925 10.1443 2.2497 11.4319 2.48114 12.507C2.2497 13.5733 2.289 14.8319 2.04272 15.8771C2.01041 16.0158 1.89687 16.2019 1.76238 16.0588V16.0579Z" fill="#3D007C"/>
<path d="M0.407852 10.1815C0.45152 10.1683 0.486453 10.1841 0.519641 10.2122C0.654136 10.3298 0.816578 12.1667 0.914393 12.4721C0.763304 13.1269 0.763304 13.9299 0.594748 14.5671C0.568548 14.6662 0.564181 14.7795 0.440166 14.7979C0.340605 14.7979 0.294317 14.6557 0.276851 14.5759C0.134495 13.9264 0.154582 13.1646 0 12.5064C0.158949 11.8376 0.132749 11.0574 0.276851 10.3982C0.292571 10.3272 0.333618 10.2008 0.408726 10.1815H0.407852Z" fill="#3D007C"/>
</svg>
