<svg width="30" height="30" viewBox="0 0 30 30" fill="none" xmlns="http://www.w3.org/2000/svg">
<path d="M30 15C30 23.285 23.285 30 15 30C6.715 30 0 23.285 0 15C0 6.715 6.715 0 15 0C23.285 0 30 6.715 30 15ZM10.5404 8.29962C9.17327 8.35628 7.03668 8.51529 5.74449 8.88632C4.35543 9.28658 4.32801 11.319 5.62934 11.6973C6.32753 11.9002 8.03643 11.4433 8.85525 11.3555C13.388 10.8767 18.1638 11.5877 22.3419 13.3752C22.8939 13.6109 24.272 14.4133 24.7508 14.4316C25.9717 14.4809 26.7412 13.0535 25.9864 12.0373C25.6811 11.6279 24.5004 11.1234 23.9905 10.8931C19.8562 9.02522 15.0804 8.10589 10.5404 8.29597V8.29962ZM23.7328 16.634C23.3654 16.294 22.1884 15.7951 21.6839 15.5757C17.2737 13.642 12.0903 12.9639 7.33642 13.876C6.40429 14.0551 5.32046 14.2707 5.58365 15.5264C5.87791 16.9337 7.56671 16.2282 8.47874 16.1076C12.4906 15.5721 16.6303 16.0327 20.357 17.6081C20.9199 17.8457 22.3711 18.692 22.8427 18.7102C23.8881 18.7523 24.526 17.3705 23.7328 16.6358V16.634ZM10.5404 18.1692C9.82028 18.2095 9.07274 18.3063 8.36359 18.427C7.9816 18.4928 7.11892 18.6225 6.81552 18.8016C6.12465 19.2056 6.27087 20.3406 7.01109 20.5087C7.46253 20.6111 8.4166 20.2912 8.93018 20.2126C12.3114 19.6972 15.7951 20.1377 18.9277 21.4719C19.5254 21.726 20.1578 22.1445 20.7189 22.3711C21.6291 22.7385 22.4351 21.8978 21.9508 21.0753C21.704 20.6568 19.7118 19.774 19.1745 19.5583C16.4951 18.4818 13.43 18.0066 10.5404 18.1674V18.1692Z" fill="#3D007C"/>
</svg>
