<svg width="30" height="35" viewBox="0 0 30 35" fill="none" xmlns="http://www.w3.org/2000/svg">
<path d="M21.777 0C21.6548 3.5574 24.1015 6.81616 27.3722 7.95467C28.213 8.24759 29.106 8.44898 30 8.39977V14.3509C27.5476 14.2754 25.0544 13.7021 22.9325 12.4435C22.6179 12.257 22.2342 11.9229 21.9253 11.7741C21.8743 11.7501 21.8393 11.7192 21.777 11.7352V24.6284C21.3436 30.9559 15.7326 35.7605 9.44706 34.9001C0.977366 33.7398 -2.92137 23.6066 2.49159 16.906C4.86704 13.9664 8.64129 12.4904 12.3838 12.9584V19.0777C9.48667 18.1371 6.39938 20.0148 5.88445 23.0367C5.24843 26.7784 8.61865 29.917 12.2582 28.8483C14.2919 28.251 15.7246 26.3355 15.8503 24.2073L15.848 0H21.7759L21.777 0Z" fill="#3D007C"/>
</svg>
