<svg width="40" height="28" viewBox="0 0 40 28" fill="none" xmlns="http://www.w3.org/2000/svg">
<path d="M16.054 0.0275491C20.8046 -0.0432718 25.5564 0.0275491 30.2922 0.181615C32.4756 0.252436 35.6754 0.172918 37.4211 1.68128C39.1669 3.18964 39.482 5.61618 39.6941 7.72838C40.1366 12.1404 40.1256 16.7823 39.4857 21.1732C38.999 24.5117 38.283 27.0997 34.5169 27.4924C32.1569 27.7384 29.6621 27.8067 27.2874 27.9024C21.5573 28.1322 15.8051 27.8999 10.0738 27.7794C8.20543 27.7396 6.26965 27.7446 4.44788 27.2675C1.01521 26.3692 0.555477 22.8381 0.266151 19.7803C-0.150673 15.3671 -0.0856975 10.683 0.516246 6.29457C0.732014 4.72285 0.940426 3.13994 2.07321 1.94841C3.63753 0.30462 5.7621 0.466141 7.83887 0.344379C10.5678 0.1841 13.3128 0.0685506 16.054 0.0275491ZM16.0613 19.8835L26.2527 13.9805L16.0613 8.07752V19.8835Z" fill="#3D007C"/>
</svg>
