<svg width="29" height="36" viewBox="0 0 29 36" fill="none" xmlns="http://www.w3.org/2000/svg">
<path d="M28.9137 6.32544C28.9137 6.25019 28.8755 6.17495 28.8755 6.0997C28.7991 6.0997 28.7227 6.06208 28.6463 6.06208C27.5387 6.06208 26.4692 6.06208 25.3616 6.06208C25.2852 6.06208 25.2088 6.0997 25.1324 6.0997C25.056 6.28781 25.0942 6.47593 25.0942 6.62642C25.0942 11.6302 25.0942 16.6339 25.0942 21.6753C25.0942 22.2397 25.056 22.804 25.0178 23.3683C24.9414 24.0455 24.7886 24.7227 24.4449 25.3623C23.9102 26.3029 23.1081 26.9424 22.0004 27.1306C21.3129 27.2434 20.6254 27.2434 19.9379 27.0929C19.1358 26.9424 18.4864 26.5286 17.9899 25.9266C17.608 25.4376 17.3406 24.9108 17.1878 24.3089C16.9968 23.5564 16.9204 22.7664 16.9204 21.9763C16.9204 16.8973 16.9204 11.8183 16.9204 6.73928C16.9204 6.66404 16.9204 6.58879 16.9204 6.55117C17.1496 6.4383 17.3406 6.36306 17.4934 6.17495C18.1809 5.57299 18.5628 4.82055 18.6392 3.91761C18.7156 2.7137 18.2573 1.77314 17.3024 1.02069C16.8441 0.682094 16.3093 0.456361 15.7746 0.268249C14.6669 -0.0703512 13.5593 -0.0327289 12.4516 0.0801379C11.6495 0.155382 10.8856 0.418738 10.1599 0.757339C9.396 1.13356 8.78488 1.62265 8.25015 2.26223C7.8682 2.67607 7.60083 3.16516 7.33347 3.65425C7.10429 4.10572 6.91332 4.55719 6.79873 5.04628C6.60776 5.83635 6.49317 6.58879 6.45498 7.37886C6.41678 7.94319 6.41678 8.46991 6.41678 9.03424C6.14942 14.7152 5.95844 17.6121 5.76746 18.9289C5.61468 19.9071 5.34732 20.8476 5.00356 21.7506C4.77439 22.3149 4.50703 22.8416 4.20146 23.3683C3.9341 23.8198 3.62854 24.2336 3.32298 24.6475C2.75005 25.3623 2.13893 26.0395 1.37502 26.5662C0.993073 26.8296 0.572927 27.1306 0.190976 27.3939C0.114585 27.4315 0.0381951 27.5068 0 27.5444C0 27.5444 0 27.6196 0 27.6573C0 27.6949 0.0763902 27.6949 0.0763902 27.6949C0.229171 27.6196 0.381951 27.5444 0.496537 27.4692C0.993073 27.1306 1.52781 26.9048 2.10073 26.6791C2.25351 26.6038 2.40629 26.5662 2.55907 26.5286C3.20839 26.3781 3.8959 26.4157 4.54522 26.5662C4.85078 26.6415 5.15634 26.7167 5.4619 26.8296C6.68415 27.3187 7.71542 28.0335 8.70849 28.8612C9.51059 29.576 10.2745 30.2908 11.0384 31.0433C11.6495 31.6076 12.2224 32.1719 12.8336 32.7363C13.6739 33.4511 14.5523 34.0907 15.5072 34.6174C15.851 34.8055 16.2329 34.956 16.5767 35.1065C17.4552 35.3698 18.3337 35.4451 19.2503 35.3322C19.7851 35.257 20.3198 35.0689 20.7781 34.7679C21.4657 34.354 21.9622 33.7897 22.2678 33.0373C22.4969 32.4729 22.6115 31.871 22.4969 31.2314C22.306 30.2532 21.733 29.576 20.8545 29.1245C20.8163 29.1245 20.7782 29.1245 20.74 29.1622C20.74 29.1998 20.74 29.2374 20.74 29.275C20.8163 29.3503 20.9309 29.3879 21.0073 29.4631C22.1532 30.178 22.6115 31.57 22.0768 32.8115C21.733 33.6392 21.0837 34.1659 20.2052 34.354C19.3649 34.5421 18.5628 34.354 17.7989 33.9402C17.1496 33.564 16.5767 33.1125 16.0801 32.5858C15.4308 31.9086 14.8197 31.2314 14.2086 30.5542C13.4447 29.6889 12.719 28.7859 11.9169 27.9959C11.1148 27.2058 10.2363 26.5286 9.24322 25.9643C8.89947 25.6633 8.32654 25.4376 7.75361 25.3247C7.14249 25.2118 6.53137 25.1742 5.92025 25.2118C5.11815 25.2871 4.35425 25.4376 3.62854 25.7385C3.36117 25.8514 3.09381 26.0019 2.82644 26.1148C2.75005 26.1524 2.71185 26.2276 2.63546 26.1524C2.63546 26.1148 2.63546 26.0771 2.67366 26.0771C2.75005 26.0019 2.86463 25.9266 2.94102 25.889C3.8959 25.2494 4.85078 24.5722 5.69107 23.8198C6.64595 22.9545 7.44805 21.9387 8.02098 20.81C8.21195 20.4338 8.40293 20.0199 8.51751 19.6437C8.93766 18.4774 9.28142 15.6181 9.62517 10.1629C9.73976 8.959 9.81615 7.71746 9.81615 6.51355C9.81615 5.87397 9.81615 5.23439 9.93073 4.59481C10.0835 3.76712 10.3509 3.01468 10.8092 2.29985C11.3821 1.43454 12.1461 0.870206 13.1391 0.60685C13.6739 0.456361 14.2468 0.456361 14.8197 0.456361C15.6982 0.493983 16.5003 0.719717 17.226 1.24643C17.7225 1.58503 18.0281 2.0365 18.2573 2.56321C18.5246 3.31565 18.5246 4.03048 18.2573 4.78292C18.0663 5.27201 17.7989 5.7611 17.3788 6.06208C17.226 6.17495 17.1114 6.25019 16.9586 6.32544C16.9586 6.25019 16.9204 6.17495 16.9204 6.0997C16.8059 6.0997 16.7295 6.06208 16.6531 6.06208C15.5836 6.06208 14.5523 6.06208 13.4829 6.06208C13.3683 6.06208 13.2919 6.0997 13.2155 6.0997C13.1009 6.32544 13.1009 6.47593 13.1009 6.62642C13.1009 10.8025 13.1009 14.9409 13.1009 19.117C13.1009 19.9447 13.1391 20.7724 13.2537 21.6001C13.4065 22.503 13.6357 23.3307 14.0176 24.1584C14.476 25.0613 15.1253 25.7762 15.9274 26.3781C16.8441 27.0553 17.8371 27.4315 18.9448 27.6196C20.2052 27.8078 21.4275 27.8078 22.6879 27.6573C23.7574 27.5068 24.7886 27.2058 25.7053 26.6415C26.3928 26.19 27.004 25.6633 27.5005 25.0237C28.1116 24.196 28.4554 23.2555 28.6463 22.2773C28.8373 21.2615 28.9137 20.2457 28.9137 19.2299C28.9137 15.0538 28.9137 10.8777 28.9137 6.70166C28.9137 6.55117 28.9137 6.4383 28.9137 6.32544Z" fill="#D95484"/>
</svg>
