<svg width="18" height="22" viewBox="0 0 18 22" fill="none" xmlns="http://www.w3.org/2000/svg">
<path d="M16.6531 5.27314C16.0801 4.25734 15.3544 3.39203 14.476 2.6772C13.903 2.18811 13.2919 1.77427 12.6044 1.43567C11.3821 0.796088 10.0453 0.419865 8.67029 0.194131C7.7918 0.0436417 6.91331 0.00601946 5.99663 0.00601946C4.85077 0.00601946 3.74312 0.00601946 2.59726 0.00601946C1.87156 0.00601946 1.18404 0.00601946 0.458335 0.00601946C0.305554 0.00601946 0.190966 -0.0316025 0.0381858 0.0812643C0.0381858 0.118887 0 0.156509 0 0.194131C0 7.19187 0 14.2272 0 21.225C0 21.2626 0.0381858 21.3379 0.0381858 21.3755C0.190966 21.4507 0.343751 21.4507 0.496532 21.4507C2.13892 21.4507 3.81951 21.4507 5.4619 21.4507C6.30219 21.4507 7.14249 21.4131 7.98278 21.3002C8.74668 21.1874 9.51058 21.0369 10.2745 20.8111C11.0384 20.5854 11.7641 20.2468 12.4516 19.9082C12.9863 19.6448 13.4447 19.3062 13.903 18.9676C14.6287 18.4033 15.3162 17.7261 15.851 16.9737C16.3475 16.2965 16.7677 15.544 17.1114 14.7916C17.4552 13.9639 17.6843 13.1362 17.7989 12.2709C18.0281 10.7284 17.9899 9.14823 17.5698 7.64334C17.3788 6.74041 17.0732 5.98796 16.6531 5.27314ZM13.6739 12.5342C13.5593 13.3996 13.4065 14.2272 13.1391 15.0549C12.91 15.7698 12.6426 16.447 12.2224 17.0865C12.0315 17.4251 11.8023 17.7637 11.5731 18.0647C11.0002 18.8924 10.2363 19.4944 9.35781 19.9834C8.6321 20.3973 7.8682 20.6606 7.0661 20.8111C6.60776 20.8864 6.11122 20.924 5.65287 20.924C5.11814 20.924 4.6216 20.924 4.08687 20.924C4.01048 20.924 3.93409 20.8864 3.8577 20.8864C3.8577 20.8111 3.81951 20.7359 3.81951 20.6606C3.81951 20.5478 3.81951 20.4349 3.81951 20.322C3.81951 13.9263 3.81951 7.53048 3.81951 1.09707C3.81951 0.908955 3.78131 0.758465 3.8577 0.570354C3.93409 0.570354 3.97228 0.532732 4.04867 0.532732C5.00355 0.532732 5.92024 0.495109 6.87512 0.645598C7.8682 0.796088 8.82307 1.09707 9.70156 1.58616C10.3127 1.92476 10.8092 2.37622 11.3057 2.86531C11.6113 3.16629 11.8787 3.50489 12.1078 3.88112C12.528 4.55832 12.8718 5.27314 13.1391 6.02558C13.5211 7.04138 13.6739 8.13243 13.7502 9.18586C13.8266 10.2769 13.8266 11.4056 13.6739 12.5342Z" fill="#D95484"/>
</svg>
