<svg width="22" height="29" viewBox="0 0 22 29" fill="none" xmlns="http://www.w3.org/2000/svg">
<path d="M18.3474 6.39321C18.3474 6.50608 18.271 6.65657 18.3474 6.76943C18.3856 6.76943 18.4238 6.80706 18.462 6.80706C18.7676 6.84468 20.8683 6.80705 21.1357 6.76943C21.1739 6.69419 21.2121 6.61894 21.2121 6.5437C21.3649 5.82888 21.403 5.07643 21.3267 4.32398C21.2121 3.42105 20.8683 2.63098 20.2572 1.95378C19.5315 1.16371 18.653 0.674623 17.6599 0.373645C16.2849 -0.00257769 14.9099 -0.077822 13.4967 0.0726672C12.2362 0.223156 11.0904 0.674624 10.0973 1.46469C9.56256 1.87854 9.14241 2.36763 8.83685 2.89434C8.37851 3.68441 8.07294 4.5121 7.95836 5.41503C7.88197 6.05461 7.88197 6.65657 7.95836 7.29614C8.11114 8.42481 8.56949 9.40299 9.18061 10.3435C9.79173 11.2841 10.5556 12.1494 11.3577 12.9771C12.2744 13.9177 13.2675 14.8582 14.146 15.8364C14.8717 16.6641 15.521 17.5294 16.0557 18.47C16.4377 19.1848 16.6668 19.9749 16.7432 20.7649C16.8578 22.0065 16.6287 23.1727 16.0939 24.2638C15.6356 25.2043 14.9863 25.9944 14.0696 26.5964C13.764 26.7845 13.4585 27.0102 13.1147 27.1607C12.1598 27.6874 11.1286 27.9884 10.0591 28.1013C9.14241 28.2141 8.26392 28.2517 7.34724 28.1765C6.39236 28.1389 5.51387 27.9131 4.63538 27.5745C4.29163 27.4617 3.98607 27.3112 3.68051 27.1231C2.99299 26.7469 2.42007 26.2954 1.88534 25.7311C1.3888 25.2043 0.968654 24.6024 0.663093 23.9252C0.357532 23.248 0.20475 22.5708 0.166555 21.856C0.0519693 19.9372 0.472114 18.169 1.65616 16.5888C1.69436 16.5512 1.73255 16.5136 1.77075 16.4384C1.77075 18.0937 1.77075 19.7491 1.77075 21.4045C1.77075 21.4421 1.80895 21.5174 1.80895 21.555C1.88534 21.555 1.96173 21.5926 2.07631 21.5926C2.26729 21.5926 2.49646 21.5926 2.68744 21.5926C3.52773 21.5926 4.32983 21.5926 5.17012 21.5926C5.3229 21.5926 5.43748 21.6302 5.59026 21.5174C5.59026 21.4797 5.62846 21.4421 5.62846 21.3669C5.62846 18.959 5.62846 16.5136 5.62846 14.1058C5.97222 14.0305 6.31597 13.9929 6.69792 13.9929C7.34724 13.9553 8.03476 13.9929 8.64588 14.2563C8.68407 14.2563 8.76046 14.2939 8.79866 14.2939C8.83685 14.2939 8.87504 14.2563 8.87504 14.2186C8.87504 14.181 8.87505 14.1434 8.83685 14.1058C8.76046 14.0682 8.64587 13.9929 8.56948 13.9929C8.03475 13.8424 7.46182 13.7296 6.92709 13.7672C6.50694 13.7672 6.04861 13.8048 5.62846 13.88C5.62846 9.36537 5.62846 4.8507 5.62846 0.336023C5.62846 0.298401 5.59026 0.223156 5.59026 0.185534C5.51387 0.185534 5.43748 0.147912 5.3229 0.147912C4.25343 0.147912 3.14577 0.147912 2.07631 0.147912C1.99992 0.147912 1.92353 0.185534 1.80895 0.185534C1.80895 0.260778 1.77075 0.298401 1.77075 0.336023C1.77075 5.56552 1.77075 10.795 1.77075 16.0245C1.54158 16.2879 1.35061 16.5888 1.15963 16.8522C0.968655 17.1908 0.777676 17.5294 0.624895 17.9056C0.395724 18.3947 0.242945 18.8838 0.166555 19.3729C0.0901645 19.862 0.0137765 20.3511 0.0137765 20.8402C-0.0244186 21.5174 0.0137742 22.1946 0.166555 22.8718C0.395726 23.9252 0.892261 24.8281 1.57977 25.6182C2.22909 26.3706 2.99299 26.935 3.87148 27.3864C4.97914 27.9508 6.20138 28.2141 7.42363 28.327C8.03475 28.3646 8.60768 28.3646 9.2188 28.327C9.67715 28.2894 10.1737 28.2517 10.632 28.1765C11.8543 27.9508 13.0001 27.5745 14.1078 27.0478C15.5592 26.3706 16.7814 25.4301 17.7745 24.1509C18.3092 23.4361 18.7676 22.646 19.0349 21.7807C19.4551 20.4639 19.4933 19.1472 19.1877 17.8304C18.9967 16.9651 18.6148 16.2126 18.1947 15.4602C17.5835 14.4068 16.7814 13.4662 15.9411 12.5633C15.521 12.1118 15.0627 11.698 14.6425 11.2841C14.0696 10.7198 13.4585 10.1178 12.9237 9.51586C12.4654 9.06439 12.0452 8.5753 11.7015 8.01097C11.2431 7.33377 10.8612 6.65657 10.6702 5.82888C10.441 4.77545 10.4792 3.75965 10.823 2.74385C11.1286 1.87854 11.6633 1.20134 12.4272 0.712246C13.1147 0.260779 13.8404 0.0350454 14.6807 0.0350454C15.5592 0.0350454 16.3231 0.260779 17.0488 0.787491C17.6981 1.27658 18.1183 1.95378 18.3856 2.70623C18.462 2.96958 18.5384 3.27056 18.5766 3.53392C18.6148 3.91014 18.653 4.32398 18.6148 4.70021C18.462 5.37741 18.4238 5.8665 18.3474 6.39321Z" fill="#D95484"/>
</svg>
