<svg width="17" height="22" viewBox="0 0 17 22" fill="none" xmlns="http://www.w3.org/2000/svg">
<path d="M15.3831 19.9398C15.0011 19.0745 14.6574 18.2468 14.2754 17.3815C13.9699 16.7043 13.6261 16.0271 13.2442 15.3499C12.6712 14.3717 11.9073 13.4688 10.9906 12.754C10.0358 12.0015 8.96631 11.4372 7.70587 11.2114C7.40031 11.1738 7.09474 11.1362 6.78918 11.0986C6.75098 11.0986 6.6746 11.0986 6.71279 10.9857C6.78919 10.9857 6.86558 10.9481 6.94197 10.9481C7.78226 10.8728 8.58436 10.76 9.38645 10.4966C10.3795 10.158 11.2962 9.70655 12.0601 8.9541C12.5567 8.46501 12.9768 7.90068 13.2442 7.2611C13.8171 5.75621 13.6261 4.32656 12.824 2.97216C12.4039 2.25734 11.7927 1.73063 11.1052 1.27916C10.2267 0.714824 9.27187 0.376223 8.2788 0.188111C7.4767 0.0376223 6.67459 0 5.8343 0C4.07732 0 2.28215 0 0.525178 0C0.410593 0 0.334207 0 0.219622 0C0.143232 0 0.0668415 0.0376226 0.0286464 0.0752448C-0.00954878 0.48909 -0.00954878 21.1061 0.0286464 21.4071C0.105037 21.4071 0.18142 21.4447 0.296005 21.4447C1.36547 21.4447 2.47313 21.4447 3.54259 21.4447C3.61898 21.4447 3.69538 21.4071 3.80996 21.4071C3.80996 20.8051 3.80996 20.2408 3.80996 19.6388C3.80996 19.0745 3.80996 18.4725 3.80996 17.9082C3.80996 17.3439 3.80996 16.7419 3.80996 16.1776C3.80996 15.6132 3.80996 15.0113 3.80996 14.447C3.80996 13.8826 3.80996 13.2807 3.80996 12.7163C3.80996 12.152 3.80996 11.5877 3.80996 11.0233C3.80996 10.459 3.80996 9.85704 3.80996 9.2927C3.80996 8.72837 3.80996 8.12641 3.80996 7.56208C3.80996 6.99774 3.80996 6.39579 3.80996 5.83145C3.80996 5.26712 3.80996 4.66516 3.80996 4.10083C3.80996 3.53649 3.80996 2.93454 3.80996 2.3702C3.80996 1.80587 3.80996 1.20391 3.80996 0.601957C3.96274 0.601957 4.07733 0.564334 4.15372 0.564334C4.49747 0.564334 4.80304 0.564335 5.14679 0.601957C6.86557 0.714824 8.04962 1.58014 8.81353 3.04741C9.08089 3.53649 9.23367 4.10083 9.31006 4.66516C9.46284 5.75621 9.38645 6.77201 9.0045 7.82543C8.85172 8.2769 8.62254 8.72837 8.31698 9.10459C7.62947 10.0075 6.7128 10.5719 5.60514 10.8352C5.49055 10.8728 5.41416 10.8728 5.33777 10.9105C5.29957 11.1362 5.29957 11.1362 5.33777 11.3619C5.37596 11.3619 5.45235 11.3996 5.52874 11.4372C6.56001 11.7005 7.4003 12.3025 8.12601 13.0549C8.73713 13.6945 9.23367 14.447 9.65381 15.237C9.99757 15.8766 10.2649 16.5538 10.5323 17.231C10.9143 18.2844 11.258 19.3379 11.64 20.3913C11.7164 20.6546 11.8309 20.8804 11.9455 21.1437C12.0983 21.4823 12.0601 21.4823 12.4803 21.4823C13.5497 21.4823 14.6192 21.4823 15.6887 21.4823C15.765 21.4823 15.8414 21.4823 15.9178 21.4823C15.956 21.4823 16.0324 21.4447 16.0706 21.4071C16.0706 21.3695 16.0706 21.3318 16.0706 21.2942C15.8414 20.8427 15.5741 20.3913 15.3831 19.9398Z" fill="#D95484"/>
</svg>
