<svg width="18" height="23" viewBox="0 0 18 23" fill="none" xmlns="http://www.w3.org/2000/svg">
<path d="M17.1878 0.3177C17.226 0.242456 17.2642 0.129588 17.1496 0.016721C16.7677 -0.0209013 16.3857 0.016721 16.0038 0.016721C15.8892 0.016721 15.8128 0.0919656 15.7746 0.204832C15.7364 0.280077 15.7364 0.355322 15.6982 0.468189C15.5072 1.07014 15.3162 1.6721 15.1253 2.31168C14.7051 3.66608 14.2468 5.02048 13.8266 6.37489C13.2537 8.10551 12.719 9.83614 12.146 11.5668C11.6877 12.9588 11.2676 14.3508 10.8092 15.7428C10.6182 16.3824 10.3891 17.022 10.1599 17.6616C10.1217 17.7368 10.1217 17.8497 10.0071 17.9249C9.89254 17.8497 9.89254 17.7368 9.85434 17.6239C9.62517 16.9844 9.35781 16.3448 9.12864 15.6676C8.25015 13.2974 7.33346 10.8896 6.45498 8.51936C5.72927 6.563 5.00356 4.60664 4.27785 2.65028C3.97229 1.86021 3.70493 1.07014 3.39936 0.280077C3.32297 0.0919658 3.24659 0.016721 3.05561 0.016721C2.10073 0.016721 1.18405 0.016721 0.229167 0.016721C0.152777 0.016721 0.0763903 0.0543441 0 0.0543441C0 0.242456 0.0763856 0.355322 0.114581 0.468189C1.37502 3.74133 2.59727 7.01446 3.85771 10.25C5.07995 13.4103 6.264 16.5705 7.48624 19.7308C7.7918 20.5585 8.13556 21.3862 8.44112 22.2515C8.47932 22.402 8.51751 22.5525 8.70849 22.6277C8.74668 22.5901 8.82308 22.5148 8.86127 22.4772C8.93766 22.3644 8.97585 22.2515 9.01405 22.1386C10.3509 18.5645 11.7259 14.9904 13.0627 11.4539C14.3232 8.14313 15.5454 4.87 16.8059 1.55924C16.8823 1.14539 17.035 0.731545 17.1878 0.3177Z" fill="#D95484"/>
</svg>
