<svg width="4" height="22" viewBox="0 0 4 22" fill="none" xmlns="http://www.w3.org/2000/svg">
<path d="M3.85771 0.225733C3.85771 0.188111 3.81951 0.112866 3.81951 0.0376217C3.70493 0.0376217 3.62854 0 3.51396 0C2.44449 0 1.41322 0 0.343754 0C0.229168 0 0.152783 0.0376217 0.0381975 0.0376217C0.0381975 0.112866 0 0.150489 0 0.188111C0 7.18585 0 14.2212 0 21.219C0 21.2566 0.0381975 21.3318 0.0381975 21.3695C0.152783 21.3695 0.229168 21.4071 0.343754 21.4071C1.41322 21.4071 2.44449 21.4071 3.51396 21.4071C3.62854 21.4071 3.70493 21.3695 3.81951 21.3695C3.81951 21.2942 3.85771 21.2566 3.85771 21.1813C3.85771 14.2588 3.85771 7.22348 3.85771 0.225733Z" fill="#D95484"/>
</svg>
