<svg width="4" height="22" viewBox="0 0 4 22" fill="none" xmlns="http://www.w3.org/2000/svg">
<path d="M3.81951 0.0376217C3.74312 0.0376217 3.66673 0 3.62854 0C2.52088 0 1.41322 0 0.305562 0C0.229172 0 0.152779 0.0376217 0.0763891 0.0376217C-1.16676e-06 0.263355 0 0.413844 0 0.601956C0 7.37397 0 14.1084 0 20.8804C0 20.9932 0 21.0685 0 21.1813C0 21.2566 0.0381946 21.3318 0.0381946 21.4071C0.15278 21.4071 0.267367 21.4447 0.343757 21.4447C1.90976 21.4823 3.47576 21.4823 3.81951 21.3695C3.81951 21.1813 3.81951 20.9932 3.81951 20.8427C3.81951 14.1084 3.81951 7.33634 3.81951 0.601956C3.81951 0.489089 3.81951 0.376222 3.81951 0.263355C3.85771 0.18811 3.81951 0.150489 3.81951 0.0376217Z" fill="#D95484"/>
</svg>
