<svg width="20" height="22" viewBox="0 0 20 22" fill="none" xmlns="http://www.w3.org/2000/svg">
<path d="M19.5088 15.2065C19.5852 14.7927 19.5852 14.3412 19.6234 13.9274C19.6234 13.7016 19.547 13.664 19.356 13.664C19.2032 13.664 19.1268 13.7393 19.0886 13.8898C19.0886 14.0026 19.0505 14.0779 19.0505 14.1907C19.0505 14.6046 19.0123 14.9808 18.9359 15.3946C18.7831 16.1471 18.5921 16.8995 18.2102 17.5767C17.4463 19.044 16.2622 20.0598 14.6962 20.6618C13.7031 21.038 12.6719 21.1885 11.6024 21.2261C10.5329 21.2261 9.50167 21.0756 8.5468 20.6994C8.08845 20.5113 7.6301 20.2855 7.24815 19.9846C6.52244 19.4202 5.91133 18.743 5.49118 17.9153C5.10923 17.1629 4.80367 16.4104 4.61269 15.5828C4.30713 14.3788 4.15435 13.1749 4.11616 11.9334C4.11616 11.7077 4.11616 11.4443 4.11616 11.2186C4.11616 9.90179 4.15435 8.54739 4.38352 7.23061C4.61269 6.02669 4.91826 4.89803 5.49118 3.80698C5.94953 2.86642 6.59884 2.07636 7.47732 1.4744C8.16484 0.985309 8.89054 0.68433 9.73084 0.571464C10.6093 0.458597 11.4496 0.533841 12.3281 0.759575C13.3212 1.02293 14.0469 1.58727 14.5816 2.45258C15.0018 3.12978 15.2691 3.8446 15.4219 4.63467C15.5747 5.38712 15.6511 6.13956 15.6511 6.89201C15.6511 7.0425 15.6129 7.19298 15.7275 7.34347C15.8039 7.34347 15.8803 7.3811 15.9948 7.3811C17.5608 7.41872 18.9359 7.3811 19.2414 7.34347C19.2414 7.30585 19.2796 7.26823 19.2796 7.23061C19.2796 7.15536 19.3178 7.04249 19.3178 6.96725C19.3178 6.66627 19.2796 6.40292 19.2796 6.10194C19.2414 5.42474 19.0505 4.82278 18.8213 4.22082C18.6303 3.76936 18.4011 3.39313 18.0956 3.01691C17.4845 2.26447 16.7969 1.62489 15.9185 1.17342C15.4983 0.985309 15.0782 0.797198 14.658 0.609087C14.3525 0.49622 14.0469 0.383353 13.7031 0.308109C12.6719 0.0823751 11.6406 -0.0304929 10.5711 0.00712939C9.96001 0.00712939 9.34889 0.0447528 8.73777 0.119997C7.7447 0.270486 6.82801 0.571464 5.91132 0.947686C4.68908 1.4744 3.65782 2.22684 2.77933 3.1674C2.01542 3.99509 1.4043 4.93565 0.984151 5.98907C0.640395 6.85438 0.334834 7.75732 0.220249 8.66025C0.029273 9.82654 -0.0471173 10.9928 0.029273 12.1967C0.105663 13.2878 0.258444 14.3788 0.6022 15.4323C1.09874 17.05 1.97723 18.4044 3.27586 19.5331C4.00157 20.135 4.84186 20.6241 5.72035 21.0004C6.78981 21.4518 7.89747 21.6776 9.04333 21.7904C9.53986 21.8281 9.9982 21.828 10.4947 21.8657C11.4114 21.9409 12.2899 21.8657 13.2066 21.6776C14.3143 21.4518 15.3837 21.1132 16.3386 20.4736C17.6754 19.6083 18.5921 18.4797 19.165 17.0124C19.2796 16.4104 19.4324 15.8085 19.5088 15.2065Z" fill="#D95484"/>
</svg>
