<svg width="16" height="22" viewBox="0 0 16 22" fill="none" xmlns="http://www.w3.org/2000/svg">
<path d="M15.1632 15.6132C15.1632 14.8232 15.0486 14.0707 14.8195 13.3183C14.7431 13.0926 14.6285 12.8292 14.5139 12.6411C14.132 11.9263 13.559 11.3619 12.9097 10.8352C12.184 10.2333 11.3437 9.81941 10.5416 9.40557C9.96869 9.10459 9.35756 8.87886 8.74644 8.65312C7.82976 8.31452 6.95127 7.90068 6.11098 7.44921C5.53805 7.14823 5.04151 6.77201 4.58317 6.32054C4.23941 5.98194 3.97205 5.5681 3.85746 5.11663C3.5519 4.02558 3.70468 2.97216 4.20122 1.95636C4.58317 1.16629 5.23249 0.714824 6.07278 0.564334C6.18737 0.564334 6.26376 0.526713 6.37834 0.526713C7.02766 0.413846 7.63878 0.526712 8.2499 0.752446C9.0902 1.05342 9.66312 1.693 10.0451 2.44545C10.3124 2.97216 10.4652 3.49887 10.5798 4.06321C10.6944 4.77803 10.7708 5.53047 10.809 6.28292C10.809 6.43341 10.809 6.5839 10.8854 6.73439C10.9618 6.73439 11 6.77201 11.0763 6.77201C12.1076 6.77201 13.1389 6.77201 14.1702 6.77201C14.2465 6.77201 14.3229 6.73439 14.3993 6.73439C14.3993 6.5839 14.4375 6.47103 14.4375 6.35817C14.4375 5.60572 14.3229 4.8909 14.132 4.2137C13.75 2.85929 12.9097 1.80587 11.6875 1.09105C10.8854 0.601957 9.96868 0.300979 9.052 0.15049C8.17351 8.52136e-07 7.33322 -0.0376226 6.45473 0.037622C5.80541 0.0752443 5.1561 0.188112 4.54498 0.376223C3.51371 0.714824 2.63522 1.24154 1.90951 2.0316C1.56575 2.40783 1.26019 2.82167 1.06922 3.27314C0.649072 4.28894 0.419902 5.34236 0.496292 6.47103C0.534487 6.99774 0.687267 7.52445 0.916438 8.01354C1.26019 8.72837 1.79493 9.2927 2.40605 9.81941C2.94078 10.2709 3.5519 10.6095 4.16302 10.9481C5.1561 11.4748 6.18737 11.851 7.21863 12.2649C7.90615 12.5658 8.59366 12.8292 9.20478 13.2054C9.81591 13.5816 10.3888 13.9955 10.8472 14.5222C11.3055 15.0489 11.5729 15.6885 11.6493 16.3657C11.7639 17.1934 11.6111 17.9834 11.3055 18.7735C11.0381 19.4883 10.5416 20.0527 9.8923 20.4665C9.16659 20.9556 8.36449 21.1813 7.486 21.2566C6.83668 21.2942 6.22556 21.2942 5.57625 21.1813C4.65956 21.0309 3.78107 20.7675 3.01717 20.2784C1.64215 19.4131 0.840049 18.1716 0.610878 16.5914C0.496293 15.839 0.496292 15.0865 0.649073 14.3341C0.649073 14.2212 0.687269 14.146 0.610878 14.0331C0.496293 14.0331 0.34351 13.9955 0.19073 14.0707C0.152535 14.146 0.152536 14.2212 0.114341 14.2965C-0.0766351 15.4628 -0.03844 16.629 0.305316 17.7577C0.572682 18.5854 1.03102 19.3002 1.64215 19.9398C2.10049 20.3913 2.59702 20.7675 3.16995 21.0309C4.04844 21.4823 4.96512 21.7081 5.92 21.8209C6.56932 21.8962 7.21864 21.8962 7.86795 21.8962C9.28117 21.8585 10.618 21.5952 11.8402 20.918C12.2986 20.6546 12.7187 20.3913 13.1007 20.015C13.7882 19.4131 14.2847 18.6983 14.6285 17.833C14.9722 17.0429 15.1632 16.3657 15.1632 15.6132Z" fill="#D95484"/>
</svg>
