<svg width="19" height="22" viewBox="0 0 19 22" fill="none" xmlns="http://www.w3.org/2000/svg">
<path d="M16.2711 15.9202C15.2017 13.3996 14.094 10.8789 13.0245 8.35816C11.8787 5.68698 10.7328 3.05342 9.58697 0.382242C9.54878 0.306998 9.51058 0.231754 9.47239 0.156509C9.43419 0.0812646 9.3578 0.00601946 9.28141 0.00601946C9.20502 0.00601946 9.09044 0.00601946 9.01405 0.00601946C8.47932 0.00601946 7.90639 0.00601946 7.37166 0.00601946C6.91331 0.00601946 6.41678 0.00601946 5.95844 0.00601946C5.84385 0.00601946 5.76746 -0.0316025 5.65287 0.0812643C5.61468 0.231753 5.72927 0.34462 5.76746 0.457487C6.264 1.69902 6.79873 2.90293 7.29527 4.14447C7.56263 4.78405 7.56263 4.63356 7.29527 5.27314C6.72234 6.51467 6.18761 7.71859 5.61468 8.96012C3.81951 12.9481 1.98615 16.936 0.190976 20.924C0.114585 21.0745 0.0763903 21.1874 0 21.3755C0.114585 21.4131 0.190974 21.4507 0.267365 21.4507C0.534731 21.4507 0.840291 21.4507 1.10766 21.4507C1.566 21.4507 1.566 21.4507 1.71878 21.0369C2.29171 19.532 2.86463 18.0647 3.43756 16.5598L3.78132 15.6569H12.1842L12.5662 16.5598C13.2155 18.0647 13.8266 19.5696 14.476 21.0745C14.5905 21.3378 14.7433 21.4507 15.0107 21.4131C15.0489 21.4131 15.0871 21.4131 15.1253 21.4131C16.0038 21.4131 16.8441 21.4131 17.7225 21.4131C17.9135 21.4131 18.1427 21.4131 18.3337 21.4131C18.4101 21.4131 18.4864 21.3755 18.5628 21.3379C18.5246 21.225 18.4864 21.1121 18.4482 20.9993C17.7225 19.3439 16.9968 17.6132 16.2711 15.9202ZM7.44805 6.17607C7.52444 5.98796 7.60083 5.79985 7.67722 5.61174C7.71541 5.53649 7.75361 5.49887 7.7918 5.42363C7.83 5.46125 7.8682 5.49887 7.90639 5.49887C9.24322 8.65914 10.58 11.8194 11.9169 14.9797H4.04868C4.20146 14.5658 4.35424 14.1896 4.50702 13.7758C5.4619 11.2551 6.45498 8.69677 7.44805 6.17607Z" fill="#D95484"/>
</svg>
