<svg width="92" height="31" viewBox="0 0 92 31" fill="none" xmlns="http://www.w3.org/2000/svg">
<path d="M14.7705 0.724145C14.9301 0.208283 17.4296 0.410373 18.0039 0.514077L18.7033 2.63602C20.2588 -0.802167 24.8803 -0.858007 26.2524 2.71579L26.6646 2.84077C28.4701 -1.07073 33.6074 -0.868644 34.8811 3.40184C35.038 3.93099 35.3411 5.48921 35.3411 5.96785V15.6496L35.038 15.9527H31.3073V5.96785C31.3073 5.81362 30.8127 4.5612 30.6745 4.38038C29.8953 3.35929 28.1749 3.53213 27.5022 4.58247C26.4412 6.23641 27.3666 12.8043 27.0501 15.2321C27.0235 15.4315 26.9624 15.7798 26.8215 15.9048C26.5183 16.1468 26.1966 15.95 25.9626 15.95H23.0376V5.96519C23.0376 5.71258 22.6494 4.5931 22.4393 4.34581C21.6495 3.42045 20.0275 3.51884 19.3122 4.45749C19.0676 4.77658 18.6022 6.42255 18.6022 6.77089V15.9474H14.7705V0.724145Z" fill="#3D007C"/>
<path d="M10.363 18.1939C10.6077 18.0397 11.206 18.2152 11.4931 18.3295C12.719 18.8108 15.4286 21.18 17.0612 22.0389C27.0647 27.3012 41.453 27.5166 51.9377 23.5679C52.7301 23.2701 55.8439 21.5922 56.3252 21.8927C56.506 22.007 56.7081 22.4537 56.6868 22.6824C56.5406 24.1343 51.5734 27.0513 50.2093 27.6894C38.4349 33.1964 20.5367 31.6169 11.7457 21.305C11.3602 20.853 9.56796 18.6964 10.363 18.1965V18.1939Z" fill="#3D007C"/>
<path d="M45.8293 13.9337L43.8244 15.8616C39.155 18.058 35.5334 13.1998 37.9265 8.95593C39.3252 6.47767 43.0213 5.7677 45.6272 6.27026C46.1351 2.54223 42.0534 1.70462 41.0589 5.27045L37.8016 4.81841C37.4825 1.80833 40.8063 0.0932231 43.5053 0.00547345C52.1579 -0.27373 49.1425 10.1977 49.6345 15.6196C49.3818 16.3508 46.8584 15.8669 46.2202 15.8616L45.8293 13.9311V13.9337ZM45.6299 8.28584C43.9999 8.18746 42.1093 8.3603 41.4977 10.102C41.0802 11.2879 41.2397 13.0748 42.7155 13.3142C45.6379 13.7928 45.7097 10.3573 45.6299 8.28319V8.28584Z" fill="#3D007C"/>
<path d="M12.3521 15.9523H8.9245L8.57085 14.1867L8.12146 13.9341C6.75204 17.944 0.527135 16.7899 0.0511603 12.6232C-0.531178 7.54699 3.96001 5.55268 8.32089 6.26797C8.97503 2.5426 4.98375 1.73158 3.89353 5.16711L0.654771 4.75761C0.125615 4.36673 0.85952 2.90956 1.17329 2.44688C3.29524 -0.656269 9.44568 -0.916859 11.5144 2.36444C11.7165 2.68619 12.3547 4.27898 12.3547 4.55021V15.947L12.3521 15.9523ZM8.32089 8.28621C6.85308 8.1958 5.364 8.27026 4.52107 9.63171C3.33778 11.5436 4.47587 14.0511 6.91956 13.2401C8.4113 12.7455 8.41396 9.528 8.31824 8.28621H8.32089Z" fill="#3D007C"/>
<path d="M91.816 15.9522H87.9842V6.16941C87.9842 5.10843 86.9897 3.7071 85.849 3.65924C84.5859 3.60871 83.3468 4.99675 83.3468 6.16941V15.9522H79.6161L79.313 15.649V0.925704C79.313 0.859227 79.5789 0.61991 79.5151 0.420479H82.7432L83.2484 2.64081L84.2243 1.29797C86.1973 -0.632517 89.6408 -0.281518 90.9784 2.16749C91.1379 2.45733 91.816 4.3506 91.816 4.55535V15.9522Z" fill="#3D007C"/>
<path d="M75.0092 1.90451C78.918 5.74954 77.8943 15.1574 71.8635 16.2635C64.3755 17.6383 61.5516 7.52048 65.6997 2.43632C68.0876 -0.491321 72.2969 -0.765206 75.0092 1.90451ZM69.09 12.6605C69.6352 13.1577 70.7467 13.2561 71.438 13.0141C74.0811 12.0994 74.1104 2.35389 70.0207 3.32977C67.3244 3.97327 67.4707 11.1847 69.0874 12.6605H69.09Z" fill="#3D007C"/>
<path d="M62.5832 0.420898V3.75006C62.5832 4.25263 57.0869 10.6477 56.7359 11.9188C58.108 11.6475 61.4797 11.964 62.5806 12.8308C63.3597 13.4424 62.8465 15.0379 62.9874 15.9552C61.7589 15.9393 60.6793 15.3543 59.4322 15.1735C56.6827 14.7719 54.3587 15.45 51.6917 15.9552V12.8282C51.6917 12.2671 57.656 4.98122 58.1452 3.65168H52.1942C51.6571 2.86459 51.8751 1.40742 51.8911 0.423557H62.5806L62.5832 0.420898Z" fill="#3D007C"/>
<path d="M59.0974 20.2332C58.8607 20.0046 57.2413 19.7652 56.8265 19.7652C55.7815 19.7626 52.8406 20.5896 52.2104 20.1694L51.9072 19.7174C53.048 17.1514 60.3817 16.3404 61.8655 18.3745C63.0461 19.9966 61.3283 23.9108 60.161 25.3334C59.6026 26.0114 57.7545 28.1812 57.0206 27.0378C56.7467 26.5034 58.6613 23.4481 58.9538 22.5121C59.1373 21.9271 59.592 20.7039 59.1 20.2306L59.0974 20.2332Z" fill="#3D007C"/>
</svg>
