<svg width="136" height="44" viewBox="0 0 136 44" fill="none" xmlns="http://www.w3.org/2000/svg">
<path d="M21.3582 17.6108C19.7814 20.0275 18.0695 22.3628 16.5163 24.7966C15.9442 25.6922 14.5345 27.6654 14.5752 28.6831C14.618 29.7029 15.6636 30.2685 16.5784 30.3456C18.8066 30.532 20.302 28.3531 21.5275 26.8256C21.4589 27.6161 21.5339 28.4474 22.0374 29.0923C23.2029 30.5877 25.851 30.4592 27.5414 30.1892C31.5371 29.5529 34.9757 26.9113 37.8016 24.1818C37.9109 24.2439 37.7759 24.3339 37.7395 24.3917C37.1396 25.3537 35.7213 27.434 36.9875 28.381C37.8788 29.0473 39.2799 28.5652 40.1605 28.096C41.1782 27.5519 42.0673 26.6734 42.8879 25.8743L42.5086 27.3312C42.6329 29.2016 44.7025 28.8245 45.9066 28.2139C47.1107 27.6033 48.0383 26.5685 49.0239 25.6729C48.3361 27.6183 48.8589 28.878 51.0849 28.6445C52.8439 28.4603 54.3158 26.7206 55.4663 25.5379C55.0078 26.6542 54.6221 28.4817 56.3147 28.6531C58.62 28.8866 60.4754 26.7677 61.9065 25.268C61.6323 26.0007 61.1631 26.5685 61.2274 27.404C61.2766 28.0575 61.7565 28.5802 62.4164 28.6552C64.6874 28.9102 66.4035 27.0312 67.8069 25.5401C67.2113 26.7227 66.9627 28.4753 68.7238 28.6552C71.6762 28.9573 74.2664 25.7008 75.7083 23.5069L76.4239 24.2139L77.3023 24.591C76.0404 27.6011 77.6129 29.238 80.7216 28.5138C82.802 28.0275 84.4988 26.3585 85.9814 24.9295C85.9214 25.2187 85.7179 25.4694 85.6107 25.7436C84.8952 27.5776 85.283 28.908 87.5004 28.6488C89.1244 28.4581 91.4275 26.2621 92.5952 25.1352C93.9814 23.7983 95.2368 22.3307 96.6273 21.0023C96.4259 21.9729 96.2867 22.9627 96.0638 23.9268C95.7189 25.4244 95.0183 28.2974 92.998 28.0468C92.2374 27.9525 92.216 26.9005 91.6375 26.8277C91.3761 26.7956 91.0119 26.9391 90.9455 27.2133C90.7098 28.2096 91.781 28.6467 92.593 28.7216C96.1688 29.0516 98.5941 26.0543 101.034 23.9804C100.739 24.6917 100.374 25.4094 100.297 26.1892C100.006 29.163 103.269 28.998 105.195 28.1025C108.7 26.4721 109.977 22.7163 112.704 20.4989C112.981 20.2739 113.947 19.5947 113.921 20.3532C113.904 20.9016 112.297 23.4083 111.912 24.0425C111.005 25.5294 110.018 26.9691 109.103 28.4495L111.747 28.3489C113.484 25.7201 115.395 23.1748 117.613 20.9316L117.27 21.8765C116.719 24.2118 119.162 24.4324 120.764 23.704L120.664 23.2348C121.197 23.4512 121.392 23.8304 121.563 24.3553C120.882 24.8952 120.049 24.9423 119.241 25.133L107.164 43.8282L54.0094 33.2744L0 41.8614L14.1703 19.9483C12.5548 19.5626 10.933 18.5985 10.7123 16.7988L11.2522 17.5787C13.0048 19.5455 17.3454 19.2134 19.61 18.4078C20.212 18.1936 20.7819 17.8893 21.3561 17.613L21.3582 17.6108Z" fill="#3D007C"/>
<path d="M120.541 23.145C120.224 23.3893 119.272 23.5243 119.011 23.1215C118.392 22.1681 119.799 20.1734 120.83 19.9763C120.8 19.2715 120.046 19.0487 119.442 19.1001C117.755 19.2458 116.046 21.7182 114.932 22.8237C115.397 21.8724 116.554 19.655 114.932 19.1986C113.483 18.7916 112.236 19.9164 111.334 20.8912C109.586 22.7808 106.893 27.2564 104.174 27.5585C102.038 27.7942 102.762 25.9367 103.298 24.7198C105.239 24.4348 108.378 23.0743 109.13 21.129C110.004 18.8708 107.825 18.7123 106.233 19.1836C103.566 19.9742 100.222 24.0684 97.9076 25.9045C97.8391 25.9581 97.8198 26.0352 97.7041 26.0052C98.8139 24.1541 98.1669 21.9731 98.244 19.9549C98.6211 19.745 98.9896 19.6743 99.161 19.2308C99.6195 18.0503 98.2376 17.716 97.4984 18.4488C97.1064 18.8365 97.1256 19.2436 96.92 19.6314C96.8771 19.7128 96.4872 20.1306 96.3822 20.2463C94.8203 22.001 90.9382 26.1531 89.025 27.19C86.2034 28.7219 88.4251 25.1675 88.9286 24.3148C89.8991 22.6673 90.9768 21.0733 92.0073 19.4643L91.9045 19.3615L89.432 19.535C88.5686 20.6769 87.7481 21.8617 86.8225 22.9565C85.4192 24.6169 82.4262 27.9249 80.0459 27.5564C78.8161 27.3657 79.4824 25.4289 79.8681 24.7455C80.3823 24.5655 80.9479 24.4969 81.4835 24.3277C82.769 23.9206 84.2259 23.0851 85.0914 22.0395C86.3812 20.482 86.2183 18.7894 83.8402 18.9608C81.4621 19.1322 79.326 21.2575 78.0813 23.1643C77.9784 23.3229 77.6871 23.9656 77.5371 23.9699C77.1643 23.9806 76.1938 23.2093 76.1573 22.843C76.1445 22.723 77.1 21.0454 77.2393 20.6984C77.5135 20.017 78.1113 18.8344 76.8793 18.8644C75.746 18.8901 75.3539 20.3663 75.2618 21.2982C75.1525 22.4123 75.2618 22.4723 74.6855 23.5007C73.9913 24.739 71.9881 27.2479 70.5312 27.4792C69.6271 27.6228 69.5007 27.3764 69.7492 26.5623C70.4391 24.302 72.7315 21.7267 73.7985 19.5671V19.3657L71.2361 19.565C70.2248 21.1526 69.1922 22.7465 68.0031 24.2099C67.2897 25.0883 65.3893 27.2907 64.2924 27.4814C62.9683 27.7106 63.731 26.5109 64.0588 25.8938C65.2351 23.6828 66.8869 21.6025 68.2045 19.4707C68.121 19.34 68.0974 19.3979 68.0031 19.4022C67.3304 19.4322 66.4391 19.4193 65.7964 19.5029C65.6785 19.5179 65.5993 19.5329 65.5264 19.6378C64.6159 20.9469 63.6496 22.2216 62.6148 23.4364C61.7428 24.4584 59.4075 27.1472 58.1735 27.4685C57.5093 27.6421 57.3593 27.43 57.4429 26.8065C57.6036 25.6153 59.7975 22.2773 60.5152 21.0711C62.347 17.9967 64.2581 14.9673 66.137 11.9228L66.7626 12.6984L66.3748 13.3775L66.6705 13.4033L135.446 0L135.414 0.171397L120.541 23.145ZM93.3528 14.1038C91.898 14.3481 91.4095 16.8462 93.0742 16.9276C94.9489 17.0197 95.4652 13.7482 93.3528 14.1038Z" fill="#3D007C"/>
<path d="M62.0472 14.0886L58.5871 19.9804C58.48 20.0811 58.3064 19.6611 58.2164 19.5712C56.931 18.2578 54.135 19.4469 52.8967 20.3575C50.6664 22.0007 48.1833 26.5342 45.8844 27.374C43.8384 28.1217 45.7794 25.1459 46.1501 24.5224C47.172 22.7977 48.3504 21.1566 49.4323 19.4683C49.4473 19.3505 49.4366 19.3633 49.3295 19.3655C48.7125 19.3762 47.8512 19.4383 47.2299 19.5048C47.0885 19.5197 46.7071 19.5669 46.6129 19.6333C44.8539 22.1078 43.247 25.2423 40.6375 26.9412C40.0805 27.3033 38.555 28.111 39.005 26.7313C40.344 24.1989 42.0494 21.8722 43.6005 19.4662C43.6584 19.3226 43.4506 19.3569 43.3627 19.3633C42.5229 19.4169 41.668 19.4812 40.841 19.5883C39.8341 21.1245 38.5915 22.5042 37.2653 23.7725C36.1598 24.8288 34.9407 25.8936 33.6852 26.7656C33.5802 26.8384 32.8711 27.3355 32.8218 27.2926C34.7736 25.1394 36.1898 20.9916 32.8218 19.4019C33.4196 19.1641 34.0559 19.0377 34.6493 18.7913C36.3419 18.0864 37.7259 16.8674 38.3622 15.117C39.6863 11.4791 36.7832 9.94721 33.5502 10.7849C31.712 11.2605 30.358 12.6789 29.1818 14.0779L27.5985 13.3387C27.5878 13.2616 27.5985 13.208 27.6328 13.1373C27.727 12.9488 28.9975 11.4084 28.8861 11.3077L25.8159 11.4427L25.1368 12.2439C23.4957 11.5691 21.8438 11.3034 20.1063 11.0356C20.0163 11.0227 19.9863 11.0806 20.0056 10.937L26.8165 0.610352L62.0472 14.0907V14.0886Z" fill="#3D007C"/>
<path d="M27.5303 19.5759H29.9384C30.0327 19.5759 30.5426 19.7451 30.6647 19.7966C31.8516 20.3086 31.9459 21.7248 31.7831 22.841C31.4553 25.0949 29.7113 27.5758 27.7102 28.6621C25.2293 30.0075 21.3728 29.8361 22.6154 26.0118C23.0675 24.6214 24.4473 23.4752 25.8184 23.0488C26.4526 22.8517 27.1189 22.8046 27.7702 22.6953V22.0761C27.6117 21.849 26.0027 22.2283 25.6985 22.3182C25.2892 22.4382 24.8779 22.6053 24.5094 22.826L24.4108 22.7274L29.497 15.1753C29.5935 15.1088 31.241 16.2636 31.436 16.4565C31.5388 16.4757 32.0037 15.9508 31.8045 15.8137L30.0391 14.5347C30.9154 13.4463 32.3937 11.8137 33.8677 11.653C36.9164 11.3167 35.7059 14.7318 34.6625 16.1736C32.9785 18.5025 30.9304 18.7446 28.1837 18.6439L27.526 19.5802L27.5303 19.5759Z" fill="#3D007C"/>
<path d="M12.2689 16.8993C12.2689 16.9164 12.4146 17.0171 12.3032 17.0685C11.1527 15.7188 11.8404 13.8505 13.1559 12.91C15.5062 11.2282 19.5619 11.5324 22.2485 12.1451C22.5035 12.203 24.6781 12.7793 24.6781 12.9057C23.7375 14.4012 22.797 15.7873 21.2801 16.7579C19.7633 17.7284 17.1945 18.5254 15.4183 18.2876C15.3241 18.2747 15.3005 18.324 15.3198 18.1869L18.9127 12.5972C16.8452 12.5179 13.5437 12.8821 12.5496 15.0118C12.5067 15.106 12.2689 15.7081 12.2689 15.7466C12.2689 16.1173 12.2411 16.535 12.2689 16.8971V16.8993Z" fill="#3D007C"/>
<path d="M27.0919 13.9601C27.3062 13.8894 28.4738 14.5814 28.7395 14.7314C26.6334 17.583 24.7931 20.6211 22.762 23.5241C21.9629 24.666 19.1562 28.7838 17.9629 29.0924C16.6731 29.4266 17.8129 27.659 18.0679 27.2348C19.7004 24.5096 21.7679 21.6966 23.574 19.0528C24.7374 17.3495 25.8943 15.6398 27.0919 13.9601Z" fill="#3D007C"/>
<path d="M56.6749 19.8627C57.7397 19.7192 58.2025 20.2591 57.7204 21.2446C56.9984 22.7186 53.7869 26.8986 52.27 27.3828C50.7531 27.867 51.2416 26.5087 51.5758 25.6731C52.2507 23.9784 54.7595 20.122 56.677 19.8627H56.6749Z" fill="#3D007C"/>
<path d="M80.2891 23.9781C81.0368 22.6947 81.8809 21.2122 83.0336 20.2523C83.9505 19.4896 85.1525 19.2797 84.5054 20.9101C83.9227 22.3755 81.8295 23.7638 80.2891 23.9802V23.9781Z" fill="#3D007C"/>
<path d="M103.742 23.9783C104.216 22.9949 104.85 22.1015 105.508 21.2381C106.002 20.6403 106.926 19.6012 107.781 19.7084C108.13 19.7512 108.104 19.989 108.087 20.2911C107.993 21.8423 105.235 23.8326 103.744 23.9804L103.742 23.9783Z" fill="#3D007C"/>
<path d="M110.644 41.8078C111.037 41.7285 111.489 41.7692 111.776 42.0692C112.401 42.729 112.011 43.8303 111.107 43.8945C109.62 43.9995 109.61 42.0199 110.644 41.8078ZM111.909 42.8383C111.909 42.337 111.501 41.9299 111 41.9299C110.499 41.9299 110.092 42.337 110.092 42.8383C110.092 43.3396 110.499 43.7467 111 43.7467C111.501 43.7467 111.909 43.3396 111.909 42.8383Z" fill="#3D007C"/>
<path d="M110.523 42.2003C110.843 42.1981 111.55 42.1081 111.548 42.573C111.548 42.7894 111.34 42.8387 111.338 42.978C111.338 43.0787 111.563 43.3979 111.473 43.4879C111.278 43.6807 111.132 43.1087 111.087 43.0294C110.881 42.6823 110.609 43.2051 110.727 43.4879H110.523V42.2003ZM110.727 42.7402C111.413 42.873 111.496 42.2752 110.791 42.4316L110.727 42.7402Z" fill="#3D007C"/>
</svg>
