<svg width="65" height="67" viewBox="0 0 65 67" fill="none" xmlns="http://www.w3.org/2000/svg">
<path d="M52.6497 7.01826C54.5899 9.07751 54.7945 11.3313 55.9046 13.741C58.3043 18.9595 65.2869 18.6426 64.2741 26.41C63.8615 29.5777 62.3842 31.3133 63.06 34.7577C63.6553 37.7929 65.2651 40.32 64.1986 43.6067C62.9409 47.4854 58.1265 48.7313 56.5737 52.0801C55.259 54.9158 54.9555 58.5832 52.0662 60.4865C49.5609 62.1365 46.8912 61.7123 44.1143 61.9253C39.0483 62.3126 37.2289 67.3568 31.5375 66.7849C28.7337 66.5032 26.4682 63.9862 24.0551 62.8643C20.4179 61.1757 15.7041 63.4143 12.1574 60.1679C10.2106 58.387 9.76114 55.4943 8.72649 53.2053C6.31174 47.8627 -0.441166 48.3809 0.281581 40.5631C0.464364 38.5844 1.48728 36.6694 1.72708 34.7962C2.25362 30.6761 -1.50097 26.8007 0.695777 22.362C2.31232 19.0987 6.55154 17.9333 8.10268 14.509C9.27819 11.9148 9.58674 8.67002 11.9646 6.76002C14.5672 4.67227 17.428 5.15354 20.4648 4.90368C25.6096 4.48278 27.3737 -0.618373 33.1942 0.0624515C36.4592 0.444786 39.3619 4.26814 42.4374 4.56998C46.197 4.9389 49.7671 3.95623 52.6514 7.01826H52.6497ZM31.5861 1.76451C28.7756 1.98586 26.2468 5.04454 23.6577 6.08758C20.9109 7.19434 17.9612 6.40452 15.1809 7.16919C10.6667 8.41178 11.0926 13.8953 8.7835 17.0378C7.0697 19.3687 2.60745 21.3106 2.01047 24.1831C1.34642 27.386 3.45764 30.2585 3.6203 33.3239C3.788 36.4765 1.82266 39.3306 2.09767 42.5603C2.40958 46.2294 7.57948 47.8979 9.54985 50.8711C11.537 53.8694 11.4766 58.6603 15.4257 59.9197C17.9914 60.738 21.0082 60.0086 23.5269 60.7061C26.4413 61.5127 28.6129 64.278 31.5458 64.9286C35.2619 65.7536 38.0422 61.7156 41.3004 60.624C43.9214 59.747 46.5693 60.3339 49.2573 59.6933C53.6777 58.6385 53.4664 53.4435 55.4586 50.2993C57.1002 47.7051 60.5647 46.429 62.0002 43.9287C63.9806 40.4793 61.0745 36.837 60.9555 33.3407C60.8498 30.2418 62.7699 27.4296 62.4781 24.2703C62.1461 20.6716 57.2931 19.0434 55.2892 16.367C53.4396 13.8969 53.1713 9.58393 50.7179 7.69071C48.3166 5.83772 43.9281 6.8992 41.0439 6.1295C37.8711 5.28267 34.8862 1.50459 31.5827 1.76451H31.5861Z" fill="#3D007C"/>
<path d="M38.9293 45.4211C35.6157 49.7006 28.7773 49.5799 25.3296 45.4916C20.7835 40.102 22.7874 31.3317 20.3911 25.1087C20.215 24.9176 20.1026 25.1071 19.9551 25.1876C17.8992 26.3295 15.5012 28.5682 13.0764 28.8734C8.60743 29.4385 6.40397 24.4497 10.7103 21.8119C13.7824 19.9305 17.4263 20.1619 20.6107 21.6426C27.6336 17.1535 36.917 17.135 43.9449 21.6107C47.3474 20.0948 51.5094 19.8986 54.5799 22.2781C56.3373 23.6415 56.8722 25.7745 55.3496 27.547C53.2601 29.9802 50.1562 28.6604 47.8353 27.3457C46.8057 26.7622 45.5028 25.5514 44.5335 25.1121C44.2987 25.0065 44.2803 24.9863 44.1176 25.2027C43.908 25.481 43.4988 27.0707 43.4083 27.5118C42.1892 33.5017 42.9589 40.2177 38.9293 45.4211ZM36.2546 44.5911C41.3138 40.0047 39.3535 29.3094 42.1087 23.5174C36.1037 19.6672 28.5408 20.0445 22.395 23.3564C25.4 28.8365 22.9131 40.9756 28.2759 44.8912C30.59 46.5799 34.1165 46.5296 36.2546 44.5927V44.5911ZM18.035 23.3564C15.9707 22.585 13.2307 22.8684 11.5051 24.2871C9.96237 25.5565 11.4934 26.6616 13.0512 26.3346C14.4313 26.0445 16.8612 24.2351 18.035 23.3564ZM48.8633 22.8919C48.4524 22.907 47.2065 23.0931 46.8309 23.2222C46.5911 23.3044 46.4703 23.3681 46.7168 23.5979C47.4849 24.3072 50.7028 26.1753 51.6956 26.3312C53.3742 26.5945 54.4826 25.4324 53.0706 24.2871C52.0645 23.4704 50.1562 22.8449 48.8616 22.8936L48.8633 22.8919Z" fill="#3D007C"/>
</svg>
