<svg width="86" height="55" viewBox="0 0 86 55" fill="none" xmlns="http://www.w3.org/2000/svg">
<path d="M70.1955 10.0027L64.7577 12.764C61.6613 7.40464 54.9976 4.80026 49.0784 6.83838C50.9956 9.12463 52.4378 11.8478 53.144 14.7597C54.5926 20.7298 53.1377 27.1623 49.1038 31.7836L49.0784 31.9363C49.914 32.1632 50.7539 32.3859 51.617 32.4919C56.8385 33.1346 61.9052 30.6829 64.6071 26.2058L70.0979 28.9714C67.5593 33.5799 62.9041 37.0454 57.7738 38.25C53.0337 39.3634 48.0731 38.6508 43.8421 36.2798C43.3818 36.4685 42.9683 36.7463 42.5165 36.9542C38.1752 38.9626 33.327 39.321 28.7375 37.9298C24.0717 36.5152 20.0442 33.2724 17.5968 29.0753L23.0685 26.2058C25.1957 29.737 29.0175 32.1738 33.151 32.5492C35.0215 32.7189 36.8518 32.4432 38.6481 31.9363C38.6694 31.8599 38.6291 31.8515 38.5972 31.809C38.383 31.5015 38.0458 31.1749 37.8083 30.8589C32.4214 23.6799 32.7862 13.6441 38.5972 6.83838C32.6738 4.79602 26.0271 7.411 22.9179 12.764L17.4844 9.92418C20.0909 5.17989 24.8076 1.65506 30.1054 0.471641C34.7607 -0.567566 39.7255 0.130187 43.8378 2.54157C52.4569 -2.47843 63.5382 0.198054 69.1881 8.28054C69.4808 8.70047 69.8859 9.26461 70.1064 9.71422C70.151 9.80542 70.221 9.89025 70.1955 10.0005V10.0027ZM43.7657 28.5027L43.9142 28.4857C46.7476 25.385 48.0562 21.2261 47.3223 17.0502C46.8791 14.5264 45.6342 12.1256 43.8357 10.3123C39.611 14.5815 39.0023 21.2728 42.1518 26.3585C42.6247 27.122 43.1973 27.8113 43.7657 28.5027Z" fill="#3D007C"/>
<path d="M54.8079 49.009V41.2383H57.3126V54.275H55.3444L48.2608 44.5107V54.1987L48.1845 54.275H45.7031V41.2383H49.2067L54.8079 49.009Z" fill="#3D007C"/>
<path d="M28.6271 54.2752L34.3279 41.2915L37.8082 41.2363L43.6617 54.2752H40.6437L39.4328 51.6772L32.8921 51.6666L32.7203 51.7514L31.5645 54.2773H28.625L28.6271 54.2752ZM38.3935 49.0601L36.1179 43.9489L33.944 49.0601H38.3935Z" fill="#3D007C"/>
<path d="M70.9698 41.2383V43.8978H64.4249V46.4534H70.4332L70.5096 46.5298V49.0599H64.5013L64.4249 49.1363V51.6685H71.9411V54.1987L71.8648 54.275H61.9435L61.8672 54.1987V41.3168L61.9435 41.2383H70.9698Z" fill="#3D007C"/>
<path d="M17.4813 41.2383V45.8914H24.0283V41.2383H26.5839V54.275H24.0283V48.5488H17.4813V54.275H14.9766V41.2383H17.4813Z" fill="#3D007C"/>
<path d="M5.81701 41.1532C8.60378 40.9072 11.0724 42.3154 12.311 44.7946L10.2517 46.3004C9.42667 44.4193 7.62396 43.3567 5.56251 43.8636C2.68666 44.5698 1.59232 48.2092 3.47773 50.4657C5.45859 52.8368 8.98341 52.1624 10.2008 49.4202L12.2643 50.9344C11.522 52.4763 10.0205 53.7552 8.37261 54.2387C3.24869 55.7403 -1.19446 50.8496 0.290126 45.8529C1.01333 43.4182 3.23596 41.3822 5.81701 41.1532Z" fill="#3D007C"/>
<path d="M78.0265 41.2383V51.6685H85.0825V54.275H75.4688V41.2383H78.0265Z" fill="#3D007C"/>
</svg>
