<svg width="103" height="32" viewBox="0 0 103 32" fill="none" xmlns="http://www.w3.org/2000/svg">
<path d="M0 22.6145C0.467777 17.6898 2.83276 13.1887 5.9486 9.40631C9.06042 5.62594 15.2198 0.319784 20.3071 0.0106096C24.2541 -0.228298 24.4368 3.62434 22.1241 5.84076C20.2188 7.6677 19.0664 5.21237 20.7569 3.67453C21.2869 3.1927 21.7607 3.17262 22.4232 3.02607C22.8588 1.86766 21.9895 1.40792 20.9215 1.52838C16.3441 2.04434 9.70889 10.5808 7.54065 14.4093C3.76029 21.0847 1.59205 30.8839 12.9372 29.6352C21.5418 28.6876 30.9155 23.3312 39.3716 28.023C41.1624 29.0168 43.0797 30.4964 44.4449 32.0082L42.2947 30.9361C39.1467 29.7195 34.8624 28.8903 32.5015 31.956C29.8052 27.8544 24.485 28.3202 20.2389 29.075C15.5089 29.9162 8.99618 32.6366 4.40875 30.8277C1.79883 29.7978 0.2369 27.2642 0.00200763 24.5217V22.6125L0 22.6145Z" fill="#3D007C"/>
<path d="M96.952 15.983L90.1501 27.4365C90.0377 27.814 89.7988 28.1472 90.0096 28.5327C90.5256 28.8981 92.3184 27.1153 92.6717 26.7339C93.6012 25.7321 94.4043 24.5716 95.1592 23.4373C95.2455 23.3871 95.9441 23.3952 96.0987 23.4153C96.2393 23.4333 96.2734 23.361 96.2473 23.5638C94.7115 25.6959 93.1074 27.9605 91.1098 29.6951C89.2708 31.2912 85.8056 33.2105 86.0686 29.0406C84.8761 30.1468 82.7841 32.1384 81.0295 31.3032C79.9855 30.8073 79.8932 29.3157 80.122 28.338C79.1524 29.3036 77.7089 30.98 76.3658 31.3735C75.5366 31.6164 74.3862 31.4417 73.8904 30.6809C72.6256 28.7455 74.4404 25.2101 74.9624 23.2426C74.9845 23.1563 75.0287 23.0137 74.9303 23.0097L73.1877 23.2326C71.8486 25.6899 70.1843 27.9846 67.9739 29.7393C66.5826 30.8435 63.5571 32.7989 62.4107 30.3677C60.8187 26.9888 65.6189 20.5624 68.0261 18.338C69.3491 17.1153 72.7842 14.4512 74.5268 16.0794C75.9743 17.4325 74.326 20.7812 73.7719 22.307L75.5607 21.8794C77.7591 17.4345 80.2786 13.1342 83.4948 9.3458C85.5888 6.87843 90.7424 1.29923 93.8221 0.552391C94.8038 0.313484 96.0445 0.36769 96.0506 1.6606C96.0526 2.19062 95.5306 3.92521 95.2214 4.35885C94.9544 4.73629 94.3581 4.78045 93.9265 4.82462C94.1975 4.2665 95.3459 2.22675 94.9905 1.70678C94.8018 1.42972 94.0931 1.86337 93.8602 1.99588C91.8606 3.1342 88.7107 6.78607 87.2371 8.65317C84.6011 11.9939 82.3003 15.6799 80.4252 19.4923C80.4955 19.5626 81.0496 19.149 81.162 19.0728C81.6478 18.7375 82.1317 18.356 82.5894 17.9826C85.7233 15.4329 88.5922 12.2408 91.1078 9.09485L92.3164 8.99446C90.2606 11.6385 88.0481 14.1721 85.6169 16.4829C84.8701 17.1916 84.0791 17.9244 83.2941 18.5869C82.5091 19.2494 79.5599 21.1627 79.2146 21.6526C78.546 22.5981 77.1909 26.4468 77.1909 27.5811C77.1909 28.4042 77.5804 28.8981 78.4156 28.4905C79.841 27.7979 82.6255 23.084 83.7699 21.5702C85.3479 19.4843 88.6765 15.3908 91.5675 15.6698C92.2862 15.7381 92.7882 16.1958 93.1736 16.778L93.7779 15.977H96.952V15.983ZM73.0331 17.023C71.5816 17.0711 70.1863 18.9603 70.7022 20.4018C70.9171 21.0021 72.1457 22.2709 72.7661 21.9657C72.9147 21.8935 73.5571 20.5925 73.6595 20.3396C74.0209 19.4402 74.6231 16.9708 73.0331 17.023ZM92.3927 17.4145C92.1678 17.1956 91.6298 17.298 91.3527 17.3843C89.2949 18.0248 84.0811 25.5654 84.063 27.6995C84.055 28.6833 84.9263 28.617 85.5587 28.1834C86.6448 27.4385 88.1766 24.9792 88.9335 23.8108C89.9815 22.1906 91.5916 19.7895 92.3726 18.097C92.473 17.8802 92.6075 17.6232 92.3947 17.4145H92.3927ZM69.5378 20.707C69.3692 20.6688 69.335 20.7612 69.2387 20.8595C68.7067 21.3996 67.7651 22.9194 67.3696 23.618C66.8657 24.5114 65.103 27.8983 66.7111 28.3962C67.8996 28.7656 69.7125 26.6716 70.385 25.8184C70.64 25.4952 72.1277 23.3651 72.1477 23.1502C72.1658 22.9736 71.156 22.4737 70.9151 22.297C70.385 21.9055 69.7888 21.3173 69.5358 20.707H69.5378Z" fill="#3D007C"/>
<path d="M48.2783 8.14745L41.6271 19.2476C40.7256 21.1388 41.886 20.7212 42.938 19.8519C44.2169 18.7959 45.3271 17.238 46.4072 15.9752L47.5737 15.931C46.7987 16.9569 46.0479 18.023 45.2067 18.9967C43.974 20.4261 40.8421 23.829 38.8606 23.7206C37.5897 23.6524 37.1601 22.3855 37.4954 21.3054C36.2808 22.4839 34.1226 24.3068 32.3157 23.5058C31.0208 22.9316 31.5207 20.7554 31.8519 19.6973C30.826 20.5004 29.9427 21.446 28.8606 22.1908C27.3067 23.2589 25.2669 24.3691 23.4199 23.3311C20.4687 21.6748 22.6731 16.9529 23.988 14.8228C24.0121 14.6542 23.9961 14.6642 23.8395 14.6722C23.6729 14.6823 22.4884 14.9473 22.408 15.0055C22.2956 15.0858 21.6391 16.2844 21.4745 16.5353C19.8543 18.9766 17.6982 21.8033 15.0099 23.1525C12.3217 24.5016 10.5691 23.2508 10.802 20.3639C11.0971 16.728 14.8915 11.8676 17.6941 9.65317C22.4763 5.87682 25.8652 8.03904 23.0826 13.7688C23.8475 13.7307 24.5562 13.303 25.1705 12.8895C27.6399 11.2271 30.2117 7.30224 33.5885 7.86638C36.2868 8.3181 35.1745 12.0021 33.6548 13.2087C32.5867 14.0559 31.4544 13.4556 31.9724 12.0342C32.2755 11.2011 33.1549 10.4602 34.0724 10.5104C34.6184 9.13119 33.3195 9.17736 32.3639 9.70938C29.9085 11.0786 26.6482 15.917 25.9776 18.6152C25.6122 20.0868 25.7226 21.7833 27.7263 21.3617C30.7417 20.7272 35.7327 12.8433 38.2482 10.4522C39.7499 9.02478 42.914 6.47108 44.7007 8.74572L45.1043 8.14343H48.2783V8.14745ZM21.6451 9.27774C19.6957 9.60097 18.3848 12.5321 20.7658 13.6223C22.0105 14.1924 22.1109 13.6664 22.5265 12.5662C22.9421 11.4661 23.5584 8.96054 21.6451 9.27774ZM43.9198 9.47851C43.0304 8.60519 40.9244 11.1228 40.4205 11.717C39.0653 13.3091 37.4331 15.4793 36.4695 17.3243C36.1201 17.9949 34.5562 20.918 36.3269 20.7052C37.1521 20.6048 38.6919 18.5229 39.1898 17.8262C40.9947 15.3006 42.4642 12.4679 44.0362 9.80776L43.9198 9.48051V9.47851ZM18.1459 12.769C17.5416 13.8632 16.7144 14.8208 16.1121 15.915C15.6243 16.8003 13.9439 20.2294 15.7006 20.5867C16.8951 20.8296 18.8726 18.5008 19.5391 17.6235C19.776 17.3123 21.2396 15.1942 21.2577 15.0115C21.2858 14.7325 20.3402 14.5237 20.0912 14.3932C19.758 14.2185 19.1477 13.8391 18.8967 13.5761C18.7542 13.4275 18.3607 12.6245 18.1459 12.769Z" fill="#3D007C"/>
<path d="M73.3708 3.87716C73.0496 6.72799 69.0805 13.1484 65.7619 12.8693C63.3828 12.6706 64.3244 9.74746 64.9869 8.37826C66.3762 5.51137 68.946 3.38529 71.5539 1.66275C71.596 1.43589 71.4535 1.52422 71.3049 1.51418C67.7996 1.25922 62.3308 6.6256 60.1164 9.14919C56.7376 12.9978 52.0799 19.9944 51.7045 25.1761C51.4254 29.0147 54.3204 30.1209 57.2776 28.0189C59.6085 26.3626 62.0678 23.0641 62.8388 20.3016C63.2162 18.9444 63.5454 16.3506 61.3089 17.4708C60.2931 17.9787 59.4298 19.4885 59.0122 20.5063C58.8516 20.8998 58.5645 22.1145 58.4019 22.3092C58.2794 22.4557 56.9624 23.0962 56.6091 23.3351C55.7498 23.9173 54.993 24.638 54.224 25.3267C54.4931 22.6123 55.8121 19.3098 57.904 17.4929C59.0082 16.5332 61.2046 15.2223 62.6882 15.7322C64.8584 16.479 64.0634 19.7414 63.4973 21.3596C61.9373 25.8165 56.7757 31.9257 51.5539 31.4539C49.2732 31.2471 47.7936 29.4041 47.3961 27.26C46.1052 20.3116 54.1497 9.98436 59.1588 5.68403C61.8169 3.40336 68.4119 -1.166 71.9815 0.538478C72.2144 0.648898 72.5497 1.00023 72.7183 1.01629C72.8769 1.03235 74.216 0.532455 74.5754 0.456165C76.2377 0.102823 77.9984 0.0767238 79.6386 0.538478C82.2385 1.26925 84.5131 3.24476 86.9725 4.32888C87.0126 4.47544 86.9323 4.49551 86.8741 4.57983C86.3641 5.31864 85.2057 6.01127 84.7058 6.84845L84.5492 6.89864C82.0718 5.67399 79.9156 3.67238 77.366 2.60232C76.0771 2.06227 74.7601 1.68082 73.3668 2.11647C73.3226 2.67861 73.429 3.32306 73.3668 3.87515L73.3708 3.87716ZM72.3629 2.52201C72.124 2.27708 69.751 4.10603 69.4398 4.37907C68.0024 5.63584 64.9809 9.14518 65.2057 11.1147C65.4326 13.0962 68.1811 10.8416 68.7874 10.2614C70.787 8.34815 72.3951 5.33068 72.3609 2.52402L72.3629 2.52201Z" fill="#3D007C"/>
<path d="M88.5938 8.34806L90.9126 5.68795C92.4243 5.68594 93.669 5.58155 95.1205 5.15994C98.124 4.28863 100.774 2.43961 103.005 0.311523C102.635 1.14268 102.061 1.96179 101.491 2.67049C98.4833 6.40668 93.5426 9.31573 88.5938 8.34806Z" fill="#3D007C"/>
<path d="M53.7204 8.14746L51.9577 10.9601H48.9844L50.7491 8.14746H53.7204Z" fill="#3D007C"/>
</svg>
