<svg width="97" height="43" viewBox="0 0 97 43" fill="none" xmlns="http://www.w3.org/2000/svg">
<path d="M19.6041 7.89801C19.6544 7.89806 19.7047 7.8981 19.7565 7.89814C20.5064 7.89956 21.2473 7.91228 21.9927 8.00035C22.0234 8.00388 22.0541 8.0074 22.0858 8.01104C26.0646 8.46855 29.7923 9.57964 32.9055 12.164C32.9505 12.2012 32.9505 12.2012 32.9964 12.2392C33.296 12.4878 33.5885 12.7381 33.8608 13.0163C33.9456 13.1004 34.0337 13.1775 34.1249 13.2546C34.5043 13.5786 34.8488 13.9385 35.1731 14.316C35.2136 14.3613 35.2542 14.4067 35.296 14.4534C36.1454 15.4076 36.8397 16.4687 37.4407 17.5907C37.4651 17.6363 37.4651 17.6363 37.49 17.6828C37.6049 17.8992 37.7132 18.1183 37.8186 18.3392C37.8361 18.3756 37.8536 18.412 37.8717 18.4495C38.9703 20.7589 39.4946 23.3047 39.4898 25.8507C39.4897 25.9284 39.4897 25.9284 39.4897 26.0076C39.4805 30.0626 38.0923 33.9906 35.1676 36.8832C35.1274 36.9228 35.1274 36.9228 35.0863 36.9632C35.0043 37.0439 34.9228 37.1251 34.8414 37.2063C34.5256 37.5194 34.2017 37.8073 33.8503 38.0814C33.7916 38.1293 33.7329 38.1773 33.6745 38.2256C33.234 38.5841 32.7728 38.9021 32.2914 39.2042C32.2553 39.2268 32.2192 39.2495 32.182 39.2728C28.7414 41.4141 24.7044 42.3878 19.489 42.8854C19.4506 42.8882 19.4122 42.8911 19.3726 42.894C18.0989 42.9871 16.8273 43.0007 15.5508 42.9998C15.3676 42.9997 15.1844 42.9998 15.0012 42.9999C14.4603 43.0001 13.9193 42.9999 13.3783 42.9996C13.0724 42.9994 12.7664 42.9993 12.4604 42.9992C9.99246 42.9985 7.52459 42.9944 5.05672 42.9731C4.97351 42.9724 4.97351 42.9724 4.88862 42.9717C4.22059 42.9661 3.55262 42.9589 2.88464 42.9485C2.76737 42.9468 2.65009 42.9454 2.53281 42.944C2.35698 42.942 2.18119 42.939 2.00538 42.9353C1.91489 42.9335 1.82439 42.9326 1.73389 42.9317C1.42374 42.9237 1.22136 42.899 0.970342 42.7129C0.768228 42.461 0.793972 42.13 0.828618 41.824C0.935772 41.5821 1.10278 41.4525 1.34827 41.3562C1.51367 41.3307 1.67716 41.3304 1.84431 41.3298C3.50728 41.2891 5.32729 40.9089 6.59206 39.7656C6.62623 39.7372 6.66039 39.7089 6.69559 39.6797C6.92145 39.4921 7.11323 39.2887 7.30068 39.0638C7.36097 38.9935 7.36097 38.9935 7.42248 38.9218C8.42833 37.7299 9.14489 36.3245 9.85172 34.947C9.86621 34.9188 9.8807 34.8906 9.89563 34.8616C10.325 34.0263 10.737 33.1845 11.1294 32.3314C11.1778 32.2264 11.2263 32.1215 11.2748 32.0166C11.8241 30.8286 12.3537 29.6334 12.8682 28.4304C12.9231 28.3022 12.9781 28.1741 13.0331 28.046C13.4497 27.0762 13.8608 26.1044 14.2629 25.1285C14.2987 25.0417 14.3345 24.9548 14.3704 24.868C14.4052 24.7835 14.4401 24.699 14.4749 24.6145C14.5002 24.5532 14.5002 24.5532 14.526 24.4907C14.6022 24.3059 14.6783 24.121 14.754 23.9361C15.6084 21.8516 16.6148 19.7562 18.0717 18.0118C18.0915 17.9876 18.1112 17.9635 18.1315 17.9386C18.699 17.2456 19.3393 16.5889 20.0559 16.0469C20.12 15.9963 20.184 15.9455 20.248 15.8947C20.9453 15.3439 21.6786 14.8722 22.4652 14.4563C22.5103 14.4324 22.5103 14.4324 22.5564 14.4079C24.104 13.5952 26.3975 12.7309 28.1734 13.1415C28.3345 13.1971 28.4073 13.2486 28.5121 13.3803C28.5696 13.5512 28.5778 13.6684 28.5593 13.8481C28.468 14.0027 28.408 14.0974 28.2376 14.1605C28.1682 14.1754 28.0984 14.1885 28.0284 14.2003C26.2298 14.5051 24.6463 15.7742 23.5517 17.1697C23.5285 17.1989 23.5053 17.2282 23.4814 17.2583C22.6257 18.3384 21.956 19.5011 21.3314 20.7251C21.3072 20.7723 21.283 20.8194 21.2581 20.868C20.8211 21.7254 20.44 22.604 20.061 23.4877C19.697 24.3357 19.3165 25.1755 18.93 26.0136C18.7977 26.3005 18.6676 26.5883 18.5382 26.8765C17.6121 28.938 16.6345 30.9872 15.5013 32.9454C15.4285 33.0718 15.3564 33.1985 15.2847 33.3255C14.452 34.7933 13.5026 36.2335 12.4028 37.52C12.3617 37.5688 12.3207 37.6176 12.2797 37.6664C11.5744 38.5031 10.8199 39.3325 9.9462 39.9995C9.89255 40.0431 9.83904 40.0869 9.78565 40.1309C9.29178 40.535 8.77105 40.8926 8.20987 41.1997C8.17215 41.2203 8.13442 41.241 8.09555 41.2623C8.06709 41.2778 8.03863 41.2934 8.0093 41.3094C8.05208 41.3089 8.09486 41.3084 8.13893 41.3079C8.56518 41.3031 8.99143 41.2984 9.41769 41.2936C9.65291 41.291 9.88814 41.2884 10.1234 41.2857C11.2102 41.2733 12.297 41.2619 13.3838 41.2536C13.7008 41.2511 14.0177 41.2485 14.3347 41.2458C14.5891 41.2437 14.8435 41.2418 15.0979 41.2402C16.2184 41.2331 17.3327 41.2175 18.4496 41.1223C18.5117 41.117 18.5117 41.117 18.5749 41.1116C18.8004 41.0917 19.0251 41.0676 19.2498 41.0404C19.2985 41.0346 19.2985 41.0346 19.3481 41.0287C21.5343 40.7654 23.73 40.2341 25.7248 39.2977C25.7895 39.2677 25.7895 39.2677 25.8554 39.2371C27.1639 38.6258 28.3714 37.836 29.4408 36.8707C29.5413 36.7805 29.6434 36.6924 29.7462 36.6048C32.9035 33.8746 34.2766 29.5063 34.5793 25.4996C34.7623 22.7488 34.2073 19.9365 33 17.4504C32.985 17.4194 32.9701 17.3883 32.9547 17.3564C32.8479 17.136 32.7365 16.9184 32.6221 16.7019C32.6047 16.6688 32.5873 16.6358 32.5693 16.6018C31.9217 15.3828 31.0559 14.1591 29.9775 13.2732C29.8557 13.171 29.7412 13.062 29.6252 12.9534C26.4452 10.0363 21.7152 9.20824 17.516 9.36362C13.0713 9.57401 9.05511 11.2085 5.97793 14.4095C5.82775 14.5755 5.68882 14.7468 5.55275 14.9241C5.50843 14.9802 5.46407 15.0362 5.4197 15.0923C4.61901 16.1142 3.99131 17.256 3.56862 18.4796C3.55682 18.5131 3.54502 18.5465 3.53286 18.581C2.78807 20.7292 3.07267 23.2953 4.06816 25.3208C4.4776 26.0602 5.04517 26.7298 5.64724 27.3215C5.68414 27.3579 5.72104 27.3943 5.75907 27.4318C6.25913 27.9039 6.80761 28.2087 7.45865 28.4307C7.93777 28.598 7.93777 28.598 8.05359 28.7571C8.1295 28.9915 8.14891 29.1858 8.04474 29.4179C7.92187 29.57 7.81794 29.6458 7.63137 29.7074C7.06511 29.7191 6.51999 29.5718 5.97793 29.4267C5.91867 29.4109 5.85942 29.3952 5.79837 29.379C4.61159 29.0236 3.54182 28.3696 2.62379 27.5554C2.57818 27.5164 2.53257 27.4775 2.48557 27.4373C2.18164 27.1734 1.9231 26.8918 1.67896 26.5729C1.65095 26.5366 1.62294 26.5002 1.59408 26.4627C0.355171 24.7828 -0.223004 22.432 0.0787541 20.3767C0.562675 17.5 2.49086 14.7308 4.79689 12.9593C4.84899 12.9171 4.90096 12.8749 4.95283 12.8325C6.02866 11.957 7.21752 11.2386 8.43448 10.5734C8.5009 10.5368 8.5009 10.5368 8.56866 10.4996C11.3336 8.99035 14.5555 8.18631 17.6938 7.95357C17.7489 7.94947 17.8041 7.94537 17.8609 7.94115C18.4417 7.90122 19.0221 7.89735 19.6041 7.89801Z" fill="#3D007C"/>
<path d="M67.2758 1.49717C68.0601 2.20572 68.6177 3.04277 68.7204 4.14259C68.767 4.85366 68.5864 5.50567 68.3946 6.17898C68.3368 6.38255 68.2803 6.58641 68.2257 6.79096C68.2156 6.82659 68.2055 6.86222 68.1951 6.89893C68.1308 7.14287 68.1276 7.32714 68.1776 7.57577C68.2632 7.70812 68.2632 7.70812 68.4038 7.76389C69.0094 7.71053 69.5183 7.08451 69.9573 6.68606C70.9269 5.80866 71.9961 4.92005 73.2891 4.65992C73.3404 4.64925 73.3918 4.63858 73.4446 4.62759C74.4448 4.53637 75.2811 4.84534 76.0484 5.50646C76.3611 5.78904 76.657 6.0871 76.9461 6.39562C77.0405 6.49564 77.0405 6.49564 77.1468 6.57198C77.1724 6.59283 77.1981 6.61369 77.2245 6.63518C77.2245 6.66622 77.2245 6.69726 77.2245 6.72924C77.1753 6.75203 77.1261 6.77482 77.0754 6.79831C75.9121 7.34615 74.904 8.23998 74.1173 9.28451C74.0501 9.3736 73.9821 9.4621 73.9143 9.55066C73.4087 10.2145 72.9458 10.9064 72.4951 11.6113C72.4679 11.6537 72.4408 11.6961 72.4129 11.7397C72.2477 11.9977 72.0827 12.2558 71.9178 12.514C71.8116 12.6801 71.7054 12.8461 71.5992 13.0122C71.5457 13.0957 71.4924 13.1793 71.439 13.2629C71.1617 13.6975 70.8828 14.1305 70.5938 14.5568C70.5611 14.6049 70.5611 14.6049 70.5278 14.6541C69.2584 16.5129 67.45 17.8378 65.2738 18.2515C65.0662 18.2879 64.8583 18.3194 64.6493 18.3456C64.6158 18.35 64.5822 18.3545 64.5477 18.359C60.8788 18.7983 57.3021 17.0824 54.1719 15.2975C53.625 14.9858 53.0723 14.6862 52.5169 14.3911C52.4629 14.3624 52.4089 14.3336 52.3549 14.3049C51.5032 13.8515 50.641 13.4278 49.7676 13.0217C49.5925 12.9402 49.4178 12.8578 49.2432 12.7751C48.5655 12.455 47.8822 12.1542 47.1912 11.8665C46.9634 11.7708 46.7368 11.6721 46.5103 11.5733C46.5103 11.5578 46.5103 11.5423 46.5103 11.5263C46.8465 11.5225 47.1795 11.533 47.515 11.5555C47.6125 11.5617 47.71 11.5679 47.8076 11.5741C47.9576 11.5839 48.1075 11.5937 48.2575 11.6035C49.5296 11.6865 50.7996 11.7243 52.0741 11.7232C52.1219 11.7232 52.1219 11.7232 52.1708 11.7232C55.7781 11.8332 55.7781 11.8332 59.0855 10.6327C59.1275 10.6056 59.1694 10.5784 59.2127 10.5504C59.4097 10.3397 59.5238 10.0851 59.5604 9.79499C59.518 9.51376 59.3906 9.38626 59.1759 9.22182C58.4467 8.82902 57.5806 8.78804 56.7785 8.70743C54.205 8.44817 51.6573 7.74397 49.5862 6.07082C49.5405 6.0339 49.4948 5.99698 49.4477 5.95894C49.1768 5.73399 48.9076 5.49879 48.6815 5.22428C48.6815 5.19324 48.6815 5.1622 48.6815 5.13022C48.7238 5.13701 48.7661 5.1438 48.8096 5.1508C51.8232 5.60631 54.8741 3.91816 57.5475 2.68467C64.8105 -0.664737 64.8105 -0.664737 67.2758 1.49717Z" fill="#3D007C"/>
<path d="M53.7418 20.3592C53.7974 20.3707 53.7974 20.3707 53.8542 20.3825C55.1621 20.6653 56.3167 21.2985 57.285 22.2095C57.3074 22.2302 57.3297 22.2509 57.3528 22.2722C58.9503 23.7563 59.5804 26.05 59.6676 28.1561C59.7847 31.8249 58.1586 35.4036 55.7465 38.1219C55.7091 38.1642 55.6717 38.2065 55.6332 38.25C55.0641 38.8789 54.4669 39.5052 53.7884 40.0184C53.7434 40.0552 53.6984 40.0919 53.652 40.1297C52.8917 40.7482 52.0525 41.2858 51.1776 41.7299C51.1436 41.7474 51.1096 41.7648 51.0746 41.7828C48.8587 42.9069 46.2246 43.3882 43.8099 42.6394C41.9139 42.0233 40.4355 40.7238 39.5249 38.9619C38.2123 36.3062 38.4506 33.1435 39.3882 30.4174C40.1203 28.3245 41.2876 26.4123 42.8063 24.7896C42.9036 24.6847 42.9983 24.5786 43.0916 24.4703C43.3977 24.1208 43.7357 23.8039 44.0911 23.5047C44.1538 23.4501 44.1538 23.4501 44.2178 23.3945C46.0143 21.8422 48.1748 20.7347 50.5249 20.3129C50.6084 20.2972 50.6084 20.2972 50.6937 20.2811C51.6758 20.1275 52.7703 20.1568 53.7418 20.3592ZM49.406 23.3659C49.382 23.3852 49.3581 23.4045 49.3335 23.4243C48.6917 23.9433 48.0858 24.5048 47.5411 25.1237C47.4813 25.1908 47.4813 25.1908 47.4203 25.2592C46.6318 26.156 45.9484 27.1465 45.3499 28.1766C45.3325 28.2064 45.3151 28.2361 45.2972 28.2667C43.496 31.363 41.8982 35.4878 42.8596 39.0969C43.0848 39.8943 43.3927 40.6246 44.1319 41.0708C44.8065 41.4444 45.5393 41.506 46.2822 41.3092C47.4643 40.9672 48.5341 40.2436 49.4136 39.4041C49.5316 39.2918 49.6525 39.1851 49.776 39.0788C50.2574 38.6502 50.6828 38.1611 51.0843 37.6593C51.1271 37.6077 51.17 37.5562 51.2129 37.5047C51.5884 37.0513 51.9227 36.5751 52.2499 36.0866C52.2719 36.054 52.294 36.0215 52.3167 35.988C52.6997 35.4222 53.0381 34.8335 53.3688 34.2363C53.3899 34.1985 53.411 34.1607 53.4327 34.1218C55.0413 31.2285 56.3634 27.2677 55.4467 23.9647C55.2123 23.1719 54.833 22.4747 54.1011 22.0431C52.5257 21.2333 50.6132 22.3835 49.406 23.3659Z" fill="#3D007C"/>
<path d="M77.3758 20.7363C78.345 21.4842 78.7141 22.6434 78.8883 23.8255C79.3123 27.124 78.1986 30.3152 76.8329 33.2389C76.8096 33.2888 76.7864 33.3386 76.7624 33.39C76.414 34.1311 76.0309 34.8447 75.617 35.5492C75.583 35.6074 75.583 35.6074 75.5483 35.6669C74.9553 36.6831 74.3038 37.6514 73.5661 38.5631C73.505 38.6391 73.4446 38.7157 73.3846 38.7926C73.2171 39.0063 73.0477 39.2088 72.8554 39.3992C72.7733 39.4833 72.6978 39.5713 72.6221 39.6615C72.3979 39.9273 72.1569 40.169 71.897 40.3979C71.8149 40.4703 71.7337 40.5435 71.6528 40.6174C70.0774 42.0452 68.1385 42.998 66.0132 42.9998C65.9654 42.9999 65.9654 42.9999 65.9167 42.9999C64.4942 42.9977 63.0742 42.6877 62.0051 41.6599C61.0491 40.617 60.7729 39.2495 60.8004 37.8595C60.9132 35.3803 61.7748 33.0012 62.8333 30.7945C63.1542 30.124 63.4468 29.4409 63.7387 28.7568C63.8071 28.5968 63.8763 28.4372 63.9458 28.2778C65.3338 25.2869 65.3338 25.2869 65.3785 22.0897C65.3687 22.0637 65.359 22.0377 65.3489 22.011C64.4812 21.7623 63.6795 21.9861 62.9102 22.424C62.1489 22.8719 61.4685 23.4871 60.9019 24.1727C60.7464 24.3295 60.5937 24.3808 60.3782 24.3848C60.1558 24.3791 60.0331 24.3181 59.8546 24.1826C59.6868 23.9875 59.6687 23.7419 59.6745 23.4895C59.9639 22.4941 61.0608 21.5632 61.921 21.078C62.8192 20.5927 63.8304 20.2558 64.8514 20.2441C64.901 20.2435 64.901 20.2435 64.9516 20.2428C66.3535 20.2275 66.3535 20.2275 67.0152 20.44C67.0457 20.4496 67.0762 20.4593 67.1076 20.4692C67.9203 20.7385 68.5618 21.2805 68.973 22.0498C69.9163 24.0521 69.3445 26.4388 68.6815 28.4335C68.2018 29.8417 67.5783 31.188 66.8912 32.5015C64.9329 36.2105 64.9329 36.2105 64.7198 40.2699C64.8434 40.6405 65.025 40.9239 65.3489 41.1401C66.1825 41.5397 67.0886 41.373 67.9254 41.0711C69.4205 40.4804 70.7685 39.294 71.8165 38.0708C71.8825 37.9941 71.9492 37.918 72.0159 37.842C72.4198 37.3771 72.782 36.8833 73.14 36.3809C73.1718 36.3367 73.1718 36.3367 73.2042 36.2916C74.0366 35.1323 74.7343 33.8841 75.365 32.5997C75.4109 32.5062 75.4571 32.4128 75.5038 32.3196C76.5522 30.2202 76.9944 27.1249 76.3416 24.8427C76.1179 24.1508 75.8208 23.5493 75.1891 23.1748C74.9604 23.0629 74.7293 23.0403 74.4807 23.0149C74.1721 22.9814 73.9648 22.9207 73.7564 22.6723C73.5553 22.2671 73.4704 21.8934 73.5833 21.4439C73.7301 21.0074 73.9429 20.6694 74.3447 20.4458C75.2954 20.0186 76.5243 20.112 77.3758 20.7363Z" fill="#3D007C"/>
<path d="M91.5437 20.1854C92.7168 20.1555 93.8945 20.4905 94.8392 21.2221C94.8974 21.2656 94.8974 21.2656 94.9569 21.31C95.8284 21.9969 96.3713 23.0564 96.5163 24.1694C96.5289 24.3519 96.5314 24.5332 96.5304 24.7162C96.5302 24.7652 96.53 24.8141 96.5298 24.8646C96.5029 26.7133 95.4627 28.316 94.2499 29.5961C94.1338 29.7123 94.0133 29.8189 93.8873 29.9236C93.8424 29.9618 93.7974 30.0001 93.7511 30.0394C92.7462 30.8837 91.6125 31.4821 90.3971 31.9352C90.3629 31.9483 90.3287 31.9614 90.2934 31.975C88.9219 32.4986 87.411 32.7655 85.9551 32.8709C85.9011 32.8749 85.8471 32.879 85.7914 32.8832C85.3124 32.917 84.8348 32.9249 84.3548 32.9237C84.2315 32.9235 84.1082 32.9237 83.9849 32.924C83.9051 32.924 83.8252 32.9239 83.7454 32.9239C83.6912 32.924 83.6912 32.924 83.6359 32.9241C83.3936 32.9231 83.1586 32.902 82.9181 32.8709C82.9063 32.9298 82.8944 32.9887 82.8822 33.0494C82.8372 33.2586 82.7794 33.4617 82.7182 33.6664C82.1303 35.641 81.8867 38.0239 82.819 39.9349C83.1787 40.566 83.7019 40.9775 84.3722 41.197C85.9681 41.6146 87.6724 40.949 89.0373 40.1221C90.3647 39.278 91.6122 38.1715 92.6181 36.9409C92.6626 36.8885 92.7072 36.8362 92.7518 36.7839C93.1842 36.2766 93.5801 35.7484 93.9638 35.2012C93.9891 35.1651 94.0144 35.129 94.0405 35.0918C94.1738 34.9008 94.3026 34.7076 94.4284 34.5112C94.5461 34.3386 94.6358 34.2395 94.8392 34.1808C95.1314 34.1374 95.3704 34.186 95.6097 34.3679C95.7946 34.5507 95.8628 34.7413 95.8974 34.9993C95.8501 35.3513 95.5969 35.6592 95.4029 35.9409C95.3749 35.9819 95.3469 36.0228 95.3181 36.065C95.0784 36.413 94.8278 36.7498 94.5672 37.0812C94.5334 37.1246 94.4997 37.168 94.4649 37.2126C93.741 38.1351 93.741 38.1351 93.3689 38.5054C93.2908 38.5857 93.2196 38.6702 93.1479 38.7566C92.8743 39.0834 92.5753 39.3849 92.2573 39.6654C92.1546 39.757 92.0551 39.8518 91.9552 39.9466C91.2693 40.5842 90.508 41.1303 89.7172 41.6191C89.6864 41.6384 89.6556 41.6577 89.6238 41.6776C87.8522 42.7782 85.6735 43.3113 83.6349 42.8111C83.1466 42.6852 82.6927 42.4948 82.2382 42.2741C82.1913 42.252 82.1443 42.2299 82.0959 42.2072C81.5177 41.9248 80.9968 41.5372 80.5158 41.1045C80.4716 41.0651 80.4273 41.0257 80.3818 40.9852C79.0444 39.7723 78.2822 38.0551 78.1217 36.233C78.104 35.9439 78.1024 35.6545 78.1021 35.3649C78.1021 35.3139 78.1021 35.3139 78.1021 35.2619C78.1029 34.6586 78.1433 34.0733 78.2495 33.479C78.2572 33.4353 78.265 33.3916 78.273 33.3466C78.727 30.8769 79.823 28.4236 81.2864 26.4149C81.3063 26.3874 81.3263 26.3598 81.3469 26.3314C81.4754 26.1546 81.6067 25.9801 81.7396 25.8068C81.7731 25.7632 81.8065 25.7196 81.8409 25.6746C82.4901 24.8419 83.2266 24.0227 84.0513 23.3741C84.1101 23.3252 84.1689 23.2761 84.2275 23.227C86.269 21.5304 88.9018 20.3179 91.5437 20.1854ZM88.7653 22.9531C88.7199 22.9904 88.6744 23.0277 88.6276 23.0662C88.0257 23.5708 87.4713 24.1441 86.9976 24.7776C86.9433 24.8456 86.9433 24.8456 86.888 24.915C86.3132 25.6393 85.8096 26.4407 85.3658 27.257C85.3428 27.2993 85.3198 27.3415 85.2962 27.3851C84.76 28.378 84.2958 29.3962 83.8842 30.4499C83.8663 30.4954 83.8663 30.4954 83.8481 30.5418C83.8143 30.6282 83.781 30.7148 83.7477 30.8015C83.719 30.8759 83.719 30.8759 83.6898 30.9517C83.6436 31.0926 83.6175 31.2267 83.598 31.3738C85.0312 31.3971 85.0312 31.3971 86.4537 31.2335C86.5188 31.2218 86.5188 31.2218 86.5853 31.2099C88.0861 30.9302 89.5173 30.3137 90.6691 29.2686C90.7086 29.2329 90.7482 29.1972 90.7889 29.1605C91.1341 28.8443 91.4489 28.5247 91.7258 28.1429C91.7639 28.0907 91.7639 28.0907 91.8028 28.0375C91.8785 27.9335 91.9538 27.8292 92.0289 27.7248C92.0497 27.6961 92.0704 27.6675 92.0919 27.6379C92.4176 27.1865 92.7057 26.7137 92.9808 26.2278C92.9979 26.1976 93.0151 26.1674 93.0329 26.1363C93.5201 25.27 93.943 24.2041 93.7513 23.187C93.5886 22.6373 93.3161 22.3132 92.8448 22.0174C91.4407 21.2526 89.9026 22.0119 88.7653 22.9531Z" fill="#3D007C"/>
</svg>
