<svg width="85" height="52" viewBox="0 0 85 52" fill="none" xmlns="http://www.w3.org/2000/svg">
<path d="M37.5967 28.498C39.1263 28.498 40.6559 28.498 42.2319 28.498C42.4251 28.8636 42.6183 29.2292 42.8173 29.6059C44.5007 32.79 46.1948 35.9679 47.8972 39.1419C49.2568 41.6912 49.2568 41.6912 50.6439 44.2921C50.7289 36.559 50.7289 36.559 50.8156 28.6697C52.1186 28.6697 53.4216 28.6697 54.7641 28.6697C54.7641 36.1479 54.7641 43.626 54.7641 51.3308C53.3478 51.3308 51.9315 51.3308 50.4723 51.3308C49.928 50.46 49.4115 49.6095 48.9386 48.7033C48.8778 48.5879 48.8169 48.4724 48.7542 48.3534C48.6246 48.1072 48.4952 47.8609 48.366 47.6145C48.0226 46.9598 47.6774 46.306 47.3325 45.6521C47.2635 45.5211 47.1944 45.3901 47.1233 45.2552C46.5109 44.094 45.8916 42.9368 45.2684 41.7814C45.1845 41.6258 45.1007 41.4703 45.0143 41.31C43.9747 39.3843 42.9308 37.4609 41.8885 35.5367C41.8319 40.7487 41.7752 45.9608 41.7169 51.3308C40.3572 51.3308 38.9975 51.3308 37.5967 51.3308C37.5967 43.796 37.5967 36.2612 37.5967 28.498Z" fill="#3D007C"/>
<path d="M18.0259 28.498C23.1813 28.498 28.3367 28.498 33.6483 28.498C33.6483 29.8577 33.6483 31.2174 33.6483 32.6182C29.9092 32.6182 26.1701 32.6182 22.3177 32.6182C22.3177 34.2045 22.3177 35.7908 22.3177 37.4251C25.7169 37.4251 29.1161 37.4251 32.6182 37.4251C32.6182 38.7281 32.6182 40.0311 32.6182 41.3736C29.2191 41.3736 25.8199 41.3736 22.3177 41.3736C22.3177 43.3565 22.3177 45.3393 22.3177 47.3823C26.2268 47.3823 30.1358 47.3823 34.1633 47.3823C34.1633 48.6853 34.1633 49.9883 34.1633 51.3308C28.8379 51.3308 23.5126 51.3308 18.0259 51.3308C18.0259 43.796 18.0259 36.2612 18.0259 28.498Z" fill="#3D007C"/>
<path d="M0 28.6694C4.92878 28.6694 9.85756 28.6694 14.9357 28.6694C14.9357 29.9724 14.9357 31.2755 14.9357 32.6179C11.4232 32.6179 7.91077 32.6179 4.29187 32.6179C4.29187 34.3175 4.29187 36.0171 4.29187 37.7682C7.40776 37.7682 10.5237 37.7682 13.734 37.7682C13.734 39.0712 13.734 40.3742 13.734 41.7167C10.6181 41.7167 7.50218 41.7167 4.29187 41.7167C4.29187 44.8893 4.29187 48.0618 4.29187 51.3305C2.87555 51.3305 1.45923 51.3305 0 51.3305C0 43.8523 0 36.3742 0 28.6694Z" fill="#3D007C"/>
<path d="M59.2275 28.6694C72.0887 28.6694 72.0889 28.6699 74.4424 30.7085C75.7966 32.1559 76.5801 34.3057 76.9102 36.2231C76.9414 36.3984 76.9727 36.5738 77.0049 36.7544C77.4608 40.7189 77.1241 45.1044 74.6787 48.4116C73.2059 50.1525 71.9133 50.8386 69.6992 51.3306H59.2275V28.6694ZM63.5195 47.5532C65.4839 47.5532 68.2786 48.0745 70.1553 46.853C71.5641 45.7779 72.2169 44.1681 72.5391 42.4663C72.9137 39.5526 72.9691 36.1059 71.1377 33.6479C69.7858 32.4462 69.7855 32.4458 63.5195 32.4458V47.5532Z" fill="#3D007C"/>
<path d="M80.1721 28.498C81.5884 28.498 83.0048 28.498 84.464 28.498C84.6357 28.6697 84.6357 28.6697 84.6568 29.0448C84.6566 29.2117 84.6565 29.3787 84.6563 29.5507C84.6565 29.7416 84.6568 29.9325 84.657 30.1292C84.6564 30.3405 84.6558 30.5517 84.6551 30.7694C84.6552 30.9905 84.6552 31.2115 84.6552 31.4393C84.6553 32.0472 84.6543 32.6551 84.6531 33.2631C84.652 33.8977 84.6519 34.5324 84.6517 35.1671C84.6512 36.3697 84.6497 37.5723 84.648 38.7749C84.6461 40.1437 84.6452 41.5125 84.6443 42.8813C84.6425 45.6978 84.6394 48.5143 84.6357 51.3308C83.1627 51.3308 81.6897 51.3308 80.1721 51.3308C80.1721 43.796 80.1721 36.2612 80.1721 28.498Z" fill="#3D007C"/>
<path d="M34.5066 0C38.3023 0 42.098 0 46.0088 0C46.0088 0.906442 46.0088 1.81288 46.0088 2.74679C43.1762 2.74679 40.3435 2.74679 37.4251 2.74679C37.4251 4.10646 37.4251 5.46612 37.4251 6.86698C39.0113 6.86698 40.5976 6.86698 42.2319 6.86698C42.2319 7.71677 42.2319 8.56656 42.2319 9.4421C40.6457 9.4421 39.0594 9.4421 37.4251 9.4421C37.4251 12.8413 37.4251 16.2404 37.4251 19.7426C36.462 19.7426 35.4989 19.7426 34.5066 19.7426C34.5066 13.2275 34.5066 6.71248 34.5066 0Z" fill="#3D007C"/>
<path d="M47.0391 0C48.0021 0 48.9652 0 49.9575 0C49.9575 6.51505 49.9575 13.0301 49.9575 19.7426C46.1618 19.7426 42.3661 19.7426 38.4553 19.7426C38.4553 18.8928 38.4553 18.043 38.4553 17.1675C41.288 17.1675 44.1206 17.1675 47.0391 17.1675C47.0391 15.7511 47.0391 14.3348 47.0391 12.8756C45.4528 12.8756 43.8665 12.8756 42.2322 12.8756C42.2322 12.0258 42.2322 11.176 42.2322 10.3005C43.8184 10.3005 45.4047 10.3005 47.0391 10.3005C47.0391 6.90132 47.0391 3.50216 47.0391 0Z" fill="#3D007C"/>
</svg>
