<svg width="106" height="27" viewBox="0 0 106 27" fill="none" xmlns="http://www.w3.org/2000/svg">
<path d="M60.2901 0C60.1991 1.1479 60.2012 2.29994 60.1205 3.4437L60.0812 8.64545C60.8444 8.33727 61.6014 8.01048 62.4039 7.81399C72.3441 5.36514 74.8985 19.8039 67.9118 24.7595C64.0958 27.4669 58.8816 26.4865 54.6044 25.6426C54.6334 25.2186 54.6272 24.7926 54.6416 24.3686C54.8154 19.3799 54.8071 14.2919 54.7244 9.29489C54.6996 7.80986 54.8567 4.25654 54.1577 3.05486C53.7026 2.27305 52.8712 2.44885 52.1328 2.22961L52.1618 1.54501L60.2881 0.00206829L60.2901 0ZM60.2508 25.14C60.6997 25.0945 61.2333 25.3386 61.6511 25.3531C62.7659 25.3903 63.7856 24.5072 64.3792 23.6529C66.4929 20.6126 66.979 13.6673 64.4702 10.7572C63.3181 9.42105 61.6263 9.36521 60.0378 9.88642C60.0647 12.5442 60.0089 15.2019 60.0378 17.8597C60.0544 19.4254 60.1412 21.0076 60.1205 22.5795C60.2095 23.4275 60.1454 24.2941 60.2488 25.1442L60.2508 25.14Z" fill="#3D007C"/>
<path d="M21.3654 0.541992L21.5764 7.65897L20.3189 8.01886C20.2713 7.78514 20.1927 7.55142 20.11 7.32805C19.1068 4.60411 17.506 2.41793 14.3622 2.25247C12.8875 2.17387 11.3466 2.31452 9.86574 2.25247C9.87608 2.66406 9.80369 3.07358 9.78094 3.4831C9.72096 4.52552 9.7375 5.57621 9.65477 6.61449L9.61547 12.6105L12.6041 12.567C14.5173 12.4202 15.3136 10.6683 15.6776 9.01784H16.7221V17.7046H15.6776C15.2847 15.9673 14.4801 14.2465 12.478 14.1141C11.781 14.0686 11.0467 14.0913 10.3476 14.0707C10.1036 14.0624 9.85746 14.0789 9.6134 14.0707L9.6527 17.7688C9.65477 17.868 9.69407 17.959 9.6982 18.0583C9.75612 19.5227 9.70648 22.4721 10.3497 23.7151C10.993 24.9581 12.5111 25.014 13.7934 25.0574V26.1019H0V25.0574C0.984505 24.9354 2.19859 24.9023 2.86458 24.0564C3.72292 22.9664 3.74153 19.3014 3.80358 17.8536C3.95043 14.4574 3.94629 11.0551 3.76222 7.66104C3.69603 6.42007 3.66294 3.61547 2.95972 2.65785C2.31648 1.78297 1.01553 1.60716 0 1.58648V0.541992H21.3654Z" fill="#3D007C"/>
<path d="M28.0872 7.32161L28.5361 7.30713C34.683 7.35884 37.7213 11.9235 37.4214 17.7313C37.196 22.0871 34.3087 25.6715 29.9446 26.383C24.6994 27.2392 20.2939 24.9476 19.1626 19.5948C17.8327 13.3052 21.3157 7.37538 28.0872 7.31954V7.32161ZM27.7936 8.53156C25.4605 8.77148 24.8897 12.1966 24.7077 14.0539C24.4367 16.8481 24.4326 22.2154 26.3395 24.4512C27.5288 25.8452 29.3572 25.6591 30.3851 24.1947C31.8991 22.0354 31.895 16.6268 31.5992 14.058C31.3613 11.9856 30.534 8.25027 27.7915 8.53156H27.7936Z" fill="#3D007C"/>
<path d="M90.4367 16.0375H78.9804C78.8398 17.9403 79.239 19.9155 80.3848 21.4626C81.359 22.778 82.6496 23.5205 84.2773 23.7563C86.1512 24.0273 88.0747 23.6943 89.5804 22.5112C89.6694 22.6974 90.1306 23.0262 90.0396 23.2186C90.0127 23.2765 89.6921 23.6446 89.6218 23.7212C86.6145 27.0201 80.8502 27.4193 77.2534 24.8815C70.8128 20.3395 72.7321 8.83776 80.8543 7.52646C85.419 6.79015 89.0406 8.61025 90.1161 13.2432C90.3312 14.1698 90.3891 15.0881 90.4367 16.0333V16.0375ZM84.7923 14.7014C84.751 13.2887 84.7303 11.7995 84.3104 10.4407C84.0415 9.56993 83.5286 8.60404 82.5131 8.51924C80.724 8.37033 79.8677 10.4262 79.4851 11.843C79.2266 12.8006 79.1066 13.7954 79.0818 14.7862L84.7903 14.7014H84.7923Z" fill="#3D007C"/>
<path d="M104.808 8.31611L104.982 12.9284L104.142 13.1394C103.501 11.1703 102.334 8.93453 100.061 8.6098C98.1004 8.32852 96.8118 9.59431 96.9504 11.5509C97.1097 13.824 100.537 14.5872 102.249 15.3628C104.762 16.5024 106.158 17.8695 105.983 20.821C105.759 24.5832 102.506 26.3599 99.0662 26.5233C96.5926 26.6411 94.092 26.2792 91.7735 25.4312L91.5625 20.0929L92.4788 19.8385C93.2461 22.1902 94.8428 24.8335 97.6019 24.9762C100.895 25.1458 102.328 21.3236 99.1966 19.5821C96.4726 18.066 92.2719 17.7682 92.0175 13.764C91.7052 8.83732 96.3816 7.05238 100.57 7.35229C102.022 7.4557 103.463 7.77008 104.81 8.31611H104.808Z" fill="#3D007C"/>
<path d="M37.6328 25.1625L37.7031 25.1066C38.7207 25.059 39.5129 24.8108 39.9121 23.8036C40.2264 23.0073 40.2595 21.5016 40.3092 20.6081C40.4043 18.9204 40.4002 17.2409 40.3505 15.5573C40.3133 14.3019 40.3526 11.3484 39.6349 10.3845C39.1158 9.68959 38.4457 9.66684 37.6349 9.64616L37.6535 8.9326L45.7467 7.34829V11.5655C46.3796 9.86539 47.7447 8.33486 49.4386 7.63164C50.6486 7.13112 52.1687 7.24694 53.3084 7.87363L51.3911 12.7775C50.026 12.0288 48.6009 11.5759 47.0353 11.9544C46.6319 12.0516 45.7405 12.4177 45.666 12.883C45.573 13.4601 45.6061 14.244 45.5792 14.8438C45.4923 16.8376 45.4902 18.8232 45.6226 20.817C45.6847 21.7663 45.7446 23.5637 46.2989 24.3186C46.9691 25.2328 47.9805 24.9784 48.967 25.1397V26.0994H37.6369V25.1604L37.6328 25.1625Z" fill="#3D007C"/>
</svg>
