<svg width="149" height="15" viewBox="0 0 149 15" fill="none" xmlns="http://www.w3.org/2000/svg">
<path d="M6.62286 8.25714H12.8546C12.4807 10.8514 10.1455 12.9429 7.47926 12.9429C4.48756 12.9429 2.05537 10.5086 2.05537 7.51429C2.05537 4.52 4.48756 2.08571 7.47926 2.08571C8.94086 2.08571 10.2654 2.62286 11.3017 3.63143L11.8954 4.22571L13.377 2.80571L12.7604 2.18857C11.3359 0.797143 9.46897 0.0285714 7.51066 0.0285714C5.50382 0.02 3.61973 0.782857 2.20096 2.19143C0.782182 3.60286 0 5.48286 0 7.48571C0 11.6143 3.35425 14.9714 7.47926 14.9714C11.6043 14.9714 14.9871 11.6143 14.9871 7.48571V6.14286H6.62286V8.25714Z" fill="#3D007C"/>
<path d="M20.8963 0H18.8409V14.9714H28.8323V12.9143H20.8963V0Z" fill="#3D007C"/>
<path d="M37.8902 0L30.9076 15H33.1971L35.1668 10.7429H42.0894L44.0877 15H46.3743L39.3575 0H37.8873H37.8902ZM36.1488 8.62857L38.6238 3.3L41.0988 8.62857H36.1488Z" fill="#3D007C"/>
<path d="M56.9509 6.13429L50.8504 0H49.1005V14.9714H51.1844V3.26857L56.9509 9.06571L62.7173 3.26857V14.9714H64.8012V0H63.0799L56.9509 6.13429Z" fill="#3D007C"/>
<path d="M78.8177 8.88C78.792 11.0714 76.985 12.8571 74.7926 12.8571C72.6002 12.8571 70.7675 11.0629 70.7675 8.85714V0.0285714H68.7121V8.88571C68.7121 12.2429 71.4412 14.9714 74.7926 14.9714C78.144 14.9714 80.9016 12.2429 80.9016 8.88571V0H78.8491L78.8177 8.88Z" fill="#3D007C"/>
<path d="M95.2321 4.77143C95.2321 2.14 93.094 0 90.4648 0H85.1551V14.9714H87.2105V9.54286H89.6484L92.76 14.9714H95.1351L91.8864 9.32571C93.8419 8.7 95.2321 6.86571 95.2321 4.77143ZM87.1819 2.05714H90.4562C91.9664 2.08 93.1482 3.28571 93.1482 4.8C93.1482 6.31429 91.9407 7.49143 90.4648 7.51429H87.1819V2.05714Z" fill="#3D007C"/>
<path d="M104.204 0L97.219 14.9714H99.5084L101.478 10.7143H108.401L110.399 14.9714H112.688L105.672 0H104.204ZM102.463 8.62857L104.938 3.29429L107.436 8.62857H102.463Z" fill="#3D007C"/>
<path d="M123.265 6.13143L117.165 0H115.415V14.9714H117.499V3.26857L123.265 9.06571L129.032 3.26857V14.9714H131.115V0H129.366L123.265 6.13143Z" fill="#3D007C"/>
<path d="M141.955 0H140.487L133.533 14.9714H135.82L137.79 10.7143H144.712L146.711 14.9714H149L141.955 0ZM138.746 8.62857L141.221 3.3L143.696 8.62857H138.746Z" fill="#3D007C"/>
</svg>
