<svg width="113" height="37" viewBox="0 0 113 37" fill="none" xmlns="http://www.w3.org/2000/svg">
<path d="M14.9524 16.4779L14.9395 13.6068C15.0097 13.3795 15.7192 13.0248 15.8152 13.0248H27.3811C30.0545 27.5376 11.6804 33.629 3.03552 22.6969C-6.09892 11.144 7.02999 -4.7748 20.5728 1.36287C23.455 2.66911 24.7113 3.84232 21.637 6.09452C13.7386 -0.508733 2.71034 5.73055 3.94268 15.9218C5.01797 24.8235 18.0434 28.2655 22.8379 20.7385C23.2998 20.0142 24.715 16.4779 23.4106 16.4779H14.9506H14.9524Z" fill="#3D007C"/>
<path d="M87.4542 29.0802C86.2662 37.919 74.2384 39.3971 70.8814 31.3287L74.1294 30.2626C77.2962 36.3467 85.0523 33.1393 83.9992 26.4917C82.2883 26.828 81.6916 28.0123 79.6869 28.2155C71.6185 29.0322 67.092 19.1882 72.3132 13.2501C75.0717 10.1129 80.4943 8.82332 83.4819 12.3282L84.2098 10.9314L87.4523 10.9536V29.0802H87.4542ZM78.3936 13.4441C71.6315 14.4455 72.4463 25.4903 79.3285 25.1245C86.4897 24.7439 85.3886 12.4076 78.3936 13.4441Z" fill="#3D007C"/>
<path d="M47.684 19.2605C47.684 24.2619 43.6286 28.3173 38.6272 28.3173C33.6258 28.3173 29.5703 24.2619 29.5703 19.2605C29.5703 14.2591 33.6258 10.2036 38.6272 10.2036C43.6286 10.2036 47.684 14.2591 47.684 19.2605ZM37.6535 13.4517C31.1297 14.4826 31.889 25.8693 39.2572 25.0877C46.424 24.3284 45.199 12.26 37.6535 13.4517Z" fill="#3D007C"/>
<path d="M67.9451 19.2826C67.9451 24.2877 63.8878 28.345 58.8827 28.345C53.8776 28.345 49.8203 24.2877 49.8203 19.2826C49.8203 14.2775 53.8776 10.2202 58.8827 10.2202C63.8878 10.2202 67.9451 14.2775 67.9451 19.2826ZM58.0273 13.4442C51.3723 14.4068 52.1483 25.9875 59.6328 25.0822C66.5927 24.2397 65.5469 12.356 58.0273 13.4442Z" fill="#3D007C"/>
<path d="M112.987 17.1483L100.933 22.1719C102.777 25.8966 107.898 26.0851 110.084 22.6763L113 24.5922C106.6 32.0989 95.4587 27.528 96.8074 17.37C98.0139 8.27808 111.727 7.79032 112.985 17.1483H112.987ZM108.863 15.7811C106.783 10.8093 100.218 14.1442 100.244 18.6947L100.937 19.0901L108.863 15.7793V15.7811Z" fill="#3D007C"/>
<path d="M94.3609 0.919434H90.5623V27.8904H94.3609V0.919434Z" fill="#3D007C"/>
</svg>
