<svg width="68" height="61" viewBox="0 0 68 61" fill="none" xmlns="http://www.w3.org/2000/svg">
<path d="M41.4524 27.3106H25.0468C25.0078 27.3106 24.8503 27.5738 24.7817 27.4885C23.8958 20.9574 25.0857 13.8517 27.7637 7.85254C29.0407 4.99286 30.7383 2.14059 33.0513 0C34.7526 1.21022 36.0296 3.21181 37.047 5.01324C40.7778 11.6111 42.4717 19.775 41.4505 27.3106H41.4524Z" fill="#3D007C"/>
<path d="M23.1932 27.4863L3.89078 27.2806C1.64455 22.7881 0.117407 17.8398 0.313859 12.7635C0.641898 12.5949 2.97153 13.0841 3.50899 13.2028C10.5387 14.7633 18.406 20.0545 22.4518 26.0111C22.626 26.2687 23.3729 27.2232 23.1913 27.4863H23.1932Z" fill="#3D007C"/>
<path d="M65.9262 12.7603C66.3228 17.9459 64.4973 22.872 62.3715 27.4849L43.0469 27.3089C48.0416 19.612 56.6929 13.7407 65.928 12.7621L65.9262 12.7603Z" fill="#3D007C"/>
<path d="M60.9562 29.7939C61.1619 29.9904 59.5514 32.5851 58.9249 32.4646L6.8984 32.4164L5.26562 29.7939H60.958H60.9562Z" fill="#3D007C"/>
<path d="M57.0544 34.9389C57.3546 35.3132 55.0157 37.2147 54.7006 37.2833L11.9129 37.426C10.7972 37.2944 10.0133 35.8748 9.17188 35.2039L57.0544 34.937V34.9389Z" fill="#3D007C"/>
<path d="M10.3409 45.5105C10.1797 45.7514 9.2771 46.7522 8.99724 46.4705C9.4161 44.6746 9.58475 43.2679 8.28186 41.7741C5.46295 38.5401 0.0456867 44.3929 2.43092 47.095C2.86645 47.5899 4.30092 48.2608 4.91066 47.9846C5.05152 47.9198 6.0764 46.856 6.12274 46.7021C6.31178 46.0794 5.92073 45.605 6.06899 45.0545L9.34937 48.1589C9.01207 48.3738 8.67477 47.9958 8.24479 48.1014C7.55165 48.2682 6.87889 49.4673 6.29139 49.7101C4.74201 50.3476 2.26226 48.9057 1.29112 47.7103C-2.36734 43.2049 2.38273 37.0834 7.6332 39.5872C9.56807 40.5102 11.7105 43.4625 10.3391 45.5142L10.3409 45.5105Z" fill="#3D007C"/>
<path d="M28.3344 39.9077C28.5142 40.0986 28.5957 44.6003 28.5123 45.1471C28.4716 45.4214 28.6198 45.4176 28.2436 45.4139C25.434 45.3824 20.7636 43.4346 18.282 42.0668L15.0312 39.9077H28.3326H28.3344Z" fill="#3D007C"/>
<path d="M51.0281 39.9077C47.314 42.9731 42.3841 44.9821 37.5488 45.4065C37.4617 45.3435 37.7267 45.1804 37.7267 45.1415V41.2384C37.7267 41.0327 37.9732 40.0634 38.1697 39.9077H51.0281Z" fill="#3D007C"/>
<path d="M19.6342 47.3559C18.8911 47.2558 18.526 47.4875 18.1794 48.1195C17.8328 48.7514 16.2204 53.268 16.1648 53.913C15.9795 56.0795 19.2117 57.2841 20.6795 55.9442C21.2893 55.3863 22.9888 50.9829 23.137 50.0655C23.1871 49.7559 23.2519 49.3575 23.1556 49.0628C23.0462 48.7292 22.4976 48.9368 22.6477 48.4234L25.5445 49.3056L25.6613 49.8412C25.0756 49.4409 24.5845 49.9783 24.2694 50.488C22.6848 53.0586 23.1519 58.2164 18.6575 57.8216C15.961 57.5844 13.8204 55.7904 14.1317 52.9437C14.3263 51.1719 15.9776 48.8108 16.1834 47.1854C16.2167 46.9167 16.1889 46.6442 16.0536 46.4088C15.8553 46.0678 15.4346 46.2495 15.5532 45.7602C15.7256 45.623 19.334 46.9092 19.6324 47.354L19.6342 47.3559Z" fill="#3D007C"/>
<path d="M53.2878 45.8142C53.3934 45.892 54.1885 47.2135 54.2608 47.4173C54.5795 48.3125 53.2804 47.3617 52.8467 47.2301C51.453 46.8057 49.7553 47.017 48.7305 48.1587C46.5213 50.6199 50.7005 56.6228 54.0532 54.0152C54.7964 53.4369 55.3728 52.4788 55.4673 51.528C55.5655 50.5476 54.8446 49.2132 55.8954 49.1224C57.1705 50.8645 57.1798 52.2934 55.8176 54.0059C50.9137 60.1719 42.4254 52.6789 47.6648 47.2709C48.7267 46.1738 51.9682 44.8394 53.2859 45.8142H53.2878Z" fill="#3D007C"/>
<path d="M39.3183 53.7445C38.9885 53.8223 38.9736 53.6351 38.8161 53.4498C38.3657 52.9235 38.1841 52.3601 37.5336 51.893C34.1012 49.43 31.4195 52.7103 32.3054 56.2372C33.1431 59.5676 36.6644 60.018 38.4751 57.2491C38.9403 56.5375 38.8939 55.4533 39.8503 55.696C40.5601 60.6352 33.51 61.636 30.8931 58.3593C27.0456 53.5443 32.8873 47.7379 37.958 50.4048C39.6149 51.2759 39.3628 52.0209 39.3183 53.7426V53.7445Z" fill="#3D007C"/>
<path d="M37.1974 39.9077C36.9528 40.8158 33.6094 45.9199 33.033 45.7624C31.4855 43.9887 29.9972 42.0909 29.0391 39.9077H37.1974Z" fill="#3D007C"/>
<path d="M60.2497 38.1337C60.0662 38.8083 59.9495 39.0974 60.348 39.722C61.4655 41.4752 64.4494 43.2729 65.6336 45.167C66.1637 45.6174 66.6993 45.7508 67.3424 45.4061C67.6426 45.7972 64.8997 47.9118 64.5921 48.4215C64.0713 48.4659 64.5921 47.7987 64.4716 47.3169C64.4216 47.113 64.1176 46.7572 63.9675 46.5644C63.152 45.508 60.0403 42.2184 59.0117 41.4103C58.7837 41.2324 58.2537 40.8432 57.9998 40.8228C57.9312 40.8173 56.5042 41.5901 57.3567 40.6097C57.7978 40.1037 59.1878 38.8046 59.716 38.3968C59.8939 38.2597 59.9421 38.0521 60.2479 38.1337H60.2497Z" fill="#3D007C"/>
</svg>
