<svg width="135" height="23" viewBox="0 0 135 23" fill="none" xmlns="http://www.w3.org/2000/svg">
<path d="M11.8004 3.4346C14.3638 -2.44264 24.7047 -0.373679 23.1399 6.57778C22.4341 9.71515 19.8358 11.9082 17.8366 14.2273L1.79688 1.61965C3.02429 0.0257629 5.84171 -0.253459 7.70125 0.204155C9.6403 0.681159 10.5788 2.02491 11.8004 3.4346ZM3.86777 1.53821L17.5845 12.5345C19.384 10.8747 22.4283 7.3534 22.1103 4.77447C21.7419 1.77672 17.6311 0.49695 15.1355 1.67783C13.5203 2.44375 12.8339 4.28777 11.5464 5.33098C9.80318 2.53488 7.42591 0.225484 3.86777 1.53821Z" fill="#3D007C"/>
<path d="M30.9473 5.67773V9.99016H34.742V5.67773H37.158V16.5441H34.742V12.2317H30.9473V16.5441H28.5312V5.67773H30.9473Z" fill="#3D007C"/>
<path d="M1.73757 4.14258L17.8394 16.8026L11.7508 22.0419C8.87518 19.7073 5.70291 17.2776 3.26359 14.4777C0.830095 11.6835 -1.83803 7.16167 1.73757 4.14258ZM1.90432 5.86251C-0.236378 9.42453 4.13616 13.4131 6.368 15.8602L11.8671 20.5003L15.8712 17.0682L15.784 16.6261L1.90432 5.86251Z" fill="#3D007C"/>
<path d="M45.7904 5.67773V7.74863H41.3907C40.873 8.29738 41.2317 9.27659 41.1329 9.9921H45.7904V12.063H41.1329V14.4771H45.7904V16.548H38.9766L38.7188 16.2901V5.93563L38.9766 5.67773H45.7904Z" fill="#3D007C"/>
<path d="M46.8125 16.5445L50.6324 5.70139L53.1163 5.66455L57.1631 16.5445H54.5764L53.9055 14.0606L50.0875 14.0412L49.2285 16.5445H46.8144H46.8125ZM53.0232 11.7144C53.1435 11.6019 52.2884 8.88918 52.1507 8.53433C52.0809 8.354 52.0867 8.11744 51.8191 8.09223L50.7817 11.7124H53.0232V11.7144Z" fill="#3D007C"/>
<path d="M65.4488 5.67836L61.5746 16.5583L58.9782 16.376L55.4453 5.67836C56.0794 5.78306 57.4716 5.40883 57.8458 5.94982L60.3608 14.1326L63.0347 5.67836H65.4488Z" fill="#3D007C"/>
<path d="M75.2742 5.67773L71.906 12.0533L71.749 16.3832L69.5714 16.4685L69.3291 12.2259L65.9609 5.67773L68.377 5.76111L70.4459 9.98822L72.6875 5.67773H75.2742Z" fill="#3D007C"/>
<path d="M103.628 11.2044C103.628 14.2273 101.177 16.6783 98.1536 16.6783C95.1306 16.6783 92.6797 14.2273 92.6797 11.2044C92.6797 8.18142 95.1306 5.73047 98.1536 5.73047C101.177 5.73047 103.628 8.18142 103.628 11.2044ZM102.381 11.1966C102.381 8.8562 100.482 6.95788 98.142 6.95788C95.8015 6.95788 93.9032 8.8562 93.9032 11.1966C93.9032 13.537 95.8015 15.4354 98.142 15.4354C100.482 15.4354 102.381 13.537 102.381 11.1966Z" fill="#3D007C"/>
<path d="M128.239 7.05667V10.4209L128.497 10.6788H134.103V11.7142H128.237V15.3364H134.793V16.5444H127.031V6.10848L127.289 5.85059H134.533C134.886 5.85059 134.886 7.05861 134.533 7.05861H128.237L128.239 7.05667Z" fill="#3D007C"/>
<path d="M83.044 5.84863V10.5062H89.0802V5.84863H90.2882V16.5444H89.0802V11.7142H83.044V16.5444H81.8359V5.84863H83.044Z" fill="#3D007C"/>
<path d="M120.444 5.71487C121.465 5.66058 123.166 6.11237 123.988 6.73481C124.589 7.19048 124.081 7.70239 123.527 7.89629C122.367 6.81625 119.086 6.20545 118.483 8.08244C117.504 11.1287 123.986 10.0641 124.58 12.6993C125.334 16.0383 122.111 17.1397 119.429 16.4688C118.491 16.2342 115.594 14.966 117.597 14.1516C118.745 15.4159 122.685 16.3815 123.331 14.3106C124.36 11.0026 118.012 12.4511 117.279 9.64918C116.69 7.3902 118.252 5.83121 120.444 5.71487Z" fill="#3D007C"/>
<path d="M107.019 5.84863V12.4898C107.019 12.5538 107.298 13.566 107.354 13.7076C108.263 15.9898 111.926 16.1779 113.028 14.0139C113.107 13.8588 113.402 13.0948 113.402 13.0076V5.84863H114.61V13.3527C114.61 13.4264 114.154 14.5452 114.065 14.7062C112.549 17.4111 107.643 17.3568 106.299 14.4192C106.181 14.1594 105.812 13.0347 105.812 12.8369V5.84863H107.021H107.019Z" fill="#3D007C"/>
</svg>
