<svg width="84" height="44" viewBox="0 0 84 44" fill="none" xmlns="http://www.w3.org/2000/svg">
<path d="M81.323 28.3213C80.2495 28.3174 79.3828 29.184 79.3828 30.2576C79.3828 31.3311 80.2534 32.1939 81.323 32.1939C82.3926 32.1939 83.2593 31.3272 83.2593 30.2576C83.2593 29.1879 82.3926 28.3213 81.323 28.3213ZM81.323 31.8035C80.4681 31.8035 79.7732 31.1086 79.7732 30.2576C79.7732 29.4066 80.4681 28.7117 81.323 28.7117C82.1779 28.7117 82.865 29.4027 82.865 30.2576C82.865 31.1125 82.174 31.8035 81.323 31.8035Z" fill="#3D007C"/>
<path d="M81.8468 30.2532C82.003 30.1947 82.1591 29.9995 82.1591 29.7223C82.1591 29.2773 81.757 29.1406 81.5228 29.1406H80.5234V31.2253H80.9997V30.4133H81.1793C81.4213 30.4133 81.5619 30.4796 81.6282 30.7021C81.679 30.8583 81.7024 31.0066 81.8 31.2292H82.3192C82.2645 31.1081 82.1591 30.9481 82.1279 30.7217C82.0928 30.4952 82.0147 30.3664 81.8468 30.2532ZM81.3862 29.9995H81.0036V29.5193H81.3393C81.4877 29.5193 81.6594 29.5818 81.6594 29.7457C81.6634 29.8941 81.5501 29.9995 81.3862 29.9995Z" fill="#3D007C"/>
<path d="M21.3383 39.8158C20.7879 40.3662 20.0774 40.9128 19.3747 41.1353C18.7111 41.35 16.8255 41.514 16.2712 39.9563C16.1502 39.6206 16.2478 39.5152 16.5562 39.4254C17.0129 39.2927 18.184 38.9453 19.4255 38.4807C20.5498 38.063 21.553 37.5477 21.8653 37.3369C22.4275 36.966 22.5134 36.4468 22.2635 35.8886C21.475 34.1163 19.6909 32.2619 16.724 32.8241C14.3661 33.273 12.6797 35.3967 12.6797 37.821C12.6797 40.8269 14.4911 42.5836 16.7982 43.1262C18.9297 43.6337 21.4359 42.5992 22.5056 40.8659C22.9272 40.2023 21.7287 39.4098 21.3383 39.8158ZM16.0018 37.454C15.7715 36.8177 15.955 34.8658 17.0324 34.4988C18.1645 34.1124 18.8555 34.694 19.1951 35.8339C19.3201 36.2555 19.2927 36.7006 19.1561 36.8684C18.957 37.1105 18.5979 37.2588 18.2777 37.3642L17.4306 37.6453C16.5952 37.9264 16.197 37.9849 16.0018 37.454Z" fill="#3D007C"/>
<path d="M48.9477 39.8158C48.3973 40.3662 47.6868 40.9128 46.9841 41.1353C46.3204 41.35 44.4349 41.514 43.8806 39.9563C43.7595 39.6206 43.8571 39.5152 44.1616 39.4254C44.6184 39.2927 45.7895 38.9453 47.027 38.4807C48.1513 38.063 49.1546 37.5477 49.4669 37.3369C50.029 36.966 50.1149 36.4468 49.8651 35.8886C49.0765 34.1163 47.2925 32.2619 44.3256 32.8241C41.9677 33.273 40.2812 35.3967 40.2812 37.821C40.2812 40.8269 42.0926 42.5836 44.3959 43.1262C46.5273 43.6337 49.0336 42.5992 50.1032 40.8659C50.5326 40.2023 49.3342 39.4098 48.9477 39.8158ZM43.6073 37.454C43.4668 37.0714 43.4785 36.2243 43.74 35.5216C43.9157 35.0493 44.1772 34.6823 44.634 34.4988C45.1493 34.2919 45.5943 34.3505 45.9379 34.5457C46.3321 34.7721 46.6171 35.2249 46.7967 35.83C46.9216 36.2516 46.8943 36.6967 46.7577 36.8645C46.5586 37.1066 46.2424 37.2315 45.8793 37.3603C45.5123 37.4891 45.1883 37.5945 45.0322 37.6453C44.1929 37.9108 43.8025 37.9849 43.6073 37.454Z" fill="#3D007C"/>
<path d="M69.9985 39.8158C69.4519 40.3662 68.7375 40.9128 68.0349 41.1353C67.3712 41.35 65.4857 41.514 64.9313 39.9563C64.8103 39.6206 64.9079 39.5152 65.2124 39.4254C65.6692 39.2927 66.8403 38.9453 68.0817 38.4807C69.206 38.063 70.2093 37.5477 70.5216 37.3369C71.0837 36.966 71.1696 36.4468 70.9198 35.8886C70.1312 34.1163 68.3472 32.2619 65.3803 32.8241C63.0224 33.273 61.3359 35.3967 61.3359 37.821C61.3359 40.8269 63.1473 42.5836 65.4544 43.1262C67.5859 43.6337 70.0922 42.5992 71.1618 40.8659C71.5834 40.2023 70.3889 39.4098 69.9985 39.8158ZM64.662 37.454C64.5253 37.0714 64.5332 36.2243 64.7947 35.5216C64.9704 35.0493 65.2319 34.6823 65.6887 34.4988C66.204 34.2919 66.649 34.3505 66.9925 34.5457C67.3868 34.7721 67.6718 35.2249 67.8514 35.83C67.9763 36.2516 67.949 36.6967 67.8123 36.8645C67.6133 37.1066 67.3009 37.2315 66.934 37.3603C66.567 37.4891 66.243 37.5945 66.0869 37.6453C65.2475 37.9108 64.8572 37.9849 64.662 37.454Z" fill="#3D007C"/>
<path d="M7.91691 40.3857C7.91691 40.7878 7.79199 41.229 7.47969 41.3695L6.80823 41.674C6.68721 41.7286 6.65208 41.8184 6.65208 41.9512C6.65208 41.9863 6.65598 42.0058 6.65989 42.0527L6.73796 42.8139C6.7731 43.0208 6.91363 43.0559 7.1908 43.0559H12.0628C12.336 43.0559 12.4805 43.0208 12.5156 42.8139L12.5937 42.0527C12.6015 42.0058 12.6015 41.9863 12.6015 41.9512C12.6015 41.8184 12.5663 41.7286 12.4453 41.674L11.7739 41.3695C11.4655 41.2329 11.3366 40.7878 11.3366 40.3857V31.9535C11.3366 31.5514 11.4616 31.1103 11.7739 30.9698L12.4453 30.6653C12.5663 30.6106 12.6015 30.5208 12.6015 30.3881C12.6015 30.3569 12.5976 30.3334 12.5937 30.2866L12.5156 29.7127C12.4805 29.5058 12.3399 29.4707 12.0628 29.4707H7.42113C7.14786 29.4707 7.00342 29.5058 6.96829 29.7127L6.89021 30.2866C6.8824 30.3295 6.8824 30.353 6.8824 30.3881C6.8824 30.5208 6.91754 30.6106 7.03856 30.6653L7.58509 30.9698C7.89739 31.1493 7.91691 31.5514 7.91691 31.9535V34.3075C7.91691 34.4715 7.78418 34.6042 7.62022 34.6042H4.98125C4.81729 34.6042 4.68456 34.4715 4.68456 34.3075V31.9535C4.68456 31.5514 4.70408 31.1493 5.01639 30.9698L5.56682 30.6653C5.68784 30.6106 5.72298 30.5208 5.72298 30.3881C5.72298 30.3569 5.71907 30.3334 5.71517 30.2866L5.63709 29.7127C5.60196 29.5058 5.46142 29.4707 5.18425 29.4707H0.542629C0.265459 29.4707 0.124922 29.5058 0.0897875 29.7127L0.0117114 30.2866C0.0039038 30.3295 0.0039038 30.353 0.0039038 30.3881C0.0039038 30.5208 0.039038 30.6106 0.160056 30.6653L0.83151 30.9698C1.13991 31.1064 1.26874 31.5514 1.26874 31.9535V40.3857C1.26874 40.7878 1.14381 41.229 0.83151 41.3695L0.156152 41.674C0.0351342 41.7286 0 41.8184 0 41.9512C0 41.9863 0.0039038 42.0058 0.00780761 42.0527L0.0858837 42.8139C0.121018 43.0208 0.261555 43.0559 0.538725 43.0559H5.40677C5.68003 43.0559 5.82447 43.0208 5.85961 42.8139L5.93768 42.0527C5.94549 42.0058 5.94549 41.9863 5.94549 41.9512C5.94549 41.8184 5.91036 41.7286 5.78934 41.674L5.11789 41.3695C4.80558 41.2329 4.68066 40.7878 4.68066 40.3857V36.9582C4.68066 36.7942 4.81339 36.6615 4.97735 36.6615H7.61632C7.78028 36.6615 7.91301 36.7942 7.91301 36.9582L7.91691 40.3857Z" fill="#3D007C"/>
<path d="M27.0994 30.8944C27.0994 31.8314 26.3147 32.5887 25.3426 32.5887C24.3706 32.5887 23.5859 31.8275 23.5859 30.8944C23.5859 29.9614 24.3706 29.2002 25.3426 29.2002C26.3108 29.2002 27.0994 29.9575 27.0994 30.8944Z" fill="#3D007C"/>
<path d="M23.4225 43.0553C23.1571 43.0553 23.0243 43.0241 22.9892 42.825L22.9111 42.0638C22.9033 42.0208 22.9072 42.0013 22.9072 41.9662C22.9072 41.8373 22.9424 41.7593 23.0517 41.7007L23.5748 41.4079C23.8637 41.2674 23.9925 40.8536 23.9925 40.4632V35.6498C23.9925 35.2477 23.9222 34.7324 23.5709 34.5567L23.2351 34.3655C23.1141 34.3108 23.079 34.221 23.079 34.0883C23.079 34.0571 23.0829 34.0336 23.0868 33.9868L23.1649 33.4129C23.2 33.206 23.3405 33.1709 23.6177 33.1709H26.9086C27.0726 33.1709 27.2053 33.3036 27.2053 33.4676V40.4632C27.2053 40.8497 27.3341 41.2674 27.623 41.4079L28.1461 41.7007C28.2554 41.7593 28.2906 41.8373 28.2906 41.9662C28.2906 41.9974 28.2906 42.0169 28.2867 42.0638L28.2125 42.825C28.1774 43.0241 28.0407 43.0553 27.7792 43.0553H23.4225Z" fill="#3D007C"/>
<path d="M33.3772 33.6861C33.3772 33.6861 33.5607 33.5963 33.8964 33.4323C34.5561 33.1239 35.8444 32.5696 36.9101 32.9092C37.8353 33.202 38.6317 33.8735 38.6317 35.6341V40.9628C38.6317 41.1892 38.6434 41.2829 38.7488 41.3414C38.8893 41.4195 39.1353 41.1892 39.3734 41.0643C39.6115 40.9433 39.7443 41.0838 39.8887 41.2477C40.0175 41.3883 40.1698 41.5874 40.0449 41.8489C39.6506 42.6726 38.7683 43.1489 37.7377 43.1489C36.7618 43.1489 35.5204 42.5907 35.5204 41.1306V35.9971C35.5204 35.2125 34.9504 34.9392 34.5093 34.9978C33.8417 35.0797 33.3577 35.638 33.3577 36.6335V40.467C33.3577 40.8535 33.4865 41.2712 33.7754 41.4117L34.2985 41.7045C34.4078 41.7631 34.4429 41.8411 34.4429 41.9699C34.4429 42.0012 34.4429 42.0207 34.439 42.0675L34.3609 42.8288C34.3297 43.0279 34.1892 43.0591 33.9276 43.0591H29.5671C29.3016 43.0591 29.1689 43.0279 29.1337 42.8288L29.0596 42.0675C29.0518 42.0246 29.0557 42.0051 29.0557 41.9699C29.0557 41.8411 29.0908 41.7631 29.2001 41.7045L29.7232 41.4117C30.0121 41.2712 30.1409 40.8574 30.1409 40.467V35.6497C30.1409 35.2476 30.0707 34.7323 29.7193 34.5566L29.3836 34.3653C29.2626 34.3107 29.2274 34.2209 29.2274 34.0882C29.2274 34.0569 29.2313 34.0335 29.2352 33.9867L29.3133 33.4128C29.3484 33.2059 29.489 33.1708 29.7662 33.1708H32.8658C33.1117 33.1708 33.2054 33.3074 33.2757 33.4675L33.3772 33.6861Z" fill="#3D007C"/>
<path d="M75.9201 33.6861C75.9201 33.6861 76.1036 33.5963 76.4394 33.4323C77.0991 33.1239 78.3873 32.5696 79.4531 32.9092C80.3783 33.202 81.1747 33.8735 81.1747 35.6341V40.9628C81.1747 41.1892 81.1825 41.2829 81.2918 41.3414C81.4323 41.4195 81.6822 41.1892 81.9164 41.0643C82.1545 40.9433 82.2872 41.0838 82.4317 41.2477C82.5605 41.3883 82.7128 41.5874 82.5878 41.8489C82.1936 42.6726 81.3113 43.1489 80.2807 43.1489C79.3047 43.1489 78.0633 42.5907 78.0633 41.1306V35.9971C78.0633 35.2125 77.4934 34.9392 77.0522 34.9978C76.3847 35.0797 75.9006 35.638 75.9006 36.6335V40.467C75.9006 40.8535 76.0295 41.2712 76.3183 41.4117L76.8414 41.7045C76.9508 41.7631 76.9859 41.8411 76.9859 41.9699C76.9859 42.0012 76.9859 42.0207 76.982 42.0675L76.9039 42.8288C76.8688 43.0279 76.736 43.0591 76.4706 43.0591H72.1139C71.8485 43.0591 71.7157 43.0279 71.6806 42.8288L71.6064 42.0675C71.5986 42.0246 71.6025 42.0051 71.6025 41.9699C71.6025 41.8411 71.6377 41.7631 71.747 41.7045L72.2701 41.4117C72.559 41.2712 72.6878 40.8574 72.6878 40.467V35.6497C72.6878 35.2476 72.6175 34.7323 72.2662 34.5566L71.9305 34.3653C71.8094 34.3107 71.7743 34.2209 71.7743 34.0882C71.7743 34.0569 71.7782 34.0335 71.7821 33.9867L71.8602 33.4128C71.8953 33.2059 72.0359 33.1708 72.313 33.1708H75.4126C75.6547 33.1708 75.7523 33.3074 75.8225 33.4675L75.9201 33.6861Z" fill="#3D007C"/>
<path d="M60.1238 40.5956C60.3542 40.9664 60.6392 41.267 60.928 41.4076L61.4511 41.7003C61.5604 41.7589 61.5956 41.837 61.5956 41.9658C61.5956 41.997 61.5956 42.0166 61.5917 42.0634L61.5175 42.8246C61.4824 43.0237 61.3457 43.055 61.0842 43.055H58.453C58.0041 43.055 57.9689 42.9261 57.766 42.5592L55.5603 38.5422L54.7327 39.3346V40.4667C54.7327 40.8532 54.9162 41.2592 55.2168 41.4076L55.7399 41.7003C55.8492 41.7589 55.8843 41.837 55.8843 41.9658C55.8843 42.0009 55.8843 42.0205 55.8804 42.0634L55.8023 42.8246C55.7672 43.0237 55.6306 43.055 55.369 43.055H51.0124C50.7469 43.055 50.6142 43.0237 50.5791 42.8246L50.5049 42.0634C50.4971 42.0205 50.501 42.0009 50.501 41.9658C50.501 41.837 50.5361 41.7589 50.6454 41.7003L51.1685 41.4076C51.4574 41.267 51.5862 40.8532 51.5862 40.4667V31.8432C51.5862 31.4568 51.4652 31.0547 51.1685 30.9024L50.6454 30.6096C50.5361 30.5511 50.501 30.473 50.501 30.3442C50.501 30.313 50.501 30.2895 50.5049 30.2505L50.5791 29.7079C50.6142 29.5088 50.7508 29.4775 51.0124 29.4775H54.1706C54.4829 29.4775 54.7327 29.7313 54.7327 30.0397V36.5825L56.1381 35.3137C56.3372 35.142 56.6651 34.8531 56.7939 34.7282C56.9227 34.5993 56.9462 34.4119 56.7666 34.3339L56.2708 34.1114C56.1615 34.0606 56.1303 33.9825 56.1303 33.8576C56.1303 33.8264 56.1342 33.8069 56.1381 33.7678L56.2122 33.0729C56.2435 32.8856 56.3723 32.8543 56.6221 32.8543H60.4049C60.6548 32.8543 60.7836 32.8856 60.8148 33.0729L60.889 33.7678C60.8929 33.8069 60.8968 33.8303 60.8968 33.8576C60.9046 34.006 60.725 34.0801 60.6157 34.1309C60.6157 34.1309 60.3464 34.209 60.1043 34.3495C59.8623 34.49 59.6007 34.6969 59.2689 34.9897L57.8089 36.3873L60.1238 40.5956Z" fill="#3D007C"/>
<path d="M56.8013 22.1131L56.8052 22.0468H56.3757C56.3601 22.4332 56.5943 22.6909 56.9886 22.6909C57.4141 22.6909 57.6757 22.4293 57.6757 22.0038C57.6757 21.7579 57.5781 21.5197 57.3205 21.4573V21.4495C57.5469 21.3597 57.6054 21.1255 57.6054 20.9068C57.6054 20.536 57.3907 20.3018 57.016 20.3018C56.5943 20.3018 56.4577 20.6102 56.4733 20.9849H56.8754V20.9381C56.8754 20.8366 56.8949 20.696 57.0316 20.696C57.1682 20.696 57.1877 20.8288 57.1877 20.9303C57.1877 21.1879 57.0823 21.2387 56.8325 21.2387V21.6408C57.094 21.633 57.1799 21.7032 57.1799 21.9648C57.1799 22.1014 57.1682 22.2927 56.9808 22.2927C56.852 22.2927 56.8013 22.1912 56.8013 22.1131Z" fill="#3D007C"/>
<path d="M56.0695 20.3359H54.8163V20.7341H55.441L54.7188 22.6548H55.1989L56.0695 20.3359Z" fill="#3D007C"/>
<path d="M53.8432 21.4104V21.4026C54.0579 21.3324 54.1594 21.1333 54.1594 20.9107C54.1594 20.5711 53.9291 20.3018 53.5816 20.3018C53.2342 20.3018 52.9999 20.5711 52.9999 20.9107C52.9999 21.1333 53.1093 21.3285 53.3162 21.3987V21.4065C53.0312 21.5041 52.9141 21.7188 52.9141 22.0194C52.9141 22.402 53.1951 22.6948 53.5816 22.6948C53.9681 22.6948 54.2453 22.402 54.2453 22.0194C54.2453 21.7305 54.136 21.5002 53.8432 21.4104ZM53.5738 20.6648C53.6987 20.6648 53.7143 20.8249 53.7143 20.9107C53.7143 20.9966 53.7143 21.1723 53.5738 21.1723C53.4606 21.1723 53.445 20.9927 53.445 20.9068C53.445 20.821 53.4645 20.6609 53.5738 20.6648ZM53.5816 22.2927C53.4216 22.2927 53.3903 22.0819 53.3903 21.9648C53.3903 21.8477 53.4216 21.6291 53.5816 21.6291C53.7417 21.6291 53.7846 21.8477 53.7846 21.9648C53.7846 22.0819 53.7339 22.2927 53.5816 22.2927Z" fill="#3D007C"/>
<path d="M52.2925 20.3359H51.625V20.7341H51.8475V22.6548H52.2886V20.3359H52.2925Z" fill="#3D007C"/>
<path d="M26.3431 20.3359H25.3281V22.6548H26.347V22.2254H25.8278V21.7023H26.2767V21.2729H25.8278V20.7693H26.3431V20.3359Z" fill="#3D007C"/>
<path d="M30.8318 22.1113C30.6679 22.1113 30.5391 22.2402 30.5391 22.4002C30.5391 22.5603 30.6679 22.693 30.8318 22.693C30.9958 22.693 31.1168 22.5603 31.1168 22.4002C31.1168 22.2402 30.9919 22.1113 30.8318 22.1113Z" fill="#3D007C"/>
<path d="M30.1945 20.3359H28.8984V20.7654H29.2927V22.6548H29.7963V20.7654H30.1906V20.3359H30.1945Z" fill="#3D007C"/>
<path d="M28.1985 20.8615V20.4125C28.058 20.3423 27.9135 20.3032 27.7496 20.3032C27.3163 20.3032 27.0859 20.6155 27.0859 20.9825C27.0859 21.3182 27.2616 21.49 27.5544 21.6696C27.6949 21.7671 27.8511 21.8335 27.8511 22.0053C27.8511 22.1614 27.7262 22.259 27.5583 22.259C27.4139 22.259 27.2928 22.2122 27.1796 22.1341V22.5752C27.2967 22.6494 27.4685 22.6924 27.613 22.6924C28.0853 22.6924 28.3469 22.38 28.3469 21.9701C28.3469 21.3416 27.5817 21.3182 27.5817 20.9395C27.5817 20.799 27.6832 20.7131 27.8355 20.7131C27.9721 20.7092 28.0931 20.7795 28.1985 20.8615Z" fill="#3D007C"/>
<path d="M49.9023 24.4593C49.9608 24.674 49.8554 24.8809 49.7539 24.9707C49.668 25.0449 49.5861 25.0995 49.5861 25.0995C49.5861 25.0995 49.5041 25.162 49.4104 25.2166C49.2933 25.2869 49.0629 25.3221 48.8756 25.201C48.8756 25.201 48.5789 25.0176 48.0987 24.6935C46.5762 23.6668 43.176 21.3597 41.3178 20.0402C39.4596 21.3597 36.0633 23.6668 34.5369 24.6935C34.0567 25.0176 33.76 25.201 33.76 25.201C33.5727 25.3221 33.3423 25.2869 33.2252 25.2166C33.1276 25.1581 33.0495 25.0995 33.0495 25.0995C33.0495 25.0995 32.9676 25.041 32.8817 24.9707C32.7802 24.8809 32.6748 24.674 32.7333 24.4593C32.7333 24.4593 32.749 24.3969 32.7763 24.2875C32.8075 24.3461 32.8426 24.3929 32.8817 24.4281C32.9676 24.5023 33.0495 24.5569 33.0495 24.5569C33.0495 24.5569 33.1315 24.6194 33.2252 24.674C33.3423 24.7443 33.5727 24.7794 33.76 24.6584C33.76 24.6584 34.0567 24.4749 34.5369 24.1509C36.0594 23.1242 39.4596 20.8171 41.3178 19.4976C43.176 20.8171 46.5723 23.1242 48.0987 24.1509C48.5789 24.4749 48.8756 24.6584 48.8756 24.6584C49.0629 24.7794 49.2933 24.7443 49.4104 24.674C49.508 24.6155 49.5861 24.5569 49.5861 24.5569C49.5861 24.5569 49.668 24.4983 49.7539 24.4281C49.7891 24.3968 49.8281 24.3461 49.8593 24.2875C49.8866 24.4008 49.9023 24.4593 49.9023 24.4593ZM35.3177 15.137C33.4868 13.7824 30.2427 11.2606 28.7944 10.1324C28.3377 9.77711 28.0722 9.55069 28.0722 9.55069C28.0175 9.50774 27.9785 9.45309 27.9473 9.39844C27.9395 9.42186 27.9121 9.50384 27.8926 9.59363C27.8614 9.72636 27.9004 9.95668 28.0722 10.0972C28.0722 10.0972 28.3377 10.3197 28.7944 10.6789C30.2076 11.7798 33.3267 14.204 35.181 15.5821C35.2279 15.4259 35.2708 15.2815 35.3177 15.137ZM54.6961 9.39844C54.6649 9.45699 54.6259 9.50774 54.5712 9.55069C54.5712 9.55069 54.3057 9.7732 53.849 10.1324C52.4007 11.2606 49.1566 13.7824 47.3257 15.137C47.3726 15.2776 47.4155 15.4259 47.4624 15.5782C49.3128 14.2001 52.4358 11.7759 53.849 10.675C54.3057 10.3197 54.5712 10.0933 54.5712 10.0933C54.7469 9.95668 54.782 9.72245 54.7508 9.58972C54.7313 9.50384 54.7039 9.42186 54.6961 9.39844Z" fill="#3D007C"/>
<path d="M36.4458 14.7759L33.5141 23.7781C33.5102 23.7937 33.5141 23.8093 33.5258 23.821C33.5258 23.821 33.5453 23.8405 33.5687 23.8561C33.5921 23.8718 33.6156 23.8874 33.6156 23.8874C33.6273 23.8991 33.6468 23.8952 33.6585 23.8874L41.3178 18.3205L48.977 23.8874C48.9887 23.8952 49.0083 23.8991 49.02 23.8874C49.02 23.8874 49.0473 23.8718 49.0668 23.8561C49.0902 23.8405 49.1137 23.821 49.1137 23.821C49.1293 23.8132 49.1332 23.7937 49.1293 23.7781L46.1975 14.772L53.8607 9.20907C53.8724 9.20126 53.8802 9.18174 53.8763 9.16613C53.8763 9.16613 53.8685 9.1388 53.8607 9.11147C53.8529 9.08415 53.8412 9.05682 53.8412 9.05682C53.8373 9.04121 53.8216 9.0295 53.806 9.0295L44.3354 9.0334L41.4193 0.0312304C41.4154 0.0156152 41.3997 0.0039038 41.3841 0.0039038C41.3841 0.0039038 41.3568 0 41.3256 0C41.2943 0 41.267 0.0039038 41.267 0.0039038C41.2514 0.0039038 41.2358 0.0156152 41.2319 0.0312304L38.3079 9.0373L28.8373 9.0334C28.8217 9.0334 28.8061 9.04511 28.8022 9.06073C28.8022 9.06073 28.7905 9.08805 28.7826 9.11538L28.767 9.17003C28.7631 9.18565 28.767 9.20126 28.7826 9.21297L36.4458 14.7759Z" fill="#3D007C"/>
</svg>
