<svg width="85" height="67" viewBox="0 0 85 67" fill="none" xmlns="http://www.w3.org/2000/svg">
<path d="M13.8465 28.4645C14.6006 28.8781 15.5475 28.6017 15.9605 27.8476C16.3741 27.0935 16.0977 26.1466 15.3436 25.7336C14.5895 25.32 13.6426 25.5964 13.2297 26.3505C12.816 27.1053 13.0924 28.0515 13.8465 28.4645Z" fill="#3D007C"/>
<path d="M16.7498 23.1677C17.5039 23.5814 18.4508 23.305 18.8638 22.5502C19.2775 21.7961 19.001 20.8492 18.2469 20.4362C17.4928 20.0226 16.546 20.299 16.133 21.0538C15.7193 21.8079 15.9957 22.7547 16.7498 23.1677Z" fill="#3D007C"/>
<path d="M19.6526 17.8704C20.4067 18.284 21.3536 18.0076 21.7665 17.2528C22.1802 16.4987 21.9038 15.5519 21.1497 15.1389C20.3956 14.7252 19.4487 15.0016 19.0357 15.7564C18.6221 16.5105 18.8985 17.4574 19.6526 17.8704Z" fill="#3D007C"/>
<path d="M48.5587 29.4646C47.4864 30.301 36.3545 39.6691 35.5932 38.8418C34.832 38.0139 42.8859 24.2813 43.8642 20.6264C44.8424 16.9722 42.0613 14.8367 38.5744 17.3055C35.0875 19.7743 29.5461 27.842 29.5461 27.842C29.5461 27.842 36.8832 5.46597 37.5144 2.62142C37.8359 1.17138 37.6079 0.163078 37.0936 0.0121267C36.4898 -0.165617 35.4351 1.65887 35.0541 2.31887C31.7522 8.04324 17.4785 43.5599 9.20099 57.4742C8.4214 58.785 7.12688 60.8591 5.85066 60.6677C2.71924 60.5357 2.42191 43.3625 2.20104 34.904C2.19582 34.7106 1.91417 34.6969 1.89587 34.8897C1.4855 39.1267 0.881692 55.6098 1.37441 60.3004C1.82399 64.5832 3.46158 65.9738 4.5777 66.0209C6.91254 66.1189 9.93875 62.4555 13.9007 54.2179C21.1823 39.0771 29.0703 18.3955 30.0159 18.8176C30.9608 19.2398 21.1627 44.344 22.4592 44.5348C23.1368 44.6348 23.8413 43.0194 25.8814 39.2855C29.3526 32.9319 39.3788 18.3752 41.168 19.8586C42.4318 20.9068 39.5239 25.1621 37.5569 29.3437C35.59 33.5252 31.1549 40.303 33.61 41.4015C36.065 42.4993 48.5567 30.5408 49.1246 29.905C49.7552 29.1986 49.5572 28.6863 48.5593 29.4639L48.5587 29.4646Z" fill="#3D007C"/>
<path d="M6.42773 41.6108C6.60416 43.577 6.81981 47.2084 7.81242 47.3417C8.60639 47.4482 9.66631 45.1663 10.2584 44.0227C10.851 42.8791 31.9332 2.90391 32.4155 3.15745C32.9572 3.44236 28.1993 12.3707 21.2118 27.1038C13.3571 43.6659 9.39578 54.2717 7.06813 54.0097C4.99206 53.7757 4.54966 49.4347 4.64507 43.7973C4.67643 41.9564 4.61631 40.0993 4.58299 38.0879C4.52091 34.3442 4.08178 30.8037 0.953628 29.1955C-0.252019 28.576 -0.383366 28.3297 0.957549 28.8302C2.0691 29.2452 2.92906 29.6432 3.78184 30.475C5.48739 32.1381 5.76184 34.1834 6.42773 41.6108Z" fill="#3D007C"/>
<path d="M25.094 61.0649L26.9244 48.9365H30.6583V66.0188H28.1209V53.7683L26.2663 66.0188H23.7289L21.7273 53.9388V66.0188H19.3846V48.9365H23.1186L25.0953 61.0649H25.094Z" fill="#3D007C"/>
<path d="M41.2987 66.0188H38.59L38.1261 62.9194H34.8319L34.368 66.0188H31.9031L34.6366 48.9365H38.5652L41.2987 66.0188ZM35.1731 60.6009H37.7601L36.4669 51.9621L35.1731 60.6009Z" fill="#3D007C"/>
<path d="M44.9352 53.6461V66.0188H42.5193V48.9365H45.8873L48.645 59.1613V48.9365H51.0366V66.0188H48.279L44.9359 53.6461H44.9352Z" fill="#3D007C"/>
<path d="M56.5761 48.7412C59.1873 48.7412 60.5296 50.303 60.5296 53.0365V53.5736H57.9921V52.8659C57.9921 51.6452 57.504 51.1826 56.6499 51.1826C55.7958 51.1826 55.3077 51.6459 55.3077 52.8659C55.3077 56.3796 60.5544 57.0389 60.5544 61.9197C60.5544 64.6531 59.188 66.2149 56.5526 66.2149C53.9171 66.2149 52.5507 64.6531 52.5507 61.9197V60.8702H55.0888V62.0909C55.0888 63.3109 55.6253 63.7501 56.48 63.7501C57.3348 63.7501 57.8706 63.3109 57.8706 62.0909C57.8706 58.5766 52.6239 57.9179 52.6239 53.0371C52.6239 50.3037 53.9661 48.7419 56.5774 48.7419L56.5761 48.7412Z" fill="#3D007C"/>
<path d="M62.092 48.9365H64.7765V66.0188H62.092V48.9365Z" fill="#3D007C"/>
<path d="M66.5095 53.036C66.5095 50.3025 67.9491 48.7407 70.5851 48.7407C73.2212 48.7407 74.6602 50.3025 74.6602 53.036V61.9186C74.6602 64.652 73.2206 66.2138 70.5851 66.2138C67.9497 66.2138 66.5095 64.652 66.5095 61.9186V53.036ZM69.1933 62.0904C69.1933 63.3104 69.7298 63.7737 70.5845 63.7737C71.4392 63.7737 71.9751 63.3098 71.9751 62.0904V52.8654C71.9751 51.6447 71.4386 51.1821 70.5845 51.1821C69.7304 51.1821 69.1933 51.6454 69.1933 52.8654V62.0904Z" fill="#3D007C"/>
<path d="M78.7849 53.6461V66.0188H76.369V48.9365H79.737L82.4946 59.1613V48.9365H84.8863V66.0188H82.1286L78.7855 53.6461H78.7849Z" fill="#3D007C"/>
<path d="M50.8093 45.4432C51.1504 45.4674 51.4928 45.4432 51.8098 45.4191C53.4206 45.2969 54.2256 44.4428 54.2256 42.3438V29.3862H55.3483V42.2713C55.3483 45.2727 54.0061 46.3705 51.932 46.4685C51.5654 46.4927 51.1994 46.4927 50.8093 46.4685V45.4439V45.4432Z" fill="#3D007C"/>
<path d="M58.8868 42.685L58.0327 46.4673H57.0074L60.7413 29.3608H62.3763L66.1834 46.4673H65.0607L64.2066 42.685H58.8868ZM59.0573 41.7088H64.0361L61.5222 30.6541L59.0573 41.7088Z" fill="#3D007C"/>
<path d="M75.4332 46.4685H67.7464V45.4439L74.3595 30.4109H68.0634V29.3862H75.5312V30.4357L68.9174 45.4439H75.4332V46.4685Z" fill="#3D007C"/>
<path d="M84.902 46.4685H77.2152V45.4439L83.8283 30.4109H77.5322V29.3862H85V30.4357L78.3863 45.4439H84.902V46.4685Z" fill="#3D007C"/>
</svg>
