<svg width="72" height="65" viewBox="0 0 72 65" fill="none" xmlns="http://www.w3.org/2000/svg">
<path d="M0.785778 27.5034C1.81207 27.5421 2.84224 27.5479 3.87047 27.5807C7.72633 27.7025 11.6034 27.9421 15.4632 28.089C17.939 28.1837 22.2201 27.6928 24.1219 29.5328C25.0767 30.4567 24.7656 31.9178 24.8139 33.1393C24.9105 35.5263 25.1482 38.698 24.9221 41.0405C24.7269 43.0718 20.9599 43.0486 19.4621 42.9906C17.4732 42.9133 15.4612 42.6562 13.4705 42.5828C12.6587 42.5519 10.4535 42.3547 10.3104 43.4313C10.351 45.4336 10.2756 47.4398 10.3104 49.4402C10.3162 49.8113 10.6719 51.1353 9.97413 51.087C9.7306 51.0696 7.1407 49.6973 6.787 49.4654C6.43331 49.2334 5.9134 48.9319 5.9134 48.4391C5.9134 48.2709 6.01197 48.1028 6.01583 47.9346C6.08928 43.5685 6.35406 39.1947 6.41978 34.8382C6.42944 34.1444 6.54154 31.9623 6.39465 31.454C6.31348 31.1737 5.83995 30.9824 5.5655 30.9824C4.13912 30.9824 2.39384 31.51 0.963592 31.5815C0.698804 31.5951 0.393428 31.6376 0.155698 31.4926C-0.0646369 31.3206 0.00687532 30.8123 0.0281357 30.5456C0.0609926 30.1455 0.451411 27.803 0.607964 27.6271C0.658216 27.571 0.706535 27.5208 0.783846 27.5015L0.785778 27.5034ZM16.1976 31.6144C15.3607 31.6859 13.6908 31.9797 13.4415 32.9596C13.3004 33.5104 13.399 35.2576 13.4125 35.9399C13.428 36.7652 13.428 38.0582 13.5169 38.8352C13.7256 40.6713 17.0171 40.5824 18.3662 40.4838C19.464 40.4026 21.1049 40.0644 21.2151 38.7231C21.2383 38.4312 21.1165 38.209 21.1146 37.9403C21.1068 36.8251 21.0662 35.7428 21.0141 34.6392C20.9522 33.3597 21.4083 32.4087 19.9375 31.8154C19.0581 31.4598 17.1795 31.5313 16.1976 31.6144Z" fill="#3D007C"/>
<path d="M44.3916 44.9486C43.5335 45.8067 41.4732 46.3402 40.2826 46.3885C39.5056 46.4213 38.7306 46.2203 37.9768 46.1855C36.2199 46.1024 34.4263 46.1082 32.6733 45.9884C30.7154 45.855 27.7602 46.0464 27.5225 43.4391C27.4568 42.7143 27.4297 40.826 27.5341 40.1418C27.681 39.1657 28.7285 38.4757 29.606 38.2148C31.7784 37.5693 36.073 38.5705 37.7294 37.1363C38.4097 36.5469 38.4368 35.909 38.3305 35.0335C38.2358 34.2604 37.6444 33.8352 36.9486 33.6149C35.7213 33.2264 31.8519 33.2708 30.6729 33.7811C29.4939 34.2913 29.9365 34.991 29.6833 35.7931C29.4958 36.3864 28.601 36.1719 28.1874 36.197C27.6771 36.2279 26.2681 36.5662 26.129 35.8337C25.9782 35.0528 26.1251 33.812 26.4885 33.0969C27.8607 30.391 30.698 30.1707 33.373 30.0818C35.5048 30.0103 37.7603 29.9523 39.8825 29.9813C45.0526 30.0528 44.4322 35.766 44.7299 39.4344C44.7956 40.2365 44.869 41.0309 44.9289 41.8349C45.0256 43.1163 45.4817 43.8624 44.3916 44.9505V44.9486ZM35.9068 39.8152C34.4688 39.9485 32.8105 40.6153 33.2744 42.3877C33.5527 43.4565 35.4256 43.8759 36.3765 43.8933C36.5891 43.8971 36.7901 43.7812 36.9814 43.7812C38.0425 43.7792 40.1396 44.0479 40.5029 42.7104C40.731 41.8716 40.7252 40.2694 39.7472 39.9137C39.0669 39.6683 36.7128 39.7378 35.9068 39.8132V39.8152Z" fill="#3D007C"/>
<path d="M12.9664 46.1215C13.6989 45.0623 15.2587 44.6391 16.4744 44.4806C20.28 44.8961 25.9024 42.5633 26.6156 48.0465C27.0079 51.0539 26.8726 54.3009 27.2321 57.3315C27.3906 59.7436 26.1807 61.6512 23.6778 61.8851C21.5846 62.0803 17.6939 62.0474 15.5737 61.889C13.264 61.7169 11.7778 60.4452 11.7372 58.0466C11.6985 55.8008 12.0715 53.12 12.2262 50.8336C12.3267 49.3357 12.0812 47.401 12.9645 46.1215H12.9664ZM20.0094 48.8138C18.7763 48.8621 17.5586 48.8737 17.176 50.2808C16.7392 51.8831 16.9131 54.1579 16.5227 55.8355C16.5845 57.778 17.8969 57.5093 19.387 57.49C20.0596 57.4803 21.2425 57.4649 21.8571 57.3624C22.8274 57.2001 23.2042 56.3555 23.2197 55.4471C23.2429 54.098 23.239 52.0686 23.1347 50.7331C22.9781 48.7442 21.6677 48.75 20.0094 48.8158V48.8138Z" fill="#3D007C"/>
<path d="M65.6091 23.4698C64.7142 23.4814 63.7633 23.6534 62.8761 23.6882C59.8746 23.8061 56.871 23.8022 53.8675 23.8795C51.5347 23.9394 48.9274 24.7319 47.4778 22.2773C46.9386 21.365 47.1396 20.3561 47.1261 19.3298C47.1125 18.3035 46.9019 17.6058 47.385 16.5969C48.2838 14.7182 50.2011 14.496 52.0681 14.38C54.1381 14.2505 55.2978 14.9811 54.8958 12.0607C54.5131 9.26977 50.7712 10.4546 48.8829 10.2961C48.0963 10.3579 47.7948 10.9068 47.7233 11.6355C47.6595 12.2829 48.0267 13.4793 47.1782 13.5895C46.6448 13.4581 44.8106 13.8292 44.513 13.4426C44.3719 13.259 44.3835 11.1156 44.4299 10.7425C44.5864 9.4901 45.6011 7.84919 46.6912 7.20365C48.1118 6.36289 50.9877 6.5639 52.6712 6.48273C55.033 6.36869 58.9256 5.42357 59.8533 8.5044C60.2785 9.91338 59.8456 12.3061 59.8185 13.8311C59.7895 15.5281 59.6678 17.801 59.8185 19.44C59.9209 20.5416 60.5143 20.329 61.4768 20.2904C62.0914 20.2652 64.9732 19.6854 65.2244 19.8342C65.3249 19.8942 65.3655 20.0507 65.3965 20.1609C65.5453 20.6653 65.698 22.0801 65.7231 22.6367C65.7347 22.9247 65.7386 23.2069 65.6091 23.4717V23.4698ZM56.6874 20.8489C57.6809 19.8884 57.5166 17.6753 56.2545 17.0008C55.2611 16.4712 52.8296 16.5737 51.8884 17.1999C50.6128 18.0464 50.636 20.4063 51.9696 21.1852C52.876 21.7148 54.2444 21.5931 55.2707 21.481C55.7326 21.4307 56.355 21.1698 56.6874 20.847V20.8489Z" fill="#3D007C"/>
<path d="M63.7098 25.2124C66.5162 25.1564 69.282 24.4471 70.3586 27.7057C70.6098 28.4672 70.5383 28.9156 70.6311 29.6327C70.9133 31.7993 71.7753 35.7421 70.8475 37.6536C69.5468 40.3344 67.2313 39.7159 64.7748 39.7816C62.2042 39.8492 59.5486 40.0077 56.9761 39.9942C54.4036 39.9807 53.4933 37.9126 53.5242 35.63C53.5474 33.9311 54.2123 29.0219 54.7805 27.4873C55.7662 24.8317 57.6951 25.4656 59.9816 25.3883C61.2089 25.3477 62.4767 25.2395 63.7079 25.2144L63.7098 25.2124ZM60.0028 28.9079C58.0101 29.2229 58.0585 31.9732 58.36 33.5021C58.7658 35.5624 59.709 35.5315 61.5819 35.4889C62.4767 35.4696 64.4772 35.3962 65.2174 35.0251C65.6484 34.8086 65.9692 34.4356 66.0292 33.9369C66.1297 33.1039 66.0987 30.9102 65.7972 30.1642C65.6001 29.6771 65.0261 28.9543 64.481 28.8789C63.6847 28.7707 60.7894 28.7823 60.0009 28.9079H60.0028Z" fill="#3D007C"/>
<path d="M29.1647 58.323C29.358 58.0292 30.162 57.7799 30.5273 57.6407C33.295 56.5777 36.9093 55.7466 39.4914 54.5039C39.8799 54.3164 40.251 54.04 40.195 53.5471C40.0867 52.6059 37.9935 53.0775 37.377 53.0891C34.7678 53.1355 32.1759 53.2089 29.5764 53.2882C27.8311 53.3423 28.351 52.5402 28.2196 51.2356C28.1345 50.3929 27.9509 49.4922 27.9181 48.6379C27.9084 48.3654 27.8504 47.8648 28.121 47.7334L43.3802 48.8776C43.4826 49.4903 43.3937 50.1165 43.4246 50.733C43.4749 51.7458 43.7822 53.8892 43.2255 54.7358C43.067 54.9774 42.6998 55.2055 42.4544 55.3659C40.3824 56.7227 37.8853 57.7528 35.7728 59.0845C34.992 59.7687 35.3882 60.623 36.3758 60.6887C37.2978 60.7505 38.7029 60.5051 39.6693 60.4819C40.1988 60.4684 42.5085 60.4007 42.8216 60.5379C42.8912 60.5689 43.04 60.7177 43.0709 60.7873C43.1637 60.996 43.1772 63.6729 43.127 64.0401C43.0632 64.5194 42.696 64.5504 42.2765 64.589L29.4198 64.5368C28.9695 64.3146 29.155 62.894 29.1202 62.4359C29.0758 61.8677 28.9405 61.2009 28.9173 60.6384C28.8883 59.9658 28.8052 58.8661 29.1628 58.3211L29.1647 58.323Z" fill="#3D007C"/>
<path d="M16.9194 5.58162L15.9182 16.3316C15.81 17.9668 15.3481 19.8241 15.3152 21.438C15.2862 22.9417 17.6461 22.7407 18.6724 22.6885C21.9929 22.5165 25.3308 22.0681 28.6687 21.983C28.9586 21.9753 29.2408 21.7782 29.5616 21.9734C29.7143 23.1582 29.6022 24.3623 29.521 25.5354C29.4959 25.9065 29.6544 26.8729 29.32 27.0353C29.0842 27.1512 27.3698 27.101 26.9659 27.0894C22.7737 26.958 18.5584 26.5985 14.374 26.382C13.0017 26.3105 9.79331 26.5482 8.77088 25.5857C8.04029 24.8976 8.60273 23.9023 8.64332 23.0615L11.9889 8.21404C12.1281 7.96471 15.5897 6.09187 16.1173 5.83481C16.3782 5.70725 16.6082 5.54103 16.9194 5.58548V5.58162Z" fill="#3D007C"/>
<path d="M36.0066 0.00193276C36.5768 -0.0135293 36.4454 0.792432 36.4299 1.23503C36.1729 8.16399 35.4887 15.1026 35.3225 22.0277C35.2896 23.4038 35.5428 24.1846 37.1025 24.2562C38.4941 24.3199 40.4249 23.9392 41.8784 23.8831C42.1876 23.8715 42.5317 23.8445 42.8293 23.9295C43.1791 24.1402 43.3705 26.9156 43.6082 27.4549L43.2564 27.7603L33.2795 28.0811C32.4658 27.9593 31.1438 27.6617 30.9505 26.7088C30.8249 26.0923 30.91 24.7258 30.9235 24.0281C31.0491 17.9457 31.2521 11.8072 31.5323 5.7345C31.5826 4.6367 31.5323 3.41712 31.6289 2.33091C31.6599 1.98108 31.7894 0.659072 32.031 0.531509C32.1566 0.465796 32.5219 0.415544 32.69 0.390418C33.4554 0.276385 34.3058 0.249326 35.077 0.177814C35.3688 0.150755 35.7457 0.00773105 36.0086 0L36.0066 0.00193276Z" fill="#3D007C"/>
<path d="M45.2804 50.8857C44.8571 50.7678 45.0175 49.1384 45.1605 48.7654C45.3925 48.1624 46.2139 47.6328 46.7956 47.399C48.4713 46.7244 51.4169 46.881 53.2801 46.7824C55.3307 46.6761 57.9921 45.9822 59.4823 47.8821C60.2631 48.8795 59.8553 50.0874 59.8283 51.2297C59.7741 53.4524 59.8283 55.8239 59.6311 58.033C59.4765 59.7628 58.0636 60.8529 56.473 61.2762C53.8754 60.9708 45.6031 62.5441 45.1277 58.638C45.0504 58.0079 45.0523 55.3445 45.2088 54.813C45.6147 53.433 47.8355 52.9614 49.0763 52.8803C50.5471 52.7836 52.6693 53.2417 53.8773 52.2811C55.0582 51.3437 54.5209 49.3549 53.1467 48.9162C52.3755 48.6707 49.805 48.7036 49.1381 49.1423C48.4713 49.581 48.9004 50.2266 48.682 50.5861C48.6453 50.6441 48.1235 50.8837 48.079 50.8837C47.4856 50.8837 45.6998 51.0016 45.2784 50.8837L45.2804 50.8857ZM53.7091 54.3144C53.3187 54.326 52.7621 54.3492 52.3813 54.3859C51.442 54.4806 50.8409 55.3465 50.6013 56.2065C50.2765 57.372 50.3036 58.4292 51.6121 58.8525C52.3891 59.1038 53.9411 59.0554 54.7838 58.9897C56.8557 58.8293 57.1417 57.7238 56.9194 55.8471C56.7339 54.2815 54.948 54.2815 53.7091 54.3144Z" fill="#3D007C"/>
<path d="M64.7267 44.5349L64.4774 44.6856L48.4722 44.79C47.6875 44.6315 46.7056 44.4711 46.6206 43.5395C46.234 39.2874 46.9279 34.4265 46.6206 30.1377V27.83C46.8487 27.4183 46.4582 26.0963 46.7926 25.876L52.6121 26.2973C52.6334 26.6046 52.645 26.9235 52.6257 27.2328C52.3319 31.5776 51.4409 36.0674 51.1201 40.4335C51.0485 42.5248 54.5816 41.6608 55.8785 41.5874C58.3409 41.4463 60.8187 41.2724 63.2829 41.1912C63.7642 41.1757 64.2203 40.9515 64.7286 41.1873V44.5368L64.7267 44.5349Z" fill="#3D007C"/>
<path d="M45.5139 18.2977C45.4675 19.5134 45.7922 20.9378 45.6318 22.1381C45.6048 22.3429 45.5758 22.4879 45.3574 22.5633L38.6855 22.5749C36.8493 22.3352 37.1605 20.7929 37.2224 19.3298C37.4446 14.1732 37.8235 8.99335 38.1308 3.83674C38.1675 3.21826 38.0747 2.54759 38.1288 1.93491C38.154 1.64499 38.2042 0.987853 38.498 0.900879L42.8776 1.28357L43.1134 1.44785C43.2159 2.08566 42.9859 2.70994 42.9298 3.33616C42.5819 7.16109 42.1548 11.0112 41.8301 14.838C41.7779 15.4507 41.6001 16.7089 41.6329 17.225C41.7431 18.9374 45.224 17.8377 45.5158 18.3015L45.5139 18.2977Z" fill="#3D007C"/>
<path d="M17.9596 20.2476C17.372 19.6291 17.3778 18.6299 17.4261 17.8336C17.5614 15.5722 17.832 12.1396 18.2553 9.96142C18.6322 8.01899 20.449 7.69815 22.1807 7.7774C24.0748 8.24512 28.0911 7.64983 29.4672 9.09167C29.7282 9.36419 29.9852 9.95562 30.0277 10.3325C30.2075 11.9367 30.1263 14.9673 30.0316 16.6372C29.9562 17.992 29.7707 18.914 28.4951 19.6001C25.6732 20.4428 22.5789 20.3983 19.6759 20.9627C19.2719 20.955 18.2418 20.5414 17.9634 20.2476H17.9596ZM27.1943 17.2518C27.4282 17.0044 27.5577 16.4555 27.6137 16.1192C27.7645 15.2185 27.8978 13.6491 27.9268 12.7272C27.9481 12.0681 27.7935 11.6622 27.2136 11.3414C26.4425 10.9162 23.9801 10.9355 23.2302 11.4342C22.9751 11.6023 22.662 12.0217 22.6214 12.3252C22.4958 13.249 22.5808 15.8757 22.7316 16.8247C22.7915 17.1977 23.265 17.6383 23.6226 17.7331C24.1927 17.8857 25.6732 17.8741 26.2531 17.7562C26.4038 17.7253 27.0938 17.3562 27.1943 17.2479V17.2518Z" fill="#3D007C"/>
</svg>
