<svg width="96" height="68" viewBox="0 0 96 68" fill="none" xmlns="http://www.w3.org/2000/svg">
<path d="M70.3944 22.5721C70.3944 35.0386 60.2868 45.1441 47.8183 45.1441C35.3498 45.1441 25.2422 35.0386 25.2422 22.5721C25.2422 10.1056 35.3518 0 47.8203 0C60.2889 0 70.3965 10.1056 70.3965 22.5721H70.3944ZM47.4752 2.13155C47.3676 2.13155 47.2743 2.17824 47.1667 2.1823C33.1431 2.64921 23.8475 16.5976 28.7542 29.8011C28.8678 30.1096 29.7996 32.3731 29.9377 32.4137C29.9905 32.43 30.0392 32.4097 30.0778 32.3711L44.3997 20.6293L47.4773 2.13155H47.4752ZM65.7152 32.4645C68.3015 27.6106 68.9856 22.03 67.4204 16.7215C64.9214 8.25213 57.0205 2.34673 48.1959 2.13155L51.2247 20.6293L65.7152 32.4645ZM65.2828 33.043L47.7879 26.5205L30.3376 33.0674C30.3234 33.179 30.5954 33.5648 30.6746 33.6906C34.6352 40.0122 42.4448 43.6277 49.8524 42.8806C55.8025 42.2818 61.9758 38.6866 65.0656 33.5181C65.1183 33.4308 65.3356 33.1161 65.2848 33.0451L65.2828 33.043Z" fill="#3D007C"/>
<path d="M3.07146 56.4131L6.26472 65.4366L9.50467 56.4131C10.3776 56.5552 11.2647 56.5126 12.1437 56.4618V56.748C11.4697 56.8089 10.8323 56.8861 10.7511 57.6859C10.7024 58.163 10.7958 58.6644 10.7998 59.1232C10.8262 61.2405 10.8648 63.3477 10.944 65.459C10.9724 66.2263 10.7308 67.1277 11.6707 67.42C11.8798 67.4849 12.1153 67.5113 12.3325 67.5012V67.7894C11.0577 67.6595 9.76654 67.6514 8.49168 67.7894V67.5012C9.03573 67.5012 9.74218 67.3469 9.8315 66.7054C9.95534 65.8061 9.79496 64.519 9.78481 63.5913C9.76451 61.612 9.84368 59.5069 9.73812 57.5418C9.73406 57.4849 9.77466 57.3327 9.66707 57.3733L6.01908 67.4078L5.85465 67.3997L2.29801 57.3733L2.10313 61.6668C2.07471 62.2758 2.08486 62.8869 2.05847 63.4939C2.01989 64.4196 1.82501 65.7229 1.9123 66.612C1.98538 67.3388 2.6756 67.5032 3.30491 67.5012V67.7894L1.88997 67.69L0 67.7894V67.5012C0.45067 67.5113 1.04547 67.4017 1.26675 66.9693C1.51644 66.4821 1.45351 64.9799 1.48802 64.3587C1.59967 62.3408 1.78035 60.2905 1.82501 58.2645C1.8514 57.0627 1.67073 56.8495 0.434429 56.748V56.4618C1.31141 56.5146 2.19854 56.5532 3.07146 56.4151V56.4131Z" fill="#3D007C"/>
<path d="M69.4874 56.5078C70.8516 56.6276 72.0047 57.4396 72.1062 58.8809C72.1773 59.8899 71.9316 60.6877 71.1115 61.2987C70.8577 61.4875 70.5613 61.5829 70.3279 61.7859C72.3884 62.058 73.2268 64.3093 72.3376 66.0754C71.8829 66.9768 70.535 67.738 69.5362 67.738H64.6641V67.4498C65.2406 67.4396 65.9552 67.4071 66.0526 66.7027L66.0587 57.6812C66.0851 56.8732 65.2934 56.7941 64.6641 56.7961V56.5078H69.4895H69.4874ZM67.161 61.6438H69.0084C69.4103 61.6438 70.1472 61.2987 70.4253 60.9962C71.1095 60.2573 71.1094 58.414 70.541 57.6142C69.8569 56.654 68.1821 56.9463 67.159 56.8915V61.6438H67.161ZM67.161 62.0762V66.7555C67.161 67.1595 67.634 67.2853 67.9507 67.3097C70.2832 67.4924 71.7063 66.6459 71.4749 64.1225C71.3774 63.0567 70.5796 62.0762 69.4408 62.0762H67.161Z" fill="#3D007C"/>
<path d="M46.0324 56.3662V66.4697C46.0324 66.488 46.1014 66.7255 46.1176 66.7682C46.2861 67.2209 46.7855 67.3406 47.2321 67.3102L47.2037 67.5071C46.8951 67.5051 45.4294 67.8908 45.2609 67.769L45.0478 66.4454C44.7392 67.0097 44.1546 67.7284 43.4664 67.7913C42.7782 67.8542 42.0027 67.8603 41.4282 67.4259C39.0267 65.6049 39.5484 59.3159 43.1761 59.6792C44.0673 59.7686 44.5687 60.4913 45.0255 61.1673V57.639C45.0255 57.6025 44.9219 57.3447 44.8915 57.2939C44.6946 56.9509 44.1789 56.9448 43.8257 56.9448L43.8338 56.76L46.0344 56.3682L46.0324 56.3662ZM42.8574 60.0731C40.7116 60.1989 40.8801 64.3362 41.2577 65.7714C41.5378 66.8392 42.1164 67.5863 43.3222 67.4503C45.3259 67.2249 45.1797 63.2156 44.8103 61.8352C44.5504 60.8628 43.984 60.0061 42.8574 60.071V60.0731Z" fill="#3D007C"/>
<path d="M82.8029 59.4844L82.9003 60.9724C83.4078 60.3309 83.9783 59.7584 84.8451 59.6772C88.6758 59.322 87.3603 64.7341 87.6161 66.9854C87.7744 67.5071 88.3347 67.5599 88.8057 67.5477V67.7873L86.8102 67.6878L85.3485 67.7873V67.5477C85.6612 67.5822 86.4569 67.499 86.5381 67.1295L86.5483 62.0057C86.4163 60.9338 85.9576 60.27 84.7943 60.3471C83.7164 60.4182 83.0891 61.2647 82.9978 62.294C82.8678 63.7536 83.083 65.408 83.0079 66.89C83.1033 67.4665 83.7001 67.5558 84.1975 67.5497V67.7893L82.7359 67.6898L80.7891 67.7893V67.5497C81.258 67.568 81.9157 67.4625 81.9848 66.8981L81.9909 60.8039C81.9239 60.1157 81.3088 60.2274 80.7891 60.1584V59.9939L82.8049 59.4864L82.8029 59.4844Z" fill="#3D007C"/>
<path d="M79.9728 63.5159H74.8368C74.8226 64.9958 75.1352 67.3425 77.0211 67.4501C78.4015 67.5293 79.1648 66.4432 79.3516 65.1967H79.9728C79.9911 66.1813 79.0126 67.6856 77.9833 67.7891C77.6058 67.8277 76.2964 67.8297 75.9756 67.7282C72.8412 66.7213 73.2391 59.9531 76.5887 59.6283C79.0187 59.3928 79.9829 61.3904 79.9728 63.5159ZM78.9639 62.9413C78.9496 61.5934 78.4482 59.8597 76.7775 60.012C75.4803 60.1297 74.987 61.8593 74.8835 62.9413H78.9639Z" fill="#3D007C"/>
<path d="M54.2929 63.4692H49.2056C49.1467 64.9755 49.437 67.306 51.3473 67.446C52.6912 67.5455 53.556 66.4412 53.6697 65.1967H54.2929C54.3071 66.1955 53.426 67.5475 52.4212 67.7647C52.0964 67.8338 50.5008 67.8256 50.2003 67.7302C47.2831 66.7964 47.4699 59.945 50.9575 59.6304C53.3672 59.4131 54.2888 61.364 54.2929 63.4692ZM53.286 62.9414C53.2352 61.636 52.8272 59.9227 51.195 60.012C49.8085 60.0891 49.3132 61.7883 49.2523 62.9414H53.2839H53.286Z" fill="#3D007C"/>
<path d="M19.4979 63.4693H14.4106C14.3924 64.801 14.5974 66.9671 16.1484 67.371C17.6161 67.7547 18.7692 66.6565 18.895 65.2415L19.5467 65.1969C19.4411 66.222 18.8321 67.3081 17.8353 67.6857C17.4253 67.842 16.1585 67.8339 15.6794 67.7913C14.7639 67.708 13.9417 66.5225 13.6758 65.7145C12.8698 63.2643 13.7123 59.3097 16.9726 59.6345C18.4017 59.7787 19.4979 61.3601 19.4979 62.7243V63.4673V63.4693ZM18.5377 62.9415C18.4403 61.6179 18.0668 59.9208 16.4001 60.0121C14.9872 60.0893 14.5873 61.7925 14.4573 62.9415H18.5377Z" fill="#3D007C"/>
<path d="M38.9333 63.4691H33.846C33.8257 64.7298 34.0125 66.8532 35.4315 67.3323C36.9783 67.852 38.1842 66.6888 38.3101 65.1987H38.982C38.8379 65.8605 38.645 66.504 38.1903 67.0237C37.9345 67.316 37.3742 67.7342 36.9865 67.787C36.5987 67.8398 35.4071 67.8398 35.0275 67.787C34.8854 67.7667 34.7412 67.6875 34.6154 67.6246C31.9256 66.2685 32.3214 59.9774 35.5573 59.6384C37.9873 59.3847 38.9414 61.3457 38.9353 63.4711L38.9333 63.4691ZM37.9243 62.9413C37.9203 61.6197 37.4656 59.9226 35.8334 60.0119C34.4733 60.0871 33.9191 61.7923 33.8906 62.9413H37.9223H37.9243Z" fill="#3D007C"/>
<path d="M95.8168 59.7725L91.0645 67.4034H93.7766C93.8274 67.4034 94.2253 67.241 94.2963 67.2024C94.8871 66.8796 95.2301 66.096 95.4392 65.4891L95.6727 65.483L95.289 67.7384H89.6719L94.3755 60.1561H91.9029C91.3954 60.1561 90.8574 60.6697 90.6219 61.0839C90.5265 61.2524 90.3966 61.6929 90.3174 61.7883C90.2525 61.8675 90.1367 61.8309 90.0535 61.835L90.3885 59.7725H95.8128H95.8168Z" fill="#3D007C"/>
<path d="M60.1976 59.533V62.0279L59.9155 62.0219C59.7876 60.7916 59.008 59.7543 57.652 60.0811C56.4502 60.3714 55.9488 61.8452 57.0328 62.6227C58.3503 63.5667 61.1639 63.5281 60.7133 65.9723C60.4088 67.6288 58.6832 67.9679 57.25 67.7811C56.8582 67.7303 56.4015 67.4116 56.0706 67.2086C55.9528 67.5192 55.8513 67.8826 55.4453 67.7852V65.2659C55.4453 65.1928 55.7031 65.1481 55.7579 65.2415C56.0665 66.6118 56.8643 67.6248 58.3909 67.4441C59.7815 67.2817 60.5691 65.4811 59.1907 64.6406C57.926 63.8712 55.5793 63.8042 55.5935 61.8148C55.6077 59.8253 58.263 59.0945 59.6922 60.1522C59.9195 59.9492 59.7774 59.4396 60.1956 59.529L60.1976 59.533Z" fill="#3D007C"/>
<path d="M22.5584 61.1655L22.7249 60.7798C23.1552 60.0145 23.8292 59.5374 24.7427 59.6308C25.502 59.7079 26.1922 60.6052 25.7679 61.3259C25.5182 61.7501 24.9193 61.7197 24.6981 61.3056C24.5296 60.9909 24.9681 60.3596 24.355 60.256C22.936 60.0165 22.6538 62.0181 22.6031 63.0108C22.5523 64.0035 22.4955 65.8082 22.6112 66.7501C22.6924 67.416 23.2161 67.55 23.8069 67.5479V67.7875L21.8601 67.688L20.3984 67.7875V67.5479C20.7699 67.5743 21.5231 67.5073 21.5962 67.0425L21.6023 60.7554C21.5393 60.1017 20.9222 60.0977 20.4005 60.1099V59.8703C21.0927 59.915 21.7444 59.6409 22.4183 59.5557L22.5604 61.1675L22.5584 61.1655Z" fill="#3D007C"/>
<path d="M31.4418 59.4378V62.0302L31.1596 62.0241C30.9322 60.8243 29.9842 59.6165 28.6302 60.059C26.8234 60.6518 26.8782 64.5799 27.3715 66.0253C27.6354 66.7947 28.149 67.4098 29.0159 67.4524C30.3496 67.5194 30.8409 66.3176 31.0114 65.2031L31.6306 65.1991C31.525 65.9827 31.2246 66.884 30.5973 67.4057C30.4775 67.5052 30.1019 67.7508 29.9639 67.7793C29.7 67.832 28.3439 67.8239 28.076 67.7691C27.4487 67.6392 26.7503 66.7987 26.4763 66.2486C25.6622 64.6104 25.7191 62.1418 26.9067 60.6924C27.873 59.5129 29.5904 59.184 30.7414 60.3026C30.8125 60.3026 31.1352 59.4906 31.2043 59.448C31.255 59.4175 31.3687 59.45 31.4357 59.4398L31.4418 59.4378Z" fill="#3D007C"/>
<path d="M64.5638 62.8926H61.5391V63.3717H64.5638V62.8926Z" fill="#3D007C"/>
</svg>
