<svg width="103" height="28" viewBox="0 0 103 28" fill="none" xmlns="http://www.w3.org/2000/svg">
<path d="M4.14547 0L9.75828 15.7365L9.77859 0H14.164L14.1585 26.0338C13.2651 26.2017 12.3534 26.3032 11.4471 26.4011C10.8565 26.4638 10.1736 26.5709 9.59586 26.6041C9.52941 26.6078 9.44451 26.6226 9.39468 26.5635L4.42602 12.0747V27.2483L0.0812114 27.8518H0V0H4.14363H4.14547Z" fill="#3D007C"/>
<path d="M92.3392 0L95.176 7.28503L98.2528 0H103L97.4887 13.2245L103 27.8518C102.974 27.85 102.945 27.8555 102.919 27.8518C101.311 27.6026 99.7017 27.3276 98.0996 27.0378L94.9711 19.0385L91.8113 26.4029L87.1472 25.84L92.7231 13.0621L87.6714 0H92.3392Z" fill="#3D007C"/>
<path d="M30.4192 0V4.34665H22.7336V10.1828L28.5273 10.1016V14.4482L22.7336 14.5295V21.0097L30.4192 20.5668V24.7529L18.3888 25.6776V0H30.4192Z" fill="#3D007C"/>
<path d="M61.5601 0V4.34665H53.6733V9.9004H59.6276V14.2471H53.6733V24.1087H49.4097V0H61.5601Z" fill="#3D007C"/>
<path d="M46.5932 0V4.34665H42.0859V24.3505L37.7411 24.4299V4.34665H33.2357V0H46.5932Z" fill="#3D007C"/>
<path d="M68.5996 0V20.325L76.0028 20.6867V24.9928L64.2732 24.3929L64.2548 0H68.5996Z" fill="#3D007C"/>
<path d="M83.9301 0V25.5742C83.3708 25.5871 82.7876 25.4801 82.2191 25.4376C81.3682 25.373 80.5137 25.3527 79.6646 25.2752V0H83.9282H83.9301Z" fill="#3D007C"/>
</svg>
