<svg width="68" height="48" viewBox="0 0 68 48" fill="none" xmlns="http://www.w3.org/2000/svg">
<path d="M51.8161 31.3457C51.5165 30.0701 50.8393 28.9278 49.9292 27.9197C49.0865 26.9862 46.269 24.3201 43.8442 22.9782C42.6538 22.3195 41.2344 22.0786 39.8836 21.8251C38.5574 21.5761 37.2071 21.4335 35.8539 21.3958C35.731 21.3793 35.6077 21.3664 35.4836 21.362C35.3185 21.3564 35.1583 21.3705 34.9992 21.3893L34.9518 35.1934C34.9518 35.1934 34.9518 35.4188 34.9522 35.5312C34.9526 35.6497 35.0053 35.7337 35.0792 35.7867C35.8973 35.8598 36.6801 35.8722 37.4581 35.779C37.473 35.7622 37.4898 35.7477 37.5039 35.7304C37.5999 35.6794 37.675 35.5834 37.6866 35.4421V35.4372C37.7272 35.3509 37.7577 35.2613 37.779 35.1693C37.7995 35.1308 37.814 35.0878 37.8196 35.0404C37.8834 34.5247 37.8706 31.1891 37.8871 30.7874C37.918 30.0179 37.9333 29.2483 37.9618 28.4788C37.9903 27.7092 38.0007 26.9401 37.9955 26.1701C37.9927 25.7853 37.9891 25.4006 37.9835 25.0158C37.9823 24.9254 37.9802 24.3013 37.9786 24.2105C38.0879 24.1535 39.1065 24.2462 39.4426 24.3133C41.6171 24.7467 43.3293 25.7938 45.0962 27.1357C48.5716 29.7753 48.7303 31.8385 48.7664 31.8751C48.778 31.9992 48.7801 32.7141 48.3282 33.4443C48.09 33.8291 45.2785 38.1965 38.9739 39.3091C38.596 39.3758 38.212 39.4019 37.83 39.4372C37.7995 39.4107 35.3937 39.4151 34.2293 39.2537C34.0811 39.2653 33.9309 39.2448 33.7947 39.1882C32.648 39.0022 31.5146 38.7147 30.4185 38.3552C29.1963 37.9548 24.0062 35.0063 22.6824 33.9387C21.9012 33.3089 21.1417 32.6559 20.3898 31.9919C20.1709 31.7984 19.5363 31.0774 19.3195 30.8818C19.3729 30.7581 25.5686 27.2758 26.6973 26.8212C27.7817 26.3842 31.5483 24.8362 32.2813 24.7756C32.2954 24.7407 32.3118 24.7069 32.3243 24.6704C32.3335 24.6431 32.3464 24.6178 32.3588 24.5924C32.3263 23.8165 32.3391 23.0389 32.3231 22.2621C32.303 22.0633 32.2845 21.8653 32.2689 21.6681C32.2319 21.6428 32.2158 21.6315 32.1789 21.6058C30.645 22.0452 29.1216 22.4814 27.6174 22.9883C27.4801 23.0425 26.1663 23.3265 24.7244 24.0844C24.5701 24.1655 24.4071 24.2262 24.248 24.2972C24.2211 24.3185 19.1062 27.1654 19.0455 27.1831C18.7877 27.3574 16.6369 28.6294 16.4256 28.6326C16.3557 28.5655 15.8087 28.2285 15.7456 28.1836C15.0186 27.667 14.3057 27.1329 13.6025 26.5866C13.194 26.2376 12.7799 25.8954 12.357 25.5648C11.3717 24.7081 10.3941 23.843 9.41491 22.979C9.10283 22.7035 8.62246 22.1669 8.29914 21.8886C9.37314 21.8886 11.0645 21.903 11.0504 21.8886C11.9348 21.8601 22.3358 21.3689 25.3754 19.7727C29.3083 17.7071 30.1695 15.8836 30.1695 15.8828C30.2321 15.7655 30.782 14.5662 30.9663 14.0718C31.0362 13.8838 31.2599 12.5238 31.28 12.3728C31.3158 12.3206 31.0479 7.36633 30.9226 7.01369C30.7374 6.37909 30.5285 5.74208 30.1916 5.17255C29.3919 3.82062 27.2503 1.14768 24.3219 0.701449C23.2299 0.403027 18.5527 0.278517 17.6414 0.302616C17.3904 0.309444 12.3879 0.105408 12.0915 0.0949657C11.881 0.090146 9.44021 -0.00464204 9.40406 0.000177691C8.363 0.147983 5.55149 0.0387355 5.16993 0.0692605C4.27748 0.141958 0.121665 0.139548 0.000769767 0.197787C-0.0357799 0.272091 1.23944 1.81681 1.65153 12.8725V32.631C1.65153 32.7856 1.72061 36.1638 1.73868 37.7383C1.77082 40.5209 0.759877 42.3969 0.759877 42.3969H4.86548C5.29243 42.3969 5.70653 42.2552 6.04351 41.9933C6.56082 41.5908 7.3123 40.9968 7.61956 40.7389C9.32293 39.3107 11.0207 37.9082 12.7996 36.5586C12.8626 36.5108 16.1541 33.664 16.9923 33.0888C17.0835 33.1455 17.1763 33.2009 17.2703 33.2527C17.2787 33.2575 17.2871 33.2595 17.296 33.2635C26.6354 42.8335 36.8898 43.0837 40.848 42.0961C46.7433 40.6253 51.1722 35.5911 51.6651 32.7579C51.7337 32.7266 51.8944 31.3939 51.8157 31.3457H51.8161ZM5.7238 3.18923H22.4808C22.633 3.18923 22.7623 3.22337 22.8712 3.28C25.8237 3.89332 27.7733 6.54457 28.2605 9.44564C28.6488 11.7595 28.3155 14.222 26.4663 15.8322C24.7597 17.3179 22.4246 17.8999 20.2388 18.222C18.1157 18.5353 15.9834 18.571 13.8475 18.7136C13.8278 18.7136 13.8081 18.714 13.7884 18.714C11.8625 18.7096 9.93343 18.6469 8.01317 18.5015C7.36492 18.4525 6.71626 18.4377 6.06801 18.4192C5.84509 18.3923 5.62218 18.365 5.39887 18.3413C5.30769 18.3316 5.20849 18.3228 5.10727 18.32C4.99481 18.1726 4.93617 17.9962 4.92774 17.8179C4.92573 17.8179 4.96067 5.02676 4.96067 5.02676C4.95626 5.00868 4.91529 4.63837 4.96067 4.48855V4.3548C4.78475 3.85797 5.03899 3.18963 5.7234 3.18963L5.7238 3.18923ZM11.9473 32.7217C11.6673 32.9282 11.4022 33.1559 11.1464 33.3981C10.5913 33.8712 10.0411 34.35 9.49483 34.8324C8.56824 35.6124 7.64125 36.3924 6.71586 37.1736C6.21662 37.5949 5.71737 38.0162 5.21773 38.4375C5.15145 37.4362 5.04823 36.4377 4.90444 35.4421C4.90043 35.24 4.8691 29.2668 4.91529 28.7451C4.89962 28.38 5.00164 25.0479 5.00526 24.0904C5.00606 23.8362 5.00164 23.5823 4.99361 23.3281C6.13588 24.4181 7.33278 25.4504 8.57868 26.4207C9.79968 27.4686 11.0367 28.498 12.3047 29.4893C12.6646 29.7704 13.9724 30.922 13.972 31.0372C13.2952 31.5959 12.62 32.157 11.9481 32.7217H11.9473Z" fill="#3D007C"/>
<path d="M63.706 0.825882C61.7451 2.78229 59.7779 4.73267 57.8351 6.70716C56.241 8.32739 52.7728 11.7578 52.3643 12.1631C52.3708 11.7068 52.3756 11.3437 52.3756 11.2843C52.3527 10.5999 52.2053 5.44399 51.9695 3.58799H50.2437C50.228 3.74423 50.2127 3.90007 50.2007 4.05631C50.1224 5.04716 50.0838 6.04565 50.0473 7.04012C50.0228 7.71328 49.989 10.3344 49.9758 11.9864C49.9324 11.9534 49.897 11.9185 49.8749 11.8823C49.54 11.614 49.4307 11.5369 49.3379 11.4441C45.9987 8.1093 42.5819 4.84634 39.3599 1.40144C37.9333 -0.124007 36.4303 0.28567 34.6916 0.372425C35.337 2.53889 35.5583 6.3011 35.6278 10.0187C35.6202 12.0615 35.6399 14.1091 35.6491 16.1615C35.6435 17.2969 35.6391 18.2986 35.6487 19.0858C36.5757 19.2071 37.4951 19.3899 38.4281 19.4537C38.3735 16.1667 38.3325 12.8788 38.3128 9.59096C38.3112 9.29696 38.2959 9.05196 38.2698 8.84551V4.37521C41.4003 7.53093 44.4234 10.5786 47.5755 13.7568C47.8201 13.9866 48.0659 14.2155 48.3117 14.444C47.5153 14.432 46.6277 14.4195 46.5313 14.4195C45.8469 14.4424 42.2811 14.5898 40.4247 14.8256V16.5515C40.5809 16.5671 40.7367 16.5824 40.893 16.5944C41.8838 16.6728 42.8823 16.7113 43.8768 16.7479C44.65 16.7764 45.893 16.8161 48.0097 16.8242C47.0666 17.86 45.6235 19.4762 44.8146 20.5209L46.0352 21.7415C46.1565 21.6423 46.2778 21.5427 46.3967 21.4411C47.1526 20.796 47.886 20.1168 48.615 19.4397C48.9399 19.1376 49.3773 18.7288 49.9746 18.1536C49.987 19.9257 50.0219 22.9444 50.0476 23.6449C50.0842 24.6394 50.1228 25.6378 50.2011 26.6287C50.2135 26.7849 50.2284 26.9408 50.2441 27.097H51.9699C52.2061 25.241 52.3535 19.7453 52.376 19.0609C52.376 19.0143 52.3732 18.7842 52.3688 18.4693C52.8009 18.8822 53.1375 19.1967 53.3994 19.4397C54.1284 20.1173 54.8618 20.796 55.6177 21.4411C55.7369 21.5427 55.8578 21.6423 55.9791 21.7415L57.1997 20.5209C56.3908 19.4762 54.9485 17.8608 54.0055 16.825C56.3229 16.8202 57.6568 16.7776 58.4689 16.7479C59.4634 16.7113 60.4619 16.6728 61.4527 16.5944C61.609 16.582 61.7648 16.5671 61.9211 16.5515V14.8256C60.0651 14.5894 56.4989 14.442 55.8145 14.4195C55.7285 14.4195 55.0096 14.4292 54.289 14.44C54.5384 14.146 54.72 13.9396 54.72 13.9396C57.9207 10.7356 61.0117 7.64098 64.1305 4.5186L64.0923 13.9396C64.1036 14.2328 64.1076 14.5256 64.1092 14.8184C64.0879 15.0425 64.0751 15.3048 64.0735 15.6172C64.0257 24.4446 64.4309 33.349 63.1645 42.3165H67.5485C67.3525 40.146 67.0609 38.2073 67.0207 36.2397C66.8802 29.4137 66.7926 22.5781 66.7581 15.7446C66.7561 15.31 66.7332 14.9638 66.6942 14.687C66.6468 11.3951 66.6773 3.84946 67.6545 0.416606C65.5346 0.0478968 64.3558 0.177226 63.7068 0.824677L63.706 0.825882Z" fill="#3D007C"/>
<path d="M2.85404 45.8229C3.04001 45.6799 3.13319 45.4863 3.13319 45.2413C3.13319 45.0518 3.08057 44.8927 2.97574 44.7634C2.87051 44.6341 2.72833 44.5361 2.5492 44.469C2.37006 44.4019 2.16844 44.3682 1.94472 44.3682H0.828552V47.7894H1.33503V46.1563H1.73306L2.93196 47.8617L3.53162 47.7894L2.14675 46.1149C2.43272 46.0631 2.66889 45.9659 2.85485 45.8229H2.85404ZM1.66558 46.0013H1.33503V44.6473C1.42459 44.6232 1.53745 44.6027 1.67361 44.5855C1.80977 44.5682 1.92745 44.5597 2.02746 44.5597C2.16522 44.5975 2.27286 44.6521 2.35038 44.7224C2.4279 44.7931 2.48373 44.867 2.51827 44.9445C2.55281 45.022 2.5741 45.0911 2.58293 45.1514C2.59137 45.2116 2.59579 45.2506 2.59579 45.2678C2.59579 45.3883 2.57008 45.5048 2.51827 45.6169C2.46646 45.7289 2.37448 45.8209 2.24194 45.8932C2.1094 45.9655 1.91701 46.0016 1.66558 46.0016V46.0013Z" fill="#3D007C"/>
<path d="M4.83334 46.0935H5.98044V45.897H4.83334V44.6411C4.93335 44.6134 5.02613 44.5921 5.11249 44.5764C5.19844 44.5608 5.29162 44.5531 5.39163 44.5531L6.35276 44.7134L6.40458 44.3672H4.33209V47.7884H6.38369L6.4355 47.4422L4.83334 47.6024V46.0935Z" fill="#3D007C"/>
<path d="M8.7297 47.1688L7.59265 44.3682H7.02954L8.56422 47.8717H8.64696L10.0113 44.3682H9.75309L8.7297 47.1688Z" fill="#3D007C"/>
<path d="M11.2359 46.0935H12.383V45.897H11.2359V44.6411C11.3359 44.6134 11.4287 44.5921 11.515 44.5764C11.601 44.5608 11.6942 44.5531 11.7942 44.5531L12.7553 44.7134L12.8071 44.3672H10.7346V47.7884H12.7862L12.8381 47.4422L11.2359 47.6024V46.0935Z" fill="#3D007C"/>
<path d="M14.3214 44.3682H13.8459V47.7894H14.3214V44.3682Z" fill="#3D007C"/>
<path d="M16.236 47.5749C16.1448 47.556 16.0541 47.5343 15.9645 47.5102V44.3682H15.458V47.7894H17.3442L17.406 47.4431L16.4706 47.6034C16.4051 47.6034 16.3268 47.5938 16.2356 47.5749H16.236Z" fill="#3D007C"/>
<path d="M18.9591 47.5749C18.868 47.556 18.7772 47.5343 18.6876 47.5102V44.3682H18.1812V47.7894H20.0673L20.1291 47.4431L19.1937 47.6034C19.1282 47.6034 19.0499 47.5938 18.9587 47.5749H18.9591Z" fill="#3D007C"/>
<path d="M23.2459 44.4968C23.0118 44.3695 22.7499 44.3057 22.4603 44.3057C22.3016 44.3057 22.1374 44.3257 21.9667 44.3651C21.796 44.4049 21.6309 44.4683 21.4706 44.5563C21.3104 44.6442 21.1658 44.7595 21.0365 44.9025C20.9071 45.0455 20.8047 45.2222 20.7288 45.4323C20.6529 45.6423 20.6151 45.8889 20.6151 46.1713C20.6151 46.5332 20.6838 46.8388 20.822 47.0887C20.9598 47.3385 21.1457 47.5281 21.3803 47.657C21.6144 47.7863 21.8747 47.8506 22.1607 47.8506C22.3189 47.8506 22.4836 47.8309 22.6543 47.7911C22.825 47.7518 22.9901 47.6871 23.1503 47.5975C23.3106 47.508 23.456 47.3907 23.5869 47.2461C23.7178 47.1015 23.8211 46.924 23.897 46.7139C23.9729 46.5039 24.0106 46.2573 24.0106 45.9749C24.0106 45.613 23.9416 45.3082 23.8038 45.0604C23.666 44.8121 23.4801 44.6246 23.2455 44.4972L23.2459 44.4968ZM23.3985 46.626C23.3556 46.8119 23.2881 46.9842 23.1969 47.1429C23.1057 47.3015 22.9869 47.4305 22.8403 47.5305C22.6937 47.6305 22.5173 47.6803 22.3105 47.6803C22.1036 47.6803 21.9273 47.6381 21.7807 47.5538C21.6341 47.4694 21.5164 47.3529 21.4269 47.2051C21.3373 47.0569 21.271 46.8874 21.2281 46.6963C21.1851 46.5051 21.1634 46.3042 21.1634 46.0942C21.1634 45.8669 21.1995 45.648 21.2718 45.4379C21.3441 45.2278 21.4562 45.0419 21.6076 44.8796C21.759 44.7178 21.9502 44.5973 22.1812 44.5177C22.4258 44.5177 22.6298 44.5591 22.7937 44.6418C22.9571 44.7246 23.0881 44.8382 23.1865 44.9828C23.2849 45.1274 23.3552 45.2953 23.3985 45.4865C23.4415 45.6777 23.4632 45.8801 23.4632 46.0938C23.4632 46.2625 23.4415 46.44 23.3985 46.626Z" fill="#3D007C"/>
<path d="M27.2302 46.8539H27.2097L25.2409 44.3682H24.8585V47.789H25.0858V45.014H25.1063L27.37 47.846H27.4579V44.3682H27.2302V46.8539Z" fill="#3D007C"/>
<path d="M32.4138 44.7738C32.2174 44.6308 32.0021 44.5276 31.768 44.4638C31.5338 44.3999 31.3013 44.3682 31.0703 44.3682H30.0935V47.7894H31.1683C31.4166 47.7894 31.6539 47.7584 31.8817 47.6962C32.109 47.6343 32.3114 47.5387 32.4889 47.4094C32.6665 47.2801 32.8066 47.113 32.9103 46.9082C33.0135 46.7033 33.0653 46.4579 33.0653 46.1719C33.0653 45.8414 33.0059 45.5614 32.887 45.3321C32.7681 45.1032 32.6106 44.9168 32.4142 44.7738H32.4138ZM32.3283 46.9443C32.2026 47.17 32.0303 47.3379 31.8114 47.448C31.5925 47.5584 31.3439 47.6134 31.0647 47.6134C30.982 47.6134 30.896 47.609 30.8065 47.6006C30.7169 47.5922 30.6478 47.5809 30.5996 47.5669V44.6626C30.696 44.6316 30.8209 44.6059 30.9743 44.5851C31.1278 44.5646 31.2647 44.5541 31.3852 44.5541C31.6021 44.6092 31.7961 44.7076 31.9668 44.8485C32.1375 44.9899 32.2717 45.1654 32.3701 45.3755C32.4685 45.5855 32.5175 45.8233 32.5175 46.0888C32.5175 46.4334 32.4544 46.7186 32.3287 46.9439L32.3283 46.9443Z" fill="#3D007C"/>
<path d="M36.2998 44.4968C36.0656 44.3695 35.8037 44.3057 35.5142 44.3057C35.3555 44.3057 35.1912 44.3257 35.0205 44.3651C34.8498 44.4049 34.6848 44.4683 34.5245 44.5563C34.3643 44.6442 34.2197 44.7595 34.0903 44.9025C33.961 45.0455 33.8586 45.2222 33.7827 45.4323C33.7068 45.6423 33.669 45.8889 33.669 46.1713C33.669 46.5332 33.7377 46.8388 33.8759 47.0887C34.0136 47.3385 34.1996 47.5281 34.4341 47.657C34.6683 47.7863 34.9286 47.8506 35.2145 47.8506C35.3728 47.8506 35.5375 47.8309 35.7082 47.7911C35.8789 47.7518 36.0439 47.6871 36.2042 47.5975C36.3644 47.508 36.5098 47.3907 36.6408 47.2461C36.7717 47.1015 36.8749 46.924 36.9508 46.7139C37.0268 46.5039 37.0645 46.2573 37.0645 45.9749C37.0645 45.613 36.9954 45.3082 36.8577 45.0604C36.7199 44.8121 36.5339 44.6246 36.2994 44.4972L36.2998 44.4968ZM36.4524 46.626C36.4094 46.8119 36.3419 46.9842 36.2508 47.1429C36.1596 47.3015 36.0407 47.4305 35.8941 47.5305C35.7475 47.6305 35.5712 47.6803 35.3643 47.6803C35.1575 47.6803 34.9812 47.6381 34.8346 47.5538C34.688 47.4694 34.5703 47.3529 34.4807 47.2051C34.3912 47.0569 34.3249 46.8874 34.2819 46.6963C34.2389 46.5051 34.2172 46.3042 34.2172 46.0942C34.2172 45.8669 34.2534 45.648 34.3257 45.4379C34.398 45.2278 34.51 45.0419 34.6615 44.8796C34.8129 44.7178 35.0041 44.5973 35.235 44.5177C35.4796 44.5177 35.6837 44.5591 35.8475 44.6418C36.011 44.7246 36.1419 44.8382 36.2403 44.9828C36.3383 45.1274 36.409 45.2953 36.4524 45.4865C36.4954 45.6777 36.5171 45.8801 36.5171 46.0938C36.5171 46.2625 36.4954 46.44 36.4524 46.626Z" fill="#3D007C"/>
<path d="M39.5683 46.1398C39.4358 46.0434 39.296 45.9538 39.1498 45.8711C39.0032 45.7884 38.8638 45.7032 38.7313 45.6153C38.5987 45.5273 38.4911 45.4309 38.4084 45.3257C38.3256 45.2204 38.2843 45.0991 38.2843 44.9614C38.2843 44.8682 38.3039 44.783 38.3437 44.7055C38.3831 44.628 38.4529 44.5654 38.553 44.5168C38.7562 44.5168 38.9562 44.5453 39.1526 44.6019C39.349 44.6585 39.547 44.7304 39.747 44.8164L39.7989 44.4649C39.6784 44.4272 39.5354 44.391 39.3699 44.3565C39.2044 44.322 39.0514 44.3047 38.91 44.3047C38.6518 44.3047 38.4433 44.3497 38.2847 44.4392C38.126 44.5288 38.0107 44.6401 37.9384 44.7726C37.8661 44.9051 37.83 45.0389 37.83 45.173C37.83 45.3349 37.8694 45.4755 37.9489 45.5944C38.028 45.7133 38.1304 45.8165 38.2565 45.9044C38.3823 45.9924 38.5156 46.0731 38.657 46.1474C38.7984 46.2213 38.9317 46.298 39.0574 46.3776C39.1831 46.4567 39.2855 46.5447 39.3651 46.6411C39.4442 46.7374 39.484 46.8531 39.484 46.9873C39.484 47.2042 39.4141 47.3724 39.2747 47.4909C39.1353 47.6098 38.9518 47.6693 38.7245 47.6693C38.6108 47.6693 38.4935 47.6536 38.373 47.6227C38.2525 47.5917 38.1421 47.5548 38.0425 47.5114C37.9425 47.4684 37.8633 47.4331 37.8047 47.4054V47.6484C37.9047 47.6861 38.0449 47.7295 38.226 47.7777C38.4068 47.8259 38.5987 47.85 38.8024 47.85C39.0747 47.85 39.3 47.8078 39.4795 47.7235C39.6587 47.6391 39.7928 47.5239 39.8828 47.3773C39.9724 47.2307 40.0173 47.068 40.0173 46.8889C40.0173 46.727 39.976 46.5856 39.8932 46.4651C39.8105 46.3446 39.7029 46.2362 39.5703 46.1394L39.5683 46.1398Z" fill="#3D007C"/>
<path d="M45.4572 44.3682L44.3153 46.9776L43.1213 44.3682H42.6409L42.4497 47.789H42.677L42.8164 44.9674H42.8373L44.1137 47.789H44.186L45.4881 44.8485H45.509L45.6484 47.789H46.1758L45.9842 44.3682H45.4572Z" fill="#3D007C"/>
<path d="M47.7675 44.3682H47.2919V47.7894H47.7675V44.3682Z" fill="#3D007C"/>
<path d="M49.6817 47.5749C49.5906 47.556 49.4998 47.5343 49.4102 47.5102V44.3682H48.9037V47.7894H50.7899L50.8517 47.4431L49.9163 47.6034C49.8508 47.6034 49.7725 47.5938 49.6813 47.5749H49.6817Z" fill="#3D007C"/>
<path d="M52.7491 44.2852L51.2144 47.7891H51.4935L51.8759 46.8589H53.4106L53.7982 47.7891H54.3617L52.827 44.2852H52.7495H52.7491ZM51.953 46.6625L52.6454 44.988L53.3274 46.6625H51.9526H51.953Z" fill="#3D007C"/>
<path d="M57.2503 47.618C57.1744 47.6353 57.0969 47.6481 57.0178 47.6566C56.9386 47.6654 56.8591 47.6694 56.78 47.6694C56.5009 47.6694 56.253 47.61 56.0358 47.4911C55.8189 47.3722 55.6474 47.1959 55.5216 46.9613C55.3959 46.7272 55.3329 46.4376 55.3329 46.093C55.3329 45.6897 55.4345 45.3479 55.6377 45.0672C55.841 44.7864 56.1149 44.6029 56.4595 44.5169C56.6591 44.5169 56.8523 44.5446 57.0383 44.5997C57.2242 44.6547 57.417 44.7254 57.617 44.8117L57.6688 44.4655C57.6138 44.4414 57.5363 44.4173 57.4363 44.3932C57.3363 44.3691 57.2278 44.3486 57.1106 44.3314C56.9933 44.3141 56.8812 44.3057 56.7748 44.3057C56.5543 44.3057 56.3277 44.341 56.0952 44.4117C55.8626 44.4824 55.6474 44.5936 55.4494 44.7451C55.2513 44.8969 55.0911 45.0905 54.9686 45.3266C54.8461 45.5628 54.785 45.846 54.785 46.1765C54.785 46.4625 54.8376 46.7107 54.9425 46.9208C55.0477 47.1308 55.1907 47.3051 55.3714 47.4429C55.5522 47.5807 55.7554 47.6831 55.9811 47.7506C56.2069 47.8176 56.4402 47.8514 56.6812 47.8514C56.7844 47.8514 56.8989 47.8454 57.025 47.8333C57.1507 47.8213 57.2772 47.8024 57.405 47.7763C57.5323 47.7506 57.648 47.7168 57.7512 47.6755V46.3163H57.2499V47.6184L57.2503 47.618Z" fill="#3D007C"/>
<path d="M60.8313 45.8229C61.0173 45.6799 61.1105 45.4863 61.1105 45.2413C61.1105 45.0518 61.0579 44.8927 60.953 44.7634C60.8478 44.6341 60.7056 44.5361 60.5265 44.469C60.3474 44.4019 60.1457 44.3682 59.922 44.3682H58.8058V47.7894H59.3123V46.1563H59.7104L60.9093 47.8617L61.5089 47.7894L60.124 46.1149C60.41 46.0631 60.6462 45.9659 60.8321 45.8229H60.8313ZM59.6429 46.0013H59.3123V44.6473C59.4019 44.6232 59.5148 44.6027 59.6509 44.5855C59.7871 44.5682 59.9047 44.5597 60.0048 44.5597C60.1425 44.5975 60.2502 44.6521 60.3277 44.7224C60.4052 44.7931 60.461 44.867 60.4956 44.9445C60.5301 45.022 60.5514 45.0911 60.5602 45.1514C60.5687 45.2116 60.5731 45.2506 60.5731 45.2678C60.5731 45.3883 60.5474 45.5048 60.4956 45.6169C60.4438 45.7289 60.3518 45.8209 60.2192 45.8932C60.0867 45.9655 59.8943 46.0016 59.6429 46.0016V46.0013Z" fill="#3D007C"/>
<path d="M62.8106 46.0935H63.9577V45.897H62.8106V44.6411C62.9106 44.6134 63.0034 44.5921 63.0898 44.5764C63.1757 44.5608 63.2689 44.5531 63.3689 44.5531L64.3301 44.7134L64.3819 44.3672H62.3094V47.7884H64.361L64.4128 47.4422L62.8106 47.6024V46.0935Z" fill="#3D007C"/>
<path d="M67.0765 46.1398C66.944 46.0434 66.8042 45.9538 66.658 45.8711C66.5114 45.7884 66.3721 45.7032 66.2395 45.6153C66.107 45.5273 65.9993 45.4309 65.9166 45.3257C65.8339 45.2204 65.7925 45.0991 65.7925 44.9614C65.7925 44.8682 65.8122 44.783 65.8519 44.7055C65.8913 44.628 65.9612 44.5654 66.0612 44.5168C66.2644 44.5168 66.4644 44.5453 66.6608 44.6019C66.8572 44.6585 67.0553 44.7304 67.2553 44.8164L67.3071 44.4649C67.1866 44.4272 67.0436 44.391 66.8781 44.3565C66.7127 44.322 66.5596 44.3047 66.4183 44.3047C66.16 44.3047 65.9515 44.3497 65.7929 44.4392C65.6342 44.5288 65.519 44.6401 65.4467 44.7726C65.3744 44.9051 65.3382 45.0389 65.3382 45.173C65.3382 45.3349 65.3776 45.4755 65.4571 45.5944C65.5362 45.7133 65.6387 45.8165 65.7648 45.9044C65.8905 45.9924 66.0238 46.0731 66.1652 46.1474C66.3066 46.2213 66.4399 46.298 66.5657 46.3776C66.6914 46.4567 66.7938 46.5447 66.8733 46.6411C66.9524 46.7374 66.9922 46.8531 66.9922 46.9873C66.9922 47.2042 66.9223 47.3724 66.7829 47.4909C66.6436 47.6094 66.46 47.6693 66.2327 47.6693C66.119 47.6693 66.0017 47.6536 65.8813 47.6227C65.7608 47.5917 65.6503 47.5548 65.5507 47.5114C65.4507 47.4684 65.3716 47.4331 65.3129 47.4054V47.6484C65.4129 47.6861 65.5531 47.7295 65.7343 47.7777C65.915 47.8259 66.107 47.85 66.3106 47.85C66.5829 47.85 66.8082 47.8078 66.9878 47.7235C67.1669 47.6391 67.3011 47.5239 67.391 47.3773C67.4806 47.2307 67.5256 47.068 67.5256 46.8889C67.5256 46.727 67.4842 46.5856 67.4015 46.4651C67.3187 46.3446 67.2111 46.2362 67.0786 46.1394L67.0765 46.1398Z" fill="#3D007C"/>
</svg>
