<svg width="114" height="38" viewBox="0 0 114 38" fill="none" xmlns="http://www.w3.org/2000/svg">
<path d="M0.0166858 27.0643C0.552655 22.0286 8.62658 17.3635 12.7829 15.2333C13.7476 14.7391 15.6751 13.6729 16.6297 13.4099C16.7126 13.386 16.8765 13.3282 16.8906 13.4418C15.9542 14.3903 15.8672 16.0583 16.5003 17.1921C17.4286 18.8521 21.1379 19.8246 21.5141 21.0063C21.8903 22.188 21.1865 22.7619 20.0518 22.5547C19.0507 22.3733 19.3096 21.2115 19.2853 20.4523H16.0937V22.3016C16.0937 22.6842 16.8421 23.6686 17.1798 23.9237C19.0345 25.3326 23.6722 25.1732 24.471 22.5786C24.9969 20.8748 24.6227 19.428 23.2171 18.324C22.2989 17.6026 20.0721 16.8155 19.4633 16.0722C18.8545 15.3289 19.3804 14.197 20.428 14.3285C21.4089 14.4521 21.3887 15.2831 21.3382 16.0782H24.2445C24.5398 15.7773 24.3699 14.8766 24.2728 14.48C24.0726 13.6669 23.5589 13.0352 22.7843 12.6925C22.5031 12.5669 21.4251 12.266 21.1662 12.266H19.5138L20.6242 11.732C38.9382 4.85694 58.5365 1.00892 78.1691 0.152032C86.9893 -0.232572 104.011 -0.286376 111.278 5.04227C117.018 9.25298 112.526 14.4182 108.378 17.5269C105.231 19.8844 101.675 21.6818 98.1193 23.3597C97.7189 23.4793 98.3195 22.6683 98.3802 22.4949C98.4409 22.3215 98.633 21.634 98.633 21.5105V17.7541H94.3008V19.3802C94.4666 19.715 95.4658 19.4599 95.5547 19.5476C95.5022 20.1394 95.6255 20.8249 95.5547 21.4009C95.4031 22.6702 93.4129 22.732 93.1843 21.4846C92.9902 20.4264 93.0488 16.945 93.152 15.7872C93.2349 14.8666 93.5848 14.3903 94.5839 14.4999C95.5831 14.6095 95.5992 15.5979 95.5507 16.409H98.629C98.7665 14.1711 97.729 12.5809 95.3788 12.3736C92.9356 12.1584 90.4034 12.6207 90.189 15.4505C90.0636 17.0945 90.0474 19.994 90.189 21.626C90.3831 23.832 92.3956 24.5255 94.3675 24.5833C94.6507 24.5913 95.2473 24.2943 95.4374 24.5933C80.9905 30.2627 65.6841 33.9054 50.2178 35.7926C38.924 37.1716 26.0567 37.9069 14.8074 36.1094C10.3275 35.398 0.603218 33.3694 0.0166858 27.8494C-0.00556195 27.6322 -0.00556195 27.2815 0.0166858 27.0643ZM62.6078 16.0762V14.4501C62.6078 13.8284 61.5986 12.9755 61.0424 12.7363C58.8843 11.8097 54.8089 12.2441 54.5137 15.1237C54.1395 18.7644 57.7618 18.6588 59.4587 20.4603C60.3385 21.3929 59.8936 22.8376 58.4717 22.5527C57.4807 22.3554 57.5677 21.2355 57.5899 20.4483H54.3984C54.0444 23.7264 56.3481 24.936 59.3556 24.7069C62.0496 24.5016 63.6615 22.5228 62.7797 19.8864C62.0516 17.7043 58.4839 17.2619 57.6991 15.9128C57.1247 14.9264 58.2331 13.9659 59.2322 14.5179C59.7924 14.8267 59.6286 15.5541 59.6448 16.0742H62.6098L62.6078 16.0762ZM26.6372 24.3741H29.6022L31.3133 14.0575L33.0243 24.3741H35.9893C36.0399 24.3741 36.1795 24.1987 36.1552 24.105L33.9284 12.5948L28.69 12.7104L26.4916 24.121L26.6412 24.3741H26.6372ZM43.5677 12.6008H38.8371C38.6752 12.6985 38.6793 12.824 38.6611 12.9874C38.3719 15.4086 38.7137 18.3758 38.5579 20.8469C38.4872 21.7516 38.2768 23.2242 38.4386 24.0931C38.4629 24.2186 38.4973 24.3023 38.6105 24.3741H41.347L41.5189 24.2067V14.1711L43.5637 24.3242L46.5469 24.3083L48.4703 14.5059L48.7555 24.3721H51.492C51.8318 24.3721 51.5507 23.4016 51.5446 23.2003C51.49 21.4905 51.4657 19.7409 51.4313 18.0431C51.3949 16.2296 51.5446 14.3983 51.3221 12.6008H46.5914L44.9956 21.2355L43.5698 12.6008H43.5677ZM68.6511 12.6008H65.7447L65.5728 12.7682V21.7376C65.5728 25.2828 72.5465 25.6793 73.6872 22.7659C73.7964 22.4869 74.0088 21.7675 74.0088 21.5124V12.7662L73.8369 12.5988H70.9305V21.624C70.9305 22.3275 69.8626 22.6244 69.2498 22.3793C69.09 22.3155 68.6511 21.8632 68.6511 21.7356V12.5968V12.6008ZM81.6479 12.6008H77.2023V24.1489H80.1674L80.1107 15.1775L82.9605 24.1489H87.1228V12.6008H84.1578L84.2144 21.3471L81.6499 12.6008H81.6479Z" fill="#3D007C"/>
</svg>
