<svg width="135" height="18" viewBox="0 0 135 18" fill="none" xmlns="http://www.w3.org/2000/svg">
<path d="M4.06 17.6257H3.92642C3.67077 17.4829 3.31838 17.5889 3.02127 17.559C1.97332 17.4484 1.05435 17.1006 0.199871 16.4903L0.909251 14.0835C0.982953 14.019 2.45469 14.7767 2.70113 14.8711C4.15674 15.4193 6.16972 15.6151 7.06565 14.0374C8.61339 11.3104 4.61737 10.1427 2.92684 9.09937C0.188355 7.40423 -0.977055 4.97898 0.959921 2.07006C2.45008 -0.170937 5.68375 -0.516414 7.9639 0.667421C8.18961 0.784883 8.68479 1.0129 8.68479 1.27316C8.68479 1.83513 8.29555 2.72416 8.2541 3.32299C8.17348 3.42663 8.17809 3.35984 8.10669 3.3345C7.88789 3.2562 7.61381 3.0397 7.36967 2.92915C5.88412 2.25201 3.82278 1.74992 2.90841 3.54409C1.47814 6.34937 5.00891 7.08869 6.76394 8.14815C9.16846 9.59686 10.4651 11.8885 9.21452 14.6431C8.28173 16.6976 6.23881 17.5912 4.06 17.628V17.6257Z" fill="#3D007C"/>
<path d="M93.4984 8.87588C93.4984 13.6135 89.6452 17.4529 84.8937 17.4529C80.1423 17.4529 76.2891 13.6135 76.2891 8.87588C76.2891 4.13823 80.1377 0.298828 84.8914 0.298828C89.6452 0.298828 93.4961 4.13823 93.4961 8.87588H93.4984ZM90.9903 8.88509C90.9903 5.52935 88.261 2.8093 84.8937 2.8093C81.5265 2.8093 78.7972 5.52935 78.7972 8.88509C78.7972 12.2408 81.5265 14.9609 84.8937 14.9609C88.261 14.9609 90.9903 12.2408 90.9903 8.88509Z" fill="#3D007C"/>
<path d="M66.4246 17.1582V9.57149L66.3233 9.47015H57.8752L57.7739 9.57149V17.1582H55.2266V0.513081H57.7739V6.99654H66.4246V0.446289H68.9397L69.041 0.547629V17.0568L68.9397 17.1582H66.4246Z" fill="#3D007C"/>
<path d="M113.901 17.1585H111.185L105.955 9.8735H103.439V17.0594L103.338 17.1608H101.125L101.023 17.0594V0.547925L101.254 0.444282C104.331 0.614717 109.725 -0.44014 111.16 3.2104C112.109 5.62183 111.118 8.76107 108.534 9.63858L113.898 17.1585H113.901ZM103.439 8.1346H107.295C107.323 8.1346 107.744 7.95956 107.822 7.92501C109.948 6.98532 109.824 3.81384 107.776 2.84189C107.498 2.71061 106.705 2.45266 106.422 2.45266H103.437V8.1346H103.439Z" fill="#3D007C"/>
<path d="M27.9212 2.98631H20.2102V7.16428L20.3115 7.26332H25.5743V9.67015H20.2102V14.6842H27.8222L27.9212 14.7832V17.1578H17.5938V0.512695H27.8222L27.9212 0.614035V2.98631Z" fill="#3D007C"/>
<path d="M39.6012 10.2715V17.1557H37.1875V0.512873C40.1241 0.639548 44.3274 -0.0721348 46.6789 2.11589C48.6942 3.99068 48.2359 7.9913 45.9672 9.49758C45.5619 9.76706 44.3872 10.2715 43.9266 10.2715H39.6012ZM42.5839 2.45215C41.628 2.37154 40.5663 2.51203 39.5989 2.45215V8.53485H43.588C44.3918 8.53485 45.4836 7.30956 45.7024 6.56563C46.3864 4.25094 44.8179 2.64101 42.5816 2.45215H42.5839Z" fill="#3D007C"/>
<path d="M120.008 17.1579L125.874 0.512805L128.023 0.441406L134.023 17.1556H131.809L130.305 13.1411L123.626 13.1757L122.221 17.1556H120.008V17.1579ZM124.098 11.7431H129.932L126.952 3.58295L126.452 3.59446L124.098 11.7431Z" fill="#3D007C"/>
</svg>
