<svg width="104" height="47" viewBox="0 0 104 47" fill="none" xmlns="http://www.w3.org/2000/svg">
<path d="M32.0488 25.541C37.9179 25.541 42.6758 30.2989 42.6758 36.168C42.6757 42.037 37.9178 46.7949 32.0488 46.7949C26.1799 46.7948 21.422 42.0369 21.4219 36.168C21.4219 30.299 26.1798 25.5411 32.0488 25.541ZM76.6611 25.624C81.3182 25.624 83.9054 27.4096 84.4229 30.9541L81.8613 31.2129C81.6544 30.0746 81.1373 29.2206 80.3096 28.6514C79.4558 28.1081 78.2138 27.8233 76.584 27.8232C75.0837 27.8232 73.9192 28.1078 73.1172 28.6768C72.2894 29.2459 71.9005 30.0224 71.9004 31.0312C71.9004 32.0143 72.1853 32.713 72.7803 33.1787C73.3494 33.6703 74.4361 34.0841 76.04 34.3945L78.5498 34.8867C80.7231 35.3524 82.2756 36.0251 83.2588 36.9307C84.2418 37.8362 84.7334 39.0004 84.7334 40.4492C84.7334 42.4154 84.0093 43.9163 82.5605 45.0029C81.1117 46.0896 79.0931 46.6064 76.5576 46.6064C71.6419 46.6064 68.8738 44.5883 68.2012 40.5264L70.8398 40.2676C71.3055 43.0359 73.2465 44.4072 76.6357 44.4072C78.3689 44.4072 79.7142 44.0974 80.6455 43.4766C81.5769 42.8557 82.0683 41.9498 82.0684 40.8115C82.0684 39.8284 81.7059 39.0516 81.0332 38.5342C80.3346 38.0169 79.2219 37.6029 77.6699 37.2666L75.1348 36.749C73.0393 36.3351 71.5388 35.6886 70.6074 34.835C69.676 33.9812 69.21 32.7906 69.21 31.29C69.21 29.5308 69.8573 28.1594 71.1768 27.1504C72.4962 26.1416 74.3329 25.624 76.6611 25.624ZM49.7852 39.2852C49.7852 41.0445 50.1731 42.3127 51.001 43.0889C51.8289 43.8649 53.149 44.2529 55.0117 44.2529C56.8481 44.2529 58.1672 43.8647 58.9951 43.0889C59.7972 42.3127 60.2119 41.0445 60.2119 39.2852V26.2197H62.9023V39.0781C62.9023 41.6136 62.2292 43.4764 60.9355 44.6924C59.642 45.9341 57.6503 46.5292 55.0117 46.5293C52.2693 46.5293 50.2765 45.9347 49.0088 44.7188C47.741 43.5286 47.1201 41.6395 47.1201 39.0781V26.2197H49.7852V39.2852ZM2.66504 34.6797H13.5566V26.2197H16.2217V46.0898H13.5566V36.9307H2.66504V46.0898H0V26.2197H2.66504V34.6797ZM103.758 28.3672H92.6582V34.7832H102.904V36.9307H92.6582V43.9424H103.913V46.0898H90.0713V26.2197H103.758V28.3672ZM32.0488 27.8574C27.4594 27.8575 23.7393 31.5785 23.7393 36.168C23.7393 40.7574 27.4594 44.4775 32.0488 44.4775C36.6383 44.4775 40.3593 40.7574 40.3594 36.168C40.3594 31.5784 36.6384 27.8574 32.0488 27.8574ZM32.0488 0C37.9177 0 42.6755 4.75715 42.6758 10.626C42.6758 16.495 37.9179 21.2529 32.0488 21.2529C26.1798 21.2528 21.4219 16.495 21.4219 10.626C21.4221 4.7572 26.18 8.46575e-05 32.0488 0ZM77.916 0C83.7847 0.000236952 88.5417 4.75729 88.542 10.626C88.542 16.4949 83.7849 21.2527 77.916 21.2529C72.047 21.2529 67.2891 16.495 67.2891 10.626C67.2893 4.75715 72.0471 0 77.916 0ZM8.45996 0.0830078C13.1168 0.0830078 15.7041 1.86793 16.2217 5.41211L13.6602 5.6709C13.4531 4.53288 12.936 3.67947 12.1084 3.11035C11.2546 2.56705 10.0127 2.28225 8.38281 2.28223C6.88235 2.28223 5.71805 2.56665 4.91602 3.13574C4.0881 3.70493 3.7002 4.48121 3.7002 5.49023C3.7002 6.47328 3.98414 7.172 4.5791 7.6377C5.14824 8.12922 6.23503 8.54306 7.83887 8.85352L10.3486 9.34473C12.5217 9.81039 14.0745 10.4833 15.0576 11.3887C16.0408 12.2942 16.5322 13.4594 16.5322 14.9082C16.5321 16.8741 15.8079 18.3744 14.3594 19.4609C12.9105 20.5476 10.8919 21.0654 8.35645 21.0654C3.4409 21.0653 0.672666 19.0472 0 14.9854L2.63867 14.7266C3.10437 17.4949 5.04529 18.8662 8.43457 18.8662C10.1679 18.8662 11.513 18.5554 12.4443 17.9346C13.3757 17.3136 13.8672 16.4079 13.8672 15.2695C13.8671 14.2867 13.5055 13.5105 12.833 12.9932C12.1345 12.4758 11.0218 12.0619 9.46973 11.7256L6.93359 11.208C4.83803 10.794 3.33763 10.1467 2.40625 9.29297C1.47498 8.43921 1.00881 7.24948 1.00879 5.74902C1.00879 3.9897 1.6561 2.6184 2.97559 1.60938C4.29501 0.600474 6.13168 0.0830525 8.45996 0.0830078ZM48.8789 9.13867H59.7705V0.678711H62.4355V20.5479H59.7705V11.3896H48.8789V20.5479H46.2139V0.678711H48.8789V9.13867ZM32.0488 2.31641C27.4595 2.31649 23.7395 6.03671 23.7393 10.626C23.7393 15.2155 27.4594 18.9364 32.0488 18.9365C36.6384 18.9365 40.3594 15.2155 40.3594 10.626C40.3591 6.03665 36.6382 2.31641 32.0488 2.31641ZM77.916 2.31641C73.3266 2.31641 69.6057 6.03665 69.6055 10.626C69.6055 15.2155 73.3265 18.9365 77.916 18.9365C82.5054 18.9363 86.2256 15.2154 86.2256 10.626C86.2253 6.0368 82.5052 2.31664 77.916 2.31641Z" fill="#3D007C"/>
</svg>
