<svg width="130" height="36" viewBox="0 0 130 36" fill="none" xmlns="http://www.w3.org/2000/svg">
<path d="M35.4068 17.7034C35.4068 27.4816 27.4816 35.4068 17.7034 35.4068C7.92522 35.4068 0 27.4816 0 17.7034C0 7.92522 7.92522 0 17.7034 0C27.4816 0 35.4068 7.92522 35.4068 17.7034ZM12.44 9.79543C10.8265 9.8623 8.30487 10.05 6.77979 10.4879C5.14039 10.9603 5.10803 13.359 6.6439 13.8055C7.46791 14.0449 9.48481 13.5057 10.4512 13.4021C15.8008 12.837 21.4373 13.6761 26.3685 15.7857C27.0199 16.064 28.6464 17.011 29.2116 17.0325C30.6525 17.0908 31.5607 15.4061 30.6698 14.2067C30.3095 13.7235 28.916 13.1282 28.3142 12.8564C23.4348 10.6518 17.7983 9.56678 12.44 9.79112V9.79543ZM28.0101 19.6318C27.5765 19.2306 26.1873 18.6417 25.5919 18.3829C20.3868 16.1007 14.2693 15.3004 8.65864 16.3768C7.55851 16.5882 6.27934 16.8427 6.58997 18.3246C6.93726 19.9856 8.93043 19.153 10.0068 19.0106C14.7417 18.3786 19.6275 18.9222 24.0259 20.7816C24.6903 21.062 26.403 22.0608 26.9596 22.0823C28.1934 22.1319 28.9462 20.5012 28.0101 19.634V19.6318ZM12.44 21.4438C11.5901 21.4913 10.7079 21.6056 9.87093 21.748C9.4201 21.8256 8.40194 21.9788 8.04386 22.1902C7.22847 22.6669 7.40104 24.0065 8.27467 24.2049C8.80748 24.3257 9.93349 23.9482 10.5396 23.8555C14.5303 23.2472 18.6417 23.767 22.339 25.3417C23.0444 25.6416 23.7908 26.1355 24.453 26.403C25.5272 26.8366 26.4785 25.8443 25.9069 24.8736C25.6157 24.3796 23.2644 23.3378 22.6302 23.0832C19.4679 21.8127 15.8504 21.2518 12.44 21.4417V21.4438Z" fill="#3D007C"/>
<path d="M105.224 13.7061C105.453 13.635 105.252 12.9857 105.257 12.7592C105.302 10.8523 105.945 8.92814 107.806 8.11923C109.176 7.52387 110.805 7.70506 112.125 8.35651C112.444 9.25818 113.046 10.2332 113.32 11.1327C113.35 11.2341 113.367 11.3312 113.354 11.4369C111.508 10.2548 108.986 10.2526 108.889 12.9835C108.881 13.2143 108.831 13.5487 109.006 13.7061H114.565L118.042 21.8751L121.485 13.7061H125.001L117.55 30.7236H113.805L115.997 25.6242L111.799 16.5794H109.001L108.887 16.6937V26.6402H105.371L105.22 16.5816H102.914V13.7083H105.22L105.224 13.7061Z" fill="#3D007C"/>
<path d="M61.0857 16.3529C61.5926 15.7942 61.927 15.1578 62.5223 14.6509C64.6924 12.798 68.1373 13.1409 69.9644 15.3024C73.2971 19.2456 71.3579 27.3671 65.3676 26.8558C63.3377 26.6833 62.3217 25.6543 61.254 24.0904C61.2065 24.0214 61.2669 23.9524 61.0857 23.9912V30.6092L60.9714 30.7235H57.5675L57.4531 30.6092V13.8183L57.5675 13.7039H60.9714L61.0857 13.8183V16.3529ZM64.4724 16.5254C62.8869 16.7131 61.6142 18.1605 61.1245 19.608C60.9476 20.13 61.0253 20.3047 61.2216 20.7922C61.7415 22.0778 63.1436 23.6525 64.6018 23.7647C69.1382 24.112 69.0843 15.9775 64.4702 16.5276L64.4724 16.5254Z" fill="#3D007C"/>
<path d="M55.346 13.631C55.236 13.7453 54.069 12.8587 53.8555 12.7379C52.1018 11.75 48.1133 10.8332 46.7651 12.8026C45.7577 14.2759 47.3194 14.8972 48.4239 15.2941C51.8062 16.5107 56.6791 17.0155 56.2434 21.9013C55.7365 27.5918 47.9278 27.9002 44.0536 25.5641C43.6222 25.3052 43.2274 24.9838 42.8672 24.6322V20.661L44.1593 21.8258C45.8677 23.1999 50.005 24.6128 51.9055 23.1546C52.8416 22.4363 52.8114 20.8896 51.8623 20.1735C49.3558 18.2795 43.2727 19.028 42.8693 14.4183C42.2999 7.9254 51.3403 6.97412 55.3482 10.0329V13.6245L55.346 13.631Z" fill="#3D007C"/>
<path d="M78.6996 13.4281C83.4108 12.9902 87.2634 15.9001 86.8816 20.855C86.3854 27.3048 77.2393 29.106 73.7965 23.9591C70.9858 19.7571 73.6089 13.9027 78.6996 13.4281ZM79.226 16.5257C75.3065 17.0003 75.3561 23.4004 79.2821 23.765C84.7266 24.2697 84.5001 15.8872 79.226 16.5257Z" fill="#3D007C"/>
<path d="M96.5557 13.706V16.5793H93.1518V22.3647C93.1518 22.4855 93.4085 23.0269 93.4969 23.1542C94.2347 24.2155 95.6087 23.7841 96.6312 23.4605V26.0706C94.7826 27.2139 91.4779 27.1254 90.2138 25.1517C89.9657 24.7655 89.5214 23.6331 89.5214 23.1973V16.6936L89.407 16.5793H87.1378L87.0234 16.465V14.8774L93.0008 10.1123L93.1518 10.1878V13.5917L93.2661 13.706H96.5557Z" fill="#3D007C"/>
<path d="M101.552 13.7061H97.9219V26.6401H101.552V13.7061Z" fill="#3D007C"/>
<path d="M99.736 11.8729C100.898 11.8729 101.839 10.9312 101.839 9.76969C101.839 8.60813 100.898 7.6665 99.736 7.6665C98.5744 7.6665 97.6328 8.60813 97.6328 9.76969C97.6328 10.9312 98.5744 11.8729 99.736 11.8729Z" fill="#3D007C"/>
<path d="M129.565 15.4104C129.565 16.489 128.689 17.3647 127.611 17.3647C126.532 17.3647 125.656 16.489 125.656 15.4104C125.656 14.3318 126.532 13.4561 127.611 13.4561C128.689 13.4561 129.565 14.3318 129.565 15.4104ZM129.285 15.4169C129.285 14.4915 128.534 13.7408 127.608 13.7408C126.683 13.7408 125.932 14.4915 125.932 15.4169C125.932 16.3423 126.683 17.0929 127.608 17.0929C128.534 17.0929 129.285 16.3423 129.285 15.4169Z" fill="#3D007C"/>
<path d="M126.891 14.4633C127.35 14.4848 128.334 14.3166 128.45 14.9163C128.511 15.229 128.325 15.4038 128.027 15.4512C127.898 15.6303 128.515 16.1782 128.478 16.2041C127.885 16.368 127.885 15.8309 127.607 15.6022C127.074 15.16 127.335 16.1415 127.268 16.2062H126.891V14.4654V14.4633ZM127.268 15.2204C128.366 15.352 128.362 14.6337 127.268 14.7653V15.2204Z" fill="#3D007C"/>
</svg>
