<svg width="46" height="54" viewBox="0 0 46 54" fill="none" xmlns="http://www.w3.org/2000/svg">
<path d="M33.3914 0C33.204 5.48857 36.9557 10.5164 41.9707 12.2729C43.26 12.7249 44.6291 13.0356 46 12.9597V22.1414C42.2396 22.0249 38.4168 21.1404 35.1632 19.1985C34.6807 18.9107 34.0925 18.3953 33.6187 18.1658C33.5407 18.1287 33.4869 18.081 33.3914 18.1057V37.998C32.7268 47.7606 24.1233 55.1734 14.4855 53.8458C1.49863 52.0558 -4.47943 36.4215 3.82044 26.0835C7.4628 21.5482 13.25 19.2709 18.9886 19.9929V29.4342C14.5462 27.983 9.81238 30.88 9.02282 35.5424C8.04759 41.3152 13.2153 46.1576 18.7959 44.5087C21.9143 43.5872 24.1111 40.632 24.3037 37.3484L24.3003 0H33.3897L33.3914 0Z" fill="#3D007C"/>
</svg>
