<svg width="99" height="26" viewBox="0 0 99 26" fill="none" xmlns="http://www.w3.org/2000/svg">
<path d="M69.4028 0.645508V0.902926H67.017V19.1591C66.9778 21.8378 67.834 24.2982 70.798 24.7179C73.7621 25.1376 76.4706 23.7889 77.6513 21.142C77.7036 21.0263 77.9834 20.3641 77.9834 20.3138V0.902926H75.2749V0.645508H97.689L97.7859 0.742506V9.33805H97.592C97.3868 6.71163 96.7414 3.67671 94.3873 2.13965C92.1638 0.688411 89.3676 0.835774 86.8214 0.968214V12.0428H88.5954C88.9423 12.0428 89.75 11.8078 90.0914 11.6679C91.5277 11.0803 91.9437 9.87154 92.2197 8.44828C92.2794 8.14609 92.216 7.46337 92.563 7.53425V17.0961C92.563 17.1651 92.3764 17.2192 92.3056 17.193C92.1582 15.8351 91.8709 14.3279 90.7872 13.3952C89.7034 12.4625 88.2279 12.1939 86.8214 12.4271V24.2739C87.7746 24.2049 88.7521 24.3523 89.6941 24.3411C94.682 24.2851 97.6255 21.0842 98.0434 16.2566C98.0695 15.947 97.8885 15.268 98.3027 15.324V24.5313H80.6284V24.2739H82.6281V0.902926H78.4031L78.3061 0.999925V20.3809C78.3061 21.1905 76.784 23.1006 76.1441 23.6304C72.8145 26.3855 64.8009 25.1824 63.2937 20.8156C62.8311 19.4744 63.1314 18.2134 62.9524 16.8424L62.9561 0.902926H60.5703V0.645508H69.4065H69.4028Z" fill="#3D007C"/>
<path d="M27.9121 0.149377C33.1519 -0.292712 37.5056 4.18413 38.8207 8.924C40.9099 16.4488 34.9221 27.0851 26.1046 24.6433C19.9023 22.9253 17.0502 14.4417 18.7645 8.7244C19.9452 4.78478 23.5752 0.514986 27.9121 0.149377ZM28.1696 0.341508C22.9074 0.828365 22.6836 8.77477 22.7022 12.6491C22.7209 16.4731 22.5698 23.8412 27.5242 24.6415C33.982 25.6842 34.5192 18.6014 34.6946 14.0015C34.8643 9.56941 34.9091 -0.283385 28.1696 0.341508Z" fill="#3D007C"/>
<path d="M58.1774 0V8.56383L58.0319 8.48362C57.4276 5.53823 55.7245 1.86162 52.7586 0.677123C45.1461 -2.36154 45.5024 10.6306 45.6628 14.9079C45.7691 17.7656 46.3138 23.2087 49.3618 24.479C51.2141 25.2513 54.1688 24.5686 55.2209 22.7722C55.3291 22.5876 55.7264 21.7612 55.7264 21.6026V14.809H53.6614V14.4863H61.7235V14.809H59.7238V24.5965C59.4869 24.5275 59.4291 24.1582 59.2612 23.9325C57.879 22.0708 54.6463 24.1619 52.9843 24.6637C48.5765 25.9955 44.5548 23.0352 42.7043 19.2131C39.841 13.3 40.9602 5.84974 46.3138 1.77955C48.5802 0.057826 50.4922 -0.350686 53.2585 0.436492C54.8702 0.895369 56.4091 2.01831 57.8529 0.356282C57.9592 0.233169 57.976 -0.0130575 58.1756 0.00186535L58.1774 0Z" fill="#3D007C"/>
<path d="M8.83617 0.645508V0.966348H6.64438L12.9008 18.0287L18.5118 0.966348H16.3181V0.645508H20.9628V0.966348H18.8345L11.222 24.7888L2.48278 0.966348H0V0.645508H8.83617Z" fill="#3D007C"/>
</svg>
