<svg width="58" height="41" viewBox="0 0 58 41" fill="none" xmlns="http://www.w3.org/2000/svg">
<path d="M23.2783 0.0394151C30.1666 -0.06191 37.0567 0.0394151 43.9237 0.259842C47.0897 0.361167 51.7293 0.247398 54.2607 2.40545C56.792 4.56349 57.2489 8.03521 57.5564 11.0572C58.1981 17.3696 58.1821 24.0108 57.2542 30.293C56.5485 35.0695 55.5103 38.7723 50.0494 39.334C46.6275 39.686 43.01 39.7838 39.5667 39.9206C31.2581 40.2495 22.9174 39.9171 14.607 39.7446C11.8979 39.6878 9.09099 39.6949 6.44943 39.0123C1.47205 37.727 0.805441 32.675 0.385919 28.3002C-0.218476 21.9861 -0.124261 15.2844 0.748557 9.0058C1.06142 6.75709 1.36362 4.49239 3.00615 2.78764C5.27441 0.435828 8.35505 0.66692 11.3664 0.492712C15.3234 0.263397 19.3035 0.098077 23.2783 0.0394151ZM23.289 28.4478L38.0664 20.0022L23.289 11.5567V28.4478Z" fill="#3D007C"/>
</svg>
