<svg width="20" height="16" viewBox="0 0 20 16" fill="none" xmlns="http://www.w3.org/2000/svg">
<path d="M16.188 12.3696C16.1309 12.3316 16.1118 12.2745 16.0928 12.2173C15.9786 11.8938 15.8453 11.5892 15.7311 11.2656C15.2743 10.0665 14.8175 8.84827 14.3607 7.64911C13.8848 6.41188 13.428 5.15561 12.9521 3.91838C12.9331 3.86128 12.9141 3.82321 12.9141 3.7661C12.9521 3.7661 12.9712 3.74707 13.0092 3.74707C13.3709 3.74707 13.7135 3.74707 14.0752 3.74707C14.1513 3.74707 14.1894 3.78514 14.2084 3.84224C14.3226 4.14679 14.4368 4.45134 14.532 4.75589C14.7985 5.49823 15.084 6.24057 15.3505 7.00194C15.6931 7.91559 16.0167 8.8102 16.3593 9.72385C16.4544 9.9713 16.5306 10.2187 16.6258 10.4662C16.6448 10.5043 16.6448 10.5423 16.6829 10.5804C16.74 10.5614 16.74 10.5233 16.74 10.4852C16.8161 10.2378 16.8922 9.99033 16.9684 9.74288C17.1397 9.20992 17.311 8.67696 17.4633 8.144C17.6726 7.4778 17.882 6.8116 18.0914 6.16443C18.2627 5.6505 18.415 5.13658 18.5863 4.62265C18.6624 4.39424 18.7386 4.16583 18.8147 3.91838C18.8337 3.88031 18.8337 3.86128 18.8528 3.82321C18.8718 3.78514 18.8908 3.7661 18.9289 3.7661C19.0812 3.7661 19.2335 3.7661 19.3667 3.7661C19.4048 3.80417 19.3857 3.84224 19.3857 3.88031C19.3286 4.03259 19.2715 4.20389 19.2144 4.35617C18.7386 5.61244 18.2817 6.8687 17.8059 8.12497C17.292 9.4764 16.7971 10.8469 16.2831 12.1983C16.2641 12.2364 16.2451 12.2935 16.226 12.3316C16.226 12.3316 16.207 12.3506 16.188 12.3696Z" fill="#D95484"/>
<path d="M14.7659 2.96753C14.7659 2.91043 14.804 2.91043 14.8421 2.8914C14.9563 2.85333 15.0515 2.77719 15.1466 2.70105C15.337 2.54878 15.4512 2.35844 15.5273 2.13002C15.6415 1.80644 15.6605 1.48286 15.5273 1.15927C15.4321 0.911825 15.2989 0.721482 15.0895 0.569208C14.785 0.340796 14.4233 0.245624 14.0617 0.22659C13.8142 0.207556 13.5858 0.22659 13.3384 0.283693C12.9006 0.397899 12.577 0.645345 12.3295 1.02603C12.1392 1.33058 12.025 1.6732 11.9489 2.01582C11.8918 2.30133 11.8918 2.56781 11.8918 2.85333C11.8918 3.38629 11.8537 3.91925 11.8156 4.45221C11.6633 6.8315 11.5111 8.1068 11.3398 8.6017C11.2827 8.77301 11.2065 8.94432 11.1113 9.11562C10.8639 9.61052 10.5213 10.0673 10.1025 10.429C9.72184 10.7716 9.32212 11.0571 8.90336 11.3426C8.86529 11.3617 8.82722 11.3997 8.78916 11.4378C8.78916 11.4378 8.78915 11.4568 8.77012 11.4759C8.80819 11.4949 8.82722 11.4759 8.86529 11.4568C8.9795 11.3997 9.09371 11.3426 9.20791 11.2855C9.5315 11.1523 9.85508 11.0762 10.1977 11.0571C10.4642 11.0381 10.7307 11.0571 10.9781 11.1142C11.2256 11.1713 11.454 11.2665 11.6824 11.3807C12.1011 11.6282 12.4818 11.9137 12.8244 12.2563C13.1861 12.6179 13.4906 12.9986 13.8142 13.3793C14.0807 13.6839 14.3472 13.9884 14.6137 14.2739C14.8421 14.5023 15.0895 14.7117 15.356 14.864C15.6796 15.0543 16.0222 15.1114 16.3839 15.0353C16.7645 14.9592 17.0501 14.7308 17.2023 14.3691C17.4307 13.8361 17.2214 13.208 16.7455 12.9035C16.7074 12.8844 16.6694 12.8464 16.6313 12.8273C16.6313 12.8273 16.6123 12.7893 16.6313 12.7893C16.6313 12.7702 16.6694 12.7702 16.6694 12.7702C17.0501 12.9606 17.2975 13.2651 17.3736 13.6839C17.4307 13.9503 17.3736 14.2168 17.2785 14.4833C17.1452 14.8069 16.9359 15.0543 16.6313 15.2256C16.4219 15.3399 16.2125 15.435 15.9651 15.4731C15.5654 15.5302 15.1847 15.4921 14.804 15.3779C14.6517 15.3208 14.4804 15.2447 14.3281 15.1685C13.9094 14.9401 13.5287 14.6546 13.1671 14.3501C12.9006 14.1217 12.6341 13.8552 12.3866 13.6077C12.0631 13.2841 11.7204 12.9606 11.3778 12.656C10.9591 12.2944 10.5022 11.9708 9.96929 11.7614C9.83605 11.7043 9.7028 11.6662 9.56956 11.6472C9.28405 11.5901 8.99853 11.5711 8.71302 11.6282C8.63688 11.6472 8.57978 11.6662 8.50364 11.6853C8.25619 11.7804 8.02779 11.8756 7.79937 12.0279C7.74227 12.0659 7.68517 12.104 7.60903 12.1421C7.60903 12.1421 7.57096 12.1421 7.57096 12.123C7.57096 12.104 7.55193 12.085 7.57096 12.085C7.58999 12.0659 7.62806 12.0279 7.66613 12.0088C7.83744 11.8946 8.00875 11.7614 8.18006 11.6472C8.50364 11.4188 8.77012 11.1333 9.01757 10.8097C9.15081 10.6384 9.28405 10.448 9.39826 10.2577C9.5315 10.0293 9.6457 9.78183 9.74087 9.53438C9.89315 9.13466 10.0074 8.7159 10.0645 8.29715C10.1406 7.72612 10.2167 6.45082 10.35 3.95732C10.35 3.70987 10.369 3.48146 10.369 3.23401C10.388 2.8914 10.4261 2.54878 10.5213 2.20616C10.5784 1.99678 10.6545 1.78741 10.7497 1.59706C10.8449 1.36865 10.9781 1.17831 11.1304 0.987963C11.3588 0.721483 11.6253 0.49307 11.9489 0.340796C12.2724 0.188521 12.596 0.0743152 12.9386 0.0362465C13.4145 -0.0208565 13.9094 -0.0208569 14.3852 0.112383C14.6327 0.188521 14.8421 0.283693 15.0515 0.435967C15.4702 0.759551 15.6605 1.17831 15.6225 1.71127C15.6034 2.11099 15.4321 2.43457 15.1276 2.70105C15.0134 2.79623 14.8801 2.87236 14.7469 2.91043C14.804 2.98657 14.785 2.98657 14.7659 2.96753Z" fill="#D95484"/>
<path d="M4.08367 4.20357C4.06464 4.18454 4.06464 4.1655 4.06464 4.14647C4.06464 4.12743 4.08367 4.1084 4.10271 4.1084C4.12174 4.1084 4.12174 4.1084 4.14078 4.1084C4.15981 4.1084 4.19788 4.1084 4.21691 4.1084C4.31208 4.1084 4.42629 4.12743 4.52146 4.14647C4.57857 4.14647 4.61663 4.1655 4.67374 4.1655C4.78794 4.18454 4.90215 4.20357 5.01636 4.24164C5.16863 4.29874 5.33994 4.33681 5.49221 4.41295C5.62545 4.47005 5.73966 4.52715 5.85387 4.60329C5.91097 4.64136 5.96807 4.67943 6.02517 4.7175C6.12034 4.79364 6.23455 4.86977 6.32972 4.94591C6.44393 5.04108 6.5391 5.15529 6.63427 5.26949C6.72945 5.36466 6.78655 5.47887 6.86269 5.59308C6.91979 5.68825 6.95786 5.78342 7.01496 5.89763C7.05303 5.97376 7.07206 6.0499 7.11013 6.12604C7.12917 6.16411 7.12917 6.18314 7.12917 6.22121C7.1482 6.29735 7.16723 6.39252 7.18627 6.46866C7.18627 6.50672 7.2053 6.56383 7.2053 6.6019V6.62093C7.24337 6.77321 7.24337 6.92548 7.24337 7.05872C7.24337 7.15389 7.24337 7.24906 7.22434 7.3252C7.22434 7.43941 7.18627 7.57265 7.16723 7.68685C7.16723 7.70589 7.16723 7.72492 7.1482 7.72492C7.12917 7.78203 7.11013 7.85816 7.0911 7.91527C7.07206 7.97237 7.05303 8.01044 7.03399 8.06754C6.97689 8.18175 6.91979 8.29595 6.84365 8.41016C6.82462 8.44823 6.78655 8.4863 6.76751 8.50533C6.69138 8.6005 6.5962 8.69567 6.52007 8.79084C6.44393 8.86698 6.34876 8.94312 6.25359 9.00022C6.23455 9.00022 6.23455 9.01926 6.21552 9.01926C6.10131 9.09539 5.98711 9.13346 5.85387 9.17153C5.8158 9.19057 5.75869 9.19057 5.70159 9.2096C5.56835 9.24767 5.45414 9.24767 5.3209 9.24767C5.2638 9.24767 5.22573 9.24767 5.16863 9.24767C5.09249 9.24767 5.01635 9.22864 4.94022 9.2096C4.86408 9.19057 4.78794 9.17153 4.71181 9.13346C4.6547 9.11443 4.5976 9.07636 4.5405 9.03829C4.40726 8.94312 4.31209 8.82891 4.25498 8.69567C4.25498 8.67664 4.23595 8.65761 4.23595 8.63857C4.21691 8.58147 4.21691 8.50533 4.19788 8.44823C4.19788 8.35306 4.19788 8.25788 4.19788 8.16271C4.19788 7.72492 4.19788 7.2681 4.19788 6.83031C4.19788 6.73514 4.19788 6.63997 4.17884 6.56383C4.15981 6.41155 4.10271 6.24024 4.00754 6.107C3.95043 6.03087 3.8743 5.95473 3.77912 5.91666C3.68395 5.87859 3.60781 5.85956 3.51264 5.85956C3.47457 5.85956 3.45554 5.85956 3.41747 5.85956L3.39844 5.84052C3.39844 5.82149 3.39844 5.82149 3.41747 5.80245C3.4365 5.80245 3.4365 5.80245 3.45554 5.78342C3.49361 5.78342 3.51264 5.76439 3.55071 5.76439C3.60781 5.76439 3.66492 5.74535 3.74105 5.74535C3.77912 5.74535 3.81719 5.74535 3.83622 5.74535C3.96947 5.74535 4.08367 5.76439 4.21691 5.80245C4.38822 5.84052 4.5405 5.89763 4.67374 6.01183C4.71181 6.0499 4.74987 6.06893 4.76891 6.107C4.88311 6.24024 4.95925 6.37348 4.99732 6.54479C4.99732 6.58286 5.01636 6.6019 5.01636 6.63997C5.03539 6.75417 5.03539 6.86838 5.03539 7.00162C5.03539 7.42037 5.03539 7.83913 5.03539 8.23885C5.03539 8.33402 5.03539 8.44823 5.05442 8.5434C5.05442 8.63857 5.09249 8.73374 5.13056 8.80988C5.18766 8.92409 5.28283 8.98119 5.41608 9.00022C5.49221 9.01926 5.56835 9.00022 5.64449 9.00022C5.77773 8.98119 5.89193 8.96215 6.02517 8.92409C6.12034 8.88602 6.21552 8.84795 6.31069 8.79084C6.38683 8.75278 6.44393 8.69567 6.50103 8.63857C6.5391 8.6005 6.59621 8.56243 6.63427 8.50533C6.65331 8.4863 6.69138 8.44823 6.71041 8.41016C6.80558 8.29595 6.86269 8.18175 6.91979 8.06754C6.97689 7.95333 7.01496 7.82009 7.05303 7.70589C7.07206 7.62975 7.0911 7.55361 7.11013 7.47748C7.12917 7.3252 7.1482 7.17293 7.1482 7.02065C7.1482 6.88741 7.12917 6.77321 7.12917 6.63997C7.11013 6.46866 7.07206 6.29735 7.01496 6.12604C6.97689 5.9928 6.93882 5.87859 6.88172 5.76439C6.80558 5.63115 6.72945 5.4979 6.63427 5.36466C6.55814 5.26949 6.482 5.17432 6.38683 5.07915C6.31069 5.00301 6.21552 4.92688 6.12034 4.85074C5.9871 4.73653 5.83483 4.64136 5.68256 4.56522C5.54932 4.48909 5.41608 4.43198 5.28284 4.39391C5.1496 4.33681 5.01635 4.29874 4.88311 4.26067C4.80698 4.24164 4.73084 4.2226 4.6547 4.20357C4.55953 4.18454 4.44533 4.1655 4.35015 4.14647C4.29305 4.14647 4.21691 4.14647 4.14078 4.12743C4.14078 4.20357 4.10271 4.20357 4.08367 4.20357Z" fill="#D95484"/>
<path d="M3.04987 9.22909C2.99277 9.22909 2.9547 9.22909 2.89759 9.22909C2.82146 9.22909 2.74532 9.21006 2.66918 9.17199C2.57401 9.13392 2.49787 9.09585 2.4027 9.03875C2.2885 8.96261 2.21236 8.84841 2.17429 8.71517C2.13622 8.61999 2.11719 8.52482 2.11719 8.42965C2.11719 8.33448 2.13622 8.23931 2.15526 8.14414C2.17429 8.02993 2.25043 7.93476 2.30753 7.82055C2.3456 7.76345 2.38367 7.72538 2.44077 7.66828C2.51691 7.61117 2.59304 7.55407 2.66918 7.516C2.74532 7.47793 2.84049 7.42083 2.91663 7.4018C2.99277 7.38276 3.04987 7.36373 3.12601 7.34469C3.24021 7.32566 3.33538 7.30662 3.44959 7.28759C3.46863 7.28759 3.46862 7.28759 3.48766 7.28759C3.5638 7.28759 3.63993 7.28759 3.69704 7.26855C3.71607 7.26855 3.73511 7.26855 3.73511 7.26855C3.75414 7.26855 3.75414 7.26856 3.75414 7.28759C3.75414 7.30662 3.75414 7.30662 3.73511 7.32566H3.71607C3.69704 7.32566 3.678 7.34469 3.678 7.34469C3.60186 7.36373 3.52573 7.38276 3.44959 7.42083C3.41152 7.43986 3.39249 7.4589 3.35442 7.47793C3.29732 7.516 3.24021 7.55407 3.18311 7.61117C3.12601 7.66828 3.08794 7.72538 3.04987 7.80152C3.0118 7.87765 2.99277 7.95379 2.97373 8.02993C2.9547 8.14413 2.93566 8.25834 2.9547 8.39158C2.9547 8.46772 2.9547 8.52482 2.97373 8.60096C2.99277 8.6771 3.0118 8.75323 3.0689 8.82937C3.14504 8.94358 3.25925 9.01971 3.39249 9.05778C3.44959 9.05778 3.50669 9.05778 3.56379 9.05778C3.6209 9.05778 3.69704 9.03875 3.75414 9.01971C3.77317 9.01971 3.77317 9.01971 3.79221 9.01971C3.79221 9.01971 3.81124 9.01971 3.81124 9.03875V9.05778L3.79221 9.07682C3.63993 9.15295 3.48766 9.21006 3.33538 9.22909C3.29731 9.22909 3.24021 9.24813 3.20214 9.24813C3.14504 9.24813 3.10697 9.22909 3.04987 9.22909Z" fill="#D95484"/>
<path d="M0 7.93478C0 7.7254 1.16148e-06 7.53506 0.0190355 7.36375C0.0380698 7.26858 0.0380693 7.1734 0.0571036 7.07823C0.0761379 7.0021 0.0951728 6.94499 0.114207 6.86886C0.152276 6.71658 0.209378 6.56431 0.247447 6.43107C0.247447 6.41203 0.266482 6.393 0.266482 6.37396C0.285517 6.33589 0.304549 6.29783 0.323583 6.24072C0.380686 6.12652 0.437791 6.01231 0.494894 5.89811C0.513928 5.87907 0.513928 5.86004 0.532962 5.841C0.551996 5.80293 0.571029 5.76486 0.609098 5.7268C0.647167 5.68873 0.666201 5.63162 0.70427 5.59356C0.742338 5.53645 0.780408 5.49838 0.818477 5.44128C0.856546 5.40321 0.894614 5.34611 0.951717 5.30804C1.06592 5.1748 1.19916 5.06059 1.3324 4.94639C1.48468 4.83218 1.63695 4.73701 1.78923 4.64184C1.8273 4.62281 1.84633 4.60377 1.8844 4.58474C2.01764 4.5086 2.15088 4.4515 2.30316 4.39439C2.47446 4.33729 2.64577 4.28019 2.81708 4.22308C2.85515 4.20405 2.91225 4.20405 2.95032 4.18502C2.98839 4.18502 3.02646 4.16598 3.06453 4.16598C3.19777 4.14695 3.33101 4.12791 3.46425 4.10888C3.48328 4.10888 3.52135 4.10888 3.54039 4.08984C3.55942 4.08984 3.57846 4.08984 3.57846 4.12791C3.57846 4.14695 3.57846 4.14695 3.57846 4.16598C3.57846 4.18502 3.55942 4.20405 3.54039 4.20405H3.52135C3.42618 4.20405 3.33101 4.22308 3.23584 4.22308C3.19777 4.22308 3.1597 4.24212 3.12163 4.24212C3.0455 4.26115 2.98839 4.26115 2.91225 4.28019C2.70288 4.31826 2.4935 4.39439 2.28412 4.47053C2.11281 4.52763 1.96054 4.6228 1.80826 4.69894C1.65599 4.79411 1.50371 4.88929 1.37047 4.98446C1.29433 5.04156 1.2182 5.1177 1.14206 5.19384C0.989785 5.32708 0.856547 5.47935 0.742341 5.65066C0.647169 5.76486 0.571031 5.8981 0.494894 6.03135C0.47586 6.08845 0.437789 6.12652 0.418755 6.18362C0.342617 6.33589 0.285514 6.5072 0.228411 6.65948C0.209377 6.73562 0.190345 6.81175 0.171311 6.88789C0.171311 6.92596 0.152275 6.94499 0.152275 6.98306C0.133241 7.07823 0.114207 7.19244 0.114207 7.28761C0.114207 7.34472 0.0951717 7.40182 0.0951717 7.47796C0.0951717 7.57313 0.0951734 7.64926 0.0761391 7.74443C0.0761391 7.76347 0.0761391 7.76347 0.0761391 7.7825C0.0761391 7.87768 0.0761373 7.99188 0.0951717 8.08705C0.0951717 8.10609 0.0951717 8.14416 0.0951717 8.16319C0.114206 8.25836 0.114205 8.35353 0.13324 8.46774C0.13324 8.50581 0.152275 8.54388 0.152275 8.58195C0.17131 8.63905 0.190343 8.71519 0.190343 8.77229C0.209378 8.84843 0.228413 8.92456 0.247447 9.0007C0.30455 9.17201 0.361653 9.34332 0.43779 9.49559C0.456825 9.53366 0.47586 9.57173 0.494894 9.62883C0.571031 9.80014 0.685235 9.95242 0.799441 10.1047C0.799441 10.1237 0.818477 10.1237 0.818477 10.1428C0.87558 10.2189 0.951717 10.295 1.00882 10.3521C1.04689 10.3902 1.08496 10.4283 1.12303 10.4663C1.29434 10.6377 1.48468 10.7899 1.69406 10.9041C1.8844 11.0183 2.07474 11.0945 2.26509 11.1897C2.39833 11.2468 2.53157 11.2848 2.66481 11.3039C2.75998 11.3229 2.85515 11.3419 2.95032 11.3419C3.02646 11.3419 3.1026 11.361 3.19777 11.361C3.35004 11.38 3.50232 11.38 3.65459 11.38C3.7688 11.38 3.90204 11.361 4.01625 11.361C4.07335 11.361 4.13045 11.3419 4.16852 11.3419C4.22562 11.3419 4.30176 11.3229 4.35886 11.3229C4.41597 11.3229 4.47307 11.3039 4.53017 11.2848C4.56824 11.2848 4.60631 11.2658 4.66341 11.2468C4.68245 11.2468 4.68245 11.2468 4.70148 11.2468C4.72051 11.2468 4.73955 11.2848 4.73955 11.3039L4.72052 11.3229C4.68245 11.3419 4.64438 11.3419 4.62534 11.361C4.4921 11.399 4.33983 11.4371 4.20659 11.4561C4.09238 11.4752 3.97818 11.4752 3.86397 11.4752C3.7688 11.4752 3.65459 11.4942 3.55942 11.4942C3.50232 11.4942 3.44522 11.4942 3.38811 11.4942C3.33101 11.4942 3.27391 11.4942 3.2168 11.4942C3.17874 11.4942 3.14067 11.4942 3.1026 11.4752C3.02646 11.4561 2.93129 11.4561 2.85515 11.4371C2.77901 11.4181 2.72191 11.399 2.64577 11.399C2.47447 11.361 2.30315 11.3039 2.13184 11.2277C2.05571 11.1896 1.97957 11.1516 1.90343 11.1135C1.78923 11.0564 1.69406 10.9993 1.59889 10.9422C1.46565 10.8661 1.35144 10.7709 1.23723 10.6757C1.19916 10.6567 1.18013 10.6186 1.14206 10.5996C1.12303 10.5806 1.10399 10.5615 1.08496 10.5425C0.970751 10.4283 0.856545 10.3141 0.761373 10.1999C0.666202 10.0666 0.571031 9.95242 0.494894 9.80014C0.399722 9.62883 0.323584 9.47656 0.247447 9.30525C0.209378 9.22911 0.190345 9.15298 0.171311 9.07684C0.114208 8.9436 0.0951723 8.79132 0.0571036 8.65808C0.0380693 8.56291 0.0190343 8.44871 0 8.35353C0 8.18223 0.0190343 8.02995 0 7.93478Z" fill="#D95484"/>
<path d="M2.78921 7.04021C2.75114 7.04021 2.71307 7.04021 2.69404 7.02118C2.57983 6.98311 2.52273 6.90697 2.48466 6.8118C2.44659 6.71663 2.44659 6.62146 2.46563 6.52629C2.48466 6.46919 2.5037 6.41208 2.54177 6.33594C2.57984 6.25981 2.65597 6.18367 2.73211 6.12657C2.78921 6.0885 2.86535 6.05043 2.94149 6.01236C2.99859 5.99333 3.05569 5.99333 3.09376 6.05043C3.13183 6.10753 3.1699 6.16463 3.20797 6.22174C3.227 6.27884 3.24604 6.33594 3.24604 6.41208C3.24604 6.45015 3.24604 6.48822 3.24604 6.52629C3.24604 6.6976 3.20797 6.83084 3.07473 6.94504C3.01762 6.98311 2.96052 7.02118 2.88438 7.02118C2.84631 7.04021 2.80824 7.04021 2.78921 7.04021Z" fill="#D95484"/>
</svg>
