<svg width="19" height="16" viewBox="0 0 19 16" fill="none" xmlns="http://www.w3.org/2000/svg">
<path d="M11.5377 13.6048C11.5567 13.6238 11.5758 13.6429 11.5758 13.6429L11.5567 13.6619C11.4996 13.6619 11.4425 13.6809 11.3854 13.6809C11.3093 13.6809 11.2331 13.6809 11.157 13.7C11.138 13.7 11.0999 13.7 11.0809 13.7C10.6621 13.7 10.2434 13.7 9.82461 13.7C9.52006 13.7 9.21551 13.7 8.91096 13.7C8.68255 13.7 8.47317 13.6809 8.24476 13.6809C8.20669 13.6809 8.16862 13.6809 8.13055 13.6809C8.09248 13.6809 8.03538 13.6809 7.99731 13.6809C7.90214 13.6619 7.80697 13.6619 7.7118 13.6619C7.61663 13.6619 7.52146 13.6429 7.42628 13.6238C7.42628 13.5667 7.42628 13.5477 7.36918 13.5477C7.23594 13.5287 7.1027 13.4906 6.95043 13.4906C6.81719 13.4715 6.66491 13.4335 6.53167 13.3954C6.4936 13.3954 6.45553 13.3764 6.4365 13.3573C6.3794 13.3383 6.32229 13.3573 6.26519 13.4144C6.11292 13.5667 5.96064 13.738 5.80837 13.8903C5.75126 13.9664 5.67513 14.0235 5.59899 14.0806C5.33251 14.3091 5.04699 14.5375 4.74244 14.7278C4.45693 14.9182 4.15238 15.0704 3.84783 15.2227C3.69555 15.2988 3.50521 15.3559 3.3339 15.4131C3.25777 15.4321 3.18163 15.4702 3.12452 15.4892C3.04839 15.5082 2.99128 15.5273 2.91515 15.5463C2.81998 15.5653 2.70577 15.6034 2.6106 15.6224C2.40122 15.6605 2.19184 15.6986 1.98247 15.6986C1.73502 15.7176 1.48757 15.6986 1.24013 15.6605H1.22109C1.14495 15.6415 1.12592 15.5844 1.14495 15.5082C1.16399 15.4892 1.18302 15.4511 1.18302 15.4321C1.37337 15.1846 1.54468 14.9562 1.73502 14.7088C1.84922 14.5755 1.9444 14.4233 2.0586 14.29C2.21088 14.0806 2.38219 13.8713 2.53446 13.6619C2.62963 13.5477 2.70577 13.4144 2.80094 13.3002C2.85804 13.2241 2.91515 13.148 2.97225 13.0718C3.04839 12.9576 3.14356 12.8434 3.2197 12.7292C3.2197 12.7102 3.23873 12.7102 3.23873 12.6911C3.2768 12.634 3.25776 12.596 3.20066 12.5769C3.18163 12.5579 3.14356 12.5579 3.10549 12.5389C2.83901 12.4437 2.57253 12.3295 2.32508 12.1962C2.17281 12.1201 2.0015 12.0249 1.84922 11.9488C1.83019 11.9298 1.81116 11.9298 1.77309 11.9107C1.67792 11.8536 1.56371 11.7965 1.46854 11.7204C1.41144 11.6823 1.3353 11.6252 1.27819 11.5872C1.20206 11.53 1.12592 11.4729 1.04978 11.4158C0.973645 11.3587 0.897508 11.3016 0.840405 11.2255C0.745234 11.1303 0.650062 11.0352 0.55489 10.94C0.402616 10.7877 0.288409 10.6164 0.193238 10.4261C0.1171 10.2928 0.0409628 10.1405 0.0219285 9.98827C0.0219285 9.93116 0.00289441 9.87406 0.00289441 9.83599C0.00289441 9.72179 0.00289441 9.60758 0.00289441 9.49337C-0.0161399 9.26496 0.0599974 9.07462 0.193238 8.90331C0.326478 8.71297 0.478753 8.54166 0.650062 8.38938C0.669096 8.37035 0.68813 8.35131 0.726199 8.33228C0.840405 8.25614 0.935577 8.18 1.04978 8.08483C1.14495 8.0087 1.25916 7.93256 1.35433 7.85642C1.3924 7.83739 1.43047 7.79932 1.46854 7.78028C1.77309 7.62801 2.09667 7.47574 2.40122 7.36153C2.76287 7.22829 3.14356 7.09505 3.50521 6.98084C3.65749 6.94277 3.79073 6.9047 3.943 6.86664C3.96204 6.86664 3.96204 6.86664 3.98107 6.8476C4.24755 6.77146 4.51403 6.71436 4.79955 6.65726C5.00892 6.61919 5.2183 6.58112 5.42768 6.54305C5.54188 6.52402 5.65609 6.48595 5.7703 6.44788C5.84643 6.42885 5.94161 6.40981 6.01774 6.40981C6.13195 6.39078 6.26519 6.39078 6.3794 6.39078C6.47457 6.39078 6.56974 6.37174 6.66491 6.37174C6.83622 6.35271 7.00753 6.35271 7.19787 6.33367C7.42628 6.31464 7.67373 6.29561 7.90214 6.25754C8.05442 6.2385 8.16862 6.1814 8.26379 6.04816C8.49221 5.74361 8.72062 5.43906 8.94903 5.13451L8.96806 5.11548C9.02517 5.03934 9.00613 5.00127 8.93 4.98224C8.87289 4.9632 8.85386 4.92513 8.81579 4.88706C8.72062 4.73479 8.60641 4.56348 8.51124 4.41121C8.49221 4.39217 8.49221 4.37314 8.47317 4.3541C8.41607 4.27797 8.378 4.27797 8.28283 4.297C8.22573 4.31604 8.18766 4.33507 8.13055 4.3541C7.95924 4.43024 7.78794 4.44928 7.61663 4.46831C7.50242 4.48734 7.40725 4.48734 7.29304 4.46831C7.14077 4.44928 7.00753 4.43024 6.85525 4.39217C6.53167 4.31604 6.26519 4.16376 5.99871 3.95438C5.8274 3.82114 5.69416 3.64983 5.56092 3.47852C5.35154 3.19301 5.19927 2.86943 5.12313 2.52681C5.04699 2.27936 5.04699 2.01288 5.06603 1.7464C5.10409 1.38475 5.19927 1.06116 5.37058 0.756614C5.44671 0.60434 5.54188 0.452066 5.65609 0.33786C5.69416 0.299791 5.73223 0.261722 5.78933 0.242688C5.86547 0.185585 5.96064 0.147516 6.01774 0.0523446C6.03678 0.0333102 6.03678 0.0333101 6.05581 0.0142758C6.09388 -0.00475858 6.11292 -0.00475858 6.15098 0.0142758C6.17002 0.0333101 6.17002 0.0333102 6.18905 0.0523446C6.3794 0.318825 6.56974 0.566271 6.76008 0.832752C6.85525 0.965992 6.96946 1.09923 7.08367 1.25151C7.23594 1.46089 7.38821 1.65123 7.54049 1.86061C7.73083 2.10805 7.90214 2.3555 8.09249 2.60294C8.22573 2.77425 8.35897 2.94556 8.49221 3.13591C8.66352 3.36432 8.83482 3.59273 9.00613 3.82114C9.10131 3.93535 9.17744 4.04955 9.25358 4.18279C9.29165 4.2399 9.34875 4.297 9.38682 4.3541C9.44392 4.43024 9.48199 4.41121 9.53909 4.3541C9.5962 4.27797 9.6533 4.22086 9.69137 4.14473C9.7104 4.12569 9.72944 4.08762 9.74847 4.06859C9.90075 3.89728 10.015 3.70694 10.1482 3.53563C10.2053 3.45949 10.2624 3.40239 10.3005 3.32625C10.3766 3.23108 10.4527 3.13591 10.5289 3.04073C10.6621 2.86943 10.7954 2.67908 10.9286 2.50777C11.0999 2.2984 11.2522 2.06998 11.4235 1.86061C11.5187 1.72737 11.6138 1.59413 11.709 1.46088C11.8232 1.30861 11.9374 1.17537 12.0516 1.0231C12.1087 0.965992 12.1468 0.889855 12.2039 0.813718C12.3752 0.585306 12.5656 0.337859 12.7369 0.109447C12.7369 0.0904131 12.7559 0.0904129 12.7749 0.0713786C12.813 0.0142756 12.8511 0.0142755 12.9272 0.0333098C13.0033 0.0523441 13.0604 0.0904132 13.0985 0.147516C13.1366 0.204619 13.1937 0.242688 13.2318 0.299791C13.2889 0.356894 13.346 0.433031 13.384 0.490134C13.4982 0.661443 13.5934 0.832752 13.6695 1.0231C13.7838 1.30861 13.8218 1.61316 13.8409 1.91771C13.8599 2.24129 13.7838 2.56488 13.6886 2.86943C13.5934 3.13591 13.4792 3.36432 13.2889 3.5737C13.2318 3.64983 13.1747 3.72597 13.1175 3.78307C13.0414 3.85921 12.9462 3.93535 12.8701 4.01149C12.6607 4.16376 12.4133 4.297 12.1658 4.37314C11.8803 4.44928 11.5948 4.48734 11.2903 4.44928C11.176 4.43024 11.0809 4.41121 10.9667 4.39217C10.9286 4.39217 10.8905 4.37314 10.8525 4.3541C10.7954 4.33507 10.7383 4.31604 10.6812 4.297C10.6241 4.27797 10.586 4.297 10.5479 4.33507C10.5098 4.37314 10.4718 4.43024 10.4337 4.46831C10.3195 4.62058 10.1863 4.77286 10.0721 4.92513C10.053 4.9632 10.015 5.00127 9.99592 5.02031C9.95785 5.07741 9.95785 5.13451 9.99592 5.19161C10.0721 5.28679 10.1292 5.38196 10.2053 5.47713C10.2624 5.5723 10.3385 5.64844 10.3956 5.74361C10.4337 5.78168 10.4527 5.83878 10.4908 5.85782C10.586 5.93395 10.6621 6.02913 10.7192 6.1243C10.7763 6.2385 10.8715 6.27657 11.0047 6.27657C11.138 6.27657 11.2522 6.29561 11.3854 6.29561C11.5377 6.31464 11.69 6.31464 11.8422 6.33367C11.9374 6.33367 12.0516 6.35271 12.1468 6.35271C12.1849 6.35271 12.2229 6.37174 12.28 6.37174C12.4133 6.39078 12.5465 6.40981 12.6607 6.40981C12.6798 6.40981 12.6798 6.40981 12.6988 6.40981C13.0414 6.46692 13.365 6.50498 13.7076 6.58112C13.898 6.61919 14.0883 6.63822 14.2786 6.71436C14.2977 6.71436 14.3167 6.7334 14.3357 6.7334C14.5261 6.75243 14.7164 6.80953 14.9068 6.86664C15.1542 6.94277 15.4207 6.99988 15.6872 7.07601C15.7253 7.07601 15.7633 7.09505 15.7824 7.11408C15.9537 7.17119 16.125 7.22829 16.2963 7.28539C16.4105 7.32346 16.5437 7.38056 16.6579 7.41863C16.8483 7.49477 17.0386 7.58994 17.248 7.68511C17.267 7.68511 17.2861 7.70415 17.3051 7.70415C17.5335 7.78028 17.7048 7.93256 17.8952 8.0658C18.0474 8.19904 18.1997 8.33228 18.333 8.48455C18.4662 8.63683 18.5804 8.77007 18.6756 8.94138C18.7327 9.05558 18.7898 9.18882 18.8278 9.30303C18.8469 9.36013 18.8659 9.3982 18.885 9.45531C18.904 9.51241 18.923 9.55048 18.923 9.60758C18.923 9.68372 18.923 9.75985 18.923 9.85503C18.923 10.0263 18.904 10.1786 18.8469 10.3309C18.7898 10.4832 18.7136 10.6354 18.6185 10.7687C18.5423 10.8638 18.4472 10.959 18.352 11.0542C18.3139 11.0923 18.2568 11.1303 18.1997 11.1874C18.0474 11.3397 17.8571 11.4729 17.6668 11.5872C17.5335 11.6823 17.3812 11.7585 17.229 11.8536C17.1528 11.9107 17.0577 11.9488 16.9815 11.9869C16.6389 12.1391 16.3153 12.3105 15.9727 12.4437C15.8966 12.4627 15.8395 12.5008 15.7633 12.5198C15.7443 12.5198 15.7253 12.5389 15.6872 12.5389C15.6301 12.5579 15.6301 12.596 15.6491 12.6531C15.6681 12.6911 15.6872 12.7102 15.7062 12.7482C15.8014 12.8815 15.8966 12.9957 15.9917 13.1289C16.2392 13.4525 16.4676 13.7761 16.715 14.0806C16.7341 14.1187 16.7531 14.1378 16.7912 14.1758C16.9434 14.3662 17.0957 14.5565 17.229 14.7659C17.248 14.7849 17.248 14.804 17.267 14.823C17.4193 14.9943 17.5525 15.1846 17.6858 15.3559C17.7239 15.394 17.7429 15.4321 17.7619 15.4702C17.8 15.5463 17.781 15.6034 17.7048 15.6224C17.6668 15.6415 17.6477 15.6415 17.6097 15.6415C17.3812 15.6605 17.1528 15.6605 16.9054 15.6605C16.677 15.6415 16.4676 15.6224 16.2392 15.5653C16.0869 15.5273 15.9346 15.4892 15.7824 15.4511C15.6681 15.4131 15.573 15.375 15.4588 15.3369C15.4397 15.3179 15.4017 15.3179 15.3826 15.2988C15.1733 15.2417 14.9829 15.1275 14.8116 15.0324C14.7926 15.0133 14.7735 15.0133 14.7545 14.9943C14.5071 14.8801 14.2786 14.7278 14.0502 14.5565C13.7457 14.3471 13.4602 14.1187 13.1937 13.8713C13.0414 13.719 12.8701 13.5667 12.7369 13.3954C12.6607 13.3002 12.5846 13.2812 12.4704 13.3002C12.28 13.3383 12.0897 13.3764 11.8803 13.4144C11.728 13.4525 11.5758 13.4715 11.4045 13.4906C11.5948 13.5858 11.5758 13.5858 11.5377 13.6048ZM9.36779 7.19022C9.21551 7.19022 9.08227 7.19022 8.93 7.19022C8.81579 7.19022 8.79676 7.20925 8.79676 7.32346V7.34249C8.81579 7.53284 8.79676 7.70415 8.77772 7.89449C8.75869 8.0658 8.73965 8.23711 8.72062 8.38938C8.70158 8.46552 8.70158 8.54166 8.70158 8.63683C8.70158 8.69393 8.72062 8.71297 8.77772 8.71297C8.79676 8.71297 8.79676 8.71297 8.81579 8.71297C9.0442 8.6749 9.27261 8.65586 9.50103 8.65586C9.74847 8.65586 10.015 8.69393 10.2624 8.732C10.3576 8.75103 10.4527 8.77007 10.5479 8.77007C10.586 8.77007 10.605 8.7891 10.6431 8.80814C10.7002 8.84621 10.7763 8.86524 10.8334 8.88428C10.8715 8.88428 10.9286 8.90331 10.9667 8.92234C11.138 8.99848 11.3283 9.07462 11.4996 9.16979C11.6138 9.24593 11.728 9.3411 11.8232 9.45531C11.8422 9.47434 11.8803 9.51241 11.8994 9.53144C11.9184 9.56951 11.9565 9.60758 11.9755 9.64565C11.9945 9.70275 12.0136 9.75986 12.0326 9.83599C12.0516 9.8931 12.0516 9.96923 12.0516 10.0263C12.0516 10.1215 12.0136 10.2167 11.9565 10.3119C11.8232 10.5593 11.6329 10.7306 11.3664 10.8448C11.3283 10.8638 11.2903 10.8829 11.2522 10.9019C11.0618 11.0161 10.8334 11.0923 10.6241 11.1494C10.3766 11.2065 10.1292 11.2445 9.88171 11.2445C9.52006 11.2636 9.15841 11.2445 8.79676 11.1684C8.60641 11.1303 8.41607 11.0923 8.22573 11.0352C8.16862 11.0161 8.11152 10.9971 8.05442 10.9781C7.99731 10.959 7.95924 10.9781 7.92118 11.0352C7.90214 11.0542 7.88311 11.0923 7.86407 11.1303C7.73083 11.4349 7.55952 11.7204 7.38822 11.9869C7.31208 12.1201 7.21691 12.2534 7.14077 12.3676C7.06463 12.4818 7.08367 12.5008 7.21691 12.5389C7.63566 12.6531 8.05442 12.6911 8.47317 12.7482C8.70158 12.7673 8.93 12.7863 9.15841 12.8053C9.42489 12.8244 9.69137 12.8244 9.93881 12.8244C10.053 12.8244 10.1672 12.8244 10.2624 12.8244C10.3576 12.8244 10.4337 12.8244 10.5289 12.8053C10.605 12.8053 10.6812 12.7863 10.7573 12.7863C10.9096 12.7673 11.0809 12.7673 11.2332 12.7482C11.4616 12.7292 11.69 12.7102 11.9374 12.6721C12.1468 12.6531 12.3562 12.615 12.5846 12.5769C12.7559 12.5579 12.9082 12.5198 13.0795 12.4818C13.1175 12.4818 13.1366 12.4818 13.1747 12.4627C13.2318 12.4627 13.2889 12.4437 13.3269 12.4437C13.4221 12.4247 13.5173 12.4056 13.6124 12.3866C13.7076 12.3676 13.8028 12.3485 13.898 12.3295C14.0693 12.2914 14.2406 12.2534 14.4119 12.2153C14.469 12.1962 14.5261 12.1962 14.5832 12.1582C14.6593 12.1201 14.7355 12.1011 14.8306 12.082C14.9068 12.063 14.9829 12.044 15.04 12.0249C15.1923 11.9678 15.3636 11.9298 15.4968 11.8536H15.5159C15.7443 11.7965 15.9537 11.6823 16.163 11.5872C16.4295 11.4539 16.696 11.3207 16.9625 11.1874C17.1148 11.1113 17.248 11.0352 17.3812 10.9209C17.4764 10.8258 17.5716 10.7496 17.6858 10.6545C17.819 10.5403 17.9142 10.4261 18.0094 10.2738C18.1426 10.0644 18.1616 9.83599 18.0855 9.58855C17.9903 9.32206 17.819 9.11269 17.6097 8.94138C17.4003 8.77007 17.1719 8.59876 16.9244 8.48455C16.6579 8.35131 16.3915 8.23711 16.125 8.1229C16.1059 8.1229 16.1059 8.1229 16.0869 8.10387C15.8395 8.02773 15.592 7.93256 15.3446 7.85642C15.1542 7.79932 14.9639 7.74221 14.7735 7.70415C14.5832 7.64704 14.3738 7.60898 14.1835 7.57091C13.9741 7.53284 13.7457 7.47573 13.5363 7.43767C13.346 7.3996 13.1556 7.38056 12.9653 7.34249C12.9272 7.34249 12.9082 7.34249 12.8701 7.32346C12.7559 7.30443 12.6417 7.30443 12.5275 7.28539C12.3752 7.26636 12.2229 7.24732 12.0707 7.22829C11.9184 7.20925 11.7661 7.20925 11.6138 7.19022C11.1951 7.15215 10.7954 7.13312 10.3766 7.13312C10.2624 7.13312 10.1672 7.13312 10.053 7.13312C10.015 7.13312 9.97688 7.13312 9.91978 7.13312C9.84364 7.13312 9.78654 7.15215 9.7104 7.15215C9.61523 7.20925 9.50103 7.19022 9.36779 7.19022ZM7.17884 7.26636C7.0456 7.26636 6.91236 7.26636 6.77912 7.28539C6.58877 7.30443 6.39843 7.32346 6.20809 7.34249C5.97967 7.38056 5.7703 7.41863 5.54188 7.4567C5.42768 7.47574 5.31347 7.49477 5.19927 7.5138C4.93279 7.57091 4.64727 7.62801 4.38079 7.70415C4.0001 7.79932 3.63845 7.93256 3.25776 8.0658C3.2197 8.08483 3.18163 8.08483 3.14356 8.10387C2.81998 8.23711 2.49639 8.37035 2.19184 8.54166C1.9444 8.6749 1.71598 8.82717 1.50661 8.99848C1.37337 9.11269 1.24013 9.24593 1.16399 9.41724C1.12592 9.47434 1.10689 9.55048 1.12592 9.62661C1.12592 9.70275 1.14495 9.79792 1.14495 9.87406C1.14495 9.89309 1.14495 9.93116 1.16399 9.9502C1.22109 10.0834 1.27819 10.2167 1.37337 10.3309C1.58274 10.6164 1.83019 10.8258 2.09667 11.0352C2.36315 11.2445 2.64867 11.3968 2.95322 11.5491C3.20066 11.6823 3.44811 11.7965 3.71459 11.8727C3.75266 11.8917 3.80976 11.8917 3.84783 11.9107C3.92397 11.9298 3.96204 11.9107 4.01914 11.8536C4.09528 11.7585 4.15238 11.6823 4.22852 11.5872C4.41886 11.3397 4.59017 11.0923 4.78051 10.8448C4.95182 10.6164 5.12313 10.388 5.29444 10.1596C5.48478 9.91213 5.67513 9.66468 5.86547 9.41724C6.09388 9.11269 6.32229 8.80814 6.5507 8.50359C6.70298 8.29421 6.85525 8.10387 7.00753 7.89449C7.02656 7.87546 7.02656 7.85642 7.0456 7.83739C7.1027 7.78028 7.14077 7.70415 7.19787 7.64704C7.25498 7.57091 7.31208 7.49477 7.36918 7.41863C7.42628 7.34249 7.40725 7.30443 7.31208 7.30443C7.25498 7.26636 7.21691 7.26636 7.17884 7.26636ZM7.92118 8.04676C7.86407 8.04676 7.84504 8.08483 7.826 8.1229C7.67373 8.31325 7.54049 8.50359 7.38822 8.71297C7.21691 8.94138 7.06463 9.15076 6.89332 9.37917C6.62684 9.74082 6.34133 10.1025 6.07485 10.4641C5.92257 10.6545 5.78933 10.8448 5.63706 11.0352C5.48478 11.2445 5.31347 11.4539 5.1612 11.6633C5.04699 11.8156 4.93279 11.9678 4.81858 12.1201C4.74244 12.2153 4.66631 12.3105 4.59017 12.4247C4.36176 12.7482 4.11431 13.0528 3.8859 13.3764C3.69555 13.6429 3.48618 13.8903 3.29583 14.1568C3.16259 14.3471 3.01032 14.5375 2.87708 14.7278L2.85804 14.7468C2.85804 14.7659 2.85804 14.7849 2.85804 14.804H2.89611C2.95322 14.7849 2.99128 14.7659 3.04839 14.7468C3.23873 14.6517 3.42907 14.5755 3.61942 14.4804C3.84783 14.3471 4.07624 14.1949 4.30465 14.0616C4.34272 14.0426 4.38079 14.0045 4.41886 13.9855C4.72341 13.7571 5.02796 13.4906 5.31347 13.2241C5.38961 13.148 5.46575 13.0528 5.56092 12.9767C5.8274 12.6911 6.09388 12.3866 6.32229 12.082C6.58877 11.7204 6.83622 11.3397 7.0456 10.94C7.14077 10.7306 7.25497 10.5212 7.35015 10.3119C7.42628 10.1596 7.48339 9.98827 7.54049 9.81696C7.57856 9.70275 7.63566 9.58855 7.67373 9.45531C7.74987 9.22689 7.80697 8.99848 7.86407 8.75103C7.90214 8.56069 7.94021 8.35131 7.95925 8.14194C7.94021 8.10387 7.92118 8.08483 7.92118 8.04676ZM5.8845 2.16516C5.8845 2.24129 5.8845 2.2984 5.90354 2.37453C5.92257 2.60294 5.99871 2.81232 6.13195 3.00267C6.28422 3.21204 6.45553 3.36432 6.68394 3.49756C6.85525 3.59273 7.02656 3.64983 7.21691 3.6879C7.35015 3.70694 7.46435 3.72597 7.59759 3.70694C7.7118 3.70694 7.826 3.66887 7.94021 3.64983C8.01635 3.6308 8.01635 3.59273 7.97828 3.53563C7.94021 3.47852 7.90214 3.44046 7.88311 3.40239C7.7689 3.25011 7.63566 3.0788 7.52146 2.92653C7.36918 2.73619 7.21691 2.54584 7.06463 2.3555C6.91236 2.16516 6.77912 1.99385 6.62684 1.8035C6.51264 1.65123 6.39843 1.51799 6.28422 1.36571C6.26519 1.34668 6.24615 1.32764 6.22712 1.30861C6.18905 1.27054 6.15098 1.28958 6.13195 1.30861C6.11291 1.32764 6.11291 1.34668 6.09388 1.34668C5.99871 1.51799 5.94161 1.6893 5.90354 1.87964C5.8845 1.97481 5.8845 2.06998 5.8845 2.16516ZM11.6709 3.80211C11.728 3.80211 11.8042 3.80211 11.8613 3.78307C11.9565 3.76404 12.0707 3.72597 12.1658 3.70694C12.2039 3.70694 12.242 3.6879 12.261 3.66887C12.5275 3.53563 12.7369 3.34528 12.8891 3.09784C13.0414 2.86943 13.1175 2.60295 13.1747 2.33646C13.2127 2.14612 13.2127 1.95578 13.2127 1.76543C13.2127 1.7464 13.2127 1.72737 13.2127 1.70833C13.1937 1.59412 13.1747 1.46089 13.1556 1.34668C13.1556 1.30861 13.1366 1.27054 13.1175 1.23247C13.0985 1.1944 13.0795 1.1944 13.0414 1.23247C13.0414 1.25151 13.0224 1.25151 13.0224 1.27054C12.9843 1.34668 12.9462 1.38475 12.8891 1.44185C12.8701 1.46089 12.8511 1.49895 12.813 1.51799C12.6988 1.67026 12.5846 1.82254 12.4513 1.97481C12.3371 2.12709 12.2229 2.27936 12.1087 2.43164C11.9565 2.62198 11.8042 2.83136 11.6519 3.0217C11.5758 3.11687 11.4996 3.21204 11.4235 3.32625C11.3664 3.42142 11.2903 3.49756 11.2332 3.59273C11.176 3.66887 11.1951 3.70694 11.2903 3.745H11.3093C11.4235 3.78307 11.5377 3.82114 11.6709 3.80211ZM14.8687 12.9196C14.8497 12.9196 14.8116 12.9386 14.7926 12.9386C14.7355 12.9576 14.6784 12.9767 14.6213 12.9767C14.3738 13.0338 14.1454 13.0909 13.898 13.148C13.8789 13.148 13.8599 13.148 13.8409 13.167C13.7838 13.186 13.7838 13.2241 13.8218 13.2622C13.8409 13.2812 13.8599 13.3002 13.8789 13.3193C14.0312 13.4525 14.1644 13.5667 14.3167 13.6809C14.488 13.8142 14.6784 13.9284 14.8687 14.0426C15.0781 14.1758 15.2875 14.29 15.5159 14.3662C15.573 14.3852 15.6301 14.4042 15.6872 14.4423C15.8204 14.4994 15.9346 14.5375 16.0679 14.5946C16.1059 14.6136 16.144 14.6326 16.1821 14.5946C16.2201 14.5565 16.163 14.5184 16.144 14.4994C16.1059 14.4423 16.0679 14.3852 16.0298 14.3471C15.8585 14.1187 15.6681 13.8713 15.4968 13.6429C15.3636 13.4525 15.2304 13.2812 15.0971 13.0909C15.0591 13.0528 15.04 13.0147 15.0019 12.9767C14.9639 12.9196 14.9258 12.9005 14.8687 12.9196ZM9.5962 9.58855C9.57716 9.58855 9.53909 9.58855 9.52006 9.58855C9.32972 9.58855 9.15841 9.62661 8.9871 9.68372C8.91096 9.72179 8.83482 9.75986 8.77772 9.83599C8.70158 9.93116 8.70158 10.0263 8.75869 10.1215C8.79676 10.1786 8.85386 10.2357 8.91096 10.2738C8.9871 10.3309 9.06324 10.3499 9.15841 10.388C9.38682 10.4451 9.63427 10.4641 9.86268 10.4261C9.97688 10.407 10.1101 10.388 10.2243 10.3309C10.3195 10.2928 10.3956 10.2167 10.4337 10.1405C10.4908 10.0454 10.4908 9.93116 10.4147 9.85503C10.3766 9.81696 10.3385 9.77889 10.3005 9.75985C10.2434 9.72179 10.1672 9.70275 10.1101 9.68372C9.93882 9.60758 9.76751 9.58855 9.5962 9.58855ZM9.63427 6.25754C9.72944 6.25754 9.82461 6.25754 9.91978 6.25754C9.99592 6.25754 10.015 6.21947 9.97688 6.14333C9.91978 6.04816 9.84364 5.97202 9.78654 5.87685C9.74847 5.81975 9.7104 5.80071 9.63427 5.81975C9.61523 5.81975 9.5962 5.81975 9.5962 5.81975C9.53909 5.81975 9.50103 5.83878 9.48199 5.87685C9.42489 5.95299 9.36779 6.02912 9.31068 6.08623C9.31068 6.10526 9.29165 6.10526 9.29165 6.1243C9.25358 6.1814 9.27261 6.21947 9.34875 6.21947H9.36779C9.46296 6.25754 9.53909 6.25754 9.63427 6.25754Z" fill="#D95484"/>
</svg>
