<svg width="22" height="14" viewBox="0 0 22 14" fill="none" xmlns="http://www.w3.org/2000/svg">
<path d="M20.6737 10.8305C20.3311 10.8305 20.1598 10.4879 20.3501 10.2595C21.0163 9.49813 21.397 8.62255 21.397 7.72794C21.397 4.77762 17.4379 2.34122 12.3176 1.96054C11.9941 1.9415 11.7656 1.71309 11.7656 1.42758C11.7656 1.08496 11.4801 0.799442 11.0804 0.799442H11.0233C11.0233 0.780408 11.0423 0.761373 11.0423 0.742339V0.13324C11.0423 0.0571031 10.9662 0 10.8901 0C10.7949 0 10.7378 0.0571031 10.7378 0.13324V0.723305C10.7378 0.742339 10.7378 0.761373 10.7568 0.780407C10.3571 0.780407 10.0145 1.06592 10.0145 1.42758C10.0145 1.69406 9.76703 1.92247 9.46249 1.96054C8.03491 2.07474 6.70251 2.34122 5.52238 2.74094C5.16073 2.85515 4.76101 2.66481 4.68487 2.34122V2.32219C4.66584 2.24605 4.60873 2.16991 4.51356 2.15088C4.38032 2.13185 4.28515 2.20798 4.26611 2.30315C4.0377 3.61652 2.45785 4.51114 0.230834 4.56824C0.116628 4.56824 0.0214596 4.62534 0.00242527 4.72051C-0.0166091 4.83472 0.0785638 4.92989 0.211804 4.94893C0.364079 4.94893 0.516351 4.96796 0.649591 4.96796C1.04931 5.00603 1.27773 5.38672 1.06835 5.69127C0.630559 6.3194 0.402147 7.00464 0.402147 7.72794C0.402147 10.9447 5.12266 13.5524 10.9091 13.5524C12.9648 13.5524 14.8873 13.2289 16.5052 12.6578C16.6955 12.6007 16.9049 12.6959 16.9239 12.8672C16.943 12.9433 17.0001 13.0004 17.0762 13.0195C17.2095 13.0576 17.3427 12.9814 17.3617 12.8672C17.4188 12.5817 17.5711 12.3342 17.8186 12.1058C18.1992 11.9155 18.5609 11.7251 18.8845 11.5158C19.3984 11.3445 20.0075 11.2303 20.6927 11.2112C20.826 11.2112 20.9212 11.097 20.9021 10.9828C20.8831 10.8876 20.7879 10.8305 20.6737 10.8305ZM20.0456 9.99303C19.8362 10.2214 19.6078 10.4498 19.3603 10.6592C19.151 10.6021 18.9416 10.545 18.7512 10.4879C19.189 10.2976 19.5697 10.0882 19.8933 9.87882C19.9885 9.80268 20.1217 9.91689 20.0456 9.99303ZM18.9606 10.9638C19.0177 10.9828 19.0939 11.0018 19.151 11.0209C19.0748 11.0399 18.9987 11.0589 18.9226 11.078H18.9035C18.8274 11.097 18.7703 11.1161 18.6941 11.1351C18.1421 11.3254 17.7044 11.5919 17.3808 11.9155C17.3427 11.9536 17.3237 11.9726 17.2856 12.0107C17.2666 12.0487 17.2285 12.0678 17.2095 12.1058C17.2095 12.1058 17.2095 12.1249 17.1904 12.1249C17.1714 12.1629 17.1333 12.201 17.1143 12.2391C16.981 12.0107 16.7717 11.8013 16.5242 11.63C16.41 11.5538 16.2958 11.4777 16.1626 11.4016C16.0674 11.3445 15.9722 11.3064 15.858 11.2493C15.8009 11.2303 15.7438 11.2112 15.7058 11.1922C15.6486 11.1732 15.5915 11.1541 15.5344 11.1351C15.4012 11.097 15.2489 11.0399 15.0966 11.0018C16.0484 10.7734 16.7717 10.3356 17.1143 9.76461C17.1904 9.87882 17.2666 9.99303 17.3617 10.0882C17.4569 10.1834 17.5711 10.2785 17.6853 10.3547C17.7044 10.3737 17.7424 10.3927 17.7805 10.4118C17.8376 10.4499 17.9137 10.4879 17.9899 10.545H18.0089C18.085 10.5831 18.1612 10.6212 18.2373 10.6592C18.4657 10.7925 18.7132 10.8876 18.9606 10.9638ZM12.5841 7.38532C12.5841 7.21401 12.7554 7.06174 12.9458 7.06174C13.5929 7.08077 14.202 7.08077 14.7921 7.09981C14.9444 7.09981 15.0586 7.21401 15.0586 7.32822C15.0586 7.44242 15.0776 7.57566 15.0776 7.68987C15.0776 7.82311 15.0776 7.93732 15.0586 8.05152C15.0586 8.18476 14.9444 8.27994 14.7921 8.27994C14.2211 8.29897 13.5929 8.318 12.9458 8.318C12.7364 8.318 12.5841 8.18476 12.5841 7.99442C12.5841 7.88021 12.5841 7.78504 12.5841 7.67084C12.5841 7.5947 12.5841 7.49953 12.5841 7.38532ZM12.9838 6.68105C12.7364 6.68105 12.546 6.50974 12.546 6.30037C12.527 6.05292 12.508 5.80547 12.4889 5.55803C13.1361 5.57706 13.7833 5.61513 14.3924 5.67223C14.6398 5.69127 14.8302 5.84354 14.8873 6.05292C14.9444 6.28133 14.9824 6.49071 15.0205 6.73815C14.3543 6.71912 13.6691 6.70009 12.9838 6.68105ZM12.546 9.11745C12.5651 8.90807 12.7554 8.73676 12.9838 8.73676C13.6691 8.71773 14.3543 8.69869 15.0015 8.67966C14.9824 8.87 14.9444 9.04131 14.9063 9.23165C14.8492 9.51717 14.5827 9.72655 14.2591 9.74558C13.6881 9.78365 13.098 9.82172 12.4889 9.84075C12.508 9.61234 12.527 9.36489 12.546 9.11745ZM15.1157 10.0501C15.6106 9.99303 16.0864 9.93592 16.5433 9.87882C16.1816 10.2405 15.5915 10.526 14.8682 10.6783C14.9444 10.4689 15.0395 10.2595 15.1157 10.0501ZM17.6282 9.72655C17.6282 9.70751 17.6092 9.70751 17.6092 9.68848C17.6282 9.68848 17.6473 9.68848 17.6663 9.66944C17.6282 9.68848 17.6282 9.70751 17.6282 9.72655ZM17.4188 9.34586C17.4188 9.34586 17.3998 9.34586 17.4188 9.34586C17.3808 9.28876 17.3617 9.23165 17.3617 9.17455C17.3427 9.07938 17.2475 9.02227 17.1524 9.02227C17.0382 9.02227 16.962 9.09841 16.943 9.17455C16.9239 9.26972 16.8859 9.36489 16.8478 9.44103C16.3339 9.51717 15.8009 9.5933 15.2489 9.65041C15.3441 9.32682 15.4012 9.00324 15.4583 8.66062C16.41 8.62255 17.3046 8.56545 18.085 8.50835C18.066 8.62255 18.0279 8.75579 17.9899 8.87C17.8947 9.09841 17.6853 9.28876 17.4188 9.34586ZM17.8947 8.1467C17.1904 8.2038 16.391 8.24187 15.4773 8.27994C15.4964 8.08959 15.4964 7.89925 15.4964 7.7089C15.4964 7.51856 15.4964 7.32822 15.4773 7.13787C16.391 7.17594 17.1904 7.21401 17.8947 7.27112C18.0279 7.29015 18.1421 7.38532 18.1421 7.49953C18.1421 7.57566 18.1421 7.63277 18.1421 7.7089C18.1421 7.78504 18.1421 7.86118 18.1421 7.91828C18.1231 8.03249 18.0279 8.12766 17.8947 8.1467ZM15.4393 6.75719C15.4012 6.41457 15.3251 6.09099 15.2299 5.7674C16.0674 5.86258 16.8668 5.97678 17.5901 6.11002C17.7424 6.14809 17.8757 6.24326 17.9137 6.3765C17.9708 6.54781 18.0089 6.71912 18.047 6.89043C17.2666 6.85236 16.391 6.79526 15.4393 6.75719ZM15.1157 5.36768C14.9634 4.94893 14.7921 4.54921 14.5637 4.20659C15.3441 4.32079 16.0864 4.47307 16.7907 4.66341C16.8859 4.68245 16.962 4.73955 17.0191 4.79665C17.2666 5.08217 17.4759 5.40575 17.6472 5.72934C16.8668 5.57706 16.0293 5.46285 15.1157 5.36768ZM14.6398 5.32961C14.0498 5.27251 13.4407 5.23444 12.8125 5.21541C12.5841 5.21541 12.4128 5.06313 12.3747 4.87279C12.3557 4.70148 12.3176 4.54921 12.2986 4.39693C12.2605 4.18755 12.4509 3.99721 12.6983 4.01625C13.079 4.03528 13.4407 4.07335 13.8023 4.11142C13.9546 4.13045 14.0688 4.20659 14.1449 4.32079C14.3353 4.62534 14.5066 4.96796 14.6398 5.32961ZM12.3938 10.5641C12.4318 10.3737 12.6032 10.2214 12.8316 10.2214C13.4597 10.2024 14.0688 10.1453 14.6589 10.1072C14.5637 10.3356 14.4685 10.5641 14.3543 10.7734C14.1069 10.8115 13.8594 10.8305 13.612 10.8305C13.4978 10.8305 13.4026 10.9257 13.4026 11.0209C13.4026 11.1161 13.4978 11.2112 13.612 11.2112C13.7452 11.2112 13.8785 11.2303 14.0117 11.2303C13.9165 11.2874 13.8023 11.3254 13.6691 11.3445C13.2123 11.4016 12.7174 11.4396 12.2415 11.4587C12.2796 11.1732 12.3367 10.8686 12.3938 10.5641ZM20.2359 9.09841C19.7791 9.51717 19.1129 9.91689 18.2754 10.2595C18.1421 10.1834 18.0279 10.1072 17.9328 10.0311C18.0279 9.87882 18.1041 9.72655 18.1612 9.57427C18.1802 9.57427 18.1992 9.57427 18.2183 9.55524C18.8464 9.40296 19.5317 9.21262 20.1027 8.96517C20.2169 8.9271 20.3121 9.04131 20.2359 9.09841ZM18.3325 9.13648C18.4086 8.9271 18.4657 8.69869 18.5038 8.47028C19.3032 8.39414 19.9504 8.318 20.4263 8.22283C20.5214 8.2038 20.6166 8.18476 20.7118 8.16573C20.3311 8.50835 19.4936 8.85097 18.3325 9.13648ZM20.6547 7.78504C20.255 7.88021 19.5507 7.99442 18.5609 8.08959C18.5799 7.95635 18.5799 7.84215 18.5799 7.7089C18.5799 7.57566 18.5799 7.46146 18.5609 7.32822C19.5507 7.42339 20.255 7.51856 20.6547 7.63277C20.7498 7.6518 20.7498 7.76601 20.6547 7.78504ZM20.4263 7.19498C19.9504 7.09981 19.3032 7.02367 18.5038 6.94753C18.4657 6.71912 18.4086 6.49071 18.3325 6.28133C19.4936 6.56684 20.3121 6.90946 20.7118 7.25208C20.6356 7.23305 20.5405 7.21401 20.4263 7.19498ZM20.1217 6.45264C19.5507 6.20519 18.8654 6.01485 18.2373 5.86258C18.2183 5.86258 18.1992 5.86258 18.1802 5.84354C18.0279 5.51996 17.8566 5.21541 17.6472 4.91086C17.7995 4.96796 17.9518 5.02506 18.1041 5.08217C19.0368 5.44382 19.7791 5.86258 20.255 6.3194C20.3121 6.3765 20.2169 6.49071 20.1217 6.45264ZM20.0456 5.42478C20.1217 5.50092 19.9885 5.61513 19.9123 5.53899C19.4555 5.25348 18.9226 4.96796 18.2754 4.72051C17.9328 4.58727 17.5711 4.47307 17.1904 4.35886C16.5623 3.67363 15.7248 3.1026 14.7731 2.66481C17.0953 3.2168 18.9797 4.18755 20.0456 5.42478ZM16.372 4.16852C15.7058 4.01624 15.0015 3.883 14.2782 3.78783C13.8975 3.25487 13.4407 2.81708 12.9267 2.4935C14.2782 2.77901 15.4773 3.36908 16.372 4.16852ZM13.7262 3.7117C13.3074 3.67363 12.8887 3.63556 12.4699 3.61652C12.2796 3.59749 12.1083 3.48328 12.0512 3.33101C11.9179 2.93129 11.7847 2.6077 11.6134 2.36026C12.4128 2.53157 13.1361 3.00742 13.7262 3.7117ZM10.9091 9.87882C10.5284 9.87882 10.1477 9.87882 9.76704 9.85979C9.748 9.63137 9.72897 9.38393 9.70994 9.13648C9.6909 8.9271 9.88124 8.75579 10.1287 8.75579C10.3952 8.75579 10.6426 8.75579 10.9091 8.75579C11.1756 8.75579 11.423 8.75579 11.6895 8.75579C11.937 8.75579 12.1273 8.9271 12.1083 9.13648C12.0892 9.38393 12.0702 9.63137 12.0512 9.85979C11.6705 9.87882 11.2898 9.87882 10.9091 9.87882ZM11.9369 10.6021C11.8798 10.9067 11.8227 11.1922 11.7656 11.4777C11.4801 11.4777 11.1946 11.4967 10.8901 11.4967C10.6045 11.4967 10.319 11.4967 10.0145 11.4777C9.95738 11.2112 9.90028 10.9067 9.84317 10.6021C9.8051 10.4118 9.97642 10.2595 10.1858 10.2595C10.4142 10.2595 10.6426 10.2595 10.871 10.2595C11.0994 10.2595 11.3279 10.2595 11.5563 10.2595C11.8037 10.2405 11.975 10.4118 11.9369 10.6021ZM11.8037 8.37511C11.4992 8.37511 11.2136 8.37511 10.8901 8.37511C10.5855 8.37511 10.281 8.37511 9.97641 8.37511C9.78607 8.37511 9.65283 8.24187 9.6338 8.08959C9.6338 7.97539 9.6338 7.84215 9.6338 7.7089C9.6338 7.57566 9.6338 7.46146 9.6338 7.32822C9.6338 7.17594 9.78607 7.0427 9.97641 7.0427C10.281 7.0427 10.5665 7.0427 10.8901 7.0427C11.1946 7.0427 11.4992 7.0427 11.8037 7.0427C11.9941 7.0427 12.1273 7.17594 12.1463 7.32822C12.1463 7.44242 12.1463 7.57566 12.1463 7.7089C12.1463 7.84215 12.1463 7.95635 12.1463 8.08959C12.1463 8.24187 11.9941 8.37511 11.8037 8.37511ZM9.70994 6.28133C9.72897 6.03388 9.748 5.78644 9.76704 5.55803C10.1477 5.55803 10.5284 5.53899 10.9091 5.53899C11.2898 5.53899 11.6705 5.53899 12.0512 5.55803C12.0702 5.78644 12.0892 6.03388 12.1083 6.28133C12.1273 6.49071 11.937 6.66202 11.6895 6.66202C11.423 6.66202 11.1756 6.66202 10.9091 6.66202C10.6426 6.66202 10.3952 6.66202 10.1287 6.66202C9.88124 6.66202 9.6909 6.49071 9.70994 6.28133ZM10.319 1.40854C10.319 1.19916 10.5094 1.04689 10.7378 1.04689H11.0423C11.2708 1.04689 11.4611 1.2182 11.4611 1.40854V1.48468C11.4611 1.63695 11.3088 1.75116 11.1375 1.75116C11.0614 1.75116 10.9662 1.75116 10.8901 1.75116C10.8139 1.75116 10.7188 1.75116 10.6426 1.75116C10.4713 1.75116 10.319 1.63695 10.319 1.48468V1.40854ZM10.2429 3.23584C10.5094 2.4935 10.7759 2.26509 10.9091 2.26509C11.0423 2.26509 11.3088 2.47446 11.5753 3.23584C11.6324 3.40715 11.4801 3.57846 11.2898 3.55942C11.1565 3.55942 11.0423 3.55942 10.9091 3.55942C10.7759 3.55942 10.6616 3.55942 10.5284 3.55942C10.3381 3.55942 10.1858 3.38811 10.2429 3.23584ZM10.9091 3.94011C11.1946 3.94011 11.4801 3.94011 11.7847 3.95914C11.8418 4.22562 11.8989 4.53017 11.956 4.83472C11.9941 5.02506 11.8227 5.17734 11.6134 5.17734C11.385 5.17734 11.1565 5.17734 10.9281 5.17734C10.6997 5.17734 10.4713 5.17734 10.2429 5.17734C10.0335 5.17734 9.86221 5.02506 9.90028 4.83472C9.95738 4.53017 10.0145 4.24466 10.0716 3.95914C10.319 3.94011 10.6045 3.94011 10.9091 3.94011ZM10.2048 2.34122C10.0335 2.58867 9.88124 2.91225 9.76704 3.31197C9.70993 3.48328 9.55766 3.59749 9.34828 3.59749C8.92953 3.61652 8.49174 3.65459 8.09202 3.69266C8.66305 3.00742 9.40539 2.53157 10.2048 2.34122ZM5.46528 5.90064C5.82693 5.84354 6.18858 5.80547 6.56927 5.7674C6.4741 6.09099 6.41699 6.41457 6.35989 6.75719C5.78886 6.77622 5.2559 6.81429 4.76101 6.83333C4.89425 6.49071 5.14169 6.16712 5.46528 5.90064ZM8.72015 4.53017C8.32043 4.51114 7.93974 4.47307 7.59712 4.41597C7.61616 4.3779 7.63519 4.33983 7.67326 4.30176C7.7494 4.18755 7.86361 4.11142 8.01588 4.09238C8.37753 4.05431 8.73918 4.01624 9.11987 3.99721C9.36732 3.97818 9.55766 4.16852 9.51959 4.3779C9.48152 4.53017 9.46249 4.70148 9.44346 4.85375C9.40539 5.0441 9.23407 5.19637 9.00566 5.19637C8.37753 5.21541 7.76843 5.27251 7.17837 5.31058C7.21643 5.23444 7.23547 5.1583 7.27354 5.08217C7.71133 4.987 8.20622 4.92989 8.72015 4.91086C8.83435 4.91086 8.92953 4.81569 8.92953 4.72051C8.92953 4.62534 8.83435 4.54921 8.72015 4.53017ZM6.87382 4.26369C7.00706 4.24466 7.12127 4.22562 7.25451 4.20659C7.23547 4.24466 7.1974 4.30176 7.17837 4.33983C7.06416 4.32079 6.96899 4.28272 6.87382 4.26369ZM9.23408 8.03249C9.23408 8.2038 9.06277 8.35607 8.87243 8.35607C8.22526 8.33704 7.61616 8.33704 7.02609 8.318C6.87382 8.318 6.75961 8.2038 6.75961 8.08959C6.75961 7.97539 6.74058 7.84215 6.74058 7.72794C6.74058 7.5947 6.74058 7.48049 6.75961 7.36629C6.75961 7.23305 6.87382 7.13787 7.02609 7.13787C7.59712 7.11884 8.22526 7.09981 8.87243 7.09981C9.0818 7.09981 9.23408 7.23305 9.23408 7.42339C9.23408 7.5376 9.23408 7.63277 9.23408 7.74697C9.21504 7.82311 9.23408 7.91828 9.23408 8.03249ZM8.81532 8.73676C9.06277 8.73676 9.25311 8.90807 9.25311 9.11745C9.27215 9.36489 9.29118 9.61234 9.31021 9.85979C8.70111 9.84075 8.11105 9.80268 7.54002 9.76461C7.21644 9.74558 6.94995 9.5362 6.89285 9.25069C6.85478 9.07938 6.81671 8.88903 6.79768 8.69869C7.46388 8.69869 8.13008 8.71773 8.81532 8.73676ZM9.27214 6.30037C9.25311 6.50974 9.06277 6.68105 8.83435 6.68105C8.14912 6.70009 7.46388 6.71912 6.81671 6.73815C6.85478 6.50974 6.89285 6.28133 6.94996 6.05292C7.00706 5.84354 7.1974 5.69127 7.44485 5.67223C8.05395 5.61513 8.70112 5.57706 9.34828 5.55803C9.31022 5.80547 9.29118 6.05292 9.27214 6.30037ZM6.70251 5.36768C6.55023 5.38672 6.41699 5.40575 6.26472 5.40575C6.41699 5.32961 6.56927 5.27251 6.74058 5.21541C6.74058 5.27251 6.72154 5.32961 6.70251 5.36768ZM4.17094 6.8714C4.0377 6.89043 3.88543 6.89043 3.75219 6.90946C3.79025 6.73815 3.82833 6.56685 3.88543 6.39554V6.3765C4.01867 6.52878 4.09481 6.70009 4.17094 6.8714ZM3.67605 7.49953C3.67605 7.38532 3.79026 7.29015 3.9235 7.27112C4.03771 7.27112 4.15191 7.25208 4.26611 7.25208C4.30418 7.30919 4.38032 7.34725 4.45646 7.34725C4.55163 7.34725 4.62777 7.29015 4.66584 7.23305C5.17976 7.19498 5.73176 7.17594 6.34086 7.13787C6.32182 7.32822 6.32182 7.51856 6.32182 7.7089C6.32182 7.89925 6.32182 8.08959 6.34086 8.27994C5.42721 8.24187 4.62777 8.2038 3.9235 8.1467C3.79026 8.12766 3.67605 8.03249 3.67605 7.91828C3.67605 7.84215 3.67605 7.78504 3.67605 7.7089C3.67605 7.63277 3.67605 7.57566 3.67605 7.49953ZM6.37893 8.66062C6.417 9.00324 6.49313 9.32682 6.58831 9.65041C5.8079 9.57427 5.08459 9.46006 4.39936 9.32682C4.13288 9.26972 3.92349 9.09841 3.84736 8.87C3.80929 8.75579 3.79025 8.62255 3.75219 8.50835C4.53259 8.56545 5.42721 8.62255 6.37893 8.66062ZM6.70251 10.0501C6.85478 10.4689 7.0261 10.8686 7.25451 11.2112C6.51217 11.097 5.78886 10.9638 5.12266 10.7734C4.97039 10.7354 4.83714 10.6402 4.74197 10.526C4.51356 10.2595 4.32322 9.97399 4.17094 9.66944C4.93232 9.84075 5.78886 9.95496 6.70251 10.0501ZM7.15934 10.0882C7.7494 10.1453 8.35849 10.1834 8.98663 10.2024C9.21504 10.2024 9.38635 10.3547 9.42442 10.545C9.46249 10.8496 9.51959 11.1541 9.59573 11.4396C9.11987 11.4206 8.62498 11.3825 8.16815 11.3254C7.92071 11.3064 7.71133 11.1732 7.59712 10.9828C7.42581 10.7163 7.29258 10.4118 7.15934 10.0882ZM7.52099 3.7688C7.06416 3.8259 6.60734 3.90204 6.16955 3.99721C6.05534 3.94011 5.94113 3.883 5.84596 3.8259C6.68347 3.2168 7.71133 2.74094 8.87243 2.4935C8.3585 2.81708 7.90167 3.25487 7.52099 3.7688ZM7.04513 2.68384C6.49313 2.93129 5.96017 3.23584 5.50335 3.57845C5.37011 3.48328 5.2559 3.36908 5.1417 3.23584C5.73176 3.02646 6.35989 2.83612 7.04513 2.68384ZM1.77262 4.72051C1.82972 4.70148 1.86779 4.70148 1.92489 4.68245C2.00103 4.66341 2.05813 4.64438 2.13427 4.62534C2.61013 4.4921 3.02888 4.30176 3.39053 4.07335C3.4286 4.03528 3.48571 4.01624 3.52378 3.97818C3.52378 3.97818 3.54281 3.97818 3.54281 3.95914C3.58088 3.92107 3.61895 3.90204 3.67605 3.86397C3.67605 3.86397 3.69508 3.86397 3.69508 3.84494C3.73315 3.80687 3.77122 3.78783 3.80929 3.74976C3.80929 3.74976 3.80929 3.74976 3.82833 3.73073C4.09481 3.50232 4.32322 3.23584 4.45646 2.93129C4.51356 3.02646 4.57066 3.12163 4.62777 3.19777C4.66583 3.25487 4.7039 3.29294 4.74197 3.35004C4.91328 3.55942 5.10363 3.73073 5.35107 3.90204C5.42721 3.95914 5.50335 4.01624 5.59852 4.05431C6.03631 4.32079 6.55024 4.53017 7.1403 4.66341C6.39796 4.83472 5.75079 5.12024 5.27493 5.48189C4.91328 5.74837 4.6468 6.05292 4.47549 6.41457C4.41839 6.28133 4.32322 6.16712 4.24708 6.05292C4.20901 6.01485 4.17094 5.95775 4.15191 5.91968C4.11384 5.88161 4.07577 5.84354 4.0377 5.80547C4.0377 5.80547 4.03771 5.80547 4.01867 5.78644C3.9806 5.74837 3.94253 5.7103 3.90446 5.67223L3.88543 5.6532C3.69508 5.48189 3.50474 5.34865 3.2573 5.21541C3.18116 5.17734 3.12406 5.13927 3.04792 5.1012C3.04792 5.1012 3.04792 5.1012 3.02888 5.1012C2.95275 5.06313 2.87661 5.02506 2.80047 5.00603C2.64819 4.94893 2.49592 4.87279 2.32461 4.83472C2.24847 4.81569 2.17234 4.79665 2.0962 4.77762C2.02006 4.75858 1.94393 4.73955 1.86779 4.72051C1.82972 4.73955 1.81068 4.73955 1.77262 4.72051ZM2.34365 5.29154C2.19137 5.36768 2.0391 5.46285 1.90586 5.55803C1.81069 5.61513 1.69648 5.51996 1.77262 5.44382C1.84875 5.36768 1.92489 5.27251 2.00103 5.19637C2.11524 5.21541 2.22944 5.25348 2.34365 5.29154ZM1.56324 6.3194C1.88682 6.03388 2.28654 5.74837 2.80047 5.50092C3.04792 5.61513 3.2573 5.74837 3.42861 5.90064C2.83854 6.03388 2.21041 6.22423 1.67744 6.45264C1.58227 6.49071 1.4871 6.3765 1.56324 6.3194ZM3.46667 6.28133C3.39053 6.49071 3.33343 6.71912 3.29536 6.94753C2.49592 7.02367 1.84875 7.09981 1.37289 7.19498C1.27772 7.21401 1.18255 7.23305 1.08738 7.25208C1.4871 6.90946 2.30558 6.56684 3.46667 6.28133ZM1.16352 7.63277C1.56324 7.5376 2.26751 7.42339 3.2573 7.32822C3.23826 7.46146 3.23826 7.57566 3.23826 7.7089C3.23826 7.84215 3.23826 7.95635 3.2573 8.08959C2.26751 7.99442 1.56324 7.89925 1.16352 7.78504C1.06835 7.76601 1.06835 7.6518 1.16352 7.63277ZM1.37289 8.22283C1.84875 8.318 2.49592 8.39414 3.29536 8.47028C3.33343 8.69869 3.39053 8.9271 3.46667 9.13648C2.30558 8.85097 1.4871 8.50835 1.08738 8.16573C1.18255 8.18476 1.27772 8.2038 1.37289 8.22283ZM1.67744 8.96517C2.24847 9.21262 2.93371 9.40296 3.56184 9.55524C3.58088 9.55524 3.59991 9.55524 3.61895 9.57427C3.77122 9.89785 3.94253 10.2024 4.15191 10.507C3.99963 10.4499 3.84736 10.3927 3.69508 10.3356C2.7624 9.97399 2.02007 9.55524 1.54421 9.09841C1.4871 9.04131 1.58227 8.9271 1.67744 8.96517ZM1.77262 9.99303C1.69648 9.91689 1.82972 9.80268 1.90586 9.87882C2.36268 10.1643 2.89565 10.4499 3.54281 10.6973C3.88543 10.8305 4.24708 10.9447 4.62777 11.0589C5.2559 11.7442 6.09341 12.3152 7.04513 12.753C4.70391 12.201 2.8195 11.2303 1.77262 9.99303ZM5.42721 11.2683C6.09341 11.4206 6.79768 11.5538 7.52099 11.649C7.90167 12.182 8.3585 12.6198 8.87243 12.9433C7.52099 12.6388 6.32182 12.0487 5.42721 11.2683ZM8.09202 11.7061C8.51077 11.7442 8.92953 11.7823 9.34828 11.8013C9.53863 11.8203 9.70993 11.9345 9.76704 12.0868C9.90028 12.4865 10.0335 12.8101 10.2048 13.0576C9.40539 12.8862 8.66305 12.4104 8.09202 11.7061ZM11.5563 12.182C11.2898 12.9243 11.0233 13.1527 10.8901 13.1527C10.7568 13.1527 10.4903 12.9433 10.2239 12.182C10.1668 12.0107 10.319 11.8394 10.5094 11.8584C10.6426 11.8584 10.7568 11.8584 10.8901 11.8584C11.0233 11.8584 11.1375 11.8584 11.2707 11.8584C11.4801 11.8584 11.6134 12.0297 11.5563 12.182ZM12.0321 12.1058C12.0892 11.9345 12.2415 11.8203 12.4509 11.8203C12.8696 11.8013 13.3074 11.7632 13.7071 11.7252C13.1361 12.4294 12.3938 12.9053 11.5943 13.0956C11.7656 12.8291 11.9179 12.5056 12.0321 12.1058ZM14.2782 11.649C14.6398 11.6109 14.9824 11.5538 15.3251 11.4777C15.5154 11.5348 15.6677 11.6109 15.839 11.6871C15.0205 12.2581 14.0307 12.6959 12.9267 12.9433C13.4407 12.6198 13.8975 12.1629 14.2782 11.649ZM14.7731 12.734C15.306 12.5056 15.7819 12.22 16.2197 11.8965C16.3529 11.9916 16.4671 12.0868 16.5813 12.201C16.0103 12.4104 15.4012 12.5817 14.7731 12.734Z" fill="#D95484"/>
</svg>
