<svg width="964" height="312" viewBox="0 0 964 312" fill="none" xmlns="http://www.w3.org/2000/svg">
<path d="M944.156 299.477C944.156 296.761 945.101 294.458 946.991 292.568C948.998 290.56 951.36 289.557 954.076 289.557C956.793 289.557 959.095 290.56 960.985 292.568C962.993 294.458 963.997 296.761 963.997 299.477C963.997 302.193 962.993 304.555 960.985 306.563C959.095 308.452 956.793 309.397 954.076 309.397C951.36 309.397 948.998 308.452 946.991 306.563C945.101 304.555 944.156 302.193 944.156 299.477Z" fill="#D95484"/>
<path d="M875.917 243.146C880.877 243.146 884.833 244.563 887.785 247.397C890.737 250.232 892.686 253.892 893.631 258.38C897.646 254.483 902.193 251.118 907.271 248.283C912.35 245.331 917.783 243.854 923.569 243.854C925.459 243.855 927.408 244.031 929.415 244.386C931.423 244.74 933.253 245.389 934.906 246.334C936.559 247.279 937.918 248.519 938.98 250.054C940.043 251.471 940.575 253.361 940.575 255.723C940.575 259.384 939.099 262.159 936.146 264.049C933.312 265.82 930.3 266.706 927.111 266.706C925.813 266.706 924.632 266.529 923.569 266.175C924.16 264.167 924.632 262.277 924.986 260.506C925.459 258.616 925.694 256.431 925.694 253.951C925.694 251.471 925.163 249.523 924.101 248.105C923.156 246.688 921.679 245.98 919.672 245.979C916.601 245.979 913.117 247.337 909.22 250.054C905.323 252.77 901.662 256.254 898.237 260.506C894.813 264.757 891.919 269.599 889.557 275.031C887.195 280.346 886.014 285.66 886.014 290.975C886.014 295.58 887.313 299.005 889.911 301.249C892.509 303.375 895.934 304.437 900.186 304.438C904.909 304.438 909.869 302.902 915.065 299.832C920.38 296.643 925.459 292.805 930.301 288.317C935.261 283.83 939.807 279.165 943.94 274.323C948.192 269.363 951.617 265.171 954.215 261.746L955.278 262.632C951.499 267.592 947.129 272.965 942.169 278.752C937.327 284.421 932.012 289.676 926.226 294.518C920.557 299.241 914.476 303.198 907.98 306.387C901.603 309.575 895.049 311.169 888.317 311.169C882.885 311.169 878.574 309.752 875.386 306.918C872.315 303.966 870.544 300.186 870.071 295.58C867.827 297.47 865.406 299.301 862.808 301.072C860.21 302.844 857.435 304.379 854.482 305.678C851.648 306.977 848.636 308.04 845.447 308.866C842.377 309.693 839.188 310.106 835.882 310.106C829.505 310.106 824.663 308.748 821.356 306.032C819.101 304.243 817.587 302.018 816.817 299.358C813.372 302.254 810.236 304.479 807.405 306.029C802.563 308.746 798.075 310.104 793.941 310.104C790.044 310.103 787.033 309.041 784.907 306.915C782.781 304.789 781.719 302.014 781.719 298.589C781.719 296.227 782.191 293.806 783.136 291.326C783.628 289.778 784.352 288.02 785.306 286.053C783.453 288.118 781.566 290.114 779.643 292.038C776.336 295.345 773.325 298.179 770.608 300.541C767.892 302.785 765.353 304.615 762.991 306.032C760.747 307.449 758.562 308.453 756.437 309.044C754.429 309.753 752.362 310.106 750.236 310.106C746.103 310.106 742.855 308.985 740.493 306.741C738.249 304.379 737.128 301.427 737.128 297.884C737.128 294.105 738.426 290.03 741.024 285.66C743.623 281.291 746.516 277.04 749.705 272.906C752.894 268.773 755.787 264.934 758.385 261.392C760.983 257.731 762.282 254.778 762.282 252.534C762.282 250.881 761.81 249.641 760.865 248.814C759.92 247.87 758.798 247.397 757.499 247.397C755.019 247.398 752.126 248.579 748.819 250.94C745.631 253.184 742.265 256.136 738.722 259.797C735.179 263.458 731.636 267.533 728.093 272.021C724.668 276.508 721.361 280.996 718.173 285.483C715.102 289.971 712.328 294.163 709.848 298.061C707.486 301.958 705.596 305.147 704.179 307.627L685.401 308.335C689.417 301.958 693.314 295.935 697.093 290.267C700.99 284.48 704.415 279.224 707.367 274.5C710.438 269.658 712.858 265.407 714.63 261.746C716.519 258.085 717.465 255.191 717.465 253.065C717.465 251.649 717.051 250.35 716.225 249.169C715.398 247.988 714.099 247.397 712.327 247.397C709.847 247.397 706.954 248.579 703.647 250.94C700.459 253.184 697.093 256.136 693.55 259.797C690.007 263.458 686.405 267.533 682.744 272.021C679.201 276.508 675.835 280.996 672.646 285.483C669.458 289.971 666.624 294.163 664.144 298.061C661.664 301.958 659.715 305.147 658.298 307.627L640.406 308.335C646.901 297.943 653.338 287.609 659.715 277.335C666.092 266.943 672.351 256.373 678.492 245.626L699.219 244.562L675.658 276.803L676.013 277.157C678.493 274.323 681.268 270.957 684.338 267.061C687.526 263.163 690.951 259.443 694.612 255.9C698.273 252.357 702.171 249.345 706.305 246.865C710.556 244.385 715.044 243.146 719.768 243.146C723.074 243.146 725.849 244.031 728.093 245.803C730.455 247.574 731.636 250.232 731.636 253.774C731.636 255.428 731.34 257.199 730.75 259.089C730.16 260.978 729.392 262.867 728.447 264.757C727.621 266.528 726.617 268.359 725.436 270.249C724.373 272.02 723.369 273.614 722.425 275.031L722.779 275.386C725.023 272.552 727.68 269.303 730.75 265.643C733.821 261.864 737.128 258.321 740.671 255.015C744.332 251.708 748.111 248.932 752.008 246.688C756.023 244.327 759.98 243.146 763.877 243.146C767.656 243.146 770.667 244.327 772.911 246.688C775.273 249.05 776.454 251.767 776.454 254.837C776.454 258.852 775.155 262.986 772.557 267.237C769.959 271.371 767.066 275.504 763.877 279.638C760.688 283.771 757.794 287.786 755.196 291.684C752.598 295.581 751.299 299.124 751.299 302.312C751.299 303.611 751.594 304.733 752.185 305.678C752.775 306.504 753.72 306.918 755.02 306.918C759.862 306.918 767.774 301.426 778.757 290.443C782.07 287.13 785.317 283.687 788.502 280.116C790.5 276.654 793.022 272.537 796.067 267.766C799.61 262.097 804.039 255.129 809.354 246.862L827.6 245.977C822.049 254.716 817.266 262.215 813.251 268.475C809.236 274.616 805.928 279.871 803.33 284.24C800.85 288.61 798.961 292.212 797.662 295.046C796.481 297.762 795.891 300.006 795.891 301.777C795.891 303.194 796.126 304.376 796.599 305.32C797.189 306.147 798.016 306.561 799.079 306.561C801.441 306.56 804.748 305.202 808.999 302.486C811.181 301.13 813.626 299.287 816.338 296.96C816.258 296.287 816.219 295.591 816.219 294.872C816.219 292.038 817.105 289.439 818.876 287.077C820.647 284.597 823.305 283.357 826.848 283.357C829.21 283.357 831.158 284.066 832.693 285.483C834.229 286.901 834.996 288.79 834.996 291.152C834.996 293.514 834.17 295.463 832.517 296.998C830.981 298.533 829.21 299.301 827.202 299.301C827.202 302.017 828.028 304.143 829.682 305.678C831.335 307.213 833.52 307.98 836.236 307.98C841.196 307.98 846.156 306.268 851.116 302.844C856.194 299.301 860.742 295.049 864.757 290.089C868.772 285.011 872.02 279.637 874.5 273.969C876.98 268.182 878.22 262.986 878.22 258.38C878.22 255.428 877.57 253.007 876.271 251.117C874.972 249.11 872.728 248.105 869.539 248.105C867.65 248.106 865.76 248.578 863.871 249.522C861.982 250.467 860.21 251.648 858.557 253.065C856.903 254.483 855.368 256.077 853.951 257.849C852.534 259.502 851.293 261.097 850.23 262.632L848.99 261.746C850.525 259.62 852.18 257.494 853.951 255.368C855.841 253.125 857.848 251.117 859.974 249.346C862.217 247.456 864.638 245.98 867.236 244.917C869.953 243.736 872.846 243.146 875.917 243.146ZM822.276 222.248C824.52 222.248 826.469 223.075 828.122 224.729C829.893 226.382 830.779 228.33 830.779 230.574C830.779 232.936 829.835 235.12 827.945 237.128C826.056 239.017 823.929 239.963 821.567 239.963C818.969 239.963 816.725 239.313 814.836 238.014C812.947 236.597 812.002 234.53 812.002 231.813C812.002 229.097 813.006 226.853 815.014 225.082C817.139 223.193 819.56 222.248 822.276 222.248Z" fill="#D95484"/>
<path fill-rule="evenodd" clip-rule="evenodd" d="M394.064 271.667C389.458 279.107 385.798 285.309 383.081 290.269C380.365 295.111 379.007 299.067 379.007 302.138C379.007 305.326 380.305 306.921 382.902 306.921C385.382 306.921 388.75 305.562 393.001 302.846C397.252 300.13 401.8 296.352 406.641 291.51C409.244 288.908 411.816 286.196 414.379 283.395C415.172 279.817 416.656 276.26 418.834 272.729C422.259 267.179 426.57 262.221 431.766 257.851C436.962 253.482 442.632 249.94 448.773 247.223C455.032 244.507 460.937 243.149 466.487 243.149C471.565 243.149 475.522 244.149 478.357 246.157C481.191 248.046 482.606 250.764 482.606 254.306C482.606 257.14 481.602 259.739 479.594 262.101C477.705 264.463 475.227 266.59 472.157 268.479C469.087 270.369 465.601 272.02 461.704 273.437C457.926 274.854 454.147 276.095 450.368 277.158C446.589 278.221 443.043 279.107 439.736 279.816C436.43 280.524 433.713 281.114 431.587 281.586C430.997 283.948 430.704 286.075 430.704 287.965C430.704 293.042 432.12 297.175 434.953 300.363C437.788 303.552 441.745 305.15 446.823 305.15C451.783 305.15 457.216 303.674 463.121 300.721C467.217 298.713 471.305 296.065 475.402 292.801C475.397 292.608 475.386 292.414 475.386 292.218C475.386 290.329 475.683 288.438 476.274 286.548C476.746 284.659 477.511 282.946 478.574 281.411C479.636 279.876 480.995 278.636 482.648 277.691C484.183 276.628 486.014 276.096 488.139 276.095C490.856 276.095 492.925 276.864 494.342 278.399C495.877 279.934 496.642 281.708 496.642 283.715C496.642 286.194 495.934 288.082 494.518 289.381C493.101 290.68 491.449 291.331 489.56 291.331C488.024 291.331 486.723 291.034 485.66 290.444C485.07 291.507 484.598 292.69 484.244 293.989C483.772 295.17 483.535 296.41 483.535 297.709C483.536 301.015 484.776 303.733 487.256 305.858C489.853 307.983 492.865 309.045 496.288 309.046C498.414 309.046 500.541 308.692 502.667 307.983C504.91 307.275 506.859 306.27 508.512 304.971C510.283 303.554 511.703 301.899 512.765 300.009C513.828 298.12 514.357 296.053 514.357 293.81C514.357 290.74 513.592 287.965 512.057 285.486C510.64 282.888 509.046 280.407 507.274 278.045C505.503 275.683 503.848 273.32 502.313 270.958C500.896 268.478 500.188 265.879 500.188 263.163C500.188 259.857 500.956 256.965 502.492 254.485C504.027 252.006 506.033 249.939 508.512 248.286C510.992 246.514 513.769 245.213 516.84 244.386C519.91 243.56 523.039 243.149 526.227 243.149C531.895 243.149 536.621 244.389 540.4 246.869C544.296 249.231 546.245 252.656 546.245 257.143C546.245 260.567 545.122 263.403 542.879 265.646C540.635 267.772 537.8 268.833 534.376 268.833C533.313 268.833 532.308 268.773 531.364 268.655C530.537 268.418 529.829 268.182 529.239 267.946C530.537 265.585 531.424 263.282 531.897 261.039C532.487 258.677 532.78 256.374 532.78 254.131C532.78 251.769 532.072 249.703 530.655 247.932C529.356 246.16 527.347 245.274 524.631 245.274C521.325 245.274 518.786 246.336 517.015 248.461C515.244 250.469 514.357 253.01 514.357 256.081C514.357 259.387 515.069 262.34 516.486 264.938C518.021 267.417 519.673 269.838 521.444 272.2C523.215 274.562 524.809 277.042 526.227 279.641C527.762 282.238 528.53 285.309 528.53 288.852C528.53 291.095 528.116 293.28 527.289 295.405C526.58 297.531 525.576 299.422 524.277 301.076C522.978 302.728 521.501 304.145 519.848 305.325C518.313 306.388 516.661 307.096 514.89 307.45V307.804C520.913 306.505 526.465 304.321 531.542 301.251C534.863 299.213 538.035 296.976 541.066 294.552C540.987 293.802 540.944 293.024 540.944 292.218C540.944 290.329 541.241 288.438 541.832 286.548C542.304 284.659 543.069 282.946 544.132 281.411C545.194 279.876 546.553 278.636 548.206 277.691C549.741 276.628 551.572 276.096 553.697 276.095C555.498 276.095 557.01 276.441 558.24 277.116C558.373 276.952 558.511 276.793 558.644 276.628C558.55 276.744 558.416 276.913 558.248 277.123C558.869 277.466 559.425 277.884 559.9 278.399C561.435 279.934 562.2 281.708 562.2 283.715C562.2 286.194 561.492 288.082 560.076 289.381C558.659 290.68 557.006 291.331 555.118 291.331C553.582 291.331 552.281 291.034 551.218 290.444C550.628 291.507 550.156 292.69 549.802 293.989C549.33 295.17 549.093 296.41 549.093 297.709C549.094 301.015 550.334 303.733 552.814 305.858C555.411 307.983 558.422 309.045 561.846 309.046C563.972 309.046 566.099 308.692 568.225 307.983C570.468 307.275 572.417 306.27 574.07 304.971C575.841 303.554 577.26 301.899 578.323 300.009C579.386 298.12 579.915 296.053 579.915 293.81C579.915 290.74 579.15 287.965 577.615 285.486C576.198 282.888 574.603 280.407 572.832 278.045C571.061 275.683 569.406 273.32 567.87 270.958C566.454 268.478 565.746 265.879 565.746 263.163C565.746 259.857 566.514 256.965 568.049 254.485C569.584 252.006 571.59 249.939 574.07 248.286C576.55 246.514 579.327 245.213 582.398 244.386C585.468 243.56 588.597 243.149 591.785 243.149C597.453 243.149 602.179 244.389 605.958 246.869C609.854 249.231 611.803 252.656 611.803 257.143C611.803 260.567 610.68 263.403 608.437 265.646C606.193 267.772 603.358 268.833 599.934 268.833C598.871 268.833 597.866 268.773 596.921 268.655C596.095 268.418 595.387 268.182 594.797 267.946C596.095 265.585 596.982 263.282 597.455 261.039C598.045 258.677 598.338 256.374 598.338 254.131C598.338 251.769 597.63 249.703 596.213 247.932C594.914 246.16 592.905 245.274 590.189 245.274C586.883 245.274 584.344 246.336 582.573 248.461C580.802 250.469 579.915 253.01 579.915 256.081C579.915 259.387 580.627 262.34 582.044 264.938C583.579 267.417 585.231 269.838 587.002 272.2C588.773 274.562 590.367 277.042 591.785 279.641C593.32 282.238 594.088 285.309 594.088 288.852C594.088 291.095 593.673 293.28 592.847 295.405C592.57 296.236 592.247 297.03 591.88 297.789C586.224 306.626 580.122 309.417 574.618 310.694C571.95 311.002 569.17 311.17 566.275 311.17C563.205 311.17 560.134 310.817 557.063 310.108C554.112 309.518 551.455 308.513 549.093 307.096C546.614 305.561 544.665 303.613 543.248 301.251C542.413 299.901 541.813 298.392 541.432 296.727C536.028 301.009 530.077 304.47 523.569 307.096C516.955 309.812 509.338 311.17 500.717 311.17C497.647 311.17 494.576 310.817 491.506 310.108C488.554 309.518 485.897 308.513 483.535 307.096C481.056 305.561 479.107 303.613 477.69 301.251C476.681 299.62 476.006 297.759 475.661 295.668C469.099 300.971 462.736 304.783 456.567 307.096C449.127 309.812 442.1 311.17 435.487 311.17C428.755 311.17 423.44 309.165 419.543 305.15C415.646 301.135 413.698 295.937 413.697 289.56C413.697 288.667 413.742 287.774 413.827 286.883C413.024 287.743 412.227 288.579 411.424 289.381C404.574 296.349 398.491 301.546 393.176 304.971C387.98 308.396 382.547 310.108 376.878 310.108C368.849 310.108 364.834 306.565 364.834 299.48C364.834 296.174 366.014 292.04 368.375 287.081C368.583 286.655 368.803 286.215 369.03 285.764C367.095 287.932 365.125 290.027 363.112 292.039C359.806 295.346 356.796 298.181 354.08 300.542C351.364 302.786 348.826 304.616 346.464 306.034C344.22 307.451 342.032 308.455 339.907 309.046C337.899 309.754 335.833 310.108 333.707 310.108C329.574 310.108 326.328 308.985 323.966 306.742C321.723 304.38 320.6 301.427 320.6 297.884C320.6 294.106 321.898 290.03 324.496 285.661C327.094 281.292 329.99 277.041 333.178 272.908C336.366 268.775 339.258 264.936 341.856 261.393C344.454 257.732 345.756 254.779 345.756 252.535C345.756 250.882 345.28 249.642 344.335 248.815C343.391 247.872 342.271 247.399 340.973 247.398C338.493 247.398 335.597 248.578 332.291 250.94C329.102 253.184 325.735 256.136 322.192 259.797C318.649 263.458 315.107 267.533 311.564 272.021C308.139 276.508 304.833 280.998 301.644 285.486C298.574 289.973 295.8 294.166 293.32 298.063C290.958 301.961 289.067 305.149 287.65 307.629L268.873 308.337C272.888 301.96 276.784 295.937 280.563 290.269C284.46 284.483 287.885 279.227 290.837 274.504C293.908 269.662 296.331 265.408 298.103 261.747C299.992 258.087 300.936 255.194 300.936 253.069C300.936 251.651 300.521 250.35 299.695 249.169C298.868 247.989 297.57 247.398 295.799 247.398C293.319 247.398 290.426 248.579 287.121 250.94C283.932 253.183 280.564 256.137 277.022 259.797C273.479 263.458 269.876 267.533 266.215 272.021C262.672 276.508 259.309 280.998 256.12 285.486C252.931 289.973 250.097 294.166 247.617 298.063C245.137 301.961 243.185 305.149 241.768 307.629L223.878 308.337C226.562 304.044 229.223 299.751 231.886 295.478C227.494 299.544 223.142 303.008 218.821 305.858C213.389 309.401 207.955 311.17 202.523 311.17C198.744 311.17 195.791 310.227 193.666 308.337C191.658 306.33 190.654 303.909 190.653 301.076C190.653 300.131 190.714 299.244 190.832 298.418C190.95 297.591 191.126 296.94 191.362 296.468H191.008C187.347 300.601 183.214 304.087 178.609 306.921C174.003 309.755 169.042 311.17 163.727 311.17C160.894 311.17 158.473 310.641 156.465 309.579C154.458 308.516 152.803 307.097 151.504 305.325C150.323 303.436 149.44 301.369 148.85 299.126C148.259 296.764 147.962 294.343 147.962 291.864C147.962 289.936 148.142 288.007 148.495 286.08C146.587 287.974 144.57 289.905 142.437 291.864C134.289 299.185 126.435 304.262 118.877 307.096C111.437 309.812 104.41 311.17 97.7962 311.17C91.065 311.17 85.7494 309.165 81.8522 305.15C77.9552 301.135 76.0072 295.937 76.007 289.56C76.007 288.952 76.0285 288.343 76.0679 287.736C73.0736 290.808 69.9231 293.666 66.6051 296.293C61.055 300.78 54.913 304.38 48.1822 307.096C41.569 309.812 33.9513 311.17 25.3306 311.17C22.2605 311.17 19.1892 310.817 16.1191 310.108C13.1671 309.518 10.5107 308.513 8.14905 307.096C5.66914 305.561 3.72095 303.613 2.30382 301.251C0.768792 298.771 0.000232018 295.76 0 292.218C0 290.329 0.296772 288.438 0.887256 286.548C1.35955 284.659 2.12477 282.946 3.18727 281.411C4.24994 279.876 5.60886 278.636 7.26179 277.691C8.79667 276.628 10.6278 276.096 12.7529 276.095C15.4691 276.095 17.5389 276.864 18.9561 278.399C20.4909 279.934 21.2561 281.708 21.2561 283.715C21.2558 286.194 20.548 288.082 19.1312 289.381C17.7145 290.68 16.0621 291.331 14.1732 291.331C12.638 291.331 11.3368 291.034 10.2739 290.444C9.68341 291.507 9.21162 292.69 8.85733 293.989C8.38513 295.17 8.14905 296.41 8.14905 297.709C8.14934 301.015 9.38969 303.733 11.8694 305.858C14.467 307.983 17.4781 309.045 20.9019 309.046C23.0276 309.046 25.1546 308.692 27.2803 307.983C29.5239 307.275 31.4722 306.27 33.1255 304.971C34.8969 303.554 36.3161 301.899 37.379 300.009C38.4412 298.12 38.9707 296.053 38.9707 293.81C38.9706 290.74 38.2053 287.965 36.6707 285.486C35.2537 282.888 33.6591 280.407 31.8879 278.045C30.1165 275.683 28.4614 273.32 26.9261 270.958C25.5092 268.478 24.8013 265.879 24.8013 263.163C24.8015 259.857 25.57 256.965 27.1051 254.485C28.6401 252.006 30.6461 249.939 33.1255 248.286C35.6055 246.514 38.383 245.213 41.4535 244.386C44.5233 243.56 47.6523 243.149 50.8401 243.149C56.5088 243.149 61.2343 244.389 65.0134 246.869C68.9096 249.231 70.8586 252.656 70.8586 257.143C70.8584 260.567 69.736 263.403 67.4924 265.646C65.2487 267.772 62.4136 268.833 58.9892 268.833C57.9264 268.833 56.9218 268.773 55.9771 268.655C55.1509 268.418 54.4424 268.182 53.8522 267.946C55.151 265.585 56.0379 263.282 56.5102 261.039C57.1005 258.677 57.3936 256.374 57.3937 254.131C57.3937 251.769 56.6857 249.703 55.2688 247.932C53.9697 246.16 51.9608 245.274 49.2446 245.274C45.9389 245.274 43.3998 246.336 41.6287 248.461C39.8572 250.469 38.9707 253.01 38.9707 256.081C38.971 259.387 39.6824 262.34 41.0994 264.938C42.6343 267.417 44.2864 269.838 46.0573 272.2C47.8288 274.562 49.423 277.042 50.8401 279.641C52.3751 282.238 53.144 285.309 53.144 288.852C53.1438 291.095 52.7291 293.28 51.9026 295.405C51.194 297.531 50.1894 299.422 48.8905 301.076C47.5918 302.728 46.1146 304.145 44.4618 305.325C42.927 306.388 41.2746 307.096 39.5038 307.45V307.804C45.5265 306.505 51.0781 304.321 56.1561 301.251C61.3516 298.062 66.1925 294.401 70.6796 290.269C72.6726 288.38 74.6027 286.428 76.4792 284.423C77.2024 280.497 78.7568 276.598 81.1439 272.729C84.5685 267.179 88.8801 262.221 94.0758 257.851C99.272 253.482 104.941 249.94 111.082 247.223C117.341 244.507 123.246 243.149 128.797 243.149C133.875 243.149 137.832 244.149 140.666 246.157C143.5 248.046 144.916 250.764 144.916 254.306C144.916 257.14 143.911 259.739 141.904 262.101C140.014 264.463 137.534 266.59 134.463 268.479C131.393 270.368 127.91 272.02 124.014 273.437C120.236 274.854 116.456 276.095 112.678 277.158C108.899 278.221 105.353 279.107 102.046 279.816C98.7397 280.524 96.0223 281.114 93.8968 281.586C93.3064 283.948 93.0134 286.075 93.0134 287.965C93.0134 293.042 94.4297 297.175 97.2631 300.363C100.097 303.552 104.055 305.15 109.132 305.15C114.092 305.15 119.526 303.674 125.431 300.721C131.453 297.769 137.477 293.458 143.499 287.79C145.56 285.835 147.576 283.833 149.565 281.807C150.342 279.372 151.404 276.938 152.745 274.504C155.934 268.717 159.948 263.519 164.79 258.914C169.632 254.19 175.008 250.412 180.913 247.577C186.935 244.625 192.662 243.149 198.094 243.149C202.228 243.149 205.477 244.031 207.839 245.803C210.201 247.574 212.149 250.352 213.684 254.131L218.113 247.044L236.536 245.982C235.473 248.108 233.936 250.706 231.928 253.777C229.921 256.729 227.736 259.975 225.374 263.518C223.013 266.942 220.593 270.546 218.113 274.325C215.751 277.986 213.567 281.589 211.559 285.132C209.552 288.556 207.896 291.802 206.597 294.872C205.416 297.825 204.827 300.366 204.827 302.492C204.827 305.444 206.303 306.921 209.255 306.921C212.09 306.92 215.929 305.265 220.771 301.959C225.612 298.653 230.689 294.283 236.002 288.852C236.014 288.84 236.025 288.826 236.037 288.814C238.424 284.977 240.817 281.157 243.188 277.337C249.565 266.944 255.824 256.374 261.965 245.628L282.692 244.565L259.128 276.804L259.482 277.158C261.962 274.323 264.74 270.96 267.81 267.063C270.999 263.166 274.423 259.445 278.084 255.902C281.745 252.359 285.642 249.349 289.775 246.869C294.026 244.389 298.516 243.149 303.24 243.149C306.545 243.149 309.32 244.032 311.564 245.803C313.926 247.574 315.109 250.234 315.109 253.777C315.109 255.43 314.812 257.2 314.222 259.089C313.631 260.978 312.863 262.869 311.918 264.759C311.091 266.53 310.087 268.361 308.906 270.25C307.843 272.021 306.842 273.616 305.898 275.033L306.252 275.387C308.495 272.553 311.152 269.306 314.222 265.646C317.292 261.867 320.599 258.321 324.142 255.014C327.802 251.708 331.581 248.934 335.478 246.69C339.493 244.328 343.45 243.149 347.347 243.149C351.126 243.149 354.14 244.328 356.384 246.69C358.745 249.052 359.925 251.769 359.925 254.839C359.925 258.854 358.627 262.987 356.03 267.238C353.431 271.371 350.536 275.507 347.347 279.641C344.159 283.773 341.267 287.788 338.669 291.685C336.071 295.582 334.77 299.125 334.77 302.313C334.77 303.612 335.066 304.735 335.657 305.679C336.247 306.506 337.191 306.921 338.49 306.921C343.332 306.921 351.246 301.427 362.229 290.444C365.57 287.103 368.843 283.628 372.053 280.025C374.151 276.188 376.705 271.749 379.715 266.709L399.882 227.652L419.543 226.589L394.064 271.667ZM199.69 245.274C196.973 245.274 194.196 246.099 191.362 247.753C188.646 249.406 185.989 251.59 183.392 254.306C180.912 257.022 178.491 260.093 176.13 263.518C173.886 266.824 171.934 270.252 170.281 273.795C168.628 277.337 167.33 280.763 166.385 284.069C165.441 287.257 164.969 290.032 164.969 292.393C164.969 295.818 165.501 298.832 166.564 301.43C167.746 303.908 170.166 305.15 173.826 305.15C176.306 305.032 178.905 304.027 181.621 302.138C184.337 300.13 186.936 297.65 189.416 294.697C192.014 291.745 194.434 288.495 196.678 284.953C199.039 281.292 201.049 277.631 202.702 273.97C204.473 270.31 205.832 266.885 206.776 263.697C207.839 260.39 208.368 257.612 208.368 255.369C208.368 252.181 207.778 249.703 206.597 247.932C205.417 246.16 203.114 245.274 199.69 245.274ZM125.964 245.274C123.011 245.274 119.819 246.514 116.394 248.994C112.97 251.474 109.724 254.545 106.654 258.205C103.701 261.748 101.045 265.527 98.6834 269.542C96.4399 273.438 94.9634 276.863 94.2548 279.816C99.0958 278.871 103.701 277.337 108.07 275.212C112.44 272.968 116.279 270.487 119.585 267.771C123.01 264.937 125.727 261.984 127.734 258.914C129.742 255.725 130.747 252.712 130.747 249.877C130.746 248.225 130.271 247.044 129.326 246.336C128.5 245.628 127.38 245.274 125.964 245.274ZM463.654 245.274C460.702 245.274 457.509 246.514 454.085 248.994C450.66 251.474 447.414 254.545 444.344 258.205C441.392 261.748 438.736 265.527 436.374 269.542C434.13 273.438 432.654 276.863 431.945 279.816C436.786 278.871 441.392 277.337 445.76 275.212C450.13 272.968 453.969 270.487 457.276 267.771C460.701 264.937 463.417 261.984 465.425 258.914C467.432 255.725 468.437 252.712 468.437 249.877C468.437 248.225 467.961 247.044 467.017 246.336C466.19 245.628 465.07 245.274 463.654 245.274Z" fill="#D95484"/>
<path d="M780.009 165.156L798.432 164.093C797.369 166.219 795.834 168.817 793.826 171.888C791.819 174.84 789.634 178.088 787.272 181.63C784.91 185.055 782.489 188.657 780.009 192.436C777.647 196.097 775.462 199.699 773.455 203.242C771.447 206.667 769.794 209.915 768.494 212.985C767.314 215.938 766.723 218.477 766.723 220.602C766.723 223.555 768.199 225.031 771.152 225.031C773.986 225.031 777.824 223.378 782.666 220.071C787.508 216.764 792.586 212.395 797.901 206.962C800.145 204.718 802.388 202.297 804.632 199.699C806.994 197.101 809.238 194.562 811.364 192.082C813.489 189.484 815.438 187.122 817.209 184.996C818.981 182.752 820.398 180.922 821.461 179.505L822.701 180.213C819.63 184.347 816.088 188.953 812.072 194.031C808.057 198.991 803.215 204.305 797.546 209.974C791.878 215.642 786.268 220.307 780.718 223.968C775.285 227.511 769.853 229.283 764.42 229.283C760.641 229.283 757.689 228.338 755.563 226.448C753.555 224.441 752.551 222.02 752.551 219.185C752.551 218.241 752.61 217.355 752.729 216.528C752.847 215.701 753.024 215.052 753.26 214.58H752.906C749.245 218.713 745.111 222.197 740.506 225.031C735.9 227.865 730.94 229.283 725.625 229.283C722.791 229.283 720.37 228.751 718.362 227.688C716.355 226.625 714.701 225.208 713.402 223.437C712.221 221.547 711.336 219.481 710.745 217.237C710.155 214.875 709.859 212.454 709.859 209.974C709.859 204.187 711.454 198.4 714.642 192.614C717.831 186.827 721.846 181.63 726.688 177.025C731.53 172.301 736.904 168.522 742.808 165.687C748.831 162.735 754.559 161.259 759.992 161.259C764.125 161.259 767.373 162.145 769.735 163.916C772.096 165.687 774.045 168.463 775.58 172.242L780.009 165.156ZM726.865 210.505C726.865 213.93 727.397 216.941 728.46 219.54C729.641 222.02 732.062 223.26 735.723 223.26C738.203 223.142 740.801 222.138 743.517 220.248C746.233 218.241 748.831 215.76 751.311 212.808C753.91 209.856 756.331 206.608 758.574 203.065C760.936 199.404 762.944 195.743 764.597 192.082C766.369 188.421 767.727 184.996 768.672 181.808C769.735 178.501 770.266 175.726 770.266 173.482C770.266 170.293 769.675 167.813 768.494 166.042C767.314 164.27 765.011 163.385 761.586 163.385C758.87 163.385 756.094 164.211 753.26 165.865C750.544 167.518 747.887 169.703 745.288 172.419C742.808 175.135 740.387 178.206 738.026 181.63C735.782 184.937 733.833 188.362 732.18 191.905C730.526 195.448 729.227 198.873 728.282 202.179C727.338 205.368 726.865 208.143 726.865 210.505Z" fill="#D95484"/>
<path d="M630.192 213.355H669.741V226.445H630.192V213.355ZM669.741 167.817H630.192V154.587H669.741V167.817ZM630.192 213.355H617.102V167.817H630.192V180.768H669.741V167.817H682.832V193.858H630.192V213.355ZM669.741 200.264H682.832V213.355H669.741V200.264Z" fill="#D95484"/>
<path d="M610.691 154.587V167.678H597.601V180.768H584.511V226.445H571.281V154.587H584.511V167.678H597.601V154.587H610.691Z" fill="#D95484"/>
<path d="M547.842 154.587H560.932V226.445H547.842V213.355H534.612V226.445H514.559V213.355H534.612V200.264H547.842V154.587ZM514.559 213.355H501.469V154.587H514.559V213.355Z" fill="#D95484"/>
<path d="M468.887 167.68H455.797V154.59H468.887V127.156H481.978V154.59H495.068V167.68H481.978V213.357H495.068V226.447H481.978V213.357H468.887V167.68Z" fill="#D95484"/>
<path d="M436.217 154.587H449.307V226.445H436.217V213.355H422.987V226.445H402.934V213.355H422.987V200.264H436.217V154.587ZM402.934 213.355H389.844V154.587H402.934V213.355Z" fill="#D95484"/>
<path d="M391.183 127.156V140.246H338.543V170.326H378.093V183.416H338.543V226.447H325.453V127.156H391.183Z" fill="#D95484"/>
<path d="M309.883 180.568C307.521 183.638 304.687 186.413 301.38 188.893C298.192 191.373 294.649 192.614 290.751 192.614C288.035 192.614 285.673 192.023 283.666 190.842C281.658 189.661 279.827 188.008 278.174 185.882C276.757 191.787 274.395 197.396 271.088 202.711C267.9 207.907 264.002 212.513 259.397 216.528C254.791 220.425 249.654 223.555 243.985 225.917C238.316 228.161 232.412 229.283 226.271 229.283C219.775 229.283 214.579 227.452 210.682 223.791C206.785 220.012 204.836 214.875 204.836 208.379C204.836 202.12 206.43 196.156 209.619 190.488C212.807 184.701 216.941 179.682 222.019 175.43C227.097 171.061 232.707 167.636 238.848 165.156C244.989 162.558 251.012 161.259 256.917 161.259C263.294 161.259 268.313 162.971 271.974 166.396C275.635 169.821 277.879 173.954 278.706 178.796C279.296 182.339 280.595 185.173 282.603 187.299C284.729 189.425 287.445 190.488 290.751 190.488C293.94 190.488 296.952 189.543 299.786 187.653C302.62 185.764 305.632 182.93 308.82 179.15L309.883 180.568ZM227.511 227.157C230.463 227.157 233.415 226.153 236.368 224.145C239.32 222.138 242.155 219.54 244.871 216.351C247.587 213.162 250.067 209.56 252.311 205.545C254.673 201.53 256.68 197.515 258.334 193.499C260.105 189.484 261.463 185.646 262.408 181.985C263.353 178.324 263.825 175.253 263.825 172.773C263.825 169.821 263.176 167.518 261.877 165.865C260.696 164.211 258.747 163.385 256.031 163.385C253.079 163.385 250.126 164.388 247.174 166.396C244.221 168.404 241.387 171.002 238.671 174.19C235.954 177.379 233.415 180.981 231.053 184.996C228.81 189.012 226.802 193.027 225.031 197.042C223.377 201.057 222.078 204.896 221.133 208.557C220.189 212.218 219.716 215.288 219.716 217.768C219.716 220.721 220.307 223.023 221.488 224.677C222.787 226.33 224.794 227.157 227.511 227.157Z" fill="#D95484"/>
<path d="M163.515 167.28L164.755 164.091H178.395L191.681 141.771L210.812 141.062L196.109 164.091H218.607L217.013 167.28H194.161C188.846 176.019 184.359 183.4 180.698 189.423C177.037 195.328 174.084 200.288 171.84 204.303C169.715 208.201 168.12 211.33 167.058 213.692C166.113 216.054 165.64 218.121 165.64 219.892C165.64 221.427 166.054 222.667 166.88 223.612C167.707 224.557 168.888 225.029 170.423 225.029C173.376 225.029 177.273 223.553 182.115 220.601C186.957 217.53 192.153 213.338 197.704 208.023C201.483 204.244 205.616 199.816 210.104 194.738C214.592 189.659 218.784 184.522 222.681 179.326L223.744 180.212C221.028 183.755 217.603 188.065 213.47 193.143C209.336 198.221 204.79 203.241 199.829 208.201C197.113 210.917 194.279 213.515 191.326 215.995C188.492 218.357 185.599 220.483 182.646 222.372C179.694 224.144 176.801 225.561 173.966 226.624C171.132 227.687 168.357 228.218 165.64 228.218C161.861 228.218 158.555 227.391 155.72 225.738C152.886 223.967 151.469 220.955 151.469 216.704C151.469 213.633 152.118 210.503 153.417 207.315C154.716 204.008 156.488 200.406 158.732 196.509C161.094 192.612 163.81 188.301 166.88 183.577C169.951 178.854 173.258 173.421 176.801 167.28H163.515Z" fill="#D95484"/>
<path d="M823.886 68.6699V104.442C823.886 110.755 824.587 114.262 831.882 114.262C836.932 114.262 841.421 114.402 841.421 119.733C841.421 124.783 835.669 125.064 832.022 125.064H812.803C803.965 125.064 801.019 123.801 801.019 114.262V68.6699H798.214C794.146 68.6699 789.797 68.6699 789.797 63.1988C789.797 59.5515 792.322 58.7098 795.408 58.1486C799.196 57.5875 802.563 57.1667 804.807 53.7999C806.631 50.8539 808.174 44.5412 808.735 41.0342C809.717 35.8437 810.839 34.02 816.451 34.02C822.904 34.02 823.886 34.8617 823.886 40.7536V57.5875H831.741C835.95 57.5875 840.439 57.7278 840.439 63.1988C840.439 68.1087 835.95 68.6699 832.022 68.6699H823.886Z" fill="#D95484"/>
<path d="M740.996 123.52C736.227 121.416 729.914 117.207 729.914 111.456C729.914 108.089 732.439 105.003 735.806 105.003C739.032 105.003 740.295 106.826 742.259 109.071C746.748 113.981 749.694 117.207 756.708 117.207C761.478 117.207 768.632 114.963 768.632 108.931C768.632 94.6217 732.159 105.564 732.159 80.3129C732.159 62.9179 749.694 56.4648 764.283 56.4648C770.736 56.4648 780.977 58.1482 786.448 61.7956C789.394 63.6193 789.394 68.1083 789.394 71.1945C789.394 74.2808 789.254 78.0684 785.185 78.0684C778.873 78.0684 779.434 66.0041 765.826 66.0041C761.057 66.0041 755.165 68.2486 755.165 73.8599C755.165 86.6256 792.48 77.6475 792.48 102.898C792.48 117.488 777.61 127.167 759.514 127.167C752.92 127.167 746.888 126.185 740.996 123.52Z" fill="#D95484"/>
<path d="M724.832 83.6797V105.844C724.832 112.438 724.972 114.402 727.497 115.664C730.584 117.207 732.127 118.189 732.127 120.574C732.127 125.063 727.918 125.063 724.551 125.063H709.962C702.948 125.063 702.948 122.678 702.948 116.366C698.178 124.221 689.761 127.167 681.204 127.167C668.017 127.167 655.953 119.873 655.953 105.424C655.953 85.5034 681.204 80.5935 696.635 80.5935H701.405C701.405 72.1765 697.337 65.8638 688.358 65.8638C679.801 65.8638 678.539 74.8419 669.701 74.8419C665.633 74.8419 661.003 73.0182 661.003 68.1083C661.003 58.2885 683.168 56.4648 690.042 56.4648C714.451 56.4648 724.832 67.2666 724.832 83.6797ZM702.106 89.4313H699.581C689.621 89.4313 679.521 94.3412 679.521 105.564C679.521 110.895 682.607 115.664 688.358 115.664C692.988 115.664 696.635 112.718 699.16 108.931C702.106 104.161 702.106 104.021 702.106 89.4313Z" fill="#D95484"/>
<path d="M603.912 86.3444V107.247C603.912 111.595 603.912 113.84 607.98 115.383C611.908 116.926 613.451 117.768 613.451 120.293C613.451 124.08 609.663 125.062 606.577 125.062H577.819C574.733 125.062 570.945 124.08 570.945 120.293C570.945 117.768 572.488 116.926 574.452 115.944C578.1 114.401 578.38 112.156 578.38 107.247V40.1914C578.38 34.7204 578.38 32.7564 575.154 31.9147C571.787 30.9327 570.945 29.6702 570.945 27.1451C570.945 23.3575 574.733 22.3755 577.819 22.3755H621.167C654.694 22.3755 662.41 38.0872 662.41 50.2917C662.41 65.4423 650.065 85.0819 603.912 86.3444ZM603.912 42.8568V75.5426C617.379 73.719 635.054 67.6868 635.054 51.1334C635.054 39.0691 626.497 32.1953 614.854 32.1953C606.437 32.1953 603.912 34.7204 603.912 42.8568Z" fill="#D95484"/>
<path d="M478.794 92.1174C481.038 89.2831 483.696 86.0354 486.766 82.3744C489.837 78.5953 493.143 75.0524 496.686 71.7457C500.347 68.439 504.126 65.6637 508.023 63.4199C512.039 61.0579 515.995 59.877 519.892 59.877C523.671 59.877 526.683 61.0579 528.927 63.4199C531.289 65.7818 532.47 68.498 532.47 71.5686C532.47 75.5838 531.17 79.7172 528.572 83.9687C525.974 88.1021 523.081 92.2355 519.892 96.3689C516.704 100.502 513.81 104.518 511.212 108.415C508.614 112.312 507.315 115.855 507.315 119.043C507.315 120.343 507.61 121.464 508.201 122.409C508.791 123.236 509.736 123.649 511.035 123.649C515.877 123.649 523.789 118.158 534.772 107.175C539.26 102.687 543.63 97.9632 547.881 93.0031C552.251 87.925 556.03 83.3192 559.218 79.1858L560.636 79.8944C559.218 81.6658 557.565 83.6735 555.676 85.9173C553.904 88.1612 551.955 90.5821 549.83 93.1803C547.704 95.6603 545.401 98.2584 542.921 100.975C540.559 103.691 538.138 106.289 535.658 108.769C532.351 112.076 529.34 114.91 526.624 117.272C523.907 119.516 521.368 121.346 519.006 122.764C516.763 124.181 514.578 125.185 512.452 125.775C510.444 126.484 508.378 126.838 506.252 126.838C502.119 126.838 498.871 125.716 496.509 123.472C494.265 121.11 493.143 118.158 493.143 114.615C493.143 110.836 494.442 106.761 497.04 102.392C499.639 98.0223 502.532 93.7708 505.721 89.6374C508.909 85.504 511.803 81.6658 514.401 78.1229C516.999 74.4619 518.298 71.5095 518.298 69.2657C518.298 67.6123 517.826 66.3723 516.881 65.5456C515.936 64.6008 514.814 64.1284 513.515 64.1284C511.035 64.1284 508.142 65.3094 504.835 67.6714C501.646 69.9152 498.28 72.8676 494.738 76.5286C491.195 80.1896 487.652 84.264 484.109 88.7516C480.684 93.2393 477.377 97.727 474.189 102.215C471.118 106.702 468.343 110.895 465.863 114.792C463.501 118.689 461.611 121.878 460.194 124.358L441.417 125.066C445.432 118.689 449.329 112.666 453.108 106.998C457.006 101.211 460.43 95.9556 463.383 91.2317C466.453 86.3897 468.874 82.1382 470.646 78.4772C472.535 74.8162 473.48 71.9228 473.48 69.7971C473.48 68.3799 473.067 67.0809 472.24 65.8999C471.413 64.7189 470.114 64.1284 468.343 64.1284C465.863 64.1284 462.969 65.3094 459.663 67.6714C456.474 69.9152 453.108 72.8676 449.565 76.5286C446.023 80.1896 442.421 84.264 438.76 88.7516C435.217 93.2393 431.851 97.727 428.662 102.215C425.474 106.702 422.639 110.895 420.159 114.792C417.679 118.689 415.731 121.878 414.314 124.358L396.422 125.066C402.917 114.674 409.353 104.34 415.731 94.066C422.108 83.6735 428.367 73.1038 434.508 62.357L455.234 61.2941L431.674 93.5346L432.028 93.8889C434.508 91.0545 437.283 87.6888 440.354 83.7916C443.543 79.8944 446.967 76.1743 450.628 72.6314C454.289 69.0885 458.187 66.077 462.32 63.597C466.571 61.117 471.059 59.877 475.783 59.877C479.09 59.877 481.865 60.7627 484.109 62.5341C486.471 64.3056 487.652 66.9628 487.652 70.5057C487.652 72.159 487.357 73.9305 486.766 75.82C486.176 77.7096 485.408 79.5991 484.463 81.4887C483.636 83.2601 482.633 85.0906 481.452 86.9802C480.389 88.7517 479.385 90.346 478.44 91.7631L478.794 92.1174Z" fill="#D95484"/>
<path d="M433.164 79.1858C430.802 82.2563 427.968 85.0316 424.661 87.5116C421.473 89.9917 417.93 91.2317 414.033 91.2317C411.316 91.2317 408.955 90.6412 406.947 89.4602C404.939 88.2793 403.109 86.6259 401.455 84.5002C400.038 90.405 397.676 96.0146 394.37 101.329C391.181 106.525 387.284 111.131 382.678 115.146C378.072 119.043 372.935 122.173 367.266 124.535C361.598 126.779 355.693 127.901 349.552 127.901C343.056 127.901 337.86 126.07 333.963 122.409C330.066 118.63 328.117 113.493 328.117 106.998C328.117 100.738 329.711 94.7746 332.9 89.1059C336.089 83.3192 340.222 78.3001 345.3 74.0486C350.378 69.679 355.988 66.2542 362.129 63.7742C368.27 61.176 374.293 59.877 380.198 59.877C386.575 59.877 391.594 61.5894 395.255 65.0142C398.916 68.439 401.16 72.5724 401.987 77.4143C402.577 80.9573 403.876 83.7916 405.884 85.9173C408.01 88.0431 410.726 89.1059 414.033 89.1059C417.221 89.1059 420.233 88.1612 423.067 86.2716C425.901 84.3821 428.913 81.5477 432.102 77.7686L433.164 79.1858ZM350.792 125.775C353.744 125.775 356.697 124.771 359.649 122.764C362.601 120.756 365.436 118.158 368.152 114.969C370.868 111.781 373.348 108.179 375.592 104.163C377.954 100.148 379.962 96.1327 381.615 92.1174C383.387 88.1021 384.745 84.264 385.689 80.603C386.634 76.942 387.107 73.8714 387.107 71.3914C387.107 68.439 386.457 66.1361 385.158 64.4827C383.977 62.8294 382.028 62.0027 379.312 62.0027C376.36 62.0027 373.407 63.0065 370.455 65.0142C367.502 67.0218 364.668 69.6199 361.952 72.8086C359.236 75.9972 356.697 79.5991 354.335 83.6144C352.091 87.6297 350.083 91.645 348.312 95.6603C346.658 99.6756 345.359 103.514 344.415 107.175C343.47 110.836 342.997 113.906 342.997 116.386C342.997 119.339 343.588 121.642 344.769 123.295C346.068 124.948 348.076 125.775 350.792 125.775Z" fill="#D95484"/>
<path d="M244.055 125.066C250.078 114.674 256.16 104.34 262.301 94.066C268.56 83.7916 274.76 73.34 280.901 62.7113L301.096 62.0027L277.712 94.9517L278.067 95.306C282.554 89.7555 286.511 85.3268 289.935 82.0201C293.478 78.5953 296.549 75.82 299.147 73.6943C301.745 71.5685 303.93 69.9742 305.701 68.9114C307.473 67.7304 308.772 66.7266 309.598 65.8999C310.898 64.6008 312.079 63.597 313.141 62.8884C314.322 62.0618 315.68 61.4713 317.216 61.117C318.751 60.6446 320.581 60.3493 322.707 60.2313C324.951 60.1132 327.726 59.9951 331.033 59.877C328.789 63.0656 326.723 66.4313 324.833 69.9742C322.943 73.3991 321.999 77.1191 321.999 81.1344C321.999 86.2126 324.538 88.7516 329.616 88.7516C331.269 88.7516 332.864 88.3974 334.399 87.6888C336.052 86.9802 337.587 86.0945 339.005 85.0316C340.422 83.9687 341.78 82.8468 343.079 81.6658C344.378 80.3668 345.559 79.1858 346.622 78.1229L347.33 79.0087C344.024 83.142 340.127 86.5078 335.639 89.1059C331.151 91.7041 326.25 93.0031 320.936 93.0031C316.212 93.0031 312.492 91.7631 309.776 89.2831C307.059 86.803 305.701 83.142 305.701 78.3001C305.701 75.2296 306.587 72.3362 308.358 69.62L308.004 69.2657C303.044 72.5724 298.32 76.4105 293.833 80.7801C289.345 85.1497 285.152 89.7555 281.255 94.5974C277.476 99.4394 273.933 104.459 270.626 109.655C267.438 114.733 264.545 119.693 261.946 124.535L244.055 125.066Z" fill="#D95484"/>
<path d="M204.737 67.3152V65.1895H213.594C217.019 58.458 220.739 52.2579 224.755 46.5892C228.888 40.9206 233.494 35.9015 238.572 31.5319C243.65 27.0442 249.26 23.2651 255.401 20.1946C261.66 17.124 268.628 14.8212 276.304 13.2859V12.9316C268.509 12.9316 260.774 12.8135 253.098 12.5773C245.54 12.3411 237.863 12.223 230.069 12.223C224.518 12.223 218.436 12.4592 211.823 12.9316C205.209 13.2859 198.537 13.9945 191.805 15.0573C185.074 16.1202 178.579 17.5374 172.32 19.3088C166.178 21.0803 160.687 23.3241 155.845 26.0404C151.003 28.7566 147.106 32.0043 144.153 35.7834C141.319 39.4444 139.902 43.8139 139.902 48.8921C139.902 52.3169 140.847 55.2693 142.736 57.7494C144.626 60.2294 146.988 62.2961 149.822 63.9495C152.656 65.4847 155.727 66.6066 159.034 67.3152C162.458 68.0238 165.647 68.3781 168.599 68.3781C174.74 68.3781 180.409 67.6105 185.605 66.0752C190.802 64.54 195.23 62.2961 198.891 59.3437C202.67 56.2732 205.564 52.6122 207.571 48.3607C209.697 43.9911 210.76 38.972 210.76 33.3033C210.76 32.0043 210.76 31.0004 210.76 30.2919C210.76 29.5833 210.701 28.9337 210.583 28.3433H212.709C212.709 29.288 212.709 30.1738 212.709 31.0004C212.827 31.8271 212.886 32.6538 212.886 33.4805C212.886 39.5034 211.646 45.1721 209.166 50.4864C206.804 55.6827 203.556 60.2294 199.423 64.1266C195.289 67.9057 190.506 70.9172 185.074 73.161C179.76 75.4049 174.091 76.5268 168.068 76.5268C164.407 76.5268 160.746 75.9953 157.085 74.9325C153.542 73.7515 150.294 72.0982 147.342 69.9724C144.508 67.8467 142.205 65.1895 140.433 62.0009C138.662 58.8123 137.776 55.2103 137.776 51.195C137.776 44.4635 139.37 38.9129 142.559 34.5433C145.866 30.0557 149.94 26.1585 154.782 22.8517C161.986 17.8917 169.603 13.9354 177.634 10.983C185.783 7.91249 194.108 5.6096 202.611 4.07434C211.114 2.42099 219.676 1.35811 228.297 0.885726C237.037 0.295242 245.481 0 253.629 0C258.471 0 263.49 0.118096 268.687 0.354286C273.883 0.590484 278.843 0.885726 283.567 1.24001C288.409 1.47621 292.778 1.7124 296.676 1.94859C300.691 2.18479 303.939 2.36194 306.419 2.48003C309.607 2.59813 311.851 3.12957 313.15 4.07434C314.567 5.01912 315.276 6.67248 315.276 9.03441C315.276 11.0421 314.095 12.6364 311.733 13.8173C309.489 14.9983 305.828 15.5888 300.75 15.5888C297.089 15.5888 293.428 15.4707 289.767 15.2345C286.224 14.8802 282.563 14.7031 278.784 14.7031C275.123 14.7031 271.639 15.5888 268.332 17.3602C265.026 19.0136 261.837 21.2574 258.766 24.0918C255.696 26.9261 252.803 30.1738 250.086 33.8348C247.488 37.3777 245.008 41.0387 242.646 44.8178C240.402 48.4788 238.336 52.1398 236.446 55.8008C234.557 59.3437 232.903 62.4733 231.486 65.1895C233.73 64.9533 236.092 64.8352 238.572 64.8352C241.17 64.7171 243.591 64.3628 245.835 63.7723C248.197 63.1818 250.323 62.2371 252.212 60.938C254.102 59.6389 255.519 57.7494 256.464 55.2693C259.652 55.0331 262.841 54.856 266.029 54.7379C269.336 54.6198 272.584 54.5608 275.772 54.5608C271.875 57.5132 267.919 60.5837 263.904 63.7723C260.006 66.8428 256.286 70.1495 252.743 73.6925C249.201 77.2354 245.953 81.0145 243 85.0298C240.166 89.0451 237.804 93.3556 235.915 97.9614H234.498C236.387 92.1746 238.631 86.6241 241.229 81.3097C243.827 75.8773 246.721 70.681 249.909 65.7209C248.728 65.9571 247.252 66.1933 245.481 66.4295C243.827 66.5476 242.056 66.6657 240.166 66.7838C238.395 66.9019 236.623 67.02 234.852 67.1381C233.198 67.2562 231.781 67.3152 230.6 67.3152C225.876 74.9915 220.975 82.4316 215.897 89.6355C210.937 96.8395 205.328 103.217 199.068 108.767C192.927 114.2 185.96 118.569 178.165 121.876C170.371 125.183 161.336 126.836 151.062 126.836C147.519 126.836 143.622 126.364 139.37 125.419C135.237 124.592 131.34 123.234 127.679 121.345C124.136 119.455 121.125 116.975 118.644 113.904C116.283 110.834 115.102 107.114 115.102 102.744C115.102 99.4376 116.105 96.5442 118.113 94.0642C120.121 91.466 122.719 90.167 125.907 90.167C128.506 90.167 130.69 90.9346 132.462 92.4699C134.233 93.887 135.119 95.9537 135.119 98.67C135.119 100.441 134.588 102.154 133.525 103.807C132.462 105.342 130.808 106.228 128.565 106.464C128.801 109.771 129.509 112.605 130.69 114.967C131.989 117.329 133.643 119.219 135.65 120.636C137.776 122.053 140.197 123.116 142.913 123.825C145.63 124.415 148.464 124.71 151.416 124.71C159.329 124.71 166.297 122.821 172.32 119.042C178.342 115.144 183.716 110.362 188.44 104.693C193.282 98.9061 197.592 92.647 201.371 85.9155C205.269 79.184 208.989 72.9839 212.532 67.3152H204.737Z" fill="#D95484"/>
</svg>
