<svg width="184" height="36" viewBox="0 0 184 36" fill="none" xmlns="http://www.w3.org/2000/svg">
<path d="M176.88 11.9636C176.307 10.9478 175.581 10.0825 174.703 9.36763C174.13 8.87854 173.518 8.4647 172.831 8.1261C171.609 7.48652 170.272 7.11029 168.897 6.88456C168.018 6.73407 167.14 6.69645 166.223 6.69645C165.077 6.69645 163.97 6.69645 162.824 6.69645C162.098 6.69645 161.411 6.69645 160.685 6.69645C160.532 6.69645 160.418 6.65883 160.265 6.77169C160.265 6.80932 160.227 6.84694 160.227 6.88456C160.227 13.8823 160.227 20.9177 160.227 27.9154C160.227 27.953 160.265 28.0283 160.265 28.0659C160.418 28.1411 160.57 28.1411 160.723 28.1411C162.365 28.1411 164.046 28.1411 165.688 28.1411C166.529 28.1411 167.369 28.1035 168.209 27.9907C168.973 27.8778 169.737 27.7273 170.501 27.5016C171.265 27.2758 171.991 26.9372 172.678 26.5986C173.213 26.3353 173.671 25.9967 174.13 25.6581C174.855 25.0937 175.543 24.4165 176.078 23.6641C176.574 22.9869 176.994 22.2344 177.338 21.482C177.682 20.6543 177.911 19.8266 178.025 18.9613C178.255 17.4188 178.216 15.8387 177.796 14.3338C177.605 13.4308 177.3 12.6784 176.88 11.9636ZM173.9 19.2247C173.786 20.09 173.633 20.9177 173.366 21.7454C173.137 22.4602 172.869 23.1374 172.449 23.777C172.258 24.1156 172.029 24.4542 171.8 24.7551C171.227 25.5828 170.463 26.1848 169.584 26.6739C168.859 27.0877 168.095 27.3511 167.293 27.5016C166.834 27.5768 166.338 27.6144 165.879 27.6144C165.345 27.6144 164.848 27.6144 164.313 27.6144C164.237 27.6144 164.161 27.5768 164.084 27.5768C164.084 27.5016 164.046 27.4263 164.046 27.3511C164.046 27.2382 164.046 27.1253 164.046 27.0125C164.046 20.6167 164.046 14.2209 164.046 7.7875C164.046 7.59938 164.008 7.44889 164.084 7.26078C164.161 7.26078 164.199 7.22316 164.275 7.22316C165.23 7.22316 166.147 7.18554 167.102 7.33603C168.095 7.48652 169.05 7.7875 169.928 8.27659C170.539 8.61519 171.036 9.06665 171.532 9.55574C171.838 9.85672 172.105 10.1953 172.334 10.5715C172.755 11.2487 173.098 11.9636 173.366 12.716C173.748 13.7318 173.9 14.8229 173.977 15.8763C174.053 16.9673 174.053 18.096 173.9 19.2247Z" fill="#D95484"/>
<path d="M140.365 22.6107C139.295 20.09 138.188 17.5693 137.118 15.0486C135.972 12.3774 134.827 9.74385 133.681 7.07267C133.643 6.99743 133.604 6.92218 133.566 6.84694C133.528 6.77169 133.452 6.69645 133.375 6.69645C133.299 6.69645 133.184 6.69645 133.108 6.69645C132.573 6.69645 132 6.69645 131.465 6.69645C131.007 6.69645 130.511 6.69645 130.052 6.69645C129.938 6.69645 129.861 6.65883 129.747 6.77169C129.708 6.92218 129.823 7.03505 129.861 7.14792C130.358 8.38945 130.892 9.59336 131.389 10.8349C131.656 11.4745 131.656 11.324 131.389 11.9636C130.816 13.2051 130.281 14.409 129.708 15.6506C127.913 19.6385 126.08 23.6265 124.285 27.6144C124.208 27.7649 124.17 27.8778 124.094 28.0659C124.208 28.1035 124.285 28.1411 124.361 28.1411C124.628 28.1411 124.934 28.1411 125.201 28.1411C125.66 28.1411 125.66 28.1411 125.813 27.7273C126.385 26.2224 126.958 24.7551 127.531 23.2503L127.875 22.3473H136.24V22.2721L136.66 23.2503C137.309 24.7551 137.92 26.26 138.57 27.7649C138.684 28.0283 138.837 28.1411 139.104 28.1035C139.143 28.1035 139.181 28.1035 139.219 28.1035C140.098 28.1035 140.938 28.1035 141.816 28.1035C142.007 28.1035 142.236 28.1035 142.427 28.1035C142.504 28.1035 142.58 28.0659 142.657 28.0283C142.618 27.9154 142.58 27.8025 142.542 27.6897C141.816 26.0343 141.091 24.3037 140.365 22.6107ZM131.542 12.8665C131.618 12.6784 131.695 12.4903 131.771 12.3022C131.809 12.2269 131.847 12.1893 131.886 12.1141C131.924 12.1517 131.962 12.1893 132 12.1893C133.337 15.3496 134.674 18.5098 136.011 21.6701H128.142C128.295 21.2563 128.448 20.88 128.601 20.4662C129.594 17.9455 130.549 15.3872 131.542 12.8665Z" fill="#D95484"/>
<path d="M85.3284 6.99739C85.3666 6.92214 85.4048 6.80928 85.2902 6.69641C84.9083 6.65879 84.5263 6.69641 84.1444 6.69641C84.0298 6.69641 83.9534 6.77165 83.9152 6.88452C83.877 6.95976 83.877 7.03501 83.8388 7.14788C83.6478 7.74983 83.4569 8.35179 83.2659 8.99137C82.8457 10.3458 82.3874 11.7002 81.9673 13.0546C81.3943 14.7852 80.8596 16.5158 80.2867 18.2464C79.8283 19.6385 79.4082 21.0305 78.9498 22.4225C78.7589 23.0621 78.5297 23.7017 78.3005 24.3413C78.2623 24.4165 78.2623 24.5294 78.1477 24.6046C78.0332 24.5294 78.0332 24.4165 77.995 24.3036C77.7658 23.6641 77.4984 23.0245 77.2693 22.3473C76.3908 19.9771 75.4741 17.5692 74.5956 15.199C73.8699 13.2427 73.1442 11.2863 72.4185 9.32997C72.1129 8.5399 71.8456 7.74983 71.54 6.95976C71.4636 6.77165 71.3872 6.69641 71.1962 6.69641C70.2414 6.69641 69.3247 6.69641 68.3698 6.69641C68.2934 6.69641 68.217 6.73403 68.1406 6.73403C68.1406 6.92214 68.217 7.03501 68.2552 7.14788C69.5156 10.421 70.7379 13.6942 71.9983 16.9297C73.2206 20.0899 74.4046 23.2502 75.6269 26.4105C75.9324 27.2382 76.2762 28.0659 76.5817 28.9312C76.6199 29.0817 76.6581 29.2321 76.8491 29.3074C76.8873 29.2698 76.9637 29.1945 77.0019 29.1569C77.0783 29.044 77.1165 28.9312 77.1547 28.8183C78.4915 25.2442 79.8665 21.6701 81.2034 18.1336C82.4638 14.8228 83.686 11.5497 84.9465 8.23892C85.0229 7.82508 85.1757 7.41123 85.3284 6.99739Z" fill="#D95484"/>
<path d="M183.639 6.88394C183.639 6.84631 183.601 6.77107 183.601 6.69582C183.486 6.69582 183.41 6.6582 183.295 6.6582C182.226 6.6582 181.194 6.6582 180.125 6.6582C180.01 6.6582 179.934 6.69582 179.819 6.69582C179.819 6.77107 179.781 6.80869 179.781 6.84631C179.781 13.8441 179.781 20.8794 179.781 27.8772C179.781 27.9148 179.819 27.99 179.819 28.0277C179.934 28.0277 180.01 28.0653 180.125 28.0653C181.194 28.0653 182.226 28.0653 183.295 28.0653C183.41 28.0653 183.486 28.0277 183.601 28.0277C183.601 27.9524 183.639 27.9148 183.639 27.8395C183.639 20.917 183.639 13.8817 183.639 6.88394Z" fill="#D95484"/>
<path d="M28.9139 6.69659C28.9139 6.62135 28.8757 6.5461 28.8757 6.47086C28.7993 6.47086 28.7229 6.43324 28.6465 6.43324C27.5388 6.43324 26.4694 6.43324 25.3617 6.43324C25.2853 6.43324 25.2089 6.47086 25.1325 6.47086C25.0562 6.65897 25.0944 6.84708 25.0944 6.99757C25.0944 12.0013 25.0944 17.0051 25.0944 22.0465C25.0944 22.6108 25.0562 23.1751 25.018 23.7395C24.9416 24.4167 24.7888 25.0939 24.445 25.7335C23.9103 26.674 23.1082 27.3136 22.0005 27.5017C21.313 27.6146 20.6255 27.6146 19.938 27.4641C19.1359 27.3136 18.4866 26.8998 17.9901 26.2978C17.6081 25.8087 17.3407 25.282 17.188 24.68C16.997 23.9276 16.9206 23.1375 16.9206 22.3475C16.9206 17.2684 16.9206 12.1894 16.9206 7.11044C16.9206 7.03519 16.9206 6.95995 16.9206 6.92233C17.1498 6.80946 17.3407 6.73421 17.4935 6.5461C18.181 5.94415 18.563 5.1917 18.6394 4.28877C18.7158 3.08485 18.2574 2.1443 17.3025 1.39185C16.8442 1.05325 16.3095 0.827515 15.7747 0.639404C14.6671 0.300804 13.5594 0.338426 12.4518 0.451293C11.6497 0.526537 10.8858 0.789893 10.1601 1.12849C9.39615 1.50472 8.78503 1.99381 8.2503 2.63338C7.86835 3.04723 7.60098 3.53632 7.33362 4.02541C7.10445 4.47688 6.91347 4.92834 6.79889 5.41743C6.60791 6.2075 6.49333 6.95995 6.45513 7.75002C6.41694 8.31435 6.41693 8.84106 6.41693 9.40539C6.14957 15.0864 5.95859 17.9833 5.76762 19.3001C5.61484 20.2782 5.34747 21.2188 5.00371 22.1217C4.77454 22.6861 4.50718 23.2128 4.20162 23.7395C3.93425 24.191 3.62869 24.6048 3.32313 25.0186C2.7502 25.7335 2.13908 26.4107 1.37518 26.9374C0.993226 27.2007 0.57308 27.5017 0.191128 27.7651C0.114738 27.8027 0.0383477 27.8779 0.000152588 27.9156C0.000152588 27.9156 0.000152588 27.9908 0.000152588 28.0284C0.000152588 28.066 0.0765428 28.066 0.0765428 28.066C0.229323 27.9908 0.382104 27.9156 0.496689 27.8403C0.993226 27.5017 1.52796 27.276 2.10089 27.0502C2.25367 26.975 2.40645 26.9374 2.55923 26.8998C3.20854 26.7493 3.89606 26.7869 4.54537 26.9374C4.85093 27.0126 5.1565 27.0879 5.46206 27.2007C6.6843 27.6898 7.71557 28.4046 8.70864 29.2323C9.51074 29.9472 10.2746 30.662 11.0385 31.4144C11.6497 31.9788 12.2226 32.5431 12.8337 33.1074C13.674 33.8223 14.5525 34.4618 15.5074 34.9885C15.8511 35.1767 16.2331 35.3271 16.5768 35.4776C17.4553 35.741 18.3338 35.8162 19.2505 35.7034C19.7852 35.6281 20.32 35.44 20.7783 35.139C21.4658 34.7252 21.9624 34.1609 22.2679 33.4084C22.4971 32.8441 22.6117 32.2421 22.4971 31.6025C22.3061 30.6244 21.7332 29.9472 20.8547 29.4957C20.8165 29.4957 20.7783 29.4957 20.7401 29.5333C20.7401 29.5709 20.7401 29.6086 20.7401 29.6462C20.8165 29.7214 20.9311 29.759 21.0075 29.8343C22.1533 30.5491 22.6117 31.9411 22.0769 33.1827C21.7332 34.0104 21.0839 34.5371 20.2054 34.7252C19.3651 34.9133 18.563 34.7252 17.7991 34.3113C17.1498 33.9351 16.5768 33.4837 16.0803 32.9569C15.431 32.2797 14.8199 31.6025 14.2087 30.9253C13.4448 30.06 12.7191 29.1571 11.917 28.367C11.1149 27.577 10.2364 26.8998 9.24337 26.3354C8.89962 26.0344 8.32669 25.8087 7.75376 25.6958C7.14264 25.583 6.53152 25.5454 5.9204 25.583C5.1183 25.6582 4.3544 25.8087 3.62869 26.1097C3.36132 26.2226 3.09396 26.373 2.82659 26.4859C2.7502 26.5235 2.71201 26.5988 2.63562 26.5235C2.63562 26.4859 2.63562 26.4483 2.67381 26.4483C2.7502 26.373 2.86479 26.2978 2.94118 26.2602C3.89606 25.6206 4.85093 24.9434 5.69123 24.1909C6.64611 23.3256 7.4482 22.3098 8.02113 21.1812C8.21211 20.8049 8.40308 20.3911 8.51767 20.0149C8.93781 18.8486 9.28157 15.9893 9.62533 10.5341C9.73991 9.33015 9.8163 8.08861 9.8163 6.8847C9.8163 6.24512 9.8163 5.60554 9.93089 4.96597C10.0837 4.13828 10.351 3.38583 10.8094 2.67101C11.3823 1.80569 12.1462 1.24136 13.1393 0.978004C13.674 0.827515 14.2469 0.827515 14.8199 0.827515C15.6984 0.865138 16.5004 1.09087 17.2262 1.61758C17.7227 1.95618 18.0283 2.40765 18.2574 2.93436C18.5248 3.68681 18.5248 4.40163 18.2574 5.15408C18.0664 5.64317 17.7991 6.13226 17.3789 6.43324C17.2262 6.5461 17.1116 6.62135 16.9588 6.69659C16.9588 6.62135 16.9206 6.5461 16.9206 6.47086C16.806 6.47086 16.7296 6.43324 16.6532 6.43324C15.5838 6.43324 14.5525 6.43324 13.483 6.43324C13.3684 6.43324 13.2921 6.47086 13.2157 6.47086C13.1011 6.69659 13.1011 6.84708 13.1011 6.99757C13.1011 11.1736 13.1011 15.3121 13.1011 19.4882C13.1011 20.3159 13.1393 21.1435 13.2539 21.9712C13.4066 22.8742 13.6358 23.7019 14.0178 24.5296C14.4761 25.4325 15.1254 26.1473 15.9275 26.7493C16.8442 27.4265 17.8373 27.8027 18.9449 27.9908C20.2054 28.1789 21.4276 28.1789 22.6881 28.0284C23.7575 27.8779 24.7888 27.577 25.7055 27.0126C26.393 26.5612 27.0041 26.0344 27.5006 25.3949C28.1118 24.5672 28.4555 23.6266 28.6465 22.6484C28.8375 21.6326 28.9139 20.6168 28.9139 19.601C28.9139 15.425 28.9139 11.2489 28.9139 7.07281C28.9139 6.92232 28.9139 6.80946 28.9139 6.69659Z" fill="#D95484"/>
<path d="M50.6867 21.8964C50.6867 21.1064 50.5721 20.3539 50.3429 19.6015C50.2665 19.3758 50.1519 19.1124 50.0373 18.9243C49.6554 18.2095 49.0825 17.6451 48.4331 17.1184C47.7074 16.5165 46.8671 16.1026 46.0651 15.6888C45.4921 15.3878 44.881 15.1621 44.2699 14.9363C43.3532 14.5977 42.4747 14.1839 41.6344 13.7324C41.0615 13.4314 40.5649 13.0552 40.1066 12.6037C39.7629 12.2651 39.4955 11.8513 39.3809 11.3998C39.0753 10.3088 39.2281 9.25536 39.7247 8.23956C40.1066 7.44949 40.7559 6.99803 41.5962 6.84754C41.7108 6.84754 41.7872 6.80992 41.9018 6.80992C42.5511 6.69705 43.1622 6.80992 43.7733 7.03565C44.6136 7.33663 45.1866 7.97621 45.5685 8.72865C45.8359 9.25536 45.9887 9.78207 46.1032 10.3464C46.2178 11.0612 46.2942 11.8137 46.3324 12.5661C46.3324 12.7166 46.3324 12.8671 46.4088 13.0176C46.4852 13.0176 46.5234 13.0552 46.5998 13.0552C47.631 13.0552 48.6623 13.0552 49.6936 13.0552C49.77 13.0552 49.8464 13.0176 49.9228 13.0176C49.9228 12.8671 49.961 12.7542 49.961 12.6414C49.961 11.8889 49.8464 11.1741 49.6554 10.4969C49.2734 9.1425 48.4331 8.08907 47.2109 7.37425C46.4088 6.88516 45.4921 6.58418 44.5754 6.43369C43.6969 6.2832 42.8567 6.24558 41.9782 6.32083C41.3289 6.35845 40.6795 6.47131 40.0684 6.65943C39.0371 6.99803 38.1587 7.52474 37.4329 8.31481C37.0892 8.69103 36.7836 9.10487 36.5927 9.55634C36.1725 10.5721 35.9433 11.6256 36.0197 12.7542C36.0579 13.2809 36.2107 13.8077 36.4399 14.2967C36.7836 15.0116 37.3184 15.5759 37.9295 16.1026C38.4642 16.5541 39.0753 16.8927 39.6865 17.2313C40.6795 17.758 41.7108 18.1342 42.7421 18.5481C43.4296 18.849 44.1171 19.1124 44.7282 19.4886C45.3393 19.8648 45.9123 20.2787 46.3706 20.8054C46.829 21.3321 47.0963 21.9717 47.1727 22.6489C47.2873 23.4766 47.1345 24.2667 46.829 25.0567C46.5616 25.7715 46.0651 26.3359 45.4157 26.7497C44.69 27.2388 43.8879 27.4645 43.0094 27.5398C42.3601 27.5774 41.749 27.5774 41.0997 27.4645C40.183 27.3141 39.3045 27.0507 38.5406 26.5616C37.1656 25.6963 36.3635 24.4548 36.1343 22.8746C36.0197 22.1222 36.0197 21.3697 36.1725 20.6173C36.1725 20.5044 36.2107 20.4292 36.1343 20.3163C36.0197 20.3163 35.8669 20.2787 35.7142 20.3539C35.676 20.4292 35.676 20.5044 35.6378 20.5797C35.4468 21.746 35.485 22.9122 35.8288 24.0409C36.0961 24.8686 36.5545 25.5834 37.1656 26.223C37.6239 26.6745 38.1205 27.0507 38.6934 27.3141C39.5719 27.7655 40.4886 27.9913 41.4434 28.1041C42.0928 28.1794 42.7421 28.1794 43.3914 28.1794C44.8046 28.1417 46.1414 27.8784 47.3637 27.2012C47.822 26.9378 48.2422 26.6745 48.6241 26.2983C49.3116 25.6963 49.8082 24.9815 50.1519 24.1162C50.4957 23.3261 50.6867 22.6489 50.6867 21.8964Z" fill="#D95484"/>
<path d="M34.4914 6.47024C34.415 6.47024 34.3386 6.43262 34.3004 6.43262C33.1928 6.43262 32.0851 6.43262 30.9774 6.43262C30.901 6.43262 30.8247 6.47024 30.7483 6.47024C30.6719 6.69597 30.6719 6.84646 30.6719 7.03457C30.6719 13.8066 30.6719 20.541 30.6719 27.313C30.6719 27.4258 30.6719 27.5011 30.6719 27.614C30.6719 27.6892 30.7101 27.7644 30.7101 27.8397C30.8247 27.8397 30.9392 27.8773 31.0156 27.8773C32.5816 27.9149 34.1476 27.9149 34.4914 27.8021C34.4914 27.614 34.4914 27.4258 34.4914 27.2754C34.4914 20.541 34.4914 13.769 34.4914 7.03457C34.4914 6.92171 34.4914 6.80884 34.4914 6.69597C34.5296 6.62073 34.4914 6.58311 34.4914 6.47024Z" fill="#D95484"/>
<path d="M65.693 22.6107C64.6235 20.09 63.5159 17.5693 62.4464 15.0486C61.3006 12.3774 60.1547 9.74385 59.0088 7.07267C58.9707 6.99743 58.9325 6.92218 58.8943 6.84694C58.8561 6.77169 58.7797 6.69645 58.7033 6.69645C58.6269 6.69645 58.5123 6.69645 58.4359 6.69645C57.9012 6.69645 57.3283 6.69645 56.7935 6.69645C56.3352 6.69645 55.8387 6.69645 55.3803 6.69645C55.2657 6.69645 55.1893 6.65883 55.0747 6.77169C55.0366 6.92218 55.1511 7.03505 55.1893 7.14792C55.6859 8.38945 56.2206 9.59336 56.7171 10.8349C56.9845 11.4745 56.9845 11.324 56.7171 11.9636C56.1442 13.2051 55.6095 14.409 55.0366 15.6506C53.2414 19.6385 51.408 23.6265 49.6129 27.6144C49.5365 27.7649 49.4983 27.8778 49.4219 28.0659C49.5365 28.1035 49.6128 28.1411 49.6892 28.1411C49.9566 28.1411 50.2622 28.1411 50.5295 28.1411C50.9879 28.1411 50.9879 28.1411 51.1407 27.7273C51.7136 26.2224 52.2865 24.7551 52.8594 23.2503L53.2032 22.3473H61.6061L61.9881 23.2503C62.6374 24.7551 63.2485 26.26 63.8978 27.7649C64.0124 28.0283 64.1652 28.1411 64.4326 28.1035C64.4708 28.1035 64.5089 28.1035 64.5471 28.1035C65.4256 28.1035 66.2659 28.1035 67.1444 28.1035C67.3354 28.1035 67.5646 28.1035 67.7555 28.1035C67.8319 28.1035 67.9083 28.0659 67.9847 28.0283C67.9465 27.9154 67.9083 27.8025 67.8701 27.6897C67.1444 26.0343 66.4187 24.3037 65.693 22.6107ZM56.8699 12.8665C56.9463 12.6784 57.0227 12.4903 57.0991 12.3022C57.1373 12.2269 57.1755 12.1893 57.2137 12.1141C57.2519 12.1517 57.2901 12.1893 57.3283 12.1893C58.6651 15.3496 60.0019 18.5098 61.3388 21.6701H53.4706C53.6233 21.2563 53.7761 20.88 53.9289 20.4662C54.8838 17.9455 55.8769 15.3872 56.8699 12.8665Z" fill="#D95484"/>
<path d="M158.547 26.6361C158.165 25.7708 157.821 24.9431 157.439 24.0778C157.134 23.4006 156.79 22.7234 156.408 22.0462C155.835 21.068 155.071 20.1651 154.155 19.4502C153.2 18.6978 152.13 18.1335 150.87 17.9077C150.564 17.8701 150.259 17.8325 149.953 17.7949C149.915 17.7949 149.839 17.7949 149.877 17.682C149.953 17.682 150.03 17.6444 150.106 17.6444C150.946 17.5691 151.748 17.4563 152.551 17.1929C153.544 16.8543 154.46 16.4028 155.224 15.6504C155.721 15.1613 156.141 14.597 156.408 13.9574C156.981 12.4525 156.79 11.0229 155.988 9.66845C155.568 8.95363 154.957 8.42691 154.269 7.97545C153.391 7.41111 152.436 7.07251 151.443 6.8844C150.641 6.73391 149.839 6.69629 148.998 6.69629C147.241 6.69629 145.446 6.69629 143.689 6.69629C143.575 6.69629 143.498 6.69629 143.384 6.69629C143.307 6.69629 143.231 6.73391 143.193 6.77153C143.155 7.18538 143.155 27.8024 143.193 28.1034C143.269 28.1034 143.345 28.141 143.46 28.141C144.53 28.141 145.637 28.141 146.707 28.141C146.783 28.141 146.859 28.1034 146.974 28.1034C146.974 27.5014 146.974 26.9371 146.974 26.3351C146.974 25.7708 146.974 25.1688 146.974 24.6045C146.974 24.0402 146.974 23.4382 146.974 22.8739C146.974 22.3095 146.974 21.7076 146.974 21.1432C146.974 20.5789 146.974 19.977 146.974 19.4126C146.974 18.8483 146.974 18.284 146.974 17.7196C146.974 17.1553 146.974 16.5533 146.974 15.989C146.974 15.4247 146.974 14.8227 146.974 14.2584C146.974 13.694 146.974 13.0921 146.974 12.5277C146.974 11.9634 146.974 11.3615 146.974 10.7971C146.974 10.2328 146.974 9.63083 146.974 9.06649C146.974 8.50216 146.974 7.9002 146.974 7.29825C147.127 7.29825 147.241 7.26062 147.318 7.26062C147.662 7.26062 147.967 7.26062 148.311 7.29825C150.03 7.41111 151.214 8.27643 151.978 9.74369C152.245 10.2328 152.398 10.7971 152.474 11.3615C152.627 12.4525 152.551 13.4683 152.169 14.5217C152.016 14.9732 151.787 15.4247 151.481 15.8009C150.794 16.7038 149.877 17.2681 148.769 17.5315C148.655 17.5691 148.578 17.5691 148.502 17.6067C148.464 17.8325 148.464 17.8325 148.502 18.0582C148.54 18.0582 148.616 18.0958 148.693 18.1335C149.724 18.3968 150.564 18.9988 151.29 19.7512C151.901 20.3908 152.398 21.1432 152.818 21.9333C153.162 22.5729 153.429 23.2501 153.696 23.9273C154.078 24.9807 154.422 26.0341 154.804 27.0876C154.88 27.3509 154.995 27.5767 155.11 27.84C155.262 28.1786 155.224 28.1786 155.644 28.1786C156.714 28.1786 157.783 28.1786 158.853 28.1786C158.929 28.1786 159.005 28.1786 159.082 28.1786C159.12 28.1786 159.196 28.141 159.235 28.1034C159.235 28.0657 159.235 28.0281 159.235 27.9905C159.005 27.539 158.738 27.0876 158.547 26.6361Z" fill="#D95484"/>
<path d="M125.36 21.7075C125.437 21.2937 125.437 20.8422 125.475 20.4283C125.475 20.2026 125.399 20.165 125.208 20.165C125.055 20.165 124.978 20.2402 124.94 20.3907C124.94 20.5036 124.902 20.5788 124.902 20.6917C124.902 21.1056 124.864 21.4818 124.787 21.8956C124.635 22.6481 124.444 23.4005 124.062 24.0777C123.298 25.545 122.114 26.5608 120.548 27.1627C119.555 27.539 118.523 27.6894 117.454 27.7271C116.385 27.7271 115.353 27.5766 114.398 27.2004C113.94 27.0122 113.482 26.7865 113.1 26.4855C112.374 25.9212 111.763 25.244 111.343 24.4163C110.961 23.6639 110.655 22.9114 110.464 22.0837C110.159 20.8798 110.006 19.6759 109.968 18.4344C109.968 18.2086 109.968 17.9453 109.968 17.7195C109.968 16.4028 110.006 15.0484 110.235 13.7316C110.464 12.5277 110.77 11.399 111.343 10.308C111.801 9.3674 112.45 8.57733 113.329 7.97538C114.016 7.48629 114.742 7.18531 115.582 7.07244C116.461 6.95957 117.301 7.03482 118.18 7.26055C119.173 7.52391 119.898 8.08824 120.433 8.95355C120.853 9.63075 121.121 10.3456 121.273 11.1356C121.426 11.8881 121.503 12.6405 121.503 13.393C121.503 13.5435 121.464 13.694 121.579 13.8444C121.655 13.8444 121.732 13.8821 121.846 13.8821C123.412 13.9197 124.787 13.8821 125.093 13.8444C125.093 13.8068 125.131 13.7692 125.131 13.7316C125.131 13.6563 125.169 13.5435 125.169 13.4682C125.169 13.1672 125.131 12.9039 125.131 12.6029C125.093 11.9257 124.902 11.3238 124.673 10.7218C124.482 10.2703 124.253 9.89411 123.947 9.51789C123.336 8.76544 122.649 8.12586 121.77 7.6744C121.35 7.48629 120.93 7.29817 120.51 7.11006C120.204 6.9972 119.898 6.88433 119.555 6.80909C118.523 6.58335 117.492 6.47048 116.423 6.50811C115.812 6.50811 115.2 6.54573 114.589 6.62097C113.596 6.77146 112.68 7.07244 111.763 7.44866C110.541 7.97537 109.509 8.72782 108.631 9.66838C107.867 10.4961 107.256 11.4366 106.836 12.49C106.492 13.3554 106.186 14.2583 106.072 15.1612C105.881 16.3275 105.804 17.4938 105.881 18.6977C105.957 19.7888 106.11 20.8798 106.454 21.9332C106.95 23.551 107.829 24.9054 109.127 26.0341C109.853 26.636 110.693 27.1251 111.572 27.5013C112.641 27.9528 113.749 28.1785 114.895 28.2914C115.391 28.329 115.85 28.329 116.346 28.3666C117.263 28.4419 118.141 28.3666 119.058 28.1785C120.166 27.9528 121.235 27.6142 122.19 26.9746C123.527 26.1093 124.444 24.9806 125.017 23.5134C125.131 22.9114 125.284 22.3095 125.36 21.7075Z" fill="#D95484"/>
<path d="M102.894 12.7907C102.894 12.9035 102.818 13.054 102.894 13.1669C102.933 13.1669 102.971 13.2045 103.009 13.2045C103.314 13.2421 105.415 13.2045 105.683 13.1669C105.721 13.0916 105.759 13.0164 105.759 12.9412C105.912 12.2263 105.95 11.4739 105.874 10.7214C105.759 9.81851 105.415 9.02844 104.804 8.35124C104.078 7.56117 103.2 7.07208 102.207 6.77111C100.832 6.39488 99.4567 6.31964 98.0435 6.47013C96.7831 6.62062 95.6372 7.07208 94.6442 7.86215C94.1094 8.276 93.6893 8.76509 93.3837 9.2918C92.9254 10.0819 92.6198 10.9096 92.5052 11.8125C92.4288 12.4521 92.4288 13.054 92.5052 13.6936C92.658 14.8223 93.1164 15.8005 93.7275 16.741C94.3386 17.6816 95.1025 18.5469 95.9046 19.3746C96.8213 20.3151 97.8144 21.2557 98.6928 22.2339C99.4186 23.0616 100.068 23.9269 100.603 24.8674C100.985 25.5822 101.214 26.3723 101.29 27.1624C101.405 28.4039 101.176 29.5702 100.641 30.6613C100.182 31.6018 99.5331 32.3919 98.6165 32.9938C98.3109 33.1819 98.0053 33.4077 97.6616 33.5582C96.7067 34.0849 95.6754 34.3859 94.606 34.4987C93.6893 34.6116 92.8108 34.6492 91.8941 34.574C90.9392 34.5363 90.0607 34.3106 89.1823 33.972C88.8385 33.8591 88.5329 33.7087 88.2274 33.5205C87.5399 33.1443 86.9669 32.6929 86.4322 32.1285C85.9357 31.6018 85.5155 30.9999 85.21 30.3227C84.9044 29.6455 84.7516 28.9682 84.7134 28.2534C84.5988 26.3347 85.019 24.5664 86.203 22.9863C86.2412 22.9487 86.2794 22.9111 86.3176 22.8358C86.3176 24.4912 86.3176 26.1466 86.3176 27.802C86.3176 27.8396 86.3558 27.9148 86.3558 27.9524C86.4322 27.9524 86.5086 27.9901 86.6232 27.9901C86.8142 27.9901 87.0433 27.9901 87.2343 27.9901C88.0746 27.9901 88.8767 27.9901 89.717 27.9901C89.8698 27.9901 89.9844 28.0277 90.1371 27.9148C90.1371 27.8772 90.1753 27.8396 90.1753 27.7643C90.1753 25.3565 90.1753 22.9111 90.1753 20.5032C90.5191 20.428 90.8628 20.3904 91.2448 20.3904C91.8941 20.3527 92.5816 20.3904 93.1928 20.6537C93.2309 20.6537 93.3073 20.6913 93.3455 20.6913C93.3837 20.6913 93.4219 20.6537 93.4219 20.6161C93.4219 20.5785 93.4219 20.5409 93.3837 20.5032C93.3073 20.4656 93.1927 20.3904 93.1164 20.3904C92.5816 20.2399 92.0087 20.127 91.474 20.1646C91.0538 20.1646 90.5955 20.2023 90.1753 20.2775C90.1753 15.7628 90.1753 11.2482 90.1753 6.73348C90.1753 6.69586 90.1371 6.62062 90.1371 6.58299C90.0607 6.58299 89.9844 6.54537 89.8698 6.54537C88.8003 6.54537 87.6926 6.54537 86.6232 6.54537C86.5468 6.54537 86.4704 6.58299 86.3558 6.58299C86.3558 6.65824 86.3176 6.69586 86.3176 6.73348C86.3176 11.963 86.3176 17.1925 86.3176 22.422C86.0885 22.6853 85.8975 22.9863 85.7065 23.2497C85.5155 23.5883 85.3246 23.9269 85.1718 24.3031C84.9426 24.7922 84.7898 25.2813 84.7134 25.7704C84.637 26.2594 84.5607 26.7485 84.5607 27.2376C84.5225 27.9148 84.5606 28.592 84.7134 29.2692C84.9426 30.3227 85.4391 31.2256 86.1266 32.0157C86.776 32.7681 87.5399 33.3324 88.4184 33.7839C89.526 34.3482 90.7483 34.6116 91.9705 34.7245C92.5816 34.7621 93.1546 34.7621 93.7657 34.7245C94.224 34.6868 94.7206 34.6492 95.1789 34.574C96.4011 34.3482 97.547 33.972 98.6547 33.4453C100.106 32.7681 101.328 31.8275 102.321 30.5484C102.856 29.8336 103.314 29.0435 103.582 28.1782C104.002 26.8614 104.04 25.5446 103.735 24.2278C103.544 23.3625 103.162 22.6101 102.742 21.8576C102.13 20.8042 101.328 19.8637 100.488 18.9607C100.068 18.5093 99.6095 18.0954 99.1894 17.6816C98.6165 17.1172 98.0053 16.5153 97.4706 15.9133C97.0123 15.4619 96.5921 14.9728 96.2484 14.4084C95.79 13.7312 95.4081 13.054 95.2171 12.2263C94.9879 11.1729 95.0261 10.1571 95.3699 9.14131C95.6754 8.276 96.2102 7.5988 96.9741 7.10971C97.6616 6.65824 98.3873 6.43251 99.2276 6.43251C100.106 6.43251 100.87 6.65824 101.596 7.18495C102.245 7.67404 102.665 8.35124 102.933 9.10369C103.009 9.36704 103.085 9.66802 103.123 9.93138C103.162 10.3076 103.2 10.7214 103.162 11.0977C103.009 11.7749 102.971 12.264 102.894 12.7907Z" fill="#D95484"/>
<path d="M34.4167 0L32.125 3.27314C33.2327 3.27314 34.3021 2.93454 35.1806 2.25734L38.2362 0H34.4167Z" fill="#D95484"/>
</svg>
