<svg width="38" height="18" viewBox="0 0 38 18" fill="none" xmlns="http://www.w3.org/2000/svg">
<path d="M30.1206 3.94518C27.0093 2.72632 22.9036 2.05273 18.5414 2.05273C14.1791 2.05273 10.0414 2.72632 6.96221 3.94518C3.78675 5.19612 2.05469 6.89611 2.05469 8.7244C2.05469 10.5527 3.78675 12.2527 6.96221 13.5036C10.0735 14.7225 14.1791 15.3961 18.5414 15.3961C22.9036 15.3961 27.0414 14.7225 30.1206 13.5036C33.296 12.2527 35.0281 10.5527 35.0281 8.7244C35.0602 6.89611 33.296 5.19612 30.1206 3.94518ZM12.8961 13.3432C11.1961 12.2206 10.266 10.5848 10.266 8.7244C10.266 6.86403 11.1961 5.22819 12.8961 4.10555C14.4037 3.11122 16.4244 2.53386 18.5414 2.53386C20.6584 2.53386 22.6791 3.07914 24.1867 4.10555C25.8866 5.22819 26.8168 6.86403 26.8168 8.7244C26.8168 10.5848 25.8866 12.2206 24.1867 13.3432C22.6791 14.3376 20.6584 14.9149 18.5414 14.9149C16.4244 14.8829 14.4037 14.3376 12.8961 13.3432ZM13.7622 14.3376C12.7037 14.081 11.7414 13.7282 10.9075 13.3112C8.59804 12.1885 7.34711 10.5527 7.34711 8.69233C7.34711 6.83196 8.63012 5.22819 10.9075 4.07348C11.7735 3.6565 12.7358 3.30367 13.7622 3.04707C13.3773 3.23952 12.9924 3.43197 12.6395 3.6565C10.8112 4.87536 9.78483 6.67158 9.78483 8.66025C9.78483 10.6489 10.8112 12.4451 12.6395 13.664C12.9924 13.9527 13.3452 14.1451 13.7622 14.3376ZM24.4432 13.7281C26.2715 12.5093 27.2979 10.7131 27.2979 8.7244C27.2979 6.73573 26.2715 4.93951 24.4432 3.72065C24.0904 3.49612 23.7376 3.2716 23.3206 3.11122C24.3791 3.36782 25.3413 3.72065 26.1753 4.13763C28.4847 5.26027 29.7357 6.89611 29.7357 8.75648C29.7357 10.6168 28.4527 12.2206 26.1753 13.3753C25.3093 13.7923 24.347 14.1451 23.3206 14.4017C23.7055 14.1451 24.0904 13.9527 24.4432 13.7281ZM11.549 3.30367C11.2603 3.43197 10.9716 3.56028 10.6829 3.68858C8.21314 4.90744 6.86598 6.70366 6.86598 8.7244C6.86598 10.7451 8.21314 12.5414 10.6829 13.7602C10.9716 13.8885 11.2603 14.0168 11.549 14.1451C10.6188 13.9206 9.75276 13.664 8.95088 13.3432C6.0641 12.1885 4.4924 10.5848 4.4924 8.75648C4.4924 6.92818 6.0641 5.29234 8.95088 4.16971C9.72069 3.7848 10.6188 3.5282 11.549 3.30367ZM25.5338 14.1131C25.8225 13.9848 26.1112 13.8564 26.3998 13.7281C28.8696 12.5093 30.2168 10.7131 30.2168 8.69233C30.2168 6.67158 28.8696 4.87536 26.3998 3.6565C26.1112 3.5282 25.8225 3.3999 25.5338 3.2716C26.464 3.49612 27.33 3.75273 28.1319 4.07348C31.0187 5.22819 32.5904 6.83196 32.5904 8.66025C32.5904 10.4885 31.0187 12.1244 28.1319 13.247C27.33 13.6319 26.464 13.8885 25.5338 14.1131ZM2.50373 8.69233C2.50373 7.08856 4.13958 5.51687 7.12258 4.36216C7.31503 4.29801 7.53955 4.20178 7.732 4.13763C5.32635 5.32442 4.01127 6.92818 4.01127 8.7244C4.01127 10.5206 5.32635 12.1244 7.732 13.3112C7.50747 13.247 7.31503 13.1508 7.12258 13.0866C4.13958 11.8678 2.50373 10.3282 2.50373 8.69233ZM29.9602 13.0546C29.7678 13.1187 29.5432 13.2149 29.3508 13.2791C31.7564 12.0923 33.0715 10.4885 33.0715 8.69233C33.0715 6.89611 31.7564 5.29234 29.3508 4.10555C29.5753 4.16971 29.7678 4.26593 29.9602 4.33008C32.9432 5.51687 34.579 7.05649 34.579 8.66025C34.579 10.264 32.9432 11.8678 29.9602 13.0546Z" fill="#3D007C"/>
<path d="M30.8885 2.05282C27.5527 0.737731 23.1584 0 18.5395 0C13.9207 0 9.52636 0.737731 6.19053 2.05282C2.21319 3.62451 0 5.99808 0 8.69241C0 11.3867 2.21319 13.7603 6.19053 15.332C9.52636 16.6471 13.9207 17.3848 18.5395 17.3848C23.1584 17.3848 27.5527 16.6471 30.8885 15.332C34.8979 13.7603 37.0791 11.3867 37.0791 8.69241C37.0791 5.99808 34.8659 3.62451 30.8885 2.05282ZM30.6319 14.7226C27.3923 16.0056 23.0942 16.7112 18.5395 16.7112C13.9848 16.7112 9.71881 16.0056 6.44713 14.7226C2.72639 13.2471 0.705661 11.1301 0.705661 8.72449C0.705661 6.31884 2.75847 4.16979 6.44713 2.7264C9.68674 1.44339 13.9848 0.737732 18.5395 0.737732C23.0942 0.737732 27.3602 1.44339 30.6319 2.7264C34.3527 4.20187 36.3734 6.31884 36.3734 8.72449C36.3734 11.1301 34.3206 13.2471 30.6319 14.7226Z" fill="#3D007C"/>
<path d="M20.3661 9.81447C20.334 9.62202 20.2699 9.46165 20.1416 9.33334C20.0774 9.26919 20.0133 9.17297 19.9491 9.10882C19.917 9.07674 19.8529 9.04467 19.8208 8.98052C19.7246 8.91637 19.6284 8.85221 19.5001 8.78806C19.4359 8.75599 19.4038 8.72391 19.3397 8.72391C19.1793 8.65976 18.9869 8.59561 18.8265 8.56354C18.6661 8.53146 18.5057 8.49939 18.3454 8.49939H18.3133H18.3454C18.4737 8.49939 18.602 8.46731 18.7303 8.43523C18.8906 8.40316 19.051 8.33901 19.2114 8.27486C19.2755 8.24278 19.3718 8.21071 19.4359 8.14656C19.5001 8.11448 19.5642 8.05033 19.6284 8.01826C19.6925 7.98618 19.7246 7.92203 19.7887 7.85788C19.885 7.76165 19.9491 7.66543 20.0133 7.53713C20.0454 7.4409 20.0774 7.34467 20.1095 7.24845C20.1095 7.21637 20.1416 7.15222 20.1416 7.12015C20.1416 6.95977 20.1416 6.83147 20.0774 6.70317C20.0774 6.67109 20.0774 6.63902 20.0453 6.60694C20.0133 6.51072 19.9491 6.41449 19.885 6.31826C19.7567 6.18996 19.6284 6.06166 19.4359 5.96544C19.3718 5.93336 19.2755 5.90128 19.2114 5.86921C19.1152 5.83713 19.0189 5.80506 18.9227 5.77298C18.8265 5.74091 18.7302 5.74091 18.634 5.70883C18.5378 5.70883 18.4095 5.70883 18.3133 5.67676C18.1208 5.67676 17.9604 5.70883 17.8001 5.74091C17.8001 5.74091 17.8001 5.74091 17.768 5.74091C17.768 5.74091 17.7359 5.77298 17.768 5.77298C17.768 5.77298 17.768 5.80506 17.8001 5.80506C17.8321 5.80506 17.8322 5.80506 17.8642 5.80506C17.9284 5.80506 17.9925 5.80506 18.0888 5.80506C18.1208 5.80506 18.185 5.80506 18.2491 5.83713C18.3454 5.86921 18.4416 5.86921 18.5057 5.90128C18.6661 5.96543 18.7944 6.06166 18.8906 6.18996C18.9227 6.25411 18.9869 6.31827 18.9869 6.41449C19.0189 6.54279 19.051 6.67109 19.051 6.76732C19.051 6.83147 19.051 6.86354 19.051 6.9277C19.051 7.056 19.051 7.15222 19.0189 7.28052C19.0189 7.37675 18.9869 7.4409 18.9548 7.53713C18.8906 7.6975 18.8265 7.8258 18.6982 7.9541C18.634 8.01826 18.5699 8.05033 18.5057 8.11448C18.4095 8.17863 18.3454 8.24278 18.2491 8.27486C18.185 8.30693 18.1208 8.33901 18.0567 8.37108C17.9284 8.40316 17.8001 8.46731 17.6718 8.49939C17.6397 8.49939 17.6076 8.53146 17.5755 8.53146C17.5114 8.53146 17.4152 8.56354 17.351 8.56354H17.3189C17.3189 8.56354 17.2869 8.59561 17.3189 8.59561C17.3189 8.59561 17.3189 8.62769 17.351 8.62769H17.3831C17.4472 8.62769 17.5114 8.62769 17.5755 8.62769C17.6076 8.62769 17.6397 8.62769 17.7039 8.62769C17.7359 8.62769 17.7359 8.62769 17.768 8.62769C17.8963 8.62769 17.9925 8.62769 18.1208 8.65976C18.2812 8.69184 18.4416 8.72391 18.602 8.78806C18.7303 8.85221 18.8265 8.91637 18.9548 8.98052C19.0189 9.04467 19.0831 9.10882 19.1472 9.17297C19.2435 9.26919 19.3076 9.39749 19.3397 9.5258C19.3718 9.62202 19.3718 9.68617 19.4038 9.7824C19.4038 9.84655 19.4359 9.94277 19.4359 10.0069C19.4359 10.1032 19.4359 10.1994 19.4359 10.2956C19.4359 10.3598 19.4359 10.3918 19.4359 10.456C19.4359 10.5201 19.4359 10.5522 19.4038 10.6164C19.4038 10.7447 19.3718 10.8409 19.3397 10.9371C19.3397 10.9692 19.3397 11.0013 19.3076 11.0013C19.2755 11.0975 19.2435 11.1616 19.2114 11.2579C19.2114 11.2579 19.2114 11.2899 19.1793 11.2899C19.1472 11.3541 19.0831 11.4182 19.051 11.5145C18.9869 11.5786 18.9227 11.6428 18.8586 11.6748C18.7944 11.739 18.6982 11.7711 18.602 11.8031C18.5699 11.8031 18.5699 11.8031 18.5699 11.8352L18.5378 11.8673C18.5378 11.8673 18.5378 11.8994 18.5699 11.8994C18.5699 11.8994 18.5699 11.8994 18.602 11.8994C18.6982 11.8994 18.7944 11.8994 18.8586 11.8673C18.9548 11.8352 19.051 11.8352 19.1152 11.8031C19.2755 11.7711 19.4359 11.7069 19.5642 11.6107C19.5642 11.6107 19.5642 11.6107 19.5963 11.6107C19.7246 11.5465 19.8529 11.4503 19.9812 11.3541C20.0774 11.2579 20.1736 11.1616 20.2378 11.0654C20.3019 11.0013 20.334 10.905 20.3982 10.8088C20.4302 10.7447 20.4623 10.6484 20.4944 10.5522C20.5265 10.4239 20.5265 10.3277 20.5585 10.1994C20.5585 10.1673 20.5585 10.1352 20.5585 10.1032C20.3982 10.0069 20.3982 9.9107 20.3661 9.81447Z" fill="#3D007C"/>
<path d="M15.7494 9.52662C15.7174 9.49454 15.7174 9.46247 15.6853 9.43039C15.6532 9.36624 15.5891 9.30209 15.557 9.23794C15.5249 9.20587 15.5249 9.20587 15.4928 9.17379C15.4608 9.14172 15.4608 9.10964 15.4287 9.10964C15.3645 9.04549 15.3004 8.98134 15.2042 8.91719C15.108 8.85304 15.0117 8.78889 14.8834 8.75681C14.8193 8.72474 14.723 8.69266 14.6589 8.66059C14.5627 8.62851 14.4344 8.59644 14.3381 8.56436C14.2419 8.53229 14.1457 8.53229 14.0495 8.50021C13.9532 8.50021 13.8891 8.46813 13.7929 8.46813C13.7929 8.46813 13.7608 8.46813 13.7287 8.46813C13.7608 8.46813 13.7608 8.43606 13.7608 8.43606C13.8249 8.43606 13.857 8.40398 13.9212 8.40398C14.0495 8.37191 14.2098 8.33983 14.3381 8.30776C14.4664 8.24361 14.6268 8.21153 14.7551 8.11531C14.8193 8.08323 14.8513 8.05116 14.9155 8.01908C15.0759 7.92286 15.2042 7.79455 15.3325 7.63418C15.3645 7.6021 15.3645 7.57003 15.3966 7.53795C15.4287 7.44173 15.4929 7.37757 15.5249 7.28135C15.557 7.2172 15.557 7.12097 15.5891 7.05682C15.5891 6.9606 15.5891 6.89644 15.5891 6.80022V6.76814C15.557 6.70399 15.557 6.60777 15.5249 6.54362C15.5249 6.51154 15.4929 6.44739 15.4608 6.41532C15.4287 6.35117 15.3966 6.28701 15.3325 6.22286C15.2042 6.09456 15.0438 5.96626 14.8834 5.87003C14.8193 5.83796 14.7872 5.80588 14.723 5.80588C14.6589 5.77381 14.5947 5.74173 14.4985 5.74173C14.3702 5.70966 14.2098 5.67758 14.0815 5.67758C13.9532 5.64551 13.8249 5.64551 13.6645 5.64551C13.6325 5.64551 13.6004 5.64551 13.5683 5.64551C13.44 5.64551 13.3438 5.67758 13.2476 5.70966H13.2155C13.2155 5.70966 13.1834 5.74173 13.2155 5.74173C13.2155 5.74173 13.2155 5.77381 13.2476 5.77381C13.2476 5.77381 13.2797 5.77381 13.3117 5.77381C13.3759 5.77381 13.4721 5.77381 13.5363 5.77381C13.6325 5.77381 13.7287 5.80588 13.8249 5.83796C13.9532 5.87003 14.0815 5.93418 14.1778 6.03041C14.2098 6.06249 14.2419 6.09456 14.274 6.12664C14.3061 6.15871 14.3381 6.22286 14.3702 6.25494C14.3702 6.28701 14.4023 6.28701 14.4023 6.31909C14.4023 6.35116 14.4344 6.38324 14.4344 6.41532C14.4664 6.47947 14.4664 6.57569 14.4985 6.63984C14.4985 6.73607 14.4985 6.80022 14.4985 6.89645C14.4985 6.9606 14.4985 6.99267 14.4985 7.05682C14.4985 7.18512 14.4664 7.31342 14.4344 7.44172C14.4023 7.57003 14.3381 7.69833 14.2419 7.82663C14.1778 7.92285 14.0815 8.01908 13.9853 8.08323C13.9211 8.14738 13.857 8.17946 13.7608 8.21153C13.6646 8.27568 13.5683 8.30776 13.44 8.33983C13.2476 8.40399 13.0551 8.43606 12.8627 8.46813C12.8306 8.46813 12.7985 8.46814 12.7664 8.50021L12.7344 8.53229C12.7344 8.56436 12.7344 8.56436 12.7664 8.56436C12.8306 8.56436 12.8948 8.56436 12.9589 8.56436C12.991 8.56436 13.0231 8.56436 13.0551 8.56436C13.0872 8.56436 13.1193 8.56436 13.1514 8.56436C13.2155 8.56436 13.2796 8.56436 13.3438 8.56436C13.44 8.56436 13.5363 8.59644 13.6325 8.59644C13.7608 8.62851 13.857 8.66059 13.9853 8.69266C14.1136 8.75681 14.2098 8.78889 14.3061 8.88511C14.3702 8.91719 14.4023 8.98134 14.4664 9.01342C14.4985 9.04549 14.5306 9.07757 14.5627 9.14172C14.6268 9.20587 14.6589 9.30209 14.691 9.36624C14.7551 9.49454 14.7872 9.62285 14.7872 9.78322C14.7872 9.84737 14.7872 9.87945 14.7872 9.9436C14.7872 10.0719 14.7872 10.1681 14.7872 10.2964C14.7872 10.4247 14.7551 10.553 14.7551 10.6493C14.723 10.8096 14.691 10.9379 14.6268 11.0662C14.5947 11.1625 14.5306 11.2587 14.4664 11.3549C14.4344 11.4191 14.3702 11.4511 14.3381 11.5153C14.274 11.5794 14.2098 11.6115 14.1457 11.6757C14.0815 11.7077 14.0495 11.7398 13.9853 11.7398C13.9532 11.7398 13.9532 11.7398 13.9212 11.7719V11.804C13.9212 11.804 13.9212 11.836 13.9532 11.836C13.9532 11.836 13.9532 11.836 13.9853 11.836C14.0495 11.836 14.1136 11.836 14.1457 11.836C14.2419 11.804 14.3381 11.804 14.4344 11.7719C14.5947 11.7398 14.7551 11.6757 14.9155 11.5794C14.9476 11.5794 14.9796 11.5474 14.9796 11.5474C15.0759 11.4832 15.1721 11.4191 15.2683 11.3549L15.3004 11.3228L15.3325 11.2908C15.4287 11.2266 15.4928 11.1304 15.557 11.0342C15.6532 10.9059 15.7174 10.7776 15.7815 10.6493C15.8457 10.4889 15.8778 10.2964 15.8778 10.104C15.8778 9.97568 15.8778 9.84737 15.8457 9.71907C15.8136 9.687 15.7815 9.59077 15.7494 9.52662Z" fill="#3D007C"/>
<path d="M24.3739 11.9634C24.438 11.9313 24.5022 11.9313 24.5343 11.8992C24.5663 11.8672 24.6305 11.8671 24.6626 11.8351C24.6947 11.803 24.7267 11.7709 24.7909 11.7388C24.855 11.7068 24.8871 11.6426 24.9512 11.6105C24.9833 11.5785 25.0154 11.5143 25.0475 11.4822C25.1116 11.3539 25.1758 11.2577 25.2078 11.1294C25.2078 11.0653 25.2399 11.0332 25.2399 10.969C25.2399 10.9049 25.2399 10.8407 25.2399 10.8087C25.2399 10.7445 25.2399 10.7124 25.2078 10.6483C25.2078 10.5841 25.1758 10.5521 25.1437 10.52C25.1437 10.4879 25.1116 10.4558 25.1116 10.4558C25.1116 10.4558 25.1116 10.4238 25.0796 10.4238C25.0475 10.3917 25.0154 10.3596 25.0154 10.3275C24.9512 10.2634 24.8871 10.2313 24.823 10.1992C24.7909 10.1672 24.7588 10.1672 24.7267 10.1672C24.6946 10.1672 24.6947 10.1351 24.6626 10.1351C24.5984 10.103 24.5343 10.103 24.438 10.103C24.3739 10.103 24.2777 10.0709 24.2135 10.0709H24.2456C24.3418 10.0389 24.406 10.0389 24.5022 10.0068C24.5984 9.97471 24.6626 9.94263 24.7267 9.91056C24.7909 9.87848 24.8229 9.84641 24.8871 9.81433C24.9192 9.78226 24.9833 9.75018 25.0154 9.7181L25.0475 9.68603C25.0795 9.68603 25.0795 9.65395 25.1116 9.62188C25.1116 9.62188 25.1116 9.5898 25.1437 9.5898C25.1758 9.55773 25.2399 9.49358 25.272 9.42943C25.3361 9.3332 25.3682 9.23697 25.4003 9.10867C25.4324 9.01245 25.4003 8.9483 25.4003 8.85207C25.4003 8.78792 25.3682 8.72377 25.3362 8.6917C25.3041 8.65962 25.272 8.59547 25.2399 8.56339C25.1437 8.49924 25.0795 8.43509 24.9512 8.40302C24.8871 8.37094 24.7909 8.37094 24.7267 8.33887C24.6626 8.33887 24.5984 8.33887 24.5343 8.33887C24.5022 8.33887 24.5022 8.33887 24.4701 8.33887C24.438 8.33887 24.406 8.33887 24.3418 8.33887C24.3098 8.33887 24.3097 8.33887 24.2777 8.33887C24.2456 8.33887 24.1814 8.33887 24.1494 8.37094C24.1173 8.37094 24.0531 8.40302 24.0211 8.40302C23.9248 8.43509 23.8607 8.49924 23.7965 8.56339C23.7003 8.65962 23.6362 8.75584 23.6041 8.91622C23.6041 8.98037 23.6041 9.01245 23.6362 9.0766C23.6362 9.10867 23.6682 9.14075 23.7003 9.17282C23.7003 9.2049 23.7324 9.2049 23.7324 9.2049C23.7965 9.2049 23.8286 9.2049 23.8928 9.17282C23.9569 9.14075 23.989 9.10867 24.0211 9.04452C24.0531 8.98037 24.0531 8.9483 24.0531 8.88415C24.0531 8.85207 24.0531 8.78792 24.0211 8.75584C24.0211 8.75584 24.0211 8.72377 23.989 8.72377C23.989 8.69169 23.9569 8.65962 23.9248 8.62754C23.8928 8.59547 23.8928 8.59547 23.8607 8.56339L23.8928 8.53132C23.9569 8.49924 24.0211 8.46717 24.0852 8.46717C24.1494 8.46717 24.2135 8.43509 24.2777 8.43509C24.3097 8.43509 24.3418 8.43509 24.406 8.43509C24.4701 8.43509 24.5663 8.46717 24.6305 8.46717C24.6626 8.49924 24.7267 8.49924 24.7588 8.53132C24.7909 8.56339 24.823 8.56339 24.823 8.59547C24.855 8.62754 24.855 8.69169 24.8871 8.72377C24.8871 8.75585 24.9192 8.82 24.9192 8.88415C24.9192 8.98037 24.9192 9.0766 24.9192 9.14075C24.9192 9.17283 24.8871 9.2049 24.8871 9.23697C24.855 9.3332 24.823 9.42943 24.7588 9.52565C24.7267 9.55773 24.6947 9.62188 24.6626 9.65395C24.6305 9.68603 24.5663 9.75018 24.5343 9.78226C24.5022 9.81433 24.4701 9.84641 24.406 9.87848C24.3418 9.91056 24.3097 9.94263 24.2456 9.94263C24.2135 9.94263 24.1814 9.97471 24.1494 9.97471C24.0852 10.0068 24.0531 10.0068 23.989 10.0068C23.9569 10.0068 23.8928 10.0389 23.8607 10.0389C23.8286 10.0389 23.7965 10.0389 23.7645 10.0389C23.7645 10.0389 23.7645 10.0389 23.7645 10.0709H23.7965C23.8286 10.0709 23.8607 10.0709 23.8928 10.0709C23.9248 10.0709 23.9569 10.0709 23.989 10.0709C24.0852 10.0709 24.1494 10.0709 24.2456 10.103C24.3097 10.103 24.3418 10.1351 24.406 10.1672C24.438 10.1992 24.4701 10.1992 24.5022 10.2313C24.5664 10.2634 24.5984 10.3275 24.6305 10.3917C24.6626 10.4558 24.6946 10.52 24.6946 10.5521C24.7267 10.6162 24.7267 10.6804 24.7267 10.7766C24.7267 10.8728 24.7267 10.937 24.6946 11.0332C24.6946 11.0973 24.6626 11.1615 24.6626 11.2256C24.6305 11.3539 24.5984 11.4502 24.5343 11.5785C24.5022 11.6426 24.438 11.7068 24.406 11.7709C24.3418 11.8351 24.3097 11.8992 24.2135 11.9313C24.1814 11.9634 24.1494 11.9634 24.1173 11.9955H24.0852C24.0531 12.0275 23.989 12.0275 23.9248 12.0275C23.8607 12.0275 23.7645 12.0275 23.7003 12.0275C23.6362 12.0275 23.6041 11.9955 23.5399 11.9634L23.5079 11.9313C23.4758 11.8992 23.4437 11.8671 23.4116 11.8351L23.3796 11.803C23.3475 11.7709 23.3475 11.7389 23.3475 11.7068C23.3475 11.6426 23.3154 11.5785 23.3154 11.5143C23.3154 11.4181 23.3154 11.3539 23.3154 11.2577C23.3154 11.1936 23.3475 11.1615 23.3475 11.0973C23.3475 11.0653 23.3796 11.0011 23.3796 10.969C23.3796 10.937 23.4116 10.937 23.4116 10.9049C23.4116 10.8728 23.4437 10.8728 23.4437 10.8407V10.8087C23.4437 10.8087 23.4437 10.7766 23.4116 10.7766H23.3796C23.3475 10.7766 23.2833 10.8087 23.2513 10.8407C23.2192 10.8728 23.1871 10.8728 23.155 10.9049C23.123 10.937 23.0909 10.969 23.0588 11.0011C23.0267 11.0653 22.9946 11.1294 22.9626 11.1936C22.9626 11.2256 22.9305 11.2577 22.9305 11.2898C22.9305 11.3219 22.8984 11.386 22.8984 11.4181C22.8984 11.4502 22.8984 11.4822 22.8984 11.5143C22.8984 11.5464 22.9305 11.6105 22.9305 11.6426C22.9305 11.6747 22.9626 11.7388 22.9947 11.7709C23.0267 11.803 23.0588 11.8351 23.0909 11.8672C23.155 11.9313 23.1871 11.9634 23.2833 11.9955C23.3154 12.0275 23.3796 12.0275 23.4116 12.0596C23.4437 12.0596 23.4758 12.0917 23.5079 12.0917C23.572 12.0917 23.6041 12.1238 23.6682 12.1238C23.6682 12.1238 23.6682 12.1238 23.7003 12.1238C23.7324 12.1238 23.7965 12.1238 23.8286 12.1238C23.8607 12.1238 23.9248 12.1238 23.9569 12.1238C23.989 12.1238 24.0211 12.1238 24.0852 12.0917C24.2456 11.9955 24.3097 11.9634 24.3739 11.9634Z" fill="#3D007C"/>
<path d="M22.4179 9.33408C22.4179 9.33408 22.45 9.33408 22.4179 9.33408C22.45 9.302 22.45 9.302 22.4179 9.33408C22.45 9.302 22.45 9.302 22.4179 9.33408C22.4179 9.302 22.45 9.302 22.4179 9.33408C22.4179 9.302 22.3858 9.302 22.3858 9.302C22.3217 9.302 22.2255 9.302 22.1613 9.26993C22.0972 9.26993 22.033 9.23785 21.9689 9.20578C21.9368 9.1737 21.9047 9.14163 21.9047 9.10955C21.9047 9.10955 21.9047 9.07748 21.9047 9.0454C21.9047 9.01333 21.9047 8.98125 21.9047 8.94917V8.9171C21.9047 8.88502 21.9047 8.85295 21.9368 8.7888C21.9368 8.72465 21.9689 8.6605 21.9689 8.59635C21.9689 8.56427 21.9689 8.5322 22.0009 8.50012C22.0009 8.43597 22.033 8.37182 22.033 8.30767C22.033 8.24352 22.0651 8.17937 22.0651 8.11522C22.0651 8.05107 22.0972 7.98692 22.0972 7.92277C22.0972 7.85861 22.1292 7.79446 22.1292 7.73031C22.1292 7.66616 22.1613 7.60201 22.1613 7.50579C22.1613 7.44163 22.1934 7.37748 22.1934 7.31333C22.1934 7.24918 22.2255 7.15296 22.2255 7.08881C22.2575 6.99258 22.2575 6.89636 22.2896 6.80013C22.2896 6.7039 22.3217 6.63975 22.3217 6.54353C22.3217 6.47938 22.3538 6.41523 22.3538 6.35107C22.3538 6.319 22.3538 6.25485 22.3858 6.22277C22.3858 6.1907 22.3858 6.15862 22.4179 6.09447C22.4179 6.03032 22.45 5.96617 22.45 5.90202C22.45 5.86994 22.45 5.8058 22.4821 5.77372C22.4821 5.74164 22.4821 5.70957 22.4821 5.70957C22.4821 5.70957 22.4821 5.67749 22.45 5.70957C22.4179 5.74164 22.3858 5.74164 22.3538 5.77372C22.2896 5.83787 22.2255 5.86994 22.1292 5.90202C22.0972 5.93409 22.033 5.9341 22.0009 5.96617C21.9689 5.96617 21.9689 5.99825 21.9368 5.99825C21.9047 5.99825 21.8726 6.03032 21.8405 6.03032C21.7764 6.0624 21.7443 6.0624 21.6802 6.09447C21.6481 6.09447 21.6481 6.09447 21.616 6.12655C21.5519 6.15862 21.4557 6.1907 21.3915 6.1907H21.3594V6.22277H21.3915C21.4236 6.22277 21.4557 6.1907 21.4877 6.1907C21.6481 6.12655 21.7764 6.09447 21.9368 6.03032C21.9368 6.03032 21.9368 6.03032 21.9689 6.03032C21.9689 6.0624 21.9689 6.0624 21.9689 6.0624V6.09447C21.9689 6.1907 21.9368 6.25485 21.9368 6.35107C21.9047 6.4473 21.9047 6.54353 21.8726 6.63975C21.8726 6.73598 21.8405 6.80013 21.8405 6.89636C21.8405 6.96051 21.8085 7.02466 21.8085 7.08881C21.8085 7.12088 21.7764 7.18503 21.7764 7.21711C21.7764 7.28126 21.7443 7.37748 21.7443 7.44164C21.7123 7.53786 21.7122 7.63409 21.6802 7.76239C21.6802 7.85861 21.6481 7.92277 21.6481 8.01899C21.6481 8.08314 21.616 8.14729 21.616 8.21144C21.616 8.24352 21.616 8.30767 21.584 8.33975C21.584 8.4039 21.5519 8.46805 21.5519 8.50012C21.5519 8.5322 21.5519 8.56427 21.5198 8.62842C21.5198 8.69257 21.4877 8.75672 21.4877 8.82087C21.4877 8.85295 21.4877 8.9171 21.4557 8.94917C21.4557 8.98125 21.4236 9.0454 21.3915 9.07748C21.3594 9.10955 21.3594 9.14163 21.3274 9.14163C21.2953 9.1737 21.2311 9.20578 21.199 9.20578C21.1349 9.23785 21.0708 9.26993 20.9745 9.26993C20.9425 9.26993 20.8783 9.26993 20.8462 9.26993C20.8141 9.26993 20.8141 9.26993 20.7821 9.26993C20.7821 9.26993 20.7821 9.26993 20.75 9.26993H20.7821C21.2953 9.26993 21.8085 9.26993 22.3538 9.26993C22.3858 9.33408 22.3858 9.33408 22.4179 9.33408Z" fill="#3D007C"/>
<path d="M13.3757 11.8353C13.3436 11.8353 13.3436 11.8353 13.3115 11.8032C13.2153 11.7711 13.1512 11.739 13.087 11.707C13.0549 11.707 13.0549 11.6749 13.0229 11.6428C12.9908 11.6107 12.9587 11.5787 12.9587 11.5787C12.8946 11.5145 12.8625 11.4824 12.8304 11.3862C12.8304 11.3862 12.8304 11.3862 12.8304 11.3541C12.7983 11.3221 12.7983 11.29 12.7663 11.2258C12.7342 11.1296 12.7021 11.0655 12.67 10.9692C12.638 10.873 12.638 10.7768 12.6059 10.6806C12.6059 10.5523 12.5738 10.3919 12.6059 10.2636C12.6059 10.1353 12.638 10.039 12.638 9.91075C12.638 9.8466 12.67 9.78245 12.7021 9.71829C12.7021 9.68622 12.7021 9.68622 12.7021 9.65415C12.7021 9.62207 12.7021 9.62207 12.67 9.62207H12.638C12.5738 9.65415 12.5097 9.65414 12.4455 9.68622C12.3493 9.7183 12.2851 9.75037 12.221 9.78245C12.1247 9.8466 12.0285 9.91075 11.9323 10.007C11.9323 10.007 11.9323 10.039 11.9002 10.039C11.8361 10.1032 11.804 10.1994 11.7719 10.2636C11.7399 10.3277 11.7078 10.3919 11.7398 10.456V10.4881C11.7398 10.5202 11.7398 10.5523 11.7398 10.5843C11.7398 10.6485 11.7398 10.6806 11.7398 10.7447C11.7398 10.8089 11.7719 10.9051 11.804 10.9692C11.8682 11.0975 11.9323 11.2258 12.0606 11.3541C12.1568 11.4504 12.2531 11.5145 12.3493 11.5787C12.4134 11.6107 12.4776 11.6428 12.5097 11.6749C12.6059 11.707 12.67 11.739 12.7663 11.7711C12.8625 11.8032 12.9587 11.8353 13.0549 11.8353C13.1191 11.8353 13.2153 11.8673 13.2795 11.8673C13.3116 11.8673 13.3757 11.8673 13.4078 11.8673C13.3757 11.8673 13.3757 11.8353 13.3757 11.8353Z" fill="#3D007C"/>
<path d="M17.8953 11.8354C17.8632 11.8354 17.8632 11.8354 17.8311 11.8033C17.767 11.7713 17.7029 11.7713 17.6387 11.7071C17.5104 11.643 17.4142 11.5467 17.35 11.4184C17.2859 11.3222 17.2538 11.226 17.1896 11.1298C17.1255 11.0015 17.1255 10.8411 17.0934 10.7128C17.0934 10.6166 17.0934 10.5203 17.0613 10.4241V10.392C17.0613 10.3279 17.0613 10.2317 17.0934 10.1675C17.0934 10.0392 17.1255 9.9109 17.1576 9.7826C17.1576 9.75052 17.1576 9.75052 17.1896 9.71845V9.68637C17.1896 9.6543 17.1896 9.6543 17.1576 9.6543C17.1255 9.6543 17.1255 9.6543 17.0934 9.6543C17.0293 9.6543 16.933 9.68637 16.8689 9.71845C16.7727 9.75052 16.6764 9.81467 16.5802 9.87882C16.484 9.94297 16.4198 10.0071 16.3557 10.1034C16.3236 10.1675 16.2915 10.1996 16.2595 10.2637C16.1953 10.392 16.1953 10.5203 16.1953 10.6486C16.1953 10.7128 16.1953 10.809 16.2274 10.8732C16.2595 10.9694 16.2915 11.0656 16.3557 11.1618C16.4198 11.2581 16.4519 11.3222 16.5161 11.3864C16.6123 11.5147 16.7406 11.5788 16.901 11.675C16.9651 11.7071 17.0293 11.7392 17.0934 11.7392C17.1896 11.7713 17.2859 11.8033 17.3821 11.8354C17.5104 11.8675 17.6387 11.8675 17.767 11.8996C17.7991 11.8996 17.8312 11.8996 17.8632 11.8996C17.8632 11.8996 17.8953 11.8996 17.8953 11.8675C17.9274 11.8675 17.8953 11.8354 17.8953 11.8354Z" fill="#3D007C"/>
<path d="M12.2825 7.28052C12.3787 7.3126 12.507 7.3126 12.6033 7.28052C12.6674 7.24845 12.7316 7.21637 12.7957 7.18429C12.8599 7.12014 12.8919 7.05599 12.924 6.99184C12.9561 6.89562 12.9882 6.79939 12.9882 6.67109V6.63902C12.9882 6.54279 12.9561 6.44656 12.9561 6.35034C12.924 6.25411 12.8919 6.15788 12.8278 6.06166C12.7957 6.02958 12.7957 6.02958 12.7636 5.99751C12.7316 5.96543 12.6674 5.93336 12.6033 5.96543C12.5391 5.96543 12.475 5.99751 12.4429 6.02958C12.3787 6.06166 12.3146 6.12581 12.2504 6.15789C12.2184 6.18996 12.2184 6.18996 12.1863 6.22204C12.1542 6.28619 12.0901 6.35034 12.058 6.41449C11.9938 6.54279 11.9297 6.70317 11.9297 6.86354C11.9297 6.89562 11.9297 6.95977 11.9618 6.99184C12.058 7.12014 12.1542 7.21637 12.2825 7.28052Z" fill="#3D007C"/>
<path d="M16.5485 7.05618C16.6127 7.1524 16.7089 7.24863 16.8051 7.2807C16.9014 7.31278 16.9976 7.31278 17.1259 7.2807C17.158 7.2807 17.2221 7.24863 17.2542 7.21655C17.3183 7.18448 17.3825 7.12033 17.4145 7.05618C17.4787 6.92787 17.5429 6.79957 17.5429 6.6392C17.5429 6.60712 17.5429 6.57504 17.5429 6.54297C17.5429 6.47882 17.5108 6.41467 17.5108 6.35052C17.4787 6.25429 17.4466 6.19014 17.4145 6.12599C17.3825 6.09392 17.3504 6.06184 17.3183 6.02976C17.3183 6.02976 17.2863 6.02976 17.2863 5.99769C17.2542 5.96561 17.19 5.96561 17.1579 5.99769C17.0938 6.02976 17.0617 6.02976 16.9976 6.06184C16.8693 6.12599 16.773 6.22222 16.6768 6.31844C16.5806 6.44674 16.5165 6.57504 16.4844 6.70335C16.4844 6.73542 16.4844 6.7675 16.4844 6.79957C16.4844 6.86372 16.4844 6.95995 16.5164 7.0241C16.5485 7.0241 16.5485 7.0241 16.5485 7.05618Z" fill="#3D007C"/>
<path d="M24.886 5.29267C24.886 5.26059 24.9181 5.26059 24.9181 5.22852C24.8539 5.22852 24.8539 5.22852 24.8219 5.26059C24.7898 5.32474 24.7577 5.42097 24.7256 5.48512C24.5011 5.93417 24.2766 6.4153 24.0521 6.86436C23.9879 6.96058 23.9558 7.08888 23.8917 7.18511C23.8275 7.31341 23.7634 7.44171 23.6992 7.57001C23.4747 7.98699 23.2823 8.43605 23.0577 8.85303C22.8011 9.39831 22.5445 9.91151 22.2558 10.4568C21.9992 11.0021 21.7106 11.5153 21.454 12.0606C21.454 12.0606 21.454 12.0926 21.4219 12.0926C21.4219 12.1247 21.4219 12.1247 21.454 12.1247C21.454 12.1247 21.486 12.1247 21.486 12.0926L21.5181 12.0606C21.6143 11.836 21.7426 11.6115 21.8389 11.4191C22.0313 11.0021 22.2558 10.5851 22.4483 10.1681C22.9615 9.10963 23.4747 8.08322 23.9879 7.02473C24.2766 6.47945 24.5653 5.9021 24.886 5.29267Z" fill="#3D007C"/>
</svg>
