<svg width="33" height="27" viewBox="0 0 33 27" fill="none" xmlns="http://www.w3.org/2000/svg">
<path d="M27.2904 20.8455C27.1942 20.7814 27.1621 20.6852 27.13 20.5889C26.9376 20.0437 26.713 19.5305 26.5206 18.9852C25.7508 16.9644 24.981 14.9116 24.2112 12.8909C23.4093 10.806 22.6395 8.689 21.8376 6.60411C21.8055 6.50788 21.7734 6.44373 21.7734 6.3475C21.8376 6.3475 21.8697 6.31543 21.9338 6.31543C22.5432 6.31543 23.1206 6.31543 23.73 6.31543C23.8583 6.31543 23.9225 6.37958 23.9546 6.47581C24.147 6.98901 24.3395 7.50222 24.4998 8.01542C24.9489 9.26636 25.43 10.5173 25.8791 11.8003C26.4564 13.3399 27.0017 14.8475 27.5791 16.3871C27.7394 16.8041 27.8677 17.221 28.0281 17.638C28.0602 17.7022 28.0602 17.7663 28.1243 17.8305C28.2206 17.7984 28.2206 17.7342 28.2206 17.6701C28.3489 17.2531 28.4772 16.8361 28.6055 16.4192C28.8942 15.521 29.1828 14.6229 29.4394 13.7248C29.7923 12.6022 30.1451 11.4796 30.4979 10.389C30.7866 9.52296 31.0432 8.65693 31.3319 7.79089C31.4602 7.40599 31.5885 7.02109 31.7168 6.60411C31.7489 6.53996 31.7489 6.50788 31.7809 6.44373C31.813 6.37958 31.8451 6.3475 31.9092 6.3475C32.1658 6.3475 32.4224 6.3475 32.647 6.3475C32.7111 6.41166 32.679 6.47581 32.679 6.53996C32.5828 6.79656 32.4866 7.08524 32.3904 7.34184C31.5885 9.45881 30.8187 11.5758 30.0168 13.6928C29.1508 15.9701 28.3168 18.2795 27.4508 20.5569C27.4187 20.621 27.3866 20.7172 27.3545 20.7814C27.3545 20.7814 27.3225 20.8135 27.2904 20.8455Z" fill="#3D007C"/>
<path d="M24.8887 5.00068C24.8887 4.90445 24.9529 4.90445 25.017 4.87238C25.2095 4.80823 25.3699 4.67992 25.5302 4.55162C25.851 4.29502 26.0434 3.97427 26.1717 3.58936C26.3642 3.04408 26.3963 2.4988 26.1717 1.95352C26.0114 1.53654 25.7868 1.21579 25.434 0.959188C24.9208 0.574285 24.3114 0.413908 23.7019 0.381833C23.285 0.349758 22.9001 0.381833 22.4831 0.478059C21.7453 0.670511 21.2001 1.08749 20.7831 1.729C20.4623 2.2422 20.2699 2.81956 20.1416 3.39691C20.0454 3.87804 20.0454 4.3271 20.0454 4.80823C20.0454 5.70633 19.9812 6.60444 19.917 7.50255C19.6604 11.512 19.4038 13.661 19.1152 14.495C19.0189 14.7836 18.8906 15.0723 18.7303 15.361C18.3133 16.195 17.7359 16.9648 17.0303 17.5742C16.3888 18.1516 15.7152 18.6327 15.0095 19.1138C14.9454 19.1459 14.8812 19.21 14.8171 19.2742C14.8171 19.2742 14.8171 19.3063 14.785 19.3383C14.8491 19.3704 14.8812 19.3383 14.9454 19.3063C15.1378 19.21 15.3303 19.1138 15.5227 19.0176C16.068 18.7931 16.6133 18.6648 17.1906 18.6327C17.6397 18.6006 18.0888 18.6327 18.5057 18.7289C18.9227 18.8251 19.3076 18.9855 19.6925 19.178C20.3982 19.5949 21.0397 20.0761 21.617 20.6534C22.2265 21.2629 22.7397 21.9044 23.285 22.5459C23.734 23.0591 24.1831 23.5723 24.6321 24.0534C25.017 24.4383 25.434 24.7911 25.8831 25.0477C26.4283 25.3685 27.0057 25.4647 27.6151 25.3364C28.2566 25.2081 28.7378 24.8232 28.9944 24.2138C29.3793 23.3157 29.0264 22.2572 28.2246 21.744C28.1604 21.7119 28.0963 21.6478 28.0321 21.6157C28.0321 21.6157 28 21.5515 28.0321 21.5515C28.0321 21.5195 28.0963 21.5195 28.0963 21.5195C28.7378 21.8402 29.1547 22.3534 29.283 23.0591C29.3793 23.5081 29.283 23.9572 29.1227 24.4062C28.8981 24.9515 28.5453 25.3685 28.0321 25.6572C27.6793 25.8496 27.3264 26.01 26.9095 26.0742C26.2359 26.1704 25.5944 26.1062 24.9529 25.9138C24.6963 25.8176 24.4076 25.6893 24.151 25.5609C23.4453 25.176 22.8038 24.6949 22.1944 24.1817C21.7453 23.7968 21.2963 23.3478 20.8793 22.9308C20.334 22.3855 19.7567 21.8402 19.1793 21.327C18.4737 20.7176 17.7039 20.1723 16.8057 19.8195C16.5812 19.7232 16.3567 19.6591 16.1322 19.627C15.651 19.5308 15.1699 19.4987 14.6888 19.5949C14.5605 19.627 14.4642 19.6591 14.3359 19.6912C13.919 19.8515 13.5341 20.0119 13.1492 20.2685C13.0529 20.3327 12.9567 20.3968 12.8284 20.461C12.8284 20.461 12.7643 20.461 12.7643 20.4289C12.7643 20.3968 12.7322 20.3647 12.7643 20.3647C12.7963 20.3327 12.8605 20.2685 12.9246 20.2364C13.2133 20.044 13.502 19.8195 13.7907 19.627C14.336 19.2421 14.785 18.761 15.202 18.2157C15.4265 17.927 15.651 17.6063 15.8435 17.2855C16.068 16.9006 16.2605 16.4836 16.4208 16.0667C16.6774 15.3931 16.8699 14.6874 16.9661 13.9818C17.0944 13.0195 17.2227 10.8705 17.4473 6.66859C17.4473 6.25161 17.4793 5.86671 17.4793 5.44973C17.5114 4.87238 17.5756 4.29502 17.7359 3.71766C17.8322 3.36484 17.9605 3.01201 18.1208 2.69126C18.2812 2.30635 18.5057 1.9856 18.7623 1.66485C19.1472 1.21579 19.5963 0.830887 20.1416 0.574284C20.6869 0.317682 21.2321 0.125231 21.8095 0.06108C22.6114 -0.0351459 23.4453 -0.0351466 24.2472 0.189381C24.6642 0.317682 25.017 0.478059 25.3699 0.734661C26.0755 1.27994 26.3963 1.9856 26.3321 2.88371C26.3 3.55729 26.0114 4.10257 25.4982 4.55162C25.3057 4.712 25.0812 4.8403 24.8567 4.90445C24.9529 5.03275 24.9208 5.03275 24.8887 5.00068Z" fill="#3D007C"/>
<path d="M6.88908 7.08518C6.85701 7.05311 6.85701 7.02103 6.85701 6.98896C6.85701 6.95688 6.88909 6.9248 6.92116 6.9248C6.95324 6.9248 6.95323 6.9248 6.98531 6.9248C7.01739 6.9248 7.08153 6.9248 7.11361 6.9248C7.27399 6.9248 7.46644 6.95688 7.62682 6.98896C7.72304 6.98896 7.78719 7.02103 7.88342 7.02103C8.07587 7.05311 8.26832 7.08518 8.46078 7.14933C8.71738 7.24556 9.00606 7.30971 9.26266 7.43801C9.48719 7.53424 9.67964 7.63046 9.87209 7.75876C9.96831 7.82291 10.0645 7.88707 10.1608 7.95122C10.3211 8.07952 10.5136 8.20782 10.674 8.33612C10.8664 8.4965 11.0268 8.68895 11.1872 8.8814C11.3476 9.04177 11.4438 9.23423 11.5721 9.42668C11.6683 9.58706 11.7325 9.74743 11.8287 9.93988C11.8928 10.0682 11.9249 10.1965 11.9891 10.3248C12.0211 10.3889 12.0211 10.421 12.0211 10.4852C12.0532 10.6135 12.0853 10.7738 12.1174 10.9021C12.1174 10.9663 12.1494 11.0625 12.1494 11.1267V11.1587C12.2136 11.4153 12.2136 11.672 12.2136 11.8965C12.2136 12.0569 12.2136 12.2172 12.1815 12.3455C12.1815 12.538 12.1174 12.7625 12.0853 12.955C12.0853 12.987 12.0853 13.0191 12.0532 13.0191C12.0211 13.1153 11.9891 13.2436 11.957 13.3399C11.9249 13.4361 11.8928 13.5002 11.8608 13.5965C11.7645 13.7889 11.6683 13.9814 11.54 14.1738C11.5079 14.238 11.4438 14.3021 11.4117 14.3342C11.2834 14.4946 11.123 14.655 10.9947 14.8153C10.8664 14.9436 10.706 15.0719 10.5457 15.1682C10.5136 15.1682 10.5136 15.2002 10.4815 15.2002C10.2891 15.3285 10.0966 15.3927 9.87209 15.4568C9.80794 15.4889 9.71171 15.4889 9.61548 15.521C9.39096 15.5851 9.19851 15.5851 8.97398 15.5851C8.87775 15.5851 8.8136 15.5851 8.71738 15.5851C8.58907 15.5851 8.46077 15.5531 8.33247 15.521C8.20417 15.4889 8.07587 15.4568 7.94757 15.3927C7.85134 15.3606 7.75512 15.2965 7.65889 15.2323C7.43437 15.0719 7.27399 14.8795 7.17776 14.655C7.17776 14.6229 7.14569 14.5908 7.14569 14.5587C7.11361 14.4625 7.11361 14.3342 7.08154 14.238C7.08154 14.0776 7.08154 13.9172 7.08154 13.7568C7.08154 13.0191 7.08154 12.2493 7.08154 11.5116C7.08154 11.3512 7.08154 11.1908 7.04946 11.0625C7.01738 10.8059 6.92116 10.5172 6.76078 10.2927C6.66456 10.1644 6.53626 10.0361 6.37588 9.97196C6.2155 9.90781 6.0872 9.87574 5.92682 9.87574C5.86267 9.87574 5.8306 9.87574 5.76645 9.87574L5.73438 9.84366C5.73438 9.81158 5.73437 9.81158 5.76645 9.77951C5.79852 9.77951 5.79852 9.77951 5.8306 9.74743C5.89475 9.74743 5.92682 9.71536 5.99097 9.71536C6.0872 9.71536 6.18343 9.68328 6.31173 9.68328C6.37588 9.68328 6.44003 9.68328 6.4721 9.68328C6.69663 9.68328 6.88908 9.71536 7.11361 9.77951C7.40229 9.84366 7.65889 9.93988 7.88342 10.1323C7.94757 10.1965 8.01172 10.2286 8.0438 10.2927C8.23625 10.5172 8.36455 10.7418 8.4287 11.0304C8.4287 11.0946 8.46078 11.1267 8.46078 11.1908C8.49285 11.3833 8.49285 11.5757 8.49285 11.8003C8.49285 12.5059 8.49285 13.2116 8.49285 13.8851C8.49285 14.0455 8.49285 14.238 8.52493 14.3984C8.52493 14.5587 8.58907 14.7191 8.65323 14.8474C8.74945 15.0399 8.90983 15.1361 9.13436 15.1682C9.26266 15.2002 9.39096 15.1682 9.51926 15.1682C9.74379 15.1361 9.93624 15.104 10.1608 15.0399C10.3211 14.9757 10.4815 14.9116 10.6419 14.8153C10.7702 14.7512 10.8664 14.655 10.9626 14.5587C11.0268 14.4946 11.123 14.4304 11.1872 14.3342C11.2193 14.3021 11.2834 14.238 11.3155 14.1738C11.4759 13.9814 11.5721 13.7889 11.6683 13.5965C11.7645 13.404 11.8287 13.1795 11.8928 12.987C11.9249 12.8587 11.957 12.7304 11.9891 12.6021C12.0211 12.3455 12.0532 12.0889 12.0532 11.8323C12.0532 11.6078 12.0211 11.4153 12.0211 11.1908C11.9891 10.9021 11.9249 10.6135 11.8287 10.3248C11.7645 10.1003 11.7004 9.90781 11.6042 9.71536C11.4759 9.49083 11.3476 9.2663 11.1872 9.04177C11.0589 8.8814 10.9306 8.72102 10.7702 8.56065C10.6419 8.43234 10.4815 8.30404 10.3211 8.17574C10.0966 7.98329 9.84001 7.82291 9.58341 7.69461C9.35889 7.56631 9.13436 7.47009 8.90983 7.40593C8.6853 7.30971 8.46077 7.24556 8.23625 7.18141C8.10794 7.14933 7.97964 7.11726 7.85134 7.08518C7.69097 7.05311 7.49852 7.02103 7.33814 6.98896C7.24191 6.98896 7.11361 6.98895 6.98531 6.95688C6.98531 7.08518 6.92116 7.08518 6.88908 7.08518Z" fill="#3D007C"/>
<path d="M5.12638 15.5538C5.03015 15.5538 4.966 15.5538 4.86977 15.5538C4.74147 15.5538 4.61317 15.5217 4.48487 15.4575C4.32449 15.3934 4.19619 15.3292 4.03582 15.233C3.84337 15.1047 3.71507 14.9123 3.65091 14.6877C3.58676 14.5273 3.55469 14.367 3.55469 14.2066C3.55469 14.0462 3.58676 13.8858 3.61884 13.7255C3.65091 13.533 3.77921 13.3726 3.87544 13.1802C3.93959 13.084 4.00374 13.0198 4.09997 12.9236C4.22827 12.8274 4.35657 12.7311 4.48487 12.667C4.61317 12.6028 4.77355 12.5066 4.90185 12.4745C5.03015 12.4425 5.12638 12.4104 5.25468 12.3783C5.44713 12.3462 5.60751 12.3142 5.79996 12.2821C5.83203 12.2821 5.83203 12.2821 5.86411 12.2821C5.99241 12.2821 6.12071 12.2821 6.21694 12.25C6.24902 12.25 6.28109 12.25 6.28109 12.25C6.31316 12.25 6.31316 12.25 6.31316 12.2821C6.31316 12.3142 6.31316 12.3142 6.28109 12.3462H6.24901C6.21694 12.3462 6.18486 12.3783 6.18486 12.3783C6.05656 12.4104 5.92826 12.4425 5.79996 12.5066C5.73581 12.5387 5.70373 12.5708 5.63958 12.6028C5.54336 12.667 5.44713 12.7311 5.3509 12.8274C5.25468 12.9236 5.19053 13.0198 5.12638 13.1481C5.06223 13.2764 5.03015 13.4047 4.99808 13.533C4.966 13.7255 4.93392 13.9179 4.966 14.1424C4.966 14.2707 4.966 14.367 4.99808 14.4953C5.03015 14.6236 5.06223 14.7519 5.15845 14.8802C5.28675 15.0726 5.47921 15.2009 5.70373 15.2651C5.79996 15.2651 5.89618 15.2651 5.99241 15.2651C6.08863 15.2651 6.21694 15.233 6.31316 15.2009C6.34524 15.2009 6.34524 15.2009 6.37732 15.2009C6.37732 15.2009 6.40939 15.2009 6.40939 15.233V15.2651L6.37732 15.2972C6.12071 15.4255 5.86411 15.5217 5.60751 15.5538C5.54336 15.5538 5.44713 15.5858 5.38298 15.5858C5.28675 15.5858 5.2226 15.5538 5.12638 15.5538Z" fill="#3D007C"/>
<path d="M0 13.3718C0 13.019 1.95724e-06 12.6982 0.0320773 12.4095C0.0641526 12.2492 0.0641516 12.0888 0.0962269 11.9284C0.128302 11.8001 0.160379 11.7039 0.192454 11.5756C0.256604 11.319 0.352829 11.0624 0.41698 10.8378C0.41698 10.8058 0.449057 10.7737 0.449057 10.7416C0.481133 10.6775 0.513204 10.6133 0.545279 10.5171C0.641505 10.3246 0.737734 10.1322 0.83396 9.93973C0.866035 9.90766 0.866034 9.87558 0.89811 9.84351C0.930185 9.77936 0.962258 9.71521 1.02641 9.65105C1.09056 9.5869 1.12264 9.49068 1.18679 9.42653C1.25094 9.3303 1.31509 9.26615 1.37924 9.16992C1.44339 9.10577 1.50754 9.00955 1.60377 8.9454C1.79622 8.72087 2.02074 8.52842 2.24527 8.33597C2.50187 8.14352 2.75848 7.98314 3.01508 7.82276C3.07923 7.79069 3.11131 7.75861 3.17546 7.72654C3.39999 7.59823 3.62451 7.50201 3.88111 7.40578C4.16979 7.30956 4.45847 7.21333 4.74715 7.1171C4.8113 7.08503 4.90752 7.08503 4.97167 7.05295C5.03582 7.05295 5.09998 7.02088 5.16413 7.02088C5.38865 6.9888 5.61318 6.95673 5.83771 6.92465C5.86978 6.92465 5.93393 6.92465 5.96601 6.89258C5.99809 6.89258 6.03016 6.89258 6.03016 6.95673C6.03016 6.9888 6.03016 6.9888 6.03016 7.02088C6.03016 7.05296 5.99809 7.08503 5.96601 7.08503H5.93393C5.77356 7.08503 5.61318 7.1171 5.4528 7.1171C5.38865 7.1171 5.3245 7.14918 5.26035 7.14918C5.13205 7.18126 5.03583 7.18126 4.90752 7.21333C4.5547 7.27748 4.20187 7.40578 3.84904 7.53408C3.56036 7.63031 3.30376 7.79069 3.04715 7.91899C2.79055 8.07936 2.53395 8.23974 2.30942 8.40012C2.18112 8.49634 2.05282 8.62465 1.92452 8.75295C1.66792 8.97747 1.44339 9.23408 1.25094 9.52275C1.09056 9.7152 0.962261 9.93973 0.83396 10.1643C0.801885 10.2605 0.737731 10.3246 0.705656 10.4209C0.577355 10.6775 0.481129 10.9661 0.384903 11.2227C0.352827 11.351 0.320756 11.4793 0.288681 11.6076C0.288681 11.6718 0.256603 11.7039 0.256603 11.768C0.224528 11.9284 0.192454 12.1209 0.192454 12.2812C0.192454 12.3775 0.160377 12.4737 0.160377 12.602C0.160377 12.7624 0.160379 12.8907 0.128304 13.051C0.128304 13.0831 0.128304 13.0831 0.128304 13.1152C0.128304 13.2756 0.128301 13.468 0.160377 13.6284C0.160377 13.6605 0.160377 13.7246 0.160377 13.7567C0.192452 13.9171 0.192451 14.0774 0.224526 14.2699C0.224526 14.3341 0.256603 14.3982 0.256603 14.4624C0.288679 14.5586 0.320753 14.6869 0.320753 14.7831C0.352828 14.9114 0.384905 15.0397 0.41698 15.168C0.513206 15.4567 0.609432 15.7454 0.737733 16.002C0.769808 16.0661 0.801885 16.1303 0.83396 16.2265C0.962261 16.5152 1.15471 16.7718 1.34716 17.0284C1.34716 17.0605 1.37924 17.0605 1.37924 17.0925C1.47547 17.2208 1.60377 17.3491 1.69999 17.4454C1.76414 17.5095 1.8283 17.5737 1.89245 17.6378C2.18112 17.9265 2.50188 18.1831 2.85471 18.3755C3.17546 18.568 3.49621 18.6963 3.81697 18.8567C4.04149 18.9529 4.26602 19.017 4.49054 19.0491C4.65092 19.0812 4.8113 19.1133 4.97167 19.1133C5.09997 19.1133 5.22828 19.1453 5.38865 19.1453C5.64526 19.1774 5.90186 19.1774 6.15846 19.1774C6.35091 19.1774 6.57544 19.1453 6.76789 19.1453C6.86412 19.1453 6.96035 19.1133 7.0245 19.1133C7.12072 19.1133 7.24902 19.0812 7.34525 19.0812C7.44148 19.0812 7.5377 19.0491 7.63393 19.017C7.69808 19.017 7.76223 18.985 7.85845 18.9529C7.89053 18.9529 7.89053 18.9529 7.9226 18.9529C7.95468 18.9529 7.98676 19.017 7.98676 19.0491L7.95468 19.0812C7.89053 19.1133 7.82638 19.1133 7.7943 19.1453C7.56977 19.2095 7.31317 19.2736 7.08865 19.3057C6.89619 19.3378 6.70374 19.3378 6.51129 19.3378C6.35091 19.3378 6.15846 19.3699 5.99808 19.3699C5.90186 19.3699 5.80563 19.3699 5.70941 19.3699C5.61318 19.3699 5.51696 19.3699 5.42073 19.3699C5.35658 19.3699 5.29243 19.3699 5.22828 19.3378C5.09998 19.3057 4.9396 19.3057 4.8113 19.2736C4.683 19.2416 4.58677 19.2095 4.45847 19.2095C4.16979 19.1453 3.88111 19.0491 3.59243 18.9208C3.46413 18.8567 3.33583 18.7925 3.20753 18.7284C3.01508 18.6321 2.85471 18.5359 2.69433 18.4397C2.4698 18.3114 2.27735 18.151 2.0849 17.9906C2.02074 17.9586 1.98867 17.8944 1.92452 17.8623C1.89244 17.8303 1.86037 17.7982 1.82829 17.7661C1.63584 17.5737 1.44339 17.3812 1.28301 17.1888C1.12264 16.9642 0.962261 16.7718 0.83396 16.5152C0.673584 16.2265 0.545281 15.9699 0.41698 15.6812C0.352829 15.5529 0.320756 15.4246 0.288681 15.2963C0.192455 15.0718 0.160378 14.8152 0.0962269 14.5907C0.0641516 14.4303 0.0320753 14.2378 0 14.0774C0 13.7888 0.0320753 13.5322 0 13.3718Z" fill="#3D007C"/>
<path d="M4.71478 11.8655C4.65063 11.8655 4.58648 11.8655 4.55441 11.8334C4.36196 11.7693 4.26573 11.641 4.20158 11.4806C4.13743 11.3202 4.13743 11.1599 4.16951 10.9995C4.20158 10.9032 4.23366 10.807 4.29781 10.6787C4.36196 10.5504 4.49026 10.4221 4.61856 10.3259C4.71479 10.2617 4.84309 10.1976 4.97139 10.1334C5.06761 10.1014 5.16384 10.1014 5.22799 10.1976C5.29214 10.2938 5.3563 10.39 5.42045 10.4863C5.45252 10.5825 5.4846 10.6787 5.4846 10.807C5.4846 10.8712 5.4846 10.9353 5.4846 10.9995C5.4846 11.2882 5.42044 11.5127 5.19591 11.7051C5.09969 11.7693 5.00346 11.8334 4.87516 11.8334C4.81101 11.8655 4.74686 11.8655 4.71478 11.8655Z" fill="#3D007C"/>
</svg>
