<svg width="103" height="108" viewBox="0 0 103 108" fill="none" xmlns="http://www.w3.org/2000/svg">
<path d="M88.8664 0.506011C89.3801 0.933777 89.345 1.77272 89.2326 2.39261C89.0836 3.21569 88.401 3.51328 87.6941 3.78395L85.5147 10.0994C85.5656 12.5329 84.1484 14.9372 83.5558 17.2789C83.5167 17.4334 83.4802 17.5909 83.4603 17.7487C83.6845 18.1292 84.1484 18.0326 84.4932 18.1071C86.5365 18.5478 88.349 18.6901 88.5282 21.2217C88.6765 23.3174 88.5994 25.4802 88.6057 27.5567C88.6101 28.9779 88.5843 30.3999 88.6167 31.8207C88.6588 31.9594 88.7919 31.9999 88.9106 32.0431C89.5268 32.2654 90.2707 32.3329 90.9064 32.4797C93.7105 33.1258 96.53 33.6874 99.3445 34.287C100.654 34.5662 102.389 34.4703 102.599 36.192L102.609 88.2235C102.56 88.5318 102.514 88.8995 102.396 89.1864C102.22 89.6138 100.536 91.1235 100.093 91.5266C97.0356 94.3041 93.8668 97.0042 90.7965 99.7555C88.439 101.868 85.8694 104.58 83.4043 106.462C82.4237 107.21 81.8274 107.396 80.5703 107.088L74.5547 105.069C73.6025 104.951 72.914 106.04 71.6912 105.87C69.3167 104.952 66.6004 104.377 64.2643 103.42C63.9571 103.294 63.4305 103.019 63.2583 102.731C62.9873 102.278 63.1278 101.456 62.6749 101.25C48.7128 96.5923 34.7462 91.954 20.797 87.2585C20.0587 87.0022 19.4587 87.7644 18.8215 87.8717C17.8218 88.0403 17.2605 87.7338 16.3836 87.4702C14.8628 87.0133 13.2248 86.5431 11.7412 85.9947C10.941 85.699 10.2304 85.5592 10.327 84.5359C10.3654 84.1295 10.6696 83.8519 10.1592 83.5967C7.30094 82.5509 4.24979 81.9254 1.40772 80.8501C0.222148 80.4017 0.204816 79.4868 0.0775924 78.3473C0.276356 61.8473 -0.178329 45.2913 0.0838619 28.8164C0.110413 27.1481 -0.228482 26.1864 1.40588 25.2737C2.72016 24.5398 4.28703 23.9067 5.66879 23.2713C9.23954 21.6296 12.8527 20.0734 16.4267 18.4405C16.509 18.3254 16.5086 18.1894 16.5204 18.0551C16.6694 16.3326 16.4983 14.4682 16.5145 12.7482C16.537 10.3815 16.1848 9.08236 18.5549 7.92776C19.4635 7.48524 20.7472 7.01433 21.713 6.66363C22.4546 6.39444 23.0236 6.14331 23.8437 6.22997C42.6805 9.93715 61.5118 13.6838 80.3778 17.2745C80.6607 17.2689 80.7289 16.9905 80.8248 16.76C81.7234 14.5998 82.3806 12.194 83.193 9.98878L83.8154 9.43195C84.4995 7.71424 85.174 5.92352 85.7618 4.15493C85.8562 3.87098 86.1361 3.15816 86.1589 2.92252C86.1711 2.79788 85.9229 2.27755 85.8945 2.03896C85.6806 0.227963 87.5197 -0.615032 88.8664 0.506011ZM87.343 1.06948C87.0742 0.983929 87.0159 1.20703 86.8319 1.33315C86.8046 1.72035 87.1008 1.8107 87.4127 1.64144L87.343 1.06948ZM79.8313 24.0601C79.2092 23.7577 78.5399 23.7389 77.8964 23.5988C59.9723 19.7006 41.8969 16.3455 23.9912 12.4211C23.1128 12.2287 22.136 12.1125 21.2797 11.8894C20.4942 11.6847 19.9178 11.5088 19.8356 10.6065C19.7722 9.91208 19.8194 9.20774 20.2029 8.61919C20.0897 8.45988 20.0978 8.54765 20.0078 8.56793C19.8186 8.61108 19.1648 8.8965 19.1114 9.07388C19.0627 9.23613 19.0575 11.285 19.0988 11.49C19.1106 11.5479 19.1195 11.6032 19.1633 11.6475C19.4864 11.9288 19.7847 11.8769 20.1579 11.9786C22.9775 12.7475 25.8461 13.2332 28.6977 13.8313C43.1559 16.8648 57.6398 19.7835 72.1087 22.8258C74.4536 23.3189 76.772 23.8668 79.11 24.3005C79.3844 24.3514 79.7841 24.6752 79.8306 24.0597L79.8313 24.0601ZM79.8866 19.8064C79.6631 19.733 79.2461 19.7544 78.9898 19.7042C67.113 17.3762 55.2215 14.9512 43.3657 12.5782C37.0163 11.3075 30.7621 10.0094 24.3747 8.79398C23.5933 8.64537 22.9435 8.27661 22.1264 8.69847C21.5456 8.99828 21.6518 9.29476 22.2381 9.45665C23.6962 9.85897 25.4939 10.0662 27.0007 10.3693C44.1187 13.8151 61.3433 17.3139 78.489 20.7209C78.8548 20.7936 79.2413 20.7762 79.5879 20.9492C79.8088 20.9543 80.1344 20.2183 80.0762 20.024C80.0721 20.0099 79.9003 19.8108 79.8866 19.8064ZM82.1125 17.4942L84.0898 11.6947C84.2399 11.3901 83.835 10.8694 83.5857 11.1924L81.4848 17.3541C81.6545 17.5082 81.8942 17.5204 82.1121 17.4942H82.1125ZM19.0704 13.0333C18.6176 12.8058 18.4103 13.0613 18.2824 13.4777L18.3229 23.4708L18.4819 23.7699L19.1759 23.6578C19.2511 23.605 19.3112 23.1208 19.3212 22.9925C19.5605 19.9856 19.1342 16.6667 19.3212 13.6266C19.3263 13.4371 19.2456 13.1211 19.0704 13.0329V13.0333ZM24.4042 14.3295V17.8305C25.3516 18.2071 26.3871 18.3232 27.3816 18.5382C43.3391 21.9902 59.2616 25.544 75.231 28.9171C75.4297 28.9591 76.6647 29.1911 76.7285 29.1365L77.9786 25.6421C77.9705 25.5337 77.2824 25.3696 77.1216 25.3316C76.5493 25.1951 75.8966 25.1236 75.3184 24.9975C60.6556 21.8025 45.8766 18.8948 31.216 15.6626L24.4046 14.3295H24.4042ZM24.4042 20.0051V21.4057C24.8025 21.502 25.2889 21.5481 25.6709 21.6498C25.9608 21.7273 26.536 21.8733 26.7566 22.0381C27.2677 22.4206 26.7145 22.7952 26.3841 22.9833C25.6374 23.4081 24.7055 23.6858 23.8717 24.0649C23.1128 24.41 22.237 24.9134 21.4718 25.2324C20.3604 25.6959 20.2106 25.5219 19.1261 25.3198C18.2551 25.1575 17.3815 25.0137 16.5134 24.8367C15.8389 24.6287 16.4437 23.8716 16.4437 23.7271V20.9632L16.2051 20.9824L5.0194 25.9024L5.09278 26.0119C29.8298 31.5814 54.4946 37.2913 79.1992 42.9331C80.7458 43.2863 82.6217 43.8948 84.147 44.1028C84.7735 44.1883 85.1238 43.9814 85.6438 43.6912C87.2125 42.8162 88.8052 41.6656 90.3577 40.7242C92.0315 39.7086 93.702 38.8206 95.3301 37.7674C95.8969 37.4009 96.7137 36.9193 97.244 36.5129C97.2875 36.4793 97.5814 36.1979 97.5205 36.1471L88.6758 34.3036L88.769 35.317C89.2687 35.5935 90.9473 35.7049 91.0922 36.3466C91.1771 36.7212 91.0978 36.8053 90.8371 37.0181C90.0564 37.6542 88.4895 38.4463 87.5591 38.9733C87.0713 39.2498 85.6519 40.1552 85.216 40.2418C84.2889 40.4258 82.6446 39.911 81.691 39.7042C81.2621 39.6109 80.7318 39.716 80.5039 39.2697C80.2082 38.6901 80.6643 38.5411 80.7174 38.1015L80.6835 32.5302L80.595 32.4712L24.4039 20.0048L24.4042 20.0051ZM83.863 21.2069C83.7406 21.1151 83.0606 20.8942 82.8684 20.8378C82.5561 20.7456 81.7031 20.5247 81.4144 20.521C81.3311 20.5199 81.1518 20.5531 81.1017 20.6129C81.0785 20.6405 80.8616 21.2501 80.859 21.2951C80.8517 21.4286 81.1168 21.4787 81.2345 21.5134C82.0384 21.7505 82.6535 21.7605 83.0049 22.6916C83.3523 23.6113 83.148 27.22 83.1513 28.448C83.1524 28.8595 83.1502 29.2825 83.1513 29.6948C83.1579 32.5221 83.1447 35.3498 83.1428 38.1771L83.1944 38.2922C83.3316 38.4253 84.1643 38.5053 84.1816 38.3895L84.2572 23.2824C84.0891 22.7535 84.3457 21.5691 83.8634 21.2073L83.863 21.2069ZM80.716 26.0488L80.2473 25.8954C80.2045 25.9017 80.1189 26.078 80.0987 26.1292C79.8848 26.6713 79.6296 27.5128 79.4703 28.0837C79.4039 28.3223 79.0484 29.6174 79.1686 29.7335L80.7156 30.0293V26.0492L80.716 26.0488ZM21.293 31.6666C21.231 31.6312 20.7247 31.598 20.5558 31.5556C15.3817 30.2572 10.174 29.0978 4.9899 27.8842C4.26749 27.7149 3.18959 27.307 2.4764 27.296C1.99406 27.2886 1.91773 27.6659 1.84618 28.0722L1.84692 45.8422L1.92547 46.1911L21.3818 51.4043C21.3475 49.2596 21.4088 47.1104 21.4279 44.9672C21.4331 44.3801 21.4338 43.7665 21.3756 43.1857L21.4589 42.6731C21.1761 39.3284 21.8476 35.5611 21.533 32.2739C21.5194 32.1316 21.4014 31.7285 21.293 31.6669V31.6666ZM38.3885 35.5806C38.2642 35.525 37.8505 35.5242 37.6421 35.4755C33.0569 34.4065 28.4949 33.2058 23.857 32.2341C23.4923 32.1578 22.8665 31.7599 22.7787 32.4203C22.7835 38.4481 22.7573 44.4605 22.712 50.4853C22.7083 50.957 22.5224 51.2325 22.8123 51.7454C22.9487 51.9869 23.2961 51.9397 23.5321 52.0179C25.7661 52.7591 28.0915 53.3322 30.3605 53.9606C37.8497 56.0349 45.3858 58.0963 52.8791 60.1141C55.0924 60.7101 57.3739 61.4244 59.5876 61.9546C59.9844 62.0498 60.0825 62.0542 60.3045 61.6891C60.3281 55.6679 60.2569 49.6449 60.296 43.6237C60.299 43.1716 60.3956 42.7173 60.3768 42.2232C60.3617 41.8319 60.3093 41.0605 60.0482 40.7828C59.7871 40.5051 59.4268 40.5044 59.0909 40.4133C54.1491 39.0695 48.951 38.1019 43.9199 36.9366C42.4644 36.5995 39.5578 36.1017 38.3889 35.5799L38.3885 35.5806ZM83.2722 46.0491C83.1797 45.9971 82.7807 45.8662 82.6468 45.8249C79.4788 44.8506 75.7745 44.2661 72.504 43.5113C69.1751 42.7428 65.7338 41.7844 62.3799 41.1051C61.9451 41.017 61.5439 40.8363 61.4772 41.4156C61.2998 42.9592 61.5004 45.1029 61.4816 46.7269C61.423 51.7926 61.3507 56.8882 61.423 61.9631C61.5613 62.5096 62.6436 62.5517 63.13 62.6885C67.186 63.8316 71.2741 64.8583 75.3493 65.9473C77.6364 66.5583 80.095 67.4208 82.382 67.9069C83.11 68.0614 83.6145 68.3103 83.6642 67.3615C83.7114 66.4584 83.6399 65.4863 83.6613 64.5577C83.7992 58.586 83.7664 52.5419 83.6794 46.5602C83.651 46.4747 83.3383 46.086 83.2719 46.0487L83.2722 46.0491ZM29.6923 55.2549C29.5087 55.058 28.4477 54.8567 28.1494 54.7715C19.7991 52.3893 11.416 50.1048 2.9794 48.0264C2.43547 47.8926 2.08146 47.5419 1.84545 48.341C1.85651 56.7433 1.81152 65.1581 1.92658 73.5497C1.94612 74.9875 1.8023 76.6525 1.92104 78.0516C1.9782 78.7264 2.14747 78.7725 2.73454 79.007C3.29137 79.2294 3.96621 79.4318 4.5448 79.6291C8.67164 81.0352 12.8752 82.2437 17.0197 83.5911C37.9913 90.4081 58.6949 97.5098 79.776 104.11C80.6813 104.393 81.7386 104.9 82.7468 105.058C83.3925 105.16 83.5787 104.836 83.5942 104.218L83.5588 70.1209C83.5322 70.0335 83.5127 69.9336 83.443 69.8683C83.2627 69.7002 81.9709 69.3454 81.6338 69.2451C73.4428 66.805 65.1291 64.7845 56.8949 62.5849C55.0419 62.09 53.1166 61.4166 51.2488 61.0077C50.9803 60.949 50.6864 60.9487 50.4187 60.8764C49.9732 61.3067 50.2007 61.8495 50.2052 62.3463C50.2616 69.0025 50.1705 75.6756 50.1248 82.3211C50.1038 85.3903 50.2848 88.6487 50.1307 91.6881C50.1163 91.9761 50.0728 92.6421 49.9953 92.8799C49.9806 92.9257 49.8165 93.1893 49.7803 93.1982C49.5384 93.2579 47.7938 92.6793 47.4133 92.5565C43.3613 91.2485 39.448 89.8402 35.3993 88.5023C33.8969 88.0056 31.9034 87.5779 30.5069 86.9827C30.421 86.9462 30.0445 86.6615 30.0268 86.6168C29.7908 86.025 30.0577 85.0312 29.8549 84.391C29.7863 76.9305 29.7222 69.4468 29.7808 61.9775C29.793 60.4405 29.8487 58.8828 29.8549 57.3344C29.8568 56.8307 30.0544 55.6429 29.6923 55.2549ZM48.7839 60.4132L31.1851 55.6786C31.226 55.9925 31.0431 56.4593 31.3849 56.6216C37.1078 58.2202 42.8686 59.7483 48.6184 61.2123C48.9838 61.2931 48.9204 60.5445 48.7839 60.4132ZM47.23 62.0439C42.4054 60.862 37.6547 59.2793 32.8238 58.1309C32.614 58.0811 32.0605 57.9432 31.8842 57.9569C31.3547 57.9978 31.6029 59.6683 31.5623 60.0562L31.9075 60.3151C37.2722 61.6891 42.5891 63.2328 47.8971 64.8033C48.1305 64.8528 48.1902 64.8483 48.2913 64.6407C48.4996 64.2126 48.5332 62.8316 48.1913 62.4798C47.9509 62.2323 47.4118 62.271 47.2296 62.0439H47.23ZM48.0398 66.3938C43.216 65.0095 38.3749 63.693 33.5297 62.3636C33.1992 62.2729 32.1055 61.8307 31.8451 61.9015C31.5977 61.969 31.57 62.2072 31.5501 62.4197C31.4697 63.2859 31.6257 64.2668 31.6309 65.1537C31.6442 67.4031 31.4262 69.7352 31.5505 72.0079C31.566 72.2944 31.5892 72.9641 31.8348 73.0659C32.3585 73.2827 33.162 73.4837 33.7325 73.6588C38.3376 75.0731 43.0098 76.2715 47.5928 77.7824C47.7809 77.8174 48.0778 77.9317 48.2164 77.7396C48.3425 77.5652 48.4203 76.7004 48.4355 76.4301C48.6099 73.331 48.3466 70.0096 48.3746 66.9031L48.0398 66.3931V66.3938ZM48.4325 80.9235C48.483 80.7587 48.4325 80.0617 48.4325 79.8179C48.4325 79.475 47.7783 79.1383 47.4863 79.069C42.231 77.4815 36.9238 76.0525 31.7035 74.3588L31.5534 74.4377V75.7645C31.5534 75.8014 31.6379 75.9197 31.6807 75.9522C35.5029 77.1923 39.365 78.3363 43.2119 79.5108C44.8684 80.0163 46.4865 80.6458 48.1806 81.0349C48.2673 81.0574 48.4086 81.0017 48.4325 80.9235ZM31.5534 77.57V82.4716C31.5534 82.5243 31.9783 82.8864 32.1014 82.8816C37.4481 84.5643 42.8041 86.2164 48.1028 88.0421L48.2736 88.0241C48.3377 87.8695 48.4152 87.7316 48.4344 87.559C48.5384 86.6194 48.5369 84.2203 48.4369 83.2773C48.3717 82.6615 47.8576 82.5416 47.359 82.3654C43.6415 81.0496 39.625 79.857 35.8407 78.6999C34.734 78.3613 33.3604 77.8738 32.2648 77.6323C32.0207 77.5784 31.8053 77.5467 31.5534 77.57ZM31.5534 84.3512V85.5673C31.5534 85.6075 31.6648 86.0401 31.6951 86.0891C31.792 86.2448 32.0627 86.299 32.2198 86.3749C37.3482 87.9839 42.4058 89.8609 47.5656 91.3588C47.6257 91.3761 47.6183 91.4783 47.6773 91.4952C47.771 91.5214 48.3127 91.6025 48.3525 91.5686L48.3967 89.8041C48.25 89.7856 48.0623 89.5389 48.0077 89.5153C47.3823 89.2465 46.2782 88.9589 45.5698 88.7243C42.6816 87.7681 39.7621 86.9185 36.8275 85.9686C35.4048 85.508 33.8066 84.797 32.3957 84.4304C32.0616 84.3434 31.8647 84.3969 31.5531 84.3515L31.5534 84.3512Z" fill="#3D007C"/>
<path d="M63.611 32.4614C63.642 32.63 63.7523 32.7155 63.5753 32.8284C63.3669 32.7081 63.3632 32.4268 63.611 32.4614Z" fill="#3D007C"/>
<path d="M74.3065 38.2106H74.0859V37.99C74.2253 37.9664 74.3304 38.076 74.3065 38.2106Z" fill="#3D007C"/>
<path d="M58.9749 34.3047H58.8281V34.5252H58.9749V34.3047Z" fill="#3D007C"/>
<path d="M42.7596 30.6196H42.5391V30.7664H42.7596V30.6196Z" fill="#3D007C"/>
<path d="M76.2943 40.0531L76 40.0174L76.1829 39.9067L76.2943 40.0531Z" fill="#3D007C"/>
<path d="M36.3421 28.335H36.1953V28.5555H36.3421V28.335Z" fill="#3D007C"/>
<path d="M68.1592 65.9528C76.7802 69.202 81.4867 77.6652 80.8653 86.823C80.5268 91.8132 76.6142 97.612 71.4615 98.4992C63.6219 99.8489 55.921 93.2097 52.8002 86.5063C50.7657 82.1364 49.9423 75.9681 51.7451 71.4861C54.7591 63.994 61.2301 63.3413 68.1596 65.9528H68.1592ZM68.528 67.7941C64.7279 65.7017 59.4165 64.8392 55.8292 67.7933C49.9703 72.6182 51.1972 81.9107 54.6292 87.756C58.1362 93.7285 66.572 99.7324 73.3282 95.4849C80.3686 91.059 79.1812 80.9073 75.4814 74.6011C74.0616 72.1813 70.967 69.1371 68.528 67.7941ZM72.813 69.6261C72.7507 69.5896 72.2945 69.5527 72.3871 69.719L72.9756 69.9775C73.0125 69.9418 72.8355 69.639 72.813 69.6257V69.6261ZM74.3301 71.5684C74.4031 71.6123 74.4606 71.6783 74.5587 71.6735C74.8283 71.6145 74.4175 71.0617 74.2752 71.0883L74.0993 71.2671C74.0911 71.3235 74.2822 71.5392 74.3301 71.5684ZM75.9139 72.8642C75.8575 72.8137 75.6193 72.8723 75.5197 72.8524C75.3088 72.8782 75.9449 73.5534 76.0087 73.6161C76.0839 73.6899 76.105 73.7773 76.2551 73.7367C76.5416 73.6596 76.0777 73.2204 75.9969 73.1087C75.9405 73.0305 75.9335 72.8819 75.9136 72.8642H75.9139ZM77.4292 75.3305C77.3186 75.0864 77.2326 74.8448 77.0309 74.6527C76.3498 74.7969 77.0354 75.5846 77.2142 75.9471C77.4019 75.7317 77.6379 75.766 77.5431 75.4116C77.5284 75.3571 77.4391 75.3523 77.4292 75.3305ZM78.5716 78.0059C78.6494 77.8978 78.2305 76.8089 78.173 76.8336C77.4439 77.0987 77.8861 77.6629 78.1483 78.146L78.5716 78.0063V78.0059ZM79.0189 79.1911L78.5882 79.4632C78.6642 79.6314 78.5993 80.3534 78.7608 80.3675L79.2332 80.1001L79.0189 79.1911ZM79.5887 82.1213C79.6414 81.9952 79.6396 81.5785 79.4969 81.5505C78.8438 81.7448 79.0713 81.8477 79.1679 82.3614C79.2549 82.444 79.5765 82.1501 79.5887 82.1209V82.1213ZM79.8306 83.5407L79.3283 83.7752L79.3895 84.2041C79.7797 84.1005 79.8881 83.9533 79.8302 83.541L79.8306 83.5407ZM79.8302 85.9734C79.5972 85.9701 79.3612 86.0615 79.2413 86.2669C79.4744 86.2703 79.7104 86.1788 79.8302 85.9734Z" fill="#3D007C"/>
<path d="M21.1283 54.0894C24.3598 56.3624 27.1064 60.8378 28.064 64.6574C29.6896 71.1396 27.904 79.5068 20.9498 81.8935C12.3956 84.8296 4.51698 75.2649 3.10572 67.7248C2.07798 62.2346 3.07253 55.7861 8.11944 52.6265C11.9793 50.2103 17.6074 51.6128 21.1283 54.0894ZM17.0041 53.6439C12.7172 51.7156 7.78608 52.7334 5.39354 56.9178C1.92457 62.9854 4.05455 71.491 8.51734 76.4645C13.0052 81.4657 20.3757 83.1705 24.4011 76.7053C28.8141 69.618 24.7695 57.5285 17.4164 53.8412C17.2906 53.7781 17.1118 53.6922 17.0041 53.6439ZM20.5685 55.1625C20.5929 55.0297 20.469 54.9209 20.3488 54.8678C20.3244 55.0006 20.4483 55.1094 20.5685 55.1625ZM22.4437 56.3816C22.4006 56.337 22.4271 56.2474 22.3759 56.2684L22.1144 56.4532L22.3397 56.857C22.6063 56.6947 22.6373 56.5819 22.4437 56.3816ZM23.6968 58.0779C23.5684 57.9632 23.5721 57.8275 23.297 57.8899C23.3118 58.2018 23.5791 58.3611 23.7362 58.5938L23.9597 58.5529C23.9848 58.332 23.8406 58.2066 23.6968 58.0779ZM24.6283 60.3879L25.2131 60.2087C25.1202 60.0221 24.7592 59.2963 24.5929 59.2937C24.4996 59.2923 24.2425 59.3321 24.2507 59.4744C24.2658 59.7385 24.5752 60.1161 24.6286 60.3879H24.6283ZM25.8677 61.4359L25.2861 61.5753L25.6582 62.6052C25.8976 62.6399 25.9521 62.36 26.2446 62.3851L25.8677 61.4363V61.4359ZM26.9766 64.4424L26.7243 63.567L26.1063 63.869L26.3242 64.6644L26.9766 64.4424ZM27.3501 65.7025L26.679 65.9724L26.6874 66.5875C26.9286 66.599 27.1325 66.4574 27.335 66.3512L27.3501 65.7025ZM27.571 67.6927L26.9124 67.9177L26.9087 68.5766L27.6278 68.1909L27.5714 67.6923L27.571 67.6927ZM27.571 69.9779L27.0636 70.0591L27.0562 70.641C27.3652 70.4861 27.6282 70.3865 27.571 69.9779ZM27.3501 72.2628C27.2295 72.2219 26.6572 72.4369 26.835 72.6305C26.8704 72.6692 27.4766 72.3727 27.3501 72.2628Z" fill="#3D007C"/>
<path d="M82.2418 94.0286L82.2532 103.431C82.0873 103.532 81.2886 103.285 81.0522 103.216C79.7235 102.828 78.3698 102.27 77.0444 101.843C75.4816 101.338 73.7875 100.915 72.2535 100.369C71.8526 100.226 71.7424 100.063 71.8058 99.6161C72.0506 99.601 72.1882 99.4358 72.4235 99.3801C72.8726 99.2743 75.1121 100.034 75.7165 100.223C77.4139 100.753 79.2489 101.567 80.932 102.009C81.0492 102.04 81.1772 102.065 81.2967 102.032C81.4397 101.942 81.3649 100.714 81.3763 100.454C81.3841 100.279 81.4508 100.118 81.456 99.9436C81.5124 98.1082 81.2635 95.9012 81.4213 94.1437C81.4751 93.544 81.8959 93.8217 82.2414 94.029L82.2418 94.0286Z" fill="#3D007C"/>
<path d="M51.8952 92.1267C51.9774 92.5836 52.3019 92.7935 52.6924 92.9509C54.4057 93.6413 56.2355 94.1118 57.9234 94.8102C58.0369 94.8571 58.1889 94.8401 58.3283 94.9072C58.759 95.1152 59.1193 96.206 58.3629 96.0556C57.9186 95.967 57.2423 95.647 56.7721 95.5046C55.3239 95.0665 53.7718 94.6716 52.351 94.1767C51.463 93.8673 51.158 93.809 51.0813 92.7931C50.9758 91.401 51.1451 89.8758 51.1576 88.4778C51.4523 88.3956 51.6123 88.5792 51.8358 88.6478C52.226 88.768 53.0044 88.9203 53.2666 89.2083C53.3322 89.2806 53.6107 89.7467 53.5955 89.833C53.5413 90.1398 52.0991 89.5793 51.8948 89.5104C51.9933 90.2877 51.7624 91.3918 51.8948 92.1271L51.8952 92.1267Z" fill="#3D007C"/>
<path d="M27.9398 84.7932V81.9555C27.3336 81.589 26.5356 81.4654 25.8533 81.2412C25.7597 81.2176 25.7361 81.159 25.7243 81.0698C25.683 80.757 26.0595 80.4786 26.3549 80.5155C26.679 80.5557 27.5592 80.7928 27.8838 80.906C28.0029 80.9477 28.677 81.2634 28.7131 81.3297L28.7548 85.7921L28.4823 86.1845C26.4024 85.4923 24.3421 84.7434 22.2785 84.0055C21.7652 83.8218 21.2091 83.6891 20.6973 83.5228C20.3377 83.4059 20.3916 82.9482 20.6158 82.7384L21.4739 82.7462C23.4243 83.1949 25.5915 84.3451 27.4932 84.7603C27.6426 84.7932 27.7886 84.8035 27.9402 84.7928L27.9398 84.7932Z" fill="#3D007C"/>
<path d="M82.0921 70.6706C82.296 70.8391 82.3218 71.0043 82.3421 71.2654C82.4358 72.4771 82.2462 73.8482 82.2628 75.1035C82.2665 75.3948 82.3731 75.6452 82.3395 75.9855C82.2731 76.6552 81.8019 76.9163 81.4571 76.278C81.3844 74.6728 81.6256 73.0273 81.2701 71.4531L75.6531 69.7793C74.594 68.2876 75.7844 68.9344 76.5765 69.1446C78.421 69.6343 80.2726 70.1004 82.0924 70.6709L82.0921 70.6706Z" fill="#3D007C"/>
<path d="M3.67334 71.9127C3.90455 72.11 3.67924 76.3504 3.77733 76.9688C3.93 77.0131 4.06165 77.1064 4.2062 77.1676C4.662 77.3597 5.26234 77.4866 5.77161 77.6647C6.35278 77.8679 7.50554 78.1854 7.98235 78.4601C8.4363 78.7215 8.62436 79.3134 7.95026 79.4008C7.06228 79.0675 6.15401 78.771 5.25202 78.4793C4.73538 78.3122 3.99822 78.1968 3.5262 77.9936C3.17883 77.8443 2.92106 77.2277 2.8805 76.8704C2.76618 75.8681 2.8167 73.932 2.8816 72.8907C2.89156 72.728 2.96789 71.9935 3.021 71.9252C3.14121 71.7718 3.55755 71.8142 3.67297 71.9131L3.67334 71.9127Z" fill="#3D007C"/>
<path d="M7.96455 51.1801C7.79603 51.2063 7.57514 51.3073 7.41141 51.2959C6.73067 51.2494 5.47429 50.7206 4.73861 50.541C4.56639 50.499 3.93618 50.329 3.83403 50.4031C3.76027 50.4625 3.77134 50.5451 3.76138 50.6266C3.62604 51.7355 3.86353 53.0977 3.8226 54.2261C3.33804 55.0643 2.9962 53.9657 2.95158 53.4336C2.87709 52.5449 2.88446 51.0053 2.95158 50.1114C2.97149 49.8485 3.04819 49.5955 3.1024 49.3403C3.38082 49.4395 3.66735 49.552 3.95314 49.6309C5.05906 49.937 6.41464 50.1273 7.46267 50.5436C7.80193 50.6782 7.97156 50.7671 7.96455 51.1794V51.1801Z" fill="#3D007C"/>
<path d="M57.0833 64.3364C56.6905 64.7121 56.203 64.3909 55.7727 64.2895C54.409 63.9687 52.9468 63.6457 51.6197 63.2094C51.2122 63.0756 50.5956 62.8938 50.9813 62.383C51.2446 62.3797 51.5149 62.4177 51.772 62.4675C53.1862 62.7407 55.072 63.2341 56.463 63.673C56.6824 63.7419 57.3584 63.885 57.2654 64.1841C57.2212 64.2552 57.1408 64.281 57.0829 64.3364H57.0833Z" fill="#3D007C"/>
<path d="M29.0091 56.2356C29.0666 56.3013 29.1581 56.2555 29.1219 56.4454C29.0581 56.7795 28.8251 56.9116 28.4998 56.8551C27.7051 56.7168 26.4436 56.1696 25.6161 55.9052C25.1559 55.7581 23.6756 55.4627 23.4123 55.161C23.3072 55.0408 23.2663 54.7333 23.3832 54.6584C23.4695 54.6035 24.4648 54.831 24.6547 54.8763C25.8222 55.157 27.3474 55.5457 28.4736 55.9222C28.7229 56.0055 28.8347 56.0365 29.0091 56.2356Z" fill="#3D007C"/>
<path d="M82.1167 91.2793L81.8906 91.1587L82.0809 90.7642C82.189 90.9201 82.169 91.1108 82.1167 91.2797V91.2793Z" fill="#3D007C"/>
<path d="M28.0874 78.8311C28.1342 78.8865 28.0786 79.3552 27.875 79.2644V78.7485L28.0874 78.8311Z" fill="#3D007C"/>
<path d="M78.5784 98.4269L78.3594 98.5021V98.1341C78.5427 98.1153 78.6098 98.2517 78.5784 98.4269Z" fill="#3D007C"/>
<path d="M52.4791 66.2971L52.2578 66.2979L52.2586 66.5191L52.4798 66.5183L52.4791 66.2971Z" fill="#3D007C"/>
<path d="M24.5032 43.0512C24.2846 42.855 24.2071 42.5139 24.1828 42.2299C24.0622 40.8404 24.2038 39.1589 24.1883 37.7281C24.1784 36.8121 24.0305 35.8558 24.1087 34.9273C24.2138 33.6787 25.3086 34.2635 26.0863 34.4298C32.6979 35.8451 39.2464 37.4832 45.8377 39.0014C49.397 39.8212 52.9637 40.5602 56.5134 41.4456C57.4567 41.6808 58.5147 41.6307 58.8979 42.7466L58.8853 51.1301C58.7448 51.7588 57.7975 51.5431 57.3376 51.456C56.1635 51.234 54.9753 50.8291 53.8296 50.5419C45.9295 48.5616 38.049 46.5268 30.1601 44.5815C28.4708 44.1648 26.5525 43.8724 24.9078 43.2743C24.8325 43.247 24.5567 43.0987 24.5036 43.0512H24.5032ZM29.7865 37.3995L26.666 36.7328C26.5145 36.7696 26.5233 37.5072 26.5381 37.6657C26.5757 38.074 26.9312 37.9497 27.2114 38.0216C27.9091 38.2001 28.6179 38.4416 29.3108 38.5751C29.4613 38.6042 29.6324 38.5677 29.7865 38.5788V37.3995ZM32.0717 37.8416C31.4854 37.8671 30.9529 37.596 30.3765 37.547V38.8001L32.0717 39.2422V37.8416ZM32.8823 38.1367V39.3528C33.2772 39.5634 33.7234 39.6467 34.1645 39.6921L35.131 39.9772C35.1978 39.9229 35.2354 39.8894 35.2431 39.7972C35.252 39.6928 35.0993 38.6791 35.0447 38.6459L32.8819 38.1367H32.8823ZM26.5436 38.7632V40.4953L31.7483 41.7365C32.3232 41.9958 31.7882 42.9549 32.3745 43.1017C32.5943 43.1566 32.8063 43.1581 33.0302 43.1485V42.043C33.6423 42.3483 34.3238 42.4025 34.9758 42.5666C38.5815 43.4734 42.2164 44.3337 45.8436 45.187C46.4307 45.3607 46.1744 45.9917 46.2234 46.4656H47.1822L47.1815 45.5802C47.3135 45.5809 47.4488 45.5687 47.5809 45.5868C49.268 45.8158 51.4212 46.5732 53.1226 46.9737C54.0213 47.185 54.9359 47.3476 55.8331 47.5652L55.9525 47.3864C55.8493 47.0537 56.1613 45.8372 55.8777 45.6937C55.6715 45.5894 55.3275 45.6255 55.1118 45.5743C49.383 44.2179 43.7037 42.6979 37.9978 41.3132C34.4274 40.4466 30.7807 39.4598 27.1912 38.779C27.0827 38.7584 26.634 38.4741 26.544 38.7628L26.5436 38.7632ZM37.8208 40.6428V39.3528L35.7572 38.8738V40.0531C35.7572 40.0657 35.9478 40.1925 35.96 40.1958C36.5139 40.3526 37.3056 40.309 37.8211 40.6428H37.8208ZM38.5579 39.6106V40.6793C38.5579 40.8791 39.0919 40.8614 39.2258 40.8961C39.4231 40.947 39.5931 41.0318 39.7789 41.0809C39.9662 41.1303 40.1495 40.9739 40.2163 41.2339L40.3874 41.1093L40.2546 39.9406L38.5576 39.6106H38.5579ZM41.2112 41.4533L42.9378 41.8129C43.1391 41.7645 43.0558 40.8482 43.0178 40.6417C42.9167 40.4403 42.4263 40.4654 42.2135 40.4138C41.9023 40.3382 41.5682 40.1811 41.2112 40.2003V41.4533ZM43.7911 40.8268V41.9323C43.7911 42.1337 44.2406 42.0942 44.3387 42.1219C44.727 42.2299 45.2167 42.3996 45.6047 42.4774C45.8775 42.5319 46.1648 42.5688 46.4443 42.5581L46.3591 41.3165C45.5327 41.221 44.727 40.9924 43.9345 40.7545L43.7911 40.8268ZM47.2552 41.6746V42.7433C47.5565 42.9431 48.0473 43.0397 48.418 43.1282C48.5573 43.1614 48.7089 43.1223 48.8254 43.1507C48.8579 43.1585 49.1407 43.5309 49.3823 43.1754L49.3565 42.1897L49.244 42.0813L47.2552 41.6746ZM50.1298 42.338V43.5173L51.8991 43.8861L51.9633 42.8218C51.6579 42.5209 51.2242 42.5548 50.8378 42.4777C50.6228 42.435 50.4248 42.2454 50.1301 42.338H50.1298ZM56.0263 43.6648L52.7096 42.9276V44.0701L56.0263 44.8441V43.6648Z" fill="#3D007C"/>
<path d="M59.4697 53.4155C59.598 53.5785 59.6371 53.9886 59.4173 54.0981C59.2156 54.1984 56.489 53.3256 56.0313 53.2068C50.6094 51.8003 45.1273 50.5277 39.6943 49.1268C34.5615 47.8037 29.4069 46.4647 24.242 45.3414C24.0517 45.3001 23.8205 45.1574 23.6066 45.1294C23.4695 44.6596 23.8485 44.345 24.2907 44.4022C24.7996 44.4682 25.5817 44.6692 26.1223 44.7876C33.9903 46.5145 41.7738 48.6821 49.5864 50.6586C52.3964 51.3696 56.2068 51.9228 58.7941 53.0228C58.9427 53.0859 59.386 53.3086 59.4697 53.4148V53.4155Z" fill="#3D007C"/>
<path d="M57.5216 54.9872C58.7189 56.0316 58.8723 57.9395 57.8874 59.1959C57.672 59.4703 57.5824 59.45 57.3257 59.5857C56.9813 59.7679 56.1859 60.0397 55.7581 60.0972C54.4033 60.2793 52.7855 59.0278 52.5602 57.7013C52.2482 55.8671 53.0208 54.8711 54.6426 54.2644C55.3053 54.0166 55.5774 54.0185 56.2597 54.2228C56.8287 54.3931 57.0997 54.6192 57.5216 54.9872ZM56.2412 58.5532C56.7409 58.3942 56.7284 57.4026 56.6863 56.9656C56.5665 55.7166 54.6234 54.6262 54.0294 56.0832C54.4723 56.1418 54.9173 56.0953 55.3337 56.2926C55.5262 56.3841 56.2416 57.1489 56.2416 57.337V58.5532H56.2412Z" fill="#3D007C"/>
<path d="M28.416 47.6124C29.1038 48.2437 29.2749 49.0343 29.1912 49.9658C29.1414 50.5197 28.8051 51.3885 28.3264 51.6972C28.0344 51.8856 26.5818 52.3005 26.2031 52.358C25.2904 52.4966 24.2457 51.5629 23.8836 50.7804C23.4786 49.9053 23.3909 48.4801 24.0783 47.7274C24.3475 47.4328 25.4571 46.6595 25.8369 46.6119C26.6806 46.5061 27.8046 47.0511 28.4164 47.6127L28.416 47.6124ZM26.9406 48.4225C26.6622 48.1246 26.109 47.7931 25.6957 47.8683C25.4372 47.9155 24.5001 48.7098 24.6967 48.8979C24.9485 48.9528 25.2207 48.8333 25.4504 48.8437C26.0275 48.8698 26.7666 49.3979 26.8905 49.9839C26.9093 50.0724 26.8532 50.6926 27.0538 50.5197C27.354 49.7759 27.5465 49.0708 26.9402 48.4225H26.9406Z" fill="#3D007C"/>
<path d="M35.2197 49.73C35.4199 49.9812 35.2005 51.4802 35.1688 51.884C35.0895 52.9007 35.4284 54.0302 33.8954 53.7455C33.2929 53.6338 32.302 53.2263 31.6596 53.0331C31.2112 52.8985 30.7403 52.9394 30.4283 52.4925L30.3007 49.3008C30.2362 48.6647 31.0006 48.5264 31.4999 48.4692C32.3997 48.8723 33.7151 48.925 34.5791 49.3023C34.6835 49.348 35.1651 49.6618 35.2193 49.7297L35.2197 49.73ZM33.6908 50.3016C33.3685 50.3027 31.7153 49.6987 31.5564 49.8558C31.5785 50.0704 31.4789 50.4565 31.6603 50.6L33.6941 51.1096L33.6908 50.3016Z" fill="#3D007C"/>
<path d="M50.9753 53.8048C50.9996 53.8409 51.0785 53.8107 51.0944 53.9434C51.1644 54.5287 51.1331 55.767 51.0885 56.3784C51.0206 57.3084 50.9321 57.8214 49.8734 57.8221C49.3966 57.8221 47.3182 57.2431 46.8138 57.0436C46.5195 56.9275 46.2661 56.6303 46.2212 56.3091C46.1566 55.8463 46.1655 53.8195 46.2614 53.3936C46.372 52.9002 46.9063 52.6789 47.3739 52.6638C47.7965 52.6498 50.1337 53.2277 50.5914 53.4135C50.7463 53.4762 50.8842 53.6694 50.976 53.8048H50.9753ZM49.4607 55.3034L49.6068 54.695C49.5983 54.6397 49.4486 54.4955 49.3896 54.4671C49.1923 54.3727 48.0377 54.0659 47.7762 54.0172C47.652 53.994 47.531 53.9704 47.4038 53.984L47.4112 54.7879C47.7268 54.8193 49.328 55.5096 49.4607 55.3038V55.3034Z" fill="#3D007C"/>
<path d="M40.0624 54.6784C39.9212 54.824 39.5945 54.9594 39.3861 54.997C38.8544 55.0936 38.3514 54.7838 37.848 54.654C37.4269 54.5456 36.7812 54.4645 36.4039 54.3291C36.2111 54.2602 35.7925 53.9187 35.7564 53.7236C35.6369 53.0764 35.5908 51.1227 35.6778 50.4785C35.7317 50.0795 36.4604 49.9493 36.8155 49.8638C37.6747 50.1348 38.8676 50.1968 39.676 50.5412C39.9171 50.6437 40.2188 50.8687 40.2549 51.1415C40.384 52.1243 40.1469 53.3792 40.2564 54.3937L40.2099 54.5718C40.1672 54.6157 40.1045 54.6352 40.0624 54.6784ZM38.7541 51.7209C38.6884 51.6309 37.0024 51.1154 36.9346 51.1821C36.9715 51.4683 36.8004 52.0019 37.1356 52.1232L38.8503 52.5093C38.8455 52.2947 38.8813 51.8953 38.7541 51.7209Z" fill="#3D007C"/>
<path d="M45.1626 52.0222C45.3625 52.1616 45.3938 52.3844 45.4119 52.6174C45.4698 53.3645 45.4948 54.9203 45.4108 55.6431C45.3713 55.9809 45.0822 56.1874 44.7662 56.2516C44.1643 56.374 42.2508 55.8426 41.6177 55.6003C41.4661 55.5424 41.073 55.3828 40.9841 55.2758C40.7241 54.9635 40.8661 53.678 40.8425 53.2063C40.8027 52.4179 40.2879 51.7032 41.2666 51.3514C41.7696 51.1708 41.9123 51.2213 42.3677 51.3127C43.0894 51.4576 43.9896 51.5886 44.6869 51.794C44.7809 51.8216 45.0807 51.9651 45.1626 52.0222ZM41.7976 52.5101L41.9444 53.3579C42.3626 53.4862 42.8173 53.6621 43.2424 53.7551C43.3933 53.7882 43.9844 53.945 44.0486 53.8399C44.0972 53.6171 44.1643 53.1053 43.9339 52.9902C43.6311 52.939 41.9411 52.4054 41.798 52.5105L41.7976 52.5101Z" fill="#3D007C"/>
<path d="M76.1198 47.3073C78.4943 49.3211 80.2231 53.1832 80.0571 56.3044C79.8845 59.5521 78.3597 62.4742 75.0954 63.4304C72.6321 64.1517 69.0521 62.7581 66.9951 61.3498C62.1783 58.052 60.2353 49.7891 65.7406 46.2467C69.159 44.047 73.0794 44.7285 76.1198 47.3073ZM72.024 46.6855C72.2659 46.715 72.4945 46.4897 72.4654 46.2441L72.024 46.6855ZM72.6579 48.1164C70.054 46.3957 65.897 46.2666 64.2906 49.3241C62.4693 52.7904 63.9196 56.9136 66.605 59.4407C72.1825 64.6897 78.3877 59.7896 76.1147 52.8037C75.5873 51.1834 74.1023 49.0711 72.6579 48.1164ZM73.6923 47.1745C73.651 47.2048 72.9724 47.5584 73.3884 47.6443C73.4636 47.6598 74.0522 47.0945 74.0868 47.0171C74.1045 46.9776 74.1008 46.8921 74.0511 46.9079C73.8847 46.9514 73.7874 47.1048 73.6923 47.1742V47.1745ZM75.4693 48.1053L75.2934 48.0315C75.1223 48.0175 74.4106 48.5799 74.5301 48.7495C74.6986 48.9892 75.3259 48.401 75.5615 48.4545L75.4697 48.1053H75.4693ZM76.8146 49.9292C76.9149 49.8259 76.5553 49.4432 76.4834 49.3414L75.5641 50.114C75.9635 50.7169 76.3861 50.0007 76.8146 49.9292ZM77.6594 51.0702C77.6096 51.0126 77.6521 50.9385 77.5532 50.9621C77.5602 51.02 77.5551 51.0731 77.4979 51.1056C77.218 51.2626 76.8297 51.4382 76.5273 51.5577L76.5948 51.9932L77.8169 51.4806C77.877 51.2925 77.7601 51.1867 77.6594 51.0702ZM78.3538 52.8133C78.1584 52.6466 77.3928 53.3001 77.1181 53.3288L77.1841 53.7625C77.3906 53.5501 78.3763 53.3746 78.4198 53.1275C78.4268 53.088 78.366 52.824 78.3538 52.8133ZM78.6573 54.6468C78.571 54.5594 77.6082 55.027 77.4035 55.0513L77.3312 55.4573L78.6488 55.0071L78.6569 54.6468H78.6573ZM78.5835 56.6374C78.1067 56.7764 77.0757 56.5555 77.1841 57.3001C77.343 57.3015 78.8354 56.8738 78.5835 56.6374ZM78.2148 58.4805C78.0005 58.5114 77.6495 58.5037 77.4573 58.5568C77.4179 58.5679 77.2656 58.8319 76.9617 58.701L76.9625 58.9215L78.2148 58.4805Z" fill="#3D007C"/>
<path d="M82.2685 66.072C82.146 66.0705 82.0715 66.1963 81.9524 66.2003C81.688 66.2092 80.6614 65.9263 80.3229 65.8434C79.4574 65.6313 78.5827 65.3466 77.7282 65.1213C77.1142 64.9594 76.2757 64.8673 75.7074 64.636C75.5931 64.5896 75.2642 64.4026 75.2656 64.2673C75.7502 63.9564 76.0979 63.7805 76.6994 63.8653L81.1153 65.0325L81.226 64.9193L81.2492 48.1899L81.1463 48.0634C80.2742 47.8119 79.3655 47.653 78.4945 47.4019C78.1088 47.2905 77.0246 47.0183 76.81 46.7281C76.7304 46.6204 76.6304 46.2048 76.7872 46.168C77.736 46.1853 78.6395 46.5592 79.5503 46.7879C80.1801 46.9461 80.9114 47.0342 81.5357 47.2348C81.788 47.3159 82.0328 47.4568 82.2673 47.5719V66.0724L82.2685 66.072Z" fill="#3D007C"/>
<path d="M67.5162 44.3244C66.9723 44.6297 66.7034 44.6684 66.0909 44.5416C65.0927 44.0887 63.4133 44.0113 62.4929 43.5149C62.4184 43.4748 62.314 43.3 62.213 43.2424C62.1525 43.0112 62.2569 42.9522 62.3793 42.8018C64.0517 43.0765 65.717 43.5739 67.3698 43.9995L67.5158 44.3248L67.5162 44.3244Z" fill="#3D007C"/>
<path d="M66.4738 61.6637C66.6136 61.9086 66.403 62.0288 66.163 62.02C65.716 62.0034 63.9548 61.5114 63.4507 61.3488C63.3792 61.3259 63.027 61.1851 62.9127 61.136C62.6711 61.0328 62.455 60.8827 62.2305 60.751C62.1449 60.2676 62.5439 60.2986 62.9068 60.3321C63.4197 60.3797 65.1817 60.8263 65.6946 61.0077C66.0822 61.1449 66.0715 61.2444 66.2806 61.5306C66.3355 61.6062 66.4598 61.639 66.4738 61.6634V61.6637Z" fill="#3D007C"/>
<path d="M14.947 31.8994C17.4532 33.0573 19.4651 35.9687 19.9069 38.6935C20.3524 41.4408 20.3111 44.6188 18.156 46.612C17.3193 47.3856 16.4593 48.0273 15.2915 48.0597C13.9742 48.0962 10.6122 47.33 9.39567 46.7727C7.54743 45.9261 5.95621 43.8348 5.19324 41.9832C2.44004 35.3016 8.03088 28.704 14.947 31.8998V31.8994ZM14.1328 34.3343C12.0795 32.6089 9.66266 32.1041 7.46261 33.9095C2.53924 37.9493 7.84539 48.4071 14.0126 45.7638C15.9881 44.9171 16.8576 43.0099 17.0272 40.9655C17.2043 38.8303 15.7694 35.7091 14.1328 34.3343ZM14.7509 33.0521C14.5882 33.0212 14.437 33.1233 14.3828 33.2719C14.4802 33.3468 14.7188 33.1506 14.7509 33.0521ZM15.8564 33.7886C15.5869 33.8443 15.1547 33.9409 15.1938 34.3037C15.2539 34.3649 15.6617 34.0788 15.7052 34.0434C15.7911 33.9737 15.8822 33.9198 15.8564 33.7886ZM16.2285 35.7021C16.3849 35.8138 16.8934 35.3116 17.0036 35.188L17.0306 35.0885C16.6397 34.4638 16.5051 35.25 16.078 35.3377L16.2289 35.7017L16.2285 35.7021ZM17.913 36.2998C17.8407 36.2501 16.858 36.8434 16.8366 36.9935C17.0125 37.5736 17.6814 36.7667 18.0649 36.7331L17.9126 36.2998H17.913ZM18.51 37.9899L17.4937 38.3683L17.479 38.6526C17.8614 38.595 18.6576 38.522 18.51 37.9899ZM18.7295 39.6866C18.6745 39.6486 17.451 39.8765 17.6999 40.2744C18.0484 40.1992 18.9677 40.17 18.7295 39.6866ZM18.6572 41.2332C18.3209 41.2863 17.9864 41.3036 17.677 41.4537L17.6254 41.6746L18.6579 41.5271L18.6572 41.2328V41.2332ZM18.2888 42.855L17.4476 42.9195L17.4056 43.2964C17.6623 43.0803 18.0885 43.1389 18.2888 42.855Z" fill="#3D007C"/>
<path d="M3.93141 44.7562L7.00359 45.6265C7.33252 45.7947 7.50142 46.0034 7.45385 46.3925C7.32367 46.3987 7.19534 46.4006 7.06591 46.3748C5.79847 46.124 4.49783 45.586 3.20716 45.3721L2.96119 45.1589L2.95493 29.5473C2.93169 29.1793 3.1559 29.0126 3.5077 28.9912L8.0612 30.0488L8.26882 30.2889C8.26734 30.408 8.01658 30.5751 7.9148 30.6009C7.49589 30.7067 5.81469 30.2941 5.28736 30.169C4.89389 30.0757 4.43441 29.8707 4.03504 29.8132L3.92699 29.9305L3.93141 44.7562Z" fill="#3D007C"/>
<path d="M20.3313 49.1487C20.6355 49.2995 20.8133 49.9718 20.0297 49.8523C19.246 49.7328 17.7466 49.294 17.0076 49.0417C16.8008 48.9713 16.6271 48.8186 16.3848 48.8172C16.3671 48.7954 16.3619 48.6073 16.373 48.5705C16.3855 48.528 17.1717 48.3053 17.2189 48.3086C17.4634 48.3252 18.1195 48.5885 18.4219 48.659C18.8275 48.7537 19.3109 48.8009 19.7077 48.9208C19.8604 48.9669 20.2004 49.0838 20.3309 49.1483L20.3313 49.1487Z" fill="#3D007C"/>
<path d="M17.2566 32.2397C17.362 32.2297 17.4642 32.2437 17.5686 32.2592C18.2283 32.3577 19.5201 32.6932 20.1639 32.9071C20.7266 33.0937 20.7952 33.5783 20.1676 33.648C19.6749 33.423 17.5719 33.1096 17.3248 32.7246C17.2245 32.5682 17.2529 32.4115 17.2562 32.24L17.2566 32.2397Z" fill="#3D007C"/>
<path d="M46.1235 67.4256C46.2681 67.5078 46.4949 67.832 46.4469 68.0223C46.3323 70.0715 46.5878 72.2623 46.4469 74.2938C46.4381 74.4207 46.441 74.6217 46.316 74.6954C45.7935 74.899 44.5021 74.3248 43.9239 74.157C40.8185 73.2565 37.4192 72.4342 34.3231 71.3751C33.868 71.2194 33.4049 71.1202 33.267 70.5885C33.3403 68.6993 33.1113 66.6508 33.247 64.7797C33.2592 64.6116 33.309 64.0643 33.4443 64.019C33.9868 63.8372 36.043 64.6695 36.7112 64.8597C39.3991 65.6257 42.0926 66.3805 44.793 67.0967C45.1961 67.2036 45.7367 67.2062 46.1235 67.426V67.4256ZM35.7439 65.862L34.43 65.4822C34.4164 65.6437 34.364 65.7946 34.3526 65.9587C34.2962 66.7766 34.2818 68.1764 34.357 68.9821C34.4691 70.1832 35.0684 69.4678 35.7605 69.1953L35.7439 65.8624V65.862ZM44.7278 71.919C44.3063 71.7774 43.6171 71.7508 43.1675 71.596C41.4742 71.2969 39.2715 70.1578 37.6265 69.9881C36.8539 69.9085 36.8882 70.0663 36.3369 70.3783C36.1957 70.4579 36.0537 70.3576 35.9777 70.6055L44.4966 73.0695L44.8118 73.0633C44.9251 72.8239 44.9889 72.0064 44.7278 71.9186V71.919Z" fill="#3D007C"/>
<path d="M47.1553 83.5608C47.4891 83.872 47.3054 86.4467 47.1583 86.988C47.0038 87.0625 46.8651 87.04 46.7058 87.0024C45.9443 86.8217 44.2299 86.2822 43.523 85.978C43.3829 85.9175 43.2785 85.7969 43.1391 85.7361C43.0894 85.6498 43.1133 84.386 43.1303 84.1747C43.1443 84.0018 43.2391 83.8222 43.2627 83.6437C43.3132 83.258 43.2026 82.7694 43.5444 82.5083L47.1553 83.5608Z" fill="#3D007C"/>
<path d="M36.2582 80.098C36.2711 80.1046 36.2663 80.2005 36.329 80.219C36.6945 80.3281 37.1864 80.3893 37.5773 80.5059C37.8115 80.5756 38.6865 80.8164 38.7843 80.9399C39.0509 81.2769 38.8164 82.4544 38.7817 82.9146C38.7459 83.3878 38.9336 83.9427 38.5099 84.2695C37.5146 84.0497 36.4422 83.7827 35.5546 83.3033C35.4097 82.8571 35.6442 82.3987 35.6796 82.0233C35.7243 81.5454 35.624 80.4487 36.0126 80.1452C36.0941 80.0818 36.1542 80.0423 36.2586 80.0976L36.2582 80.098Z" fill="#3D007C"/>
<path d="M42.5121 82.161C42.8687 82.4405 42.5667 83.1349 42.5332 83.504C42.4981 83.8912 42.5291 84.6409 42.4561 84.9621C42.4506 84.9861 42.1898 85.1815 42.2286 85.3737C42.0619 85.4928 40.4375 84.8998 40.1296 84.801C39.6889 84.6594 39.4105 84.7899 39.3603 84.1697C39.329 83.7836 39.3883 82.869 39.4363 82.4708C39.4518 82.3432 39.6214 81.5466 39.6557 81.5116C39.8423 81.3198 40.4625 81.4946 40.7192 81.5577C40.9759 81.6208 42.386 82.0622 42.5121 82.161Z" fill="#3D007C"/>
<path d="M35.069 79.7286C35.3614 80.0889 34.7991 82.13 34.8673 82.6905C34.8341 82.8535 34.5914 83.123 34.41 83.0862L32.1377 82.2553C31.8998 82.0274 32.0337 81.1325 32.0743 80.7821C32.0923 80.6254 32.1875 80.4868 32.2107 80.3289C32.2778 79.8661 32.2033 79.3399 32.4471 78.907C32.5806 78.824 33.8008 79.3089 34.0468 79.3886C34.3355 79.4822 34.8632 79.4749 35.0694 79.7289L35.069 79.7286Z" fill="#3D007C"/>
<path d="M66.4616 68.0161C66.6917 68.1076 67.0313 68.2802 67.2887 68.4022C75.0648 72.0932 80.2781 83.086 76.0952 91.0466C73.408 96.1606 67.649 96.8896 62.8285 94.385C56.0812 90.8791 51.565 82.6347 52.9088 75.0835C54.1578 68.0655 59.8854 65.4049 66.4616 68.0161ZM61.1613 69.4724C61.0544 69.4864 60.8822 69.5933 60.8818 69.7191C61.1971 70.4363 61.7919 69.3898 61.1613 69.4724ZM63.9809 69.6107L63.6487 69.4613L63.4123 69.6446L63.5141 69.8345C63.6981 69.8386 63.9968 69.8828 63.9809 69.611V69.6107ZM62.1397 69.6107C62.1168 69.7375 62.1684 69.8835 62.2853 69.9422C62.6843 70.1428 62.7437 69.3064 62.1397 69.6107ZM65.2343 69.611L64.7929 69.5362L64.8025 69.8201C64.9508 69.9064 65.0795 69.8802 65.2336 69.8282L65.2343 69.6114V69.611ZM60.2225 69.6103H59.9278V69.8304L60.1388 69.8205L60.2221 69.6103H60.2225ZM66.3392 70.1992C66.3698 69.9123 66.1607 69.7932 65.8981 69.8312L66.3392 70.1992ZM59.6996 70.0594C59.1767 69.8614 59.2323 70.4245 59.7062 70.4197L59.6996 70.0594ZM60.5765 70.0712C60.318 69.9809 60.2686 70.1985 60.2958 70.4197H60.7387C60.8092 70.3449 60.6078 70.0819 60.5765 70.0712ZM61.9914 70.6414C62.0006 70.4717 62.0235 70.1638 61.8454 70.0842C61.8048 70.0661 61.4925 70.1904 61.4811 70.2058C61.3446 70.391 61.7344 70.7841 61.9914 70.6414ZM63.1571 70.0679C63.0114 69.9986 62.8661 70.1251 62.8105 70.2505C62.8079 70.6185 63.2021 70.6771 63.3916 70.3821L63.1571 70.0679ZM64.6451 70.4197L64.5754 70.0842L64.2084 70.0576L64.2095 70.4131L64.6447 70.4197H64.6451ZM65.8133 70.2095L65.4552 70.1988L65.5246 70.6089L65.8974 70.6406L65.8133 70.2092V70.2095ZM67.0531 70.4437C67.0251 70.405 66.8329 70.2803 66.7817 70.3043L66.5943 70.561C66.6382 71.1145 67.3846 70.9024 67.0531 70.4437ZM58.6748 71.0101L59.0432 70.8976L58.8599 70.5731L58.6714 70.6911L58.6748 71.0105V71.0101ZM63.9588 70.6653C63.6586 70.4035 63.4639 70.839 63.6295 70.9921L64.1284 71.0831C64.1852 71.0297 64.0259 70.724 63.9588 70.6653ZM60.0646 70.6521H59.791C59.4816 71.3752 60.3965 71.4807 60.0646 70.6521ZM62.3701 70.6521C62.2816 70.7052 62.1743 70.9607 62.3613 71.0455C62.5173 71.1163 62.6895 71.1241 62.8023 70.9718C62.8256 70.8431 62.511 70.5676 62.3705 70.6524L62.3701 70.6521ZM65.1145 70.7586C65.0695 70.7173 65.106 70.6178 65.0503 70.6417C64.3954 71.0426 65.3789 71.5102 65.3129 70.9725C65.2959 70.8338 65.1923 70.8305 65.1141 70.759L65.1145 70.7586ZM61.4014 71.2306C61.4357 70.9928 61.3959 70.7634 61.1267 70.7269C60.6417 70.6605 61.0024 71.3641 61.4014 71.2306ZM68.3194 70.8722L67.9621 70.7889C67.9112 71.0171 68.1103 71.1451 68.3297 71.1569L68.3194 70.8726V70.8722ZM66.5202 71.2671C66.5202 71.1266 66.4063 71.0131 66.2661 71.0131C66.126 71.0131 66.0121 71.127 66.0121 71.2671C66.0121 71.4073 66.126 71.5212 66.2661 71.5212C66.4063 71.5212 66.5202 71.4073 66.5202 71.2671ZM58.4531 71.6728C58.4764 71.4025 58.4804 71.0846 58.1312 71.0806C57.7318 71.3741 58.0914 71.6566 58.4531 71.6728ZM67.3868 71.4401C67.4023 71.4663 67.6671 71.5662 67.7036 71.6717C68.2379 71.0706 67.1567 71.0496 67.3868 71.4401ZM59.4669 71.3236C59.4315 71.2852 59.3533 71.2675 59.3002 71.252L59.1217 71.4253L59.3765 71.7465L59.5565 71.6304C59.5757 71.557 59.5214 71.3826 59.4669 71.3239V71.3236ZM60.7207 71.3225C60.2545 71.1746 60.2427 71.8483 60.641 71.8823C60.9434 71.9081 60.9338 71.3899 60.7207 71.3225ZM62.1245 71.4633C62.1153 71.4482 61.845 71.3022 61.8107 71.3003C61.7919 71.2992 61.5954 71.5205 61.6227 71.6282C61.6319 71.6647 61.8424 71.8468 61.9461 71.8207C61.9973 71.8078 62.1928 71.5729 62.1245 71.4633ZM69.1252 71.6119C69.1163 71.5968 68.8434 71.4464 68.811 71.4515L68.7037 71.8151C68.8984 71.9202 69.2745 71.8675 69.1252 71.6116V71.6119ZM67.2983 71.8214L66.7101 71.8575C66.8912 72.116 67.1626 72.1124 67.2983 71.8214ZM57.8447 71.9132C57.671 71.7403 57.3634 71.7842 57.4527 72.1205C57.5533 72.501 58.2131 72.2801 57.8447 71.9132ZM58.8964 71.8491L58.5922 72.1518L58.8949 72.456L59.1991 72.1533L58.8964 71.8491ZM60.1391 71.9047C59.9584 71.8026 59.7021 72.0902 59.7903 72.2842C59.8795 72.5029 60.0897 72.5003 60.2958 72.4837C60.3607 72.4188 60.2084 71.9438 60.1391 71.9044V71.9047ZM68.4035 72.0419C68.2213 72.0113 68.0266 72.074 67.9625 72.261L68.2936 72.4819L68.4035 72.0419ZM69.7307 72.4837C69.7657 72.2234 69.6507 72.0087 69.3626 72.0419L69.3685 72.4774L69.7307 72.4833V72.4837ZM56.8324 72.4107C56.7583 72.4808 56.9869 72.9635 57.1625 72.9258C57.4884 72.7149 57.0072 72.2447 56.8324 72.4107ZM58.1968 72.4841C57.9594 72.6209 58.1157 73.1065 58.3337 73.0686L58.493 72.9251C58.6242 72.7857 58.3226 72.459 58.1968 72.4841ZM69.0241 72.6769C68.9603 72.6017 68.9257 72.4619 68.8106 72.4841L68.7077 72.8049L68.995 72.966L69.1403 72.8138C69.1834 72.6751 69.061 72.7197 69.0241 72.6766V72.6769ZM70.9096 72.7783C70.9834 72.6939 70.7013 72.4103 70.6157 72.4844C70.5405 72.5493 70.844 72.8536 70.9096 72.7783ZM59.6959 72.7153C59.3968 72.5431 59.1696 72.6626 59.2777 73.021C59.4042 73.4406 59.8353 73.0734 59.6959 72.7153ZM70.3734 72.9362C70.3734 72.8189 70.2787 72.7241 70.1614 72.7241C70.0441 72.7241 69.9493 72.8189 69.9493 72.9362C69.9493 73.0534 70.0441 73.1482 70.1614 73.1482C70.2787 73.1482 70.3734 73.0534 70.3734 72.9362ZM56.6746 73.0881L56.3899 73.0737C56.3659 73.2906 56.3855 73.4598 56.5739 73.5882L56.8317 73.3311L56.6746 73.0881ZM71.6339 73.1604C71.628 73.1508 71.4735 73.1032 71.4266 73.0737C71.417 73.2198 71.4071 73.3529 71.5376 73.4414H71.6468C71.6364 73.3558 71.6763 73.2271 71.6339 73.1604ZM57.678 73.1644L57.5025 73.5406L57.8244 73.7364C57.9638 73.6468 57.9616 73.4816 57.9269 73.3429L57.678 73.1641V73.1644ZM69.3623 73.2212L69.6189 73.6626C69.9217 73.5207 69.4312 73.149 69.3623 73.2212ZM58.7865 73.295C58.594 73.4004 58.6349 73.9329 58.8573 73.8835L59.1114 73.5627L58.7865 73.2946V73.295ZM70.9671 73.5317C70.9406 73.4838 70.5862 73.3212 70.542 73.3691C70.3767 73.5476 70.9535 74.0694 70.9845 73.8448C70.9756 73.7464 71.0147 73.6173 70.9671 73.5321V73.5317ZM56.242 73.7375C56.0009 73.6888 56.0587 74.0502 55.9477 74.1785L56.231 74.0934L56.2424 73.7371L56.242 73.7375ZM57.2631 73.8946C57.1514 73.7106 56.762 73.753 56.8398 74.0539C56.9397 74.4407 57.3974 74.1158 57.2631 73.8946ZM58.1968 73.8846C57.9468 73.9355 58.1216 74.4389 58.4152 74.4005C58.6969 74.2685 58.3488 73.8537 58.1968 73.8846ZM70.3933 74.2523L70.0257 73.9584L70.1341 74.2608L70.3933 74.2523ZM71.6464 74.4735L71.5782 74.1372C70.9948 74.0041 71.1795 74.544 71.6464 74.4735ZM56.5997 74.3371L56.242 74.3264C56.1992 74.5978 56.287 74.7593 56.5024 74.9146C56.7022 74.9946 56.7115 74.4308 56.5997 74.3371ZM57.8447 74.5668C57.5618 74.2825 57.2222 74.6819 57.5253 74.9227C57.8288 75.1643 58.0851 74.8084 57.8447 74.5668ZM71.0567 74.9895C71.0881 74.783 71.0084 74.5444 70.7632 74.548L70.7204 74.9198L71.0571 74.9898L71.0567 74.9895ZM72.2361 74.9168C71.7828 74.8136 71.85 75.2428 72.2361 75.2107V74.9168ZM55.8058 75.0592L55.7814 75.5699L56.0886 75.5843L56.113 75.0735L55.8058 75.0592ZM57.2664 75.1451L56.9014 75.1679C56.7111 75.4316 56.9784 75.7425 57.2668 75.5721V75.1454L57.2664 75.1451ZM58.2319 75.2852C58.1268 75.2642 58.0641 75.3114 58.018 75.4073L58.0858 75.7266C58.2732 75.6698 58.2345 75.4463 58.2319 75.2848V75.2852ZM71.646 75.6532C71.6722 75.4117 71.6324 75.2413 71.3521 75.2852C71.3407 75.4873 71.4672 75.6031 71.646 75.6532ZM72.8995 75.5065C72.8677 75.4747 72.5115 75.4357 72.6059 75.6897C72.7114 75.9737 73.0208 75.6278 72.8995 75.5065ZM55.579 75.7277H55.3581V75.9482L55.5786 75.7277H55.579ZM56.3899 75.7273C56.3412 76.0843 56.4223 76.5928 56.7476 76.1168C56.7638 75.908 56.6373 75.6739 56.3899 75.7273ZM57.7104 75.8077C57.4741 75.7108 57.3564 76.2514 57.5412 76.3948L57.8638 76.3908C57.9066 76.1098 57.8602 76.0139 57.7104 75.8077ZM72.0672 75.8092L71.8795 75.9844L72.197 76.3159C72.5001 76.1256 72.4002 75.8048 72.0672 75.8092ZM73.4891 76.1699C73.4699 76.1418 73.1812 76.0474 73.1218 76.2067C73.0477 76.4055 73.2867 76.376 73.2701 76.5368C73.3302 76.5722 73.568 76.2853 73.4891 76.1699ZM55.6671 76.7455C55.8275 77.0184 56.3788 76.8421 56.054 76.4682C55.7811 76.1544 55.5576 76.5589 55.6671 76.7455ZM56.9058 76.5383C56.7808 77.2467 57.494 76.962 57.2421 76.6065L56.9058 76.5383ZM72.8847 76.9631C73.1152 76.8244 73.0071 76.4549 72.6583 76.5482C72.3094 76.6415 72.6163 77.1246 72.8847 76.9631ZM64.2025 78.7121C64.1413 79.1196 64.2472 79.6521 64.2025 80.0758C64.4149 80.1101 64.3246 80.0301 64.36 79.9051C64.6384 78.9183 64.964 77.6018 66.1603 77.427C67.8231 77.184 69.0322 78.3913 69.7093 79.7657C69.8269 80.0046 70.3941 81.5051 70.3941 81.6608V82.877C70.6976 82.5469 70.6496 81.7906 70.6183 81.3632C70.4575 79.1875 68.319 76.0954 65.828 76.8735C65.106 77.0992 64.3161 77.9591 64.2029 78.7125L64.2025 78.7121ZM74.0054 77.2006C73.9409 77.073 73.8885 76.8753 73.7111 76.9067C73.6562 77.0184 73.9202 77.271 74.0054 77.2006ZM55.4311 76.9797L55.2099 76.9804L55.2106 77.2017L55.4318 77.2009L55.4311 76.9797ZM56.6071 77.5675C56.9338 76.921 56.1874 76.9399 56.2391 77.3765C56.381 77.4661 56.4094 77.6254 56.6071 77.5675ZM57.6411 77.2017C57.2233 77.2397 57.3572 77.9049 57.7433 77.7943C57.9726 77.5837 57.6791 77.4237 57.6411 77.2017ZM73.2955 77.3189C73.2509 77.2784 73.2892 77.1788 73.2321 77.2013C72.791 77.4985 73.2704 78.1099 73.4947 77.531C73.4954 77.4019 73.3704 77.3868 73.2955 77.3189ZM56.0108 77.6534L55.5794 77.5704C55.5569 77.8264 55.6358 78.1313 55.95 78.0531L56.0108 77.6534ZM56.8328 77.7172L56.8354 78.1129L57.158 78.229L57.2735 78.0502L56.8328 77.7172ZM74.0559 78.4348C74.1046 78.3135 74.0976 78.1988 74.0467 78.0808L73.7111 78.0118C73.6927 78.2313 73.6787 78.5123 73.9302 78.6008C73.8955 78.489 74.0463 78.4581 74.0555 78.4348H74.0559ZM56.4485 78.2534C56.4231 78.2445 56.4028 78.2047 56.3552 78.2305L56.1771 78.3555L56.2435 78.8224C56.6351 78.912 56.7148 78.3459 56.4485 78.2534ZM57.716 79.0436C57.7455 78.801 57.6441 78.6059 57.4582 78.4558C57.0865 78.6782 57.3889 79.0182 57.716 79.0436ZM73.4895 78.8958L73.269 78.6753V78.8961H73.4895V78.8958ZM74.6684 79.4124C74.7149 79.2531 74.6492 78.7767 74.4118 78.8231C74.1492 78.8744 74.3465 79.5256 74.6684 79.4124ZM55.6166 78.8973C55.4282 78.9496 55.5764 79.5238 55.7623 79.4858C55.933 79.4511 55.964 78.8006 55.6166 78.8973ZM57.0415 79.6197C57.057 79.6101 57.2145 79.3553 57.1473 79.2892C57.0622 79.1296 56.9593 79.009 56.759 79.0444C56.5662 79.228 56.7933 79.7756 57.0415 79.6197ZM74.0721 79.4928L73.7104 79.4858C73.6226 80.0987 74.2495 80.1577 74.0721 79.4928ZM56.4541 79.6433C55.7294 79.7299 56.0746 80.5902 56.6145 80.0286L56.4541 79.6433ZM75.3318 80.0754C75.3665 79.8778 75.07 79.5374 74.9638 79.8184C74.9476 79.8612 75.0464 79.8391 75.1061 79.9147C75.1567 79.9788 75.0169 80.1363 75.3318 80.0754ZM57.7495 80.192C57.6426 80.0305 57.5098 79.8136 57.2742 79.8549C57.2488 80.1743 57.5231 80.5585 57.8631 80.5176C57.9372 80.2672 57.8026 80.2724 57.7495 80.192ZM74.7975 80.3163C74.4269 79.9346 74.2528 80.8185 74.8897 80.7389C74.8926 80.6127 74.8882 80.4096 74.7975 80.3163ZM55.617 80.2971C55.4352 80.3358 55.5465 80.9712 55.8364 80.8856C56.0986 80.8078 55.8047 80.2569 55.617 80.2971ZM57.1075 80.5419C56.891 80.4597 56.693 80.6164 56.6816 80.8451C56.8697 80.9649 57.0238 81.1592 57.2738 81.108C57.3096 80.945 57.2746 80.6054 57.1075 80.5419ZM74.078 80.8871L73.9316 80.9236L73.9324 81.3285L74.2274 81.2164L74.078 80.8871ZM75.3281 80.8915C74.8229 80.737 75.2721 81.6895 75.4793 81.476C75.5767 81.1596 75.3289 81.1356 75.3281 80.8915ZM56.5927 81.1261C56.4216 80.9527 56.1469 81.035 56.1207 81.2924L56.5005 81.7002C56.759 81.7017 56.717 81.2514 56.5927 81.1261ZM57.8421 81.3514C57.7495 81.275 57.6183 81.2422 57.4995 81.2577C57.4007 81.4941 57.3767 81.7526 57.6179 81.9104C57.782 81.9632 57.9372 81.8684 58.0036 81.719C58.0257 81.6228 57.9099 81.4071 57.8421 81.351V81.3514ZM74.7278 81.5697C74.6695 81.5501 74.6212 81.535 74.5593 81.5505C74.2053 81.6881 74.782 82.4178 74.8941 81.878C74.9144 81.7806 74.7577 81.5796 74.7278 81.5697ZM56.0945 82.1391C56.1664 82.0694 56.0086 81.8171 55.9094 81.7718H55.8002C55.7058 81.9738 55.9592 82.27 56.0942 82.1391H56.0945ZM75.774 81.8451C75.3186 81.767 75.6825 82.1645 75.774 82.0657V81.8451ZM57.1831 81.9381C56.9637 81.8193 56.8501 81.9676 56.8339 82.18C56.8379 82.3419 57.0297 82.4086 57.1654 82.4318L57.4206 82.2486C57.4379 82.2003 57.2001 81.9473 57.1831 81.9381ZM58.3384 82.2523C58.2946 82.2058 58.3211 82.1191 58.2699 82.1398C58.0578 82.3079 58.0007 82.4643 58.0921 82.7224L58.4535 82.7294C58.4683 82.4573 58.5022 82.426 58.3384 82.2526V82.2523ZM74.0777 82.1402L73.9313 82.1767C73.9254 82.3367 73.9088 82.8386 74.189 82.7283C74.4918 82.6092 74.0991 82.3102 74.0777 82.1398V82.1402ZM75.2684 82.8644C75.6088 83.0016 75.6125 82.2832 75.1113 82.361C75.0457 82.4787 75.177 82.8275 75.2684 82.8644ZM56.5927 82.5263C56.5197 82.4514 56.3471 82.4311 56.2424 82.4348C56.0945 82.5897 56.4338 83.2472 56.6849 83.0584C56.703 82.9282 56.6849 82.6203 56.5924 82.5263H56.5927ZM57.6393 82.7324C57.4294 82.5609 57.3535 83.2796 57.5401 83.3235C57.6927 83.3593 57.8369 83.315 57.8675 83.1318C57.8827 83.0403 57.6747 82.7612 57.6396 82.7324H57.6393ZM58.7474 83.3925L58.5273 82.9507L58.5394 83.3062L58.747 83.3929L58.7474 83.3925ZM74.7746 83.0635C74.7304 83.0171 74.7584 82.9308 74.706 82.9507C74.2447 83.2229 74.7934 83.8232 74.8915 83.3523C74.9384 83.127 74.8639 83.1572 74.7746 83.0635ZM75.8477 83.3921C75.8669 83.2546 75.8477 83.1369 75.7013 83.0978V83.3921H75.8477ZM57.272 83.8324C57.3454 83.7369 57.2004 83.2424 56.9434 83.3195C56.5957 83.4235 57.0695 84.0961 57.272 83.8324ZM58.2898 83.5625C58.0482 83.4522 57.8613 83.8188 58.0825 84.0212C58.486 84.3911 58.5833 83.6963 58.2898 83.5625ZM74.0434 83.6141C73.8498 83.7144 73.9014 84.1746 74.1149 84.1293L74.3022 83.8715L74.0434 83.6141ZM75.4616 83.7789C75.3908 83.689 75.212 83.7233 75.1183 83.7686L75.1113 84.2038C75.4554 84.2915 75.6884 84.0669 75.4616 83.7789ZM64.395 84.0127C63.9979 83.6845 63.8872 83.6786 63.4491 83.9855C62.8953 84.3734 62.1349 85.7002 62.4395 86.357C62.4863 86.458 63.1954 87.2309 63.3179 87.3368C63.9075 87.8453 64.9349 88.3922 65.7137 88.4788C67.3842 88.6647 67.7309 87.0595 67.9566 85.7566C67.1401 85.6438 66.4745 85.5409 65.7373 85.1541C65.0894 84.8141 64.8973 84.4272 64.3958 84.0127H64.395ZM56.7579 84.4239L56.6834 84.13H56.6115V84.4239H56.7583H56.7579ZM57.8414 84.5537C57.8863 84.4376 57.8904 84.328 57.7945 84.2358L57.3476 84.3159C57.3719 84.522 57.5154 84.6245 57.6809 84.7197C57.6964 84.636 57.8373 84.5648 57.8414 84.5541V84.5537ZM58.8953 84.3513L58.4609 84.4317C58.3956 84.7197 58.5435 84.8793 58.8274 84.7617L58.8953 84.3513ZM74.8893 84.4258C74.8366 84.3535 74.3719 84.272 74.4586 84.5965C74.5685 85.008 75.0217 84.6076 74.8893 84.4258ZM74.0648 84.8104C74.0006 84.7739 73.9268 84.7975 73.8586 84.793L73.8689 85.1139L73.9272 85.2031L74.2263 85.2348C74.2757 85.1887 74.1053 84.8336 74.0648 84.8104ZM57.0533 84.9398L57.0526 85.2356H57.2001L57.2008 84.9402H57.0533V84.9398ZM57.9383 85.6032C58.726 85.5877 58.0309 84.5725 57.8745 85.063L57.9383 85.6032ZM59.1184 85.015C59.0085 85.3429 58.885 85.58 59.3024 85.7356C59.6291 85.5339 59.5417 84.9678 59.1184 85.015ZM75.3263 85.0191L75.112 85.0143C74.9317 85.5166 75.5944 85.6287 75.3263 85.0191ZM73.4884 85.4557V85.8252H73.7111V85.4557H73.4884ZM74.5405 85.9528C74.8594 86.2939 75.0689 85.6567 74.6301 85.4572L74.4534 85.5763C74.425 85.6748 74.4693 85.8768 74.5405 85.9528ZM57.7156 86.1929C57.8484 85.9156 57.5729 85.5833 57.2742 85.6043L57.7156 86.1929ZM58.7286 85.8488C58.6401 85.8156 58.552 85.802 58.462 85.8374C58.441 86.0752 58.2153 86.1047 58.3056 86.4145C58.6593 86.4411 58.962 86.4846 58.8968 86.0247C58.8949 86.0126 58.74 85.8529 58.7286 85.8488ZM60.1812 86.1645C60.1222 86.0863 60.072 86.0004 60.0019 85.9307C59.6103 85.8739 59.5314 86.1538 59.4138 86.4521C59.5266 86.6383 59.6461 86.4872 59.8094 86.4942C59.905 86.4982 60.0056 86.572 60.0993 86.5642C60.1129 86.5631 60.2922 86.3824 60.2955 86.3691C60.3482 86.1759 60.2188 86.2146 60.1812 86.1645ZM74.2772 86.6162C74.4298 86.2393 74.0083 85.9156 73.8737 86.3205C73.7723 86.6258 73.9187 86.6251 74.1171 86.7822C74.1131 86.7066 74.2716 86.6295 74.2772 86.6158V86.6162ZM75.3318 86.7829C75.3543 86.6719 75.3488 86.2924 75.1489 86.3407C75.0176 86.4506 74.9546 86.5793 75.0309 86.739L75.3318 86.7825V86.7829ZM58.4432 86.6453C58.261 86.576 58.101 86.3666 57.9391 86.5985L58.1965 87.0038C58.3241 87.0355 58.5166 86.7737 58.4432 86.645V86.6453ZM59.5498 86.6446L59.1899 86.593C59.0306 87.0941 58.903 87.1642 58.4871 87.4452L58.6781 87.8877C58.9882 87.8313 59.0089 87.4323 59.1936 87.2649C59.406 87.0724 59.6789 87.1653 59.5498 86.6442V86.6446ZM60.8125 87.4467C60.8589 87.0045 60.8302 86.7217 60.3427 86.6299C60.3102 86.742 60.1085 86.8445 60.0904 86.8758C60.0573 86.9334 60.1483 87.0602 60.082 87.1727C60.0547 87.2184 59.4698 87.7885 59.3404 87.9316C59.2286 88.0551 58.9856 88.0083 59.1542 88.3306C59.4488 88.8944 59.6243 87.9412 59.7807 87.8527C59.9072 87.7808 60.0613 87.8431 60.1756 87.8055C60.3552 87.7465 60.2494 87.3261 60.5909 87.4835C60.6299 87.5016 60.8298 87.7022 60.8486 87.7428C61.0939 88.2723 60.3574 88.0555 60.2995 88.1138C60.2877 88.1259 60.2922 88.3284 60.2284 88.4468C60.0963 88.692 59.9057 88.7923 59.7139 88.9697C59.9282 89.9144 60.3091 88.8399 60.5167 88.7344C60.8029 88.5891 61.0496 88.8742 60.9305 89.1493L60.3703 89.8779C60.9375 90.2397 60.9961 89.4056 61.227 89.3698C61.4873 89.3296 61.598 89.6674 61.5452 89.8982C61.5043 90.0782 60.9482 90.1213 61.1425 90.3964C61.3667 90.7139 61.7126 90.1069 61.9096 90.0623C62.1965 89.997 62.5236 90.4108 62.3679 90.6394C62.2529 90.8087 61.8181 90.6782 61.8447 90.9839L62.3602 91.1328L62.4288 90.7954L62.7234 90.7696C62.7566 91.0901 63.007 91.1623 62.9819 91.506C63.3618 91.5905 63.5561 91.6078 63.7984 91.9426C63.8198 91.5735 63.5259 91.3604 63.8496 91.0008C64.0329 90.8957 64.3681 91.0901 64.4883 91.2505L64.2084 91.9083L64.426 92.1639C64.6222 92.0459 64.6871 91.9154 64.9426 91.9755C65.2255 92.0418 64.9342 92.5625 65.4043 92.4486C65.6665 92.3848 65.8653 91.6292 66.1998 92.0481C66.2838 92.1536 66.2853 92.5677 66.5173 92.5293C66.7492 92.491 66.6574 91.9087 66.9694 91.797C67.0767 91.7586 67.1125 92.0573 67.3728 91.943C67.4945 91.5588 66.9484 91.5031 66.8694 91.228C66.7835 90.9289 67.0767 90.8102 67.3013 90.9466C67.5391 91.0912 67.3123 91.5547 67.7781 91.5053C67.8444 91.4983 67.9116 91.5053 67.9709 91.4658C67.9743 90.9426 68.6697 91.2582 68.7627 90.8585C68.8987 90.2744 68.0045 90.7272 67.9728 90.7759C67.9344 90.8341 67.9923 90.9787 67.951 91.044L67.715 91.1339C67.5107 90.8662 67.3916 90.6284 67.0206 90.5561C66.757 90.5048 66.7356 90.8773 66.487 90.8098C66.3664 90.777 65.7539 90.2703 65.5109 90.1571C64.6303 89.7463 63.6763 89.4365 62.8304 88.8199C62.7275 88.7447 62.3572 88.2698 62.3082 88.2572C62.1828 88.2255 61.9295 88.3011 61.8546 88.2484C61.8218 88.2251 61.626 87.6167 61.5496 87.5005C61.5002 87.4253 61.1632 87.0831 61.1097 87.2822L61.1016 87.4371L60.814 87.4474L60.8125 87.4467ZM73.6359 86.8574C73.4014 86.8235 73.235 86.9935 73.2693 87.2239C73.6724 87.3807 73.7893 87.252 73.6359 86.8574ZM74.7757 87.193C74.7208 87.127 74.6688 86.9839 74.5593 87.0045C74.2746 87.0587 74.5327 87.7885 74.8893 87.6672C74.9166 87.3796 74.921 87.3678 74.7754 87.193H74.7757ZM73.0459 87.447C72.9223 87.4205 72.8947 87.4813 72.8346 87.5684C72.5012 88.05 73.4711 88.2801 73.0459 87.447ZM74.2967 87.8977C74.2967 87.7712 74.1942 87.6687 74.0677 87.6687C73.9412 87.6687 73.8387 87.7712 73.8387 87.8977C73.8387 88.0242 73.9412 88.1267 74.0677 88.1267C74.1942 88.1267 74.2967 88.0242 74.2967 87.8977ZM72.2368 88.4774L72.4909 88.5511L72.6048 88.3689C72.527 88.2565 72.4463 88.2373 72.312 88.2587L72.2368 88.4774ZM73.4556 88.2583C73.3726 88.2764 73.2376 88.484 73.2653 88.5851L73.5175 88.8421L73.7089 88.5909C73.6982 88.4833 73.5946 88.2285 73.4556 88.2583ZM74.7429 88.4785H74.3008L74.5593 88.9206C74.7562 88.9689 74.765 88.5994 74.7429 88.4785ZM72.0155 88.921L71.6582 88.9317L71.5734 89.289C71.7917 89.3465 72.0454 89.1769 72.0155 88.9214V88.921ZM72.6896 89.3525C72.7531 89.4528 73.2107 89.5302 73.0898 89.1393C72.9397 88.6555 72.5097 89.0681 72.6896 89.3525ZM74.2897 89.5C74.4096 89.2986 74.0283 89.0375 73.8656 89.1493C73.838 89.1681 73.7605 89.4395 73.7948 89.4977C73.8756 89.6346 74.2101 89.6342 74.2897 89.5003V89.5ZM70.8362 89.5114L71.1689 89.7887C71.3532 89.6829 71.4392 89.4999 71.2397 89.3628L70.8362 89.5114ZM72.4558 89.9502C72.5296 89.8492 72.399 89.5763 72.2737 89.5114L72.0155 89.8396C72.069 89.9742 72.3895 90.0413 72.4558 89.9502ZM73.6366 89.9535L73.3114 89.8809L73.1952 90.062L73.4526 90.3201L73.6363 89.9539L73.6366 89.9535ZM70.6035 89.9635L70.1725 89.9528C70.1607 90.1398 70.1514 90.3223 70.3211 90.4366L70.6566 90.3212L70.6039 89.9639L70.6035 89.9635ZM71.7935 90.0999L71.4263 90.2865C71.6077 90.7434 72.0107 90.5539 71.7935 90.0999ZM73.0617 90.5384C73.0617 90.409 72.9566 90.3039 72.8272 90.3039C72.6978 90.3039 72.5927 90.409 72.5927 90.5384C72.5927 90.6678 72.6978 90.7729 72.8272 90.7729C72.9566 90.7729 73.0617 90.6678 73.0617 90.5384ZM69.7897 90.562C69.4014 90.4285 69.4323 91.0425 69.769 91.131L69.9589 90.8725L69.9497 90.7427C69.8903 90.7206 69.8011 90.5657 69.7897 90.562ZM70.7651 90.7663C70.535 91.0185 71.1423 91.3272 71.1995 90.9378C71.2327 90.7121 70.8396 90.6844 70.7651 90.7663ZM72.3098 91.3526L72.2372 90.9448C71.6737 90.6531 71.7592 91.4408 72.3098 91.3526ZM69.1554 91.7018L69.401 91.6502C69.5905 90.8721 68.5071 90.9997 69.1554 91.7018ZM70.4601 91.3604L70.1297 91.4205C69.6702 91.7763 70.8071 92.0817 70.4601 91.3604ZM71.6796 91.6915C71.6239 91.6274 71.41 91.339 71.3525 91.6122C71.3226 91.7535 71.5911 91.8733 71.6851 91.9419C71.9842 91.9087 71.7224 91.7413 71.6796 91.6919V91.6915ZM68.6956 92.1613C68.7184 92.0385 68.8442 91.8479 68.7018 91.7549L68.1085 91.7218L68.1188 92.0068L68.6952 92.1613H68.6956ZM67.5365 92.5884C68.0801 92.8151 68.1114 92.0739 67.6295 91.9397C67.3304 91.9371 67.4702 92.4327 67.5365 92.5884ZM69.6425 91.9036L69.3907 92.1739L69.7034 92.4652L69.9553 92.1949L69.6425 91.9036ZM70.7643 92.383C71.2887 92.446 71.1969 92.0131 70.7632 92.0164L70.7643 92.383ZM69.3615 92.8266C69.387 92.3391 68.6974 92.1986 68.8158 92.758L69.3615 92.8266ZM65.8616 92.533C65.6551 92.5865 65.8782 92.8553 66.0073 92.8266C66.192 92.7856 66.1227 92.4652 65.8616 92.533ZM67.1504 92.8266C67.1847 92.4342 66.8211 92.4375 66.8565 92.8266H67.1504ZM70.0991 92.8262C70.2067 92.8321 70.2953 92.8491 70.3587 92.755L70.393 92.5323C70.2315 92.5762 70.143 92.6647 70.0991 92.8262ZM68.4035 92.8266C68.4271 92.6872 68.3176 92.5821 68.183 92.6061V92.8266H68.4035Z" fill="#3D007C"/>
<path d="M16.198 54.451C21.9927 56.6135 25.8626 64.4058 25.4326 70.3831C25.1471 74.351 23.0743 78.6936 18.8299 79.6273C11.3321 81.2772 5.35116 72.2834 4.58155 65.8064C3.7238 58.586 8.16888 51.4548 16.1976 54.451H16.198ZM12.3197 56.0544C12.1873 56.2421 12.5465 56.6736 12.7216 56.4191C12.9226 56.1274 12.4624 55.8523 12.3197 56.0544ZM13.5669 56.4899C14.2465 56.6415 14.0433 55.8107 13.6708 56.1156C13.558 56.2082 13.5554 56.3535 13.5669 56.4899ZM16.3665 56.4885C16.1445 56.0386 15.5302 56.2399 16.0494 56.6275L16.3665 56.4885ZM15.1876 56.7108L15.119 56.3011L14.7462 56.2694C14.727 56.5781 14.8789 56.7304 15.1876 56.7108ZM12.1257 56.678C12.1257 56.5346 12.0096 56.4184 11.8661 56.4184C11.7227 56.4184 11.6065 56.5346 11.6065 56.678C11.6065 56.8215 11.7227 56.9376 11.8661 56.9376C12.0096 56.9376 12.1257 56.8215 12.1257 56.678ZM10.9129 56.4899C10.411 56.4247 10.4018 56.921 10.9129 56.8591V56.4899ZM17.104 56.4907C16.9646 56.4671 16.8595 56.577 16.8839 56.7112H17.1782L17.104 56.4907ZM12.9134 57.0674C13.1247 57.4244 13.6539 56.8768 13.2184 56.7259C12.951 56.6334 12.8337 56.9328 12.9134 57.0674ZM14.592 57.2219C14.8384 57.0416 14.3431 56.4243 14.1709 56.9122C14.0584 57.23 14.5009 57.2887 14.592 57.2219ZM15.5943 56.8591C15.3325 57.0302 15.5615 57.4436 15.813 57.3742C16.0556 57.226 15.8303 56.7894 15.5943 56.8591ZM16.8765 56.8653C16.5055 56.7599 16.4399 57.0859 16.705 57.2953L16.8857 57.2588L16.8765 56.8653ZM17.6668 56.9372C17.454 57.0788 17.4094 57.174 17.6166 57.3418C18.0543 57.6965 18.0886 57.0545 17.6668 56.9372ZM11.4973 57.5166C11.5855 57.3919 11.3974 56.9295 11.1116 57.0895C10.5913 57.3809 11.3587 57.7131 11.4973 57.5166ZM10.4338 57.2986C10.4338 57.1766 10.335 57.0777 10.2129 57.0777C10.0909 57.0777 9.99205 57.1766 9.99205 57.2986C9.99205 57.4207 10.0909 57.5195 10.2129 57.5195C10.335 57.5195 10.4338 57.4207 10.4338 57.2986ZM12.6634 57.3185L12.2164 57.3005C11.9904 57.4325 12.5273 57.8831 12.7548 57.667L12.6634 57.3182V57.3185ZM13.9279 57.3086C13.5964 57.0873 13.2707 57.8485 14.0083 57.743C14.037 57.7142 13.9666 57.3344 13.9279 57.3086ZM15.3332 57.8887C15.477 57.5306 15.1544 57.3005 14.8195 57.4491C14.793 57.7334 15.057 57.9403 15.3332 57.8887ZM16.5454 57.7238C16.5454 57.5889 16.4358 57.4793 16.3009 57.4793C16.1659 57.4793 16.0564 57.5889 16.0564 57.7238C16.0564 57.8588 16.1659 57.9683 16.3009 57.9683C16.4358 57.9683 16.5454 57.8588 16.5454 57.7238ZM17.5056 57.6379C17.2814 57.3709 17.1889 57.3945 17.1085 57.7707L17.5078 58.0384C17.7335 57.826 17.6258 57.7813 17.5056 57.6379ZM18.4356 58.2545C19.0847 58.0528 18.3246 57.261 18.2763 57.9314C18.2612 58.1398 18.4072 58.0837 18.4356 58.2545ZM9.8003 58.3256C9.95739 58.2172 9.8593 57.5693 9.43891 57.7791L9.28771 58.0682C9.43264 58.1534 9.60928 58.4577 9.8003 58.3256ZM10.9387 57.9904C10.9387 57.8603 10.8332 57.7548 10.703 57.7548C10.5729 57.7548 10.4674 57.8603 10.4674 57.9904C10.4674 58.1206 10.5729 58.2261 10.703 58.2261C10.8332 58.2261 10.9387 58.1206 10.9387 57.9904ZM13.4186 58.2589C13.4606 58.0203 13.3319 57.8474 13.1258 57.7441L12.9768 57.9407L13.0085 58.191L13.4186 58.2589ZM12.1755 58.0904C12.1755 57.9547 12.0652 57.8444 11.9295 57.8444C11.7938 57.8444 11.6836 57.9547 11.6836 58.0904C11.6836 58.2261 11.7938 58.3363 11.9295 58.3363C12.0652 58.3363 12.1755 58.2261 12.1755 58.0904ZM15.6293 58.2589C15.7075 58.1202 15.5195 57.7725 15.4096 57.8912C15.3314 57.9753 15.5353 58.2349 15.6293 58.2589ZM17.0229 58.1195C16.736 57.9381 16.4108 58.4835 16.7751 58.7014C17.0318 58.6937 17.2036 58.2338 17.0229 58.1195ZM11.1352 58.3334C10.9457 58.7081 11.1371 59.2251 11.5409 58.8497C11.8149 58.5952 11.2444 58.2596 11.1352 58.3334ZM18.0444 58.3577C17.9736 58.3245 17.9149 58.329 17.8419 58.333C17.8434 58.5646 17.7604 58.7173 18.0278 58.753L18.2122 58.5181C18.1314 58.5008 18.0547 58.3629 18.0444 58.3581V58.3577ZM9.21802 58.9227L9.14869 58.5126L8.77587 58.4809L8.85995 58.9123L9.21802 58.923V58.9227ZM10.3073 58.4975C9.97472 58.3061 9.8663 58.8415 10.1536 58.9149C10.4445 58.9894 10.5113 58.6148 10.3073 58.4975ZM12.6814 58.4809H12.3872V58.5897L12.5321 58.7003L12.6807 58.4809H12.6814ZM19.4623 58.555C19.4335 58.5156 19.0474 58.4248 19.0205 58.5923C18.9383 59.1004 19.6703 58.8404 19.4623 58.555ZM17.6937 59.0694C17.5901 58.5248 17.1007 58.9138 17.5211 59.0584C17.5772 59.0776 17.6362 59.0709 17.6937 59.0694ZM18.8664 58.93C18.3055 58.6981 18.4283 59.4596 18.8737 59.3276L18.8664 58.93ZM8.2655 59.0764C8.18732 59.8597 8.94919 59.6115 8.48233 59.03L8.2655 59.0764ZM9.78702 59.492C9.9419 59.3383 9.87294 59.152 9.6668 59.1056C9.24236 59.0097 9.42674 59.8497 9.78702 59.492ZM11.0596 59.5108L10.956 59.2114L10.6204 59.1458C10.5614 59.3069 10.557 59.4282 10.6916 59.554L11.0596 59.5108ZM20.1128 59.3763C20.1128 59.2487 20.0092 59.145 19.8816 59.145C19.754 59.145 19.6504 59.2487 19.6504 59.3763C19.6504 59.5038 19.754 59.6075 19.8816 59.6075C20.0092 59.6075 20.1128 59.5038 20.1128 59.3763ZM19.2989 59.6089C19.241 59.5813 19.1942 59.5765 19.1319 59.5857L19.0865 59.9043C19.4011 60.1964 19.6356 59.7694 19.2993 59.6089H19.2989ZM8.03834 59.7332H7.81708V60.0282H8.03834V59.7332ZM9.21802 60.1757L9.14869 59.7657L8.77587 59.734L8.85773 60.1669L9.21802 60.1757ZM10.304 59.8306C9.68856 59.6399 9.78259 60.4025 10.2716 60.3236C10.436 60.2971 10.5489 59.9065 10.304 59.8306ZM20.5682 60.2487C20.6158 60.2008 20.566 59.8402 20.3853 59.8811C20.1028 59.9449 20.3997 60.4173 20.5682 60.2487ZM8.40416 60.1779C8.22309 60.0323 8.0837 60.623 8.30938 60.7705C8.39494 60.8262 8.52548 60.8425 8.628 60.8391C8.7637 60.4545 8.5417 60.4615 8.40416 60.1779ZM19.9041 60.1761C19.48 60.2594 19.6824 60.7267 20.0523 60.6175L19.9041 60.1761ZM7.52207 60.397H7.3753V60.6175H7.52207V60.397ZM9.5134 60.9859C9.91793 60.8996 9.93305 60.6216 9.62218 60.397C9.31353 60.4512 9.46398 60.7846 9.5134 60.9859ZM21.1527 60.6245C20.9156 60.5109 20.7622 60.5238 20.7902 60.8384H21.1586L21.1523 60.6245H21.1527ZM8.01032 61.018C7.51838 60.7329 7.61131 61.3856 7.93767 61.4063C8.27878 61.4277 8.24817 61.1559 8.01032 61.018ZM9.21064 60.994C8.6704 60.7838 8.66598 61.5092 9.21728 61.4288L9.21064 60.994ZM20.2773 61.3521C20.5726 61.5553 20.8142 60.6846 20.1264 60.987L20.2773 61.3521ZM21.7453 61.2112L21.3799 61.1342L21.5642 61.5759C21.621 61.4539 21.8393 61.3598 21.7453 61.2116V61.2112ZM7.43099 61.4531C7.35981 61.421 7.30155 61.4236 7.22817 61.4288C7.24144 62.43 7.91407 61.67 7.43099 61.4531ZM9.6598 62.166C9.67565 61.9285 9.69262 61.7209 9.47578 61.5774L9.29951 61.7758C9.31095 61.9665 9.42379 62.2309 9.6598 62.166ZM21.1523 61.7607C21.1523 61.6442 21.0579 61.5497 20.9414 61.5497C20.8249 61.5497 20.7305 61.6442 20.7305 61.7607C20.7305 61.8772 20.8249 61.9716 20.9414 61.9716C21.0579 61.9716 21.1523 61.8772 21.1523 61.7607ZM8.62726 61.6501L8.40157 61.6965L8.40821 62.0922H8.62689V61.6501H8.62726ZM22.1823 61.8783C21.8047 61.7821 21.9304 62.2294 22.2634 62.1652L22.1823 61.8783ZM7.81819 62.6077C7.97159 62.7198 8.41669 62.343 7.98966 62.1763C7.69908 62.0631 7.7614 62.5661 7.81819 62.6077ZM9.29103 62.8286C9.29398 62.548 9.19921 62.0494 8.857 62.2482C8.76665 62.6269 8.90531 62.8024 9.29103 62.8286ZM21.7365 62.2504L21.3795 62.239L21.3869 62.6734C21.7132 62.8972 21.9666 62.3913 21.7365 62.25V62.2504ZM7.44352 63.1933C7.53977 63.1306 7.51838 62.7899 7.41218 62.6811C6.97519 62.2342 7.07624 63.4319 7.44352 63.1933ZM8.29869 62.8294C8.03576 62.9042 8.26439 63.3405 8.44398 63.4172L8.68331 63.086C8.61288 62.9695 8.45025 62.7862 8.29869 62.8294ZM17.6712 63.0746C16.9067 62.7187 16.1449 62.7704 15.4686 63.2759C15.0393 63.5968 14.679 64.4888 14.6027 65.0073C14.5636 65.2721 14.5275 65.7404 14.8188 65.8506C14.869 64.8941 15.2897 63.641 16.3993 63.4913C18.6823 64.0843 19.6821 65.8027 19.6581 68.0802C19.657 68.1772 19.5932 68.2424 19.7569 68.283C20.0564 67.2177 19.9395 66.2633 19.4981 65.2628C19.1861 64.5563 18.3379 63.3847 17.6712 63.0742V63.0746ZM22.3372 63.0506C21.9297 62.8316 21.8548 63.3707 22.0805 63.4183C22.2203 63.4478 22.3825 63.1944 22.3372 63.0506ZM7.7791 63.3622L7.59251 63.6731L7.85433 64.0068C8.12758 63.8055 8.1309 63.4574 7.7791 63.3622ZM21.7475 63.8604C21.8014 63.3501 21.1225 63.1616 21.5296 63.804C21.5956 63.908 21.6398 63.8542 21.7475 63.8604ZM9.05392 63.5153C8.98422 63.4843 8.92522 63.4832 8.85257 63.4946C8.66782 63.8468 8.8334 64.2052 9.21728 64.2299C9.22318 64.0223 9.27186 63.613 9.05355 63.5156L9.05392 63.5153ZM22.7719 63.6473C22.3943 63.551 22.5201 63.9983 22.8531 63.9342L22.7719 63.6473ZM7.12528 64.0149C6.82806 64.1307 7.18539 64.553 7.33732 64.5238C7.57075 64.3214 7.47008 63.9073 7.12528 64.0149ZM8.26808 64.6632C9.00561 64.9586 8.92817 64.1263 8.2596 64.2288L8.26808 64.6632ZM22.4109 64.6713L22.3423 64.2616L21.9695 64.2299C21.9271 64.5448 22.0897 64.7141 22.4109 64.6713ZM8.03797 65.2617C8.17147 64.8959 7.77283 64.4025 7.60947 64.873C7.52576 65.1146 7.80528 65.3207 8.03797 65.2617ZM23.0006 65.261C23.0681 65.2138 23.0437 64.9037 22.9272 64.8498L22.6325 64.8933C22.5544 65.0877 22.8612 65.3587 23.0006 65.261ZM9.20179 65.1308L8.84962 65.0405C8.76628 65.4266 8.9337 65.5921 9.29103 65.7031L9.20179 65.1308ZM7.164 65.9137C7.46159 66.0918 7.59103 65.518 7.19055 65.3355C7.04821 65.4634 6.99658 65.8134 7.164 65.9137ZM22.3928 65.3576C22.3243 65.3233 22.2616 65.3336 22.1908 65.3355C22.1664 65.6696 22.2343 65.9922 22.6322 65.9244C22.7432 65.8127 22.5079 65.4148 22.3928 65.3576ZM8.4237 66.0505C8.95472 66.2489 8.78288 65.5693 8.37244 65.4822C8.10804 65.5955 8.26882 65.9926 8.4237 66.0505ZM23.4785 65.6648C23.4449 65.6176 23.4294 65.4845 23.369 65.5932C23.3656 65.7717 23.3059 66.0833 23.5899 66.0719C23.6374 65.8248 23.5899 65.8222 23.4781 65.6648H23.4785ZM8.00847 66.1788C7.96606 66.1508 7.84806 66.0531 7.82114 66.073C7.65261 66.3282 7.68949 66.6147 8.00257 66.7165L8.19359 66.4023C8.19617 66.337 8.05715 66.2117 8.0081 66.1792L8.00847 66.1788ZM23.1304 66.1622L22.7797 66.146C22.7727 66.4425 22.9058 66.6453 23.2215 66.5874L23.1304 66.1619V66.1622ZM9.43891 66.9566C9.50823 66.7423 9.26891 66.1523 8.99381 66.3264C8.71502 66.5026 9.06977 67.128 9.43891 66.9566ZM7.22817 67.1037C7.40038 67.1332 7.49515 67.044 7.59509 66.9197L7.33732 66.6623C7.14483 66.5815 7.2514 67.0318 7.22817 67.1037ZM22.6322 67.1775C22.752 66.5063 22.0871 66.7102 22.3427 67.0565C22.4349 67.1815 22.4725 67.1988 22.6322 67.1775ZM8.42997 67.3006C8.48049 67.3445 8.53838 67.3696 8.60218 67.3891C8.88502 67.3987 8.80574 66.8813 8.58227 66.8131L8.27693 67.0661C8.27656 67.0801 8.40231 67.277 8.42997 67.301V67.3006ZM23.6636 67.3246C23.7838 67.0576 23.6883 66.8666 23.3697 66.8832C23.3387 67.0897 23.418 67.3286 23.6636 67.3246ZM9.6598 67.1782C9.36589 67.1874 9.33713 67.5462 9.62366 67.6196L9.6598 67.1782ZM7.81782 67.3253C7.70203 67.8689 8.13385 68.3391 8.24927 67.5986C8.15966 67.4396 8.0188 67.2929 7.81782 67.3253ZM23.2218 67.9142C23.2668 67.669 23.1366 67.5429 22.9641 67.3998C22.6016 67.6646 22.8409 67.9611 23.2218 67.9142ZM9.29066 68.2093C9.37216 68.0127 9.3681 67.7472 9.10849 67.6937L9.00672 68.0883L9.29103 68.2093H9.29066ZM22.5566 67.9895L22.3383 67.9884L22.4124 68.578L22.6252 68.4552L22.5569 67.9898L22.5566 67.9895ZM23.8008 68.2207L23.4431 68.1355L23.4589 68.5596L23.8111 68.6514L23.8008 68.2207ZM8.45836 68.2177C8.35068 68.245 8.22936 68.401 8.26808 68.526C8.35142 68.6569 8.47459 68.8251 8.65012 68.7915C8.98311 68.7071 8.73604 68.1477 8.45836 68.2177ZM9.88069 68.9464C9.91203 68.6938 9.86557 68.4187 9.55212 68.4316C9.41199 68.5234 9.40535 68.6617 9.47468 68.8004L9.88105 68.9464H9.88069ZM8.03428 68.8048L7.81782 68.7996C7.76693 68.9449 7.89747 69.2772 8.07448 69.2411C8.35658 69.1839 7.96127 68.9095 8.03465 68.8048H8.03428ZM22.2634 69.1673C22.339 68.9774 22.3154 68.8848 22.1174 68.7993V69.1673H22.2634ZM23.1473 68.7996C22.7985 68.7576 22.7509 69.0596 23.0356 69.2215L23.2218 69.1677L23.1473 68.7993V68.7996ZM9.19921 69.039C8.90973 68.7281 8.67778 69.4763 9.04285 69.5316C9.25047 69.563 9.36331 69.2156 9.19921 69.039ZM14.8516 69.3565C14.7723 69.2801 14.7377 69.1621 14.6082 69.1304C14.3213 69.0596 13.5377 69.6187 13.374 69.8584C13.1081 70.2474 13.0211 71.076 13.1819 71.5056C13.3744 72.0193 14.6838 72.8745 15.1961 73.0294C15.8676 73.2322 17.0402 73.327 17.4201 72.6138C17.7007 72.0872 17.6564 71.2984 18.0625 70.7906C17.4171 70.791 16.6431 70.6748 16.0571 70.4001C15.4638 70.122 15.2772 69.7684 14.8513 69.3569L14.8516 69.3565ZM10.2491 69.8307C10.3309 69.6286 10.3191 69.2532 10.0293 69.2414L9.90023 69.5752L10.2491 69.8307ZM22.6193 69.4048C22.5566 69.369 22.4799 69.3945 22.4128 69.3889C22.3744 69.6058 22.3187 69.764 22.412 69.9782L22.786 69.7868C22.7952 69.7193 22.6506 69.4225 22.6193 69.4048ZM8.40821 70.1257C8.74969 70.1574 8.65897 69.5755 8.44583 69.5556L8.25554 69.657L8.40784 70.1257H8.40821ZM23.8115 69.9782L23.7794 69.6054L23.4438 69.5364L23.4759 69.9093L23.8115 69.9782ZM9.65943 69.7573C9.15385 69.7525 9.19479 70.2968 9.65943 70.2736V69.7573ZM10.6905 70.0531C10.5345 70.0276 10.4091 70.094 10.3439 70.2356L10.6536 70.6446L10.8391 70.5284L10.6901 70.0527L10.6905 70.0531ZM23.0378 70.0538C22.8151 70.2238 22.8055 70.5572 23.1105 70.6416C23.3225 70.4624 23.2384 70.1932 23.0378 70.0538ZM21.9688 70.125L21.968 70.5686H22.221L22.2217 70.1257H21.9688V70.125ZM8.99086 70.3518L8.77587 70.3466C8.76444 70.6158 8.71429 70.9897 9.07014 71.01L8.99086 70.3518ZM10.0905 70.5092C9.73097 70.3046 9.74682 71.1745 9.9939 71.2309C10.2904 71.2988 10.3103 70.6343 10.0905 70.5092ZM11.4343 71.669C11.4 71.6329 11.3403 70.8769 11.022 70.7902C10.4187 71.1837 11.1872 71.5311 11.3174 71.749C11.3967 71.8818 11.3155 72.0569 11.3923 72.1901C11.4771 72.3368 12.0151 72.4803 11.8573 72.8402L11.4749 73.071C11.1042 72.7591 11.4398 72.1016 10.6923 72.2642L10.7606 72.5175C10.5068 72.6337 10.1632 73.0117 10.2583 73.3211C10.5802 73.771 10.7041 72.4537 11.095 72.9291C11.4859 73.4044 10.9398 73.5633 10.817 73.8307C10.7233 74.035 10.9162 74.2426 11.0972 74.0306C11.0604 73.7555 11.6201 73.1983 11.8388 73.5121C11.9048 73.6069 11.8941 73.9225 11.8337 74.032C11.778 74.1323 11.1732 74.3945 11.2824 74.5472L11.6799 74.7006C11.83 74.5542 12.0557 74.1397 12.2706 74.1751C12.4956 74.3905 12.5266 74.729 12.2386 74.8761C12.0752 74.9599 11.8451 74.8312 11.8716 75.0266L12.3857 75.2855C12.3791 74.7932 13.0816 74.7784 12.9661 75.2338C12.9352 75.3559 12.6826 75.444 12.7556 75.6539C12.9901 75.7014 13.149 75.2409 13.3375 75.367C13.4883 75.6701 13.499 75.7236 13.3449 76.0219C13.3747 76.0625 13.8855 76.1163 13.9865 76.1915C14.0662 76.2505 14.0949 76.4545 14.1772 76.5168C14.3191 76.6245 14.5669 76.5459 14.5843 76.557C14.6455 76.5972 14.7417 76.8981 14.9656 76.8332C14.9335 76.203 15.0408 75.9061 15.5567 76.4308C15.619 76.6635 15.2879 76.5717 15.4435 76.835C15.6212 77.1363 16.0855 76.9464 15.9874 76.5916C15.9351 76.4025 15.248 76.141 15.6493 75.78C15.9856 75.6236 16.0158 76.1078 16.2216 76.2649C16.3027 76.3269 16.4203 76.3136 16.4296 76.3239C16.5369 76.4397 16.2555 76.8018 16.4768 76.9058L16.6962 76.7591C16.8846 77.2934 17.315 77.2038 17.242 76.6208C17.1029 76.6315 16.6881 76.3637 16.6626 76.2642C16.6394 76.1738 16.687 75.9824 16.6582 75.9515C16.6464 75.9389 16.4543 75.9529 16.3259 75.8792C15.9738 75.6767 15.9693 75.2556 16.465 75.3695C16.6593 75.4333 16.6294 75.7582 16.6693 75.7929C16.7253 75.8416 17.2235 75.8242 17.2504 75.6885C17.2209 75.2995 16.9079 75.4061 16.7117 75.2899C16.5933 75.2198 16.5867 74.961 16.3252 74.9163C15.9111 74.8459 15.8145 75.2468 15.6684 75.2114C15.5187 75.159 15.421 74.7253 15.3981 74.7065C15.3425 74.6604 15.1286 74.7168 15.0172 74.6943C14.9582 74.6825 14.2966 73.9505 14.0079 74.1065C13.9773 74.226 14.2734 74.1405 14.1532 74.3256C14.117 74.3816 13.8206 74.5288 13.7217 74.4657C13.5388 74.3492 13.7841 74.0752 13.7877 73.9944C13.801 73.7046 13.3249 73.7558 13.2132 73.6474C13.1269 73.5637 13.1218 73.2469 13.0144 73.1452C12.9167 73.0522 12.7777 73.102 12.7006 73.0552C12.6095 72.9995 12.5767 72.7196 12.4808 72.6289C12.3857 72.5389 12.139 72.5057 12.108 72.4681C12.0549 72.4032 11.9731 71.9504 11.8012 71.7804C11.6589 71.6395 11.4549 71.693 11.4328 71.6697L11.4343 71.669ZM22.8022 71.0996C22.8022 70.965 22.693 70.8559 22.5584 70.8559C22.4238 70.8559 22.3147 70.965 22.3147 71.0996C22.3147 71.2342 22.4238 71.3434 22.5584 71.3434C22.693 71.3434 22.8022 71.2342 22.8022 71.0996ZM23.5537 70.8644C23.3395 71.0399 23.4298 71.3146 23.6275 71.4511L23.8012 71.2084L23.5537 70.8644ZM9.36589 71.8209C9.80915 71.7645 9.73687 71.194 9.29177 71.232L9.36589 71.8209ZM21.9341 71.3058C21.7848 71.4356 21.7033 71.6048 21.8279 71.7752C22.1425 72.2041 22.4194 71.4101 21.9341 71.3058ZM10.3243 72.0422C10.8291 72.0282 10.7277 71.6568 10.4357 71.3858L10.2458 71.502L10.3243 72.0422ZM22.9283 72.0418C23.3151 72.0861 23.307 71.7118 23.0367 71.5267C22.7421 71.5739 22.8781 71.8501 22.9283 72.0418ZM10.0275 72.0429C9.86999 72.0164 9.74793 72.0887 9.67602 72.2258L9.88253 72.6318C10.1691 72.5076 10.1156 72.2911 10.0275 72.0429ZM21.5945 72.6271L21.7154 72.2634L21.3799 72.1163C21.312 72.3047 21.3017 72.4427 21.3832 72.6296L21.5941 72.6271H21.5945ZM22.3386 72.6318C22.7247 72.6765 22.7188 72.3011 22.4471 72.117C22.2442 72.0396 22.2675 72.5363 22.3386 72.6318ZM23.5902 72.1901L23.3682 72.2387L23.296 72.6315C23.5412 72.6348 23.6216 72.3969 23.5899 72.1901H23.5902ZM22.0798 73.0744C22.0798 72.9523 21.9806 72.8531 21.8585 72.8531C21.7365 72.8531 21.6373 72.9523 21.6373 73.0744C21.6373 73.1964 21.7365 73.2956 21.8585 73.2956C21.9806 73.2956 22.0798 73.1964 22.0798 73.0744ZM22.9725 72.9582C22.4235 72.6577 22.634 73.7754 23.1466 73.1824C23.1816 73.1227 22.9932 72.9693 22.9725 72.9582ZM20.7164 73.2949C20.76 73.3373 20.9838 73.2783 21.01 73.1839L20.9001 72.9283C20.8024 72.9777 20.6438 73.2244 20.7161 73.2949H20.7164ZM21.3791 73.8849C21.4466 73.2993 21.0196 73.2905 21.0848 73.8849H21.3791ZM20.3469 73.5165C20.0671 73.3764 19.9634 73.9155 20.164 73.9583C20.3698 74.0025 20.3665 73.6216 20.3469 73.5165ZM22.1166 73.6644L22.2627 74.0737C22.7668 74.0497 22.5227 73.584 22.1166 73.6644ZM19.5563 74.1217C19.5287 74.1814 19.5239 74.2131 19.5471 74.2758C19.6784 74.6291 19.9804 74.3466 19.8974 74.0803C19.8285 73.858 19.5984 74.0302 19.5559 74.1217H19.5563ZM20.9517 74.3237C20.9517 74.1943 20.8466 74.0892 20.7172 74.0892C20.5877 74.0892 20.4827 74.1943 20.4827 74.3237C20.4827 74.4532 20.5877 74.5583 20.7172 74.5583C20.8466 74.5583 20.9517 74.4532 20.9517 74.3237ZM21.9688 74.6958C21.9846 74.458 22.0016 74.2511 21.7848 74.1073C21.3876 74.3816 21.4746 74.722 21.9688 74.6958ZM19.4295 74.7327C19.4295 74.5892 19.3133 74.4731 19.1699 74.4731C19.0264 74.4731 18.9102 74.5892 18.9102 74.7327C18.9102 74.8761 19.0264 74.9923 19.1699 74.9923C19.3133 74.9923 19.4295 74.8761 19.4295 74.7327ZM19.9221 75.1221C20.0409 75.3253 20.3783 75.2777 20.351 74.958C20.3149 74.5347 19.6869 74.7198 19.9221 75.1221ZM21.1951 74.771L20.9536 75.1022C21.2836 75.5532 21.593 75.0576 21.1951 74.771ZM17.8412 75.2844C18.0116 75.0491 17.454 74.809 17.2519 74.9171C17.0926 75.2862 17.7118 75.4636 17.8412 75.2844ZM18.7602 75.0996C18.7303 75.069 18.7107 74.9893 18.6905 74.9912L18.516 75.076C18.4342 75.3721 18.5713 75.5609 18.8726 75.5801C18.9416 75.3419 18.9254 75.2689 18.7602 75.1V75.0996ZM18.2793 75.3633C17.2644 75.5502 18.3671 76.408 18.415 75.7523C18.4242 75.6273 18.29 75.496 18.2793 75.3633ZM19.751 75.3659C19.5394 75.2401 19.1695 75.4728 19.3236 75.7199C19.5161 76.0282 20.0025 75.5156 19.751 75.3659ZM20.7164 75.5064L20.3473 75.5071C20.3009 75.7431 20.4602 76.0444 20.7164 75.9116V75.5064ZM17.6572 75.8766C17.4097 76.0488 17.3865 76.3648 17.6557 76.5216L17.9157 76.2837L17.6572 75.8766ZM18.7358 75.9588C18.6163 76.1853 18.5983 76.4677 18.8999 76.5323L19.2381 76.1414C19.1348 75.9526 18.9368 75.9076 18.7358 75.9585V75.9588ZM20.1814 76.1878C19.8583 75.8814 19.466 76.4648 20.0744 76.5304C20.2323 76.4648 20.3149 76.3143 20.1814 76.1878ZM18.2586 76.5485C17.9714 76.6241 18.0396 77.0943 18.2454 77.1108C18.5625 77.1363 18.6344 76.4497 18.2586 76.5485ZM19.4593 77.1256C19.5305 76.9239 19.6374 76.613 19.3199 76.6167L19.0943 76.9449C19.2484 77.0209 19.2539 77.1861 19.4593 77.1256ZM17.8405 77.2001L17.4732 76.9811L17.6218 77.3483L17.8405 77.2001ZM16.2194 77.0548C16.0851 77.0308 15.9756 77.1359 15.9988 77.2753H16.2194V77.0548Z" fill="#3D007C"/>
<path d="M72.9321 49.4601C74.1999 50.5752 75.0046 51.801 75.4626 53.4534C76.9996 58.9993 72.4387 62.83 67.5802 59.2887C65.2755 57.6087 63.6725 53.9018 64.4612 51.1066C65.6195 47.0008 70.0982 46.9676 72.9321 49.4604V49.4601ZM68.1869 48.8992H67.9663V49.046H68.1869V48.8992ZM67.671 49.4881C67.7008 49.317 67.6123 49.2222 67.4869 49.1216L67.3767 49.3034L67.5618 49.4881H67.671ZM68.4756 49.2432L68.4004 49.473L68.7341 49.5821L68.8093 49.3524L68.4756 49.2432ZM70.2508 49.2676C69.7954 49.1894 70.1594 49.5869 70.2508 49.4881V49.2676ZM71.2826 49.2668L71.0614 49.2676L71.0621 49.4888L71.2834 49.4881L71.2826 49.2668ZM67.1551 49.8565C67.1643 49.7027 67.1831 49.5803 67.0448 49.4899C66.9065 49.5807 66.9257 49.7027 66.9345 49.8565H67.1551ZM69.8087 49.8565C69.8363 49.6157 69.7932 49.4446 69.5148 49.4888L69.5823 49.8137L69.8091 49.8569L69.8087 49.8565ZM68.334 49.9291C68.2352 49.7724 68.0578 49.5003 67.893 49.7477L68.115 50.0778L68.334 49.9295V49.9291ZM70.8405 49.7105C70.8316 49.6979 70.561 49.6201 70.5462 49.6363C70.4223 50.1733 70.9496 49.8653 70.8405 49.7105ZM71.7989 49.7105C71.7915 49.7016 71.6341 49.6854 71.5788 49.636V49.9306C71.6835 49.8882 71.8996 49.8333 71.7989 49.7105ZM69.3606 49.9373L68.962 49.8558C68.8108 50.1441 69.1268 50.1829 69.3665 50.1511L69.3606 49.9373ZM67.7462 50.2662C67.7462 50.1622 67.6617 50.0778 67.5578 50.0778C67.4538 50.0778 67.3693 50.1622 67.3693 50.2662C67.3693 50.3702 67.4538 50.4546 67.5578 50.4546C67.6617 50.4546 67.7462 50.3702 67.7462 50.2662ZM70.3246 50.0785H70.0303V50.299C70.166 50.3164 70.2464 50.3034 70.3238 50.1877V50.0785H70.3246ZM71.4301 50.1526C71.3402 50.1567 71.2494 50.0792 71.1665 50.0803C70.7251 50.0851 71.3088 50.7795 71.4301 50.1526ZM66.7122 50.1519H66.4928C66.4566 50.6652 66.8612 50.6398 66.7122 50.1519ZM72.3144 50.1522C72.0489 49.9155 72.0069 50.6335 72.2783 50.2998C72.3166 50.2526 72.3336 50.1696 72.3144 50.1522ZM68.7765 50.6674C68.8477 50.4889 68.8241 50.261 68.5936 50.2256L68.4085 50.5184L68.7761 50.667L68.7765 50.6674ZM69.8087 50.2994C69.673 50.2821 69.5926 50.295 69.5151 50.4108V50.5199H69.8091V50.2994H69.8087ZM70.8405 50.7412V50.632C70.7627 50.5162 70.6823 50.5037 70.5466 50.5206V50.7412H70.8405ZM71.7926 50.8835C71.8708 50.8334 71.9003 50.4616 71.6894 50.5206C71.4261 50.594 71.5489 51.0395 71.7926 50.8835ZM72.6828 50.5206C72.5862 50.4919 72.4372 50.5892 72.4627 50.7036L72.6478 50.8883H72.757L72.6828 50.5206ZM67.2248 50.8142C67.2248 50.7353 67.1606 50.6711 67.0817 50.6711C67.0028 50.6711 66.9386 50.7353 66.9386 50.8142C66.9386 50.8931 67.0028 50.9573 67.0817 50.9573C67.1606 50.9573 67.2248 50.8931 67.2248 50.8142ZM67.9033 50.9532C68.074 51.0034 68.1858 51.2217 68.3344 50.9982L68.0755 50.6682L67.893 50.7791L67.9029 50.9532H67.9033ZM71.2026 50.896L70.9887 50.9252C71.0588 51.0635 71.1259 51.1428 71.2823 51.1837L71.2022 50.896H71.2026ZM72.3144 50.9628H72.0205C71.9866 51.2434 72.0224 51.3743 72.2798 51.1852L72.3144 50.9628ZM66.7011 51.121C66.6288 51.0775 66.4787 51.1225 66.3862 51.1088C66.221 51.3028 66.509 51.4142 66.6749 51.4787C66.821 51.4352 66.7723 51.1634 66.7015 51.121H66.7011ZM67.5246 51.5524C67.5729 51.5945 67.8011 51.5292 67.8188 51.44C67.8491 51.2888 67.5249 50.8997 67.4925 51.2519C67.4873 51.308 67.5131 51.5421 67.5246 51.5521V51.5524ZM71.6418 51.3411L71.4309 51.3312C71.4124 51.517 71.5485 51.5801 71.7251 51.5513L71.6418 51.3411ZM72.6474 51.3297L72.4612 51.5159L72.6832 51.7379L72.8694 51.5517L72.6474 51.3297ZM66.2704 51.5528C66.1421 51.454 65.8976 51.8058 66.0502 51.9205C66.2453 52.0672 66.4393 51.683 66.2704 51.5528ZM66.9345 51.7741C67.0179 51.968 67.2248 52.0997 67.3763 51.8825L66.9345 51.7741ZM73.3119 51.773H73.0188V52.1425H73.3119V51.773ZM65.6085 52.3626C66.0997 52.1155 65.5819 51.85 65.5347 52.1085L65.6085 52.3626ZM66.6403 52.5101C66.7981 52.5348 66.8884 52.4061 66.86 52.2531L66.5661 52.1421L66.6403 52.5098V52.5101ZM72.8307 52.3634H72.5364V52.4725C72.6139 52.5883 72.6943 52.6008 72.83 52.5839V52.3634H72.8307ZM73.8625 52.5831L73.4945 52.3634L73.5402 52.5887L73.8625 52.5831ZM66.2612 52.5942L66.0502 52.5842C66.0318 52.7701 66.1679 52.8332 66.3445 52.8044L66.2612 52.5942ZM67.3022 52.9519C67.3284 52.755 67.0282 52.5315 66.9349 52.769C66.8357 53.0209 67.1551 53.0109 67.3022 52.9519ZM73.2729 52.9534L72.9786 52.8793L73.0527 53.1735C73.1914 53.1968 73.2965 53.0872 73.2729 52.9534ZM65.8282 53.2469V53.1378L65.6442 52.9538L65.5343 53.064V53.1728L65.8279 53.2469H65.8282ZM66.6775 53.0268C66.4504 53.0747 66.6251 53.5098 66.8228 53.4682C67.05 53.4202 66.8752 52.9851 66.6775 53.0268ZM73.6413 53.1743H73.5321L73.4207 53.2856L73.531 53.4674L73.7154 53.3944L73.6413 53.1746V53.1743ZM73.2729 53.9841C73.3012 53.7897 73.243 53.6157 73.0527 53.5423V53.9848L73.2729 53.9841ZM73.8632 53.9841C73.9717 54.0077 74.0174 53.952 74.0838 53.8727L73.8994 53.616L73.8632 53.9837V53.9841ZM65.902 53.7636H65.6815L65.6914 53.9749L65.9016 54.0582V53.7636H65.902ZM66.8604 54.0578C67.0289 53.8897 66.5566 53.5924 66.4928 53.8749C66.4518 54.0556 66.8128 54.1054 66.8604 54.0578ZM65.6807 54.4262C65.6999 54.2887 65.6807 54.171 65.5343 54.1319V54.4262H65.6807ZM73.715 54.2053L73.4945 54.2061C73.483 54.3525 73.4764 54.4845 73.6058 54.5734H73.715V54.2053ZM74.5259 54.2053L74.3047 54.2061L74.3054 54.4273L74.5266 54.4266L74.5259 54.2053ZM66.124 54.2798L66.3807 54.6475L66.4577 54.4248L66.124 54.2798ZM67.082 54.3532C67.0304 54.4738 67.1632 54.7913 67.2661 54.7935C67.4645 54.7979 67.3088 54.2828 67.082 54.3532ZM73.2603 54.6604L73.0527 54.5741V55.0166H73.2729L73.2607 54.6604H73.2603ZM74.1572 55.0159L74.0473 54.6482C73.7755 54.8437 73.8186 55.0358 74.1572 55.0159ZM66.0495 55.0896C66.0639 54.8909 65.8581 54.7662 65.6815 54.7961L65.9404 55.0896H66.0495ZM66.9338 54.8695C66.8973 54.8234 66.6827 54.7872 66.6403 54.9067C66.513 55.2644 67.0647 55.0351 66.9338 54.8695ZM73.7397 55.3282C73.7397 55.2427 73.6704 55.1737 73.5852 55.1737C73.5 55.1737 73.4307 55.243 73.4307 55.3282C73.4307 55.4134 73.5 55.4827 73.5852 55.4827C73.6704 55.4827 73.7397 55.4134 73.7397 55.3282ZM67.4372 55.2497L67.1558 55.2379L67.3402 55.6059L67.5246 55.4234L67.4375 55.25L67.4372 55.2497ZM74.5259 55.2371L74.3047 55.2379L74.3054 55.4591L74.5266 55.4584L74.5259 55.2371ZM67.0076 55.9005C67.0824 55.8264 66.8637 55.6048 66.787 55.68C66.7103 55.7552 66.9309 55.9758 67.0076 55.9005ZM73.1877 55.6911L72.9048 55.68C72.8517 55.7254 73.1154 56.2225 73.274 56.0104L73.1877 55.6911ZM67.8745 55.8423L67.6179 55.808C67.3819 55.8792 67.557 56.1992 67.8542 56.1207C68.0006 56.0285 67.9438 55.971 67.8749 55.8423H67.8745ZM73.9742 55.7538C73.9444 55.7604 73.9016 55.8364 73.8644 55.8633C74.1627 56.4651 74.2707 55.6867 73.9742 55.7538ZM67.3026 56.197L67.0448 56.0495C66.7557 56.2332 67.2871 56.6443 67.3026 56.197ZM72.8307 56.4902C72.9767 56.3726 72.7252 56.0495 72.6467 56.0495C72.6209 56.0495 72.4553 56.2177 72.4675 56.297C72.4837 56.4039 72.7518 56.554 72.8311 56.4902H72.8307ZM73.715 56.2689C73.3569 56.2059 73.4631 56.4636 73.6789 56.6373L73.715 56.2689ZM74.4522 56.2697H74.3054V56.4902H74.4522V56.2697ZM68.4085 56.4906V56.7118H68.7035V56.4906H68.4085ZM72.3141 56.4906C72.0515 56.4456 71.9752 56.6159 72.0286 56.8508L72.3144 56.9327C72.3709 56.7682 72.3727 56.6547 72.3144 56.4906H72.3141ZM68.1131 56.8593H67.9663V57.0799H68.1131V56.8593ZM71.3568 56.859V57.0802H71.6518V56.859H71.3568ZM73.0571 57.074C73.7475 57.2709 73.1884 56.7188 73.0523 56.8593L73.0571 57.074ZM74.1572 56.8586L73.9359 56.8593L73.9366 57.0806L74.1579 57.0799L74.1572 56.8586ZM69.1456 57.0065H68.9244V57.3015H69.1456V57.0065ZM70.0296 57.3007C70.0469 57.165 70.034 57.0846 69.9182 57.0072H69.8091V57.3011H70.0296V57.3007ZM71.054 57.0872C70.7214 56.9441 70.7819 57.4564 71.0252 57.4468C71.1724 57.4409 71.1067 57.1702 71.054 57.0872ZM72.0198 57.4482C72.0655 57.3992 71.9855 57.1562 71.9095 57.1551C71.6897 57.1529 71.8889 57.5884 72.0198 57.4482ZM72.6102 57.2281C72.4977 57.3502 72.8329 57.7307 72.9764 57.4862C72.9469 57.376 72.7186 57.1105 72.6102 57.2281ZM68.5556 57.3015H68.3347L68.4092 57.522H68.5553V57.3015H68.5556ZM69.5874 57.6695C69.6073 57.4873 69.5926 57.2816 69.3669 57.3018V57.6702L69.5874 57.6695ZM73.4937 57.4475V57.7031H73.8632V57.4475H73.4937ZM70.6192 57.7433V57.6341C70.5414 57.5183 70.461 57.5058 70.3253 57.5227V57.7433H70.6192ZM71.6024 57.7606C71.6024 57.675 71.533 57.6061 71.4478 57.6061C71.3627 57.6061 71.2933 57.6754 71.2933 57.7606C71.2933 57.8458 71.3627 57.9151 71.4478 57.9151C71.533 57.9151 71.6024 57.8458 71.6024 57.7606ZM72.4623 57.6699H72.2411V57.9649H72.4623V57.6699ZM69.1456 57.9638L68.9613 57.7447C68.7596 57.8841 68.934 57.9922 69.1456 57.9638ZM73.4937 58.1117C73.4919 57.8535 73.2415 57.8174 73.052 57.8919L73.4937 58.1117ZM70.0296 58.2592C70.0771 58.2116 70.0274 57.8502 69.8467 57.8915L69.7353 58.0047L69.8168 58.2525C69.8411 58.2684 70.0222 58.2669 70.0296 58.2595V58.2592ZM71.0614 58.0386C71.0297 58.0069 70.6734 57.9678 70.7678 58.2219C70.8733 58.5059 71.1827 58.16 71.0614 58.0386ZM71.8085 58.4694C71.998 58.5523 72.1194 58.2149 71.9084 58.1124L71.6518 58.2968L71.8085 58.4694ZM72.6836 58.4797C73.0726 58.6427 73.084 58.2219 72.6836 58.2599V58.4797ZM69.5874 58.3337H69.2932V58.4428C69.3706 58.5586 69.451 58.5711 69.5867 58.5542V58.3337H69.5874ZM70.5444 58.4823L70.1778 58.4812C70.1745 58.9152 70.6074 59.0066 70.5444 58.4823ZM71.4644 58.6655C71.4309 58.6301 71.4287 58.5486 71.3951 58.5545C70.9884 58.6264 71.1831 59.0856 71.5773 58.9959C71.6182 58.7669 71.571 58.778 71.4644 58.6655ZM72.6094 58.9963L72.4638 58.6633L72.2418 58.7024L72.3137 58.9617L72.6098 58.9967L72.6094 58.9963ZM69.9558 58.9963C69.9982 58.9539 69.8946 58.7769 69.8456 58.7769C69.6416 58.7769 69.8445 59.1077 69.9558 58.9963ZM70.988 59.1442C70.5326 59.066 70.8965 59.4635 70.988 59.3647V59.1442Z" fill="#3D007C"/>
<path d="M13.3187 34.7776C16.0557 36.6668 17.4787 41.4892 14.9442 44.0816C11.9517 47.1423 7.6873 43.968 6.62895 40.6923C6.04741 38.8927 6.01828 36.783 7.26691 35.2618C8.80835 33.3837 11.4288 33.4733 13.3187 34.778V34.7776ZM9.44188 34.747H9.29511V34.9676H9.44188V34.747ZM8.77921 35.336L8.77848 35.5572L8.99973 35.558L9.00047 35.3367L8.77921 35.336ZM10.0304 35.3367H9.81101C9.80216 35.4905 9.78299 35.6125 9.92128 35.7032C10.0913 35.5753 10.0975 35.5303 10.0304 35.3367ZM11.0633 35.5565C11.0858 35.4097 11.004 35.364 10.8778 35.3345C10.5482 35.2574 10.5445 35.8176 11.0633 35.5565ZM12.0955 35.7044C12.2161 35.5937 11.8654 35.409 11.7275 35.4842C11.7419 35.6103 12.0181 35.7755 12.0955 35.7044ZM8.26331 35.999C8.33633 36.0912 8.62286 36.0702 8.55685 35.8161C8.4949 35.5782 8.18735 35.9031 8.26331 35.999ZM9.51563 35.7788H9.22136V35.888C9.2988 36.0038 9.37919 36.0163 9.5149 35.9994V35.7788H9.51563ZM12.3238 36.1388C12.4989 36.3692 12.7858 35.9603 12.5004 35.853C12.2766 35.7689 12.2556 36.0491 12.3238 36.1388ZM10.6219 35.9264H10.2535C10.2314 36.145 10.4298 36.1679 10.6212 36.1469L10.6219 35.9264ZM11.3587 35.926V36.1472H11.6537V35.926H11.3587ZM8.999 36.5153C9.13286 36.3917 9.06132 36.0558 8.77921 36.1472C8.75045 36.235 8.85407 36.6488 8.999 36.5153ZM10.1053 36.5153L9.84752 36.1487L9.66462 36.3313L10.1049 36.5153H10.1053ZM12.0856 36.304L11.8754 36.2206V36.5153H12.0955L12.0856 36.3043V36.304ZM11.2108 36.2947C11.1618 36.249 10.9188 36.329 10.9177 36.405C10.9155 36.6248 11.351 36.4257 11.2108 36.2947ZM12.7593 36.3678L12.7585 36.589L12.9798 36.5898L12.9805 36.3685L12.7593 36.3678ZM8.62286 36.5964L8.26257 36.5894L8.37505 36.9578L8.69956 36.7745L8.62249 36.5964H8.62286ZM9.29511 36.8099C9.32203 36.8442 9.56579 36.8988 9.58791 36.7734L9.40501 36.5905C9.33826 36.6333 9.24902 36.7516 9.29475 36.8095L9.29511 36.8099ZM11.4332 36.5894C11.3237 36.835 11.4539 37.0042 11.6519 36.7738L11.4332 36.5894ZM12.5377 36.8106C12.3975 36.8011 12.2143 36.7904 12.1696 36.9567L12.5377 37.0308V36.8103V36.8106ZM13.4865 36.9681L13.2756 36.9582V37.1787L13.5698 37.1783L13.4865 36.9681ZM7.82153 37.5474C8.0155 37.4641 8.14715 37.2572 7.92995 37.1057L7.82153 37.5474ZM9.07349 37.5471C9.1701 37.4571 8.88099 37.2325 8.77921 37.3265C8.6826 37.4165 8.97171 37.6411 9.07349 37.5471ZM12.7593 37.3258L12.7585 37.5471L12.9798 37.5478L12.9805 37.3265L12.7593 37.3258ZM13.9375 37.4003C13.7055 37.2351 13.6211 37.6477 13.8291 37.6946C14.0371 37.7414 13.9913 37.4387 13.9375 37.4003ZM7.59917 37.6216H7.37865V37.8424L7.5988 37.768V37.6219L7.59917 37.6216ZM8.26331 37.9892L8.63023 37.8052L8.26331 37.6212V37.9892ZM13.3493 37.8041L13.1631 37.9903L13.422 38.2492L13.6082 38.063L13.3493 37.8041ZM7.85841 37.99C7.59511 38.049 7.73856 38.4015 7.92995 38.358C8.11064 38.3167 8.05791 37.9453 7.85841 37.99ZM8.85223 38.2112L8.62691 38.2569L8.63245 38.5792L8.85223 38.2112ZM13.9279 38.4417L13.7177 38.3583V38.653H13.9379L13.9279 38.4421V38.4417ZM8.41008 38.6541L8.08004 38.6526L8.04722 38.7957L8.22459 38.9469C8.33264 38.91 8.51112 38.7957 8.41008 38.6541ZM13.5695 38.8009C13.114 38.7227 13.478 39.1202 13.5695 39.0214V38.8009ZM14.3804 39.0948C14.3977 38.9591 14.3848 38.8787 14.269 38.8012H14.1599V39.0951H14.3804V39.0948ZM7.74741 39.0218C7.70168 39.0708 7.78171 39.3138 7.85767 39.3149C8.07746 39.3171 7.87832 38.8816 7.74741 39.0218ZM13.9379 39.243H13.6439C13.6152 39.382 13.7384 39.4418 13.828 39.5358C13.9419 39.4576 13.9556 39.378 13.9382 39.243H13.9379ZM14.7488 39.6107C14.8199 39.5329 14.6547 39.2567 14.5286 39.2426C14.453 39.3806 14.6381 39.7313 14.7488 39.6107ZM7.37902 39.4635L7.37828 39.6848L7.59954 39.6855L7.60027 39.4643L7.37902 39.4635ZM8.41008 39.8319C8.42999 39.6498 8.41524 39.444 8.18956 39.4643V39.8327L8.41008 39.8319ZM14.3804 40.0532C14.3896 39.8994 14.4084 39.777 14.2701 39.6866C14.1318 39.7774 14.151 39.8994 14.1599 40.0532H14.3804ZM7.82116 39.9794L7.82043 40.2007L8.04168 40.2014L8.04242 39.9802L7.82116 39.9794ZM8.8526 40.2737L8.66748 40.0539H8.55832C8.54136 40.1882 8.5539 40.2693 8.66858 40.3467L8.85297 40.2737H8.8526ZM13.9379 40.2011C13.648 40.2011 13.6443 40.4935 13.9379 40.4953V40.2011ZM14.602 40.4216L14.6013 40.6428L14.8225 40.6436L14.8233 40.4223L14.602 40.4216ZM13.5695 40.6436C13.4301 40.62 13.325 40.7295 13.3489 40.8641H13.5695V40.6436ZM8.85223 41.085C8.9234 41.0072 8.75819 40.731 8.63208 40.717C8.55648 40.8549 8.7416 41.2056 8.85223 41.085ZM14.3804 41.085L14.1606 40.717L14.1551 41.0393L14.3804 41.085ZM15.0434 40.9382H14.9343L14.824 41.0485L15.0073 41.2325L15.0434 40.9382ZM8.18956 41.085L8.18882 41.3062L8.41008 41.307L8.41082 41.0857L8.18956 41.085ZM13.9379 41.0857C13.7125 41.0654 13.6978 41.2716 13.7173 41.4534L13.9379 41.4541V41.0857ZM9.36813 41.4534C9.38657 41.2675 9.25049 41.2045 9.07386 41.2332L9.25898 41.453H9.36813V41.4534ZM14.7488 41.6746C14.7694 41.4925 14.7532 41.2867 14.5282 41.307L14.6027 41.675H14.7488V41.6746ZM13.4961 41.748C13.4319 41.6204 13.3795 41.4228 13.2018 41.4545L13.1292 41.6385L13.1989 41.7141L13.4961 41.748ZM8.77848 41.7484C8.77848 41.4585 8.48605 41.4549 8.4842 41.7484H8.77848ZM9.81028 41.8959C9.83388 41.7565 9.72436 41.6514 9.58976 41.6754V41.8959H9.81028ZM14.3804 41.9693L14.3457 41.7469C14.2823 41.6525 14.1941 41.6702 14.0865 41.6754L14.0935 41.8882L14.3804 41.9693ZM9.29438 42.2643L9.07422 41.8966L9.06869 42.2182L9.29438 42.2643ZM10.7333 41.8465L10.5482 41.9324L10.657 42.1666L10.8421 42.0807L10.7333 41.8465ZM12.9061 41.8963L12.6929 41.904L12.6118 42.1164C12.8773 42.206 13.0281 42.2304 12.9061 41.8963ZM10.0326 42.4859C10.2864 42.372 10.3501 42.1367 10.0326 42.1179V42.4859ZM13.7915 42.4856C14.0938 42.4922 14.0938 42.1113 13.7915 42.1179V42.4856ZM11.0633 42.3388C10.6411 42.3358 10.987 42.9461 11.084 42.6135C11.1168 42.5014 11.0821 42.4439 11.0633 42.3388ZM9.66351 42.4122H9.44225V42.7072H9.66351V42.4122ZM11.8739 42.9273C11.9451 42.7345 11.9299 42.6873 11.764 42.5608C11.5844 42.6747 11.7013 42.7673 11.7282 42.9277H11.8742L11.8739 42.9273ZM13.5695 42.5597H13.4603C13.3445 42.6375 13.332 42.7179 13.3489 42.8536H13.5695V42.5597ZM10.5382 42.7171L10.3273 42.7072V42.9277L10.6216 42.9273L10.5382 42.7171ZM12.6848 42.7072C12.5491 42.6898 12.4687 42.7028 12.3913 42.8185V42.9277H12.6852V42.7072H12.6848ZM10.1053 42.9281H9.88477L9.89472 43.1394L10.1049 43.2227V42.9281H10.1053ZM11.4233 42.9354L11.1378 42.9281L11.3218 43.2946C11.4804 43.1711 11.5151 43.1202 11.4233 42.9351V42.9354ZM12.0962 43.0748L12.0955 43.2961L12.3168 43.2968L12.3175 43.0756L12.0962 43.0748ZM12.9068 43.0748L12.9061 43.2961L13.1273 43.2968L13.128 43.0756L12.9068 43.0748ZM10.7322 43.3695L10.5471 43.5546L10.6953 43.7028L10.8804 43.5177L10.7322 43.3695ZM11.8735 43.3706C11.6416 43.2054 11.5571 43.618 11.7651 43.6649C11.9653 43.7102 11.9274 43.4089 11.8735 43.3706ZM12.6848 43.7382L12.4646 43.3706L12.4591 43.6922L12.6848 43.7382Z" fill="#3D007C"/>
<path d="M63.5921 90.9648C63.5884 90.9762 63.4287 91.1304 63.4169 91.1322C63.0201 91.196 62.727 90.5569 63.2525 90.3578C63.6238 90.2173 63.6751 90.7081 63.5921 90.9648Z" fill="#3D007C"/>
<path d="M64.4001 90.5225C64.3964 90.5339 64.2349 90.6848 64.2231 90.6873C63.7038 90.7921 63.8292 90.3252 63.8443 89.9635C64.2378 89.7746 64.5328 90.1121 64.4001 90.5225Z" fill="#3D007C"/>
<path d="M65.1084 91.7809C64.9823 91.56 65.4223 91.1846 65.5358 91.2381C65.8261 91.4188 65.8091 91.9819 65.4293 91.9446C65.3824 91.9402 65.1214 91.8037 65.1084 91.7809Z" fill="#3D007C"/>
<path d="M64.6183 90.7003C65.2899 90.4761 65.1287 91.3113 64.8296 91.3342C64.5686 91.3541 64.3244 90.7984 64.6183 90.7003Z" fill="#3D007C"/>
<path d="M61.1796 88.8471C60.7821 87.5 62.0646 88.3574 61.4407 88.7777C61.3525 88.8371 61.2891 88.8677 61.1796 88.8471Z" fill="#3D007C"/>
<path d="M63.3945 89.8752C62.5394 89.8025 63.2481 88.8991 63.4941 89.4589C63.5612 89.6115 63.4111 89.7303 63.3945 89.8752Z" fill="#3D007C"/>
<path d="M66.6037 91.2706L66.2264 91.6479L66.5659 91.9875L66.9432 91.6101L66.6037 91.2706Z" fill="#3D007C"/>
<path d="M62.8005 90.0927L62.3764 90.0908L62.3672 89.5107C62.6356 89.6324 62.9705 89.7501 62.8005 90.0927Z" fill="#3D007C"/>
<path d="M65.6712 90.4817C65.7841 90.679 65.5186 91.0098 65.3272 90.8999C65.1981 90.6816 65.1332 90.5702 65.2442 90.3213L65.6712 90.4817Z" fill="#3D007C"/>
<path d="M61.6309 88.847C61.8643 88.8064 62.0856 88.9418 62.1464 89.1759C61.7566 89.5395 61.5619 89.3437 61.6309 88.847Z" fill="#3D007C"/>
<path d="M66.1505 91.0998C66.2906 91.2669 66.3868 91.3852 66.1188 91.469C65.7552 91.5313 65.636 90.973 65.9347 90.911C66.0432 90.8885 66.0963 91.0349 66.1508 91.0998H66.1505Z" fill="#3D007C"/>
<path d="M14.9539 76.1562C14.7478 76.2193 14.8017 76.4206 14.5719 76.3908C13.6076 76.2646 14.7349 74.7652 14.9539 76.1562Z" fill="#3D007C"/>
<path d="M13.4759 74.3464C13.6356 74.5127 13.6485 74.9261 13.31 74.9238C12.6569 74.9194 13.1315 73.9875 13.4759 74.3464Z" fill="#3D007C"/>
<path d="M12.3651 73.0964C12.8039 73.4253 12.2331 73.9762 11.9606 73.46C11.7733 73.1052 12.1103 72.9053 12.3651 73.0964Z" fill="#3D007C"/>
<path d="M13.8018 75.7168L13.6406 75.3259C13.7147 75.0375 13.9205 75.0091 14.1248 75.2105C14.2638 75.4362 14.0857 75.7953 13.8018 75.7168Z" fill="#3D007C"/>
<path d="M14.7307 74.7136C14.8635 74.9165 14.8698 75.1429 14.6393 75.2708C14.338 75.1215 14.2436 74.9511 14.3841 74.624L14.7307 74.7136Z" fill="#3D007C"/>
<path d="M12.5386 74.3259C12.459 74.2714 12.3505 73.5486 12.8318 73.7754C13.1408 73.921 12.7377 74.4616 12.5386 74.3259Z" fill="#3D007C"/>
<path d="M15.3956 75.3751C15.4469 75.4659 15.4019 75.6204 15.4126 75.728L15.0549 75.7174C15 75.589 14.9214 75.4168 15.0059 75.2848C15.0903 75.1528 15.372 75.3335 15.3956 75.3755V75.3751Z" fill="#3D007C"/>
</svg>
