<svg width="104" height="109" viewBox="0 0 104 109" fill="none" xmlns="http://www.w3.org/2000/svg">
<path d="M17.2299 22.5925C16.8998 23.2809 17.3403 24.002 17.2108 24.7141L3.441 30.5799C3.27988 30.6948 3.37227 30.9652 3.47593 31.1072C3.61226 31.2931 5.53784 32.1866 5.92206 32.3781C19.6152 39.196 33.5202 45.864 47.3857 52.3213C49.1197 53.1291 51.1174 54.4711 53.0599 53.8592L100.699 31.5861L100.609 31.0971L80.8912 22.5925C80.8687 28.3478 79.8524 34.0356 79.5392 39.7751L79.3578 40.0444L77.2857 40.9571C77.5786 37.6005 77.7871 34.2327 78.0744 30.874C78.2355 28.9946 79.1482 23.8792 78.5454 22.4021C78.3426 21.9041 77.8986 21.3745 77.6395 20.8292C77.2891 20.0934 77.0232 19.2934 76.7235 18.5352C81.5684 20.703 86.428 22.8517 91.2932 24.9778C94.7725 26.4978 98.6766 27.8893 102.037 29.5579C104.23 30.6475 103.664 31.2187 103.759 33.3562C103.867 35.7876 104.174 39.5678 103.867 41.9046C103.717 43.055 102.716 43.6026 102.633 44.5006C102.326 47.785 102.875 51.5393 102.636 54.8744C102.692 55.6507 103.498 55.902 103.549 56.6693C103.617 57.707 102.727 57.6451 102.633 58.3583L102.635 76.6214C102.582 77.8405 103.712 78.4174 103.513 79.6332C103.425 80.1695 103.043 80.6698 102.639 81.0134L56.1021 108.052C53.4531 109.092 50.3141 109.086 47.8037 107.679C32.2706 98.605 16.7082 89.5743 1.01403 80.7802C-0.104814 79.7233 0.128418 77.96 1.33064 77.0541C1.62809 70.865 1.36782 64.5834 1.46247 58.3594C1.53007 57.5222 0.474324 57.52 0.436016 56.6727C0.392073 55.6981 1.37345 55.2677 1.46021 54.5364C1.21909 51.1258 1.77232 47.2972 1.46359 43.9373C1.38697 43.1035 0.244472 42.3655 0.107011 41.0123C-0.220867 37.7707 0.32785 33.9736 0.131799 30.6734C0.378552 29.9208 1.07262 29.4678 1.75542 29.1422L17.2322 22.5925H17.2299ZM5.62348 38.4783L5.68094 34.6474L2.01907 32.7331C2.04498 33.3595 2.12273 33.9668 2.13512 34.5978C2.14864 35.2671 1.87372 35.7617 2.25681 36.493C2.4923 36.9425 5.4939 38.627 5.62235 38.4783H5.62348ZM101.847 33.408L98.1775 35.0958C98.1268 35.1747 98.2417 35.2434 98.2417 35.2671V39.1543C99.4586 38.5019 100.905 38.1493 101.847 37.0699V33.408ZM38.1871 53.9145V50.3653L7.65271 35.5488V39.2106C8.63522 40.3205 12.1585 40.8399 12.1619 42.5908C12.1619 43.0111 11.9208 43.5384 11.4385 43.4359L7.65271 41.7458V44.2809L38.1871 59.4354V56.2242C37.4524 55.5178 33.341 54.0035 33.0638 53.3488C32.7867 52.6942 33.3241 51.7759 34.0644 51.8886L38.1871 53.9133V53.9145ZM65.2286 56.2242V60.0551C65.2286 60.0968 65.3773 60.2241 65.3424 60.3379C74.9477 55.8592 84.2872 50.8114 93.8069 46.1558C94.5923 45.7716 95.5488 45.5203 96.2136 44.957V42.7035C96.2136 42.5874 95.9883 42.5311 95.8452 42.5525C95.0215 42.6776 91.878 45.3186 91.8092 43.1553C91.8025 42.9379 91.8216 42.7655 91.9039 42.5638C92.2487 41.7154 95.337 40.7982 96.1066 40.0906C96.297 39.7706 96.2666 36.689 96.1122 36.2676C96.0683 36.1482 96.1663 36.0693 95.9432 36.1234L65.3559 50.4374L65.2286 53.9145L69.5946 51.7939C70.7788 51.7387 71.0166 53.0266 70.1096 53.6711C68.8758 54.5477 66.8049 55.0986 65.5249 55.9595C65.4122 56.035 65.3131 56.1195 65.2263 56.2242H65.2286ZM5.73728 40.7317L2.13174 38.929V41.2387C2.13174 41.9925 4.91589 43.0122 5.50742 43.3874L5.73728 43.2669V40.7317ZM98.1291 43.9992C99.0079 43.7829 101.898 42.5424 101.957 41.5711C101.969 41.3717 101.846 41.1396 101.843 40.9052C101.836 40.4343 101.859 39.9622 101.847 39.4923L98.1302 41.4641V43.9992H98.1291ZM5.73728 57.351V45.8583L3.37114 44.5626V54.8722C3.37114 55.137 2.8044 55.9865 2.92834 56.1589L5.50742 57.4715L5.73728 57.351ZM98.1291 46.647V57.7453L100.955 56.4338C100.922 56.0102 100.745 55.6451 100.716 55.2147C100.495 51.9044 100.89 48.3495 100.719 45.0144C100.63 44.9141 98.4614 46.104 98.3217 46.2482C98.2541 46.318 98.1403 46.5625 98.1279 46.6482L98.1291 46.647ZM7.65271 46.7034V58.6467L14.4886 62.2353C14.6846 62.2906 14.6125 62.241 14.6655 62.1125C14.8289 61.7148 14.7207 61.2585 14.759 60.8382L14.6813 60.6624C13.1816 59.8444 11.3766 59.1999 9.91857 58.3515C8.62283 57.5977 9.21661 56.2118 9.23464 54.9882C9.26394 53.0412 9.47463 49.8132 9.21999 48.0081C9.09605 47.1327 8.35579 47.002 7.65271 46.7023V46.7034ZM96.0998 47.3794C95.7719 47.5101 95.0418 47.6273 94.9742 47.9991L94.9787 56.7921C94.9258 57.369 94.6982 58.0417 94.2238 58.4033L89.7901 60.73L89.6797 62.2522L96.1607 58.9915L96.0998 47.3805V47.3794ZM14.7511 58.4214V50.3653L11.1456 48.3935V56.3369C11.1456 56.4811 11.6706 57.0118 11.8543 57.093L14.7511 58.4214ZM92.9461 48.8442L89.5659 50.5343V58.4214L92.9461 56.8439V48.8442ZM43.5954 56.5059V52.9567L40.1577 51.2114C40.0079 52.3821 39.8321 53.6283 40.1318 54.7865L43.5954 56.5059ZM16.6665 51.323V63.379L30.4633 70.3636L30.62 70.1777L30.5681 69.0014C26.9739 67.0375 23.1914 65.3891 19.5938 63.4387C18.8332 63.0263 17.6288 62.6387 17.6761 61.6382V51.9472C17.6017 51.5438 17.0508 51.2633 16.6665 51.3241V51.323ZM63.3131 54.8158V51.7173C63.3131 51.6734 63.5373 51.6137 63.2568 51.4379C62.3453 52.1015 61.1104 52.2852 60.271 53.0694V56.2806L63.3131 54.8158ZM87.6505 51.7737C87.2595 51.6047 86.864 51.7489 86.7513 52.1703L86.7547 62.0889C86.7874 62.5801 86.4212 62.9407 86.0393 63.1762L73.2655 69.8509C73.4278 70.047 73.1878 70.9089 73.5078 70.8131L87.6516 63.4353V51.7737H87.6505ZM19.7087 52.7877V60.8438C19.7087 60.9621 19.9577 61.3858 20.1188 61.4478L30.3597 66.6442C30.585 66.6758 30.5062 66.6386 30.5264 66.4809C30.7698 64.4798 30.8014 61.0557 30.6425 59.0377C30.6177 58.7166 30.5467 58.3966 30.4678 58.0856L19.7098 52.7877H19.7087ZM84.8336 53.0131L73.341 58.7594V67.4352L84.3762 61.8511L84.8336 61.4072V53.0131ZM51.1445 56.0552C49.1096 55.84 47.3564 54.4801 45.5108 53.6891V57.351C46.6747 57.9008 49.7529 59.9177 50.9574 59.5301L51.1445 59.3791V56.0552ZM53.1726 59.4354C53.8317 59.4095 54.4537 59.1413 55.0508 58.8912C56.0953 58.4552 57.3527 57.7983 58.2428 57.1256V53.8018C56.5708 54.5409 54.9404 55.5899 53.1726 56.0552V59.4354ZM43.5954 58.6467L40.1036 57.0693C40.0755 58.0541 39.8704 59.1943 39.9842 60.1734C40.009 60.3819 39.9955 60.4134 40.1712 60.5498C40.9307 61.1379 42.6027 61.6247 43.4827 62.1396C43.4478 62.0269 43.5965 61.8996 43.5965 61.8568V58.6456L43.5954 58.6467ZM60.1583 58.703V62.6466L60.4208 62.7998L63.3706 61.2393L63.3131 57.0704L60.1594 58.7042L60.1583 58.703ZM5.73728 59.9988L3.37114 58.7594V73.2379C3.37114 73.2942 3.49734 73.4756 3.5672 73.524L5.73728 74.7589V59.9988ZM98.1291 74.9843C99.0338 74.6046 99.951 74.0615 100.721 73.4632V58.8721L98.1291 60.2805V74.9843ZM32.5771 71.5816L43.2506 77.3042C43.7937 77.5059 43.6382 75.8879 43.4849 75.7155L34.1399 70.7512C33.7568 70.4886 33.5607 70.1078 33.5641 69.6368L33.5664 59.832C33.4976 59.476 33.0413 59.3149 32.7247 59.2078L32.5782 71.5804L32.5771 71.5816ZM45.5108 59.6608V63.0973C45.61 63.2325 45.7474 63.3091 45.8838 63.4004C46.6229 63.8984 48.4527 64.7671 49.318 65.1491C49.6628 65.3012 50.5901 65.6921 50.9123 65.7023C51.0509 65.7068 51.0588 65.6843 51.1445 65.5761V61.7452C50.8977 61.45 50.4549 61.6156 50.0876 61.5627C48.473 61.3295 47.0071 60.2647 45.5108 59.6608ZM58.2428 59.6608C56.4897 60.0337 55.0835 61.5492 53.1726 61.4635V65.7451C54.9629 65.6234 56.7387 64.562 58.2428 63.6607V59.6608ZM71.3129 59.7734C70.0194 60.0112 70.2639 60.774 70.3 61.8568C70.3856 64.4144 70.629 67.5546 70.4149 70.0864C70.3856 70.4357 70.3169 70.8334 70.1129 71.1252C69.909 71.4171 68.2189 72.279 67.7817 72.5246C65.2984 73.9207 62.7622 75.2491 60.227 76.5493C60.1132 76.6349 60.129 77.5363 60.1572 77.7459C60.1774 77.9025 60.0952 77.9408 60.3239 77.9115L71.3118 72.0537V59.7723L71.3129 59.7734ZM43.5954 64.6184L35.7612 60.6771C35.5359 60.6455 35.6147 60.6838 35.5956 60.8416C35.5021 61.6055 35.5978 62.1723 35.6001 62.8674C35.608 64.6488 35.3984 67.042 35.5933 68.7332C35.6147 68.9202 35.6429 69.0847 35.7669 69.2357C38.0755 70.5258 40.3684 71.8993 42.7312 73.088C43.005 73.2255 43.272 73.4271 43.5954 73.4069V64.6184ZM7.65271 61.0128V75.7167L14.4717 79.605C14.706 79.667 14.7376 79.2568 14.7511 79.098C14.8052 78.4794 14.7049 77.8045 14.759 77.178L14.6779 77.0023L9.75519 74.2902L9.27971 73.7516L9.23126 61.8816L7.65159 61.0128H7.65271ZM63.5385 72.5055L68.0386 69.9636C68.2302 69.861 68.4961 69.238 68.4961 69.069V61.1255C66.8511 61.9999 64.9874 62.5925 63.5385 63.7733V72.5055ZM89.5659 78.0265V79.7165L96.0829 76.2057C96.0176 75.2908 96.1922 74.3533 96.2192 73.4688C96.3409 69.4757 96.1753 65.442 96.1009 61.4647C96.0142 61.3757 94.83 61.8162 94.9686 62.1903C94.7376 65.9806 95.2987 70.1765 94.9787 73.9184C94.8897 74.9606 94.6272 75.3257 93.7697 75.8643C92.5033 76.6586 90.8763 77.2637 89.567 78.0276L89.5659 78.0265ZM14.7511 74.7589V64.7874L11.1467 62.8156L11.3168 72.8412L14.7511 74.7589ZM89.5659 64.6184V75.604L89.7958 75.7245L92.8413 73.9218C92.9393 73.2491 93.0351 72.4796 93.0644 71.7787C93.1861 68.8504 92.963 65.8623 93.0588 62.9294L89.567 64.6195L89.5659 64.6184ZM60.1583 74.3083C60.4918 74.3229 61.5104 73.3257 61.5104 73.1252V64.6184L60.1583 65.3508V74.3083ZM51.0318 79.0405C50.0774 78.8816 46.8674 78.0828 46.5756 77.1307L46.5181 66.3716C46.4697 65.8262 45.8973 65.744 45.5108 65.5198V78.4208C47.2764 79.3605 49.0555 80.6776 51.0318 81.0686V79.0405ZM30.638 88.6177V85.9699L17.8045 78.7476C17.6862 78.5808 17.693 78.3926 17.6761 78.2C17.3922 75.0812 17.7933 71.7427 17.7989 68.6228C17.8 67.8656 17.604 67.1287 17.6817 66.3637L16.8356 65.6324C16.7172 65.833 16.6789 66.1271 16.662 66.3592C16.3308 70.9123 16.9246 75.8586 16.6598 80.4546L16.7218 80.8433L30.638 88.6166V88.6177ZM87.6505 77.1251V65.7451C87.3282 65.9017 86.8336 65.9355 86.7513 66.3671C86.8043 70.1123 86.6849 73.8407 86.6364 77.5746L87.6493 77.1251H87.6505ZM58.2428 66.1958L57.5623 66.384L57.462 77.1904C57.275 77.667 56.2406 78.1076 55.7607 78.3059C54.9415 78.6439 54.0751 78.9301 53.1726 78.929V81.1824C54.9697 80.921 56.7342 79.7233 58.2428 78.76V66.1969V66.1958ZM51.1445 67.7732C50.2352 67.7315 49.3552 67.3834 48.553 66.9845V75.942C48.553 76.4952 50.6543 76.9572 51.1445 76.8997V67.7732ZM19.7087 67.2099V77.0687C19.7087 77.107 19.9408 77.6163 19.996 77.6828L30.4746 83.5429C30.674 83.6308 30.6335 83.0629 30.6391 82.9356C30.7 81.3852 30.5467 79.8439 30.5208 78.3126C30.4949 76.7983 30.7225 74.6395 30.5309 73.2322C30.514 73.1083 30.5197 72.9877 30.4205 72.8919L19.7087 67.2099ZM53.0599 67.8859V76.8997C53.772 76.8355 55.3336 76.6394 55.515 75.8057C55.5883 75.4676 55.6356 74.6474 55.6559 74.2564C55.7742 71.9838 55.5578 69.6053 55.6502 67.3225C54.8458 67.6898 53.9568 67.9231 53.0599 67.8848V67.8859ZM73.341 84.5615L73.6734 84.4995C76.7809 82.4094 81.1042 80.9379 84.0833 78.7971C84.4787 78.5132 84.792 78.2417 84.8404 77.7515C85.0748 75.3944 84.7998 72.261 84.7165 69.8622C84.6872 69.0183 84.748 68.1653 84.7198 67.3225L73.341 73.4632V84.5615ZM43.5954 95.5471C43.699 94.8372 43.5199 93.9178 43.5954 93.181C43.2833 92.7889 42.8506 92.5737 42.4315 92.3168C39.9425 90.7878 36.6423 89.527 34.319 87.9225C33.7556 87.5338 33.5573 86.9885 33.5573 86.3068C33.5607 82.7238 33.9539 78.9673 33.679 75.3786C33.6666 75.2175 33.5472 74.3477 33.5168 74.3015C33.4897 74.2598 32.5884 73.7843 32.6548 74.1235L32.6233 89.8673L43.4286 95.8254C43.4635 95.8367 43.5909 95.5764 43.5954 95.546V95.5471ZM60.1583 96.3921L71.3129 90.0261V74.4209L70.407 74.9471L70.327 88.3642L69.6566 88.9332L60.1583 94.3077V96.3921ZM35.5956 75.435V85.6319C35.5956 85.891 36.0756 86.5513 36.3482 86.682L43.5942 90.6458C43.5559 88.4498 43.6472 86.2448 43.601 84.0488C43.5942 83.7277 43.4872 83.455 43.4782 83.1576C43.4602 82.539 43.601 79.9577 43.379 79.6512L35.5956 75.435ZM5.73615 80.7306L5.67531 77.2321L3.48494 75.773C3.31143 76.8614 3.19988 78.0591 2.35934 78.8715L5.73728 80.7295L5.73615 80.7306ZM68.3834 86.984V75.8857L63.3131 78.6462V90.0825C63.9328 89.8616 64.5379 89.5473 65.1181 89.2397C65.8212 88.8667 67.3491 88.0972 67.9023 87.642C68.0262 87.5406 68.3575 87.0978 68.3834 86.984ZM98.2429 81.0686L101.234 79.2692C101.105 78.7521 100.821 78.2518 100.75 77.7155C100.706 77.3842 100.819 76.164 100.548 76.111L98.1471 77.4248L98.2429 81.0686ZM7.65271 78.1391V81.9137L14.5213 85.8651L14.7511 85.7446V82.3644C14.7511 82.2787 14.4615 81.9317 14.341 81.8731L7.65271 78.1391ZM96.2136 78.4771L89.5659 82.0827V85.8572C89.5659 86.1445 89.976 85.8775 90.091 85.8189C92.1394 84.7801 94.154 83.3187 96.2136 82.2517V78.4771ZM73.341 88.8431L87.6505 80.7869V79.1532L73.341 87.0403V88.8431ZM61.3977 79.7165L60.1583 80.3362V91.8852C60.5538 91.8931 61.3977 91.1393 61.3977 90.8148V79.7165ZM45.5108 80.8433V96.9555C47.3598 97.849 49.0454 99.2844 51.1445 99.5459C51.1997 99.5053 51.0318 99.4028 51.0318 99.378V96.7302C49.8915 96.7121 48.4561 96.0845 47.5029 95.4705C46.8077 95.022 46.5936 94.5871 46.5204 93.7488C46.1868 89.9326 46.9339 85.4482 46.5249 81.6872C46.4561 81.0517 46.0618 81.0359 45.5108 80.8444V80.8433ZM58.2428 81.4066L57.4913 81.7942C57.5431 81.9801 57.5747 82.1638 57.5736 82.3587C57.5431 86.0465 57.8406 90.256 57.5724 93.8615C57.462 95.3364 56.7849 95.6417 55.5038 96.1871C54.7973 96.4879 53.9432 96.7595 53.1737 96.7302V99.547C55.0136 99.3543 56.8006 98.4518 58.244 97.3499V81.4066H58.2428ZM51.0318 83.2094L48.5541 82.4207C48.642 82.9773 48.4459 83.5181 48.4358 84.0488C48.4234 84.6539 48.5541 85.2094 48.5586 85.74C48.5778 87.8391 48.2612 91.2385 48.5811 93.1539C48.7569 94.2097 50.1135 94.4361 51.0329 94.4767V83.2094H51.0318ZM55.5387 82.646L53.1726 83.2094V94.5894C53.6548 94.6097 55.5387 93.9133 55.5387 93.4063V82.646ZM30.638 94.8711V91.1528L16.9246 83.3446L16.6665 83.3232C16.7894 84.4702 16.5268 85.7367 16.6598 86.878C16.6789 87.0403 16.6711 87.1744 16.8468 87.2544L30.4081 94.9916L30.638 94.8711ZM87.6505 83.3221L73.341 91.3782V95.3217L73.5709 95.4423L87.6505 87.2656V83.3221ZM43.5954 102.589V98.3639L32.5534 92.1106V96.2231L43.5954 102.589ZM60.1583 103.265C63.8607 101.047 67.6984 99.0399 71.3129 96.6738V92.5613L60.1583 98.7583V103.265ZM51.0318 101.688C48.9879 101.55 47.3203 100.135 45.5108 99.3216V103.772C47.2167 104.832 48.9665 106.227 51.0318 106.42V101.688ZM58.2428 99.885C56.6035 100.606 55.0756 101.78 53.1726 101.575V106.251C53.1726 106.275 53.0036 106.378 53.0599 106.419C55.0024 106.402 56.8299 105.499 58.2428 104.223V99.885Z" fill="#3D007C"/>
<path d="M28.6148 41.5205L18.1553 36.2632L18.1328 14.5308C18.2489 13.3422 18.3717 12.3439 19.8252 12.8475C21.1468 13.3061 22.9327 14.3134 24.2622 14.9455C33.7898 19.4738 43.4651 24.1351 52.8428 28.9552C54.2028 29.6538 56.4495 30.6036 57.61 31.3991C58.8697 32.2622 58.5677 33.4937 58.4731 34.8165C58.1035 39.9848 57.379 45.1497 56.9599 50.3169C56.8945 50.5186 56.7898 50.5625 56.6388 50.6718C56.2275 50.9693 53.7037 52.0859 53.1538 52.2571C52.3786 52.4971 51.5967 52.558 50.8158 52.2785L44.8397 49.3535C44.0487 44.877 41.5406 39.7797 37.508 37.4181C33.4755 35.0565 29.1973 36.6069 28.6148 41.5216V41.5205ZM27.9376 37.6896C28.4413 36.6102 29.4001 35.7539 30.3691 35.0982L30.4051 34.9494L26.0808 26.4223C24.2126 28.1 22.7592 30.0234 21.7688 32.3399L27.9365 37.6885L27.9376 37.6896Z" fill="#3D007C"/>
<path d="M75.8206 19.8872L43.9375 5.29609C46.3915 3.4629 48.0005 1.13508 51.1452 0.337353C59.0244 -1.66034 66.6163 5.62397 70.8438 11.4007C72.7728 14.0384 74.5462 16.8755 75.8206 19.8872Z" fill="#3D007C"/>
<path d="M71.3967 43.7481L68.2689 45.2388C68.4785 43.3121 68.5495 41.3673 68.7196 39.4373C69.0171 36.0559 69.6086 32.4369 69.737 29.0747C69.799 27.4714 69.7111 26.5531 68.27 25.6878L31.9465 8.74403C31.5432 7.26914 32.5854 6.01847 34.1313 6.41959C44.7191 11.5924 55.5301 16.2976 66.1676 21.3679C67.8858 22.187 69.6615 22.9746 71.3505 23.8467C72.7826 24.587 73.1668 24.8675 73.1116 26.5903L71.3967 43.7481Z" fill="#3D007C"/>
<path d="M66.4389 46.111L63.3145 47.4924C63.3235 46.7262 63.3663 45.9476 63.4272 45.1837C63.7866 40.688 64.6632 35.7789 64.7826 31.3294C64.8615 28.4078 63.0283 28.0811 60.8211 26.9442C51.9109 22.3528 42.568 18.1219 33.4956 13.8201C31.4067 12.8297 29.3019 11.8449 27.1589 10.9751C26.9764 9.62299 28.191 8.61344 29.4743 9.27821C41.7061 15.1327 54.2398 20.4351 66.395 26.4405C67.8068 27.138 68.2135 27.5098 68.1561 29.1841L66.4378 46.1132L66.4389 46.111Z" fill="#3D007C"/>
<path d="M73.0019 42.9851L74.6898 26.2531C74.7461 24.8064 74.4757 24.0707 73.2284 23.3225C71.2848 22.1564 68.7091 21.1186 66.619 20.1294C57.6987 15.9075 48.6984 11.8107 39.7263 7.6993C38.6739 7.21706 37.6046 6.73257 36.5083 6.35398C36.2604 5.04811 37.5077 3.98447 38.7122 4.54446C49.7282 9.69474 60.9234 14.4743 71.9147 19.6776C73.0391 20.2105 76.2548 21.5265 76.8914 22.3626C77.3703 22.9913 77.3015 23.5851 77.2813 24.3366C76.4858 29.8373 76.6052 35.747 75.7872 41.2082C75.7681 41.3333 75.7298 41.5677 75.6802 41.6646C75.5224 41.9688 73.4605 42.7428 73.0019 42.9851Z" fill="#3D007C"/>
<path d="M61.5954 48.3685L58.5814 49.7465L60.276 32.9053C60.3222 31.996 59.9481 31.107 59.2586 30.5335C47.0719 24.3174 34.7612 18.3356 22.3627 12.5509C22.0799 12.3729 22.3954 11.5594 22.5892 11.3341C23.3373 10.4665 24.3728 11.1639 25.1919 11.5313C33.4238 15.219 41.6095 19.2167 49.7185 23.1726C53.9686 25.2458 58.2017 27.3708 62.4134 29.5195C63.1706 30.1966 63.1221 31.178 63.0906 32.1188C62.9632 35.9418 62.2951 40.0972 61.9605 43.9461C61.9075 44.5557 61.7982 48.1691 61.5943 48.3697L61.5954 48.3685Z" fill="#3D007C"/>
<path d="M88.5286 42.3399C91.3127 41.9501 90.7775 45.541 89.617 47.0328C88.826 48.0491 86.2334 49.1071 84.9918 49.7313C81.7998 51.3335 78.5548 52.8489 75.3233 54.3723C71.8361 55.3559 72.2023 50.493 74.2541 49.0214C77.392 47.5105 80.513 45.9353 83.6713 44.4672C84.7338 43.9726 87.5776 42.474 88.5297 42.3399H88.5286Z" fill="#3D007C"/>
<path d="M15.1788 41.6602C15.4627 41.6016 15.759 41.6252 16.0452 41.6444L29.6246 48.2324C31.6515 49.6859 32.3501 54.5037 28.7277 53.7477C25.7317 52.1556 22.6186 50.7833 19.5978 49.2453C18.0508 48.4577 15.2024 47.2701 14.4002 45.7671C13.7613 44.5716 13.4436 42.0196 15.1788 41.6602Z" fill="#3D007C"/>
</svg>
