<svg width="32" height="27" viewBox="0 0 32 27" fill="none" xmlns="http://www.w3.org/2000/svg">
<path d="M19.4425 22.9258C19.4746 22.9579 19.5067 22.99 19.5067 22.99L19.4746 23.0221C19.3784 23.0221 19.2821 23.0541 19.1859 23.0541C19.0576 23.0541 18.9293 23.0541 18.801 23.0862C18.7689 23.0862 18.7048 23.0862 18.6727 23.0862C17.9671 23.0862 17.2614 23.0862 16.5557 23.0862C16.0425 23.0862 15.5293 23.0862 15.0161 23.0862C14.6312 23.0862 14.2784 23.0541 13.8935 23.0541C13.8293 23.0541 13.7652 23.0541 13.701 23.0541C13.6369 23.0541 13.5407 23.0541 13.4765 23.0541C13.3161 23.0221 13.1558 23.0221 12.9954 23.0221C12.835 23.0221 12.6746 22.99 12.5142 22.9579C12.5142 22.8617 12.5142 22.8296 12.418 22.8296C12.1935 22.7975 11.969 22.7334 11.7124 22.7334C11.4878 22.7013 11.2312 22.6372 11.0067 22.573C10.9426 22.573 10.8784 22.5409 10.8463 22.5089C10.7501 22.4768 10.6539 22.5089 10.5577 22.6051C10.3011 22.8617 10.0445 23.1504 9.78785 23.407C9.69162 23.5353 9.56332 23.6315 9.43502 23.7277C8.98597 24.1126 8.50484 24.4975 7.99163 24.8183C7.5105 25.139 6.9973 25.3956 6.48409 25.6522C6.22749 25.7805 5.90673 25.8768 5.61806 25.973C5.48976 26.0051 5.36145 26.0692 5.26523 26.1013C5.13693 26.1334 5.0407 26.1654 4.9124 26.1975C4.75202 26.2296 4.55957 26.2937 4.3992 26.3258C4.04637 26.39 3.69354 26.4541 3.34071 26.4541C2.92373 26.4862 2.50675 26.4541 2.08977 26.39H2.0577C1.9294 26.3579 1.89732 26.2617 1.9294 26.1334C1.96147 26.1013 1.99355 26.0371 1.99355 26.0051C2.3143 25.5881 2.60298 25.2032 2.92373 24.7862C3.11618 24.5617 3.27656 24.3051 3.46901 24.0805C3.72561 23.7277 4.01429 23.3749 4.27089 23.0221C4.43127 22.8296 4.55957 22.6051 4.71995 22.4126C4.81617 22.2843 4.9124 22.156 5.00863 22.0277C5.13693 21.8353 5.2973 21.6428 5.42561 21.4504C5.42561 21.4183 5.45768 21.4183 5.45768 21.3862C5.52183 21.29 5.48976 21.2258 5.39353 21.1938C5.36145 21.1617 5.2973 21.1617 5.23315 21.1296C4.7841 20.9692 4.33504 20.7768 3.91807 20.5523C3.66146 20.424 3.37279 20.2636 3.11618 20.1353C3.08411 20.1032 3.05203 20.1032 2.98788 20.0711C2.8275 19.9749 2.63505 19.8787 2.47468 19.7504C2.37845 19.6862 2.25015 19.59 2.15392 19.5258C2.02562 19.4296 1.89732 19.3334 1.76902 19.2372C1.64072 19.1409 1.51242 19.0447 1.41619 18.9164C1.25582 18.756 1.09544 18.5957 0.935062 18.4353C0.67846 18.1787 0.486007 17.89 0.325631 17.5693C0.197329 17.3447 0.0690276 17.0881 0.0369523 16.8315C0.0369523 16.7353 0.00487745 16.6391 0.00487745 16.5749C0.00487745 16.3825 0.00487745 16.19 0.00487745 15.9976C-0.0271979 15.6127 0.101103 15.2919 0.325631 15.0032C0.550158 14.6825 0.806761 14.3938 1.09544 14.1372C1.12751 14.1051 1.15959 14.073 1.22374 14.041C1.41619 13.9127 1.57657 13.7844 1.76902 13.624C1.9294 13.4957 2.12185 13.3674 2.28222 13.2391C2.34637 13.207 2.41053 13.1429 2.47468 13.1108C2.98788 12.8542 3.53316 12.5976 4.04637 12.4051C4.6558 12.1806 5.2973 11.9561 5.90674 11.7636C6.16334 11.6995 6.38786 11.6353 6.64447 11.5712C6.67654 11.5712 6.67654 11.5712 6.70862 11.5391C7.15767 11.4108 7.60673 11.3146 8.08786 11.2183C8.44068 11.1542 8.79351 11.09 9.14634 11.0259C9.33879 10.9938 9.53125 10.9297 9.7237 10.8655C9.852 10.8334 10.0124 10.8014 10.1407 10.8014C10.3331 10.7693 10.5577 10.7693 10.7501 10.7693C10.9105 10.7693 11.0709 10.7372 11.2312 10.7372C11.5199 10.7051 11.8086 10.7051 12.1293 10.6731C12.5143 10.641 12.9312 10.6089 13.3161 10.5448C13.5727 10.5127 13.7652 10.4165 13.9256 10.1919C14.3105 9.67873 14.6954 9.16552 15.0803 8.65232L15.1123 8.62024C15.2086 8.49194 15.1765 8.42779 15.0482 8.39571C14.952 8.36364 14.9199 8.29949 14.8557 8.23534C14.6954 7.97873 14.5029 7.69006 14.3425 7.43345C14.3105 7.40138 14.3105 7.3693 14.2784 7.33723C14.1822 7.20893 14.118 7.20893 13.9576 7.241C13.8614 7.27308 13.7973 7.30515 13.701 7.33723C13.4124 7.46553 13.1237 7.4976 12.835 7.52968C12.6426 7.56175 12.4822 7.56175 12.2897 7.52968C12.0331 7.4976 11.8086 7.46553 11.552 7.40138C11.0067 7.27308 10.5577 7.01648 10.1086 6.66365C9.81992 6.43912 9.59539 6.15044 9.37087 5.86176C9.01804 5.38063 8.76144 4.83535 8.63314 4.258C8.50484 3.84102 8.50483 3.39196 8.53691 2.94291C8.60106 2.33348 8.76144 1.7882 9.05012 1.27499C9.17842 1.01839 9.33879 0.761789 9.53124 0.569337C9.59539 0.505186 9.65955 0.441036 9.75577 0.40896C9.88407 0.312735 10.0444 0.248584 10.1407 0.0882074C10.1728 0.056132 10.1728 0.0561318 10.2048 0.0240565C10.269 -0.00801883 10.3011 -0.00801883 10.3652 0.0240565C10.3973 0.0561318 10.3973 0.056132 10.4294 0.0882074C10.7501 0.537262 11.0709 0.95424 11.3916 1.40329C11.552 1.62782 11.7444 1.85235 11.9369 2.10895C12.1935 2.46178 12.4501 2.78253 12.7067 3.13536C13.0275 3.55234 13.3161 3.96932 13.6369 4.3863C13.8614 4.67498 14.0859 4.96365 14.3105 5.28441C14.5991 5.66931 14.8878 6.05422 15.1765 6.43912C15.3369 6.63157 15.4652 6.82402 15.5935 7.04855C15.6576 7.14478 15.7539 7.241 15.818 7.33723C15.9142 7.46553 15.9784 7.43345 16.0746 7.33723C16.1708 7.20893 16.2671 7.1127 16.3312 6.9844C16.3633 6.95232 16.3954 6.88817 16.4274 6.8561C16.684 6.56742 16.8765 6.24667 17.101 5.95799C17.1972 5.82969 17.2935 5.73346 17.3576 5.60516C17.4859 5.44478 17.6142 5.28441 17.7425 5.12403C17.9671 4.83535 18.1916 4.5146 18.4161 4.22592C18.7048 3.87309 18.9614 3.48819 19.2501 3.13536C19.4104 2.91083 19.5708 2.68631 19.7312 2.46178C19.9236 2.20518 20.1161 1.98065 20.3086 1.72405C20.4048 1.62782 20.4689 1.49952 20.5652 1.37122C20.8538 0.986316 21.1746 0.569337 21.4633 0.184433C21.4633 0.152358 21.4953 0.152357 21.5274 0.120282C21.5916 0.0240562 21.6557 0.024056 21.784 0.0561313C21.9123 0.0882066 22.0085 0.152358 22.0727 0.248584C22.1368 0.34481 22.2331 0.40896 22.2972 0.505186C22.3934 0.601412 22.4897 0.729713 22.5538 0.825939C22.7463 1.11462 22.9067 1.40329 23.035 1.72405C23.2274 2.20518 23.2916 2.71838 23.3236 3.23159C23.3557 3.77687 23.2274 4.32215 23.067 4.83535C22.9067 5.28441 22.7142 5.66931 22.3934 6.02214C22.2972 6.15044 22.201 6.27874 22.1048 6.37497C21.9765 6.50327 21.8161 6.63157 21.6878 6.75987C21.335 7.01647 20.918 7.241 20.501 7.3693C20.0199 7.4976 19.5387 7.56175 19.0255 7.4976C18.8331 7.46553 18.6727 7.43345 18.4803 7.40138C18.4161 7.40138 18.352 7.3693 18.2878 7.33723C18.1916 7.30515 18.0954 7.27308 17.9991 7.241C17.9029 7.20893 17.8388 7.241 17.7746 7.30515C17.7105 7.3693 17.6463 7.46553 17.5821 7.52968C17.3897 7.78628 17.1652 8.04288 16.9727 8.29949C16.9406 8.36364 16.8765 8.42779 16.8444 8.45986C16.7803 8.55609 16.7803 8.65232 16.8444 8.74854C16.9727 8.90892 17.0689 9.0693 17.1972 9.22967C17.2935 9.39005 17.4218 9.51835 17.518 9.67873C17.5821 9.74288 17.6142 9.8391 17.6784 9.87118C17.8388 9.99948 17.9671 10.1599 18.0633 10.3202C18.1595 10.5127 18.3199 10.5768 18.5444 10.5768C18.7689 10.5768 18.9614 10.6089 19.1859 10.6089C19.4425 10.641 19.6991 10.641 19.9557 10.6731C20.1161 10.6731 20.3086 10.7051 20.4689 10.7051C20.5331 10.7051 20.5972 10.7372 20.6935 10.7372C20.918 10.7693 21.1425 10.8014 21.335 10.8014C21.367 10.8014 21.367 10.8014 21.3991 10.8014C21.9765 10.8976 22.5217 10.9617 23.0991 11.09C23.4199 11.1542 23.7406 11.1863 24.0614 11.3146C24.0934 11.3146 24.1255 11.3466 24.1576 11.3466C24.4783 11.3787 24.7991 11.4749 25.1198 11.5712C25.5368 11.6995 25.9859 11.7957 26.4349 11.924C26.4991 11.924 26.5632 11.9561 26.5953 11.9881C26.884 12.0844 27.1727 12.1806 27.4613 12.2768C27.6538 12.341 27.8783 12.4372 28.0708 12.5014C28.3915 12.6297 28.7123 12.79 29.0651 12.9504C29.0972 12.9504 29.1293 12.9825 29.1613 12.9825C29.5462 13.1108 29.8349 13.3674 30.1557 13.5919C30.4123 13.8164 30.6689 14.041 30.8934 14.2976C31.1179 14.5542 31.3104 14.7787 31.4708 15.0674C31.567 15.2598 31.6632 15.4844 31.7274 15.6768C31.7594 15.773 31.7915 15.8372 31.8236 15.9334C31.8557 16.0296 31.8877 16.0938 31.8877 16.19C31.8877 16.3183 31.8877 16.4466 31.8877 16.607C31.8877 16.8957 31.8557 17.1523 31.7594 17.4089C31.6632 17.6655 31.5349 17.9221 31.3745 18.1466C31.2462 18.307 31.0859 18.4674 30.9255 18.6277C30.8613 18.6919 30.7651 18.756 30.6689 18.8523C30.4123 19.1089 30.0915 19.3334 29.7708 19.5258C29.5462 19.6862 29.2896 19.8145 29.033 19.9749C28.9047 20.0711 28.7444 20.1353 28.6161 20.1994C28.0387 20.456 27.4934 20.7447 26.9161 20.9692C26.7878 21.0013 26.6915 21.0655 26.5632 21.0975C26.5312 21.0975 26.4991 21.1296 26.4349 21.1296C26.3387 21.1617 26.3387 21.2258 26.3708 21.3221C26.4029 21.3862 26.4349 21.4183 26.467 21.4824C26.6274 21.707 26.7878 21.8994 26.9481 22.1239C27.3651 22.6692 27.75 23.2145 28.167 23.7277C28.1991 23.7919 28.2312 23.8239 28.2953 23.8881C28.5519 24.2088 28.8085 24.5296 29.033 24.8824C29.0651 24.9145 29.0651 24.9466 29.0972 24.9786C29.3538 25.2673 29.5783 25.5881 29.8028 25.8768C29.867 25.9409 29.8991 26.0051 29.9311 26.0692C29.9953 26.1975 29.9632 26.2937 29.8349 26.3258C29.7708 26.3579 29.7387 26.3579 29.6745 26.3579C29.2896 26.39 28.9047 26.39 28.4878 26.39C28.1029 26.3579 27.75 26.3258 27.3651 26.2296C27.1085 26.1654 26.8519 26.1013 26.5953 26.0371C26.4029 25.973 26.2425 25.9088 26.05 25.8447C26.018 25.8126 25.9538 25.8126 25.9217 25.7805C25.5689 25.6843 25.2481 25.4919 24.9595 25.3315C24.9274 25.2994 24.8953 25.2994 24.8632 25.2673C24.4463 25.0749 24.0614 24.8183 23.6765 24.5296C23.1633 24.1768 22.6821 23.7919 22.2331 23.3749C21.9765 23.1183 21.6878 22.8617 21.4633 22.573C21.335 22.4126 21.2067 22.3805 21.0142 22.4126C20.6935 22.4768 20.3727 22.5409 20.0199 22.6051C19.7633 22.6692 19.5067 22.7013 19.218 22.7334C19.5387 22.8938 19.5067 22.8938 19.4425 22.9258ZM15.7859 12.1164C15.5293 12.1164 15.3048 12.1164 15.0482 12.1164C14.8557 12.1164 14.8237 12.1485 14.8237 12.341V12.3731C14.8557 12.6938 14.8237 12.9825 14.7916 13.3032C14.7595 13.5919 14.7274 13.8806 14.6954 14.1372C14.6633 14.2655 14.6633 14.3938 14.6633 14.5542C14.6633 14.6504 14.6954 14.6825 14.7916 14.6825C14.8237 14.6825 14.8237 14.6825 14.8557 14.6825C15.2407 14.6183 15.6256 14.5862 16.0105 14.5862C16.4274 14.5862 16.8765 14.6504 17.2935 14.7145C17.4538 14.7466 17.6142 14.7787 17.7746 14.7787C17.8388 14.7787 17.8708 14.8108 17.935 14.8429C18.0312 14.907 18.1595 14.9391 18.2557 14.9712C18.3199 14.9712 18.4161 15.0032 18.4803 15.0353C18.7689 15.1636 19.0897 15.2919 19.3784 15.4523C19.5708 15.5806 19.7633 15.741 19.9236 15.9334C19.9557 15.9655 20.0199 16.0296 20.0519 16.0617C20.084 16.1259 20.1482 16.19 20.1802 16.2542C20.2123 16.3504 20.2444 16.4466 20.2765 16.5749C20.3085 16.6711 20.3086 16.7994 20.3086 16.8957C20.3086 17.056 20.2444 17.2164 20.1482 17.3768C19.9236 17.7938 19.6029 18.0825 19.1538 18.2749C19.0897 18.307 19.0255 18.3391 18.9614 18.3711C18.6406 18.5636 18.2557 18.6919 17.9029 18.7881C17.4859 18.8843 17.0689 18.9485 16.652 18.9485C16.0425 18.9806 15.4331 18.9485 14.8237 18.8202C14.5029 18.756 14.1822 18.6919 13.8614 18.5957C13.7652 18.5636 13.669 18.5315 13.5727 18.4994C13.4765 18.4674 13.4124 18.4994 13.3482 18.5957C13.3161 18.6277 13.2841 18.6919 13.252 18.756C13.0275 19.2692 12.7388 19.7504 12.4501 20.1994C12.3218 20.424 12.1614 20.6485 12.0331 20.8409C11.9048 21.0334 11.9369 21.0655 12.1614 21.1296C12.8671 21.3221 13.5727 21.3862 14.2784 21.4824C14.6633 21.5145 15.0482 21.5466 15.4331 21.5787C15.8822 21.6107 16.3312 21.6107 16.7482 21.6107C16.9406 21.6107 17.1331 21.6107 17.2935 21.6107C17.4538 21.6107 17.5821 21.6107 17.7425 21.5787C17.8708 21.5787 17.9991 21.5466 18.1274 21.5466C18.384 21.5145 18.6727 21.5145 18.9293 21.4824C19.3142 21.4504 19.6991 21.4183 20.1161 21.3541C20.4689 21.3221 20.8218 21.2579 21.2067 21.1938C21.4953 21.1617 21.7519 21.0975 22.0406 21.0334C22.1048 21.0334 22.1368 21.0334 22.201 21.0013C22.2972 21.0013 22.3934 20.9692 22.4576 20.9692C22.618 20.9372 22.7783 20.9051 22.9387 20.873C23.0991 20.8409 23.2595 20.8089 23.4199 20.7768C23.7085 20.7126 23.9972 20.6485 24.2859 20.5843C24.3821 20.5523 24.4783 20.5523 24.5746 20.4881C24.7029 20.424 24.8312 20.3919 24.9915 20.3598C25.1198 20.3277 25.2481 20.2957 25.3444 20.2636C25.601 20.1674 25.8897 20.1032 26.1142 19.9749H26.1463C26.5312 19.8787 26.884 19.6862 27.2368 19.5258C27.6859 19.3013 28.1349 19.0768 28.584 18.8523C28.8406 18.724 29.0651 18.5957 29.2896 18.4032C29.45 18.2428 29.6104 18.1145 29.8028 17.9542C30.0274 17.7617 30.1877 17.5693 30.3481 17.3126C30.5727 16.9598 30.6047 16.5749 30.4764 16.1579C30.316 15.7089 30.0274 15.3561 29.6745 15.0674C29.3217 14.7787 28.9368 14.49 28.5198 14.2976C28.0708 14.073 27.6217 13.8806 27.1727 13.6881C27.1406 13.6881 27.1406 13.6881 27.1085 13.6561C26.6915 13.5278 26.2746 13.3674 25.8576 13.2391C25.5368 13.1429 25.2161 13.0466 24.8953 12.9825C24.5746 12.8863 24.2217 12.8221 23.901 12.758C23.5482 12.6938 23.1633 12.5976 22.8104 12.5334C22.4897 12.4693 22.1689 12.4372 21.8482 12.3731C21.784 12.3731 21.7519 12.3731 21.6878 12.341C21.4953 12.3089 21.3029 12.3089 21.1104 12.2768C20.8538 12.2448 20.5972 12.2127 20.3406 12.1806C20.084 12.1485 19.8274 12.1485 19.5708 12.1164C18.8652 12.0523 18.1916 12.0202 17.4859 12.0202C17.2935 12.0202 17.1331 12.0202 16.9406 12.0202C16.8765 12.0202 16.8123 12.0202 16.7161 12.0202C16.5878 12.0202 16.4916 12.0523 16.3633 12.0523C16.2029 12.1485 16.0105 12.1164 15.7859 12.1164ZM12.0973 12.2448C11.8727 12.2448 11.6482 12.2448 11.4237 12.2768C11.1029 12.3089 10.7822 12.341 10.4614 12.3731C10.0765 12.4372 9.7237 12.5014 9.33879 12.5655C9.14634 12.5976 8.95389 12.6297 8.76144 12.6617C8.31238 12.758 7.83125 12.8542 7.3822 12.9825C6.74069 13.1429 6.13126 13.3674 5.48976 13.5919C5.4256 13.624 5.36145 13.624 5.2973 13.6561C4.75202 13.8806 4.20674 14.1051 3.69354 14.3938C3.27656 14.6183 2.89166 14.8749 2.53883 15.1636C2.3143 15.3561 2.08977 15.5806 1.96147 15.8693C1.89732 15.9655 1.86525 16.0938 1.89732 16.2221C1.89732 16.3504 1.9294 16.5108 1.9294 16.6391C1.9294 16.6711 1.9294 16.7353 1.96147 16.7674C2.0577 16.9919 2.15392 17.2164 2.3143 17.4089C2.66713 17.89 3.08411 18.2428 3.53316 18.5957C3.98222 18.9485 4.46335 19.2051 4.97655 19.4617C5.39353 19.6862 5.81051 19.8787 6.25956 20.007C6.32371 20.0391 6.41994 20.0391 6.48409 20.0711C6.61239 20.1032 6.67654 20.0711 6.77277 19.9749C6.90107 19.8145 6.9973 19.6862 7.1256 19.5258C7.44635 19.1089 7.73503 18.6919 8.05578 18.2749C8.34446 17.89 8.63314 17.5051 8.92181 17.1202C9.24257 16.7032 9.56332 16.2862 9.88407 15.8693C10.269 15.3561 10.6539 14.8429 11.0388 14.3296C11.2954 13.9768 11.552 13.6561 11.8086 13.3032C11.8407 13.2712 11.8407 13.2391 11.8727 13.207C11.969 13.1108 12.0331 12.9825 12.1293 12.8863C12.2256 12.758 12.3218 12.6297 12.418 12.5014C12.5142 12.3731 12.4822 12.3089 12.3218 12.3089C12.2256 12.2448 12.1614 12.2448 12.0973 12.2448ZM13.3482 13.5598C13.252 13.5598 13.2199 13.624 13.1878 13.6881C12.9312 14.0089 12.7067 14.3296 12.4501 14.6825C12.1614 15.0674 11.9048 15.4202 11.6161 15.8051C11.1671 16.4145 10.686 17.024 10.2369 17.6334C9.9803 17.9542 9.75577 18.2749 9.49917 18.5957C9.24257 18.9485 8.95389 19.3013 8.69729 19.6541C8.50483 19.9108 8.31238 20.1674 8.11993 20.424C7.99163 20.5843 7.86333 20.7447 7.73503 20.9372C7.35012 21.4824 6.93315 21.9956 6.54824 22.5409C6.22749 22.99 5.87466 23.407 5.55391 23.856C5.32938 24.1768 5.07278 24.4975 4.84825 24.8183L4.81617 24.8503C4.81617 24.8824 4.81617 24.9145 4.81617 24.9466H4.88033C4.97655 24.9145 5.0407 24.8824 5.13693 24.8503C5.45768 24.69 5.77843 24.5617 6.09919 24.4013C6.48409 24.1768 6.86899 23.9202 7.2539 23.6956C7.31805 23.6636 7.3822 23.5994 7.44635 23.5673C7.95955 23.1824 8.47276 22.7334 8.95389 22.2843C9.08219 22.156 9.21049 21.9956 9.37087 21.8673C9.81992 21.3862 10.269 20.873 10.6539 20.3598C11.1029 19.7504 11.5199 19.1089 11.8727 18.4353C12.0331 18.0825 12.2256 17.7296 12.3859 17.3768C12.5142 17.1202 12.6105 16.8315 12.7067 16.5428C12.7709 16.3504 12.8671 16.1579 12.9312 15.9334C13.0595 15.5485 13.1558 15.1636 13.252 14.7466C13.3161 14.4259 13.3803 14.073 13.4124 13.7202C13.3803 13.6561 13.3482 13.624 13.3482 13.5598ZM9.91615 3.64857C9.91615 3.77687 9.91615 3.87309 9.94822 4.00139C9.9803 4.3863 10.1086 4.73913 10.3331 5.05988C10.5897 5.41271 10.8784 5.66931 11.2633 5.89384C11.552 6.05422 11.8407 6.15044 12.1614 6.21459C12.3859 6.24667 12.5784 6.27874 12.8029 6.24667C12.9954 6.24667 13.1878 6.18252 13.3803 6.15044C13.5086 6.11837 13.5086 6.05422 13.4444 5.95799C13.3803 5.86176 13.3161 5.79761 13.2841 5.73346C13.0916 5.47686 12.8671 5.18818 12.6746 4.93158C12.418 4.61083 12.1614 4.29007 11.9048 3.96932C11.6482 3.64857 11.4237 3.35989 11.1671 3.03914C10.9746 2.78253 10.7822 2.55801 10.5897 2.3014C10.5577 2.26933 10.5256 2.23725 10.4935 2.20518C10.4294 2.14103 10.3652 2.1731 10.3331 2.20518C10.3011 2.23725 10.3011 2.26933 10.269 2.26933C10.1086 2.55801 10.0124 2.84668 9.94822 3.16744C9.91615 3.32781 9.91615 3.48819 9.91615 3.64857ZM19.667 6.40704C19.7633 6.40704 19.8916 6.40704 19.9878 6.37497C20.1482 6.34289 20.3406 6.27874 20.501 6.24667C20.5652 6.24667 20.6293 6.21459 20.6614 6.18252C21.1104 5.95799 21.4633 5.63724 21.7199 5.22026C21.9765 4.83535 22.1048 4.3863 22.201 3.93724C22.2651 3.61649 22.2651 3.29574 22.2651 2.97499C22.2651 2.94291 22.2651 2.91083 22.2651 2.87876C22.2331 2.68631 22.201 2.46178 22.1689 2.26933C22.1689 2.20518 22.1368 2.14103 22.1048 2.07688C22.0727 2.01273 22.0406 2.01273 21.9765 2.07688C21.9765 2.10895 21.9444 2.10895 21.9444 2.14103C21.8802 2.26933 21.8161 2.33348 21.7199 2.4297C21.6878 2.46178 21.6557 2.52593 21.5916 2.55801C21.3991 2.81461 21.2067 3.07121 20.9821 3.32781C20.7897 3.58442 20.5972 3.84102 20.4048 4.09762C20.1482 4.41837 19.8916 4.7712 19.635 5.09196C19.5067 5.25233 19.3784 5.41271 19.2501 5.60516C19.1538 5.76554 19.0255 5.89384 18.9293 6.05422C18.8331 6.18252 18.8652 6.24667 19.0255 6.31082H19.0576C19.2501 6.37497 19.4425 6.43912 19.667 6.40704ZM25.0557 21.7711C25.0236 21.7711 24.9595 21.8032 24.9274 21.8032C24.8312 21.8353 24.7349 21.8673 24.6387 21.8673C24.2217 21.9636 23.8368 22.0598 23.4199 22.156C23.3878 22.156 23.3557 22.156 23.3236 22.1881C23.2274 22.2202 23.2274 22.2843 23.2916 22.3485C23.3236 22.3806 23.3557 22.4126 23.3878 22.4447C23.6444 22.6692 23.8689 22.8617 24.1255 23.0541C24.4142 23.2787 24.7349 23.4711 25.0557 23.6636C25.4085 23.8881 25.7614 24.0805 26.1463 24.2088C26.2425 24.2409 26.3387 24.273 26.4349 24.3371C26.6595 24.4334 26.8519 24.4975 27.0764 24.5937C27.1406 24.6258 27.2047 24.6579 27.2689 24.5937C27.333 24.5296 27.2368 24.4654 27.2047 24.4334C27.1406 24.3371 27.0764 24.2409 27.0123 24.1768C26.7236 23.7919 26.4029 23.3749 26.1142 22.99C25.8897 22.6692 25.6651 22.3805 25.4406 22.0598C25.3765 21.9956 25.3444 21.9315 25.2802 21.8673C25.2161 21.7711 25.1519 21.739 25.0557 21.7711ZM16.1708 16.1579C16.1388 16.1579 16.0746 16.1579 16.0425 16.1579C15.7218 16.1579 15.4331 16.2221 15.1444 16.3183C15.0161 16.3825 14.8878 16.4466 14.7916 16.5749C14.6633 16.7353 14.6633 16.8957 14.7595 17.056C14.8237 17.1523 14.9199 17.2485 15.0161 17.3126C15.1444 17.4089 15.2727 17.441 15.4331 17.5051C15.818 17.6013 16.235 17.6334 16.6199 17.5693C16.8123 17.5372 17.0369 17.5051 17.2293 17.4089C17.3897 17.3447 17.518 17.2164 17.5821 17.0881C17.6784 16.9277 17.6784 16.7353 17.5501 16.607C17.4859 16.5428 17.4218 16.4787 17.3576 16.4466C17.2614 16.3825 17.1331 16.3504 17.0369 16.3183C16.7482 16.19 16.4595 16.1579 16.1708 16.1579ZM16.235 10.5448C16.3954 10.5448 16.5557 10.5448 16.7161 10.5448C16.8444 10.5448 16.8765 10.4806 16.8123 10.3523C16.7161 10.1919 16.5878 10.0636 16.4916 9.90325C16.4274 9.80703 16.3633 9.77495 16.235 9.80703C16.2029 9.80703 16.1708 9.80703 16.1708 9.80703C16.0746 9.80703 16.0105 9.8391 15.9784 9.90325C15.8822 10.0316 15.7859 10.1599 15.6897 10.2561C15.6897 10.2882 15.6576 10.2882 15.6576 10.3202C15.5935 10.4165 15.6256 10.4806 15.7539 10.4806H15.7859C15.9463 10.5448 16.0746 10.5448 16.235 10.5448Z" fill="#3D007C"/>
</svg>
