<svg width="37" height="23" viewBox="0 0 37 23" fill="none" xmlns="http://www.w3.org/2000/svg">
<path d="M34.989 18.0875C34.4092 18.0875 34.1192 17.5153 34.4414 17.1339C35.5689 15.8623 36.2132 14.4001 36.2132 12.906C36.2132 7.97885 29.5125 3.90995 20.8469 3.27419C20.2992 3.2424 19.9126 2.86094 19.9126 2.38412C19.9126 1.81193 19.4294 1.33511 18.7529 1.33511H18.6563C18.6563 1.30332 18.6885 1.27153 18.6885 1.23974V0.222518C18.6885 0.095365 18.5596 0 18.4308 0C18.2697 0 18.1731 0.095365 18.1731 0.222518V1.20795C18.1731 1.23974 18.1731 1.27153 18.2053 1.30332C17.5288 1.30332 16.9489 1.78014 16.9489 2.38412C16.9489 2.82915 16.5301 3.21061 16.0147 3.27419C13.5986 3.46492 11.3436 3.90995 9.3463 4.57751C8.73422 4.76824 8.05772 4.45035 7.92887 3.90995V3.87817C7.89665 3.75101 7.8 3.62386 7.63893 3.59207C7.41343 3.56028 7.25236 3.68744 7.22014 3.84638C6.83357 6.03976 4.15976 7.53381 0.390672 7.62918C0.197386 7.62918 0.0363191 7.72454 0.00410463 7.88348C-0.0281098 8.07421 0.132964 8.23315 0.358466 8.26494C0.616181 8.26494 0.873893 8.29673 1.09939 8.29673C1.7759 8.36031 2.16248 8.99607 1.80812 9.50468C1.06718 10.5537 0.68061 11.6981 0.68061 12.906C0.68061 18.2782 8.66979 22.6332 18.463 22.6332C21.9422 22.6332 25.1958 22.0928 27.934 21.1392C28.2562 21.0438 28.6105 21.2028 28.6428 21.4889C28.675 21.616 28.7716 21.7114 28.9005 21.7432C29.126 21.8067 29.3515 21.6796 29.3837 21.4889C29.4803 21.012 29.7381 20.5988 30.1568 20.2173C30.8011 19.8994 31.4132 19.5816 31.9608 19.2319C32.8306 18.9458 33.8615 18.7551 35.0212 18.7233C35.2467 18.7233 35.4078 18.5325 35.3756 18.3418C35.3434 18.1829 35.1823 18.0875 34.989 18.0875ZM33.9259 16.6888C33.5716 17.0703 33.185 17.4517 32.7662 17.8014C32.4119 17.706 32.0575 17.6107 31.7354 17.5153C32.4763 17.1974 33.1206 16.8478 33.6682 16.4981C33.8293 16.3709 34.0548 16.5617 33.9259 16.6888ZM32.0897 18.31C32.1864 18.3418 32.3152 18.3736 32.4119 18.4054C32.283 18.4372 32.1541 18.469 32.0253 18.5008H31.9931C31.8642 18.5325 31.7676 18.5643 31.6387 18.5961C30.7045 18.914 29.9636 19.359 29.4159 19.8994C29.3515 19.963 29.3193 19.9948 29.2548 20.0584C29.2226 20.122 29.1582 20.1537 29.126 20.2173C29.126 20.2173 29.126 20.2491 29.0938 20.2491C29.0615 20.3127 28.9971 20.3763 28.9649 20.4398C28.7394 20.0584 28.385 19.7087 27.9663 19.4226C27.773 19.2955 27.5797 19.1683 27.3542 19.0412C27.1931 18.9458 27.032 18.8822 26.8388 18.7868C26.7421 18.7551 26.6455 18.7233 26.581 18.6915C26.4844 18.6597 26.3878 18.6279 26.2911 18.5961C26.0656 18.5325 25.8079 18.4372 25.5502 18.3736C27.1609 17.9921 28.385 17.261 28.9649 16.3074C29.0938 16.4981 29.2226 16.6888 29.3837 16.8478C29.5448 17.0067 29.7381 17.1656 29.9313 17.2928C29.9636 17.3246 30.028 17.3564 30.0924 17.3882C30.1891 17.4517 30.3179 17.5153 30.4468 17.6107H30.479C30.6078 17.6743 30.7367 17.7378 30.8656 17.8014C31.2521 18.0239 31.6709 18.1829 32.0897 18.31ZM21.2979 12.3338C21.2979 12.0477 21.5878 11.7934 21.9099 11.7934C23.0052 11.8252 24.0361 11.8252 25.0347 11.857C25.2925 11.857 25.4857 12.0477 25.4857 12.2385C25.4857 12.4292 25.518 12.6517 25.518 12.8424C25.518 13.065 25.518 13.2557 25.4857 13.4464C25.4857 13.6689 25.2925 13.8279 25.0347 13.8279C24.0683 13.8597 23.0052 13.8915 21.9099 13.8915C21.5556 13.8915 21.2979 13.6689 21.2979 13.3511C21.2979 13.1603 21.2979 13.0014 21.2979 12.8107C21.2979 12.6835 21.2979 12.5246 21.2979 12.3338ZM21.9744 11.1577C21.5556 11.1577 21.2334 10.8716 21.2334 10.5219C21.2012 10.1087 21.169 9.69541 21.1368 9.28217C22.2321 9.31395 23.3274 9.37753 24.3582 9.47289C24.777 9.50468 25.0992 9.75899 25.1958 10.1087C25.2925 10.4901 25.3569 10.8398 25.4213 11.253C24.2938 11.2212 23.1341 11.1895 21.9744 11.1577ZM21.2334 15.2266C21.2656 14.8769 21.5878 14.5908 21.9744 14.5908C23.1341 14.559 24.2938 14.5272 25.3891 14.4954C25.3569 14.8133 25.2925 15.0994 25.228 15.4173C25.1314 15.8941 24.6804 16.2438 24.1327 16.2756C23.1663 16.3392 22.1677 16.4027 21.1368 16.4345C21.169 16.0531 21.2012 15.6398 21.2334 15.2266ZM25.5824 16.7842C26.42 16.6888 27.2253 16.5935 27.9985 16.4981C27.3864 17.1021 26.3878 17.5789 25.1636 17.8332C25.2925 17.4835 25.4535 17.1339 25.5824 16.7842ZM29.8347 16.2438C29.8347 16.212 29.8025 16.212 29.8025 16.1802C29.8347 16.1802 29.8669 16.1802 29.8991 16.1484C29.8347 16.1802 29.8347 16.212 29.8347 16.2438ZM29.4803 15.608C29.4803 15.608 29.4481 15.608 29.4803 15.608C29.4159 15.5127 29.3837 15.4173 29.3837 15.3219C29.3515 15.163 29.1904 15.0676 29.0293 15.0676C28.8361 15.0676 28.7072 15.1948 28.675 15.3219C28.6428 15.4809 28.5783 15.6398 28.5139 15.767C27.6441 15.8941 26.7421 16.0213 25.8079 16.1166C25.969 15.5762 26.0656 15.0358 26.1622 14.4636C27.773 14.4001 29.2871 14.3047 30.6078 14.2093C30.5756 14.4001 30.5112 14.6226 30.4468 14.8133C30.2857 15.1948 29.9313 15.5127 29.4803 15.608ZM30.2857 13.6054C29.0938 13.7007 27.7408 13.7643 26.1945 13.8279C26.2267 13.51 26.2267 13.1921 26.2267 12.8742C26.2267 12.5564 26.2267 12.2385 26.1945 11.9206C27.7408 11.9842 29.0938 12.0477 30.2857 12.1431C30.5112 12.1749 30.7045 12.3338 30.7045 12.5246C30.7045 12.6517 30.7045 12.7471 30.7045 12.8742C30.7045 13.0014 30.7045 13.1285 30.7045 13.2239C30.6723 13.4146 30.5112 13.5736 30.2857 13.6054ZM26.13 11.2848C26.0656 10.7126 25.9367 10.1722 25.7757 9.63184C27.1931 9.79078 28.5461 9.98151 29.7703 10.204C30.028 10.2676 30.2535 10.4265 30.3179 10.6491C30.4146 10.9352 30.479 11.2212 30.5434 11.5073C29.2226 11.4438 27.7408 11.3484 26.13 11.2848ZM25.5824 8.96428C25.3247 8.26494 25.0347 7.59739 24.6482 7.0252C25.969 7.21593 27.2253 7.47023 28.4173 7.78812C28.5783 7.81991 28.7072 7.91527 28.8038 8.01064C29.2226 8.48746 29.577 9.02786 29.8669 9.56826C28.5461 9.31395 27.1287 9.12322 25.5824 8.96428ZM24.777 8.90071C23.7784 8.80534 22.7475 8.74176 21.6844 8.70998C21.2979 8.70998 21.0079 8.45567 20.9435 8.13779C20.9113 7.8517 20.8469 7.59739 20.8147 7.34308C20.7502 6.99341 21.0724 6.67553 21.4911 6.70732C22.1354 6.73911 22.7475 6.80268 23.3596 6.86626C23.6173 6.89805 23.8106 7.0252 23.9394 7.21593C24.2616 7.72454 24.5515 8.29673 24.777 8.90071ZM20.9757 17.6425C21.0402 17.3246 21.3301 17.0703 21.7167 17.0703C22.7797 17.0385 23.8106 16.9431 24.8092 16.8796C24.6482 17.261 24.4871 17.6425 24.2938 17.9921C23.875 18.0557 23.4562 18.0875 23.0374 18.0875C22.8442 18.0875 22.6831 18.2464 22.6831 18.4054C22.6831 18.5643 22.8442 18.7233 23.0374 18.7233C23.2629 18.7233 23.4885 18.7551 23.714 18.7551C23.5529 18.8504 23.3596 18.914 23.1341 18.9458C22.3609 19.0412 21.5234 19.1047 20.718 19.1365C20.7824 18.6597 20.8791 18.1511 20.9757 17.6425ZM34.2481 15.1948C33.4749 15.8941 32.3474 16.5617 30.93 17.1339C30.7045 17.0067 30.5112 16.8796 30.3501 16.7524C30.5112 16.4981 30.6401 16.2438 30.7367 15.9895C30.7689 15.9895 30.8011 15.9895 30.8333 15.9577C31.8964 15.7034 33.0561 15.3855 34.0226 14.9723C34.2159 14.9087 34.3769 15.0994 34.2481 15.1948ZM31.0266 15.2584C31.1555 14.9087 31.2521 14.5272 31.3166 14.1458C32.6696 14.0186 33.7649 13.8915 34.5702 13.7325C34.7313 13.7007 34.8924 13.6689 35.0534 13.6372C34.4091 14.2093 32.9917 14.7815 31.0266 15.2584ZM34.9568 13.0014C34.2803 13.1603 33.0884 13.3511 31.4132 13.51C31.4454 13.2875 31.4454 13.0968 31.4454 12.8742C31.4454 12.6517 31.4454 12.461 31.4132 12.2385C33.0884 12.3974 34.2803 12.5564 34.9568 12.7471C35.1179 12.7789 35.1179 12.9696 34.9568 13.0014ZM34.5702 12.016C33.7649 11.857 32.6696 11.7299 31.3166 11.6027C31.2521 11.2212 31.1555 10.8398 31.0266 10.4901C32.9917 10.9669 34.3769 11.5391 35.0534 12.1113C34.9246 12.0795 34.7635 12.0477 34.5702 12.016ZM34.0548 10.7762C33.0884 10.363 31.9286 10.0451 30.8656 9.79078C30.8333 9.79078 30.8011 9.79078 30.7689 9.75899C30.5112 9.21859 30.2213 8.70998 29.8669 8.20137C30.1246 8.29673 30.3823 8.3921 30.6401 8.48746C32.2186 9.09144 33.4749 9.79078 34.2803 10.5537C34.3769 10.6491 34.2159 10.8398 34.0548 10.7762ZM33.9259 9.05965C34.0548 9.1868 33.8293 9.37753 33.7004 9.25038C32.9273 8.77355 32.0253 8.29673 30.93 7.88348C30.3501 7.66097 29.7381 7.47024 29.0938 7.27951C28.0307 6.13513 26.6133 5.18148 25.0025 4.45035C28.9327 5.37221 32.1219 6.99341 33.9259 9.05965ZM27.7085 6.96162C26.581 6.70732 25.3891 6.4848 24.165 6.32586C23.5207 5.43579 22.7475 4.70466 21.8777 4.16426C24.165 4.64108 26.1945 5.62652 27.7085 6.96162ZM23.2307 6.19871C22.522 6.13513 21.8133 6.07155 21.1046 6.03977C20.7824 6.00798 20.4925 5.81725 20.3959 5.56294C20.1704 4.89539 19.9449 4.35499 19.6549 3.94174C21.0079 4.22784 22.2321 5.02254 23.2307 6.19871ZM18.463 16.4981C17.8187 16.4981 17.1744 16.4981 16.5301 16.4663C16.4979 16.0848 16.4657 15.6716 16.4335 15.2584C16.4013 14.9087 16.7234 14.6226 17.1422 14.6226C17.5932 14.6226 18.012 14.6226 18.463 14.6226C18.914 14.6226 19.3328 14.6226 19.7838 14.6226C20.2026 14.6226 20.5247 14.9087 20.4925 15.2584C20.4603 15.6716 20.4281 16.0848 20.3959 16.4663C19.7516 16.4981 19.1073 16.4981 18.463 16.4981ZM20.2026 17.706C20.1059 18.2147 20.0093 18.6915 19.9126 19.1683C19.4294 19.1683 18.9462 19.2001 18.4308 19.2001C17.9476 19.2001 17.4643 19.2001 16.9489 19.1683C16.8523 18.7233 16.7556 18.2147 16.659 17.706C16.5945 17.3882 16.8845 17.1339 17.2388 17.1339C17.6254 17.1339 18.012 17.1339 18.3986 17.1339C18.7851 17.1339 19.1717 17.1339 19.5583 17.1339C19.9771 17.1021 20.267 17.3882 20.2026 17.706ZM19.9771 13.9868C19.4616 13.9868 18.9784 13.9868 18.4308 13.9868C17.9153 13.9868 17.3999 13.9868 16.8845 13.9868C16.5623 13.9868 16.3368 13.7643 16.3046 13.51C16.3046 13.3193 16.3046 13.0968 16.3046 12.8742C16.3046 12.6517 16.3046 12.461 16.3046 12.2385C16.3046 11.9842 16.5623 11.7616 16.8845 11.7616C17.3999 11.7616 17.8831 11.7616 18.4308 11.7616C18.9462 11.7616 19.4616 11.7616 19.9771 11.7616C20.2992 11.7616 20.5247 11.9842 20.5569 12.2385C20.5569 12.4292 20.5569 12.6517 20.5569 12.8742C20.5569 13.0968 20.5569 13.2875 20.5569 13.51C20.5569 13.7643 20.2992 13.9868 19.9771 13.9868ZM16.4335 10.4901C16.4657 10.0769 16.4979 9.66362 16.5301 9.28217C17.1744 9.28217 17.8187 9.25038 18.463 9.25038C19.1073 9.25038 19.7516 9.25038 20.3959 9.28217C20.4281 9.66362 20.4603 10.0769 20.4925 10.4901C20.5247 10.8398 20.2026 11.1259 19.7838 11.1259C19.3328 11.1259 18.914 11.1259 18.463 11.1259C18.012 11.1259 17.5932 11.1259 17.1422 11.1259C16.7234 11.1259 16.4013 10.8398 16.4335 10.4901ZM17.4643 2.35233C17.4643 2.00266 17.7865 1.74835 18.1731 1.74835H18.6885C19.0751 1.74835 19.3972 2.03445 19.3972 2.35233V2.47948C19.3972 2.73379 19.1395 2.92452 18.8496 2.92452C18.7207 2.92452 18.5596 2.92452 18.4308 2.92452C18.3019 2.92452 18.1408 2.92452 18.012 2.92452C17.7221 2.92452 17.4643 2.73379 17.4643 2.47948V2.35233ZM17.3355 5.404C17.7865 4.16426 18.2375 3.7828 18.463 3.7828C18.6885 3.7828 19.1395 4.13247 19.5905 5.404C19.6871 5.69009 19.4294 5.97619 19.1073 5.9444C18.8818 5.9444 18.6885 5.9444 18.463 5.9444C18.2375 5.9444 18.0442 5.9444 17.8187 5.9444C17.4966 5.9444 17.2388 5.65831 17.3355 5.404ZM18.463 6.58017C18.9462 6.58017 19.4294 6.58017 19.9449 6.61195C20.0415 7.05699 20.1381 7.5656 20.2348 8.07421C20.2992 8.39209 20.0093 8.6464 19.6549 8.6464C19.2684 8.6464 18.8818 8.6464 18.4952 8.6464C18.1086 8.6464 17.7221 8.6464 17.3355 8.6464C16.9811 8.6464 16.6912 8.39209 16.7556 8.07421C16.8523 7.5656 16.9489 7.08878 17.0456 6.61195C17.4643 6.58017 17.9476 6.58017 18.463 6.58017ZM17.2711 3.90995C16.9811 4.3232 16.7234 4.8636 16.5301 5.53115C16.4335 5.81725 16.1758 6.00798 15.8214 6.00798C15.1127 6.03976 14.3718 6.10334 13.6953 6.16692C14.6617 5.02254 15.9181 4.22784 17.2711 3.90995ZM9.24965 9.85435C9.86173 9.75899 10.4738 9.69541 11.1181 9.63184C10.957 10.1722 10.8604 10.7126 10.7637 11.2848C9.7973 11.3166 8.8953 11.3802 8.05772 11.412C8.28322 10.8398 8.702 10.2994 9.24965 9.85435ZM14.7583 7.5656C14.0818 7.53381 13.4375 7.47024 12.8577 7.37487C12.8899 7.3113 12.9221 7.24772 12.9865 7.18414C13.1154 6.99341 13.3087 6.86626 13.5664 6.83447C14.1785 6.77089 14.7905 6.70732 15.4348 6.67553C15.8536 6.64374 16.1758 6.96162 16.1113 7.31129C16.0469 7.5656 16.0147 7.85169 15.9825 8.106C15.9181 8.42388 15.6281 8.67819 15.2415 8.67819C14.1785 8.70998 13.1476 8.80534 12.149 8.86892C12.2134 8.74176 12.2456 8.61461 12.31 8.48746C13.051 8.32852 13.8885 8.23315 14.7583 8.20137C14.9516 8.20137 15.1127 8.04242 15.1127 7.88348C15.1127 7.72454 14.9516 7.59739 14.7583 7.5656ZM11.6335 7.12056C11.859 7.08878 12.0523 7.05699 12.2778 7.0252C12.2456 7.08878 12.1812 7.18414 12.149 7.24772C11.9557 7.21593 11.7946 7.15235 11.6335 7.12056ZM15.6281 13.4146C15.6281 13.7007 15.3382 13.955 15.016 13.955C13.9208 13.9232 12.8899 13.9232 11.8912 13.8915C11.6335 13.8915 11.4402 13.7007 11.4402 13.51C11.4402 13.3193 11.408 13.0968 11.408 12.906C11.408 12.6835 11.408 12.4928 11.4402 12.302C11.4402 12.0795 11.6335 11.9206 11.8912 11.9206C12.8577 11.8888 13.9208 11.857 15.016 11.857C15.3704 11.857 15.6281 12.0795 15.6281 12.3974C15.6281 12.5881 15.6281 12.7471 15.6281 12.9378C15.5959 13.065 15.6281 13.2239 15.6281 13.4146ZM14.9194 14.5908C15.3382 14.5908 15.6603 14.8769 15.6603 15.2266C15.6926 15.6398 15.7248 16.0531 15.757 16.4663C14.7261 16.4345 13.7275 16.3709 12.761 16.3074C12.2134 16.2756 11.7624 15.9259 11.6657 15.4491C11.6013 15.163 11.5369 14.8451 11.5047 14.5272C12.6322 14.5272 13.7597 14.559 14.9194 14.5908ZM15.6925 10.5219C15.6603 10.8716 15.3382 11.1577 14.9516 11.1577C13.7919 11.1895 12.6322 11.2212 11.5369 11.253C11.6013 10.8716 11.6657 10.4901 11.7624 10.1087C11.859 9.75899 12.1812 9.50468 12.6 9.47289C13.6308 9.37753 14.7261 9.31395 15.8214 9.28217C15.757 9.69541 15.7248 10.1087 15.6925 10.5219ZM11.3436 8.96428C11.0859 8.99607 10.8604 9.02786 10.6027 9.02786C10.8604 8.90071 11.1181 8.80534 11.408 8.70998C11.408 8.80534 11.3758 8.90071 11.3436 8.96428ZM7.05907 11.4756C6.83357 11.5073 6.57585 11.5073 6.35035 11.5391C6.41478 11.253 6.47921 10.9669 6.57585 10.6808V10.6491C6.80135 10.9034 6.93021 11.1895 7.05907 11.4756ZM6.22149 12.5246C6.22149 12.3338 6.41479 12.1749 6.64029 12.1431C6.83357 12.1431 7.02686 12.1113 7.22014 12.1113C7.28457 12.2067 7.41343 12.2703 7.54229 12.2703C7.70336 12.2703 7.83222 12.1749 7.89665 12.0795C8.76644 12.016 9.70065 11.9842 10.7315 11.9206C10.6993 12.2385 10.6993 12.5564 10.6993 12.8742C10.6993 13.1921 10.6993 13.51 10.7315 13.8279C9.18522 13.7643 7.83222 13.7007 6.64029 13.6054C6.41479 13.5736 6.22149 13.4146 6.22149 13.2239C6.22149 13.0968 6.22149 13.0014 6.22149 12.8742C6.22149 12.7471 6.22149 12.6517 6.22149 12.5246ZM10.796 14.4636C10.8604 15.0358 10.9892 15.5762 11.1503 16.1166C9.82952 15.9895 8.60537 15.7988 7.44565 15.5762C6.99465 15.4809 6.64028 15.1948 6.51142 14.8133C6.44699 14.6226 6.41478 14.4001 6.35035 14.2093C7.67114 14.3047 9.18523 14.4001 10.796 14.4636ZM11.3436 16.7842C11.6013 17.4835 11.8912 18.1511 12.2778 18.7233C11.0215 18.5325 9.7973 18.31 8.66979 17.9921C8.41208 17.9286 8.18658 17.7696 8.0255 17.5789C7.63893 17.1339 7.31679 16.657 7.05907 16.1484C8.34765 16.4345 9.7973 16.6252 11.3436 16.7842ZM12.1167 16.8478C13.1154 16.9431 14.1462 17.0067 15.2093 17.0385C15.5959 17.0385 15.8858 17.2928 15.9503 17.6107C16.0147 18.1193 16.1113 18.6279 16.2402 19.1047C15.4348 19.0729 14.5973 19.0094 13.8241 18.914C13.4053 18.8822 13.051 18.6597 12.8577 18.3418C12.5677 17.8968 12.3422 17.3882 12.1167 16.8478ZM12.7288 6.29407C11.9557 6.38944 11.1825 6.51659 10.4416 6.67553C10.2483 6.58016 10.055 6.4848 9.89394 6.38944C11.3114 5.37221 13.051 4.57751 15.016 4.16426C14.1463 4.70466 13.3731 5.43579 12.7288 6.29407ZM11.9235 4.48214C10.9892 4.89539 10.0872 5.404 9.31408 5.97619C9.08858 5.81725 8.8953 5.62652 8.70201 5.404C9.70066 5.05433 10.7637 4.73645 11.9235 4.48214ZM3.00005 7.88348C3.09669 7.85169 3.16112 7.8517 3.25777 7.81991C3.38663 7.78812 3.48326 7.75633 3.61212 7.72454C4.41748 7.50202 5.1262 7.18414 5.73828 6.80268C5.8027 6.73911 5.89935 6.70732 5.96378 6.64374C5.96378 6.64374 5.996 6.64374 5.996 6.61195C6.06043 6.54838 6.12485 6.51659 6.22149 6.45301C6.22149 6.45301 6.25371 6.45301 6.25371 6.42122C6.31814 6.35765 6.38257 6.32586 6.447 6.26228C6.447 6.26228 6.447 6.26228 6.47921 6.23049C6.93022 5.84904 7.31679 5.404 7.54229 4.89539C7.63893 5.05433 7.73557 5.21327 7.83222 5.34042C7.89664 5.43579 7.96108 5.49936 8.0255 5.59473C8.31543 5.9444 8.63758 6.23049 9.05637 6.51659C9.18523 6.61195 9.31408 6.70732 9.47516 6.77089C10.2161 7.21593 11.0859 7.5656 12.0845 7.78812C10.8282 8.07421 9.73287 8.55104 8.92751 9.15501C8.31543 9.60005 7.86443 10.1087 7.5745 10.7126C7.47786 10.4901 7.31678 10.2994 7.18793 10.1087C7.1235 10.0451 7.05907 9.94972 7.02685 9.88614C6.96243 9.82257 6.89799 9.75899 6.83357 9.69541C6.83357 9.69541 6.83357 9.69541 6.80136 9.66362C6.73693 9.60005 6.6725 9.53647 6.60807 9.47289L6.57585 9.44111C6.25371 9.15501 5.93157 8.93249 5.51278 8.70998C5.38392 8.6464 5.28728 8.58282 5.15842 8.51925C5.15842 8.51925 5.15842 8.51925 5.1262 8.51925C4.99735 8.45567 4.86848 8.39209 4.73963 8.36031C4.48191 8.26494 4.22419 8.13779 3.93426 8.07421C3.80541 8.04242 3.67655 8.01064 3.5477 7.97885C3.41884 7.94706 3.28998 7.91527 3.16112 7.88348C3.09669 7.91527 3.06448 7.91527 3.00005 7.88348ZM3.96648 8.83713C3.70876 8.96428 3.45105 9.12322 3.22555 9.28217C3.06448 9.37753 2.87119 9.21859 3.00005 9.09144C3.1289 8.96428 3.25777 8.80534 3.38662 8.67819C3.57991 8.70998 3.77319 8.77355 3.96648 8.83713ZM2.64569 10.5537C3.19333 10.0769 3.86983 9.60005 4.73963 9.1868C5.15841 9.37753 5.51278 9.60005 5.80271 9.85435C4.80406 10.0769 3.74098 10.3948 2.83897 10.7762C2.6779 10.8398 2.51683 10.6491 2.64569 10.5537ZM5.86713 10.4901C5.73827 10.8398 5.64163 11.2212 5.5772 11.6027C4.2242 11.7299 3.1289 11.857 2.32354 12.016C2.16247 12.0477 2.0014 12.0795 1.84032 12.1113C2.51683 11.5391 3.90205 10.9669 5.86713 10.4901ZM1.96919 12.7471C2.64569 12.5881 3.83763 12.3974 5.51278 12.2385C5.48057 12.461 5.48056 12.6517 5.48056 12.8742C5.48056 13.0968 5.48057 13.2875 5.51278 13.51C3.83763 13.3511 2.64569 13.1921 1.96919 13.0014C1.80812 12.9696 1.80812 12.7789 1.96919 12.7471ZM2.32354 13.7325C3.1289 13.8915 4.2242 14.0186 5.5772 14.1458C5.64163 14.5272 5.73827 14.9087 5.86713 15.2584C3.90205 14.7815 2.51683 14.2093 1.84032 13.6372C2.0014 13.6689 2.16247 13.7007 2.32354 13.7325ZM2.83897 14.9723C3.80541 15.3855 4.96513 15.7034 6.0282 15.9577C6.06042 15.9577 6.09264 15.9577 6.12485 15.9895C6.38257 16.5299 6.67249 17.0385 7.02685 17.5471C6.76914 17.4517 6.51142 17.3564 6.25371 17.261C4.6752 16.657 3.41884 15.9577 2.61348 15.1948C2.51684 15.0994 2.6779 14.9087 2.83897 14.9723ZM3.00005 16.6888C2.87119 16.5617 3.09669 16.3709 3.22555 16.4981C3.9987 16.9749 4.90071 17.4517 5.996 17.865C6.57586 18.0875 7.18793 18.2782 7.83222 18.469C8.89529 19.6133 10.3127 20.567 11.9235 21.2981C7.96108 20.3763 4.77184 18.7551 3.00005 16.6888ZM9.18523 18.8186C10.3127 19.0729 11.5047 19.2955 12.7288 19.4544C13.3731 20.3445 14.1463 21.0756 15.016 21.616C12.7288 21.1074 10.6993 20.122 9.18523 18.8186ZM13.6953 19.5498C14.404 19.6133 15.1127 19.6769 15.8214 19.7087C16.1436 19.7405 16.4335 19.9312 16.5301 20.1855C16.7556 20.8531 16.9811 21.3935 17.2711 21.8067C15.9181 21.5206 14.6617 20.7259 13.6953 19.5498ZM19.5583 20.3445C19.1073 21.5842 18.6563 21.9657 18.4308 21.9657C18.2053 21.9657 17.7543 21.616 17.3033 20.3445C17.2066 20.0584 17.4643 19.7723 17.7865 19.8041C18.012 19.8041 18.2053 19.8041 18.4308 19.8041C18.6563 19.8041 18.8496 19.8041 19.0751 19.8041C19.4294 19.8041 19.6549 20.0902 19.5583 20.3445ZM20.3636 20.2173C20.4603 19.9312 20.718 19.7405 21.0724 19.7405C21.7811 19.7087 22.522 19.6451 23.1985 19.5816C22.2321 20.7577 20.9757 21.5524 19.6227 21.8703C19.9126 21.4253 20.1704 20.8849 20.3636 20.2173ZM24.165 19.4544C24.777 19.3908 25.3569 19.2955 25.9367 19.1683C26.2589 19.2637 26.5166 19.3908 26.8065 19.518C25.4213 20.4716 23.7462 21.2028 21.8777 21.616C22.7475 21.0756 23.5207 20.3127 24.165 19.4544ZM25.0025 21.2663C25.9045 20.8849 26.7099 20.408 27.4508 19.8676C27.6763 20.0266 27.8696 20.1855 28.0629 20.3763C27.0965 20.7259 26.0656 21.012 25.0025 21.2663Z" fill="#3D007C"/>
</svg>
