<svg width="108" height="127" viewBox="0 0 108 127" fill="none" xmlns="http://www.w3.org/2000/svg">
<path d="M91.7039 23.8646C91.941 23.8279 92.0897 24.0122 92.1681 24.2135C92.5558 25.2167 92.6155 27.4807 92.8594 28.6998C93.4288 31.5497 94.3212 34.915 97.0449 36.3374C99.2907 37.5103 101.83 37.1385 104.012 38.2322C104.068 38.4843 103.917 38.4102 103.764 38.4786C102.064 39.2385 100.138 39.4032 98.4226 40.008C98.2372 40.0732 97.4587 40.2974 97.5483 40.5077C97.6585 40.7654 98.4487 41.4772 98.6641 41.7774C100.909 44.911 103.246 50.4764 104.513 54.1768C117.912 93.3241 83.5856 134.015 43.5607 125.975C22.2795 121.7 5.10399 104.463 0.998823 82.7252C-4.52949 53.4535 13.4201 25.2268 41.7437 18.3809C42.6149 18.1706 45.0996 17.9091 45.6454 17.417C46.0835 17.0218 46.0107 15.0751 46.198 14.4646C46.2415 14.3227 46.4711 14.3183 46.5551 14.1707C46.6827 13.9459 46.6815 13.7065 46.8725 13.476C47.5016 12.7179 49.122 13.0339 49.9858 12.8471C51.0573 12.6153 49.3647 11.0302 49.1295 10.6895C43.9229 3.14943 53.9136 -3.93844 59.0007 2.53893C60.8072 4.83907 60.9267 8.28484 59.1065 10.6154C58.7176 11.1138 57.6124 11.8224 57.4494 12.0929C57.2826 12.369 57.3822 12.8554 57.7225 12.9541C58.3672 13.0206 60.5514 13.122 60.9248 13.6178C61.4176 14.2727 60.8358 17.132 61.6211 17.5924C70.8949 18.9901 79.3044 22.75 86.7169 28.4978C87.5172 29.1184 88.5464 29.8999 89.2751 30.5769C89.6354 30.9119 90.2571 32.0563 90.5608 31.4984L91.7045 23.8652L91.7039 23.8646ZM49.5527 6.6484C49.725 4.65415 50.865 3.00061 52.6024 2.09309C52.608 1.58329 51.6105 2.15579 51.3336 2.32108C50.2577 2.96134 49.2266 4.53382 49.1756 5.82321C49.1625 6.1595 49.0947 6.67437 49.5533 6.6484H49.5527ZM57.1289 6.33935C57.1289 4.62122 55.7611 3.22859 54.0735 3.22859C52.3859 3.22859 51.0181 4.62122 51.0181 6.33935C51.0181 8.05749 52.3859 9.45011 54.0735 9.45011C55.7611 9.45011 57.1289 8.05749 57.1289 6.33935ZM52.88 10.7306L52.0411 10.5742L52.2894 12.2195C53.0411 12.5887 53.0922 10.908 52.8794 10.7306H52.88ZM54.9005 14.8768L54.7736 14.4304C53.9509 14.2879 50.5987 13.8775 50.0486 14.305L49.562 17.2745C51.1949 17.7197 50.4176 15.6159 51.2328 14.8775H54.9005V14.8768ZM54.2496 19.5898C54.0169 19.3511 51.1046 19.1959 50.7561 19.4233C50.5191 19.5778 49.3361 22.1471 49.4855 22.4688C49.7891 22.845 50.2963 22.895 50.7362 22.9755L54.9005 22.788C55.6168 22.4314 54.3641 20.2187 54.2496 19.5898ZM59.4388 19.5601C58.6242 19.7342 57.2733 19.4315 56.3927 19.5601C56.4574 20.7437 56.941 21.8349 57.5408 22.8209C59.5607 23.0901 61.6261 23.0913 63.6709 23.0983C64.0349 23.0996 64.3367 23.3098 64.7219 23.1027C64.7711 22.8659 64.6049 22.7956 64.4643 22.6708C63.1245 21.4834 61.1992 20.6341 59.87 19.3625C59.6721 19.1871 59.5054 19.5455 59.4388 19.5601ZM47.9036 19.6012C47.1463 19.353 45.3156 20.125 44.5763 20.505C43.8906 20.8571 42.4911 21.8298 41.9117 22.3491C41.8022 22.4473 41.2054 22.9736 41.3492 23.104C41.8233 23.275 42.2291 23.1002 42.6491 23.0989C43.7182 23.0964 45.8744 23.2712 46.7873 22.8824C47.4991 22.579 47.9329 20.6177 48.1849 19.8913C48.0872 19.8539 47.9223 19.6076 47.9036 19.6012ZM65.7568 20.7842C65.6976 20.7551 65.6304 20.5271 65.4388 20.4163C64.824 20.0616 63.5695 19.8153 62.8582 19.688C62.9235 19.8558 63.0971 20.0116 63.2297 20.1313C63.6696 20.5284 68.9758 23.6531 69.3927 23.7297C69.9976 23.8412 70.5838 23.5283 71.188 23.61C71.2415 23.3504 71.0617 23.3162 70.9018 23.2066C69.6385 22.3384 67.2322 21.5189 65.7574 20.7842H65.7568ZM41.969 20.4473C41.6298 20.4283 41.3044 20.434 40.969 20.5031C39.9422 20.7146 36.0791 22.0635 35.1301 22.5328C34.865 22.6639 33.6609 23.4973 34.0125 23.8627C35.5763 23.94 37.142 23.5245 38.6105 23.0375L41.9696 20.4467L41.969 20.4473ZM54.2235 24.3725L54.081 24.629C54.1046 25.313 54.7462 30.0766 55.02 30.2609C56.8308 30.3952 58.6248 30.3964 60.4382 30.4408C60.7873 30.449 62.6939 30.8195 62.7288 30.3844C61.9988 28.4718 61.758 26.2578 60.3691 24.6892L54.2235 24.3731V24.3725ZM46.1967 24.6239C44.0225 24.805 41.8252 24.6474 39.6858 25.1458C38.6192 26.1723 37.9335 27.5035 37.0984 28.7138C36.781 29.1735 35.3591 30.6301 35.6821 31.0867L43.9602 30.7625L46.1973 24.6239H46.1967ZM68.9036 25.3054C68.707 25.1635 68.5365 24.9976 68.2714 24.9976L62.3604 24.7512L64.9976 30.6713L73.3056 30.8929C73.4506 30.7675 73.4531 30.7422 73.3653 30.5719C73.1332 30.1171 72.2894 29.0659 71.9304 28.6143C71.3168 27.8442 69.613 25.8171 68.903 25.3054H68.9036ZM37.3691 25.1299C37.15 25.1147 36.9354 25.1274 36.7176 25.1616C35.656 25.3282 32.786 25.762 31.9354 26.1153C31.3685 26.3509 30.0785 27.6207 29.5352 28.102C28.2042 29.2799 26.8937 30.537 25.6827 31.8366C28.0635 31.7751 30.468 31.6858 32.8184 31.3179L37.3697 25.1299H37.3691ZM76.7636 25.7835L75.6647 25.8899C75.4487 26.197 77.2826 27.6068 77.5309 27.8487C78.2036 28.5035 78.8794 29.1868 79.5216 29.8721C79.8389 30.2102 81.5128 32.5978 82.0051 32.2159L81.7574 31.5845L82.2527 31.5224C81.114 30.4059 80.0449 29.209 78.8987 28.1014C78.1532 27.3813 77.0455 26.9063 76.7636 25.7829V25.7835ZM28.7904 26.9C28.6827 26.5694 28.2907 26.6074 28.0393 26.7049C26.6068 27.6999 24.7312 28.2103 23.3853 29.3097C22.9646 29.6536 22.6167 30.1583 22.2029 30.5111C21.9005 30.7694 19.412 32.4382 19.8395 32.8505L22.6889 32.3983C24.5346 30.7029 26.2764 28.855 28.1799 27.2293C28.3467 27.0868 28.5713 26.9348 28.7904 26.9ZM92.2005 31.4585C91.8918 31.4363 91.987 31.4268 91.9553 31.6485C91.8781 32.1893 91.8539 32.6149 91.6964 33.1595C90.7101 36.5679 87.0331 38.2924 83.7468 38.2949C83.7935 38.5242 83.9907 38.5311 84.1768 38.552C84.753 38.6166 85.2751 38.597 85.8862 38.7104C91.0461 39.6698 91.455 43.569 91.954 48.1668C92.2869 48.1984 92.1544 48.168 92.1998 47.9768C92.3461 47.3606 92.2627 46.795 92.3423 46.2206C92.9553 41.804 94.684 38.9732 99.2907 38.357C97.6721 38.0625 95.9777 37.8396 94.6877 36.7129C93.287 35.49 92.3374 33.3007 92.2017 31.4585H92.2005ZM68.5583 32.3641C66.7431 32.1823 64.8899 32.2526 63.0393 32.2229C62.7144 32.2178 62.4102 32.0911 62.0555 32.0848C60.969 32.0664 59.9372 32.0918 58.8781 32.3451L60.6105 41.1441L60.9142 41.5311L71.6846 41.963L68.5583 32.3635V32.3641ZM35.3809 41.837L46.0785 41.2676L47.3902 32.4642C46.0243 31.9271 44.5502 32.3913 43.15 32.4698C42.1756 32.5243 39.3106 32.4249 38.5769 32.8454C38.0691 33.1361 38.1948 33.5237 38.0866 33.8948C37.3025 36.5793 36.3062 39.2031 35.3809 41.8376V41.837ZM79.6777 36.991C79.9528 37.2209 81.2421 37.2544 81.2558 36.9656C80.6827 36.3197 80.1631 34.4787 79.5776 33.9929C79.3666 33.8181 79.0841 33.853 78.8495 33.7212C78.6186 33.5914 78.4699 33.2741 78.2683 33.1734C77.903 32.9911 74.5085 32.6402 73.8588 32.5997C72.7313 32.5294 71.572 32.6465 70.4425 32.5984L73.8128 42.0757C74.9372 42.1587 76.0934 42.0162 77.216 42.0922C78.9677 42.2112 80.7512 42.5538 82.5589 42.6039C83.1737 42.621 83.4998 42.5475 83.9858 42.1599L82.595 39.2113L80.8862 38.927C81.0418 39.3639 81.3629 40.7433 80.8066 40.9345C80.4954 41.0415 78.0828 40.9877 77.5931 40.9497C76.2117 40.8427 75.3405 40.7787 74.6846 39.4805C74.3193 38.7579 72.712 34.649 72.6846 34.0366C72.6784 33.8941 72.6628 33.7592 72.7978 33.6661C72.9347 33.5718 75.707 33.7029 76.0978 33.7383C77.4469 33.8606 77.8663 33.9511 78.6267 35.0879C78.8924 35.485 79.422 36.7763 79.6784 36.991H79.6777ZM36.4985 32.9784L28.9347 33.378L24.6883 42.5969L33.5906 41.8515L36.4985 32.9784ZM15.7362 43.6089L22.6927 42.7837L26.7431 33.8599C26.6136 33.6807 26.1998 33.7238 25.9882 33.7288C25.0181 33.7523 22.0592 34.2247 21.3392 34.8213C20.7213 35.333 19.2845 37.6901 18.7424 38.5064C18.4462 38.9523 15.5172 43.4094 15.7356 43.6083L15.7362 43.6089ZM19.0915 35.003C17.936 34.8321 17.005 35.4843 16.0436 36.0125C14.2521 38.5514 11.9497 41.1061 10.3373 43.747C10.1133 44.1143 9.86877 44.5791 9.76734 45.0009C10.0125 45.2238 12.9882 44.3094 13.3728 43.9262L19.0909 35.0024L19.0915 35.003ZM52.4133 42.9763C52.3293 44.3018 52.3392 45.6348 52.2882 46.9629C52.2117 48.9755 51.908 51.9875 52.1594 53.9317C52.1824 54.1084 52.188 54.2597 52.3398 54.3813C52.6286 54.6131 54.8937 54.4795 55.4655 54.4902C57.5309 54.5301 59.6006 54.4491 61.6833 54.4896C62.2484 54.5004 65.0517 54.8525 65.2913 54.5035L64.6049 43.2885L52.4145 42.9769L52.4133 42.9763ZM50.674 43.2296L39.4767 43.1555C39.1513 43.4094 38.3442 50.4498 38.2558 51.4105C38.1532 52.5251 38.0667 53.6271 38.1152 54.7499C38.8034 54.8645 39.5209 54.6372 40.1625 54.6175C42.9341 54.5333 46.4929 54.9488 49.1227 54.6258C49.6292 54.5637 50.2365 54.2395 50.3075 53.6803C50.4021 52.9349 50.2658 51.9305 50.2963 51.1369C50.3734 49.1268 50.6043 47.0807 50.6734 45.0649C50.6945 44.4544 50.6609 43.8394 50.6752 43.2302L50.674 43.2296ZM80.5128 54.8766L80.0231 54.6714C80.2453 53.7797 79.9957 52.838 79.8526 51.9406C79.4413 49.3631 78.8563 46.6823 78.1544 44.1764C77.8681 43.8572 75.3056 43.5367 74.7306 43.4848C73.2011 43.3467 71.4214 43.336 69.8775 43.3505C68.7891 43.3607 67.5713 43.7039 66.4649 43.3569C66.4095 45.536 66.669 47.707 66.8358 49.8767C66.898 50.6892 66.9024 54.1027 67.3336 54.5593C67.4643 54.6973 67.7089 54.729 67.8918 54.7505C69.3871 54.9272 71.3069 54.6872 72.8725 54.7429C75.025 54.8202 77.753 55.3009 79.8283 55.1267C79.9789 55.114 80.4935 55.0792 80.5128 54.8766ZM37.4942 43.4829L27.6964 44.0168C27.1656 46.4942 26.4935 48.9255 26.094 51.4346C25.8955 52.6796 25.5359 54.0178 25.8078 55.2565L36.1973 54.5048L37.4948 43.4835L37.4942 43.4829ZM89.4494 44.7653L80.0169 43.8635L82.4537 55.1216L83.3735 55.1273L81.3834 45.5088C81.913 45.4284 82.4015 45.3638 82.9447 45.3765C84.1245 45.4024 86.552 45.5145 87.6323 45.7932C88.3405 45.9756 88.6385 46.7665 88.9036 47.4093C89.9547 49.9514 90.4326 52.9114 91.193 55.5605L91.58 55.6353C91.1743 56.2571 92.0393 56.1349 92.2695 55.7587C92.3915 55.5599 91.5794 51.7063 91.4456 51.1502C90.9354 49.03 90.2011 46.8064 89.4494 44.7653ZM23.6672 44.2796C22.6205 44.3442 21.5645 44.5209 20.5209 44.6209C19.9049 44.6798 19.2029 44.4658 18.6603 44.8781C17.9105 47.0902 17.1083 49.2909 16.5172 51.5562C16.2788 52.47 15.8146 53.945 15.7474 54.8297C15.6404 56.2236 17.8849 55.4098 18.7773 55.3756C19.7848 55.337 22.468 55.5909 23.1861 55.1805C23.3778 55.071 23.5383 54.8417 23.6784 54.6688L25.8184 44.6843L25.6037 44.26C24.9578 44.2118 24.3137 44.2397 23.6684 44.2796H23.6672ZM7.77854 56.52C9.34232 56.2375 11.267 56.2419 12.7792 55.8525C13.1077 55.7682 13.468 55.6663 13.6815 55.3788L16.6833 45.3904L16.5408 45.132C14.8308 45.4854 13.015 45.5418 11.4176 46.3023C10.1295 49.6772 8.70138 53.0109 7.77854 56.52ZM96.305 46.8983C96.6995 46.9413 96.7979 47.3916 96.9466 47.7019C97.857 49.598 98.8825 52.8931 99.254 54.9728C99.3722 55.6365 99.1289 56.8125 99.9173 57.0868C101.11 57.5022 100.512 55.6713 100.372 55.1007C99.8451 52.9545 98.8843 49.9128 97.9802 47.9153C97.6367 47.1567 97.3405 46.4626 96.366 46.6469L96.3044 46.8983H96.305ZM4.42135 57.2793C4.90362 57.2331 5.63292 57.2882 5.88495 56.8087C6.37157 55.8848 6.76485 54.0039 7.15377 52.9108C7.80903 51.0673 8.51034 49.2396 9.21724 47.4157C9.25707 46.9895 8.56074 46.9806 8.28009 47.0332C8.15004 47.9799 7.529 48.8501 7.13386 49.7266C6.76734 50.5391 4.13012 56.9911 4.42073 57.2793H4.42135ZM57.8675 69.2872L57.5184 56.3236C57.1258 56.2755 56.73 56.1653 56.3361 56.1362C53.2502 55.9076 47.9553 55.881 44.8874 56.1362C44.5832 56.1615 44.2683 56.1926 44.0169 56.3889C43.6846 58.7903 43.8694 61.2494 43.8408 63.6775C43.8233 65.1645 43.5688 66.7275 43.7051 68.2353C43.7518 68.7489 43.9963 69.2834 44.5452 69.4057C45.4711 69.6115 46.3784 69.4266 47.249 69.4259C50.3025 69.4247 53.4537 69.6577 56.4494 69.5627C56.6311 69.557 57.8296 69.3493 57.8682 69.2872H57.8675ZM60.8688 68.4823V57.4699C60.9777 57.2894 61.1164 57.2951 61.2975 57.2736C62.4158 57.14 63.6939 57.3908 64.7798 57.4116C67.3305 57.4617 69.8949 57.2825 72.4313 57.5339C72.1046 58.0418 73.0841 57.9018 73.2745 57.76C73.3479 57.7049 73.5651 56.9747 73.5552 56.8366C73.5278 56.4573 72.58 56.4129 72.2496 56.3882C69.6056 56.1926 66.5788 56.1793 63.9192 56.1349C62.5328 56.1121 61.1308 56.1102 59.7474 56.202C59.1463 56.563 59.5079 60.4071 59.2533 61.2665L59.5539 68.8066C59.8053 69.8635 61.3056 69.2917 62.1108 69.4297L62.0996 69.1099C62.422 68.9225 63.0729 69.2834 62.9808 68.7996C62.5813 68.521 60.9845 68.8674 60.8675 68.4811L60.8688 68.4823ZM30.2988 56.6644L29.6553 63.7934C29.8358 64.87 29.3305 68.3962 29.9055 69.1188C30.0679 69.3227 30.3367 69.4221 30.59 69.4342L41.7176 69.5007C42.4232 68.7793 41.9764 67.8161 41.9634 66.9694C41.9484 66.0087 42.0884 65.0746 42.099 64.1841C42.1289 61.5876 42.1115 58.981 42.0399 56.3863C41.9509 56.2565 41.7985 56.278 41.6653 56.2616C39.9074 56.0463 37.9472 56.3559 36.1936 56.3996C35.4574 56.418 30.4823 56.3521 30.2994 56.665L30.2988 56.6644ZM87.2266 69.1789V64.3064L86.5508 57.1457C86.4643 57.019 85.8607 56.9215 85.6709 56.9018C82.7194 56.5985 79.5732 56.6422 76.6161 56.6004C75.9018 56.5903 75.4463 56.0064 75.2876 57.3401C75.0754 59.1285 75.3094 62.3457 75.7244 64.1164C75.9167 64.9371 76.0505 66.0321 77.0306 66.1398C76.9173 65.6914 77.1575 65.1904 77.16 64.8048C77.1662 63.9112 76.9727 62.3868 76.9055 61.3951C76.8669 60.8245 76.4158 58.0886 76.7748 57.8423C77.4599 57.689 78.1382 57.6453 78.8389 57.6548C80.0536 57.6719 83.3442 57.8011 84.399 58.0696C84.4525 58.0829 85.323 58.5687 85.3604 58.6098C85.5023 58.7625 85.534 59.0671 85.5763 59.2761C85.9011 60.8771 86.0318 63.276 86.1059 64.939C86.1594 66.1505 86.0729 67.376 86.1015 68.5881L86.7288 68.7996C86.7107 69.2986 86.1855 69.0168 86.2316 69.4297L86.6603 69.5545L86.8489 69.1106L87.2247 69.1789H87.2266ZM17.7238 69.4323C19.6491 69.3886 21.585 69.4867 23.511 69.4367C23.8047 69.4291 24.0766 69.31 24.3709 69.2999C24.9652 69.279 27.4276 69.457 27.6827 69.1277L28.2957 56.8341C28.0038 56.5358 25.2328 56.6264 24.6192 56.6422C24.3255 56.6498 24.0536 56.767 23.7592 56.779C22.0293 56.8505 20.3075 56.8214 18.5937 57.1545C18.5981 57.4382 18.7244 57.6593 18.7101 57.9557C18.6435 59.3761 18.1102 61.2425 17.9739 62.7877C17.9304 63.2842 18.0057 63.8042 17.9714 64.3038C17.8538 66.0118 17.6367 67.7135 17.7232 69.4323H17.7238ZM89.9005 58.6725C90.4736 58.5092 91.7257 58.7929 92.3871 58.6725C93.0741 58.9423 94.1276 58.8157 94.7798 59.1393C95.4319 59.4629 95.3504 61.6573 95.4351 62.2785C95.5751 63.3114 95.8595 64.4203 95.9298 65.4457C96.0225 66.799 95.7642 68.2024 96.0816 69.5304C96.2894 69.6919 97.0872 69.8154 97.1426 69.5007C96.8507 67.533 96.9795 65.5255 96.8003 63.547C96.6827 62.2526 96.4394 60.1234 96.1463 58.8967C96.0275 58.3983 95.7941 57.7625 95.2409 57.6669C93.6479 57.392 91.6734 57.4281 90.0256 57.2793C89.7537 57.2546 88.1718 56.9531 88.0978 57.0266C88.1588 59.2501 88.6566 61.4565 88.8433 63.6731C88.954 64.9865 88.8881 66.3082 88.9696 67.5951C89.0063 68.1815 89.3461 68.6552 89.1432 69.3094L90.2036 69.6368L90.4606 69.4924C89.9123 67.8414 90.2085 66.027 90.086 64.3064C89.987 62.9144 89.6354 61.3609 89.585 60.0075C89.5726 59.6643 89.5016 58.7865 89.9005 58.6725ZM10.4189 57.9424C10.155 58.1824 9.45869 64.2335 9.39522 65.0657C9.34108 65.7819 9.12328 68.88 9.32987 69.3069C9.6267 69.9186 10.7288 69.5602 11.1917 69.5532C12.7549 69.5285 14.3087 69.6324 15.8675 69.6299L16.9242 57.525C16.6186 57.0823 11.262 57.7359 10.4189 57.943V57.9424ZM100.253 59.9683C100.815 63.1094 101.323 66.2746 101.551 69.4684C101.627 69.7495 102.008 70.2878 102.329 70.1897C102.726 70.0687 102.406 69.2505 102.397 68.9871C102.307 66.4532 102.139 63.6591 101.757 61.1589C101.293 58.1241 100.767 58.3622 97.8675 58.0525C97.4718 58.1412 97.8607 59.3229 98.1725 59.4914C98.6939 59.7726 99.7008 59.5693 100.253 59.9683ZM4.66902 59.0532C4.01625 59.057 3.75489 59.4515 3.58688 60.0386C2.89304 62.4609 2.32863 67.0922 2.30498 69.6235C2.30312 69.8249 2.41326 69.9978 2.43317 70.1922C2.81774 70.0174 3.44686 70.0326 3.54767 69.4924C3.67462 65.9884 3.93286 62.4749 4.66902 59.0532ZM103.845 59.7289C103.731 59.606 102.782 59.0627 102.767 59.3704L103.762 65.3196L103.887 69.6223C103.958 70.0022 104.742 70.2385 105.073 70.4291C105.223 70.4139 105.307 70.0257 105.317 69.8775C105.446 67.7946 104.64 62.3925 104.126 60.2659C104.077 60.0658 103.983 59.8771 103.846 59.7295L103.845 59.7289ZM84.8651 71.2023C84.8109 70.9895 84.5825 70.9098 84.3983 70.8566C83.0206 70.4582 81.1905 70.4569 79.7425 70.1536C76.4581 69.4671 74.384 67.3411 73.926 63.9232C73.7418 62.5483 74.1252 60.8828 73.2403 59.8137C72.9298 60.0259 72.9217 60.3394 72.8426 60.6725C72.4046 62.5211 72.7157 64.4109 71.9167 66.1853C70.5707 69.1764 67.1015 70.4151 64.1015 70.8249C64.0542 71.1124 64.1276 71.0719 64.3461 71.1384C66.5539 71.8103 68.7568 71.5804 70.4954 73.6177C72.4911 75.9565 72.2322 81.3541 73.1202 84.2445C73.5054 84.1685 73.6417 83.9924 73.7655 83.6371C74.0903 82.7062 74.0412 80.3079 74.1899 79.1325C74.5732 76.1003 74.9777 73.2105 78.2484 72.2523C80.3517 71.6361 82.707 71.5614 84.8644 71.2023H84.8651ZM64.1009 68.8002C63.8383 68.8705 63.1283 68.5817 63.2322 69.0517C63.45 68.9149 64.0138 69.0428 64.1009 68.8002ZM23.2415 71.5019C22.8252 72.2688 23.1581 73.9388 23.1936 74.8121C23.3137 77.7576 23.4786 80.6923 23.8737 83.6131C24.1227 84.0101 26.2085 83.8303 26.7437 83.8556C27.8999 83.9107 29.1874 84.0861 30.3392 84.1191C30.8601 84.1343 34.2266 84.1767 34.3921 84.0576C34.697 83.4364 34.6522 82.6986 34.6385 82.0197C34.5782 79.0147 34.361 75.4195 34.1345 72.4062C34.1208 72.2226 33.9907 71.2543 33.9546 71.1973C33.7032 70.7989 32.9217 71.0782 32.5869 71.082C29.6821 71.1143 26.7748 71.0529 23.87 71.0668C23.7151 71.0041 23.2969 71.398 23.2415 71.5013V71.5019ZM49.6647 71.0909L35.9322 71.0738L36.2527 82.7834C36.1917 83.5181 36.7543 83.6637 36.8906 84.2204L49.9285 84.4946L49.6653 71.0909H49.6647ZM58.2465 72.3347C59.1868 70.6716 57.5321 71.1415 56.4494 71.082C56.1133 71.0636 55.8184 70.9458 55.4655 70.9439C54.155 70.9382 52.7599 71.2087 51.4189 71.0769C51.3971 71.4012 51.5377 71.6982 51.5489 72.0206C51.674 75.6386 51.2197 79.7778 51.539 83.2964C51.6124 84.1051 51.768 84.4921 52.6634 84.368L52.6329 72.6285C52.7032 72.5101 52.7885 72.3385 52.9111 72.2789C53.2316 72.1238 56.8003 72.184 57.455 72.2099C57.7325 72.2213 57.9746 72.3429 58.2471 72.3347H58.2465ZM97.2882 83.7239C97.7686 82.2597 98.0567 80.7544 98.277 79.225C98.5234 77.515 98.7729 75.5126 98.913 73.797C98.9366 73.5107 99.043 71.6722 98.9814 71.5779C98.9011 71.4557 98.5035 71.3626 98.343 71.3423C96.0872 71.0535 93.4394 71.1441 91.1382 71.082C90.6734 71.0693 89.9777 70.6862 89.7138 71.2017C90.5365 71.2315 90.534 71.8255 90.5888 72.5278C90.8638 76.0604 89.8738 79.667 89.9802 83.2084L90.4575 83.2996C90.6753 83.0209 90.8401 82.7239 90.9267 82.375C91.6634 79.4023 91.3959 75.7615 92.0094 72.7191C92.058 72.5893 92.1326 72.3974 92.2739 72.3651C92.3523 72.3473 93.6199 72.4556 93.8775 72.4708C94.6566 72.5171 96.814 72.6862 97.4127 73.049C97.5502 73.1326 97.7225 73.2878 97.7686 73.4455L96.5608 83.0551C96.5558 83.5333 96.8084 83.8404 97.2876 83.7239H97.2882ZM13.4027 71.4867C13.2421 71.7223 13.2527 72.0022 13.2428 72.2745C13.1401 75.0788 13.6622 78.9381 13.9932 81.774C14.1339 82.9798 13.7163 83.3338 15.3019 83.4795C16.1749 83.5599 17.3853 83.589 18.2782 83.6137C18.7761 83.627 21.9204 83.6669 22.0828 83.5529L21.2757 71.196C21.1874 71.0662 21.0343 71.0877 20.9011 71.0712C19.5931 70.9098 16.6584 70.968 15.295 71.0725C14.6584 71.1213 14.0088 71.2954 13.4027 71.4867ZM11.3703 71.4709L6.22347 71.5829L5.931 71.7907L6.52714 82.2635C7.76111 83.1476 8.80156 83.0323 10.2011 83.1033C10.6099 83.1242 12.2073 83.4889 12.361 83.0209L11.3703 71.4709ZM102.645 83.3553L103.331 83.2306C104.424 79.8146 104.922 76.2636 105.125 72.676C105.074 72.4689 105.038 72.1764 104.882 72.0269C104.527 71.6868 101.547 71.4994 100.974 71.5905C100.033 71.7406 100.409 72.3929 100.382 72.9122C100.223 75.9704 99.4799 79.1103 99.2901 82.0267C99.2552 82.5656 99.4276 83.0418 99.267 83.3692C98.9086 84.1026 99.852 83.6048 100.034 83.1653C100.424 82.2242 100.731 79.7075 100.886 78.5898C101.13 76.8444 101.222 75.0617 101.418 73.3087C101.517 72.9939 102.749 73.0427 103.016 73.1662C103.164 73.2346 103.726 74.0015 103.761 74.1795C103.744 77.2864 103.019 80.306 102.645 83.3547V83.3553ZM4.29752 71.709L2.30623 71.8983L2.18177 72.151C2.22035 75.6684 2.7468 79.1211 3.17804 82.5954C3.80032 82.3794 4.29316 82.6036 4.91855 82.5966L4.29689 71.7096L4.29752 71.709ZM67.1905 73.6304C66.8414 73.5791 66.417 73.493 66.3392 73.9249C66.1575 74.9261 66.3909 76.7241 66.3448 77.8545C66.3069 78.7753 66.1171 79.8316 66.0853 80.7544C66.066 81.3066 65.9932 83.5548 66.1108 83.9044C66.239 84.285 67.4382 84.5212 67.4599 84.3027C67.2695 81.7968 67.2913 79.2288 67.328 76.7032C67.3429 75.6829 67.7319 74.6196 67.1905 73.6298V73.6304ZM79.7686 73.8622C79.1227 76.6772 79.3268 79.6417 79.0119 82.5225C78.9323 83.2527 78.422 83.7378 79.5856 84.1153C79.8644 84.1089 79.9727 83.7625 80.0075 83.5371C80.2073 82.2356 80.0934 80.123 80.1351 78.7303C80.1656 77.7082 80.5253 75.0085 80.1245 74.1953C80.0785 74.1022 79.8246 73.8166 79.7692 73.8628L79.7686 73.8622ZM6.28445 92.7212C6.27512 92.4621 6.38464 92.2164 6.35477 91.9561C6.23093 90.8732 5.28009 88.5718 4.9534 87.3065C4.84388 86.8822 4.41637 84.5162 4.29938 84.4281C4.18239 84.3401 3.84574 84.3661 3.67586 84.2413L4.63604 88.5154L6.28445 92.7212ZM8.4618 84.6206C7.76671 84.4959 6.77107 84.7118 6.03741 84.6206L9.15626 95.179L9.3529 95.3582L11.4574 95.6261L11.7424 95.4222C11.8426 95.1036 10.384 90.3786 10.1756 89.5838C9.96522 88.7801 9.32116 85.2482 8.98762 84.9075C8.95962 84.8784 8.49104 84.6257 8.4618 84.62V84.6206ZM98.2938 95.7591C98.9347 95.7167 99.3311 95.134 99.5601 94.5812C100.518 92.2646 101.322 89.7972 102.085 87.4046C102.367 86.5174 102.354 85.7201 103 84.9145C103.046 84.3832 101.586 84.7321 101.429 85.0918C100.807 88.7814 99.2664 92.181 98.2938 95.7585V95.7591ZM95.8072 95.3791C96.9783 95.2043 97.4979 93.1689 97.8887 92.1202C98.7462 89.8181 99.3243 87.4281 99.8881 85.0361L99.7039 84.7676L95.5035 85.0082C94.1868 85.2438 95.1756 85.9702 94.9366 86.772C95.2247 87.0316 97.8955 85.8606 98.4058 86.5927L95.8072 95.3791ZM20.5838 96.6451C20.3355 95.6597 19.8937 94.7433 19.6248 93.7617C19.1457 92.0138 18.6759 89.9498 18.2795 88.1696C18.0212 87.0075 18.3274 85.2938 16.9192 85.1241C15.8489 84.9949 14.6404 85.0475 13.5601 84.9994C12.7536 84.9633 11.847 84.7182 11.0038 84.9329C10.8277 85.0424 11.0281 85.7866 11.0679 86.0183C11.4879 88.4806 12.4382 92.6604 13.4027 94.9067C13.6279 95.4317 13.8171 95.8737 14.4382 96.0042C15.7754 96.2854 18.1388 96.5456 19.5284 96.6444C19.8787 96.6691 20.234 96.633 20.5838 96.6451ZM28.6342 85.9183C28.025 85.2641 25.1656 85.4376 24.2471 85.3857C23.9833 85.3705 23.7424 85.2654 23.5047 85.2552C22.2428 85.1995 20.9727 85.2508 19.7132 85.1267C19.4438 85.4009 20.305 89.8029 20.4954 90.4704C20.6267 90.9302 20.9441 91.4064 21.0237 91.7047C21.3535 92.9416 21.6255 95.6103 22.4481 96.5482C22.8283 96.9814 23.7387 97.1625 23.9086 96.4532C23.1892 95.8256 23.0567 95.6464 22.7611 94.7464C22.4419 93.775 20.6323 86.5984 20.9571 86.266C23.1886 86.5598 25.7113 86.0329 27.7412 87.145L29.1662 93.4811H29.5365L29.5383 92.7218L29.9123 92.6585C29.445 91.7503 28.9596 86.2672 28.6348 85.9183H28.6342ZM83.4705 96.4925C83.5396 96.3702 83.5103 95.9079 83.5788 95.6514C84.3187 92.8877 85.1538 90.1379 85.8881 87.3704C86.0611 86.8188 86.3803 86.6884 86.9111 86.6396C87.6149 86.575 90.8881 86.5604 91.3672 86.7992C91.4525 86.8416 91.5408 86.8581 91.5645 86.9708C91.4282 87.6801 91.3573 88.3983 91.1973 89.105C90.8258 90.7465 89.3492 94.0498 89.3342 95.4513C89.328 96.0327 89.9976 96.9396 90.4743 96.3379C90.6703 96.0909 90.4618 95.8687 90.5153 95.628C91.1774 92.6319 92.969 88.6459 93.0754 85.6897C93.0816 85.5212 93.1028 85.2888 92.9553 85.1811C92.0648 85.2432 91.1681 85.2229 90.2751 85.2546C90.0374 85.2634 89.7978 85.3768 89.5328 85.385C88.6273 85.4135 85.4363 85.1659 84.9304 85.7631C84.697 86.0386 84.4214 88.5218 84.2826 89.1544C83.8713 91.0334 82.6491 94.0207 82.5122 95.7129C82.4687 96.2518 82.6379 96.6514 82.7524 97.1517C82.8426 96.9548 83.4456 96.5355 83.4699 96.4931L83.4705 96.4925ZM83.0013 85.6346C82.3965 85.3559 81.8812 85.6764 81.2602 85.6346C81.2204 85.834 81.4898 85.7561 81.5726 85.8828C81.7263 86.1178 81.3274 88.9587 81.244 89.478C80.852 91.9048 79.6578 94.502 79.4288 96.7451C79.3455 97.5627 79.4438 97.5773 80.2664 97.5311C80.0561 97.0542 80.6311 96.6128 80.8022 96.1163C81.5016 94.0897 82.1886 90.9619 82.5894 88.822C82.7904 87.7485 82.8837 86.7023 83.0019 85.6352L83.0013 85.6346ZM33.7468 97.5133C33.8227 97.393 33.7624 97.032 33.7331 96.8667C33.3604 94.7369 32.6149 92.5457 32.2888 90.3628C32.2054 89.8048 31.8601 87.3356 32.0779 87.0177C32.4892 86.822 33.1152 86.8771 33.5831 86.8942C35.4668 86.9613 37.4089 87.1146 39.2925 87.1576C39.9018 87.1716 41.7972 87.3445 42.0368 86.7745C42.3013 86.1463 40.6267 85.917 40.2901 85.8885C38.2459 85.7156 35.5122 85.6384 33.4593 85.6289C33.0156 85.627 30.7593 85.7593 30.5856 86.005C30.4904 87.0487 30.8694 88.1032 31.015 89.1291C31.2838 91.0201 31.824 95.6628 32.8408 97.1435C33.0125 97.3936 33.5141 97.8857 33.7481 97.5133H33.7468ZM60.7194 85.9246C60.2845 85.9639 59.7431 85.9968 59.3734 86.2001C59.0032 86.5851 58.9273 93.4792 58.8781 94.5565C58.8495 95.1815 58.4998 96.9098 58.7493 97.3493C58.8999 97.6153 59.562 98.1827 59.8178 97.7907C59.8688 97.7128 59.9553 97.0143 59.9827 96.8199C60.3809 93.9675 60.1824 90.8333 60.4935 87.9733C60.5894 87.093 61.4282 87.1912 62.1681 87.1469C64.6914 86.9955 67.2558 87.2995 69.7624 87.2862C70.3479 87.283 71.0822 87.0506 71.7225 87.1272C71.9024 87.0728 72.0486 86.8935 72.0648 86.7029C72.1731 85.4097 68.9578 86.0088 68.2726 86.0196C65.7891 86.0589 63.1426 85.7068 60.7194 85.9246ZM57.6348 87.4053C57.5321 85.6137 56.3741 86.1374 55.2173 86.1456C52.2894 86.1665 49.4226 86.088 46.5128 86.0076C45.7089 85.9854 44.8756 85.9867 44.0754 86.0677C43.8893 86.1995 43.9341 87.9904 43.9609 88.352C44.1382 90.7674 44.6267 93.7382 44.9696 96.1859C45.0623 96.8484 45.17 97.5159 45.328 98.1644C46.2975 98.0725 45.8283 97.1973 45.819 96.5874C45.7904 94.7262 45.7823 92.8732 45.6989 91.0144C45.6746 90.473 45.295 87.3597 45.5937 87.1703L57.6354 87.4053H57.6348ZM71.1426 88.8144L70.9634 89.0119L69.5664 96.842C69.4649 97.3613 70.5415 97.7356 70.7593 97.4076C70.8022 97.3436 70.6846 97.0903 70.7406 96.899C70.8165 96.6413 71.086 96.3899 71.2079 95.9693C71.6435 94.4608 72.3485 91.0214 72.4338 89.4894C72.4444 89.2988 72.4811 88.972 72.3156 88.853L71.1432 88.8144H71.1426ZM26.9242 111.707C27.183 108.63 27.5327 103.784 31.0555 102.812C32.4008 102.441 33.8121 102.604 35.1581 102.432C35.669 102.367 36.1588 102.3 36.3716 101.771C34.4288 100.835 32.1457 101.331 30.2932 100.116C27.272 98.134 27.6864 94.7661 26.8072 91.6395C26.7586 91.4672 26.7929 91.2468 26.5539 91.2025C26.2334 94.072 26.2228 97.7831 23.8072 99.7356C22.2228 101.017 20.1326 101.324 18.221 101.772C21.7169 102.492 24.2023 102.97 25.6528 106.611L26.9242 111.707V111.707ZM15.1133 106.138C15.2434 106.013 14.076 104.266 13.9298 103.99C13.2216 102.649 12.5097 101.289 11.8165 99.9395C10.969 98.2904 10.7823 96.2353 8.40019 96.2676C9.23529 98.7926 10.8345 101.495 12.4021 103.647C12.6821 104.032 14.6167 106.618 15.1139 106.138H15.1133ZM91.9528 105.758C92.1637 105.782 92.3473 105.75 92.5415 105.663C93.4519 105.252 95.9702 100.972 96.651 99.8464C96.8862 99.4582 98.338 97.1283 98.1675 96.8984L96.9553 97.3094C96.2596 98.6279 95.5688 99.9724 94.7885 101.242C94.5209 101.677 91.7574 105.577 91.9528 105.758V105.758ZM17.0617 98.2043C16.6547 97.8534 13.0822 97.3347 12.8756 97.5323C12.9938 98.2764 13.3255 99.0503 13.6385 99.7286C13.8041 100.087 14.2334 101.158 14.557 101.209C15.0374 101.286 16.8974 100.333 17.5993 100.442L16.8681 98.7172L17.2272 98.5431C17.2434 98.5342 17.1052 98.2429 17.0604 98.2043H17.0617ZM93.1949 97.785C92.8109 97.9376 92.2807 97.7901 92.0181 98.1682C91.3604 99.4493 90.7935 100.78 90.109 102.047C89.3442 103.463 87.7331 105.63 87.2005 106.934C87.1183 107.136 87.0748 107.31 87.104 107.531C87.2782 107.531 87.4674 107.561 87.6367 107.505C87.9827 107.388 89.3934 105.361 89.6914 104.913C90.8003 103.247 92.4705 100.258 93.099 98.3822C93.1668 98.1802 93.2322 98.006 93.1955 97.785H93.1949ZM21.7032 98.9224C21.7449 98.7052 21.6491 98.6653 21.4898 98.5716C21.333 98.4791 19.847 98.2612 19.6541 98.2834C19.254 98.329 19.1239 99.2441 19.4245 99.4405C20.0287 99.835 21.0754 99.0168 21.7032 98.923V98.9224ZM79.6435 107.783C80.0891 107.955 80.2901 107.922 80.6435 107.6C81.5832 106.744 83.5508 102.988 84.0548 101.706C84.2546 101.199 84.7916 99.6748 84.8445 99.2087C84.9403 98.3632 83.0156 98.9047 82.5639 98.9224C80.7456 98.994 78.7754 98.9458 76.9715 99.1783C76.7449 99.2074 75.7642 99.3524 75.6896 99.4569C75.1364 102.107 74.1003 104.657 73.1463 107.183C73.0113 107.541 72.3759 108.756 72.4431 108.965C72.6398 109.576 73.2484 109.066 73.4904 108.799C74.0617 108.171 75.595 104.153 75.9696 103.096C76.1388 102.618 76.4649 100.868 76.7449 100.721C77.295 100.433 78.5408 100.618 79.2061 100.568C80.2185 100.492 81.8682 100.138 82.8134 100.316C83.3293 100.414 83.1121 101.022 83.0057 101.399C82.4033 103.533 80.6298 105.475 79.758 107.333C79.6871 107.484 79.5968 107.599 79.6435 107.784V107.783ZM50.2689 100.791C50.5769 100.426 50.371 99.785 49.8619 99.6862C48.969 99.5139 47.3853 99.7343 46.3784 99.6881C45.3996 99.6431 44.3778 99.4816 43.3983 99.431C42.099 99.3632 40.7841 99.3442 39.4842 99.3043C39.1762 100.653 39.8769 101.924 40.1942 103.199C40.44 104.185 41.272 108.431 41.7792 108.927C41.8918 109.037 41.936 109.105 42.0337 108.925C42.239 108.543 41.3361 105.058 41.2384 104.288C41.0878 103.1 41.142 101.882 40.9746 100.696C42.5732 100.827 44.1662 100.773 45.7667 100.817C46.0611 100.825 46.333 100.949 46.6267 100.953C47.183 100.963 50.0523 101.046 50.2683 100.79L50.2689 100.791ZM53.5147 109.79L53.4002 101.257C53.6802 101.057 54.0915 101.333 54.3237 101.294C54.4985 101.266 54.6678 100.998 55.0841 100.946C56.0698 100.821 57.1314 101.081 58.0654 101.081C58.7997 101.082 59.5147 100.953 60.1799 100.943C60.9447 100.932 63.5831 101.093 64.0455 100.828C64.4587 100.591 64.6261 100.089 64.2826 99.6868C63.8389 99.1675 62.8893 99.5506 62.3044 99.562C58.9783 99.6266 55.6192 99.5817 52.3062 99.4468C52.2235 99.5 52.0499 100.779 52.0355 101.007C51.9204 102.824 51.9341 105.395 52.0355 107.219C52.0735 107.903 52.1519 109.414 52.74 109.795C52.9347 109.922 53.4021 109.969 53.5141 109.79L53.5147 109.79ZM21.2054 107.531C21.3392 107.392 20.5247 106.267 20.3952 106.015C20.0312 105.306 19.6236 103.951 19.033 103.478C18.3728 102.95 16.5769 102.672 15.7897 102.966C15.2197 103.804 17.305 106.082 17.781 106.777L21.2048 107.53L21.2054 107.531ZM18.9248 108.808C18.3143 108.999 19.1774 109.922 19.4014 110.191C20.2415 111.205 21.5975 112.495 22.5719 113.419C22.8899 113.721 25.2633 115.907 25.4332 115.83C25.5433 115.722 25.6827 115.617 25.6827 115.445C25.6827 115.021 24.2247 113.754 23.8775 113.356C23.1183 112.486 20.9173 109.409 20.137 109.063C19.9123 108.963 19.1183 108.748 18.9248 108.808ZM81.0113 116.011C81.2882 116.251 82.8377 115.077 83.1637 114.85C84.4407 113.959 85.9491 112.814 87.1046 111.774C87.3143 111.585 88.4991 110.531 88.5359 110.44C88.5987 110.282 88.468 109.695 88.3548 109.612L87.9167 109.555C86.6186 110.538 85.5856 111.932 84.3697 113.04C83.5041 113.828 82.4711 114.449 81.6311 115.189C81.5309 115.277 80.8706 115.89 81.0113 116.013V116.011ZM34.5421 117.624C35.6522 117.74 36.9515 117.999 38.048 118.042C38.2745 118.051 39.2073 118.111 39.2291 117.849C38.4911 116.332 37.5234 114.935 36.7269 113.438C36.2459 112.535 35.8134 110.734 34.791 110.472C33.0075 110.26 31.216 110.118 29.4133 110.127C28.9049 110.356 29.6248 111.219 29.8084 111.494C31.2316 113.621 33.3249 115.356 34.5421 117.624V117.624ZM78.3174 115.042C79.2341 114.253 81.829 112.164 82.2204 111.105C82.2863 110.927 82.4319 110.458 82.3268 110.31C82.1905 110.165 82.0013 110.176 81.8196 110.179C80.8165 110.189 79.6031 110.493 78.585 110.568C77.6865 110.635 76.7549 110.443 75.8756 110.692C75.7437 110.776 75.7356 111.115 75.595 111.322C74.6628 112.695 73.0349 114.669 71.9304 115.945C71.6728 116.243 70.3959 117.228 70.6908 117.531C71.572 117.631 72.3971 116.865 72.9901 116.265C74.1563 115.084 75.7088 112.204 77.0897 111.704C77.6815 111.49 80.305 110.855 79.9939 112.118C79.8308 112.782 77.3635 114.959 76.7176 115.502C76.4369 115.738 74.31 117.051 74.6703 117.404C74.8893 117.394 75.1314 117.438 75.3467 117.398C75.646 117.342 77.6018 115.811 77.9659 115.507C78.142 115.36 78.2042 115.141 78.3174 115.043V115.042ZM46.0735 112.341C46.2085 111.056 45.4133 111.135 44.3996 111.07C42.2266 110.932 40.0156 111.226 37.8675 110.697C38.1326 112.661 39.2309 112.028 40.5458 112.084C41.3224 112.117 42.2446 112.311 43.0219 112.346C44.0343 112.393 45.0617 112.302 46.0735 112.341ZM66.6858 111.23C66.5439 111.147 63.8308 111.175 63.4126 111.196C62.1544 111.26 60.8986 111.526 59.6416 111.597L57.8177 118.546C58.5197 118.956 58.9453 117.87 59.1332 117.345C59.44 116.49 60.1563 113.249 60.7991 112.839C61.8688 112.158 66.3031 113.128 66.9067 111.961C67.0075 111.766 66.8016 111.298 66.6858 111.23ZM57.4942 112.577C57.5639 112.183 57.5284 111.54 57.0766 111.455L48.4338 111.39C48.1444 111.536 48.0405 112.222 48.053 112.531L48.7456 118.165C49.1532 118.7 49.8389 118.332 50.1463 117.849C49.4338 116.891 49.5931 115.579 49.4151 114.445C49.3131 113.793 49.0082 113.242 49.0567 112.594L57.4948 112.577H57.4942ZM39.7319 122.593C39.6336 122.369 39.3467 122.239 39.1476 122.113C36.5253 120.45 34.1787 119.209 31.0306 118.981C30.809 118.966 30.7101 118.834 30.5334 119.113C33.4462 120.594 36.6329 121.558 39.7319 122.592V122.593ZM69.3237 121.834C69.8227 121.879 70.2901 121.731 70.7568 121.586C71.7972 121.261 73.6609 120.558 74.628 120.084C74.954 119.924 75.2988 119.792 75.5365 119.493C75.5209 118.709 72.7947 119.821 72.3996 119.968C71.847 120.173 69.7145 121.011 69.4394 121.384C69.3255 121.539 69.2944 121.639 69.323 121.834H69.3237ZM46.1967 123.606C46.2776 123.083 45.7406 122.986 45.4456 122.663C44.7817 121.936 44.2446 121.08 43.5502 120.415C41.9932 120.036 40.3367 120.068 38.7375 119.936C38.7194 120.142 38.7057 120.225 38.8632 120.376C38.9982 120.505 39.8501 121.051 40.066 121.176C40.936 121.679 42.8893 122.765 43.7481 123.124C44.4923 123.435 45.4114 123.442 46.1955 123.606H46.1967ZM63.3299 123.327C63.3741 123.3 63.4587 123.021 63.6827 122.865C64.3324 122.411 67.4755 121.162 67.5881 120.504C67.7574 119.51 66.6578 120.146 66.2123 120.377C65.3056 120.848 62.7219 122.342 62.0486 122.974C61.9235 123.091 61.8209 123.154 61.8632 123.354C62.1986 123.285 63.1003 123.466 63.3293 123.327L63.3299 123.327ZM51.2957 120.569L45.9491 120.316C45.913 120.513 45.9683 120.609 46.0667 120.764C46.4836 121.419 48.7972 123.517 49.5079 123.843C50.0449 124.09 51.4114 124.374 51.6522 123.647C51.8532 123.04 50.8856 121.335 51.2957 120.569ZM59.4388 120.569C57.9018 120.331 55.8171 120.745 54.2166 120.569L54.0299 120.759V123.986C54.8265 124.439 56.0088 124.4 56.8115 123.971C57.0853 123.824 58.3137 122.339 58.6889 121.958C59.0536 121.588 59.5975 121.364 59.7524 120.763C59.7549 120.714 59.4755 120.575 59.4382 120.569L59.4388 120.569Z" fill="#3D007C"/>
<path d="M16.9742 77.6581H16.7266L16.8516 77.1533H16.9736L16.9742 77.6581Z" fill="#3D007C"/>
<path d="M20.5896 46.1422C20.6637 46.3189 20.2828 46.8604 20.2188 46.7743L20.3438 46.1416H20.5902L20.5896 46.1422Z" fill="#3D007C"/>
<path d="M14.125 62.8489V62.5981L14.4959 62.4702C14.5382 62.7014 14.3596 62.8895 14.125 62.8496V62.8489Z" fill="#3D007C"/>
<path d="M16.246 90.5687H15.625V90.3173C15.8621 90.299 16.1707 90.2825 16.246 90.5687Z" fill="#3D007C"/>
<path d="M48.5367 82.9453C48.2642 83.2233 46.1789 83.0891 45.6394 83.0967C43.4652 83.1264 41.1335 83.1891 38.9325 82.9738C38.6941 82.9504 38.1273 82.8535 37.9854 82.6717L37.5 72.2153L47.6369 72.3395C48.9468 72.4991 48.4975 73.3097 48.5678 74.3033C48.7358 76.6769 48.8908 79.9264 48.696 82.2841C48.6767 82.5153 48.6774 82.7477 48.5373 82.9447L48.5367 82.9453Z" fill="#3D007C"/>
<path d="M76.764 44.8925C77.2382 45.1921 77.8381 52.6567 77.7584 53.7175C77.4884 54.1564 73.8045 53.6384 73.1181 53.6035C72.512 53.5731 68.6526 53.6403 68.4678 53.3375L67.8281 44.3681C70.8231 44.2719 73.8007 44.5005 76.764 44.8919V44.8925Z" fill="#3D007C"/>
</svg>
