<svg width="210" height="58" viewBox="0 0 210 58" fill="none" xmlns="http://www.w3.org/2000/svg">
<path d="M210 0V58H0V0H210ZM1.48921 56.5501H208.511V1.44985H1.48921V56.5501Z" fill="#3D007C"/>
<path d="M210 0V58H150.426V0H210ZM151.915 56.5501H208.511V1.44985H151.915V56.5501Z" fill="#3D007C"/>
<path d="M180.213 15.95C187.616 15.9501 193.617 21.7929 193.617 29.0002C193.617 36.2074 187.616 42.0499 180.213 42.05C172.81 42.05 166.809 36.2075 166.809 29.0002C166.809 21.7929 172.81 15.95 180.213 15.95ZM180.213 27.55C179.391 27.55 178.724 28.1994 178.724 29.0002C178.724 29.8009 179.391 30.45 180.213 30.45C181.036 30.45 181.703 29.8009 181.703 29.0002C181.703 28.1994 181.036 27.5501 180.213 27.55Z" fill="#3D007C"/>
<path d="M139.097 16.1538V17.2951H138.329V14.2925H139.766C139.948 14.2925 140.939 14.2925 140.939 15.1892C140.939 15.7598 140.52 15.9228 140.367 15.9908L140.939 17.2951H140.129L139.641 16.1538H139.097ZM139.097 14.8359V15.5968H139.557C139.78 15.5968 140.143 15.5424 140.143 15.1756C140.143 14.999 140.018 14.8359 139.613 14.8359H139.097ZM136.668 15.8006C136.668 14.2245 137.966 12.9882 139.543 12.9882C141.106 12.9882 142.418 14.2245 142.418 15.8006C142.418 17.3358 141.134 18.5994 139.543 18.5994C137.952 18.5994 136.668 17.3358 136.668 15.8006ZM137.268 15.8006C137.268 16.9826 138.329 18.0152 139.543 18.0152C140.757 18.0152 141.818 16.9826 141.818 15.8006C141.818 14.5914 140.757 13.5724 139.543 13.5724C138.343 13.5724 137.268 14.5914 137.268 15.8006Z" fill="#3D007C"/>
<path d="M127.356 19.958L128.975 19.6184C129.059 19.9444 129.226 20.5287 130.064 20.7868C130.524 20.9363 130.915 20.9634 131.222 20.9634C132.771 20.9634 133.078 20.1754 133.078 19.7678C133.078 18.9119 132.352 18.6945 131.934 18.5858L129.854 18.0695C128.5 17.7298 127.845 16.806 127.845 15.6511C127.845 13.9392 129.268 12.9474 131.138 12.9474C132.059 12.9474 132.966 13.1784 133.692 13.7354C134.25 14.1702 134.39 14.6049 134.473 14.9038L132.882 15.2979C132.771 14.9854 132.492 14.2653 131.166 14.2653C129.882 14.2653 129.561 14.931 129.561 15.393C129.561 16.0995 130.384 16.3576 130.859 16.4799L132.436 16.8603C133.231 17.0641 134.85 17.4989 134.85 19.4417C134.85 21.2352 133.273 22.2813 131.152 22.2813C130.036 22.2813 129.059 22.0232 128.291 21.4254C127.663 20.9363 127.496 20.3792 127.356 19.958Z" fill="#3D007C"/>
<path d="M118.295 22.1455V13.0833H121.728C122.259 13.0833 123.473 13.0968 124.603 14.2109C125.51 15.1076 125.929 16.344 125.929 17.6076C125.929 19.5233 125.022 20.6645 124.38 21.2216C123.989 21.5612 122.942 22.1455 121.352 22.1455H118.295ZM120.012 14.374V20.814H121.421C122.873 20.814 124.115 19.7271 124.115 17.5396C124.115 15.8821 123.208 14.374 121.617 14.374H120.012Z" fill="#3D007C"/>
<path d="M115.789 22.1455H114.017L112.566 18.4228H110.207V22.1455H108.532V13.0833H112.566C113.724 13.0833 114.422 13.3006 114.994 13.7898C115.468 14.2109 115.831 14.8223 115.831 15.7462C115.831 17.4445 114.631 17.9472 114.156 18.151L115.789 22.1455ZM110.207 14.3876V17.1184H112.3C113.124 17.1184 114.087 16.8467 114.087 15.719C114.087 15.0397 113.626 14.3876 112.44 14.3876H110.207Z" fill="#3D007C"/>
<path d="M106.152 17.6076C106.152 20.3792 104.603 22.2813 102.161 22.2813C99.2302 22.2813 98.2393 19.632 98.2393 17.5804C98.2393 15.1348 99.6628 12.9474 102.231 12.9474C104.854 12.9474 106.152 15.1756 106.152 17.6076ZM104.338 17.594C104.338 17.2271 104.31 16.113 103.877 15.2571C103.403 14.3196 102.579 14.2653 102.203 14.2653C100.444 14.2653 100.054 16.0179 100.054 17.6347C100.054 18.7081 100.235 20.9634 102.175 20.9634C103.012 20.9634 103.64 20.4607 103.919 19.9173C104.142 19.4825 104.338 18.8847 104.338 17.594Z" fill="#3D007C"/>
<path d="M95.0142 18.9934L96.5772 19.17C96.2144 21.5612 94.5258 22.2813 93.0465 22.2813C89.9205 22.2813 89.3205 19.17 89.3205 17.6076C89.3205 15.2571 90.4369 12.9474 93.1024 12.9474C95.084 12.9474 96.2423 14.1702 96.5772 16.1538L95.0142 16.3168C94.8468 15.5968 94.5258 14.2653 93.1163 14.2653C91.2463 14.2653 91.1347 16.7516 91.1347 17.5668C91.1347 20.1618 92.1953 20.9091 93.1721 20.9091C94.0513 20.9091 94.8747 20.2298 95.0142 18.9934Z" fill="#3D007C"/>
<path d="M87.5187 22.1455H81.4761V13.0833H87.4629V14.4283H83.1507V16.8875H86.6116V18.2054H83.1507V20.746H87.5187V22.1455Z" fill="#3D007C"/>
<path d="M78.9281 22.1455H77.1558L75.7044 18.4228H73.346V22.1455H71.6713V13.0833H75.7044C76.8627 13.0833 77.5605 13.3006 78.1327 13.7898C78.6071 14.2109 78.97 14.8223 78.97 15.7462C78.97 17.4445 77.7698 17.9472 77.2953 18.151L78.9281 22.1455ZM73.346 14.3876V17.1184H75.4393C76.2626 17.1184 77.2256 16.8467 77.2256 15.719C77.2256 15.0397 76.765 14.3876 75.5788 14.3876H73.346Z" fill="#3D007C"/>
<path d="M64.8413 22.1455H62.8875L60.8361 18.5722L58.6451 22.1455H57.0821L60.0407 17.4174L57.5008 13.0833H59.4545L61.171 16.0995L62.9852 13.0833H64.5622L61.9665 17.2136L64.8413 22.1455Z" fill="#3D007C"/>
<path d="M56.005 17.6076C56.005 20.3792 54.4559 22.2813 52.0137 22.2813C49.0831 22.2813 48.0923 19.632 48.0923 17.5804C48.0923 15.1348 49.5157 12.9474 52.0835 12.9474C54.7071 12.9474 56.005 15.1756 56.005 17.6076ZM54.1908 17.594C54.1908 17.2271 54.1628 16.113 53.7302 15.2571C53.2558 14.3196 52.4324 14.2653 52.0556 14.2653C50.2972 14.2653 49.9065 16.0179 49.9065 17.6347C49.9065 18.7081 50.0879 20.9634 52.0277 20.9634C52.865 20.9634 53.493 20.4607 53.7721 19.9173C53.9954 19.4825 54.1908 18.8847 54.1908 17.594Z" fill="#3D007C"/>
<path d="M39.2666 22.1455V13.0833H42.895C43.6207 13.0833 44.6953 13.0833 45.407 13.9528C45.8256 14.4555 45.9233 15.0125 45.9233 15.4337C45.9233 15.7055 45.9094 17.0777 44.2347 17.4581C44.6115 17.5396 45.1976 17.6483 45.6861 18.1918C46.1187 18.6945 46.2164 19.2651 46.2164 19.6727C46.2164 20.3249 45.9512 21.0721 45.4628 21.4797C44.7511 22.0639 44.0533 22.1455 43.3416 22.1455H39.2666ZM40.8575 18.1918V20.7868H43.0346C43.8998 20.7868 44.5138 20.3249 44.5138 19.4825C44.5138 18.7488 43.9556 18.1918 43.0346 18.1918H40.8575ZM40.8575 14.374V16.9011H42.909C43.7184 16.9011 44.2626 16.3848 44.2626 15.5832C44.2626 14.5234 43.2439 14.374 42.8671 14.374H40.8575Z" fill="#3D007C"/>
<path d="M36.3809 22.1455H34.6644V14.2109L32.0827 22.1455H31.2035L28.6218 14.2109V22.1455H27.2541V13.0833H29.8777L31.8175 18.9255L33.7434 13.0833H36.3809V22.1455Z" fill="#3D007C"/>
<path d="M22.1808 13.0833L25.3068 22.1455H23.5205L22.767 19.9852H19.1944L18.4687 22.1455H17.0313L20.1294 13.0833H22.1808ZM19.6131 18.6809H22.3204L20.9667 14.6321L19.6131 18.6809Z" fill="#3D007C"/>
<path d="M15.4884 13.0833V19.333C15.4884 19.3874 15.4884 20.6238 15.0837 21.2216C14.3999 22.2813 13.1439 22.2813 12.5996 22.2813C11.7623 22.2813 11.4692 22.1998 11.246 22.1455V20.8276C11.7763 20.8683 12.0414 20.8819 12.3205 20.8819C13.7719 20.8819 13.7719 20.1347 13.7719 19.333V13.0833H15.4884Z" fill="#3D007C"/>
<path d="M83.6701 46.2494H80.4112L81.2541 41.3619H84.4228L84.2873 42.1313H82.0143L81.7961 43.3989H83.6777L83.5572 44.1244H81.6756L81.4423 45.48H83.8056L83.6701 46.2494Z" fill="#3D007C"/>
<path d="M79.5105 46.2494H78.5546L78.0202 44.2489H76.8461L76.4999 46.2494H75.6042L76.4397 41.3619H78.3288C78.9008 41.3619 79.2696 41.4058 79.5857 41.6696C79.8416 41.8821 80.0825 42.2412 80.0825 42.7101C80.0825 42.9813 79.9771 43.5088 79.5782 43.8313C79.3073 44.0511 79.0514 44.1097 78.8933 44.1463L79.5105 46.2494ZM77.2149 42.0726L76.9665 43.5382H78.2159C78.517 43.5382 78.7051 43.5162 78.9084 43.3476C79.0438 43.2377 79.1492 42.9959 79.1492 42.7614C79.1492 42.6149 79.1116 42.483 79.0288 42.3657C78.8331 42.0726 78.5019 42.0726 78.2009 42.0726H77.2149Z" fill="#3D007C"/>
<path d="M75.3824 41.3619L74.8405 44.52C74.7427 45.0916 74.6373 45.6851 73.9825 46.0808C73.6739 46.2713 73.3202 46.3593 72.9288 46.3593C72.1084 46.3593 71.2805 45.9562 71.2805 44.8864C71.2805 44.6226 71.3332 44.3222 71.3483 44.1903L71.8375 41.3619H72.7557L72.2665 44.2343C72.2364 44.3955 72.1837 44.7106 72.1837 44.8644C72.1837 45.6045 72.9589 45.6045 73.0417 45.6045C73.9374 45.6045 74.0503 44.9377 74.1556 44.3075L74.6674 41.3619H75.3824Z" fill="#3D007C"/>
<path d="M71.2057 42.1313H69.9338L69.2263 46.2494H68.3005L69.008 42.1313H67.736L67.864 41.3619H71.3412L71.2057 42.1313Z" fill="#3D007C"/>
<path d="M67.3562 41.3619L66.8143 44.52C66.7164 45.0916 66.611 45.6851 65.9562 46.0808C65.6477 46.2713 65.2939 46.3593 64.9025 46.3593C64.0822 46.3593 63.2542 45.9562 63.2542 44.8864C63.2542 44.6226 63.3069 44.3222 63.322 44.1903L63.8112 41.3619H64.7294L64.2402 44.2343C64.2101 44.3955 64.1574 44.7106 64.1574 44.8644C64.1574 45.6045 64.9326 45.6045 65.0154 45.6045C65.9111 45.6045 66.024 44.9377 66.1293 44.3075L66.6412 41.3619H67.3562Z" fill="#3D007C"/>
<path d="M60.198 46.2494H59.2797L60.1227 41.3619H63.201L63.0731 42.1313H60.9055L60.6797 43.4502H62.4785L62.3581 44.1757H60.5517L60.198 46.2494Z" fill="#3D007C"/>
<path d="M56.3132 46.2494H53.0542L53.8972 41.3619H57.0658L56.9304 42.1313H54.6574L54.4391 43.3989H56.3207L56.2003 44.1244H54.3187L54.0854 45.48H56.4487L56.3132 46.2494Z" fill="#3D007C"/>
<path d="M52.7872 41.3619L51.9442 46.2494H51.0485L51.4098 44.139H49.4529L49.0841 46.2494H48.1885L49.0314 41.3619H49.9271L49.5809 43.3696H51.5453L51.884 41.3619H52.7872Z" fill="#3D007C"/>
<path d="M48.347 42.1313H47.075L46.3675 46.2494H45.4418L46.1493 42.1313H44.8773L45.0053 41.3619H48.4825L48.347 42.1313Z" fill="#3D007C"/>
<path d="M41.8765 46.2494H41.4927L41.3422 45.5899C41.0486 46.1248 40.5067 46.3373 39.9723 46.3373C39.0616 46.3373 38.1735 45.7804 38.1735 44.2343C38.1735 42.6515 39.0842 41.23 40.597 41.23C42.0647 41.23 42.3507 42.3145 42.4486 42.6735L41.6507 42.8713C41.4927 42.3218 41.1691 41.9847 40.597 41.9847C39.5734 41.9847 39.1444 43.3037 39.1444 44.2636C39.1444 44.6446 39.2197 45.6045 40.1906 45.6045C40.725 45.6045 40.9734 45.2601 41.1013 45.055C41.1389 44.989 41.2744 44.7765 41.3422 44.4614H40.2508L40.3788 43.7213H42.3131L41.8765 46.2494Z" fill="#3D007C"/>
<path d="M36.9361 46.2494H36.2135L34.505 42.5782L33.8728 46.2494H33.1502L33.9932 41.3619H34.919L36.4769 44.7179L37.0565 41.3619H37.7715L36.9361 46.2494Z" fill="#3D007C"/>
<path d="M32.0474 46.2494H31.1216L31.9571 41.3619H32.8903L32.0474 46.2494Z" fill="#3D007C"/>
<path d="M30.0196 46.2494H29.2971L27.5886 42.5782L26.9564 46.2494H26.2338L27.0768 41.3619H28.0026L29.5605 44.7179L30.1401 41.3619H30.8551L30.0196 46.2494Z" fill="#3D007C"/>
<path d="M25.1319 46.2494H24.4093L22.7008 42.5782L22.0686 46.2494H21.346L22.189 41.3619H23.1148L24.6727 44.7179L25.2523 41.3619H25.9673L25.1319 46.2494Z" fill="#3D007C"/>
<path d="M20.2432 46.2494H19.3174L20.1529 41.3619H21.0861L20.2432 46.2494Z" fill="#3D007C"/>
<path d="M15.7598 46.2494H14.8265L15.662 41.3619H17.0092C17.8296 41.3619 18.1608 41.3619 18.5371 41.567C18.9435 41.8015 19.1919 42.2412 19.1919 42.7541C19.1919 43.2744 18.9284 43.714 18.6199 43.9558C18.2134 44.2929 17.6188 44.2929 17.3103 44.2929H16.0985L15.7598 46.2494ZM17.1823 42.0726H16.4823L16.2189 43.5748H17.1146C17.6038 43.5748 17.7468 43.5748 17.9801 43.3916C18.1457 43.2597 18.2435 43.0106 18.2435 42.7761C18.2435 42.5929 18.1833 42.3877 18.0479 42.2632C17.8522 42.0726 17.6565 42.0726 17.1823 42.0726Z" fill="#3D007C"/>
<path d="M14.5199 42.2925L13.6996 42.5856C13.6544 42.4757 13.5415 42.2192 13.2103 42.08C13.0448 42.0067 12.8792 41.9774 12.7362 41.9774C12.1566 41.9774 11.8556 42.2998 11.8556 42.6442C11.8556 42.9446 12.0738 43.1132 12.533 43.2377C13.406 43.4795 13.5942 43.5308 13.8952 43.7726C14.1812 43.9998 14.3243 44.3588 14.3243 44.7106C14.3243 45.0257 14.1587 46.3519 12.3147 46.3519C10.847 46.3519 10.4858 45.4433 10.3653 45.1356L11.1857 44.8498C11.276 45.0696 11.5018 45.6192 12.3824 45.6192C13.1802 45.6192 13.3985 45.1722 13.3985 44.8644C13.3985 44.5567 13.1501 44.3882 12.8415 44.3002L12.0287 44.0657C11.3814 43.8752 10.9298 43.4576 10.9298 42.7688C10.9298 41.9188 11.5846 41.2446 12.7587 41.2446C13.8576 41.2446 14.3017 41.8089 14.5199 42.2925Z" fill="#3D007C"/>
<path d="M142.854 45.1429H142.124V46.2494H140.701V45.1429H138.594V44.0584L140.536 41.1494H142.124V44.0584H142.854V45.1429ZM140.701 44.0584V42.5489L139.723 44.0584H140.701Z" fill="#3D007C"/>
<path d="M136.979 45.1282H138.198V46.2494H134.231V45.1282H135.503V42.7395L135.443 42.7688C135.097 42.9153 134.751 43.0619 134.367 43.1132V41.9774C134.909 41.8601 135.556 41.6257 135.857 41.1494H136.979V45.1282Z" fill="#3D007C"/>
<path d="M129.643 43.7726C129.643 42.505 130.163 41.1494 131.698 41.1494C133.233 41.1494 133.753 42.505 133.753 43.7726C133.753 45.0183 133.173 46.3226 131.698 46.3226C130.223 46.3226 129.643 45.0183 129.643 43.7726ZM132.262 43.78C132.262 42.6369 132.112 42.2045 131.698 42.2045C131.442 42.2045 131.133 42.2851 131.133 43.78C131.133 45.1942 131.495 45.2675 131.698 45.2675C131.894 45.2675 132.262 45.2455 132.262 43.78Z" fill="#3D007C"/>
<path d="M129.142 45.0183L129.082 46.2494H125.153V45.0989L126.907 43.8166C127.223 43.5528 127.599 43.2451 127.599 42.8054C127.599 42.5123 127.411 42.2778 127.095 42.2778C126.613 42.2778 126.478 42.7614 126.455 43.1498L125.153 42.9007C125.296 41.8235 126.094 41.1494 127.208 41.1494C128.239 41.1494 129.112 41.6916 129.112 42.7761C129.112 43.3183 128.856 43.7213 128.449 44.0731L127.253 44.945L127.132 45.0183H129.142Z" fill="#3D007C"/>
<path d="M122.269 45.3114V46.2494H121.359V45.3114H122.269Z" fill="#3D007C"/>
<path d="M116.781 46.2494V41.3619H118.632C118.918 41.3619 119.573 41.3692 120.183 41.9701C120.672 42.4537 120.898 43.1205 120.898 43.8019C120.898 44.8351 120.409 45.4506 120.062 45.7511C119.852 45.9343 119.287 46.2494 118.429 46.2494H116.781ZM117.707 42.058V45.5312H118.467C119.25 45.5312 119.919 44.945 119.919 43.7653C119.919 42.8713 119.43 42.058 118.572 42.058H117.707Z" fill="#3D007C"/>
<path d="M114.919 46.2494H113.948V42.1166H112.616V41.3619H116.251V42.1166H114.919V46.2494Z" fill="#3D007C"/>
<path d="M108.346 45.0696L109.219 44.8864C109.264 45.0623 109.355 45.3774 109.806 45.5166C110.055 45.5972 110.265 45.6119 110.431 45.6119C111.266 45.6119 111.432 45.1869 111.432 44.967C111.432 44.5054 111.041 44.3882 110.815 44.3295L109.693 44.0511C108.963 43.8679 108.609 43.3696 108.609 42.7468C108.609 41.8235 109.377 41.2886 110.386 41.2886C110.882 41.2886 111.372 41.4132 111.763 41.7136C112.064 41.9481 112.139 42.1826 112.185 42.3438L111.326 42.5563C111.266 42.3877 111.116 41.9994 110.401 41.9994C109.708 41.9994 109.535 42.3584 109.535 42.6076C109.535 42.9886 109.979 43.1278 110.235 43.1938L111.086 43.3989C111.515 43.5088 112.388 43.7433 112.388 44.7912C112.388 45.7584 111.537 46.3226 110.393 46.3226C109.791 46.3226 109.264 46.1834 108.85 45.861C108.512 45.5972 108.421 45.2968 108.346 45.0696Z" fill="#3D007C"/>
<path d="M108.082 46.2494H104.823V41.3619H108.052V42.0873H105.726V43.4136H107.593V44.1244H105.726V45.4946H108.082V46.2494Z" fill="#3D007C"/>
</svg>
