<svg width="102" height="78" viewBox="0 0 102 78" fill="none" xmlns="http://www.w3.org/2000/svg">
<path d="M44.2621 0.073669C55.6345 -0.339005 66.8806 0.925686 77.4122 5.30087C88.1164 9.74764 101.11 19.7978 97.5588 33.0188C96.93 35.3587 95.0505 38.2656 95.734 40.5985C96.4738 43.1167 100.55 44.001 100.982 47.7024C101.73 54.1101 95.2694 56.4584 90.0998 57.142C86.2973 57.6445 80.3584 57.1223 77.349 59.691C75.1214 61.5929 77.5483 62.8155 78.6558 64.4143C80.2419 66.705 80.2111 68.8021 78.653 71.1027C73.0988 79.3084 51.3085 79.8446 45.1366 72.248C42.7209 69.2751 44.6215 66.1506 39.7536 64.156C31.1085 60.6146 24.0116 68.8807 15.3778 65.5119C12.5059 64.3918 10.2516 62.0842 10.618 58.7912C10.7991 57.1602 12.402 54.9102 11.1654 53.4405C10.1829 52.2727 6.7804 51.9484 5.26866 51.4768C2.37433 50.5743 -0.261725 48.5123 0.0765549 45.1632C0.358689 42.3587 3.87624 40.5522 3.87624 38.4243C3.87624 37.2087 1.67812 34.1684 1.07736 32.79C-1.50536 26.8554 0.864004 20.3621 4.91494 15.7539C14.231 5.15489 30.5597 0.570562 44.2621 0.073669ZM31.0959 4.66502C25.0531 6.13183 18.7016 8.50541 13.5628 12.044C6.62038 16.8263 0.534146 26.1521 7.09762 33.9255C10.2025 37.6017 16.6046 39.2468 16.9204 44.8081C17.2643 44.8881 17.2292 44.6803 17.2966 44.4193C18.6553 39.2482 14.1004 36.702 11.5542 33.1184C2.96246 21.026 16.1877 11.0208 26.3291 6.70312C27.6569 6.13885 29.2332 5.72898 30.4895 5.10857C30.7056 5.00189 31.0173 4.92188 31.0959 4.66361V4.66502ZM36.9912 6.20903C32.0223 7.08351 26.9944 8.63033 22.5799 11.0965C17.1351 14.1369 12.0497 19.0188 12.562 25.7942C12.9803 31.3204 19.7586 36.1672 24.7724 37.3055C24.9156 37.3378 25.23 37.4936 25.1991 37.2297C18.8757 34.0771 13.4786 28.3545 16.1105 20.7691C18.9571 12.562 28.8725 9.54972 36.0423 6.73259C36.3469 6.61328 36.8326 6.50941 36.9898 6.20763L36.9912 6.20903ZM37.1316 9.43743C31.7443 10.3203 25.3465 13.0546 21.7602 17.2951C16.7225 23.2536 19.6996 30.1455 26.3684 32.9023C26.4975 32.9556 28.2324 33.6069 27.7257 33.0202C23.2312 30.3125 20.9068 26.2125 22.4325 20.9151C23.5905 16.8936 28.2843 13.4715 31.8875 11.7015L37.1302 9.43743H37.1316ZM87.9424 17.4368C84.7098 14.8906 81.3901 12.2742 77.4164 10.9814C80.0749 12.7781 85.8299 17.0172 84.3631 20.8042C82.5959 25.3647 74.0167 20.7972 70.5399 22.4212C69.184 23.0543 69.3763 24.3948 68.6871 25.6215C67.7424 27.3003 65.8531 28.6787 64.1336 29.49L59.5928 31.1926C63.3785 31.0382 68.9818 29.6374 70.9371 26.0454C71.5561 24.9099 71.3358 23.5764 73.0103 23.3462C76.4268 22.876 80.8301 26.0539 81.7621 29.3075C82.652 32.4152 81.7242 35.6843 79.5261 38.0018C79.5036 38.1056 79.6692 38.0958 79.7338 38.0691C79.9219 37.9919 80.8483 37.2171 81.0715 37.0206C84.2802 34.1796 85.959 29.5391 85.8425 25.2987C86.0783 25.0306 86.9865 26.4946 87.0777 26.6588C88.3943 29.0436 87.9227 32.5794 86.8251 34.9811L87.6434 34.1866C88.939 32.3942 89.9019 30.3897 90.3777 28.2197C90.8451 26.0932 90.8128 24.0902 90.6837 21.9299C92.7695 24.0874 92.6628 27.0477 92.5772 29.8578L91.8066 33.1577C94.1465 30.1385 94.4427 25.3015 93.2468 21.7531C91.9456 17.8916 88.7747 14.6309 85.281 12.6658C85.0789 12.9129 88.2708 16.5315 87.9452 17.4382L87.9424 17.4368ZM46.3676 15.0927C41.7734 15.4156 31.2432 18.6117 33.4161 25.0124C35.4542 31.0172 46.8069 32.2791 52.0791 31.7527C56.8164 31.2797 66.7725 28.0625 64.5266 21.5524C62.5124 15.7132 51.4685 14.7334 46.3662 15.0913L46.3676 15.0927ZM28.85 28.5243C27.9545 27.0743 26.913 25.272 26.7459 23.5413C26.6617 22.6697 26.8653 21.8078 26.8161 20.946C25.2665 22.8297 25.456 25.265 26.9537 27.1234C27.167 27.3887 28.537 28.7784 28.85 28.5243ZM52.7121 37.7912C48.8843 38.3653 44.9976 38.02 41.2036 37.3701L43.7007 38.1688C46.355 38.6474 49.1244 38.8383 51.7604 38.1688C52.0075 38.1056 52.5886 38.0046 52.7121 37.7898V37.7912ZM54.2561 40.8792C48.4955 41.7313 42.5946 41.2568 36.9926 39.7563C37.1049 39.9753 37.6046 40.1493 37.8362 40.2434C42.1903 42.0092 48.2555 42.565 52.8314 41.487C53.268 41.3846 53.9936 41.2526 54.2575 40.8792H54.2561ZM90.33 40.5985C90.0942 40.5508 89.9594 40.7192 89.7826 40.8217C88.6217 41.4926 87.43 42.4626 86.2482 43.1826C81.7902 45.8931 77.3055 47.6841 72.5092 49.6563C72.3422 49.7251 71.9477 49.8009 71.9435 50.0002C78.6179 48.5362 85.4818 45.4734 90.33 40.5985ZM55.5194 44.248C50.1631 44.7547 44.8166 44.7112 39.515 43.7581C37.2382 43.3483 35.0092 42.7405 32.7802 42.1425C32.9796 42.4134 33.4582 42.6226 33.7656 42.77C39.4701 45.5309 49.0991 46.4405 55.1292 44.4852C55.2766 44.4375 55.5531 44.4501 55.5194 44.248ZM13.6934 53.7914C14.3236 53.3016 14.3166 52.1155 14.2169 51.3715C13.7074 47.5859 8.88026 47.8694 6.08138 47.155L2.60313 45.5113C3.75974 49.4177 8.83955 48.3467 11.5739 50.0844C12.9045 50.9308 13.4814 52.2671 13.6934 53.7914ZM95.2428 51.5442L95.174 51.2663C91.9554 52.6447 88.3564 52.4201 84.9203 52.3934C83.8395 52.385 82.7138 52.1716 81.5515 52.2418C77.0753 52.5085 72.8559 55.0056 72.505 59.8271C72.9752 59.3218 73.1409 58.5428 73.5114 57.9575C77.2395 52.0579 86.7563 54.3627 92.6839 52.566C93.0446 52.4566 95.0996 51.6958 95.2428 51.5442ZM51.8699 58.1414C50.0353 56.6324 48.6654 54.6084 46.5796 53.397C43.2304 51.4544 39.0546 51.1385 35.3026 51.8909C31.9128 52.5717 28.9525 54.6378 25.4827 55.0547L26.9607 55.1993C32.9894 53.6104 38.291 51.3884 44.526 53.9051C47.1986 54.9845 49.1847 57.1223 51.8699 58.1399V58.1414ZM71.6628 64.8803C72.1429 67.2833 69.9658 68.5719 68.0484 69.3383C63.5988 71.1167 55.2401 71.3174 51.4474 68.0399C49.3616 66.2376 48.8577 63.3938 47.0301 61.3683C42.9974 56.8991 35.4219 56.777 30.1147 58.7056C30.0866 58.9709 30.4095 58.8179 30.5639 58.8039C35.0822 58.3968 38.8847 58.1413 43.0297 60.456C47.4723 62.9362 46.6736 67.2581 49.763 69.8647C54.3586 73.743 66.2475 73.3569 70.8206 69.5839C72.2538 68.402 73.1507 66.3668 71.6628 64.8803ZM14.325 58.0038C13.8829 58.0936 14.238 59.2839 14.3264 59.5436C15.5336 63.078 22.382 63.2928 24.7766 60.8813C24.6152 60.6427 24.5591 60.696 24.326 60.7044C23.6719 60.7297 22.8045 61.0483 22.0479 61.0974C19.9242 61.2364 17.9043 61.0708 16.0852 59.8889C15.6725 59.7457 14.4963 57.9687 14.3236 58.0038H14.325Z" fill="#3D007C"/>
<path d="M48.0433 21.6844C49.1086 21.5314 51.9075 21.6339 52.0058 23.1316C52.1265 24.9844 46.9849 25.3507 46.1848 23.6102C45.7118 22.5813 47.194 21.8051 48.0433 21.6844Z" fill="#3D007C"/>
</svg>
