<svg width="121" height="53" viewBox="0 0 121 53" fill="none" xmlns="http://www.w3.org/2000/svg">
<path d="M16.0385 13.1646C16.2353 13.1646 16.4321 13.181 16.6289 13.2138C16.8257 13.2465 17.0224 13.2629 17.2192 13.2629C17.416 13.2629 17.6128 13.2302 17.8096 13.1646C17.9736 13.099 18.154 13.0662 18.3508 13.0662C18.5476 13.0662 18.7444 13.0662 18.9412 13.0662C19.138 13.099 19.3347 13.1154 19.5315 13.1154C19.6627 13.1154 19.7939 13.1318 19.9251 13.1646C20.0235 13.1646 20.1383 13.1646 20.2695 13.1646C20.3679 13.1646 20.4663 13.1318 20.5647 13.0662C20.6303 13.0006 20.6795 12.9022 20.7123 12.771C20.8435 12.6398 20.9583 12.5086 21.0567 12.3774C21.1551 12.2462 21.2535 12.115 21.3519 11.9838C21.4831 11.7542 21.5978 11.5082 21.6962 11.2458C21.7618 10.9834 21.8766 10.7375 22.0406 10.5079C22.1062 10.4095 22.2046 10.3275 22.3358 10.2619C22.4342 10.1963 22.5162 10.1307 22.5818 10.0651C22.6802 9.96669 22.795 9.8683 22.9262 9.7699C23.0574 9.67151 23.1722 9.58951 23.2706 9.52391C23.369 9.45832 23.4838 9.39272 23.615 9.32712C23.7462 9.26152 23.8937 9.21233 24.0577 9.17953C24.1233 9.14673 24.2053 9.13033 24.3037 9.13033C24.3693 9.13033 24.4349 9.13033 24.5005 9.13033C24.6645 9.09753 24.8121 9.06473 24.9433 9.03194C25.1073 8.96634 25.2549 8.96634 25.3861 9.03194C25.4517 9.06473 25.5337 9.11393 25.6321 9.17953C25.7305 9.24513 25.8125 9.31072 25.8781 9.37632C26.1076 9.54031 26.2552 9.7535 26.3208 10.0159C26.3864 10.2783 26.3864 10.5571 26.3208 10.8523C26.3208 10.8851 26.288 10.9179 26.2224 10.9507C26.1896 10.9834 26.1568 11.0162 26.124 11.049C26.0585 11.1474 25.9765 11.2622 25.8781 11.3934C25.7797 11.4918 25.6813 11.5902 25.5829 11.6886C25.4845 11.787 25.3697 11.869 25.2385 11.9346C25.1401 12.033 25.0089 12.0986 24.8449 12.1314C24.7465 12.1642 24.6645 12.197 24.5989 12.2298C24.5005 12.2626 24.4021 12.2954 24.3037 12.3282C24.2053 12.3938 24.1233 12.4594 24.0577 12.525C23.9921 12.5906 23.9429 12.6726 23.9101 12.771C23.8445 12.9022 23.8282 13.0006 23.8609 13.0662C23.8937 13.1646 23.9593 13.2302 24.0577 13.2629C24.2545 13.2957 24.4513 13.3613 24.6481 13.4597C24.8121 13.5253 25.0089 13.5909 25.2385 13.6565C25.4353 13.6893 25.6321 13.7385 25.8289 13.8041C26.0257 13.8369 26.2224 13.8861 26.4192 13.9517C26.616 14.0173 26.78 14.0829 26.9112 14.1485C27.0752 14.2141 27.2556 14.2797 27.4524 14.3453C27.6164 14.4437 27.7804 14.4929 27.9444 14.4929C28.1412 14.5257 28.3216 14.5913 28.4855 14.6897C28.6495 14.7881 28.7971 14.8865 28.9283 14.9849C29.0595 15.1161 29.1907 15.2309 29.3219 15.3293C29.4531 15.4277 29.6007 15.5097 29.7647 15.5752C29.8959 15.6408 30.0271 15.7392 30.1583 15.8704C30.2895 16.0016 30.4043 16.1328 30.5027 16.264C30.6339 16.3952 30.7486 16.5264 30.847 16.6576C30.9454 16.8216 31.0602 16.9692 31.1914 17.1004C31.3226 17.2316 31.4374 17.3792 31.5358 17.5432C31.6014 17.6744 31.6506 17.8383 31.6834 18.0351C31.7162 18.2319 31.7654 18.4123 31.831 18.5763C31.8638 18.7403 31.8802 18.9043 31.8802 19.0683C31.8802 19.1995 31.8966 19.3635 31.9294 19.5603C31.9622 19.6915 31.9786 19.8391 31.9786 20.0031C31.9786 20.167 31.9786 20.331 31.9786 20.495C31.9786 20.6918 31.9786 20.8722 31.9786 21.0362C31.9786 21.1018 31.9786 21.151 31.9786 21.1838C31.9786 21.315 31.9786 21.4298 31.9786 21.5282C31.9458 21.6922 31.913 21.8562 31.8802 22.0202C31.8146 22.1842 31.7818 22.3481 31.7818 22.5121C31.7162 22.6761 31.6506 22.8237 31.585 22.9549C31.5194 23.1189 31.4538 23.2993 31.3882 23.4961C31.2898 23.6929 31.2078 23.8897 31.1422 24.0865C31.0438 24.2833 30.9454 24.4801 30.847 24.6768C30.7486 24.8736 30.6502 25.0704 30.5519 25.2672C30.4207 25.4312 30.3059 25.6116 30.2075 25.8084C30.0763 25.9724 29.9615 26.1528 29.8631 26.3496C29.7319 26.5464 29.6171 26.7268 29.5187 26.8907C29.3875 27.0875 29.2563 27.2679 29.1251 27.4319C28.9939 27.5959 28.8627 27.7763 28.7315 27.9731C28.6003 28.1043 28.5019 28.2683 28.4363 28.4651C28.3707 28.6619 28.2724 28.8259 28.1412 28.9571C28.01 29.1211 27.8788 29.2686 27.7476 29.3998C27.6164 29.531 27.5016 29.6786 27.4032 29.8426C27.272 29.9738 27.1244 30.105 26.9604 30.2362C26.7964 30.3346 26.6488 30.4658 26.5176 30.6298C26.3864 30.7938 26.2552 30.9414 26.124 31.0726C25.9929 31.2366 25.8617 31.4006 25.7305 31.5645C25.5993 31.7285 25.4681 31.8925 25.3369 32.0565C25.1729 32.2205 25.0253 32.3845 24.8941 32.5485C24.7957 32.6797 24.6973 32.8273 24.5989 32.9913C24.5005 33.1553 24.4021 33.3029 24.3037 33.4341C24.2053 33.5981 24.0905 33.7456 23.9593 33.8768C23.8282 33.9752 23.7134 34.1064 23.615 34.2704C23.5166 34.4016 23.4018 34.5328 23.2706 34.664C23.1722 34.7952 23.0574 34.9428 22.9262 35.1068C22.8278 35.2708 22.7294 35.4184 22.631 35.5496C22.5326 35.7136 22.4178 35.8612 22.2866 35.9923C22.1882 36.1235 22.0898 36.2711 21.9914 36.4351C21.893 36.5663 21.7946 36.7139 21.6962 36.8779C21.565 37.0419 21.4503 37.1895 21.3519 37.3207C21.2535 37.4519 21.1551 37.5831 21.0567 37.7143C20.9583 37.8783 20.8599 38.0423 20.7615 38.2063C20.6959 38.3374 20.6303 38.5014 20.5647 38.6982C20.5647 38.7638 20.5155 38.813 20.4171 38.8458C20.3187 38.8458 20.2367 38.8786 20.1711 38.9442C20.1383 38.977 20.0891 39.0426 20.0235 39.141C19.9579 39.2066 19.8923 39.2394 19.8267 39.2394C19.7283 39.2066 19.6463 39.1574 19.5807 39.0918C19.4823 39.0262 19.4003 38.977 19.3347 38.9442C19.1708 38.8786 19.0232 38.8458 18.892 38.8458C18.728 38.813 18.564 38.7802 18.4 38.7474C18.2688 38.6818 18.1376 38.6326 18.0064 38.5998C17.8752 38.5342 17.7276 38.485 17.5636 38.4522C17.3996 38.3866 17.252 38.3374 17.1208 38.3046C16.9569 38.2391 16.8257 38.1899 16.7273 38.1571C16.5305 38.0915 16.3501 38.0095 16.1861 37.9111C16.0221 37.8455 15.8581 37.7799 15.6941 37.7143C15.5301 37.6815 15.3497 37.6487 15.1529 37.6159C14.9889 37.6159 14.8249 37.5831 14.661 37.5175C14.4642 37.4847 14.2838 37.4355 14.1198 37.3699C13.923 37.3371 13.7426 37.2879 13.5786 37.2223C13.4146 37.1895 13.2506 37.1239 13.0866 37.0255C12.9226 36.9271 12.7586 36.8615 12.5946 36.8287C12.3651 36.7631 12.1519 36.7139 11.9551 36.6811C11.7583 36.6483 11.5615 36.6155 11.3647 36.5827C11.1679 36.5499 10.9711 36.5335 10.7743 36.5335C10.5775 36.5663 10.3643 36.5663 10.1348 36.5335C9.90516 36.3695 9.69197 36.2547 9.49518 36.1891C9.29839 36.1235 9.1016 36.0907 8.90481 36.0907C8.70802 36.0907 8.52762 36.1071 8.36363 36.1399C8.19964 36.2055 8.03565 36.2383 7.87165 36.2383C7.70766 36.2383 7.54367 36.2383 7.37967 36.2383C7.21568 36.2383 7.05169 36.2711 6.8877 36.3367C6.69091 36.3367 6.47771 36.3367 6.24812 36.3367C6.01853 36.3367 5.80534 36.3695 5.60855 36.4351C5.41176 36.4679 5.21497 36.5171 5.01818 36.5827C4.82139 36.6483 4.6246 36.7139 4.4278 36.7795C4.23101 36.8123 4.01782 36.8615 3.78823 36.9271C3.55864 36.9599 3.36185 37.0091 3.19786 37.0747C3.06666 37.1075 2.95187 37.1403 2.85347 37.1731C2.75508 37.2059 2.64028 37.2387 2.50909 37.2715C2.41069 37.3043 2.3123 37.3043 2.2139 37.2715C2.08271 37.2059 1.98431 37.1403 1.91872 37.0747C1.91872 37.0419 1.90232 37.0255 1.86952 37.0255C1.83672 37.0255 1.82032 37.0091 1.82032 36.9763C1.72192 36.7467 1.65633 36.5171 1.62353 36.2875C1.62353 36.0251 1.60713 35.7628 1.57433 35.5004C1.57433 35.3692 1.57433 35.2708 1.57433 35.2052C1.60713 35.1068 1.67273 35.0248 1.77112 34.9592C1.80392 34.9264 1.80392 34.8772 1.77112 34.8116C1.77112 34.7788 1.77112 34.746 1.77112 34.7132C1.93511 34.6148 2.09911 34.5328 2.2631 34.4672C2.42709 34.4016 2.59109 34.3196 2.75508 34.2212C2.88627 34.1228 3.03387 34.0244 3.19786 33.926C3.36185 33.8276 3.50945 33.7292 3.64064 33.6309C3.80463 33.5325 3.96863 33.4669 4.13262 33.4341C4.29661 33.4013 4.4606 33.3357 4.6246 33.2373C4.75579 33.1717 4.90338 33.1061 5.06738 33.0405C5.23137 32.9421 5.39536 32.8601 5.55936 32.7945C5.72335 32.7289 5.87094 32.6469 6.00214 32.5485C6.13333 32.4501 6.28092 32.3845 6.44492 32.3517C6.57611 32.2861 6.7237 32.2369 6.8877 32.2041C7.01889 32.1713 7.16648 32.1385 7.33048 32.1057C7.49447 32.0401 7.64206 31.9909 7.77326 31.9581C7.93725 31.8925 8.08484 31.8433 8.21604 31.8105C8.38003 31.7449 8.54402 31.6957 8.70802 31.6629C8.83921 31.6629 8.9868 31.6301 9.1508 31.5645C9.31479 31.5645 9.46238 31.5481 9.59358 31.5153C9.75757 31.4825 9.90516 31.4497 10.0364 31.417C10.2004 31.417 10.3479 31.3678 10.4791 31.2694C10.6103 31.2038 10.7579 31.1546 10.9219 31.1218C11.0531 31.089 11.2007 31.1054 11.3647 31.171C11.5287 31.2038 11.6763 31.2038 11.8075 31.171C11.9387 31.1382 12.0371 31.0726 12.1027 30.9742C12.1355 30.843 12.1847 30.7282 12.2503 30.6298C12.2503 30.597 12.2667 30.5806 12.2995 30.5806C12.2995 30.5806 12.2995 30.5642 12.2995 30.5314C12.3979 30.3674 12.4799 30.2034 12.5454 30.0394C12.611 29.8754 12.693 29.695 12.7914 29.4982C12.857 29.3342 12.939 29.1866 13.0374 29.0555C13.1686 28.8915 13.267 28.7275 13.3326 28.5635C13.3982 28.3995 13.4638 28.2355 13.5294 28.0715C13.595 27.9075 13.6606 27.7435 13.7262 27.5795C13.7918 27.3827 13.8738 27.2023 13.9722 27.0383C14.0706 26.9071 14.1526 26.7596 14.2182 26.5956C14.2838 26.4972 14.333 26.3824 14.3658 26.2512C14.3986 26.1528 14.415 26.038 14.415 25.9068C14.415 25.8412 14.3986 25.7592 14.3658 25.6608C14.333 25.5624 14.2838 25.5132 14.2182 25.5132C14.1526 25.4804 14.087 25.464 14.0214 25.464C13.923 25.4968 13.841 25.5132 13.7754 25.5132C13.5786 25.5132 13.3818 25.4804 13.185 25.4148C13.021 25.3492 12.8406 25.3164 12.6438 25.3164C12.4799 25.3164 12.3159 25.3328 12.1519 25.3656C11.9879 25.3656 11.8239 25.3656 11.6599 25.3656C11.5287 25.3656 11.3647 25.3492 11.1679 25.3164C11.0039 25.2836 10.8563 25.2672 10.7251 25.2672C10.5611 25.2672 10.3971 25.2836 10.2331 25.3164C10.0692 25.3164 9.90516 25.3164 9.74117 25.3164C9.60998 25.3164 9.44598 25.3164 9.24919 25.3164C9.0852 25.3164 8.93761 25.3164 8.80641 25.3164C8.60962 25.3164 8.39643 25.3164 8.16684 25.3164C7.93725 25.2836 7.72406 25.2508 7.52727 25.218C7.33048 25.218 7.11729 25.2344 6.8877 25.2672C6.69091 25.3 6.49411 25.3 6.29732 25.2672C6.06773 25.2672 5.85454 25.2016 5.65775 25.0704C5.46096 24.972 5.26417 24.89 5.06738 24.8244C4.87059 24.7916 4.67379 24.7588 4.477 24.726C4.28021 24.6932 4.06702 24.644 3.83743 24.5785C3.64064 24.5129 3.44385 24.4473 3.24706 24.3817C3.05027 24.3161 2.86987 24.2341 2.70588 24.1357C2.47629 24.0045 2.2631 23.8405 2.06631 23.6437C1.86952 23.4469 1.67273 23.2501 1.47593 23.0533C1.34474 22.9549 1.22995 22.8565 1.13155 22.7581C1.03315 22.6269 0.951158 22.4957 0.885561 22.3645C0.787165 22.2334 0.68877 22.1022 0.590374 21.971C0.491978 21.8398 0.409982 21.7086 0.344385 21.5774C0.278788 21.4134 0.22959 21.2494 0.196791 21.0854C0.131194 20.9542 0.0983957 20.7902 0.0983957 20.5934C0.0655971 20.4294 0.0491978 20.249 0.0491978 20.0523C0.0491978 19.8883 0.0491978 19.7079 0.0491978 19.5111C0.0491978 19.3143 0.0327986 19.1339 0 18.9699C0 18.9043 0 18.8387 0 18.7731C0 18.6419 0.0163993 18.5107 0.0491978 18.3795C0.0491978 18.2155 0.0655971 18.0351 0.0983957 17.8383C0.131194 17.6416 0.180392 17.4776 0.245989 17.3464C0.278788 17.1496 0.360784 16.9856 0.491978 16.8544C0.623173 16.7232 0.737967 16.5756 0.836363 16.4116C0.836363 16.2804 0.852762 16.1164 0.885561 15.9196C0.951158 15.7228 1.04955 15.5588 1.18075 15.4277C1.24635 15.3293 1.34474 15.3129 1.47593 15.3785C1.57433 15.4113 1.63993 15.4769 1.67273 15.5752C1.70552 15.608 1.75472 15.6408 1.82032 15.6736C1.88592 15.6736 1.91872 15.7064 1.91872 15.772C1.98431 15.8704 2.03351 15.9852 2.06631 16.1164C2.09911 16.2148 2.14831 16.3296 2.2139 16.4608C2.3123 16.6576 2.42709 16.838 2.55829 17.002C2.68948 17.166 2.83707 17.3464 3.00107 17.5432C3.16506 17.6744 3.32905 17.8219 3.49305 17.9859C3.65704 18.1171 3.82103 18.2483 3.98502 18.3795C4.18182 18.5107 4.37861 18.6419 4.5754 18.7731C4.77219 18.8715 4.95258 18.9535 5.11657 19.0191C5.31337 19.1175 5.52656 19.1667 5.75615 19.1667C5.98574 19.1995 6.21533 19.2487 6.44492 19.3143C6.67451 19.3471 6.9205 19.4127 7.18288 19.5111C7.44527 19.6095 7.70766 19.6751 7.97005 19.7079C8.16684 19.7407 8.34723 19.7571 8.51122 19.7571C8.67522 19.7571 8.85561 19.7735 9.0524 19.8063C9.21639 19.8391 9.39679 19.8555 9.59358 19.8555C9.75757 19.8883 9.92156 19.9211 10.0856 19.9539C10.2823 19.9539 10.4627 19.9703 10.6267 20.0031C10.8235 20.0359 11.0039 20.0523 11.1679 20.0523C11.2991 20.0523 11.4631 20.0195 11.6599 19.9539C11.8239 19.9211 11.9879 19.9047 12.1519 19.9047C12.3159 19.9047 12.4799 19.9375 12.6438 20.0031C12.8078 20.0686 12.9718 20.1014 13.1358 20.1014C13.267 20.1014 13.431 20.085 13.6278 20.0523C13.7918 20.0195 13.9558 20.0031 14.1198 20.0031C14.2838 20.0031 14.4478 19.9867 14.6118 19.9539C14.7757 19.9539 14.9397 19.9539 15.1037 19.9539C15.2677 19.9539 15.4317 19.9539 15.5957 19.9539C15.7597 19.9539 15.9237 19.9539 16.0877 19.9539C16.2845 19.9539 16.4649 19.9703 16.6289 20.0031C16.7929 20.0686 16.9569 20.085 17.1208 20.0523C17.252 20.0523 17.3668 19.9703 17.4652 19.8063C17.5636 19.6423 17.6128 19.4947 17.6128 19.3635C17.6128 19.2979 17.58 19.2323 17.5144 19.1667C17.4816 19.0683 17.4488 19.0027 17.416 18.9699C17.3176 18.9699 17.2192 18.9863 17.1208 19.0191C17.0224 19.0191 16.9405 19.0191 16.8749 19.0191C16.6781 19.0191 16.4813 19.0027 16.2845 18.9699C16.0877 18.9043 15.9073 18.8715 15.7433 18.8715C15.5793 18.8715 15.3989 18.9043 15.2021 18.9699C15.0053 19.0355 14.8249 19.0683 14.661 19.0683C14.4642 19.0683 14.2674 19.0683 14.0706 19.0683C13.8738 19.0355 13.6934 19.0191 13.5294 19.0191C13.3654 19.0191 13.185 19.0191 12.9882 19.0191C12.7914 19.0191 12.5946 19.0191 12.3979 19.0191C12.2339 19.0191 12.0699 19.0027 11.9059 18.9699C11.7091 18.9371 11.5123 18.9207 11.3155 18.9207C11.1515 18.9207 10.9711 18.9371 10.7743 18.9699C10.5775 19.0027 10.3807 19.0027 10.184 18.9699C10.02 18.9699 9.85597 18.9371 9.69197 18.8715C9.49518 18.8059 9.31479 18.7567 9.1508 18.7239C8.9868 18.7239 8.80641 18.7075 8.60962 18.6747C8.44563 18.6747 8.26524 18.6419 8.06844 18.5763C7.87165 18.5435 7.69126 18.5107 7.52727 18.4779C7.33048 18.4123 7.15008 18.3467 6.98609 18.2811C6.8221 18.2483 6.62531 18.2155 6.39572 18.1827C6.19893 18.1827 6.00214 18.1499 5.80534 18.0843C5.67415 18.0187 5.55936 17.9367 5.46096 17.8383C5.36256 17.7072 5.24777 17.6088 5.11657 17.5432C4.98538 17.4448 4.85419 17.3628 4.72299 17.2972C4.6246 17.2316 4.5262 17.166 4.4278 17.1004C4.26381 16.9692 4.08342 16.8544 3.88663 16.756C3.68984 16.6904 3.54224 16.5592 3.44385 16.3624C3.31265 16.2312 3.23066 16.0508 3.19786 15.8212C3.16506 15.6244 3.11586 15.4441 3.05027 15.2801C2.98467 15.1161 2.91907 14.9685 2.85347 14.8373C2.75508 14.7061 2.68948 14.5585 2.65668 14.3945C2.62388 14.2633 2.59109 14.1157 2.55829 13.9517C2.52549 13.7877 2.50909 13.6237 2.50909 13.4597C2.50909 13.2629 2.50909 13.0826 2.50909 12.9186C2.50909 12.7546 2.50909 12.5906 2.50909 12.4266C2.50909 12.2626 2.52549 12.0986 2.55829 11.9346C2.62388 11.7706 2.67308 11.6066 2.70588 11.4426C2.73868 11.2458 2.73868 11.0818 2.70588 10.9507C2.70588 10.7867 2.73868 10.6063 2.80428 10.4095C2.83707 10.2455 2.86987 10.0815 2.90267 9.9175C2.93547 9.7207 2.98467 9.55671 3.05027 9.42552C3.11586 9.22873 3.21426 9.08113 3.34545 8.98274C3.44385 8.85154 3.54224 8.68755 3.64064 8.49076C3.73904 8.35956 3.83743 8.21197 3.93583 8.04798C4.00142 7.91678 4.09982 7.76919 4.23101 7.6052C4.32941 7.44121 4.4278 7.29361 4.5262 7.16242C4.6246 7.03122 4.73939 6.91643 4.87059 6.81803C5.00178 6.65404 5.14937 6.49005 5.31337 6.32605C5.44456 6.19486 5.57575 6.04727 5.70695 5.88327C5.87094 5.75208 6.05133 5.63728 6.24812 5.53889C6.41212 5.44049 6.57611 5.3257 6.7401 5.1945C6.9041 5.09611 7.06809 4.98131 7.23208 4.85012C7.39607 4.75172 7.56007 4.66973 7.72406 4.60413C7.92085 4.47294 8.10124 4.37454 8.26524 4.30894C8.42923 4.21055 8.60962 4.11215 8.80641 4.01376C8.9704 3.94816 9.1508 3.88256 9.34759 3.81696C9.54438 3.71857 9.72477 3.63657 9.88876 3.57098C10.0856 3.50538 10.2823 3.42338 10.4791 3.32499C10.6759 3.22659 10.8727 3.16099 11.0695 3.12819C11.2663 3.0626 11.4795 3.0462 11.7091 3.079C11.9059 3.14459 12.1027 3.16099 12.2995 3.12819C12.4962 3.0954 12.6766 3.0626 12.8406 3.0298C13.0374 3.0298 13.2178 3.0298 13.3818 3.0298C13.5458 2.9642 13.7262 2.915 13.923 2.88221C14.087 2.84941 14.251 2.83301 14.415 2.83301C14.579 2.83301 14.7266 2.83301 14.8577 2.83301C14.9889 2.86581 15.1365 2.88221 15.3005 2.88221C15.4317 2.915 15.5793 2.915 15.7433 2.88221C15.9073 2.88221 16.0549 2.9314 16.1861 3.0298C16.3173 3.12819 16.4485 3.22659 16.5797 3.32499C16.7109 3.42338 16.8585 3.50538 17.0224 3.57098C17.1536 3.63657 17.3012 3.71857 17.4652 3.81696C17.5964 3.91536 17.744 3.98096 17.908 4.01376C18.1048 4.11215 18.3016 4.16135 18.4984 4.16135C18.728 4.19415 18.9412 4.22695 19.138 4.25975C19.3347 4.32534 19.5151 4.37454 19.6791 4.40734C19.8759 4.47294 20.0727 4.53853 20.2695 4.60413C20.4663 4.63693 20.6795 4.65333 20.9091 4.65333C21.1059 4.65333 21.3027 4.68613 21.4995 4.75172C21.6962 4.75172 21.8766 4.80092 22.0406 4.89932C22.2374 4.96491 22.4178 5.01411 22.5818 5.04691C22.7786 5.07971 22.9754 5.09611 23.1722 5.09611C23.369 5.09611 23.5658 5.11251 23.7626 5.14531C23.7954 5.14531 23.8282 5.1781 23.8609 5.2437C23.8609 5.3093 23.8609 5.3749 23.8609 5.44049C23.8609 5.50609 23.8609 5.55529 23.8609 5.58809C23.8609 5.62089 23.8445 5.65368 23.8118 5.68648C23.8118 5.71928 23.7954 5.73568 23.7626 5.73568C23.7298 5.70288 23.697 5.70288 23.6642 5.73568C23.6314 5.76848 23.6314 5.81768 23.6642 5.88327C23.697 5.91607 23.697 5.94887 23.6642 5.98167C23.533 6.08006 23.3854 6.17846 23.2214 6.27686C23.0574 6.34245 22.8934 6.40805 22.7294 6.47365C22.5982 6.60484 22.4506 6.70324 22.2866 6.76883C22.1554 6.83443 22.0078 6.90003 21.8438 6.96563C21.6798 7.03122 21.5323 7.09682 21.4011 7.16242C21.2371 7.22801 21.0731 7.27721 20.9091 7.31001C20.7451 7.34281 20.5811 7.39201 20.4171 7.4576C20.2203 7.4904 20.0399 7.5232 19.8759 7.556C19.7119 7.5888 19.5479 7.5888 19.3839 7.556C19.22 7.556 19.056 7.556 18.892 7.556C18.6952 7.556 18.5148 7.5724 18.3508 7.6052C18.1868 7.67079 18.0228 7.68719 17.8588 7.6544C17.6948 7.6544 17.5308 7.638 17.3668 7.6052C17.2028 7.5724 17.0552 7.5396 16.9241 7.5068C16.7601 7.474 16.5961 7.44121 16.4321 7.40841C16.2681 7.40841 16.1041 7.39201 15.9401 7.35921C15.7433 7.29361 15.5465 7.24441 15.3497 7.21162C15.1529 7.14602 14.9725 7.09682 14.8085 7.06402C14.579 6.99842 14.3822 6.91643 14.2182 6.81803C14.0542 6.71964 13.8738 6.62124 13.677 6.52285C13.5458 6.45725 13.3818 6.40805 13.185 6.37525C12.9882 6.34245 12.8078 6.27686 12.6438 6.17846C12.3159 6.04727 12.0699 5.96527 11.9059 5.93247C11.7419 5.89967 11.5943 5.86687 11.4631 5.83408C11.2991 5.80128 11.1515 5.78488 11.0203 5.78488C10.8563 5.78488 10.5939 5.80128 10.2331 5.83408C10.0692 5.86687 9.88876 5.89967 9.69197 5.93247C9.52798 5.96527 9.36399 5.99807 9.19999 6.03087C9.036 6.09646 8.87201 6.16206 8.70802 6.22766C8.54402 6.32605 8.36363 6.40805 8.16684 6.47365C8.00285 6.60484 7.83885 6.71964 7.67486 6.81803C7.51087 6.91643 7.36328 7.03122 7.23208 7.16242C7.03529 7.32641 6.8549 7.5232 6.69091 7.75279C6.55971 8.01518 6.46132 8.26117 6.39572 8.49076C6.33012 8.68755 6.28092 8.86794 6.24812 9.03194C6.24812 9.22873 6.24812 9.40912 6.24812 9.57311C6.24812 9.7371 6.28092 9.9011 6.34652 10.0651C6.41212 10.2291 6.49411 10.3931 6.59251 10.5571C6.65811 10.7211 6.7401 10.8687 6.8385 10.9998C6.93689 11.131 7.06809 11.2622 7.23208 11.3934C7.42887 11.5574 7.64206 11.705 7.87165 11.8362C8.10124 11.9674 8.34723 12.0822 8.60962 12.1806C8.77361 12.2462 8.93761 12.3282 9.1016 12.4266C9.26559 12.4922 9.42958 12.5414 9.59358 12.5742C9.79037 12.6398 9.97076 12.689 10.1348 12.7218C10.2987 12.7546 10.4791 12.771 10.6759 12.771C10.8727 12.8038 11.0695 12.8694 11.2663 12.9678C11.4631 13.0662 11.6599 13.1318 11.8567 13.1646C12.0535 13.1646 12.2667 13.1482 12.4962 13.1154C12.693 13.0826 12.9062 13.0662 13.1358 13.0662C13.3982 13.0662 13.6606 13.0662 13.923 13.0662C14.1854 13.099 14.4642 13.1154 14.7593 13.1154C14.9889 13.1154 15.2185 13.1318 15.4481 13.1646C15.7105 13.1974 15.9565 13.2138 16.1861 13.2138C16.1205 13.2138 16.0877 13.2138 16.0877 13.2138C16.0549 13.181 16.0385 13.1646 16.0385 13.1646ZM17.8588 25.5132C17.826 25.5132 17.7768 25.4804 17.7112 25.4148C17.6456 25.382 17.58 25.3656 17.5144 25.3656C17.3504 25.3656 17.2192 25.4312 17.1208 25.5624C17.0552 25.6936 16.9897 25.8412 16.9241 26.0052C16.8913 26.038 16.8585 26.0708 16.8257 26.1036C16.7929 26.1364 16.7765 26.1856 16.7765 26.2512C16.6781 26.4152 16.5797 26.5792 16.4813 26.7432C16.3829 26.8744 16.3009 27.0219 16.2353 27.1859C16.1697 27.3827 16.1205 27.5631 16.0877 27.7271C16.0221 27.8911 15.9565 28.0551 15.8909 28.2191C15.8253 28.3503 15.7433 28.5143 15.6449 28.7111C15.5465 28.8751 15.4645 29.0227 15.3989 29.1538C15.3333 29.3506 15.2841 29.531 15.2513 29.695C15.2513 29.8918 15.2349 30.0722 15.2021 30.2362C15.1693 30.269 15.1365 30.3018 15.1037 30.3346C15.0709 30.3674 15.0545 30.4166 15.0545 30.4822C15.0545 30.4822 15.0545 30.4986 15.0545 30.5314C15.0217 30.597 15.0381 30.6626 15.1037 30.7282C15.2021 30.8266 15.2841 30.8758 15.3497 30.8758C15.6121 30.9414 15.8745 31.007 16.1369 31.0726C16.3993 31.1054 16.6617 31.1382 16.9241 31.171C17.0552 31.2038 17.2028 31.2366 17.3668 31.2694C17.498 31.335 17.6456 31.3678 17.8096 31.3678C17.9736 31.4006 18.1376 31.4006 18.3016 31.3678C18.4656 31.3678 18.6296 31.3842 18.7936 31.417C18.9248 31.4825 19.0724 31.5317 19.2364 31.5645C19.3675 31.6301 19.4987 31.6793 19.6299 31.7121C19.8267 31.8105 20.0235 31.8925 20.2203 31.9581C20.4499 31.9909 20.6795 32.0565 20.9091 32.1549C21.0075 32.1549 21.1223 32.2041 21.2535 32.3025C21.3519 32.3681 21.4503 32.4173 21.5487 32.4501C21.5814 32.4501 21.6142 32.4501 21.647 32.4501C21.7126 32.4501 21.7782 32.4337 21.8438 32.4009C21.975 32.3681 22.0734 32.3353 22.139 32.3025C22.1718 32.2697 22.2046 32.2205 22.2374 32.1549C22.2374 32.0893 22.2538 32.0565 22.2866 32.0565C22.4178 31.8925 22.549 31.7285 22.6802 31.5645C22.8114 31.4333 22.9426 31.2858 23.0738 31.1218C23.1722 30.9906 23.287 30.843 23.4182 30.679C23.5166 30.515 23.6314 30.3674 23.7626 30.2362C23.8937 30.0722 24.0085 29.9246 24.1069 29.7934C24.2053 29.6294 24.3201 29.4654 24.4513 29.3014C24.5497 29.203 24.6645 29.0883 24.7957 28.9571C24.8941 28.8587 25.0089 28.7439 25.1401 28.6127C25.2385 28.4815 25.3205 28.3503 25.3861 28.2191C25.4845 28.0551 25.5829 27.9239 25.6813 27.8255C25.7469 27.6943 25.8289 27.5467 25.9273 27.3827C26.0257 27.2515 26.1076 27.1203 26.1732 26.9891C26.3044 26.7596 26.4028 26.5136 26.4684 26.2512C26.5668 25.9888 26.6488 25.7428 26.7144 25.5132C26.8128 25.2508 26.9112 24.9884 27.0096 24.726C27.108 24.4637 27.19 24.2177 27.2556 23.9881C27.2556 23.8897 27.2556 23.7913 27.2556 23.6929C27.2556 23.4961 27.2392 23.3321 27.2064 23.2009C27.108 22.9385 27.0096 22.6761 26.9112 22.4137C26.8456 22.2498 26.78 22.0694 26.7144 21.8726C26.616 21.7086 26.5176 21.561 26.4192 21.4298C26.3208 21.2658 26.206 21.1182 26.0749 20.987C25.9437 20.8558 25.8125 20.7246 25.6813 20.5934C25.5501 20.4622 25.4189 20.331 25.2877 20.1998C25.1565 20.0686 24.9925 19.9539 24.7957 19.8555C24.6645 19.7571 24.5169 19.6587 24.3529 19.5603C24.1561 19.4619 23.9757 19.3963 23.8118 19.3635C23.7134 19.3307 23.615 19.2979 23.5166 19.2651C23.451 19.2323 23.369 19.2159 23.2706 19.2159C23.041 19.1503 22.8442 19.1175 22.6802 19.1175C22.4834 19.1175 22.2866 19.1011 22.0898 19.0683C21.893 19.0683 21.6962 19.0519 21.4995 19.0191C21.3355 18.9863 21.1551 18.9699 20.9583 18.9699C20.9255 18.9699 20.8927 18.9699 20.8599 18.9699C20.8271 18.9371 20.7943 18.9207 20.7615 18.9207C20.6631 18.9207 20.5811 18.9535 20.5155 19.0191C20.4171 19.0847 20.3351 19.1831 20.2695 19.3143C20.2367 19.3471 20.2039 19.3963 20.1711 19.4619C20.1383 19.5275 20.1055 19.6095 20.0727 19.7079C20.0399 19.7407 20.0727 19.8227 20.1711 19.9539C20.2695 20.0523 20.3351 20.1178 20.3679 20.1506C20.5647 20.1834 20.7451 20.2162 20.9091 20.249C21.0403 20.249 21.2043 20.2654 21.4011 20.2982C21.565 20.331 21.729 20.3474 21.893 20.3474C22.0898 20.3146 22.2538 20.3146 22.385 20.3474C22.5818 20.3802 22.7622 20.4294 22.9262 20.495C23.0902 20.5606 23.2706 20.6262 23.4674 20.6918C23.6314 20.7902 23.779 20.8886 23.9101 20.987C24.0741 21.0854 24.2217 21.2002 24.3529 21.3314C24.5169 21.4298 24.6645 21.5282 24.7957 21.6266C24.9269 21.725 25.0581 21.8562 25.1893 22.0202C25.2877 22.1514 25.3697 22.299 25.4353 22.4629C25.5009 22.6269 25.5665 22.7745 25.6321 22.9057C25.6649 23.0697 25.7141 23.2337 25.7797 23.3977C25.8453 23.5617 25.8945 23.7421 25.9273 23.9389C25.9273 23.9717 25.9109 24.0209 25.8781 24.0865C25.8453 24.1193 25.8289 24.1685 25.8289 24.2341C25.7961 24.3981 25.7633 24.5785 25.7305 24.7752C25.6977 24.9392 25.6649 25.1196 25.6321 25.3164C25.5665 25.5132 25.5173 25.6936 25.4845 25.8576C25.4517 26.0544 25.4025 26.2348 25.3369 26.3988C25.2385 26.5628 25.1729 26.7432 25.1401 26.9399C25.1073 27.1039 25.0253 27.2679 24.8941 27.4319C24.8285 27.5959 24.7465 27.7599 24.6481 27.9239C24.5497 28.0879 24.4349 28.2355 24.3037 28.3667C24.2053 28.4979 24.0905 28.6291 23.9593 28.7603C23.8282 28.8915 23.697 29.0063 23.5658 29.1047C23.4346 29.203 23.2706 29.285 23.0738 29.3506C22.9098 29.3834 22.7294 29.4326 22.5326 29.4982C22.4998 29.531 22.467 29.5802 22.4342 29.6458C22.4342 29.7114 22.4014 29.7606 22.3358 29.7934C22.2702 29.7934 22.221 29.7606 22.1882 29.695C22.1554 29.6294 22.1554 29.5474 22.1882 29.449C22.2538 29.2522 22.2866 29.0391 22.2866 28.8095C22.3194 28.6127 22.3522 28.3995 22.385 28.1699C22.4506 27.9731 22.4506 27.7763 22.385 27.5795C22.3194 27.4155 22.2374 27.2515 22.139 27.0875C22.0406 26.9563 21.9258 26.8416 21.7946 26.7432C21.6634 26.6448 21.5323 26.5628 21.4011 26.4972C21.2043 26.3988 21.0075 26.3004 20.8107 26.202C20.6139 26.1036 20.4007 26.038 20.1711 26.0052C20.0071 25.9396 19.8267 25.9068 19.6299 25.9068C19.4331 25.9068 19.2528 25.9068 19.0888 25.9068C18.8592 25.7428 18.646 25.628 18.4492 25.5624C18.2524 25.5296 18.0556 25.5132 17.8588 25.5132Z" fill="#3D007C"/>
<path d="M110.205 31.5738C107.61 31.5738 106.312 29.8937 106.312 27.8215C106.312 23.1172 112.741 18.3569 116.457 18.3569C118.226 18.3569 118.58 19.141 118.58 19.813C118.58 22.5012 112.505 24.6293 109.792 25.0774C109.32 25.9174 108.436 27.4855 108.377 28.8856C108.318 30.0057 108.849 31.0137 110.5 31.0137C114.039 31.0137 118.344 26.7575 120.526 24.0693L120.998 24.3493C116.516 29.7816 112.505 31.5738 110.205 31.5738ZM110.087 24.5173C115.395 23.4533 117.282 21.0451 117.518 19.813C117.577 19.309 117.459 18.805 116.575 18.805C114.687 18.805 111.561 22.0532 110.087 24.5173Z" fill="#3D007C"/>
<path d="M108.648 13.0616C108.475 13.8615 107.841 14.4328 106.918 14.4328C105.937 14.4328 105.591 13.6901 105.764 13.0045C105.879 12.2618 106.629 11.7476 107.494 11.7476C108.475 11.7476 108.763 12.5474 108.648 13.0616ZM105.475 18.2608L99.6496 26.7736C98.496 28.659 98.3229 29.1732 98.3229 29.8588C98.3229 30.6587 98.7267 31.0015 99.4188 31.0015C101.438 31.0015 106.052 26.1451 107.667 23.9169L108.128 24.2026C105.417 27.6877 101.495 31.5728 99.0728 31.5728C97.4578 31.5728 96.7656 30.4873 96.7656 29.1732C96.7656 27.9163 97.4001 26.4308 98.3806 25.0025C100.399 22.0887 102.937 18.2608 102.937 18.2608H105.475Z" fill="#3D007C"/>
<path d="M89.1546 18.5249L86.4011 22.3892C88.7445 20.149 90.795 18.3569 93.4899 18.3569C94.8959 18.3569 95.6576 19.141 95.6576 20.4291C95.6576 23.0612 89.7404 27.4295 89.7404 29.8937C89.7404 30.2857 89.9162 30.9017 90.6192 30.9017C92.904 30.9017 97.0636 26.7015 99.1726 24.0693L99.6999 24.3493C98.5868 25.6374 93.7828 31.5738 90.0919 31.5738C88.3344 31.5738 87.69 30.4537 87.69 29.4456C87.69 26.5334 93.7242 21.9972 93.7242 19.701C93.7242 19.141 93.3141 18.917 92.6111 18.917C90.3849 18.917 85.6395 23.5653 83.6476 26.5334L80.3668 31.4618H77.6719L86.694 18.5249H89.1546Z" fill="#3D007C"/>
<path d="M83.1585 24.0693L83.5596 24.3493C80.8666 27.7095 77.0276 31.5738 74.4492 31.5738C73.4178 31.5738 72.4437 31.0137 72.4437 29.3896C72.4437 28.2696 72.9021 27.2615 73.4751 26.3654C71.6415 28.4936 68.7193 31.5738 66.1409 31.5738C64.5938 31.5738 63.7344 30.2297 63.7344 28.7176C63.7344 23.5093 71.0113 18.3569 75.1941 18.3569C76.7411 18.3569 77.3714 19.029 77.3714 19.869C77.4287 19.981 77.3141 20.5411 77.3141 20.5411L78.6892 18.5249H80.9239C80.8666 18.637 76.8557 24.4613 75.8816 25.9174C74.4492 27.8775 73.8762 29.0536 73.8762 29.8937C73.8762 30.6777 74.3346 31.0137 74.8503 31.0137C77.0849 31.0137 81.3823 26.1974 83.1585 24.0693ZM75.4233 18.805C72.6729 18.805 65.4533 25.9734 65.4533 29.6696C65.4533 30.3977 65.7398 30.9017 66.6566 30.9577C68.9485 30.9577 72.7302 26.8695 75.1941 23.3412L75.8816 22.3332C76.4546 21.4931 76.7411 20.7091 76.7411 19.981C76.7411 19.253 76.2827 18.805 75.4233 18.805Z" fill="#3D007C"/>
<path d="M55.7967 22.9313L59.4791 17.4742C61.9925 13.7007 71.6369 0 75.9039 0C77.0144 0 77.1898 0.638592 77.1898 1.21913C77.1898 4.47015 64.5059 18.5772 57.9594 23.3957C57.9594 23.3957 54.9199 27.8078 55.0368 27.8078C55.446 27.8659 55.7967 28.3884 56.0305 29.3753C56.615 29.9558 56.9073 30.0139 57.5502 30.0139C61.0573 30.13 65.4411 24.1504 65.4411 24.1504L65.8503 24.3826C65.6165 24.6729 61.5249 30.4783 57.5502 30.5364C56.8488 30.5364 56.4981 30.4202 56.1474 30.188C56.1474 32.9746 53.9847 38.1995 50.7699 43.0179C47.2628 48.2428 43.6389 52.1905 40.7748 52.1324C39.0212 52.0744 38.9628 50.3908 39.0212 49.2297C39.1381 48.1267 40.2487 45.9206 41.5346 44.0049L55.7967 22.9313ZM58.953 21.9444C64.8566 17.242 76.4884 4.29599 76.4884 1.21913C76.4884 0.580539 76.1961 0.406376 75.67 0.406376C73.6827 0.464432 69.3573 6.50204 65.2073 12.5977L58.953 21.9444ZM54.6277 28.3884L43.6388 44.5854C42.8205 45.7465 40.4825 48.7653 40.424 50.2747C40.3656 50.9133 40.5409 51.3777 41.3008 51.4358C43.0543 51.4938 46.9121 47.7203 50.1854 42.7857C53.5171 37.8511 55.7967 32.2199 55.5044 29.7817C54.7446 29.2011 54.6277 28.3884 54.6277 28.3884Z" fill="#3D007C"/>
<path d="M44.8613 31.5738C42.2663 31.5738 40.9688 29.8937 40.9688 27.8215C40.9688 23.1172 47.3973 18.3569 51.1129 18.3569C52.8822 18.3569 53.2361 19.141 53.2361 19.813C53.2361 22.5012 47.1614 24.6293 44.4484 25.0774C43.9766 25.9174 43.0919 27.4855 43.033 28.8856C42.974 30.0057 43.5048 31.0137 45.1562 31.0137C48.6948 31.0137 53.0002 26.7575 55.1823 24.0693L55.6541 24.3493C51.1718 29.7816 47.1614 31.5738 44.8613 31.5738ZM44.7433 24.5173C50.0513 23.4533 51.9386 21.0451 52.1745 19.813C52.2334 19.309 52.1155 18.805 51.2308 18.805C49.3435 18.805 46.2177 22.0532 44.7433 24.5173Z" fill="#3D007C"/>
<path d="M39.4566 18.8117L34.0178 26.7874C33.0236 28.2686 32.6727 29.0662 32.6727 29.8637C32.6727 30.5474 33.2576 31.0031 33.8424 31.0031C36.4741 31.0031 41.211 25.3632 42.3807 23.9389L42.8485 24.2238C40.0999 27.528 36.1816 31.5728 33.4915 31.5728C32.2634 31.5728 31.0938 30.8322 31.0938 29.1801C31.0938 28.2116 31.4446 27.0153 32.6727 25.0214C33.6085 23.6541 34.6611 22.1729 37.0004 18.8117H34.6611L35.129 18.299H37.2928L41.8544 11.7476H44.3106L39.8075 18.299H42.6146L42.2052 18.8117H39.4566Z" fill="#3D007C"/>
</svg>
