<svg width="96" height="91" viewBox="0 0 96 91" fill="none" xmlns="http://www.w3.org/2000/svg">
<path d="M4.71688 87.5158C4.45837 87.3014 3.67379 87.43 3.22051 87.2558C2.50269 86.9792 0.321637 83.8625 0.152473 83.102C-0.0498202 55.7868 -0.0523301 28.4134 0.153979 1.09673C0.27144 0.607313 0.575634 0.24991 1.051 0.0877743C32.0747 -0.00659593 63.1531 -0.0603067 94.1729 0.114881C94.9469 0.350304 95.0759 1.16349 95.1246 1.87127V82.4248C95.0578 82.723 95.0593 83.0929 94.971 83.3755C94.8319 83.8213 92.9772 86.4943 92.6027 86.8251C91.8487 87.4902 91.022 87.2061 90.5657 87.4962C90.4091 87.5956 89.7154 88.7516 89.3549 89.094C86.5605 91.7464 80.7643 91.6249 78.3272 88.5815C77.9828 88.1513 77.8172 87.4099 77.2173 87.3843C59.9656 87.3627 42.7401 87.433 25.5627 87.3808C23.1557 87.6001 20.2825 87.1062 17.9332 87.3843C17.7626 87.4044 17.6235 87.4234 17.487 87.5399C17.2159 87.7708 16.8169 88.6322 16.3816 89.0423C13.5495 91.7143 7.97667 91.7188 5.44925 88.6377C5.23943 88.3822 4.88253 87.6528 4.71688 87.5153V87.5158ZM1.63128 1.82107V82.3761H93.5253V1.82107H1.63128ZM14.3738 87.9886C12.5566 88.8149 10.4981 89.0975 8.55745 88.5393C7.81002 88.3245 7.19862 87.8802 6.45018 87.6885C8.07204 89.4936 11.0236 89.7827 13.1967 88.8671C13.3231 88.8139 14.6082 88.2115 14.3733 87.9886H14.3738ZM88.3992 87.8888C86.4164 88.7531 84.3312 89.1231 82.2024 88.5177C81.6803 88.3691 81.206 87.9686 80.6764 88.0378C82.6978 89.7832 86.4907 89.8068 88.3992 87.8888Z" fill="#3D007C"/>
<path d="M63.8962 13.6974C65.1872 14.9995 66.3573 16.4382 67.4807 17.8863L69.848 21.6857C71.244 17.7875 74.5389 14.7751 78.5617 13.7486C78.5291 12.8415 78.5411 11.8642 79.3824 11.3095C80.3251 10.6881 83.5101 10.7032 84.5738 11.0244C86.3608 11.5635 86.1776 13.0172 86.2474 14.5663C95.6989 19.1769 94.8009 33.6231 84.5151 36.6038C84.2304 36.6861 82.7035 36.9542 82.6919 37.0827C83.1361 38.7552 83.6823 40.4253 84.0844 42.1069C85.5044 48.0457 84.7153 52.8249 81.0249 57.6885C80.7749 58.0183 79.6053 59.208 79.5245 59.4042C79.4336 59.6256 79.7765 59.9273 79.5215 60.3966C79.3714 60.6727 78.641 61.2234 78.5321 61.5035C78.4849 61.6244 78.633 61.7851 78.4874 61.9663C78.3208 62.1736 77.7826 62.1751 77.5161 62.7157C77.4162 62.9185 77.7244 63.03 77.6597 63.2378C76.5197 64.9776 74.9039 66.3942 73.5711 67.9974C73.4552 68.4392 75.0926 69.3327 75.2201 69.9305C75.3024 70.3165 74.9244 70.6629 74.9751 70.8647C75.08 71.2868 76.6909 71.7165 75.3717 72.596C74.7322 73.0227 74.6363 72.4479 74.2126 72.1392C73.9049 71.9148 73.5726 71.7371 73.2584 71.4886C72.9848 71.2728 72.5054 70.55 72.127 70.6483C70.8776 71.846 69.8932 73.3098 68.5198 74.3699C67.6037 74.7509 67.6188 73.8333 67.1434 73.6828C66.797 73.5728 66.5195 74.0141 66.0391 73.7922C65.6149 73.2847 63.5915 71.8169 63.6567 71.2005C63.6768 71.0093 63.9484 70.7718 63.9152 70.5987C63.8058 70.0304 62.4535 70.0219 63.2863 68.6354C63.7205 67.9121 66.8146 64.5941 67.5098 64.1323C67.8 63.9395 68.2427 63.8356 68.4967 63.6148C68.7191 63.4215 68.9731 62.9506 69.1954 62.7087C70.4162 61.3815 71.6606 59.994 72.9537 58.7436C73.5345 58.1819 74.1815 57.6202 74.814 57.0932C75.1051 56.8507 75.4334 56.3251 75.8225 56.295C75.9705 56.2835 76.1096 56.407 76.2662 56.3442C76.6407 56.1941 78.4523 53.7039 78.757 53.2124C80.3096 50.7066 80.9907 48.0662 80.681 45.1076C80.3919 42.3453 79.3945 39.7366 78.8227 37.0355C78.7153 36.8497 76.9474 36.3965 76.5332 36.2153C76.0182 35.9899 75.3265 35.5978 74.8316 35.3092C74.5916 35.1691 74.2603 34.8087 74.0093 34.7264C73.8593 34.6772 73.8502 34.7234 73.8768 34.8574C74.1825 36.3914 74.1303 38.7994 74.0651 40.3967C73.1861 61.9181 52.9271 78.6889 31.5282 74.3996C7.47931 69.5797 -4.91984 42.2098 7.34227 20.8168C19.1566 0.205471 47.2273 -3.11606 63.8962 13.6974ZM73.0963 38.9048C73.0963 19.6869 57.5171 4.10778 38.2992 4.10778C19.0813 4.10778 3.50221 19.6869 3.50221 38.9048C3.50221 58.1227 19.0813 73.7018 38.2992 73.7018C57.5171 73.7018 73.0963 58.1227 73.0963 38.9048ZM83.9925 15.2671V12.5087C83.8901 12.3883 83.746 12.3366 83.598 12.3014C82.9379 12.1428 81.4239 12.1709 80.7418 12.2678C79.7735 12.4053 80.1735 12.9906 80.1846 13.6081C80.1901 13.9027 80.1002 15.1014 80.2739 15.2234C80.8552 15.3373 81.433 15.0542 82.0378 15.0587C82.3475 15.0608 83.8966 15.3619 83.992 15.2671H83.9925ZM84.5944 12.5589V15.7685C84.8986 15.8162 84.7545 15.6932 84.7972 15.5246C84.9442 14.9423 84.9804 13.3435 84.8238 12.7763C84.7746 12.5976 84.8559 12.5173 84.5944 12.5589ZM84.7947 17.4732C84.9839 16.5581 83.4012 16.5059 82.7431 16.4663C82.0659 16.4256 79.9416 16.3252 79.7785 17.2217C79.7107 17.5937 80.2553 17.1083 80.4125 17.0526C81.2267 16.7634 83.0388 16.79 83.8745 17.041C84.2274 17.1469 84.4613 17.3758 84.7952 17.4732H84.7947ZM79.1776 18.2769C77.0332 18.3717 75.1528 20.4579 74.3447 22.3197C73.0807 25.2312 73.8582 28.9869 76.2682 31.066C76.5779 31.3331 77.7992 32.2221 78.129 32.316C78.4046 32.3943 78.2706 31.9074 78.1822 31.7603C78.0788 31.5881 76.992 31.0334 76.6698 30.7654C73.2865 27.9463 73.5505 22.1521 77.1411 19.5986C77.737 19.1749 78.4081 18.9606 78.9477 18.5966C79.0767 18.5098 79.2218 18.4827 79.1786 18.2769H79.1776ZM81.4842 18.2759L81.3004 21.5196C81.5635 21.7259 82.3887 22.518 82.4876 21.9372L82.7747 18.4405C82.6703 18.1293 81.7698 18.3306 81.4842 18.2754V18.2759ZM83.0905 22.89C83.3465 23.1831 83.4775 22.0361 83.49 21.9367C83.5784 21.2345 83.6667 20.2381 83.6958 19.5343C83.7114 19.1623 83.7837 18.5635 83.5397 18.2774L83.0905 22.89ZM88.5057 23.4913C88.7657 23.2248 87.7407 21.3314 87.5264 21.0111C87.294 20.6632 85.9934 19.1744 85.647 19.1809C85.5145 19.1834 85.4728 19.4204 85.5471 19.5795C85.6475 19.7948 86.4251 20.4102 86.6519 20.6818C86.8347 20.9007 87.1449 21.3148 87.2849 21.5532C87.4375 21.8127 88.1187 23.8879 88.5057 23.4908V23.4913ZM80.1811 19.3792C80.0199 19.2211 78.4287 19.8505 78.1757 20.0313L79.9326 20.9729C80.3598 20.5759 80.1258 19.9002 80.1816 19.3797L80.1811 19.3792ZM83.9785 24.7829C84.0457 24.6659 83.9754 24.5364 83.8986 24.438C83.7847 24.292 82.5679 23.3829 82.3204 23.2077C81.1704 22.3935 79.8964 21.8178 78.6777 21.1225L77.373 21.8378L78.2871 22.4262C79.399 22.9638 80.5836 23.4602 81.6523 24.0761C81.9922 24.2719 83.224 25.2879 83.488 25.1523L83.978 24.7829H83.9785ZM87.0023 23.4908C86.8643 22.9382 86.6479 22.3775 86.3417 21.8951C86.2248 21.7108 85.7574 20.9955 85.4959 21.1286C84.9563 21.6526 85.5531 22.2229 85.8357 22.7017C86.149 23.2328 86.1058 23.8246 87.0023 23.4903V23.4908ZM78.0738 28.507C78.1084 27.4709 78.4011 26.4364 78.2259 25.3968C78.119 25.1825 77.5 25.1458 77.2039 25.0143C76.7747 24.8236 76.1206 24.3121 75.9459 23.8648L75.6684 22.9909C74.938 24.7734 75.0735 26.4976 75.9193 28.2043C76.346 29.0657 77.1763 30.1244 78.0738 30.5124C78.2294 29.8422 77.5768 29.6249 77.1748 29.1561C76.2431 28.0693 75.6453 26.6507 75.7677 25.1965C76.7782 25.0786 76.7094 26.2356 76.9689 26.9549C77.1627 27.492 77.4885 28.3323 78.0743 28.507H78.0738ZM86.7508 24.4953C86.2338 24.5555 85.6249 24.4516 85.0958 24.4953C85.0326 24.7322 85.1576 24.6649 85.2243 24.7247C85.769 25.2111 86.4125 25.448 86.3071 26.3546C86.2694 26.6768 86.0471 26.733 86.0235 26.8646C86.0029 26.9775 86.1158 27.0945 86.0511 27.2968C85.8508 27.9252 85.136 27.9082 84.6054 28.0166L84.5939 28.508L87.7036 28.2053C86.8226 27.3324 86.4552 26.7486 86.7282 25.4756C86.8086 25.1022 87.0781 24.8045 87.0008 24.3954C86.8889 24.3577 86.794 24.4902 86.7508 24.4953ZM80.0802 24.5962C79.7755 24.5595 79.7468 24.9516 79.7062 25.1744C79.4552 26.5634 79.4688 28.0131 79.2785 29.4106L79.6726 29.404C79.8573 27.8113 80.0867 26.204 80.0802 24.5967V24.5962ZM87.1012 26.3009C87.2372 27.3003 88.2085 27.9328 89.1804 27.6261C91.4578 26.9082 90.0834 23.8743 88.0464 24.8943L88.0052 25.2969C87.5936 25.2327 87.3291 25.3582 87.303 25.7984L87.7056 25.5499L87.4998 26.2968L87.1012 26.3009ZM81.5851 29.8121L82.0921 25.6508C82.069 25.3566 81.7437 25.4104 81.5499 25.2834C81.306 25.1237 81.1353 24.8391 80.7864 24.8989L80.2809 29.3614C80.2503 29.65 81.5359 29.8643 81.5856 29.8121H81.5851ZM85.6691 26.6758C85.8839 26.094 84.6742 24.7663 84.1647 24.9094C83.9825 24.9606 83.8555 25.3095 83.5919 25.2994C83.5558 25.4585 83.6482 25.5047 83.7385 25.6021C83.9122 25.7898 85.2941 26.9087 85.4382 26.9072C85.4548 26.9072 85.6636 26.6909 85.6691 26.6758ZM87.7036 29.3102C87.3532 28.9989 86.2609 30.3447 85.9999 30.5646C85.7389 30.7844 85.4126 31.0219 85.1265 31.1956C84.6355 31.4937 82.8591 32.1071 82.6889 32.2688C82.5639 32.3877 82.5744 32.458 82.589 32.6191C84.1255 32.447 85.5702 31.701 86.6911 30.6539C86.8291 30.5249 87.8376 29.4291 87.7036 29.3102ZM85.5968 29.6113C84.9653 29.5682 84.4207 29.6073 83.854 29.901C83.7375 29.9908 83.7601 30.4978 83.8374 30.6183C84.0768 30.9918 85.8142 29.7996 85.5968 29.6108V29.6113ZM80.666 31.0309C80.6469 31.0003 80.0606 30.7413 80.0069 30.7322C79.5616 30.6584 79.5164 31.0174 79.4793 31.3662C78.8212 37.5565 82.8997 42.9301 81.5379 49.2735C80.8989 52.2502 79.154 54.8649 77.0959 57.042C77.2214 57.424 77.6135 57.6017 77.9408 57.7819C78.1892 57.806 79.5968 55.9853 79.8206 55.6806C81.2979 53.6702 82.4043 51.3622 82.8591 48.889C83.9468 42.9743 80.5274 38.063 80.686 32.2723C80.6916 32.0625 80.7167 31.1122 80.6655 31.0304L80.666 31.0309ZM75.828 57.4024C75.6684 57.5224 75.5419 57.6684 75.6578 57.8471C75.7431 57.9786 77.0161 59.2265 77.1341 59.2878C77.4523 59.4534 78.0412 59.4926 77.7987 59.0257C77.7234 58.8807 76.3766 57.6925 76.1618 57.553C76.0709 57.4942 75.9334 57.3768 75.828 57.4029V57.4024ZM75.0298 58.1122C74.7779 58.2567 74.6855 58.3958 74.8587 58.6538C75.0474 58.9349 76.4534 60.2465 76.7431 60.2912C76.8585 60.3093 76.9428 60.2967 77.0277 60.2114C77.2987 60.0041 77.0754 59.7993 76.9223 59.6C76.7185 59.3345 75.2838 58.064 75.0293 58.1122H75.0298ZM74.2277 58.9118C74.0375 58.975 74.0319 59.1663 74.0786 59.3309C74.1188 59.471 75.9826 61.1089 76.1186 61.1094C76.3274 61.1104 76.4861 60.878 76.4564 60.6782C76.4042 60.3233 74.941 59.334 74.6629 58.9515C74.5329 58.8847 74.3652 58.8661 74.2277 58.9118ZM74.062 70.2337C74.0962 70.042 74.0314 69.9617 73.919 69.8261C73.3472 69.1394 72.0637 68.4828 71.5557 67.7761C71.4217 67.5898 71.1481 67.0758 71.1592 66.869C71.1807 66.4674 75.0098 62.8703 75.3335 62.0586C75.319 61.9367 75.2331 61.8533 75.1659 61.7595C75.057 61.6074 73.5465 60.1753 73.4165 60.0985C73.0772 59.8967 72.9979 60.0191 72.7554 60.2506C71.5532 61.3981 70.2747 63.4145 69.0504 64.3692C68.5725 64.7417 67.9014 64.9535 67.4441 65.3706C66.6565 66.0895 65.3393 67.6245 64.6371 68.4818C64.4358 68.7278 64.0844 69.0712 64.1296 69.3764C64.1602 69.5832 64.9232 70.2884 65.1345 70.4867C65.5075 70.8371 66.4753 71.7502 66.8457 71.9851C67.3939 72.3325 67.7061 71.9966 68.1102 71.6041C68.6011 71.1267 69.1081 70.3592 69.598 69.8321C69.8264 69.5867 70.8414 68.4904 71.0261 68.4487C72.0873 68.2093 72.9954 70.2071 74.0626 70.2342L74.062 70.2337ZM66.1375 72.7421C66.2976 72.5804 65.0883 71.6116 64.9357 71.5383C64.8037 71.6859 66.0581 72.8219 66.1375 72.7421Z" fill="#3D007C"/>
<path d="M86.5653 46.2849C87.1069 46.1865 89.0766 46.1926 89.6268 46.2849C90.177 46.3773 90.5705 46.7698 90.6975 47.3205L90.6985 60.058C91.0047 61.0604 91.078 61.8686 90.6985 62.8554C90.4174 67.2572 91.0915 72.1645 90.708 76.5065C90.6583 77.0712 90.3557 77.7539 89.7453 77.8508C89.2448 77.9301 86.9403 77.9306 86.4639 77.8337C86.103 77.7604 85.6472 77.3875 85.594 76.9984L85.5859 47.3115C85.6246 46.8376 86.1225 46.3647 86.5648 46.2844L86.5653 46.2849ZM89.8015 47.3642H86.4915V58.6986C86.7641 58.6489 87.5813 58.8397 87.6812 58.534L87.6977 49.1216L88.147 48.6648C88.267 48.6487 88.5983 48.9905 88.5983 49.0192V58.6986C88.9853 58.6464 89.5108 58.8422 89.802 58.548V47.3642H89.8015ZM89.8015 59.6017H86.4915V60.2035H89.8015V59.6017ZM89.6509 60.8054H86.4915C86.4202 61.4951 86.5081 61.4755 87.139 61.5122C87.649 61.5418 88.9913 61.5865 89.428 61.4851C89.557 61.4549 89.7463 61.3751 89.7894 61.2416L89.6509 60.8049V60.8054ZM86.4915 63.9146H89.8015V63.3122C88.7142 63.1923 87.645 63.2098 86.5567 63.3278L86.4016 63.4714L86.4915 63.9146ZM87.6947 64.8176H86.491V76.8544H89.801V64.8176H88.5973V75.2998C88.5973 75.7842 87.6947 75.881 87.6947 75.4002V64.8181V64.8176Z" fill="#3D007C"/>
<path d="M4.71795 71.6671C6.15207 71.4768 11.107 71.4422 12.502 71.651C13.3664 71.7805 13.5135 72.2996 13.5707 73.0881C13.6846 74.6528 13.7193 77.5742 13.5652 79.1098C13.5054 79.7031 13.2826 80.307 12.6154 80.3672C10.0715 80.178 7.18613 80.6112 4.68381 80.3702C3.84553 80.2894 3.69895 79.9029 3.63219 79.1148C3.50117 77.5707 3.47256 74.3079 3.6357 72.7915C3.71602 72.0441 3.98909 71.7634 4.71795 71.6671ZM12.4628 72.6414H4.63914V79.3618H12.4628V72.6414Z" fill="#3D007C"/>
<path d="M5.92264 60.3286C7.58416 60.0686 9.03786 60.8236 9.90476 62.2165C10.2587 62.7847 10.6396 63.3716 10.9835 63.9463C12.8117 67.0008 9.4033 70.3519 6.22231 69.209C4.73699 68.6754 2.89777 66.4421 2.74015 64.8674C2.53685 62.838 3.79579 60.6614 5.92314 60.3286H5.92264ZM9.57346 64.248C9.57346 62.6081 8.24425 61.2788 6.60431 61.2788C4.96438 61.2788 3.63516 62.6081 3.63516 64.248C3.63516 65.8879 4.96438 67.2171 6.60431 67.2171C8.24425 67.2171 9.57346 65.8879 9.57346 64.248Z" fill="#3D007C"/>
<path d="M14.4026 79.5336C14.2289 79.3188 14.2139 77.6367 14.2746 77.3084C14.3353 76.9801 14.6676 76.8375 14.9477 76.7778C18.0755 76.9932 21.7951 76.4084 24.8541 76.7542C25.1844 76.7914 25.6322 76.9239 25.7039 77.3084C25.7501 77.5559 25.7481 79.0783 25.6859 79.2912C25.6337 79.4699 25.3149 79.7018 25.1337 79.7424L14.748 79.7364C14.6797 79.7214 14.4443 79.5858 14.4021 79.5336H14.4026ZM23.0475 77.6056C22.3794 77.6271 22.1957 78.6326 22.799 78.9087C23.7894 79.3614 24.1749 77.5689 23.0475 77.6056ZM19.4881 77.6568H15.2253C14.9151 77.6568 14.8795 78.5904 15.2253 78.7601H19.4881V77.6568ZM21.0923 77.9574C21.0949 77.5147 20.4945 77.6578 20.2059 77.6723L20.1331 78.1597C20.2661 78.3786 20.9568 78.3028 20.8916 78.609C20.7962 79.0557 20.0949 78.2747 20.0904 78.7094C20.5081 79.1551 21.3559 79.0251 21.0883 78.3219L20.3906 77.8596L21.0923 77.9584V77.9574ZM22.3965 77.6578H21.2936C21.1958 78.0142 21.63 77.7928 21.6952 77.8565V78.9609H21.9949L21.9889 77.9188L22.3965 77.6578ZM24.2061 78.4629C25.5167 78.3229 25.0745 77.4294 23.9004 77.6563L23.9014 78.9614H24.2015L24.2061 78.4629Z" fill="#3D007C"/>
<path d="M12.7398 8.25123C12.7398 10.6496 10.7956 12.5938 8.39723 12.5938C5.99882 12.5938 4.05469 10.6496 4.05469 8.25123C4.05469 5.85282 5.99882 3.90869 8.39723 3.90869C10.7956 3.90869 12.7398 5.85282 12.7398 8.25123ZM11.8453 8.25424C11.8453 6.35429 10.3052 4.81424 8.40526 4.81424C6.5053 4.81424 4.96526 6.35429 4.96526 8.25424C4.96526 10.1542 6.5053 11.6942 8.40526 11.6942C10.3052 11.6942 11.8453 10.1542 11.8453 8.25424Z" fill="#3D007C"/>
<path d="M74.0483 4.73537V6.34016C74.6161 6.02944 75.7886 5.82012 76.2013 6.44407C76.261 6.53442 76.4553 7.02535 76.4553 7.09261V8.64721H76.9572L76.9567 9.24907H75.0006C74.7802 9.11455 74.9609 8.92229 74.9479 8.71347L75.2586 8.592L75.2018 6.84163C74.9589 6.34568 74.0478 6.85217 74.0478 7.19301V8.64721H74.5498L74.5493 9.24907H72.443C72.4782 9.07037 72.5906 8.97399 72.3913 8.848C71.5289 9.49554 69.4558 9.55578 69.1777 8.25166C68.7812 6.39036 70.4055 5.47828 71.9396 6.34016C71.9501 6.08566 72.1338 5.96519 72.3838 6.04701C72.6764 6.14339 72.4982 6.97766 72.5434 7.2422L71.8422 7.19853C71.2925 5.97473 70.135 6.64385 70.259 7.86514C70.3132 8.40175 70.7474 8.9253 71.3146 8.67332C71.7086 8.49813 71.7157 7.89426 72.5444 8.14575L72.4435 8.7466L72.8863 8.65775C73.0103 8.5674 72.9972 5.87333 72.9445 5.58821C72.8602 5.13242 72.4661 5.46422 72.4445 5.43712C72.2121 4.29815 73.3692 4.99288 74.0483 4.73486V4.73537Z" fill="#3D007C"/>
<path d="M59.0188 77.2343C59.1603 77.3166 59.6944 77.2308 59.9424 77.2649C61.4428 77.4727 61.358 79.6367 59.842 79.8551C59.4179 79.9163 58.9646 79.7622 58.6594 79.7934C58.4792 79.8114 58.2046 80.0403 57.9923 80.1121C55.6255 80.9107 54.4187 77.6926 56.2153 76.5301C57.0064 76.018 57.7463 76.0421 58.4877 76.6139C58.6915 76.771 58.9836 77.2142 59.0193 77.2348L59.0188 77.2343ZM58.3376 78.2342C58.3376 77.67 57.8803 77.2132 57.3166 77.2132C56.7529 77.2132 56.2956 77.6705 56.2956 78.2342C56.2956 78.798 56.7529 79.2552 57.3166 79.2552C57.8803 79.2552 58.3376 78.798 58.3376 78.2342Z" fill="#3D007C"/>
<path d="M62.4125 5.4368H61.1079L61.1089 6.13956H60.5061C60.5613 5.85545 60.36 4.9509 60.6712 4.849L65.3636 4.74609C65.6302 4.81035 65.5368 6.12952 65.464 6.14056L64.9199 6.13805C65.3747 5.11906 64.2503 5.49905 63.6158 5.4368V8.6464L64.2754 8.74528L64.1674 9.24826H61.7098V8.64589L62.412 8.6464V5.4368H62.4125Z" fill="#3D007C"/>
<path d="M77.3075 9.24925C76.7839 8.5997 77.5369 8.7774 77.7085 8.55201C77.7874 8.44861 77.7748 6.85737 77.6483 6.75245L77.1564 6.74191V6.13905L78.7617 6.03865C78.6849 6.6365 79.0814 6.12951 79.4373 6.06275C79.8148 5.99197 80.3213 6.00753 80.6596 6.19728C80.7364 6.24044 81.1691 6.65507 81.1691 6.69071V8.64689H81.5712L81.5702 9.24875H79.5643L79.5678 8.6504L80.0522 8.48274L79.9654 6.8152C79.8028 6.51251 78.8616 6.61943 78.8616 6.891V8.64639H79.2636L79.2626 9.24825H77.3065L77.3075 9.24925Z" fill="#3D007C"/>
<path d="M66.2331 7.84409C66.21 8.46603 66.8641 8.83799 67.4143 8.57295C67.6321 8.46804 67.6256 8.19447 67.8871 8.14377C68.1647 8.09006 68.5457 8.18192 68.8409 8.14527C68.753 9.56334 65.8491 9.50009 65.2839 8.64272C64.7985 7.90633 65.0801 6.55102 65.9324 6.1886C67.2004 5.64948 69.0306 6.22273 68.8414 7.84359H66.2336L66.2331 7.84409ZM67.6376 7.34212C67.7385 6.3949 66.1819 6.33617 66.333 7.34212H67.6376Z" fill="#3D007C"/>
<path d="M90.6016 6.03793V7.24266C89.8567 7.37267 90.0519 7.08002 89.805 6.78436C89.5972 6.53588 88.6956 6.51329 88.795 6.99017C88.8241 7.13022 90.8039 7.28181 90.8074 8.39568C90.8109 9.50955 88.5255 9.19783 87.7921 9.24903C87.9392 8.70791 87.5752 8.5779 87.5918 8.1457C88.2669 7.95545 88.2559 8.44588 88.5551 8.63612C88.9436 8.88309 89.4676 8.76613 89.5982 8.29729C89.5254 7.98607 87.3619 8.10454 87.5958 6.79691C87.8036 5.63686 89.7889 6.19254 90.6011 6.03793H90.6016Z" fill="#3D007C"/>
<path d="M87.4016 6.13939V7.24372C86.3911 7.49973 86.7817 6.52791 85.8555 6.64337C84.3411 6.83211 85.4755 10.1406 86.6657 8.14174L87.5015 8.14676C87.3524 9.35199 86.1266 9.37308 85.1538 9.24056C83.3989 9.00212 83.4817 6.23225 85.345 6.04C86.0653 5.96571 86.6737 6.30855 87.4021 6.13989L87.4016 6.13939Z" fill="#3D007C"/>
<path d="M83.4791 6.13916V8.647L83.9374 8.74037L83.9806 9.24886H81.8743L81.919 8.73936L82.2754 8.647V6.74102L81.7734 6.74152L81.7739 6.13916H83.4791Z" fill="#3D007C"/>
<path d="M83.3649 4.66073C83.4327 4.71595 83.5697 5.06532 83.5667 5.16872C83.5416 6.04466 81.7631 6.1576 81.9885 4.98851C82.0884 4.46998 83.0592 4.41125 83.3649 4.66073Z" fill="#3D007C"/>
<path d="M83.7816 73.5448C83.6918 74.1968 83.8594 74.498 84.5331 74.5487L84.4864 74.0899L84.0838 74.1456L84.0979 73.7089C84.1782 73.4589 84.5707 73.5548 84.7851 73.5448L84.2846 73.7456C84.2068 74.1215 84.6681 73.8073 84.7725 74.1095C85.0155 74.8112 84.2967 74.9854 83.9327 74.4488L83.7806 74.747C83.4915 74.74 83.5748 74.4187 83.1798 74.5472C83.1281 74.1983 83.3389 73.9172 83.5527 73.6723C83.6135 73.6025 83.5482 73.481 83.7821 73.5448H83.7816Z" fill="#3D007C"/>
<path d="M84.6847 67.125C84.7871 67.514 84.3087 67.1737 84.2846 67.4242C84.6847 67.4628 84.9347 67.7208 84.7354 68.1274C84.5703 68.4648 83.9393 68.3297 84.0838 67.9276C84.4091 67.8754 84.2204 68.3875 84.5818 67.9738C84.6109 67.5667 84.3705 67.6225 84.0844 67.7259L84.1727 67.1827L84.6847 67.125Z" fill="#3D007C"/>
<path d="M83.7776 67.1257C83.7364 67.5383 83.9774 67.9484 83.7284 68.3284C83.6325 68.2767 83.6205 68.088 83.5562 68.0488C83.3921 67.9479 83.1617 68.1663 83.1722 67.8751C83.1808 67.6382 83.636 66.9555 83.7776 67.1262V67.1257ZM83.5773 67.8264V67.4264H83.4789L83.378 67.8264H83.5778H83.5773Z" fill="#3D007C"/>
<path d="M72.5994 38.9013C72.5994 57.8466 57.2411 73.2048 38.2958 73.2048C19.3504 73.2048 3.99219 57.8466 3.99219 38.9013C3.99219 19.9559 19.3504 4.59717 38.2958 4.59717C57.2411 4.59717 72.5994 19.9554 72.5994 38.9008V38.9013ZM37.215 5.25425C36.6659 5.41939 37.1056 5.95299 37.5714 5.82348C38.0689 5.68544 37.7682 5.08809 37.215 5.25425ZM39.8383 5.44901C38.7114 4.86472 38.6657 6.1352 39.8449 5.73011L39.8383 5.44901ZM35.411 5.35364C34.5722 5.48264 35.3979 6.21401 35.939 5.68644C35.9852 5.46909 35.5701 5.32904 35.411 5.35364ZM41.1279 5.45453C40.4377 5.66084 41.4717 6.31842 41.8557 5.68795C41.6801 5.48716 41.3894 5.37673 41.1279 5.45453ZM33.1315 6.03732C33.2726 6.24162 33.9191 6.05639 34.0315 5.78834C33.8257 5.446 32.869 5.65733 33.1315 6.03732ZM43.1318 5.65381C43.0163 5.68393 42.945 5.81244 42.8627 5.88823C43.1056 6.19042 43.5911 6.33448 43.8616 5.98863C43.7261 5.80691 43.3531 5.59558 43.1318 5.65381ZM31.2255 6.04033C30.9038 6.52473 32.0503 6.50616 32.1276 6.18791C32.2184 5.81193 31.2863 5.94897 31.2255 6.04033ZM45.6687 6.14072L44.8666 6.03933L44.863 6.37615C45.0724 6.69189 45.9237 6.52473 45.6692 6.14022L45.6687 6.14072ZM29.3196 6.84047C29.5394 7.17478 30.9063 6.37464 29.5906 6.35808C29.42 6.39171 29.2317 6.70695 29.3196 6.84047ZM35.9335 6.83545C35.9963 6.76116 35.9531 6.40426 35.7754 6.34804C35.5124 6.26471 35.2001 6.49361 35.0385 6.69138C35.1163 7.00913 35.8442 6.94086 35.9335 6.83595V6.83545ZM37.1091 6.35657C36.5083 6.54581 37.4645 7.24506 37.845 6.58898C37.9088 6.2868 37.2853 6.30085 37.1091 6.35657ZM39.0146 6.35557C38.4162 6.54632 39.363 7.24405 39.749 6.59099C39.5848 6.34603 39.2917 6.26772 39.0146 6.35557ZM41.6565 6.64169L40.8046 6.53979C40.4718 7.17779 41.9085 6.9765 41.6565 6.64169ZM46.7971 6.91828C46.9884 7.09547 47.6414 7.11304 47.5742 6.79278C47.4868 6.37715 46.3313 6.48759 46.7971 6.91828ZM33.2314 6.74259C32.9152 7.19386 33.9798 7.25761 34.1319 6.79128C34.0391 6.52624 33.2786 6.67532 33.2314 6.74259ZM43.6623 7.14165C43.7311 6.67984 42.821 6.61509 42.7603 6.89318C42.8652 7.30278 43.3652 7.20289 43.6623 7.14165ZM27.7865 6.85854C27.6018 6.89619 27.4377 7.05682 27.3152 7.19285L27.5853 7.42928C28.1444 7.48249 28.5124 6.71096 27.7865 6.85854ZM31.3259 7.04326C31.0097 7.49454 32.0744 7.55829 32.2265 7.09196C32.1336 6.82692 31.3731 6.976 31.3259 7.04326ZM44.8294 7.04979C44.1954 7.21845 45.3068 8.00805 45.4674 7.49253C45.5628 7.18683 45.0252 6.99809 44.8294 7.04979ZM48.7423 7.05029C48.1645 7.22046 49.3522 7.92221 49.4797 7.49253C49.5389 7.10149 49.0259 7.04427 48.7423 7.05029ZM30.322 7.34445C30.2146 7.18783 29.2804 7.25309 29.4205 7.69281C29.5424 8.07632 30.5705 7.70737 30.322 7.34445ZM69.1985 38.464C69.1985 21.3484 55.3236 7.47345 38.2079 7.47345C21.0923 7.47345 7.21734 21.3489 7.21734 38.464C7.21734 55.5792 21.0923 69.4546 38.2079 69.4546C55.3236 69.4546 69.1985 55.5797 69.1985 38.464ZM26.3047 7.93828C26.37 7.09396 24.973 7.80325 25.7536 8.14609L26.3047 7.93828ZM46.6375 7.55879C46.5406 7.58991 46.4463 7.68328 46.4719 7.79321C47.5677 8.62246 47.6093 7.24706 46.6375 7.55879ZM51.2857 8.24498C51.4509 7.79823 50.5549 7.57435 50.4841 7.89611C50.4224 8.17872 51.099 8.3017 51.2857 8.24498ZM28.0917 7.86198C27.4377 7.93326 27.4633 8.54466 28.0415 8.4292C28.5229 8.33282 28.5606 7.81128 28.0917 7.86198ZM49.1795 8.54516C49.4044 8.21436 48.5043 7.80174 48.2774 8.19729C48.2769 8.56925 49.0404 8.74996 49.1795 8.54516ZM24.1754 8.26054C24.0429 8.28112 23.7512 8.47789 23.7156 8.61192C23.5318 9.30313 24.9138 8.65208 24.4058 8.29317C24.336 8.21938 24.2592 8.24799 24.1749 8.26104L24.1754 8.26054ZM26.1828 8.56473C25.3911 8.71934 25.9985 9.60783 26.6104 8.79614C26.5924 8.53662 26.3966 8.52307 26.1828 8.56473ZM52.5612 8.56072L52.2912 8.79715C52.5151 9.09983 52.8765 9.34078 53.1917 8.99643C53.2334 8.79966 52.758 8.49998 52.5612 8.56072ZM50.1864 8.75046L50.1282 9.05114L50.7135 9.33526L50.9836 9.09883C50.7888 8.85588 50.5062 8.69876 50.1869 8.75097L50.1864 8.75046ZM22.4687 9.16358C22.2333 9.2429 21.9336 9.31367 21.8929 9.59879C21.8964 10.1083 22.8055 9.70621 22.6991 9.30012L22.4692 9.16308L22.4687 9.16358ZM24.5749 9.27C23.9289 9.26599 23.9289 10.1806 24.5393 9.83522C24.8776 9.64397 25.0217 9.27251 24.5749 9.27ZM54.8969 10.0501C55.058 9.81464 54.4803 9.41106 54.2664 9.46075L53.9964 9.70019C54.0968 9.89546 54.7559 10.2564 54.8969 10.0501ZM51.9112 9.92909C51.9875 10.0711 52.6265 10.2925 52.6898 9.99936C52.7681 9.63644 51.5397 9.23938 51.9112 9.92909ZM20.9934 10.152C20.6109 10.1093 20.3037 10.2594 20.2354 10.6529C20.4302 11.0992 21.152 10.5977 20.9934 10.152ZM22.7724 10.1695C21.9808 10.3241 22.5881 11.2126 23.2 10.4009C23.182 10.1414 22.9862 10.1279 22.7724 10.1695ZM53.5933 10.4526C53.5245 10.7905 53.7118 11.0344 54.0531 11.0535C54.7719 11.0937 54.1184 10.2463 53.5933 10.4526ZM56.6016 11.0535C56.7502 10.6574 55.9084 10.2303 55.8005 10.6037C55.7663 11.0435 56.2849 11.0766 56.6016 11.0535ZM21.2599 11.066L20.6952 11.5053C20.9327 11.8541 21.5953 11.5961 21.4954 11.2061L21.2599 11.066ZM19.0588 11.2709C18.7651 11.318 18.3591 11.7236 18.7471 11.952C19.2104 12.076 19.7008 11.1679 19.0588 11.2709ZM55.9997 12.0569C56.2934 11.7578 55.3005 11.0997 55.1981 11.5073C55.0746 11.8607 55.8717 12.1874 55.9997 12.0569ZM57.5192 12.0454L58.0548 12.2582L58.2114 12.0062C58.2114 11.7884 57.859 11.5881 57.6582 11.5555L57.5197 12.0454H57.5192ZM19.9905 12.1578C19.5673 12.0745 18.9027 12.5177 19.4383 12.8355C19.7078 12.7185 20.0396 12.5102 19.9905 12.1578ZM17.7838 12.459C17.5072 12.3862 16.8823 12.6548 16.9822 13.0087C17.1021 13.4358 17.952 12.8827 17.7838 12.459ZM57.605 13.0599C57.7872 12.8004 57.0358 12.1885 56.8044 12.6151C56.844 13.0132 57.2587 13.1884 57.605 13.0599ZM59.1616 12.7597C58.74 12.8681 59.2525 13.5649 59.6566 13.4604C60.0602 13.3565 59.4483 12.6859 59.1616 12.7597ZM18.4856 13.3616C17.9344 13.1432 17.3225 14.0382 18.0313 13.9659C18.2677 13.9418 18.4845 13.6055 18.4856 13.3616ZM58.4599 13.5613C58.0929 13.6341 58.4579 14.3886 58.9568 14.2631C59.3218 14.1712 58.7254 13.5091 58.4599 13.5613ZM15.5781 14.4639C15.923 14.492 16.2362 14.2761 16.2628 13.9273L16.0289 13.6637C15.786 13.9007 15.5013 14.0703 15.5781 14.4639ZM61.0897 14.2902C61.0536 14.251 60.7007 14.0894 60.6635 14.0929L60.4376 14.3128C60.5461 14.6712 60.8573 14.8007 61.2162 14.7656C61.2227 14.612 61.1961 14.4057 61.0902 14.2907L61.0897 14.2902ZM16.8466 14.4769C16.5404 14.5688 16.181 14.9844 16.5319 15.2665C16.686 15.2971 17.1538 14.8132 17.082 14.6165L16.8466 14.4764V14.4769ZM60.4136 15.5672C60.4432 15.1395 60.1355 14.8358 59.7123 14.866C59.632 15.3197 59.9954 15.5772 60.4136 15.5672ZM14.7745 15.1671C14.6375 15.0246 13.7851 15.6405 14.2253 15.8689C14.6028 15.8689 14.8347 15.5165 14.7745 15.1671ZM62.0706 15.3679C61.6936 15.4492 62.056 16.279 62.4681 16.1701C62.8988 16.0561 62.2814 15.3227 62.0706 15.3679ZM15.4291 15.8694C14.4025 16.6389 15.4888 17.0917 15.6765 16.0245L15.4291 15.8694ZM61.1409 16.7463C61.2137 16.8191 61.4627 16.8934 61.559 16.8683L61.7172 16.6228C61.5083 16.4316 61.3512 16.1154 61.0164 16.1701C61.0124 16.3382 61.0199 16.6249 61.1409 16.7463ZM13.4704 16.672C13.003 16.6013 12.5884 17.0505 12.7691 17.4737C13.0131 17.6514 13.5783 16.9557 13.4704 16.672ZM63.9248 17.5736C64.087 17.1002 63.1538 16.4311 63.2241 17.1178C63.2622 17.4923 63.5654 17.669 63.9248 17.5736ZM14.4733 17.2734C13.9934 17.1057 13.3338 18.056 14.0205 17.9762C14.3152 17.942 14.5416 17.5671 14.4733 17.2734ZM62.3712 17.4742C62.0254 17.5475 62.3702 18.3772 62.7693 18.2758C63.1684 18.1744 62.5916 17.4275 62.3712 17.4742ZM11.6964 18.309C11.6216 18.3727 11.476 18.6352 11.4665 18.7321C11.4043 19.3827 12.1492 18.835 12.1668 18.4209C12.1276 18.1202 11.8972 18.1368 11.6959 18.309H11.6964ZM64.5568 18.946C64.9002 19.2421 65.3384 18.8802 64.8786 18.4751C64.3299 17.9917 64.1462 18.5921 64.5568 18.946ZM13.2701 18.7783C12.8986 18.7146 12.5914 18.8285 12.5688 19.2381C12.5277 19.985 13.3785 19.2321 13.2701 18.7783ZM64.0242 19.6798C64.0935 19.3169 63.8049 18.9982 63.4746 18.8782C63.0946 19.2195 63.5875 19.7958 64.0242 19.6798ZM11.0634 19.8816C10.5339 19.6608 10.3175 20.2215 10.3617 20.6833C10.705 20.8143 11.1939 20.0674 11.0634 19.8816ZM65.5301 19.7807C65.3474 20.1622 65.5884 20.5402 65.9678 20.6768L66.1972 20.4348C66.1355 20.1095 65.9176 19.732 65.5301 19.7807ZM11.4655 21.0844C11.9032 21.1993 12.3952 20.624 12.0147 20.2827C11.5714 20.2958 11.3992 20.7003 11.4655 21.0844ZM64.4268 20.4835C64.3937 20.8735 64.5568 21.3474 65.0317 21.1386C65.3815 20.8991 64.7355 20.3329 64.4268 20.4835ZM67.2328 22.1852C67.3668 22.003 66.8749 21.2545 66.5331 21.3865C66.3047 21.8248 66.9522 22.5672 67.2328 22.1852ZM9.62429 21.5999C9.31959 21.6822 9.09922 22.4251 9.40994 22.4884C9.75279 22.5581 10.2869 21.4207 9.62429 21.5999ZM10.816 21.8885C10.5128 22.1054 10.2688 22.4743 10.6142 22.7895C10.9063 22.8488 11.344 21.9292 10.816 21.8885ZM65.6421 22.7755C66.2223 23.1274 66.257 22.1039 65.5813 21.9879C65.2852 22.0627 65.5858 22.7414 65.6421 22.7755ZM67.9069 23.2237C67.4291 22.8021 67.3011 23.8989 67.8864 23.9978C68.2995 23.9968 68.1183 23.41 67.9069 23.2237ZM8.95667 23.1916C8.53752 23.2729 8.27047 23.6891 8.35631 24.0932C8.87585 24.2001 9.13035 23.6068 8.95667 23.1916ZM9.82507 23.6062C9.57158 23.675 9.29399 24.306 9.61073 24.3948C9.90991 24.4787 10.2758 23.922 10.1132 23.6911C10.0269 23.5786 9.9586 23.5701 9.82457 23.6062H9.82507ZM66.3323 23.5927C66.2018 23.7207 66.5285 24.5178 66.8819 24.3943C67.2895 24.2919 66.6314 23.299 66.3323 23.5927ZM68.7222 24.9144C68.6248 24.8577 68.4576 24.9099 68.3386 24.8963C68.2443 25.1182 68.4943 25.8621 68.7879 25.7983C69.0916 25.7326 68.8195 24.9706 68.7222 24.9144ZM7.92863 25.8711C8.07521 25.7256 8.29708 25.06 8.00292 24.9967C7.57474 25.1553 7.25951 25.6503 7.70224 25.9921C7.76599 25.9359 7.87392 25.9248 7.92863 25.8706V25.8711ZM9.25785 25.2979C8.47377 25.2487 8.65799 26.7496 9.14842 26.0403C9.29198 25.833 9.26036 25.5363 9.25785 25.2979ZM67.6344 25.2979C67.0215 25.1875 67.161 26.1005 67.5852 26.1035L67.8221 25.953L67.6344 25.2979ZM69.6408 27.6044C69.8461 27.4589 69.5725 26.5493 69.1408 26.7024C69.0233 26.9519 69.2874 27.8549 69.6408 27.6044ZM7.35137 26.9027C6.96485 26.6492 6.63255 27.7229 7.003 27.8047C7.28712 27.867 7.50547 27.0036 7.35137 26.9027ZM68.4375 27.9051C68.6067 27.7887 68.4481 26.992 68.0992 27.0086L67.8578 27.2671C67.8196 27.5171 68.1805 28.0823 68.4375 27.9056V27.9051ZM8.55509 27.1035C8.21224 26.8731 7.78959 27.7455 8.20472 28.004C8.43863 27.9157 8.7609 27.242 8.55509 27.1035ZM69.8942 28.508C69.584 28.7027 69.7306 29.5661 70.0805 29.5039C70.5478 29.4211 70.1593 28.4513 69.8942 28.508ZM6.51458 28.8217C6.21541 28.9015 6.01312 29.6344 6.41168 29.7057C6.74147 29.7644 7.11092 28.6631 6.51458 28.8217ZM68.9164 28.9331C68.5334 28.4894 68.3873 29.4943 68.7021 29.7152L69.0394 29.7112C69.0394 29.4843 69.072 29.1129 68.9164 28.9331ZM7.70475 28.9091C7.42315 29.0687 7.20931 29.7328 7.6154 29.8051C8.01597 29.8758 8.10282 28.8307 7.70475 28.9091ZM70.6437 30.5139L70.339 30.558C70.1538 30.6951 70.2527 31.3843 70.4078 31.4204L70.7451 31.4169L70.6437 30.5139ZM5.99956 30.7146C5.73402 30.8557 5.53825 31.5323 5.90168 31.6157C6.24503 31.6945 6.42473 30.6273 5.99956 30.7146ZM69.192 30.7146C68.8988 30.7744 69.0223 31.693 69.3898 31.6162C69.695 31.5524 69.5082 30.6504 69.192 30.7146ZM6.9518 31.7166C7.40307 31.8737 7.64452 30.9626 7.30167 30.815C6.89307 30.6393 6.94025 31.5022 6.9518 31.7166ZM70.7466 33.4218L71.0518 33.3776C71.2506 33.231 71.1798 32.4776 70.8982 32.4449L70.6402 32.5855L70.7466 33.4218ZM69.8355 33.5171C70.1804 32.2723 69.0585 32.1919 69.5328 33.4634L69.8355 33.5171ZM5.3711 33.4971C5.76816 33.9147 6.07837 32.8711 5.69587 32.6201C5.48203 32.5729 5.12614 33.2395 5.3711 33.4971ZM7.05069 32.6201C6.57934 32.6688 6.41921 33.3545 6.80071 33.6205C7.11896 33.3565 7.2058 32.9976 7.05069 32.6201ZM69.7939 34.5261C69.4877 34.5863 69.6593 35.6083 69.9916 35.5285C70.3897 35.4326 70.1503 34.4563 69.7939 34.5261ZM71.3454 34.5261L71.0402 34.5703C70.8811 34.6877 70.8806 35.4598 71.097 35.528C71.6516 35.5602 71.4373 34.8679 71.3454 34.5261ZM5.14722 35.6284C5.54327 35.895 5.87507 34.7475 5.49559 34.6265C5.03528 34.4799 4.97956 35.5155 5.14722 35.6284ZM6.73696 35.514C7.2078 34.2555 6.02818 34.3891 6.36199 35.516L6.73696 35.514ZM69.8526 36.544C69.8275 36.9074 69.7492 37.3035 70.093 37.5329C70.4595 37.3783 70.4278 36.4943 70.0955 36.4577L69.8526 36.544ZM6.40114 36.5325C6.08088 36.6394 6.05026 37.4857 6.30075 37.5344C6.7219 37.6167 6.80573 36.4506 6.40114 36.5325ZM71.3003 36.533C70.9579 36.6063 70.9128 37.5038 71.3946 37.5344C71.7736 37.3703 71.6516 36.4582 71.3003 36.533ZM5.19742 36.6324C4.87716 36.7393 4.84654 37.5856 5.09702 37.6343C5.51817 37.7166 5.602 36.5505 5.19742 36.6324ZM70.0965 38.4389C69.7542 38.5122 69.709 39.4098 70.1909 39.4404C70.5699 39.2762 70.4479 38.3642 70.0965 38.4389ZM6.15116 38.5393C6.07687 38.7316 6.07737 39.5086 6.39813 39.4399C6.65915 39.3837 6.79669 38.6548 6.48848 38.5494L6.15166 38.5393H6.15116ZM71.2978 38.5388C71.0448 38.6186 71.0663 39.5086 71.3971 39.6392C71.7641 39.4866 71.7897 38.3827 71.2978 38.5388ZM5.345 39.6407C5.46346 39.2702 5.59347 38.7597 5.09702 38.6387C4.8862 38.6829 4.92535 39.2938 4.96149 39.475L5.0398 39.5965L5.345 39.6407ZM6.25908 40.4559C6.02968 42.012 7.31221 41.248 6.50203 40.3695L6.25908 40.4559ZM70.2301 41.3318C70.7315 40.0563 69.4304 40.2395 69.8566 41.3318H70.2301ZM5.19691 40.6451C4.93489 40.7274 4.98609 41.5266 5.2963 41.6455C5.66124 41.4934 5.6783 40.494 5.19691 40.6451ZM71.1974 40.6451C70.9353 40.7274 70.9865 41.5266 71.2968 41.6455C71.6617 41.4934 71.6787 40.494 71.1974 40.6451ZM6.60142 42.3498C6.18479 42.4401 6.35395 43.4245 6.6963 43.3507C7.11946 43.2599 6.90863 42.283 6.60142 42.3498ZM70.0418 42.3498C69.5695 42.3091 69.4244 43.2609 69.7934 43.3522C70.1367 43.4371 70.2145 42.5641 70.0418 42.3498ZM71.3223 42.6756C70.9082 42.2288 70.5784 43.4109 71.0965 43.6514C71.36 43.4601 71.5668 42.9386 71.3223 42.6756ZM5.64618 42.651C4.95747 42.6349 5.0925 43.3116 5.49709 43.6514C5.87507 43.3919 5.75761 43.0259 5.64618 42.651ZM6.90261 44.2558C6.65162 44.306 6.68375 45.1473 7.00149 45.2562C7.42666 45.1046 7.23391 44.1895 6.90261 44.2558ZM69.5931 44.2558C69.318 44.3115 69.2056 45.079 69.4927 45.2577C69.8611 45.331 70.0172 44.1699 69.5931 44.2558ZM70.9444 45.5589C71.0177 45.2421 71.1928 44.819 70.8957 44.5585C70.5704 44.7934 70.3947 45.1437 70.6397 45.5152L70.9444 45.5594V45.5589ZM5.9333 44.6714L5.54729 44.6558C5.53926 45.0052 5.46848 45.345 5.79928 45.5584C6.15166 45.6327 6.07335 44.8581 5.9333 44.6714ZM7.52706 46.2867C7.47234 46.2305 7.20027 46.1266 7.15309 46.1607C7.05621 46.4413 7.03764 46.615 7.17568 46.8896C7.55667 47.6501 7.83878 46.609 7.52756 46.2867H7.52706ZM69.441 46.2606C68.9234 46.1156 68.7472 46.7797 68.9546 47.1491H69.328L69.4415 46.2606H69.441ZM6.32584 46.6878C6.28016 46.6381 6.15768 46.6261 6.09695 46.5703C5.72549 46.863 5.8806 47.2992 6.20035 47.5647C6.53416 47.6345 6.50454 46.8831 6.32584 46.6878ZM70.3957 46.5628C70.1964 46.6025 69.8556 47.4011 70.1949 47.5647C70.6949 47.7148 70.8209 46.4785 70.3957 46.5628ZM68.6905 47.9668C68.3838 48.2384 68.1685 48.6957 68.5886 48.9673C68.8376 48.77 68.9586 48.4417 68.9315 48.13L68.69 47.9663L68.6905 47.9668ZM8.04559 48.0768C7.94319 48.007 7.60838 48.0617 7.56019 48.2299C7.5637 48.5125 7.68116 48.7961 7.90554 48.9693C8.29858 48.9999 8.14598 48.145 8.04559 48.0768ZM6.70031 48.4698C6.25406 48.6575 6.46389 49.6037 6.89959 49.4702C7.23993 49.167 6.98443 48.6937 6.70031 48.4698ZM70.0413 48.4683C69.5188 48.2931 69.3863 49.4045 69.6935 49.4702C70.1498 49.3252 70.214 48.8583 70.0413 48.4683ZM68.0887 49.672C67.8035 49.8959 67.547 50.3708 67.8879 50.6739C68.3878 50.827 68.5133 49.5842 68.0887 49.672ZM8.74935 50.6674C8.95516 50.5244 8.72927 49.6464 8.30912 49.7729C7.88145 50.0615 8.36484 50.9345 8.74935 50.6674ZM7.20329 50.3743C6.8248 50.5751 7.20831 51.4379 7.50146 51.3762C7.87994 51.1754 7.49644 50.3125 7.20329 50.3743ZM69.315 51.2492C69.4902 51.072 69.7166 50.3693 69.2904 50.3698C68.8988 50.4425 68.6469 51.1468 69.0379 51.3315C69.1227 51.3667 69.2578 51.3069 69.315 51.2492ZM9.34519 51.5921L9.00435 51.6749C8.85477 52.1086 9.05154 52.5799 9.55853 52.4805C9.61274 52.1332 9.51636 51.8817 9.34519 51.5926V51.5921ZM67.035 52.48C67.3583 52.6939 67.8643 51.6849 67.4833 51.578C67.0195 51.448 66.897 52.3892 67.035 52.48ZM8.00594 52.2803C7.66962 52.4931 7.91658 53.2977 8.30411 53.1818C8.67958 52.9855 8.26395 52.2255 8.00594 52.2803ZM68.4029 52.2928C68.1037 52.3726 67.9014 53.1055 68.3 53.1768C68.6298 53.2355 68.9992 52.1342 68.4029 52.2928ZM66.7323 53.2832C66.1897 53.2059 65.9237 53.8032 66.2811 54.1827C66.6766 54.0065 66.776 53.6998 66.7323 53.2832ZM9.98972 54.1536C10.5093 54.6079 10.4616 53.3801 10.0123 53.3796C9.58714 53.4313 9.7809 53.9709 9.98972 54.1536ZM67.8236 53.9975C67.396 53.7259 67.1304 54.5672 67.2348 54.8875C67.7077 55.1078 68.0857 54.1636 67.8236 53.9975ZM8.80858 54.0853C8.4035 54.1968 8.95365 55.0416 9.20665 54.9874C9.56254 54.9111 9.23777 53.9674 8.80858 54.0853ZM10.9113 55.0105L10.6789 55.2534C10.7607 55.5676 10.8948 55.9893 11.3069 55.8849C11.6788 55.7755 11.1618 55.0059 10.9113 55.0105ZM65.1286 55.79C65.5221 55.9712 66.0492 55.2444 65.7349 55.0336C65.3027 54.7439 65.0618 55.4326 65.1286 55.79ZM66.6842 55.7127C66.2745 55.8362 66.0286 56.2604 66.385 56.5917C66.6626 56.675 66.9818 56.1976 66.9196 55.9617L66.6837 55.7122L66.6842 55.7127ZM9.82306 55.7971C9.36075 55.8789 9.71514 56.7819 10.0926 56.682C10.5976 56.55 10.0801 55.7519 9.82306 55.7971ZM11.9193 56.5937C11.5298 56.7086 11.9283 57.573 12.3153 57.4962C12.6748 57.4249 12.3425 56.4692 11.9193 56.5937ZM64.7265 56.5932C64.2647 56.3899 63.7346 57.2663 64.1783 57.3943C64.5262 57.4947 64.8424 56.8903 64.7265 56.5932ZM65.1366 58.1889C65.6396 58.5393 66.0863 57.5158 65.6767 57.3958C65.3399 57.2969 65 57.8938 65.1366 58.1889ZM11.4615 58.1925C11.582 58.0213 11.2497 57.3983 10.835 57.5098C10.1689 57.689 11.1583 58.6221 11.4615 58.1925ZM13.0181 58.0203C12.5257 58.066 12.9865 58.978 13.4187 58.8997C13.8258 58.6633 13.2535 57.9987 13.0181 58.0203ZM62.9299 58.7908C63.4329 59.1412 63.8797 58.1177 63.47 57.9977C63.1332 57.8988 62.7934 58.4956 62.9299 58.7908ZM64.6261 59.0001C64.2632 58.9253 63.832 59.2481 63.9389 59.6301C64.1231 60.2877 64.8484 59.5111 64.6261 59.0001ZM11.9745 59.108C11.6984 59.3068 12.1246 60.1612 12.5729 59.8575C12.9047 59.6321 12.2948 58.8776 11.9745 59.108ZM61.7207 60.2008C61.9456 60.5206 62.8235 59.8103 62.2678 59.4017C62.0711 59.3605 61.5631 59.977 61.7207 60.2008ZM14.6741 60.3037C14.7901 60.0061 14.4743 59.4017 14.1259 59.5026C13.6817 59.6311 14.2123 60.507 14.6741 60.3037ZM13.2405 60.5151C12.7249 60.6461 13.1406 61.4502 13.6094 61.2991C14.014 61.1686 13.6169 60.4197 13.2405 60.5151ZM62.7527 60.7354C62.181 61.4211 63.5564 61.5878 63.4284 60.759C63.3666 60.36 62.9339 60.5186 62.7527 60.7354ZM15.4301 60.8062C15.042 60.9181 15.4125 61.7514 15.9195 61.6023C16.3115 61.4111 15.7132 60.7244 15.4301 60.8062ZM61.2157 60.8062C60.9311 60.7329 60.3122 61.0095 60.4146 61.3549C60.8603 61.7534 61.3081 61.3323 61.2157 60.8062ZM14.3784 61.912C13.9839 62.1936 14.6866 63.0073 15.1324 62.6168C15.4416 62.1746 14.511 61.8177 14.3784 61.912ZM61.6891 62.028C61.2905 62.146 61.1399 62.7047 61.6685 62.7764L62.2237 62.2594C62.2267 61.9788 61.8858 61.9693 61.6891 62.0275V62.028ZM16.7432 62.1173C16.2337 62.282 16.9189 63.1323 17.2863 62.8673C17.6076 62.6354 17.1518 61.9858 16.7432 62.1173ZM59.9116 62.1098C59.5246 61.9663 58.8911 62.4311 59.1561 62.8151C59.4021 63.171 60.0687 62.4205 59.9116 62.1098ZM15.8442 63.2217C15.4627 63.3351 15.6063 63.9079 16.0515 63.9982C16.8536 64.1609 16.3457 63.0721 15.8442 63.2217ZM60.4858 63.2277C59.898 63.3186 59.7811 64.2136 60.519 63.9721C60.9722 63.8235 60.9301 63.1589 60.4858 63.2277ZM18.1583 63.3281C17.3953 63.5309 18.8043 64.6653 18.7973 63.7638C18.7948 63.433 18.4594 63.2478 18.1583 63.3281ZM58.0774 63.3301C57.967 63.3612 57.7526 63.5746 57.722 63.685C57.4951 64.5112 58.8138 63.9059 58.4634 63.4079C58.358 63.2854 58.221 63.2894 58.0774 63.3301ZM20.1646 64.5429C19.9879 64.3531 19.5919 64.2572 19.504 64.589C19.2907 65.3922 20.7826 65.207 20.1646 64.5429ZM17.2045 64.9981C17.2457 65.0704 17.6864 65.2757 17.8214 65.212C18.4971 64.4475 16.7061 64.1177 17.2045 64.9981ZM56.574 64.4309C56.331 64.4992 55.9626 64.9163 56.2452 65.1251C56.8847 65.598 57.4956 64.1724 56.574 64.4309ZM58.9814 64.4314C58.7028 64.4741 58.4192 64.8425 58.5543 65.1161L58.7731 65.3044C59.3328 65.3259 59.5692 64.3416 58.9814 64.4314ZM21.774 65.6407C21.6721 65.4605 20.8905 65.2361 20.889 65.6703C20.8915 65.8831 21.3488 66.226 21.5501 66.2235C21.8136 66.2335 21.8708 65.8113 21.774 65.6407ZM55.4988 65.5202C55.0816 65.458 54.6218 65.5639 54.5967 66.0678C55.0053 66.487 55.5881 66.0372 55.4988 65.5202ZM18.7516 65.6291C18.1834 65.8013 19.2355 66.8208 19.5457 66.2225C19.6953 65.9338 19.0196 65.5478 18.7516 65.6291ZM57.7973 65.6276C57.5252 65.5122 56.7959 65.9268 56.9469 66.2225C57.208 66.733 58.1662 66.1923 57.7973 65.6276ZM22.7598 66.3274C22.4737 66.4117 22.5078 67.0166 22.9732 67.1074C23.7929 67.2671 23.2894 66.1713 22.7598 66.3274ZM53.4653 66.4393C53.3232 66.4684 53.0376 66.6501 53.001 66.7922L53.2625 67.2113C53.8915 67.2911 54.2127 66.2857 53.4648 66.4393H53.4653ZM21.0943 67.4257C21.2469 66.8384 20.629 66.4885 20.1917 66.8775C20.2168 67.382 20.6766 67.4869 21.0943 67.4257ZM55.7723 66.74C55.557 66.7847 55.3301 67.011 55.2066 67.1892C55.7698 68.28 56.7693 66.5337 55.7723 66.74ZM24.9861 67.4437C24.8917 67.2746 24.0971 67.0372 24.0991 67.4764C24.1006 67.7946 24.8555 68.1425 24.9946 67.763C25.0127 67.6581 25.0423 67.5436 24.9866 67.4437H24.9861ZM51.4002 67.4387C51.1853 68.7192 52.7906 67.5532 52.1225 67.3398L51.4002 67.4387ZM22.0681 67.64C21.4567 67.7986 22.1208 68.7268 22.6549 68.3352C23.0369 68.0556 22.3347 67.5707 22.0681 67.64ZM54.1675 67.7434C53.8051 67.8177 53.4623 68.263 53.8588 68.52C54.3422 68.5335 54.7744 68.3769 54.5516 67.8207C54.4637 67.6927 54.3006 67.7158 54.1675 67.7429V67.7434ZM26.5843 68.1525C26.4935 68.0772 25.8525 67.9824 25.8088 68.0275C25.5959 69.1389 27.1772 68.643 26.5843 68.1525ZM50.0554 68.0476C49.6809 68.1264 49.5017 68.4873 49.8466 68.7208C50.6573 68.8678 50.9334 67.8629 50.0554 68.0476ZM24.2953 69.3241C24.6809 69.044 23.9635 68.2168 23.5022 68.783C23.3988 69.1269 24.1116 69.4576 24.2953 69.3241ZM27.6796 68.6409C27.2936 68.7669 27.5315 69.3387 28.0676 69.3387C28.7709 69.3387 28.3543 68.4206 27.6796 68.6409ZM48.5304 68.6751C48.422 68.6665 48.0772 68.7433 48.0194 68.8237C47.783 69.5676 48.415 69.5917 48.8321 69.1324C48.9772 68.8929 48.7709 68.6931 48.5304 68.6751ZM52.4624 68.646C52.3203 68.6751 52.0352 68.8568 51.9985 68.9988L52.2596 69.416L52.88 69.1675L52.8469 68.7233C52.759 68.5953 52.5959 68.6179 52.4624 68.6455V68.646ZM30.0956 69.3568C28.674 68.8036 29.1896 70.3446 30.2186 69.6755L30.0956 69.3568ZM46.1968 69.3568C46.1421 69.4095 46.0643 69.6007 46.0818 69.67C46.2495 70.0615 47.0777 69.8492 47.0777 69.4822C47.0777 69.1183 46.3755 69.1856 46.1963 69.3568H46.1968ZM25.3736 69.4466L25.2024 69.683C25.982 70.8968 26.9613 69.3512 25.3736 69.4466ZM51.0573 70.0073C51.5483 69.4973 50.471 69.1956 50.1925 69.8015L50.4545 70.2216C50.58 70.2518 50.9755 70.0926 51.0578 70.0078L51.0573 70.0073ZM31.9122 70.3205C32.3334 70.051 31.5051 69.3161 31.0343 69.7423C30.8099 70.2126 31.6427 70.4932 31.9122 70.3205ZM44.3877 69.7568C44.0002 70.5188 45.3294 70.5007 45.2747 69.8848C45.2621 69.5144 44.5704 69.5882 44.3877 69.7568ZM32.9568 70.0595C32.5121 70.4942 33.4608 70.8315 33.7901 70.5424C34.0767 70.0475 33.2404 69.7824 32.9568 70.0595ZM42.4692 70.5253C42.5961 70.7146 43.5745 70.6809 43.451 70.2016C43.3044 69.6323 42.1524 70.054 42.4692 70.5253ZM28.0054 70.7261C28.3563 70.2201 27.0768 69.8763 27.0336 70.3828C27.0025 70.7477 27.8528 70.946 28.0054 70.7261ZM49.3657 70.6227L49.3371 70.2277C48.0656 69.7819 47.9953 71.3772 49.3657 70.6227ZM35.7287 70.3436C34.3463 69.8176 34.4718 71.1854 35.6951 70.7427L35.7287 70.3436ZM40.8247 70.2553C40.0246 70.4962 41.1113 71.3099 41.543 70.5695C41.6459 70.1704 41.0842 70.177 40.8247 70.2553ZM37.7346 70.4445C37.4841 70.2653 36.6835 70.2869 36.7477 70.6739C36.8084 71.0414 37.9805 71.1377 37.7346 70.4445ZM38.7641 70.9219C39.1828 70.96 39.5853 71.0524 39.745 70.5841C39.4598 70.2528 38.9227 70.2332 38.6607 70.5981L38.7641 70.9219ZM29.1825 70.6438C28.4266 70.8863 29.8863 72.1256 29.8757 70.936C29.7246 70.7567 29.4174 70.568 29.1825 70.6438ZM46.9507 70.6533C46.2219 70.7412 46.2851 71.4956 47.1199 71.3355C47.655 71.2331 47.5641 70.5796 46.9507 70.6533ZM45.4599 71.1453C45.1552 70.9846 44.3822 71.197 44.6116 71.6382C44.8379 72.0739 45.7109 71.704 45.4599 71.1453ZM30.9896 71.1513L30.8169 71.3892L30.9223 71.6904C31.842 72.219 32.0904 70.9636 30.9896 71.1513ZM32.755 71.5639C32.1662 72.1337 33.8749 72.4956 33.6199 71.704C33.5321 71.4304 32.9629 71.3631 32.755 71.5639ZM43.5534 72.0307C43.8435 71.5975 42.9792 71.1824 42.6689 71.6994C42.4581 72.3154 43.4641 72.1638 43.5534 72.0307ZM34.8021 71.7552C34.3874 71.8852 34.794 72.5382 35.3823 72.4414C35.7036 72.3881 35.8713 72.0363 35.6434 71.7838L34.8021 71.7552ZM40.9251 71.7597C40.4698 71.8977 40.6134 72.4941 41.1946 72.4404C41.9135 72.3736 41.8201 71.4881 40.9251 71.7597ZM37.7311 71.9524C36.5083 71.4168 36.3185 72.7054 37.5805 72.5272C37.7968 72.4544 37.7702 72.1341 37.7311 71.9524ZM38.9187 71.8601C38.7747 71.9043 38.6597 72.0368 38.6446 72.1904C38.6446 72.618 39.5281 72.6843 39.7053 72.3415C39.9317 71.9027 39.2821 71.7491 38.9187 71.8601Z" fill="#3D007C"/>
<path d="M72.7238 61.7285C73.3749 61.5332 74.1941 61.8264 74.0069 62.6049L71.4001 65.5199C70.483 66.1574 69.6924 65.1956 70.2632 64.283C70.5026 63.9005 71.6381 62.6496 71.9975 62.3063C72.0898 62.2179 72.6646 61.7466 72.7238 61.729V61.7285Z" fill="#3D007C"/>
<path d="M65.5558 69.207C65.2054 68.8561 65.3821 68.3256 65.6331 67.9772C65.7922 67.7563 67.3413 66.1164 67.5009 66.0336C68.3985 65.5702 68.9787 66.3995 68.4411 67.1745C68.3131 67.3593 66.5984 69.1523 66.4724 69.2176C66.23 69.3435 65.7581 69.4098 65.5553 69.207H65.5558ZM66.3866 67.7267C66.1567 67.7774 66.2269 68.2277 66.3851 68.2257C66.5974 68.2232 66.748 67.6464 66.3866 67.7267Z" fill="#3D007C"/>
<path d="M68.405 70.5998C67.6249 71.2649 66.9894 70.3377 67.3127 69.5567C67.385 69.3815 68.653 67.9494 68.8492 67.7837C69.5294 67.2095 70.4831 67.6633 70.201 68.5342L68.4055 70.5998H68.405Z" fill="#3D007C"/>
<path d="M88.8018 25.6977L88.5011 25.4984L88.6672 25.1094C89.5874 24.9994 90.0948 25.9426 89.6832 26.7312C89.3735 27.3246 88.1301 27.4179 87.7567 26.795C87.2075 25.8784 88.1713 25.9376 88.8013 25.6982L88.8018 25.6977Z" fill="#3D007C"/>
<path d="M10.1604 76.8546L9.60919 76.3556L9.25882 76.8546L9.25781 75.6509L10.1182 75.7443C10.3099 76.0083 9.95555 76.2407 9.97764 76.3838C9.99521 76.4972 10.2377 76.6483 10.1604 76.8546ZM9.4591 76.1524C9.66842 76.1649 9.83508 76.1905 9.95806 76.0023C9.83458 75.814 9.66842 75.8401 9.4591 75.8522V76.1518V76.1524Z" fill="#3D007C"/>
<path d="M6.94691 75.9511L6.34605 75.8517C6.29736 76.2201 6.83095 75.9727 7.00112 76.2503C7.10352 76.4174 7.05935 76.6433 6.90625 76.7628C6.60256 76.9485 6.24917 76.8963 6.04688 76.6037L6.74662 76.6533C6.79431 76.298 6.23612 76.3286 6.15681 76.0881C5.91636 75.3568 7.23755 75.6815 6.94691 75.9516V75.9511Z" fill="#3D007C"/>
<path d="M9.06443 76.8534L8.40886 76.6416L8.0625 76.8534L8.36418 75.6507C8.74819 75.3917 9.06293 76.5894 9.06443 76.8534ZM8.66336 76.352L8.56246 75.9519H8.46458L8.36318 76.3514H8.66336V76.352Z" fill="#3D007C"/>
<path d="M11.2602 75.6519C11.3581 76.0088 10.9239 75.7869 10.8587 75.8512V76.8551H10.559L10.565 75.9059L10.2578 75.6514H11.2597L11.2602 75.6519Z" fill="#3D007C"/>
<path d="M8.04931 75.6519L7.7421 75.9064L7.74813 76.8556H7.44845L7.45447 75.9134L7.04688 75.6524L8.04931 75.6519Z" fill="#3D007C"/>
<path d="M6.6121 66.6939C7.97275 66.6939 9.07577 65.5909 9.07577 64.2303C9.07577 62.8696 7.97275 61.7666 6.6121 61.7666C5.25146 61.7666 4.14844 62.8696 4.14844 64.2303C4.14844 65.5909 5.25146 66.6939 6.6121 66.6939Z" fill="#3D007C"/>
<path d="M23.2902 78.7507L22.8128 78.5961C22.611 77.4114 23.7746 77.6991 23.2902 78.7507Z" fill="#3D007C"/>
<path d="M24.2109 78.158V77.8583C24.4203 77.8458 24.5869 77.8202 24.7099 78.0084C24.5864 78.1966 24.4203 78.1705 24.2109 78.1585V78.158Z" fill="#3D007C"/>
<path d="M8.40785 9.43436C9.0732 9.43436 9.61258 8.89498 9.61258 8.22963C9.61258 7.56428 9.0732 7.0249 8.40785 7.0249C7.7425 7.0249 7.20312 7.56428 7.20312 8.22963C7.20312 8.89498 7.7425 9.43436 8.40785 9.43436Z" fill="#3D007C"/>
<path d="M68.0424 38.4768C68.0424 54.9469 54.6906 68.2988 38.2204 68.2988C21.7503 68.2988 8.39844 54.9469 8.39844 38.4768C8.39844 22.0067 21.7503 8.65479 38.2204 8.65479C54.6906 8.65479 68.0424 22.0067 68.0424 38.4768ZM48.5931 38.5782C48.5931 32.8055 43.9133 28.1257 38.1406 28.1257C32.368 28.1257 27.6881 32.8055 27.6881 38.5782C27.6881 44.3508 32.368 49.0307 38.1406 49.0307C43.9133 49.0307 48.5931 44.3508 48.5931 38.5782Z" fill="#3D007C"/>
<path d="M47.2159 38.5767C47.2159 43.5919 43.1505 47.6573 38.1353 47.6573C33.1201 47.6573 29.0547 43.5919 29.0547 38.5767C29.0547 33.5615 33.1201 29.4961 38.1353 29.4961C43.1505 29.4961 47.2159 33.5615 47.2159 38.5767ZM46.3782 38.5822C46.3782 34.0289 42.6867 30.3374 38.1333 30.3374C33.5799 30.3374 29.8885 34.0289 29.8885 38.5822C29.8885 43.1356 33.5799 46.8271 38.1333 46.8271C42.6867 46.8271 46.3782 43.1356 46.3782 38.5822Z" fill="#3D007C"/>
<path d="M36.9724 37.0688C38.8187 35.3641 41.1945 38.7268 39.2378 40.0866C37.2284 41.4826 35.4274 38.4959 36.9724 37.0688ZM38.6942 38.137C38.6942 37.7469 38.3779 37.4307 37.9879 37.4307C37.5979 37.4307 37.2816 37.7469 37.2816 38.137C37.2816 38.527 37.5979 38.8432 37.9879 38.8432C38.3779 38.8432 38.6942 38.527 38.6942 38.137Z" fill="#3D007C"/>
</svg>
