<svg width="87" height="68" viewBox="0 0 87 68" fill="none" xmlns="http://www.w3.org/2000/svg">
<path fill-rule="evenodd" clip-rule="evenodd" d="M29.5 22.7615C29.8571 22.8044 30.186 22.868 30.5202 23.0033C30.9709 23.1808 31.4299 23.3283 31.8911 23.4759C32.3974 23.6409 32.7904 23.789 33.1714 24.1687C33.2975 24.2415 33.4252 24.3075 33.5564 24.3709C33.7159 24.4733 33.8001 24.5738 33.9057 24.7315C33.9358 24.9147 33.9358 24.9147 33.9377 25.1251C33.9381 25.1637 33.9386 25.2023 33.939 25.2421C33.9399 25.3698 33.9389 25.4974 33.9374 25.6251C33.9373 25.6694 33.9371 25.7137 33.9369 25.7594C33.9307 26.7947 33.7939 27.8081 33.6415 28.8305C33.0543 32.7801 33.0393 36.7369 33.0439 40.72C33.0443 41.1338 33.0442 41.5476 33.0437 41.9614C33.032 45.5585 33.032 45.5586 33.1643 49.1526C33.1711 49.268 33.1774 49.3835 33.1836 49.499C33.2021 49.8425 33.2223 50.1858 33.2461 50.5289C33.2566 50.6802 33.2664 50.8315 33.2762 50.9828C33.311 51.5092 33.3564 52.0333 33.4144 52.5577C33.456 52.9387 33.4811 53.3198 33.5032 53.7025C33.5824 54.9324 33.7186 56.1659 33.9924 57.3691C34.0117 57.4591 34.0287 57.5497 34.0444 57.6405L34.0711 57.7926C34.0825 57.8615 34.0825 57.8615 34.0941 57.9317C34.1586 58.1423 34.2904 58.216 34.4705 58.3357C34.6025 58.9343 34.253 59.531 33.9622 60.0243H33.4538V59.9118H33.3408V59.6866L33.1442 59.6945C31.9901 59.7275 31.0099 59.2917 30.1213 58.5608C29.85 58.2983 29.6426 57.9944 29.4287 57.6853C29.1595 57.3079 28.8606 57.025 28.4855 56.7517C28.3587 56.6365 28.3475 56.5833 28.3138 56.4219L28.1585 56.3515C27.9376 56.233 27.8768 56.1176 27.7644 55.9008C27.6991 55.7921 27.6991 55.7921 27.5711 55.7609L27.4666 55.7464V55.6339L27.3183 55.5916C26.9861 55.469 26.735 55.256 26.471 55.0252C25.7385 54.3981 24.9546 53.8368 24.1428 53.3165C23.8716 53.1411 23.6287 52.9545 23.3887 52.7387C23.2532 52.6215 23.1099 52.5293 22.955 52.4395L22.7965 52.3454C22.5532 52.2301 22.3034 52.1587 22.0442 52.0877C21.0629 54.5619 20.2779 57.1531 19.6719 59.7429C19.6528 59.8236 19.6337 59.9043 19.6147 59.9849C19.3649 61.0421 19.1254 62.1016 18.8917 63.1624C18.8814 63.2093 18.8711 63.2562 18.8604 63.3045C18.8012 63.5737 18.7425 63.843 18.6843 64.1123C18.6545 64.249 18.624 64.3856 18.5936 64.5221C18.4741 65.0629 18.3841 65.5936 18.3339 66.1457C18.3271 66.2154 18.3203 66.2851 18.3133 66.3568C18.2676 66.8347 18.2274 67.3127 18.2033 67.7921C18.1264 67.8334 18.0485 67.8729 17.9703 67.9118L17.8392 67.979C17.6434 68.031 17.5425 67.9789 17.356 67.9047C16.9566 67.783 16.5586 67.6755 16.1487 67.5951C15.6204 67.4841 15.1896 67.2917 14.8708 66.8352C14.7668 66.5164 14.7377 66.2226 14.7402 65.8889C14.7406 65.8188 14.7406 65.8188 14.741 65.7473C14.7494 65.2919 14.8176 64.8553 14.8987 64.408C14.9434 64.1546 14.9828 63.9004 15.023 63.6464C15.3724 61.4455 15.7301 59.2265 16.3022 57.0712C16.3622 56.8405 16.4158 56.6083 16.47 56.3762C16.7837 55.0493 17.13 53.7304 17.5255 52.4254C17.5816 52.2396 17.6377 52.0538 17.6937 51.868C17.7501 51.6812 17.8065 51.4945 17.8633 51.308C18.0731 50.6389 18.0731 50.6389 18.1821 49.9487L18.2033 49.6673C18.1464 49.6525 18.1464 49.6525 18.0883 49.6374C17.7669 49.5522 17.452 49.4568 17.1375 49.3492C16.0551 48.9844 14.9971 48.9751 13.8653 48.9479C13.3526 48.9354 12.8409 48.9109 12.329 48.8793C12.3229 48.717 12.3229 48.717 12.329 48.5415C12.4017 48.4639 12.4775 48.3892 12.555 48.3164C12.5859 48.2466 12.6151 48.1762 12.6432 48.1053C12.9344 47.5049 13.8278 47.1339 14.4367 46.9194C15.2387 46.6622 16.0062 46.6148 16.8442 46.6136C16.8884 46.6135 16.9327 46.6134 16.9783 46.6133C17.8106 46.6123 18.6216 46.678 19.4459 46.7966L19.4402 46.6143C19.4454 46.4239 19.4583 46.3331 19.5377 46.1669C19.6561 45.8972 19.7381 45.6236 19.8195 45.3414C20.0181 44.6689 20.2544 44.0112 20.4944 43.3524C20.5166 43.2912 20.5388 43.2299 20.5617 43.1668C20.9188 42.182 21.2946 41.2062 21.685 40.2343C21.947 39.578 22.1957 38.9172 22.4201 38.2471C22.8443 36.9827 23.3302 35.7533 23.8516 34.5257C23.8717 34.4783 23.8919 34.4309 23.9126 34.3821C24.1353 33.857 24.3591 33.3324 24.5837 32.808C24.7748 32.3619 24.9637 31.9148 25.1515 31.4672C25.401 30.8722 25.6521 30.278 25.9062 29.6849C25.9324 29.6235 25.9586 29.5621 25.9856 29.4989C26.1709 29.0675 26.3675 28.6419 26.5681 28.2175C26.6536 28.0362 26.7382 27.8545 26.823 27.6728C26.8567 27.6007 26.8904 27.5285 26.9241 27.4564C26.9751 27.3473 27.026 27.2383 27.0769 27.1292C27.2584 26.7403 27.4406 26.3521 27.636 25.9699H27.749L27.7849 25.8395C27.8926 25.5496 28.041 25.287 28.1903 25.0165C28.2225 24.9578 28.2547 24.899 28.2879 24.8385C28.5223 24.4121 28.7596 23.9873 28.9987 23.5636C29.0294 23.509 29.0601 23.4544 29.0917 23.3982C29.1206 23.3474 29.1494 23.2966 29.1792 23.2443C29.217 23.1776 29.217 23.1776 29.2556 23.1096C29.3302 22.9872 29.4118 22.8745 29.5 22.7615ZM28.0612 36.0339L27.9714 36.1686C27.8801 36.3027 27.8125 36.4086 27.7766 36.5671C27.7452 36.7418 27.6935 36.9032 27.6379 37.0716C27.6229 37.1162 27.6083 37.1596 27.5937 37.2029C27.4761 37.552 27.3521 37.8958 27.2058 38.2342L27.1277 38.4096C27.0799 38.5169 27.0321 38.6241 26.9843 38.7314C26.9271 38.8593 26.8701 38.9872 26.813 39.1152C26.7674 39.2178 26.7216 39.3203 26.6758 39.4228C26.2632 40.3384 25.8759 41.251 25.5601 42.2046C25.4451 42.552 25.3482 42.9387 25.1507 43.2504L24.9813 43.3067C24.9139 43.4281 24.9139 43.4281 24.7772 43.7742L24.6989 43.9822C24.4772 44.5683 24.2904 45.1593 24.1274 45.7643L24.0776 45.9523H23.9646C23.8253 46.258 23.7133 46.5703 23.6051 46.8882L23.5374 47.0886C23.3705 47.5704 23.2407 48.0354 23.1738 48.5415L23.9646 48.9355V49.0481C24.0466 49.1056 24.1291 49.1624 24.2141 49.2152C24.4533 49.3606 24.6904 49.5072 24.9164 49.6723C25.2068 49.8931 25.4962 50.0738 25.8215 50.2372C26.0419 50.3418 26.2083 50.4376 26.3724 50.6242C26.5387 50.8339 26.5387 50.8339 26.9565 51.1259L27.1277 51.2434L27.2989 51.3643L27.4701 51.4826C27.7532 51.6785 28.0495 51.7988 28.3703 51.9188C28.38 51.0968 28.4118 50.2672 28.3173 49.4492C28.2807 49.1566 28.2494 48.8651 28.2329 48.5707C28.2297 48.5062 28.2296 48.5061 28.2264 48.443C28.199 47.9073 28.1894 47.3719 28.1844 46.8357C28.1834 46.7289 28.1824 46.6221 28.1813 46.5154C28.1782 46.2333 28.1752 45.9512 28.1724 45.6691C28.1696 45.3776 28.1666 45.0862 28.1635 44.7948C28.1575 44.2277 28.1517 43.6606 28.1461 43.0935C28.1452 43.0022 28.1452 43.0022 28.1444 42.9127H28.0879L28.0314 39.4228H28.1444C28.1973 39.2647 28.215 39.1275 28.2257 38.9621C28.228 38.9214 28.2302 38.882 28.2324 38.8426C28.2634 38.3 28.264 37.758 28.2616 37.2148C28.2611 37.1067 28.2607 36.9986 28.2604 36.8904C28.2598 36.5713 28.2588 36.2521 28.2573 35.9329H28.1444L28.0612 36.0339Z" fill="#3D007C"/>
<path fill-rule="evenodd" clip-rule="evenodd" d="M50.001 6.57569C50.9695 6.36347 52.1229 6.85853 52.9527 7.32877C53.37 7.60641 53.6891 7.95351 53.9008 8.40792C53.9149 8.62955 53.9149 8.62958 53.9008 8.80194L54.4656 8.91452L54.5221 9.13967L54.9175 9.25225C54.934 9.94074 54.8911 10.5978 54.7904 11.2786C54.7774 11.37 54.7646 11.4614 54.7517 11.5528C54.6858 12.0182 54.6147 12.4827 54.5401 12.9469C54.3882 13.8968 54.2988 14.833 54.2849 15.7947C54.284 15.8511 54.2831 15.9075 54.2822 15.9656C54.2778 16.2517 54.2748 16.5377 54.2739 16.8239C54.2727 16.9309 54.2714 17.0379 54.2701 17.1449C54.2706 17.2181 54.2706 17.2181 54.271 17.2928C54.2655 17.6336 54.1856 17.8507 54.0137 18.1458C53.3061 18.1071 52.5323 17.9011 52.0368 17.3613C51.787 16.98 51.7821 16.5621 51.7544 16.1194C51.5134 16.3193 51.4211 16.5579 51.299 16.8371C51.0543 17.374 50.7511 17.8426 50.3988 18.3147L50.2755 18.4831C50.0868 18.7341 50.0868 18.7341 50.0034 18.8213H49.8905L49.8516 18.9127C49.754 19.0888 49.6245 19.23 49.4951 19.3842L49.4218 19.5128C49.2999 19.7065 49.1537 19.865 48.9973 20.0315L48.9103 20.1262C48.7674 20.2796 48.6229 20.4217 48.4601 20.5539C48.3074 20.663 48.3073 20.663 48.2524 20.7914L48.3729 20.8285C48.574 20.9222 48.7133 21.0541 48.8667 21.21C48.9113 21.2552 48.9114 21.2552 48.9569 21.3013C49.2202 21.575 49.4294 21.8628 49.608 22.1986L49.6965 22.3637C49.9354 22.8626 49.9383 23.2394 49.7629 23.7606C49.4813 24.4836 48.9646 25.4989 48.2277 25.8327C47.9402 25.7874 47.8508 25.646 47.6836 25.4171C47.3667 24.8968 47.1201 24.3353 47.1793 23.7184C47.264 23.5425 47.264 23.5424 47.3487 23.4369C46.9639 23.6178 46.6102 23.8207 46.2614 24.0631L46.1207 24.1602C45.0893 24.878 44.1151 25.7025 43.2254 26.5891C43.1637 26.6047 43.1019 26.6203 43.0383 26.6364C42.8075 26.7087 42.7137 26.7853 42.5478 26.9574L42.3957 27.1125L42.2405 27.2751C42.1383 27.3804 42.036 27.4856 41.9336 27.5906C41.8603 27.666 41.8604 27.6661 41.7856 27.743C41.6246 27.9029 41.4562 28.0496 41.2799 28.1923C41.1367 28.3315 41.0906 28.4861 41.0226 28.6717C40.9449 28.7773 40.9449 28.7773 40.8531 28.8406L40.7179 28.8549C40.5602 28.8844 40.5602 28.8844 40.469 29.0255L40.3836 29.1818L40.296 29.3386L40.2318 29.4598C40.2669 29.4499 40.302 29.44 40.3381 29.4299C40.5074 29.3823 40.6767 29.3348 40.8461 29.2874C40.9096 29.2696 40.9732 29.2518 41.0387 29.2334C41.424 29.1258 41.81 29.0215 42.1969 28.92C43.0428 28.6974 43.8757 28.4408 44.7042 28.1607L44.8833 28.1003C44.9363 28.0822 44.9894 28.0641 45.0441 28.0455C45.2086 27.9943 45.3729 27.9552 45.5412 27.9189C45.8363 27.8541 46.1216 27.7727 46.4097 27.6832C50.8074 26.3347 50.8074 26.3347 52.8841 26.3639C52.8852 26.3305 52.8863 26.2971 52.8875 26.2628C52.9668 24.0067 52.9668 24.0066 53.5054 23.4932C53.9659 23.0961 54.5493 23.1806 55.1187 23.1942L56.1601 23.2118V25.5759L56.2731 25.5196C56.4069 25.4987 56.5411 25.4803 56.6755 25.4633L56.8948 25.4352C56.9508 25.4283 56.9508 25.4283 57.0078 25.4213C57.1171 25.4074 57.2262 25.3915 57.3352 25.3756C57.6209 25.34 57.9061 25.3446 58.1935 25.3472L58.3588 25.348C58.4919 25.3486 58.6251 25.3495 58.7583 25.3507L58.7524 25.1735C58.7382 24.5721 58.7557 24.0394 59.1537 23.5495C59.6571 23.0874 60.173 23.0887 60.8207 23.0887C60.9438 23.0886 61.0668 23.0876 61.1899 23.0865C61.268 23.0864 61.3462 23.0863 61.4243 23.0862C61.4953 23.086 61.5663 23.0857 61.6394 23.0855C61.8084 23.0992 61.8085 23.0992 61.9214 23.2118C61.9649 23.6168 61.9166 24.04 61.8967 24.4466C61.8934 24.5155 61.8934 24.5156 61.89 24.5859C61.878 24.8083 61.8609 25.0207 61.8084 25.2381C61.8604 25.2294 61.9123 25.2207 61.9659 25.2116C62.2588 25.1702 62.5527 25.1648 62.8481 25.1557C62.9768 25.1513 63.1057 25.147 63.2344 25.1426C63.3014 25.1404 63.3684 25.1382 63.4374 25.136C64.3799 25.1047 65.3224 25.0734 66.2636 25.013C66.3276 25.009 66.3916 25.005 66.4576 25.0009C66.7017 24.9842 66.9437 24.9659 67.1858 24.9296C67.9216 24.8193 68.6557 24.8267 69.3984 24.8272C69.5418 24.827 69.6853 24.8267 69.8287 24.8265C70.128 24.8261 70.4273 24.8261 70.7265 24.8264C71.07 24.8267 71.4134 24.826 71.7568 24.8248C72.0905 24.8237 72.4242 24.8235 72.7579 24.8237C72.8984 24.8237 73.0389 24.8234 73.1793 24.8228C74.4469 24.8183 75.7642 24.8751 76.7948 25.7076C77.0749 25.985 77.2672 26.3023 77.4543 26.6454C77.475 26.6831 77.4957 26.7209 77.517 26.7598C77.8466 27.3696 78.0849 27.9078 78.1039 28.6084C78.1056 28.65 78.1074 28.6916 78.1092 28.7344C78.1092 28.9476 78.0962 29.0441 77.9468 29.201C77.82 29.2752 77.7056 29.3378 77.5673 29.3859L77.4578 29.4252C77.1667 29.5115 76.8919 29.5231 76.5894 29.5196L76.4627 29.5188C76.3602 29.5181 76.2577 29.5171 76.1552 29.5161C75.9131 29.1316 75.9131 29.1316 75.9293 28.8406C75.7458 28.8133 75.5622 28.7864 75.3786 28.7597L75.2243 28.7367C74.6091 28.6476 73.9992 28.6072 73.3776 28.6048C73.3122 28.6043 73.2467 28.6038 73.1792 28.6033C72.963 28.6019 72.7468 28.6007 72.5306 28.5996C72.3765 28.5986 72.2224 28.5976 72.0684 28.5965C71.7411 28.5943 71.4138 28.5923 71.0865 28.5904C70.3203 28.5859 69.5541 28.5805 68.7879 28.5752C68.6171 28.574 68.4462 28.5728 68.2753 28.5717C66.7162 28.5611 65.1572 28.5461 63.5983 28.5275L63.2782 28.5237C62.7129 28.517 62.1477 28.5101 61.5825 28.5029C61.5831 28.5527 61.5836 28.6026 61.5842 28.654C61.5932 29.5877 61.5952 30.5119 61.4924 31.4413C61.4699 31.6453 61.4498 31.8495 61.4294 32.0536C61.4192 32.1559 61.409 32.2582 61.3985 32.3605C61.1465 34.8406 61.1121 37.3377 61.1196 39.8283C61.1202 40.0883 61.1202 40.3483 61.1202 40.6083C61.1202 40.8636 61.1205 41.1189 61.1209 41.3742C61.121 41.4936 61.1212 41.613 61.1212 41.7324C61.1227 43.7572 61.2447 45.8233 61.7619 47.7909C61.8177 48.016 61.8167 48.1988 61.8084 48.4289L62.0909 48.4852C62.2843 48.931 62.2464 49.4127 62.0937 49.865C61.9454 50.2151 61.7564 50.5391 61.4695 50.7931C60.6855 51.0535 59.5779 50.8111 58.8521 50.4879C58.0354 50.005 57.5123 48.6354 57.2745 47.7643C56.7835 45.6265 56.8807 43.3659 56.8803 41.1853C56.8802 41.1015 56.8802 41.1015 56.8802 41.016C56.8798 39.2597 56.9043 37.5143 57.0638 35.7641C57.0739 35.6499 57.084 35.5356 57.0941 35.4214C57.2598 33.5746 57.5135 31.7527 57.897 29.9382C57.9054 29.8984 57.9138 29.8587 57.9224 29.8177C58.0694 29.1274 58.0694 29.1274 58.1935 28.8406L57.7558 28.9497C57.6366 28.9793 57.5175 29.009 57.3984 29.0387C57.3253 29.0569 57.2525 29.0761 57.1799 29.0962C57.0501 29.1251 56.9275 29.1339 56.7947 29.1398L56.6424 29.147L56.4849 29.1537L56.3247 29.1611C56.1945 29.167 56.0643 29.1727 55.9342 29.1783C55.9346 29.2122 55.9349 29.2461 55.9353 29.281C55.9375 29.6302 55.9241 29.9759 55.9011 30.3243C55.8976 30.3789 55.8942 30.4336 55.8906 30.4898C55.8833 30.6066 55.8758 30.7234 55.8683 30.8401C55.8482 31.1503 55.8287 31.4606 55.8093 31.7709C55.8054 31.8331 55.8015 31.8954 55.7975 31.9595C55.766 32.4679 55.7395 32.9764 55.7146 33.4852C55.6741 34.3099 55.6167 35.1318 55.5418 35.9542C55.4239 37.2548 55.4173 38.5502 55.4183 39.855C55.4184 40.1249 55.4182 40.3948 55.4182 40.6647C55.418 41.1179 55.4182 41.5712 55.4185 42.0245C55.4188 42.5443 55.4187 43.0642 55.4184 43.584C55.4181 44.0342 55.4181 44.4845 55.4182 44.9348C55.4183 45.2019 55.4183 45.4691 55.4182 45.7362C55.4128 47.9121 55.4128 47.9121 55.5529 50.0824C55.56 50.1551 55.567 50.2279 55.5743 50.3028C55.6355 50.9169 55.7141 51.5289 55.7965 52.1405C55.8025 52.185 55.8085 52.2297 55.8146 52.2756C55.8893 52.8409 55.8893 52.8409 55.9993 53.4001C56.0471 53.6075 56.0471 53.6075 56.0471 53.8326L56.3296 53.8889C56.5726 54.6495 56.4612 55.4633 56.1466 56.1893C56.0815 56.3118 56.0175 56.4235 55.9342 56.5345L55.8437 56.6589C55.6395 56.8107 55.4549 56.7886 55.2069 56.7807C55.1591 56.7798 55.1113 56.7789 55.062 56.7779C54.2164 56.7548 53.4046 56.6541 52.7722 56.0433C52.0355 55.2167 51.6709 54.0167 51.4932 52.9496L51.4568 52.7334C51.3463 52.0505 51.2805 51.371 51.2461 50.6805L51.2364 50.494C51.1821 49.3679 51.1838 48.2404 51.1825 47.1132C51.1824 47.0427 51.1822 46.9721 51.1821 46.8994C51.1787 44.8401 51.2777 42.8005 51.4266 40.747C51.4493 40.4338 51.4715 40.1205 51.4937 39.8073C51.5195 39.4439 51.5454 39.0804 51.5715 38.7171C51.6078 38.2119 51.6438 37.7067 51.6771 37.2013C51.6797 37.1615 51.6824 37.1218 51.6851 37.0808C51.6967 36.9042 51.708 36.7275 51.7192 36.5509C51.7466 36.1262 51.7867 35.7047 51.8411 35.2825C51.8676 35.0591 51.8797 34.8351 51.8925 34.6106C51.9198 34.1438 51.9705 33.6812 52.0262 33.217C52.0413 33.0894 52.0563 32.9617 52.0712 32.834C52.0816 32.7458 52.092 32.6576 52.1023 32.5694C52.1406 32.2441 52.1771 31.9186 52.2129 31.593C52.2205 31.5236 52.2206 31.5235 52.2284 31.4527C52.2483 31.2718 52.2681 31.0909 52.2878 30.91C52.3013 30.7856 52.315 30.6611 52.3287 30.5367C52.3365 30.4659 52.3442 30.395 52.3522 30.322C52.3722 30.1635 52.3981 30.0097 52.4322 29.8538L52.2319 29.9015C51.5903 30.0516 50.9466 30.184 50.2994 30.3069C49.6279 30.4344 48.9616 30.5669 48.3003 30.7405C47.9628 30.8289 47.622 30.9031 47.2816 30.9796C46.8403 31.0796 46.4044 31.1863 45.9719 31.3193C45.5939 31.4344 45.2112 31.5299 44.8281 31.6269C44.3514 31.7481 43.8841 31.8773 43.4196 32.0394C43.2036 32.1127 42.9858 32.1764 42.7665 32.239C42.4055 32.3426 42.0491 32.4568 41.6933 32.5767C41.0596 32.7898 40.4213 32.986 39.7799 33.1748L39.6384 33.2166C38.8853 33.4376 38.1363 33.6323 37.3476 33.6568C37.3086 33.659 37.2696 33.6612 37.2295 33.6634C36.947 33.6649 36.7958 33.5839 36.5997 33.3964C36.4172 33.1885 36.2727 32.9605 36.1297 32.7245C36.0977 32.6724 36.0657 32.6203 36.0327 32.5667C35.791 32.1636 35.6148 31.7706 35.4872 31.3173L35.4307 31.1484C35.3619 30.2464 35.8217 29.7083 36.3647 29.0431C36.5295 28.8404 36.6837 28.6359 36.8287 28.4184C36.9782 28.1992 37.1424 28.0389 37.348 27.8719C37.4542 27.7798 37.5405 27.6877 37.6303 27.58C37.9019 27.2659 38.1973 26.9757 38.492 26.6832C38.5901 26.5858 38.6879 26.488 38.7856 26.3902C39.077 26.0997 39.3686 25.8132 39.6824 25.5465C39.8415 25.4108 39.9939 25.2679 40.1471 25.1256C40.3778 24.9122 40.6104 24.702 40.8487 24.4969C40.9699 24.3904 41.0886 24.2814 41.2071 24.1719C41.4951 23.906 41.7882 23.6503 42.0944 23.405C42.221 23.3035 42.3464 23.2011 42.4713 23.0976C43.6547 22.1204 44.9289 21.2576 46.3708 20.7069C46.4081 20.6925 46.4453 20.6782 46.4837 20.6633C46.6844 20.5898 46.8523 20.5499 47.0663 20.5662V20.4536L46.858 20.4009C46.1491 20.1635 45.5534 19.618 45.1917 18.9756C44.98 18.5424 44.9878 18.1327 45.0011 17.6638C45.0025 17.576 45.004 17.4881 45.0053 17.4003C45.0597 14.6479 45.7599 11.9051 47.0663 9.4774L47.1709 9.28105C47.734 8.26142 48.4558 7.03052 49.6327 6.67002C49.7184 6.64781 49.8043 6.6266 49.8905 6.6067L50.001 6.57569ZM51.6778 8.37406C51.472 8.35164 51.472 8.35164 51.3317 8.4154L51.2037 8.52754C50.871 8.81826 50.5771 9.1463 50.2858 9.4774C50.3613 9.64034 50.3614 9.64038 50.2883 9.76951C50.2595 9.81776 50.2315 9.8646 50.2035 9.91144L50.1119 10.0675C50.047 10.1754 49.9824 10.2834 49.9181 10.3916L49.8258 10.5482C49.7391 10.6929 49.6634 10.831 49.598 10.9866C49.5822 11.0285 49.5669 11.0691 49.5516 11.1098L49.3256 11.0535C49.078 11.5206 48.8594 11.988 48.6816 12.4864C48.6516 12.5717 48.6215 12.6569 48.5913 12.7421C48.2955 13.5409 48.0747 14.3273 47.9281 15.1652C47.9213 15.2046 47.9146 15.2429 47.908 15.2812C47.8887 15.3908 47.8887 15.3908 47.8698 15.4983C47.8413 15.6856 47.8413 15.6856 47.8006 15.838L47.6876 15.8943C47.6547 16.0019 47.623 16.1101 47.5973 16.2196C47.5823 16.2898 47.5823 16.2899 47.5676 16.3587C47.4391 16.9557 47.4398 17.5381 47.4617 18.1458H47.6876L47.8006 18.0332L47.7441 17.8644C47.8339 17.7271 47.834 17.7271 47.9112 17.6353C48.4465 16.998 48.8488 16.2931 49.2303 15.5565C49.3583 15.3056 49.4799 15.051 49.6304 14.8125C49.7474 14.6351 49.8313 14.496 49.8924 14.2903C49.9477 14.0902 50.0233 13.9397 50.1261 13.7613C50.3421 13.3927 50.5467 13.019 50.7392 12.6378C50.7651 12.586 50.7902 12.5356 50.8154 12.4853C50.9537 12.2086 51.0903 11.931 51.2238 11.6519L51.3171 11.4558C51.3782 11.3276 51.4393 11.1994 51.5002 11.0711C51.5296 11.0083 51.5581 10.9475 51.5866 10.8866C51.6143 10.8283 51.6411 10.7717 51.6679 10.7151C51.7355 10.5711 51.7877 10.4575 51.9004 10.3449C51.9275 10.3179 51.9539 10.2916 51.9803 10.2654C52.1714 9.69415 52.0971 9.20517 51.9554 8.6278C51.8674 8.46425 51.8674 8.4642 51.6778 8.37406Z" fill="#3D007C"/>
<path d="M46.219 40.3235C46.9761 40.0475 47.9466 40.053 48.7043 40.3235L48.8318 40.367C49.2363 40.534 49.4609 40.8777 49.6539 41.2558C49.7995 41.6757 49.8505 42.0345 49.847 42.4763C49.847 42.5308 49.847 42.5854 49.8469 42.6416C49.8468 42.7568 49.8463 42.872 49.8456 42.9872C49.8446 43.1602 49.8444 43.3333 49.8444 43.5063C49.8442 43.6191 49.8438 43.732 49.8435 43.8448C49.8434 43.8951 49.8434 43.9454 49.8433 43.9972C49.8414 44.2678 49.8318 44.5366 49.8138 44.8066C49.7699 45.466 49.7661 46.1246 49.764 46.7852C49.7638 46.8473 49.7636 46.9094 49.7634 46.9734C49.7622 47.3008 49.7614 47.6281 49.7608 47.9554C49.7602 48.2929 49.7583 48.6303 49.756 48.9678C49.7546 49.2285 49.7541 49.4891 49.7539 49.7498C49.7536 49.8743 49.7529 49.9988 49.7519 50.1233C49.7505 50.2967 49.7506 50.47 49.751 50.6433C49.7502 50.6945 49.7495 50.7457 49.7487 50.7984C49.7507 51.0324 49.7579 51.1555 49.8838 51.3586C50.0168 51.4808 50.0949 51.5139 50.2717 51.5424L50.4085 51.5664L50.5118 51.5811C50.5701 52.2875 50.5701 52.2875 50.3564 52.5732C50.2018 52.7514 50.0483 52.9137 49.8098 52.957C49.3313 52.9588 48.9058 52.8586 48.4496 52.728C48.3264 52.6928 48.2029 52.659 48.0793 52.6253C46.9875 52.3237 46.4239 51.9387 45.8508 50.9505C45.6713 50.6126 45.6369 50.3592 45.6372 49.9811C45.6369 49.929 45.6366 49.8768 45.6363 49.8231C45.6356 49.6527 45.6359 49.4824 45.6365 49.312C45.6367 49.2534 45.6368 49.1948 45.637 49.1345C45.643 47.5235 45.8353 45.9638 46.0821 44.374C46.0906 44.3188 46.0992 44.2635 46.108 44.2066C46.1241 44.1033 46.1403 44 46.1567 43.8967C46.232 43.4144 46.2845 42.9371 46.283 42.4486C46.2831 42.4071 46.2831 42.3656 46.2832 42.3229C46.2832 42.2361 46.2831 42.1493 46.2829 42.0625C46.2826 41.9316 46.2829 41.8008 46.2832 41.6699C46.2834 41.2181 46.2731 40.7728 46.219 40.3235Z" fill="#3D007C"/>
<path d="M37.8588 38.8819C41.0267 33.7387 41.0267 33.7386 43.1751 34.6572C43.366 34.7425 43.5554 34.8304 43.7444 34.9198C43.8051 34.9485 43.8658 34.9772 43.9284 35.0068C44.7466 35.4061 44.7466 35.4061 44.8921 35.804C44.9602 36.1201 44.9502 36.4449 44.9482 36.7668C44.9481 36.808 44.948 36.8493 44.9479 36.8918C44.9403 38.4917 44.673 40.0869 44.4098 41.6617C44.2662 42.532 44.2316 43.3945 44.2317 44.2756C44.2316 44.4081 44.2305 44.5405 44.2294 44.673C44.1989 46.1894 44.1989 46.1894 44.7928 47.5038L44.8954 47.6045C44.9764 47.6972 44.9764 47.6973 45.0152 47.8907C44.9325 48.318 44.7308 48.65 44.4681 48.9919C43.9648 48.9385 43.5277 48.7654 43.0842 48.5275C43.0217 48.4942 43.0216 48.4943 42.9578 48.4603C42.6446 48.2901 42.3666 48.0978 42.0958 47.8661L41.9475 47.7641C41.2561 47.1294 40.9066 46.1277 40.7966 45.2206C40.7916 45.0645 40.7889 44.9099 40.7894 44.7539C40.7892 44.6866 40.7892 44.6866 40.789 44.6179C40.7888 44.4707 40.7889 44.3235 40.7891 44.1764C40.7891 44.0737 40.789 43.9711 40.789 43.8684C40.7889 43.654 40.789 43.4395 40.7893 43.225C40.7896 42.9497 40.7894 42.6744 40.7891 42.3992C40.7889 42.1875 40.7889 41.9759 40.7891 41.7643C40.7891 41.6627 40.7891 41.5611 40.789 41.4596C40.7888 41.3181 40.789 41.1766 40.7894 41.0352C40.7892 40.993 40.7891 40.9509 40.789 40.9075C40.7902 40.6178 40.7902 40.6178 40.8531 40.4923H40.9661C41.0408 40.3435 41.028 40.229 41.0261 40.0631L41.0246 39.8921L41.0226 39.7606C40.7507 40.0716 40.7507 40.0717 40.6067 40.4483C40.5604 40.65 40.4698 40.8199 40.373 41.0011C40.3532 41.0391 40.3333 41.077 40.3128 41.1161C40.2704 41.197 40.2279 41.2779 40.1852 41.3588C40.0737 41.5701 39.9636 41.7821 39.8534 41.9941C39.8211 42.0563 39.8211 42.0563 39.7881 42.1197C38.761 44.0959 37.9919 46.1815 37.3909 48.3219C37.0371 49.5804 37.0371 49.5804 36.811 49.8221C36.4576 49.9502 36.1624 49.9018 35.816 49.7656C35.2821 49.5009 34.8871 49.1256 34.4705 48.7104C34.4634 48.5627 34.4634 48.5627 34.4705 48.429H34.2446C34.1106 48.0864 34.0117 47.7884 34.0114 47.417C34.0112 47.3626 34.011 47.3082 34.0108 47.2522C34.0109 47.1939 34.011 47.1355 34.0111 47.0754C34.0111 47.0144 34.011 46.9534 34.011 46.8905C34.0109 46.761 34.0111 46.6316 34.0113 46.5021C34.0116 46.3072 34.0113 46.1123 34.0109 45.9174C34.0106 44.9707 34.0411 44.0393 34.1598 43.0992C34.1644 43.0632 34.169 43.0271 34.1736 42.99C34.3932 41.2693 34.6773 39.5469 35.0565 37.8538C35.0657 37.8125 35.0749 37.7712 35.0844 37.7286C35.3253 36.6572 35.3253 36.6572 35.4872 36.4959C36.0435 36.4547 36.4991 36.4878 37.0123 36.721C37.1345 36.7717 37.2569 36.8221 37.3794 36.8723L37.5471 36.9433C37.6497 36.9858 37.7541 37.0238 37.8595 37.0588C37.8612 37.2827 37.8622 37.5067 37.863 37.7307L37.8645 37.9212C37.8655 38.2768 37.8507 38.6201 37.803 38.9726C37.8306 38.9277 37.8306 38.9277 37.8588 38.8819Z" fill="#3D007C"/>
<path fill-rule="evenodd" clip-rule="evenodd" d="M67.8451 29.6357C68.6372 29.3516 69.5561 29.4883 70.3375 29.7413L70.5228 29.8011C71.4338 30.1247 72.3402 30.5595 72.8227 31.4299L72.8911 31.6005C73.0235 31.9235 73.1221 32.1159 73.4538 32.2616C73.5561 32.3007 73.6599 32.3359 73.7638 32.371C74.0985 32.4989 74.0985 32.499 74.2348 32.6683C74.2638 32.8829 74.2391 33.0904 74.2172 33.305C74.2113 33.3727 74.2055 33.4405 74.1995 33.5102C74.1367 34.1874 74.0445 34.8613 73.9559 35.5354C73.7666 36.9794 73.6263 38.4081 73.5864 39.8644C73.5841 39.9443 73.5818 40.0242 73.5796 40.1041C73.5696 40.464 73.5604 40.8239 73.554 41.1839C73.5519 41.2981 73.5493 41.4123 73.5465 41.5265C73.5432 41.6671 73.5406 41.8077 73.539 41.9484C73.5267 42.4134 73.4325 42.8132 73.2746 43.2505C72.356 43.1787 71.4536 42.7927 70.8366 42.1001C70.6343 41.8187 70.6064 41.6074 70.6128 41.2628L70.6159 41.0488L70.6199 40.8864H70.394L70.3622 41.0799C69.9254 43.001 68.3099 45.2163 66.6559 46.2863C66.3469 46.4667 65.9985 46.4553 65.6494 46.4026C64.6374 46.1286 63.5903 45.4877 63.0304 44.5902C62.6577 43.9078 62.6268 43.1913 62.6346 42.4343C62.6348 42.389 62.635 42.3437 62.6353 42.297C62.6438 40.9381 62.8093 39.6228 63.1076 38.2971C63.127 38.2094 63.1463 38.1217 63.1656 38.034C63.2192 37.7905 63.2736 37.5472 63.3286 37.304C63.3504 37.2076 63.372 37.1112 63.3935 37.0148C63.5524 36.3039 63.7269 35.6139 64.1137 34.9866L64.2172 34.8167L64.2938 34.6946C64.299 34.6972 64.3042 34.6998 64.3094 34.7024C64.3212 34.7242 64.3419 34.7466 64.3785 34.7861L64.4632 34.8635C64.2774 35.4048 64.092 35.9216 64.0683 36.4983L64.0678 36.6084H63.9549C63.8984 36.7773 63.8984 36.7773 63.8816 36.8843C63.877 36.9247 63.8726 36.9639 63.8681 37.0031L63.8533 37.1323L63.8384 37.2663C63.8205 37.4223 63.8028 37.5782 63.7854 37.7342H63.8984C63.9595 37.5517 64.0204 37.3691 64.081 37.1864C64.1358 37.0211 64.1907 36.8557 64.2457 36.6905C64.2758 36.5998 64.306 36.5091 64.3361 36.4185C64.38 36.286 64.4238 36.1535 64.4678 36.021C64.4828 35.9763 64.4973 35.9329 64.5117 35.8894C64.6259 35.5474 64.7485 35.2097 64.8793 34.8736C65.0067 34.5573 65.0648 34.3047 65.028 33.9629H64.9151L64.7456 34.5821L64.6115 34.5504C64.5719 34.5398 64.543 34.5322 64.5197 34.5279V34.4132C64.4398 34.468 64.4164 34.484 64.3695 34.521C64.4964 34.1265 64.6577 33.7553 64.8339 33.3789C64.8639 33.3146 64.894 33.2503 64.9249 33.184C65.603 31.7446 66.3113 30.3272 67.8451 29.6357ZM70.394 31.6551C69.9395 31.5843 69.9395 31.5844 69.0171 32.5679C66.6389 35.1709 65.4081 39.9108 65.5364 43.363C65.6624 43.3798 65.6624 43.3798 65.8188 43.363C65.9439 43.2493 65.9439 43.2493 66.1941 42.9248L66.3272 42.7439C66.5371 42.463 66.7894 42.1856 66.8249 41.8257C66.9306 41.3331 66.9306 41.3331 67.1863 40.8892L67.2556 40.7667C67.3892 40.5284 67.5237 40.2906 67.6605 40.0541C67.6922 39.9996 67.7229 39.9467 67.7536 39.8938C67.8146 39.7884 67.8758 39.683 67.9369 39.5777C68.0768 39.3399 68.2172 39.1109 68.3131 38.8518C68.7779 37.6179 68.7779 37.6178 69.3773 36.4396C69.4388 36.3137 69.5004 36.1877 69.5619 36.0618C69.6227 35.9368 69.6836 35.8117 69.7444 35.6867C69.8979 35.375 70.0486 35.068 70.1592 34.7382L70.2245 34.5258H70.394C70.4101 34.3688 70.4284 34.2286 70.5045 34.0884L70.5669 33.977C70.8144 33.446 70.7287 32.7179 70.5522 32.1775C70.5227 32.0938 70.4953 32.0093 70.4705 31.9242C70.4456 31.8343 70.4199 31.7446 70.394 31.6551Z" fill="#3D007C"/>
<path d="M46.8968 34.3569C47.5759 34.2411 48.2967 34.4981 48.9408 34.6911C49.0108 34.7114 49.0109 34.7114 49.0823 34.7321C49.408 34.8337 49.408 34.8337 49.5509 34.9728C49.9755 35.8337 49.5746 37.4179 49.2895 38.2957C49.1077 38.7957 49.1077 38.7957 48.9302 38.9726C48.1388 39.034 47.3355 38.676 46.6497 38.3217L46.5286 38.2597C46.213 38.0887 46.004 37.8914 45.8943 37.5407C45.6326 36.5499 45.972 35.4015 46.332 34.4695L46.7839 34.5258L46.8968 34.3569Z" fill="#3D007C"/>
<path fill-rule="evenodd" clip-rule="evenodd" d="M23.9051 0.00094844C24.9579 -0.0178927 25.7104 0.241867 26.4891 0.969559C26.5966 1.0694 26.7058 1.16116 26.8205 1.25232C27.4227 1.76667 28.1167 2.65897 28.2161 3.4656C28.2488 4.15819 27.9146 4.6464 27.4666 5.14325C26.9727 5.67162 26.457 6.16351 25.885 6.60675C25.8247 6.65675 25.7646 6.70698 25.7046 6.75737C24.3991 7.84363 22.8786 8.66013 21.3664 9.42117C21.3164 9.44638 21.2664 9.47159 21.2148 9.49757C19.2479 10.4815 17.1672 11.2424 15.0879 11.953C14.839 12.0383 14.5909 12.1256 14.343 12.2138C14.3068 12.2267 14.2705 12.2396 14.2331 12.2529C14.1964 12.266 14.1597 12.2791 14.1219 12.2925C13.308 12.5823 12.491 12.8608 11.67 13.1302C11.4769 13.1941 11.2841 13.2592 11.0915 13.3246C10.4898 13.5282 9.89107 13.7211 9.2754 13.8785C8.26322 14.1415 7.77935 14.6914 7.22788 15.5425C7.19263 15.5964 7.19259 15.5964 7.15662 15.6514C6.77234 16.2394 6.42308 16.8384 6.11587 17.4704C7.37295 17.3187 8.59204 17.0709 9.8094 16.724C9.94819 16.6848 10.0873 16.647 10.2266 16.6096C12.0802 16.1062 14.0226 15.5055 15.6924 14.5425C16.4821 14.0903 17.3323 13.7733 18.1831 13.4567C18.2625 13.427 18.342 13.3974 18.4215 13.3677C18.4601 13.3533 18.4987 13.3389 18.5385 13.324C18.8662 13.2005 19.1874 13.0645 19.5079 12.9237C20.0281 12.705 20.6695 12.6443 21.2227 12.7749C21.9177 13.0838 22.4462 13.8385 22.8808 14.4343L22.9787 14.5646C23.2085 14.8793 23.3396 15.1278 23.3468 15.5249C23.2269 15.9257 22.9294 16.1728 22.5795 16.3838C22.2907 16.5352 21.983 16.6411 21.677 16.7527C21.6041 16.7797 21.5311 16.8068 21.4582 16.8339C21.3103 16.8888 21.1623 16.9435 21.0143 16.9979C20.82 17.0694 20.6261 17.1422 20.4324 17.2153C19.9555 17.3953 19.4785 17.5734 18.9961 17.7381C17.6931 18.1833 16.496 18.8057 15.3519 19.5707C15.2155 19.6617 15.0786 19.7521 14.9417 19.8423C13.6104 20.7113 13.6104 20.7113 12.3339 21.6568C12.1986 21.7619 12.0593 21.8604 11.9195 21.9594C11.6141 22.1792 11.329 22.4179 11.0434 22.6621C10.7794 22.8878 10.5092 23.106 10.2391 23.3244L10.1262 23.2681L10.0084 23.386C9.89351 23.5005 9.77775 23.6141 9.66152 23.7272C9.59754 23.7899 9.53354 23.8527 9.46956 23.9154L9.3716 24.0102C9.23773 24.142 9.12329 24.2577 9.02807 24.4205C8.89578 24.6342 8.71262 24.7852 8.527 24.9532C8.14853 25.3024 7.7766 25.6575 7.41107 26.0201C7.33263 26.0978 7.25385 26.1752 7.17509 26.2526C6.87793 26.5482 6.60373 26.8533 6.34263 27.1811C6.22966 27.3198 6.11121 27.4508 5.98878 27.5812C4.47726 29.24 3.4824 31.1751 2.9528 33.3437L3.13505 33.3107C3.21785 33.2959 3.30067 33.2811 3.38348 33.2663L3.50219 33.2448C3.76431 33.1981 4.02673 33.1587 4.29053 33.1225C4.70308 33.0645 5.11087 32.9894 5.51926 32.9075C5.55585 32.9001 5.59248 32.8928 5.63019 32.8852C8.10106 32.3871 10.6229 31.6165 12.8667 30.4601C13.1115 30.3341 13.36 30.2239 13.614 30.1177C14.0407 29.9385 14.4418 29.719 14.844 29.4911C14.89 29.4652 14.936 29.4392 14.9833 29.4125C15.0243 29.3891 15.0653 29.3657 15.1075 29.3415C15.2097 29.291 15.2097 29.291 15.3226 29.291C15.3264 29.2577 15.3301 29.2245 15.334 29.1903C15.3975 29.0152 15.4928 28.9722 15.6505 28.8754L15.8175 28.7714L15.9934 28.6648L16.1679 28.5568C16.2749 28.4907 16.382 28.4248 16.4894 28.3593C16.5912 28.2966 16.6916 28.2314 16.7912 28.1652L16.9677 28.1265C17.2119 28.0626 17.379 27.9164 17.5701 27.7573C17.7003 27.6544 17.8348 27.5748 17.9774 27.4897C18.1146 27.395 18.249 27.2965 18.3833 27.1977C18.4207 27.1703 18.4581 27.1428 18.4966 27.1146C18.92 26.8023 19.3293 26.477 19.7231 26.1283C19.8526 26.0165 19.9861 25.9109 20.1202 25.8046C20.4526 25.5362 20.7608 25.2444 21.0683 24.9482C21.307 24.7202 21.5527 24.5119 21.817 24.3138C22.5751 23.7243 23.0473 22.8787 23.4562 22.0298C23.1075 22.083 22.7667 22.144 22.4254 22.2338C21.9967 22.3371 21.5782 22.3263 21.1404 22.3112C21.0547 22.111 21.0149 21.9671 21.0275 21.7483L20.8827 21.78C20.661 21.7438 20.6376 21.7183 20.5015 21.5513C19.6382 20.3453 19.6382 20.3453 19.686 19.9401C19.7283 19.8345 19.7284 19.8345 19.8413 19.6656L19.6719 19.6094C19.6443 19.2796 19.6443 19.2795 19.6719 19.1591C19.8831 18.9436 20.1276 18.8531 20.4061 18.7545L20.5257 18.7102C21.4133 18.3873 22.461 18.4906 23.3212 18.8653C24.046 19.2335 24.6836 19.7294 25.1507 20.3974V20.51L25.3767 20.4537C26.2414 21.404 27.0217 22.3343 26.9756 23.6817C26.813 25.6001 25.0255 27.285 23.6347 28.4708C23.4825 28.596 23.3287 28.7188 23.1738 28.8407C23.113 28.8889 23.0522 28.9373 22.9914 28.9855C22.8236 29.1184 22.6547 29.2498 22.4853 29.3807C22.4199 29.4313 22.3547 29.4822 22.2897 29.5333C21.1 30.4676 19.799 31.2992 18.4857 32.0491C18.4356 32.0779 18.3855 32.1068 18.3339 32.1365C17.5301 32.5989 16.716 33.0396 15.8875 33.4563C15.8275 33.4865 15.7675 33.5167 15.7057 33.5478C13.7708 34.5149 11.6994 35.2319 9.61783 35.8204L9.46206 35.8647C8.58279 36.1118 7.69511 36.293 6.79367 36.4396C6.74811 36.4471 6.70254 36.4547 6.6556 36.4624C6.068 36.5559 5.47779 36.5646 4.88382 36.5697C4.81041 36.5707 4.737 36.5717 4.66136 36.5728C3.67148 36.572 2.95818 36.3341 2.2397 35.6445C0.849972 34.1851 -0.0275863 32.5172 0.000662221 30.4792C0.0573432 28.6816 1.24011 26.9578 2.3648 25.6254C2.47083 25.4992 2.57474 25.372 2.67766 25.2433C2.98041 24.8654 3.28207 24.5003 3.63236 24.1645C3.77336 24.0271 3.9007 23.8804 4.02907 23.7314C4.16646 23.5744 4.30793 23.4212 4.44961 23.2681C4.62536 23.0781 4.79943 22.8871 4.96855 22.6911C5.21248 22.4107 5.47956 22.1538 5.7463 21.8952C5.89012 21.7481 6.01898 21.5955 6.14764 21.4352C6.29838 21.2475 6.45044 21.0709 6.62422 20.904L6.42652 20.8477C5.31861 20.4715 4.62554 19.8505 4.08247 18.8213C4.06199 18.7828 4.04151 18.7443 4.02041 18.7046C3.57403 17.8516 3.3868 17.0995 3.37995 16.1371L3.37819 15.9304C3.38274 15.4673 3.45146 15.0461 3.57412 14.5997C3.51694 14.5911 3.51693 14.5911 3.45861 14.5823C2.74221 14.4691 2.27466 14.0825 1.84895 13.5102C1.12243 12.4909 0.705343 11.3538 0.806432 10.0966C0.92552 9.4768 1.25009 8.798 1.73399 8.38335C1.84621 8.27263 1.91143 8.149 1.99258 8.01396C2.08829 7.89296 2.18483 7.77528 2.28559 7.65864C2.32918 7.60809 2.32922 7.60806 2.37368 7.55651C2.61775 7.27787 2.87413 7.01263 3.13637 6.75099C3.173 6.71444 3.20967 6.67788 3.24741 6.64023C3.49813 6.39322 3.75903 6.16065 4.02598 5.93129C4.08517 5.87918 4.14432 5.82699 4.20338 5.77474C5.0984 4.99083 6.06472 4.30609 7.07608 3.67976C7.12103 3.65177 7.16601 3.62377 7.21233 3.59494C7.5571 3.38407 7.91098 3.20161 8.27635 3.02892L8.44873 2.94724C8.8687 2.7508 9.28673 2.57722 9.7308 2.44141L9.8987 2.38952C10.2187 2.29652 10.5278 2.23595 10.8605 2.21626L11.0189 2.20131C11.6289 2.16657 12.0639 2.40684 12.5161 2.80025C12.6056 2.88581 12.6939 2.97255 12.7809 3.06058L12.8919 3.1714C13.161 3.4578 13.3393 3.78078 13.5152 4.13006C13.6556 4.06396 13.7955 3.997 13.9353 3.92954L14.053 3.87446C14.329 3.74012 14.5594 3.57786 14.7985 3.38633C15.0077 3.2229 15.2298 3.08054 15.4533 2.93745C15.5022 2.90603 15.5512 2.87462 15.6016 2.84225C15.7531 2.74561 15.9049 2.64961 16.0569 2.55399L16.1945 2.46747C17.0081 1.9598 17.8554 1.5214 18.7116 1.09049C18.7678 1.06161 18.824 1.03269 18.8819 1.00293C19.6535 0.630942 20.531 0.410835 21.3628 0.218021C21.4212 0.204359 21.4796 0.190706 21.5397 0.17663C22.2313 0.023604 22.9233 0.00786806 23.6288 0.00441149C23.7209 0.00376096 23.813 0.00260638 23.9051 0.00094844ZM5.15565 23.0992C5.01743 23.2297 4.8935 23.3451 4.7991 23.5108L4.76027 23.6058H4.6473C4.52652 23.6842 4.43341 23.7598 4.34304 23.8719C4.2252 24.0433 4.10498 24.2019 3.95957 24.3512C3.582 24.7167 3.20176 25.0251 3.17873 25.5759C3.26747 25.4897 3.35235 25.4023 3.43385 25.3091C3.68656 25.0131 3.95807 24.7418 4.2378 24.4713C4.45312 24.2651 4.65897 24.0804 4.80461 23.8187C4.86845 23.6583 4.86848 23.6583 4.97627 23.5183L5.08151 23.3877L5.18808 23.2545L5.26862 23.1555L5.15565 23.0992ZM6.79367 21.8609C6.5615 21.7838 6.5615 21.7838 6.10285 22.1307L5.99584 22.2127C5.72988 22.4076 5.56768 22.5367 5.49455 22.8741L5.72048 22.7615C6.07058 22.6018 6.0706 22.6017 6.79367 21.8609ZM11.8595 4.90403C11.416 4.89937 11.055 4.97948 10.6576 5.18063L10.5533 5.23472C10.4296 5.29769 10.306 5.36094 10.1827 5.42469V5.59356C9.95823 5.81665 9.69923 5.9673 9.3919 6.04387C9.25167 6.06983 9.15897 6.1043 9.03524 6.17777C8.9629 6.2276 8.96285 6.22764 8.89193 6.2765L8.73197 6.38599L8.56583 6.50121C8.25113 6.71711 7.93743 6.93444 7.62437 7.1527C7.53575 7.21463 7.44712 7.27657 7.3585 7.3385C6.8654 7.68113 6.38774 8.03653 5.92104 8.41413C5.82401 8.49295 5.72693 8.57171 5.62925 8.64973C4.69392 9.39398 3.76819 10.2958 3.51763 11.5038L3.70495 11.4805C3.79313 11.4695 3.88132 11.4585 3.9695 11.4475C4.12175 11.429 4.27397 11.4102 4.42611 11.3908L4.58729 11.3702C5.06169 11.313 5.47748 11.2145 5.91641 11.0254L6.08762 10.941C6.26236 10.8565 6.26239 10.8565 6.39828 10.7721C6.47163 10.5528 6.57988 10.4366 6.78153 10.3196C6.88095 10.2663 6.97863 10.2097 7.07608 10.1529C7.18917 9.91582 7.18918 9.91578 7.38145 9.7318C7.62787 9.49656 7.86873 9.26854 8.06454 8.98845C8.16608 8.84201 8.19474 8.80687 8.36461 8.73164L8.48817 8.68942L8.527 8.57684L8.54465 8.46427C8.78845 8.22131 9.03656 7.94005 9.34557 7.78221C9.43696 7.74857 9.52751 7.71262 9.61783 7.67623L9.66373 7.56013L9.67432 7.45108C9.78424 7.3372 9.78427 7.33717 9.90599 7.24483C10.0996 7.09489 10.2918 6.94651 10.468 6.77627C10.8055 6.42875 11.1565 6.07796 11.5853 5.844C12.0012 5.63819 12.2647 5.39208 12.555 5.03068C12.3719 4.9094 12.2033 4.90348 11.9872 4.90271L11.8595 4.90403ZM21.4228 3.90491C20.8014 3.82311 20.8014 3.82312 18.9988 5.06206C18.9588 5.08966 18.9199 5.11646 18.8811 5.14325C18.159 5.64065 17.4447 6.14861 16.7347 6.66304L16.7912 6.8319C16.5524 6.8319 16.3349 6.95352 16.1628 7.10983L16.0569 7.22592C15.8558 7.38526 15.6714 7.54872 15.4921 7.73252C15.6615 7.7888 15.6616 7.7888 15.8367 7.73867L16.0358 7.66216C16.2356 7.5874 16.2357 7.58739 16.3958 7.50736L16.4523 7.3385L16.5653 7.28221L16.6218 7.11335L16.7892 7.11093L17.0136 7.10279C17.287 7.09543 17.4686 7.07002 17.7075 6.93678C17.8518 6.85047 17.9954 6.76598 18.1437 6.68668C18.2335 6.63988 18.2335 6.63987 18.3216 6.594C18.4422 6.53021 18.5628 6.46645 18.6834 6.4027L18.871 6.30508L19.0488 6.21053C19.2102 6.12575 19.2102 6.12573 19.333 6.04387L19.3894 5.875C19.5086 5.7792 19.5086 5.77919 19.6719 5.70614C19.9503 5.64872 20.1523 5.58674 20.392 5.43173C20.6436 5.26459 20.8983 5.10535 21.1576 4.95031C21.2082 4.92022 21.2573 4.89102 21.3064 4.86181C21.6842 4.63642 22.063 4.41273 22.444 4.19251L22.5525 4.13006L22.496 4.01749C22.3231 3.98231 22.3231 3.98231 22.1571 3.9612V4.07377C22.0301 4.09865 21.904 4.11751 21.7754 4.13248C21.6373 4.14372 21.6373 4.1437 21.5288 4.021L21.4228 3.90491ZM23.3998 4.07377C23.1174 4.07377 23.1173 4.07376 22.9877 4.13309C22.9432 4.16113 22.9001 4.18837 22.857 4.21559L22.7138 4.30563L22.5666 4.40095C22.328 4.54959 22.0794 4.6438 21.9877 4.9181L22.0759 4.95812C22.2467 4.97829 22.2467 4.97829 22.5003 4.84499C22.5552 4.81441 22.5552 4.81438 22.609 4.78441C23.1684 4.47849 23.6856 4.13347 24.0776 3.62347L23.6822 3.67976L23.6257 3.51089H23.3998V4.07377Z" fill="#3D007C"/>
<path fill-rule="evenodd" clip-rule="evenodd" d="M80.6739 11.2786C81.2783 11.4115 81.7973 11.6472 82.2554 12.0667C82.1815 12.5955 82.0274 13.097 81.8732 13.6066C81.6752 14.2612 81.4803 14.9161 81.3128 15.5792C81.2955 15.6479 81.2955 15.6479 81.2778 15.718C81.2232 15.9352 81.1698 16.1527 81.1176 16.3704C81.0985 16.4479 81.0793 16.5254 81.0602 16.6029C81.0441 16.6702 81.028 16.7375 81.0114 16.8068C80.9563 16.9638 80.9563 16.9638 80.7868 17.0763C80.7271 17.2488 80.7271 17.2488 80.6858 17.4556C80.6774 17.4937 80.669 17.5318 80.6603 17.5711C80.6426 17.652 80.6253 17.7331 80.6082 17.8142C80.5826 17.9358 80.5557 18.0571 80.5287 18.1785C80.4248 18.6548 80.3567 19.1209 80.335 19.6093C80.5949 19.1292 80.7664 18.6744 80.8998 18.1458H81.0128L81.0269 17.9769C81.0717 17.6589 81.2317 17.3963 81.4082 17.1326L81.4311 17.0326C81.6642 16.1628 82.5177 15.2386 83.2686 14.7931C83.7614 14.5626 84.3782 14.5878 84.8861 14.7667C85.417 14.9917 86.0342 15.2959 86.2893 15.84C86.3317 15.9563 86.3736 16.0728 86.4149 16.1896C86.541 16.4442 86.751 16.559 87 16.6823C86.9624 17.6593 86.749 18.6143 86.504 19.5576C86.2884 20.3966 86.1493 21.2489 86.0419 22.1079C86.0358 22.1543 86.0297 22.2007 86.0235 22.2485C86.0159 22.3096 86.0158 22.3096 86.0081 22.372C85.9833 22.48 85.9833 22.48 85.8703 22.6489C85.4158 22.6318 85.0428 22.4617 84.6948 22.1687C84.4734 21.9129 84.4908 21.6449 84.5048 21.3193L84.5147 21.1854C84.4047 21.1956 84.4047 21.1956 84.2888 21.2417C84.2184 21.3446 84.2184 21.3446 84.171 21.4761L84.1083 21.6241L84.0417 21.7834C83.7696 22.3926 83.4182 22.8166 82.9332 23.268L82.773 23.4244C82.4446 23.735 82.1327 24.0014 81.6659 24.0279C81.0972 23.9969 80.6149 23.6275 80.2405 23.2221C80.1768 23.1445 80.1145 23.0657 80.0526 22.9866L79.9396 22.9303L79.9184 23.1062C79.8377 23.6047 79.8377 23.6047 79.6748 23.743C79.4226 23.8041 79.2032 23.7461 78.9758 23.6302C78.2733 23.1544 77.9178 22.6879 77.7367 21.8608C77.5765 22.0508 77.5765 22.0508 77.4543 22.2654C77.3978 22.3674 77.3978 22.3674 77.2921 22.4116C77.129 22.5044 77.0839 22.6101 76.9989 22.7755L76.9157 22.9347C76.8599 23.0457 76.8058 23.1576 76.7534 23.2702C76.6583 23.4467 76.5522 23.5781 76.4164 23.7254L76.288 23.8666C75.9838 24.1717 75.6602 24.3683 75.2515 24.5064C75.0432 24.5064 75.0432 24.5064 74.8561 24.4501L74.6407 24.3903C74.3297 24.2671 74.0882 24.0489 73.8394 23.8309L73.7236 23.7318C73.4099 23.4446 73.2161 23.1014 73.1881 22.6722C73.1871 22.5823 73.1877 22.4924 73.1898 22.4026C73.1909 22.3297 73.1909 22.3297 73.192 22.2553C73.2493 20.3955 74.2354 18.3293 75.4774 16.9638L75.5769 16.8527C75.9628 16.4448 76.3831 16.1131 76.953 16.0948C77.5154 16.0872 78.0585 16.2582 78.5275 16.5697L78.5452 16.4079C78.6206 15.8955 78.8236 15.4396 79.0464 14.9761C79.3451 14.343 79.6293 13.7044 79.9078 13.0623C79.9366 12.9961 79.9366 12.996 79.9661 12.9285C80.1767 12.4445 80.3809 11.9602 80.5651 11.4655C80.6174 11.3349 80.6174 11.3349 80.6739 11.2786ZM77.9627 17.4703C77.6062 17.2927 77.6062 17.2927 77.1963 17.7239L77.1048 17.8222C76.9228 18.0085 76.7928 18.138 76.7278 18.3947L76.72 18.5398H76.6071C75.8587 19.206 75.4127 20.3544 75.1238 21.2858C75.106 21.3462 75.0887 21.4047 75.0714 21.4633C74.9627 21.8306 74.8921 22.1525 74.9126 22.5363C75.1385 22.5363 75.1385 22.5363 75.308 22.4237C75.3445 22.2729 75.3646 22.1983 75.4631 22.0721C76.1898 21.1873 76.8029 20.1626 77.2407 19.1053L77.2849 18.9901H77.4543C77.6723 18.4895 77.8847 18.0145 77.9627 17.4703ZM84.7407 16.0561C84.6003 16.0556 84.5286 16.0562 84.4018 16.1194V16.232L84.2323 16.2883L84.1652 16.4607L84.1194 16.626C83.8934 16.626 83.8934 16.626 83.8116 16.7023L83.7416 16.8054C83.6704 16.9064 83.6703 16.9064 83.611 17.02C83.581 17.1759 83.5581 17.2948 83.4828 17.4358L83.3957 17.5653C83.3133 17.6966 83.3133 17.6966 83.2156 17.8081C82.9883 17.9024 82.916 18.0163 82.7977 18.225C82.7754 18.2663 82.7536 18.3063 82.732 18.3463C82.5566 18.6651 82.3979 18.9726 82.3119 19.3279L82.2708 19.5064L82.2272 19.6937C82.195 19.8633 82.195 19.8633 82.1424 20.0033L81.973 20.0596C81.6427 20.7178 81.587 21.4765 81.5776 22.1986H81.7471C81.8109 22.1154 81.874 22.0315 81.9316 21.944C82.0533 21.752 82.1587 21.5156 82.3662 21.411C82.5107 21.3398 82.5107 21.3398 82.6992 21.0807L82.7743 20.9743C82.9172 20.7821 83.0344 20.6316 83.0773 20.3929C83.1036 20.2225 83.1567 20.1285 83.2568 19.9901C83.348 19.864 83.348 19.8639 83.6038 19.4692C83.6387 19.4152 83.6725 19.3627 83.7063 19.3103C83.9593 18.918 84.1957 18.5241 84.4053 18.1071C84.5049 17.8985 84.5752 17.7291 84.7764 17.6003L84.9101 17.5266C85.1176 17.1737 85.1177 17.1737 85.0796 16.1194C84.9666 16.0631 84.9666 16.0631 84.8607 16.0557L84.7407 16.0561Z" fill="#3D007C"/>
<path d="M37.3582 8.45019C39.1023 6.33797 41.3373 5.26885 43.7949 7.02869C44.0703 7.25117 44.2795 7.47358 44.327 7.83674C44.328 7.91822 44.3279 7.99976 44.3266 8.08124C44.3268 8.12519 44.327 8.16915 44.3271 8.21443C44.3272 8.35638 44.3254 8.49823 44.3233 8.64017C44.3229 8.68863 44.3225 8.73711 44.322 8.78704C44.3099 10.1077 44.2177 12.2596 43.3126 13.295C43.1689 13.4176 43.1689 13.4176 42.996 13.4493C42.83 13.4176 42.83 13.4176 42.7312 13.3156C42.5915 13.1803 42.5202 13.1603 42.3358 13.1116C41.9191 12.9983 41.6091 12.8196 41.3615 12.4607C41.2821 11.9691 41.3907 11.4449 41.4709 10.9585C41.5702 10.3373 41.6542 9.73442 41.6474 9.10455L41.6466 8.9658C41.646 8.85491 41.645 8.74402 41.6439 8.63313C40.1033 9.66678 39.1176 11.0078 38.3679 12.6859L38.2869 12.8629C37.8675 13.8146 37.7292 14.7524 37.6336 15.7818C37.6906 15.7809 37.7476 15.78 37.8064 15.7791C39.4864 15.7554 41.0527 15.7984 42.6606 16.3446C42.7046 16.3594 42.7487 16.3741 42.7941 16.3893C44.3257 16.9096 44.3257 16.9097 44.6891 17.3831C44.874 17.8159 44.804 18.3465 44.641 18.7756C44.0946 19.8947 43.184 20.6881 42.1522 21.3543L42.0188 21.4407C41.7495 21.6142 41.4782 21.7843 41.2053 21.9521C41.0875 22.0246 40.9701 22.0977 40.8527 22.1709C40.5016 22.3877 40.1466 22.5859 39.7729 22.7615C39.7207 22.7861 39.7207 22.7861 39.6675 22.8111C39.1171 23.0612 38.4414 23.094 37.8696 22.8887C37.2367 22.6324 36.6729 22.2786 36.1771 21.8094C36.0676 21.7066 35.9553 21.6152 35.8367 21.5232C35.59 21.3076 35.402 21.0726 35.3608 20.7386C35.3437 20.4733 35.3451 20.2113 35.3742 19.9471C35.5781 19.744 35.8914 19.8099 36.1668 19.8098C36.5863 19.8183 36.9988 19.8678 37.3512 20.116C37.3981 20.2666 37.3981 20.2666 37.4076 20.3974C38.3945 20.313 39.0397 19.8558 39.8273 19.3013C39.9071 19.2451 39.9873 19.1893 40.0678 19.134C40.265 19.0061 40.2651 19.0061 40.4013 18.8213C40.4952 18.7647 40.5893 18.7084 40.6837 18.6525C40.7775 18.5776 40.8693 18.5 40.959 18.4203L41.0963 18.3002C41.2286 18.166 41.3409 18.0316 41.4557 17.8829C41.4911 17.8373 41.5264 17.7916 41.5627 17.7446C41.6029 17.6925 41.6029 17.6925 41.6439 17.6393C41.6095 17.6391 41.5751 17.6389 41.5396 17.6387C41.1757 17.6363 40.8118 17.6323 40.448 17.6276C40.3129 17.626 40.1777 17.6248 40.0426 17.624C38.1864 17.6124 36.6892 17.2376 35.3246 15.9031C34.9023 15.439 34.7729 14.9512 34.7865 14.3336C34.843 13.3123 35.134 12.2698 35.5437 11.335C35.5724 11.2687 35.5724 11.2686 35.6017 11.201C35.9981 10.2983 36.4814 9.49484 37.1252 8.74571C37.2029 8.64721 37.2806 8.5487 37.3582 8.45019Z" fill="#3D007C"/>
<path d="M29.7138 8.89561C31.566 6.27409 31.566 6.27411 33.3408 7.11335C33.4106 7.14481 33.4804 7.17625 33.5502 7.20767C34.0269 7.43156 34.436 7.69818 34.8094 8.07025C35.0713 9.38047 34.7499 10.7142 34.5021 11.9995C34.4103 12.4758 34.3273 12.9532 34.2481 13.4317C34.2369 13.4982 34.2256 13.5647 34.2141 13.6332C34.1085 14.2664 34.066 14.8775 34.0656 15.5186C34.0654 15.6016 34.0653 15.6846 34.0651 15.7676C34.0647 15.9407 34.0646 16.1138 34.0646 16.2869C34.0646 16.5082 34.0639 16.7294 34.0629 16.9506C34.0623 17.1217 34.0622 17.2928 34.0622 17.4639C34.0621 17.5455 34.0619 17.6271 34.0614 17.7086C34.0609 17.8227 34.0611 17.9367 34.0614 18.0508C34.0613 18.1155 34.0612 18.1802 34.0612 18.2469C34.0759 18.4377 34.114 18.5887 34.1881 18.765C34.3001 18.8373 34.3001 18.8373 34.414 18.8776C34.5216 19.092 34.4804 19.2946 34.414 19.5179L34.3575 19.6656H34.1881L34.1563 19.7642C34.0405 19.9447 33.8838 20.0556 33.6797 20.116C32.886 20.0723 32.1271 19.3903 31.6104 18.8281C30.8391 17.8741 30.7715 16.6884 30.7832 15.5162C30.785 15.3376 30.7855 15.1591 30.7858 14.9805C30.7864 14.8655 30.7869 14.7504 30.7876 14.6353C30.7879 14.5827 30.7881 14.5301 30.7883 14.4759C30.7918 14.1568 30.8152 13.8468 30.8556 13.5302H30.9685L30.9893 13.3062C30.9988 13.2085 31.0084 13.1108 31.018 13.0131L31.0314 12.8656C31.0564 12.6157 31.0916 12.4107 31.1945 12.1793C31.2195 12.0424 31.2195 12.0424 31.2298 11.9084L31.2426 11.7736L31.2509 11.6727C31.0243 11.8829 30.8578 12.0993 30.6967 12.3622L30.6183 12.4898C30.2356 13.1329 29.9247 13.8162 29.6037 14.4912C29.4836 14.7433 29.3594 14.9932 29.233 15.2422C29.0817 15.5421 28.9425 15.844 28.8151 16.1547L28.7624 16.2813C28.7263 16.368 28.6904 16.4548 28.6546 16.5416C28.613 16.642 28.5709 16.7421 28.5284 16.8421C28.3623 17.234 28.2101 17.6291 28.0667 18.0298C28.034 18.1204 28.034 18.1204 28.0006 18.2129C27.8767 18.5583 27.7588 18.9049 27.6461 19.254C27.4715 19.7939 27.2754 20.261 26.9582 20.7351L26.5063 20.6788L26.4499 20.3974L26.2557 20.3904C25.9441 20.3514 25.7334 20.1907 25.4896 20.0034L25.3796 19.9198C24.9398 19.5662 24.6614 19.1282 24.5965 18.5602C24.576 18.3027 24.5779 18.0452 24.5789 17.787L24.5782 17.6237C24.5794 16.7386 24.6528 15.8716 24.7871 14.9972C24.7981 14.925 24.7981 14.9249 24.8092 14.8512C24.9458 13.955 25.1335 13.0759 25.3479 12.1954C25.4154 11.9178 25.4797 11.6395 25.5419 11.3607C25.5507 11.3215 25.5595 11.2824 25.5685 11.242C25.6095 11.0583 25.6503 10.8746 25.6911 10.6909C26.006 9.28948 26.006 9.28946 26.2663 8.80551L26.3713 8.60697L26.4499 8.46427C27.008 8.42932 27.4512 8.50321 27.929 8.802C28.0314 8.91456 28.0314 8.91458 28.0314 9.13973H28.4833V10.1529L28.3703 10.2092C28.3438 10.3677 28.3438 10.3677 28.335 10.5505L28.3222 10.7389L28.3138 10.8847C28.3768 10.8184 28.439 10.7514 28.5009 10.6841L28.6062 10.5713C28.7185 10.4334 28.7185 10.4334 28.7891 10.2466C28.8888 10.017 29.0131 9.8402 29.1646 9.6428C29.2206 9.56838 29.2766 9.49391 29.3325 9.41941C29.3606 9.38211 29.3888 9.34482 29.4177 9.30639C29.5186 9.171 29.6164 9.03354 29.7138 8.89561Z" fill="#3D007C"/>
<path d="M55.4823 7.90133C56.3133 7.54641 57.4167 7.68745 58.1935 8.12648C58.5549 8.421 58.7293 8.87113 58.7782 9.32437C58.7852 9.52842 58.7852 9.73125 58.7824 9.9354C58.7821 10.0468 58.7821 10.0468 58.7818 10.1605C58.7813 10.3166 58.7802 10.4726 58.7785 10.6287C58.7762 10.8276 58.7752 11.0264 58.7747 11.2253C58.7741 11.4169 58.773 11.6084 58.7718 11.8C58.7714 11.8708 58.771 11.9417 58.7705 12.0147C58.7698 12.0814 58.7691 12.1481 58.7683 12.2168C58.7678 12.2749 58.7672 12.3331 58.7666 12.393C58.7586 12.5664 58.7374 12.7355 58.7145 12.9076C58.6936 13.0989 58.694 13.2903 58.6945 13.4825C58.6944 13.526 58.6943 13.5694 58.6942 13.6142C58.694 13.7565 58.6942 13.8988 58.6943 14.0412C58.6943 14.1411 58.6943 14.2411 58.6942 14.3411C58.6941 14.5502 58.6942 14.7593 58.6945 14.9684C58.6948 15.2348 58.6946 15.5011 58.6942 15.7674C58.694 15.9738 58.6941 16.1802 58.6942 16.3866C58.6943 16.4847 58.6943 16.5828 58.6941 16.6809C58.6936 17.2097 58.701 17.7319 58.7583 18.2584L59.0337 18.2513C59.1886 18.2474 59.1886 18.2474 59.3232 18.2584C59.4361 18.371 59.4361 18.371 59.4538 18.5433C59.4269 18.8807 59.364 19.212 59.0972 19.4404C58.6766 19.6818 58.1298 19.5485 57.6852 19.4404L57.5413 19.4072C56.6707 19.1904 55.7893 18.8493 55.2564 18.0895C55.1784 17.9308 55.124 17.7694 55.0728 17.6005C55.0587 17.5556 55.0446 17.5107 55.03 17.4644C54.4792 15.6611 54.9331 13.6642 55.2638 11.8551C55.4301 10.9441 55.5581 10.0643 55.5494 9.13615C55.5493 9.05953 55.5493 8.98289 55.5493 8.90627C55.5477 8.56474 55.5364 8.2392 55.4823 7.90133Z" fill="#3D007C"/>
<path d="M72.4577 1.52645C73.994 0.563683 75.3406 0.562912 76.8648 1.56537C77.3665 1.94229 77.8244 2.46922 77.9329 3.10428C77.9432 3.40159 77.8797 3.58484 77.7367 3.84857C76.4108 3.91735 76.4108 3.91735 75.8163 3.51084C75.5685 3.35297 75.4378 3.30286 75.1385 3.34197C74.5956 3.51919 74.129 3.93151 73.6765 4.2671C73.574 4.34259 73.4707 4.41659 73.3666 4.48973C73.0536 4.71336 72.7709 4.95444 72.4979 5.22411C72.4693 5.25234 72.4406 5.28056 72.4111 5.30964C72.1503 5.57444 71.9222 5.86438 71.693 6.15639C71.7409 6.15583 71.7409 6.15586 71.7897 6.15529C72.1289 6.15149 72.4681 6.14898 72.8072 6.14715C72.933 6.14632 73.0587 6.14517 73.1845 6.14369C74.9115 6.12387 76.5727 6.28838 77.9062 7.50731C78.1793 7.77586 78.3843 8.05211 78.5275 8.40792L78.5882 8.55062C79.0446 10.253 78.1522 12.3468 77.331 13.8189C76.8616 14.6271 76.2948 15.3887 75.6469 16.0631L75.5158 16.2045C74.8091 16.9438 73.7087 17.6915 72.6532 17.7518L72.4979 17.7608C71.5977 17.7877 70.5492 17.4307 69.8573 16.8441C69.3211 16.298 69.2996 15.6475 69.3031 14.9163C69.3033 14.8467 69.3036 14.7771 69.3039 14.7055C69.3153 13.8075 69.4828 12.9585 69.6757 12.0839C69.739 11.7946 69.7903 11.5114 69.8145 11.2161C69.8567 10.9075 70.0424 10.6786 70.2809 10.4906C70.4574 10.4625 70.4575 10.4624 70.6198 10.4906L70.7046 10.5785L70.7893 10.6595L70.9382 10.6245C71.1827 10.5971 71.3333 10.679 71.5412 10.7931L71.6494 10.8494C71.9059 10.9842 71.9059 10.9842 71.9754 11.0535C71.9777 11.166 71.9778 11.2787 71.9754 11.3912H72.2014C72.2184 11.7471 72.2147 12.0844 72.1407 12.4341C71.9531 13.3263 72.0176 14.2559 72.0319 15.1625C72.6216 14.7236 72.6217 14.7236 73.1651 14.2302C73.1976 14.1976 73.23 14.1649 73.2634 14.1313C74.159 13.2023 74.994 11.8571 75.2698 10.5891C75.3071 10.4377 75.3581 10.3059 75.4209 10.1634C75.7168 9.45327 75.7491 8.65895 75.8163 7.90133L75.6025 7.91315C74.9001 7.95025 74.1991 7.96973 73.4957 7.97114C73.3311 7.97169 73.1665 7.97344 73.0018 7.97521C72.0434 7.98057 71.0333 7.96037 70.168 7.50731L70.0131 7.42991C68.7792 6.78898 68.7792 6.78898 68.5864 6.21268C68.4987 5.51745 68.677 5.0534 69.0383 4.46774L69.1371 4.30503C69.9104 3.15611 71.1035 2.37535 72.2579 1.65332C72.3245 1.61105 72.3911 1.56875 72.4577 1.52645Z" fill="#3D007C"/>
<path fill-rule="evenodd" clip-rule="evenodd" d="M63.5899 2.63853C64.3975 2.63542 65.1644 2.71058 65.8894 3.09928C65.9263 3.11835 65.9633 3.13746 66.0013 3.15711C66.3648 3.35105 66.6857 3.58871 67.005 3.84862L67.1166 3.93195C68.3848 4.91591 68.7897 6.74104 68.9973 8.23076C69.0908 8.98351 69.1064 9.72968 69.1054 10.4871C69.1054 10.541 69.1053 10.595 69.1053 10.6506C69.1026 11.9121 68.9971 13.089 68.6995 14.3183C68.683 14.3865 68.683 14.3866 68.6661 14.4562C68.3937 15.5491 67.9059 16.5393 66.9485 17.189C66.0985 17.6701 64.684 17.4931 63.7704 17.2668C62.3767 16.8788 61.1928 16.2031 60.4547 14.9294C59.3672 12.9785 59.3606 10.8391 59.3687 8.66974C59.3693 8.46052 59.3693 8.25127 59.3692 8.04205C59.3692 7.83855 59.3695 7.635 59.3699 7.43151C59.3701 7.33526 59.3702 7.239 59.3703 7.14275C59.3711 6.25039 59.392 5.5412 59.8492 4.75979C59.8948 4.68081 59.9403 4.60179 59.9858 4.52276C60.0078 4.48462 60.0298 4.44646 60.0525 4.40716C60.1352 4.26146 60.2127 4.1131 60.2905 3.96472C60.5799 3.43846 60.9111 3.00634 61.4882 2.78491C62.0199 2.63486 62.5496 2.63902 63.0977 2.64144C63.2618 2.64192 63.4258 2.64032 63.5899 2.63853ZM63.2205 4.46779C62.6523 5.83721 62.4553 7.18981 62.4605 8.66578C62.4608 8.73122 62.4612 8.79477 62.4615 8.85828C62.4639 9.86625 62.4806 10.8531 62.6776 11.845C62.6951 11.9285 62.6951 11.9286 62.7122 12.0104C62.7568 12.2291 62.803 12.4473 62.8534 12.6648C63.1428 13.8215 63.5329 14.8004 64.5761 15.444C64.7332 15.3183 64.7994 15.1732 64.8722 14.9886C64.8867 14.9496 64.9007 14.9117 64.9148 14.8739C65.0773 14.4374 65.1694 14.0041 65.2388 13.5448C65.2784 13.2888 65.2784 13.2887 65.3198 13.0329C65.327 12.9888 65.3339 12.9459 65.3408 12.9031C65.4106 12.4677 65.4961 12.0369 65.5893 11.6059C65.6567 11.309 65.7224 11.039 65.6848 10.734L65.6493 10.5469H65.7623C65.7719 10.2576 65.7441 9.98446 65.702 9.6981L65.6775 9.53726C65.6496 9.34842 65.6215 9.15959 65.5928 8.97086L65.4234 9.02715C65.41 8.40785 65.3771 7.82649 65.1812 7.2329C65.1609 7.17256 65.1608 7.17253 65.141 7.11335C64.9519 6.53574 64.7473 5.96832 64.4751 5.42376C64.4507 5.37624 64.4269 5.3301 64.4031 5.28397C64.2963 5.07183 64.1913 4.87679 64.0275 4.70273C63.7792 4.47919 63.6149 4.41731 63.277 4.4115L63.2205 4.46779Z" fill="#3D007C"/>
<path d="M56.0471 2.38507C57.8684 2.44599 57.8684 2.44599 58.4371 2.95147C58.6828 3.23265 58.5993 3.66357 58.5995 4.01391L58.6016 4.23038C58.6025 4.85531 58.5423 5.43256 58.31 6.01567L58.2669 6.13088C58.1116 6.53304 58.1116 6.53305 57.9676 6.66298C57.1188 6.76826 56.0642 6.33119 55.3693 5.87495C55.0716 5.58429 55.062 5.21024 55.0551 4.81602C55.0661 4.04289 55.1604 3.15651 55.5953 2.49764H55.8212V2.7228H56.0471V2.38507Z" fill="#3D007C"/>
</svg>
